M48
; DRILL file {KiCad 8.0.1} date 2024-04-05T15:31:15-0700
; FORMAT={-:-/ absolute / inch / decimal}
; #@! TF.CreationDate,2024-04-05T15:31:15-07:00
; #@! TF.GenerationSoftware,Kicad,Pcbnew,8.0.1
; #@! TF.FileFunction,Plated,1,2,PTH
FMAT,2
INCH
; #@! TA.AperFunction,Plated,PTH,ComponentDrill
T1C0.0079
; #@! TA.AperFunction,Plated,PTH,ViaDrill
T2C0.0118
; #@! TA.AperFunction,Plated,PTH,ViaDrill
T3C0.0197
; #@! TA.AperFunction,Plated,PTH,ComponentDrill
T4C0.0394
; #@! TA.AperFunction,Plated,PTH,ComponentDrill
T5C0.0512
; #@! TA.AperFunction,Plated,PTH,ComponentDrill
T6C0.1260
%
G90
G05
T1
X4.8922Y-5.2933
X4.8922Y-5.3445
X4.8922Y-5.3957
X4.9434Y-5.2933
X4.9434Y-5.3445
X4.9434Y-5.3957
X4.9946Y-5.2933
X4.9946Y-5.3445
X4.9946Y-5.3957
T2
X4.563Y-4.7638
X4.563Y-4.8386
X4.5866Y-4.8853
X4.5925Y-5.4764
X4.6043Y-4.9469
X4.6181Y-5.4252
X4.6339Y-5.3268
X4.6496Y-5.4921
X4.6732Y-5.2402
X4.6772Y-5.4606
X4.6929Y-5.3661
X4.7047Y-5.6969
X4.7362Y-5.185
X4.7362Y-5.3661
X4.7402Y-5.3091
X4.8071Y-5.0236
X4.9409Y-5.1614
X4.9409Y-5.1969
X4.9449Y-5.6969
X4.9803Y-5.5728
X4.9803Y-5.6339
X4.9961Y-5.6929
X5.0433Y-5.7362
X5.0512Y-5.4843
X5.0787Y-5.0197
X5.0807Y-5.6811
X5.1024Y-5.248
X5.1063Y-5.3976
X5.1063Y-5.6496
X5.1236Y-5.4559
X5.126Y-5.3622
X5.1319Y-5.5472
X5.1337Y-5.5012
X5.1359Y-5.1674
X5.1457Y-5.2441
X5.1716Y-5.4307
X5.1772Y-5.6142
X5.2087Y-4.9882
X5.2323Y-5.0433
T3
X3.9189Y-4.9961
X4.0118Y-5.7756
X4.2205Y-4.7717
X4.2717Y-4.6516
X4.2756Y-5.9213
X4.3071Y-5.1378
X4.3071Y-5.315
X4.3071Y-5.6181
X4.315Y-5.4685
X4.315Y-5.9685
X4.3189Y-5.7677
X4.3307Y-4.8346
X4.3307Y-4.9803
X4.3425Y-4.5984
X4.4291Y-5.5039
X4.4291Y-5.6417
X4.4331Y-4.8465
X4.4331Y-5.0079
X4.4331Y-5.1811
X4.4331Y-5.3228
X4.4331Y-5.8228
X4.437Y-4.7264
X4.5354Y-6.2047
X4.5472Y-4.5354
X4.5591Y-6.1378
X4.6496Y-4.7677
X4.6496Y-5.9291
X4.7126Y-4.5354
X4.7126Y-6.063
X4.7598Y-5.8307
X4.7717Y-4.9646
X4.8071Y-4.7795
X4.8189Y-5.9606
X4.8386Y-5.7717
X4.8583Y-5.1772
X4.8583Y-6.063
X4.8898Y-4.5394
X4.9252Y-5.8307
X4.9252Y-5.9646
X4.9449Y-5.9026
X4.9606Y-4.7835
X4.9685Y-4.8976
X5.0276Y-5.1772
X5.0354Y-6.0748
X5.0433Y-4.5591
X5.0866Y-4.7756
X5.1378Y-5.7835
X5.1417Y-6.0709
X5.1535Y-4.878
X5.1614Y-5.0512
X5.1929Y-6.1929
X5.1969Y-6.0039
X5.2047Y-4.5591
X5.2441Y-5.7165
X5.252Y-4.7362
X5.3189Y-5.8465
X5.3465Y-5.0118
X5.3583Y-5.5709
X5.4961Y-4.9488
X5.5039Y-5.4094
X5.5197Y-5.8976
X5.5512Y-5.2913
X5.5748Y-5.5118
X5.6063Y-5.7835
X5.6181Y-5.7008
X5.685Y-5.689
X5.7362Y-5.4252
X5.7441Y-5.5236
X5.9291Y-5.5512
T4
X3.8189Y-5.1299
X3.8189Y-5.2299
X3.8189Y-5.3299
X3.8189Y-5.4299
X3.8189Y-5.5299
X3.8189Y-5.6299
X3.9189Y-5.1299
X3.9189Y-5.2299
X3.9189Y-5.3299
X3.9189Y-5.4299
X3.9189Y-5.5299
X3.9189Y-5.6299
X4.6031Y-6.4173
X4.7031Y-6.4173
X4.8031Y-6.4173
X4.9031Y-6.4173
X5.0031Y-6.4173
X6.0236Y-5.5118
X6.0236Y-5.6118
X6.0236Y-5.7118
T5
X4.6213Y-4.3581
X4.8213Y-4.3581
X5.0213Y-4.3581
X5.2213Y-4.3581
X5.9449Y-5.0362
X5.9449Y-5.2362
T6
X3.937Y-4.7244
X3.937Y-5.9744
X4.312Y-4.3494
X4.312Y-6.3494
X5.562Y-4.3494
X5.562Y-6.3494
X5.937Y-4.7244
X5.937Y-5.9744
M30
