M48
; DRILL file {KiCad 8.0.1} date 2024-04-11T10:52:23-0700
; FORMAT={-:-/ absolute / inch / decimal}
; #@! TF.CreationDate,2024-04-11T10:52:23-07:00
; #@! TF.GenerationSoftware,Kicad,Pcbnew,8.0.1
; #@! TF.FileFunction,Plated,1,4,PTH
FMAT,2
INCH
; #@! TA.AperFunction,Plated,PTH,ViaDrill
T1C0.0118
; #@! TA.AperFunction,Plated,PTH,ComponentDrill
T2C0.0118
; #@! TA.AperFunction,Plated,PTH,ComponentDrill
T3C0.0236
; #@! TA.AperFunction,Plated,PTH,ComponentDrill
T4C0.0394
; #@! TA.AperFunction,Plated,PTH,ComponentDrill
T5C0.1260
%
G90
G05
T1
X3.9008Y-5.6945
X3.9039Y-5.4949
X4.0154Y-5.4547
X4.0189Y-5.122
X4.0512Y-5.4795
X4.1114Y-5.6736
X4.1386Y-5.422
X4.1835Y-5.3669
X4.1945Y-5.3118
X4.3272Y-5.0421
X4.3287Y-4.7146
X4.3768Y-5.0248
X4.3776Y-4.7146
X4.4039Y-4.7618
X4.4094Y-5.1811
X4.4248Y-4.6492
X4.4291Y-5.0354
X4.4346Y-4.6906
X4.474Y-4.6335
X4.4992Y-4.7441
X4.502Y-5.3272
X4.5031Y-5.6539
X4.5079Y-5.5315
X4.5134Y-5.4783
X4.5394Y-4.498
X4.5429Y-4.2134
X4.548Y-4.837
X4.5567Y-5.4323
X4.5803Y-5.0988
X4.5898Y-5.3961
X4.5965Y-5.7854
X4.6169Y-4.4354
X4.623Y-5.2047
X4.6303Y-5.8638
X4.6339Y-4.2276
X4.6503Y-4.7844
X4.6579Y-4.815
X4.674Y-5.4862
X4.6882Y-5.0827
X4.715Y-5.5134
X4.722Y-4.2732
X4.7354Y-4.6295
X4.7386Y-5.6811
X4.7516Y-5.5343
X4.7543Y-5.2984
X4.7551Y-4.9961
X4.7555Y-4.7445
X4.7559Y-4.8394
X4.7598Y-5.348
X4.763Y-5.0787
X4.7638Y-5.4213
X4.7681Y-6.0059
X4.7701Y-5.2205
X4.7756Y-5.8346
X4.7776Y-6.3492
X4.7846Y-5.685
X4.7874Y-5.5252
X4.7878Y-4.7461
X4.7969Y-5.1421
X4.8066Y-4.7781
X4.808Y-4.8095
X4.8086Y-4.9218
X4.8094Y-4.9543
X4.811Y-4.8568
X4.811Y-6.1055
X4.8122Y-4.8906
X4.8228Y-5.8614
X4.8272Y-6.1374
X4.8403Y-4.5779
X4.8453Y-4.6567
X4.8465Y-5.8323
X4.8524Y-4.6248
X4.8539Y-4.9606
X4.8622Y-5.8634
X4.8744Y-4.2961
X4.8756Y-5.7937
X4.8768Y-5.5154
X4.8787Y-5.6921
X4.8803Y-5.2992
X4.8819Y-5.4173
X4.8839Y-5.0453
X4.8839Y-5.0768
X4.8886Y-4.4752
X4.8929Y-4.7425
X4.8941Y-5.1614
X4.8953Y-5.3437
X4.8978Y-4.8044
X4.8992Y-4.8394
X4.9006Y-4.7731
X4.9016Y-6.1685
X4.9027Y-4.8707
X4.9028Y-5.4965
X4.9126Y-4.7154
X4.9193Y-5.7154
X4.9264Y-4.967
X4.9277Y-4.8898
X4.928Y-4.6177
X4.9315Y-5.5154
X4.9409Y-6.1677
X4.9449Y-5.3583
X4.9567Y-4.7047
X4.9567Y-4.7591
X4.9587Y-5.7549
X4.9634Y-4.8248
X4.9787Y-5.5539
X4.9846Y-4.8839
X4.9882Y-4.3575
X4.9882Y-5.2717
X4.9902Y-5.6917
X4.9921Y-4.7047
X4.9952Y-4.6147
X4.9996Y-5.8634
X5.0154Y-4.2965
X5.0161Y-4.8851
X5.0257Y-5.029
X5.026Y-4.7587
X5.026Y-4.828
X5.0299Y-4.6988
X5.0335Y-5.6913
X5.0348Y-4.9762
X5.037Y-5.8949
X5.0476Y-4.8827
X5.0547Y-6.128
X5.0591Y-5.5598
X5.0657Y-5.4772
X5.0673Y-6.0429
X5.0701Y-4.6177
X5.0768Y-5.1606
X5.0791Y-4.8795
X5.0791Y-5.2244
X5.0862Y-5.0748
X5.0937Y-6.313
X5.0965Y-6.0012
X5.1114Y-5.312
X5.115Y-5.0559
X5.1236Y-5.361
X5.1291Y-4.6232
X5.135Y-6.002
X5.1693Y-5.9114
X5.1732Y-5.5244
X5.1835Y-4.6709
X5.1846Y-5.2701
X5.198Y-4.915
X5.2063Y-5.7016
X5.2063Y-6.0449
X5.2114Y-5.5055
X5.215Y-5.7862
X5.215Y-6.1272
X5.2248Y-4.778
X5.2268Y-4.7394
X5.2283Y-5.835
X5.2287Y-4.8618
X5.2307Y-5.1575
X5.2327Y-6.1705
X5.2472Y-5.0894
X5.2795Y-6.1142
X5.2929Y-4.6327
X5.2953Y-5.378
X5.2953Y-5.748
X5.3287Y-4.8276
X5.3386Y-4.6024
X5.3504Y-4.8819
X5.3858Y-6.1142
X5.3858Y-6.2437
X5.3902Y-4.7783
X5.3904Y-5.1575
X5.3961Y-5.2165
X5.413Y-5.4819
X5.4197Y-4.7508
X5.4232Y-4.711
X5.4567Y-5.2795
X5.4567Y-5.6614
X5.4685Y-5.5453
X5.4921Y-5.1654
X5.5118Y-5.3307
X5.5236Y-5.3898
X5.574Y-5.0543
X5.5906Y-5.5039
X5.6051Y-5.1106
X5.6142Y-5.2874
X5.6228Y-4.9071
X5.6931Y-4.9423
X5.7008Y-5.3307
X5.7118Y-5.1169
X5.7594Y-4.9449
X5.7756Y-5.5039
X5.7795Y-5.2559
X5.7874Y-5.4252
X5.8189Y-5.6732
X5.8364Y-5.1833
X5.8484Y-5.2913
X5.8488Y-5.4685
X5.9449Y-5.1811
X5.9449Y-5.3386
X5.9449Y-5.4488
T2
X4.8799Y-5.9552
X4.8799Y-6.0064
X4.8799Y-6.0576
X4.9311Y-5.9552
X4.9311Y-6.0064
X4.9311Y-6.0576
X4.9823Y-5.9552
X4.9823Y-6.0064
X4.9823Y-6.0576
T4
X3.8268Y-4.9598
X3.8268Y-5.0598
X3.8268Y-5.1598
X3.8268Y-5.2598
X3.8268Y-5.4488
X3.8268Y-5.5488
X3.8268Y-5.6488
X3.8268Y-5.7488
X4.6193Y-6.4409
X4.7193Y-6.4409
X4.8193Y-6.4409
X4.9193Y-6.4409
X5.19Y-6.4331
X5.29Y-6.4331
X5.5276Y-4.6457
X5.5276Y-4.7457
X5.6969Y-4.6427
X5.6969Y-4.7427
X5.8508Y-5.0138
X5.9508Y-5.0138
X6.0236Y-5.189
X6.0236Y-5.289
X6.0236Y-5.389
X6.0236Y-5.489
X6.0236Y-5.589
X6.0236Y-5.689
X6.0508Y-5.0138
T5
X3.937Y-4.7244
X3.937Y-5.9744
X4.312Y-4.3494
X4.312Y-6.3494
X5.562Y-4.3494
X5.562Y-6.3494
X5.937Y-4.7244
X5.937Y-5.9744
T3
G00X4.7717Y-4.2323
M15
G01X4.7717Y-4.2087
M16
G05
G00X4.7717Y-4.4067
M15
G01X4.7717Y-4.3634
M16
G05
G00X5.1118Y-4.2323
M15
G01X5.1118Y-4.2087
M16
G05
G00X5.1118Y-4.4067
M15
G01X5.1118Y-4.3634
M16
G05
M30
