%TF.GenerationSoftware,KiCad,Pcbnew,8.0.1*%
%TF.CreationDate,2024-04-05T15:31:18-07:00*%
%TF.ProjectId,TMC2240Breakout,544d4332-3234-4304-9272-65616b6f7574,rev?*%
%TF.SameCoordinates,Original*%
%TF.FileFunction,Legend,Top*%
%TF.FilePolarity,Positive*%
%FSLAX46Y46*%
G04 Gerber Fmt 4.6, Leading zero omitted, Abs format (unit mm)*
G04 Created by KiCad (PCBNEW 8.0.1) date 2024-04-05 15:31:18*
%MOMM*%
%LPD*%
G01*
G04 APERTURE LIST*
%ADD10C,0.150000*%
%ADD11C,0.120000*%
G04 APERTURE END LIST*
D10*
X97460476Y-127424819D02*
X97460476Y-128139104D01*
X97460476Y-128139104D02*
X97412857Y-128281961D01*
X97412857Y-128281961D02*
X97317619Y-128377200D01*
X97317619Y-128377200D02*
X97174762Y-128424819D01*
X97174762Y-128424819D02*
X97079524Y-128424819D01*
X98460476Y-128424819D02*
X97889048Y-128424819D01*
X98174762Y-128424819D02*
X98174762Y-127424819D01*
X98174762Y-127424819D02*
X98079524Y-127567676D01*
X98079524Y-127567676D02*
X97984286Y-127662914D01*
X97984286Y-127662914D02*
X97889048Y-127710533D01*
X98793810Y-127424819D02*
X99412857Y-127424819D01*
X99412857Y-127424819D02*
X99079524Y-127805771D01*
X99079524Y-127805771D02*
X99222381Y-127805771D01*
X99222381Y-127805771D02*
X99317619Y-127853390D01*
X99317619Y-127853390D02*
X99365238Y-127901009D01*
X99365238Y-127901009D02*
X99412857Y-127996247D01*
X99412857Y-127996247D02*
X99412857Y-128234342D01*
X99412857Y-128234342D02*
X99365238Y-128329580D01*
X99365238Y-128329580D02*
X99317619Y-128377200D01*
X99317619Y-128377200D02*
X99222381Y-128424819D01*
X99222381Y-128424819D02*
X98936667Y-128424819D01*
X98936667Y-128424819D02*
X98841429Y-128377200D01*
X98841429Y-128377200D02*
X98793810Y-128329580D01*
X145039580Y-131116666D02*
X145087200Y-131164285D01*
X145087200Y-131164285D02*
X145134819Y-131307142D01*
X145134819Y-131307142D02*
X145134819Y-131402380D01*
X145134819Y-131402380D02*
X145087200Y-131545237D01*
X145087200Y-131545237D02*
X144991961Y-131640475D01*
X144991961Y-131640475D02*
X144896723Y-131688094D01*
X144896723Y-131688094D02*
X144706247Y-131735713D01*
X144706247Y-131735713D02*
X144563390Y-131735713D01*
X144563390Y-131735713D02*
X144372914Y-131688094D01*
X144372914Y-131688094D02*
X144277676Y-131640475D01*
X144277676Y-131640475D02*
X144182438Y-131545237D01*
X144182438Y-131545237D02*
X144134819Y-131402380D01*
X144134819Y-131402380D02*
X144134819Y-131307142D01*
X144134819Y-131307142D02*
X144182438Y-131164285D01*
X144182438Y-131164285D02*
X144230057Y-131116666D01*
X144134819Y-130783332D02*
X144134819Y-130164285D01*
X144134819Y-130164285D02*
X144515771Y-130497618D01*
X144515771Y-130497618D02*
X144515771Y-130354761D01*
X144515771Y-130354761D02*
X144563390Y-130259523D01*
X144563390Y-130259523D02*
X144611009Y-130211904D01*
X144611009Y-130211904D02*
X144706247Y-130164285D01*
X144706247Y-130164285D02*
X144944342Y-130164285D01*
X144944342Y-130164285D02*
X145039580Y-130211904D01*
X145039580Y-130211904D02*
X145087200Y-130259523D01*
X145087200Y-130259523D02*
X145134819Y-130354761D01*
X145134819Y-130354761D02*
X145134819Y-130640475D01*
X145134819Y-130640475D02*
X145087200Y-130735713D01*
X145087200Y-130735713D02*
X145039580Y-130783332D01*
X122804819Y-149179166D02*
X122328628Y-149512499D01*
X122804819Y-149750594D02*
X121804819Y-149750594D01*
X121804819Y-149750594D02*
X121804819Y-149369642D01*
X121804819Y-149369642D02*
X121852438Y-149274404D01*
X121852438Y-149274404D02*
X121900057Y-149226785D01*
X121900057Y-149226785D02*
X121995295Y-149179166D01*
X121995295Y-149179166D02*
X122138152Y-149179166D01*
X122138152Y-149179166D02*
X122233390Y-149226785D01*
X122233390Y-149226785D02*
X122281009Y-149274404D01*
X122281009Y-149274404D02*
X122328628Y-149369642D01*
X122328628Y-149369642D02*
X122328628Y-149750594D01*
X121804819Y-148845832D02*
X121804819Y-148179166D01*
X121804819Y-148179166D02*
X122804819Y-148607737D01*
X127854819Y-154600594D02*
X126854819Y-154600594D01*
X126854819Y-154600594D02*
X126854819Y-154362499D01*
X126854819Y-154362499D02*
X126902438Y-154219642D01*
X126902438Y-154219642D02*
X126997676Y-154124404D01*
X126997676Y-154124404D02*
X127092914Y-154076785D01*
X127092914Y-154076785D02*
X127283390Y-154029166D01*
X127283390Y-154029166D02*
X127426247Y-154029166D01*
X127426247Y-154029166D02*
X127616723Y-154076785D01*
X127616723Y-154076785D02*
X127711961Y-154124404D01*
X127711961Y-154124404D02*
X127807200Y-154219642D01*
X127807200Y-154219642D02*
X127854819Y-154362499D01*
X127854819Y-154362499D02*
X127854819Y-154600594D01*
X126854819Y-153695832D02*
X126854819Y-153076785D01*
X126854819Y-153076785D02*
X127235771Y-153410118D01*
X127235771Y-153410118D02*
X127235771Y-153267261D01*
X127235771Y-153267261D02*
X127283390Y-153172023D01*
X127283390Y-153172023D02*
X127331009Y-153124404D01*
X127331009Y-153124404D02*
X127426247Y-153076785D01*
X127426247Y-153076785D02*
X127664342Y-153076785D01*
X127664342Y-153076785D02*
X127759580Y-153124404D01*
X127759580Y-153124404D02*
X127807200Y-153172023D01*
X127807200Y-153172023D02*
X127854819Y-153267261D01*
X127854819Y-153267261D02*
X127854819Y-153552975D01*
X127854819Y-153552975D02*
X127807200Y-153648213D01*
X127807200Y-153648213D02*
X127759580Y-153695832D01*
X128039580Y-119166666D02*
X128087200Y-119214285D01*
X128087200Y-119214285D02*
X128134819Y-119357142D01*
X128134819Y-119357142D02*
X128134819Y-119452380D01*
X128134819Y-119452380D02*
X128087200Y-119595237D01*
X128087200Y-119595237D02*
X127991961Y-119690475D01*
X127991961Y-119690475D02*
X127896723Y-119738094D01*
X127896723Y-119738094D02*
X127706247Y-119785713D01*
X127706247Y-119785713D02*
X127563390Y-119785713D01*
X127563390Y-119785713D02*
X127372914Y-119738094D01*
X127372914Y-119738094D02*
X127277676Y-119690475D01*
X127277676Y-119690475D02*
X127182438Y-119595237D01*
X127182438Y-119595237D02*
X127134819Y-119452380D01*
X127134819Y-119452380D02*
X127134819Y-119357142D01*
X127134819Y-119357142D02*
X127182438Y-119214285D01*
X127182438Y-119214285D02*
X127230057Y-119166666D01*
X127563390Y-118595237D02*
X127515771Y-118690475D01*
X127515771Y-118690475D02*
X127468152Y-118738094D01*
X127468152Y-118738094D02*
X127372914Y-118785713D01*
X127372914Y-118785713D02*
X127325295Y-118785713D01*
X127325295Y-118785713D02*
X127230057Y-118738094D01*
X127230057Y-118738094D02*
X127182438Y-118690475D01*
X127182438Y-118690475D02*
X127134819Y-118595237D01*
X127134819Y-118595237D02*
X127134819Y-118404761D01*
X127134819Y-118404761D02*
X127182438Y-118309523D01*
X127182438Y-118309523D02*
X127230057Y-118261904D01*
X127230057Y-118261904D02*
X127325295Y-118214285D01*
X127325295Y-118214285D02*
X127372914Y-118214285D01*
X127372914Y-118214285D02*
X127468152Y-118261904D01*
X127468152Y-118261904D02*
X127515771Y-118309523D01*
X127515771Y-118309523D02*
X127563390Y-118404761D01*
X127563390Y-118404761D02*
X127563390Y-118595237D01*
X127563390Y-118595237D02*
X127611009Y-118690475D01*
X127611009Y-118690475D02*
X127658628Y-118738094D01*
X127658628Y-118738094D02*
X127753866Y-118785713D01*
X127753866Y-118785713D02*
X127944342Y-118785713D01*
X127944342Y-118785713D02*
X128039580Y-118738094D01*
X128039580Y-118738094D02*
X128087200Y-118690475D01*
X128087200Y-118690475D02*
X128134819Y-118595237D01*
X128134819Y-118595237D02*
X128134819Y-118404761D01*
X128134819Y-118404761D02*
X128087200Y-118309523D01*
X128087200Y-118309523D02*
X128039580Y-118261904D01*
X128039580Y-118261904D02*
X127944342Y-118214285D01*
X127944342Y-118214285D02*
X127753866Y-118214285D01*
X127753866Y-118214285D02*
X127658628Y-118261904D01*
X127658628Y-118261904D02*
X127611009Y-118309523D01*
X127611009Y-118309523D02*
X127563390Y-118404761D01*
X104357142Y-133804819D02*
X104023809Y-133328628D01*
X103785714Y-133804819D02*
X103785714Y-132804819D01*
X103785714Y-132804819D02*
X104166666Y-132804819D01*
X104166666Y-132804819D02*
X104261904Y-132852438D01*
X104261904Y-132852438D02*
X104309523Y-132900057D01*
X104309523Y-132900057D02*
X104357142Y-132995295D01*
X104357142Y-132995295D02*
X104357142Y-133138152D01*
X104357142Y-133138152D02*
X104309523Y-133233390D01*
X104309523Y-133233390D02*
X104261904Y-133281009D01*
X104261904Y-133281009D02*
X104166666Y-133328628D01*
X104166666Y-133328628D02*
X103785714Y-133328628D01*
X104738095Y-132900057D02*
X104785714Y-132852438D01*
X104785714Y-132852438D02*
X104880952Y-132804819D01*
X104880952Y-132804819D02*
X105119047Y-132804819D01*
X105119047Y-132804819D02*
X105214285Y-132852438D01*
X105214285Y-132852438D02*
X105261904Y-132900057D01*
X105261904Y-132900057D02*
X105309523Y-132995295D01*
X105309523Y-132995295D02*
X105309523Y-133090533D01*
X105309523Y-133090533D02*
X105261904Y-133233390D01*
X105261904Y-133233390D02*
X104690476Y-133804819D01*
X104690476Y-133804819D02*
X105309523Y-133804819D01*
X105928571Y-132804819D02*
X106023809Y-132804819D01*
X106023809Y-132804819D02*
X106119047Y-132852438D01*
X106119047Y-132852438D02*
X106166666Y-132900057D01*
X106166666Y-132900057D02*
X106214285Y-132995295D01*
X106214285Y-132995295D02*
X106261904Y-133185771D01*
X106261904Y-133185771D02*
X106261904Y-133423866D01*
X106261904Y-133423866D02*
X106214285Y-133614342D01*
X106214285Y-133614342D02*
X106166666Y-133709580D01*
X106166666Y-133709580D02*
X106119047Y-133757200D01*
X106119047Y-133757200D02*
X106023809Y-133804819D01*
X106023809Y-133804819D02*
X105928571Y-133804819D01*
X105928571Y-133804819D02*
X105833333Y-133757200D01*
X105833333Y-133757200D02*
X105785714Y-133709580D01*
X105785714Y-133709580D02*
X105738095Y-133614342D01*
X105738095Y-133614342D02*
X105690476Y-133423866D01*
X105690476Y-133423866D02*
X105690476Y-133185771D01*
X105690476Y-133185771D02*
X105738095Y-132995295D01*
X105738095Y-132995295D02*
X105785714Y-132900057D01*
X105785714Y-132900057D02*
X105833333Y-132852438D01*
X105833333Y-132852438D02*
X105928571Y-132804819D01*
X119104819Y-154555357D02*
X118628628Y-154888690D01*
X119104819Y-155126785D02*
X118104819Y-155126785D01*
X118104819Y-155126785D02*
X118104819Y-154745833D01*
X118104819Y-154745833D02*
X118152438Y-154650595D01*
X118152438Y-154650595D02*
X118200057Y-154602976D01*
X118200057Y-154602976D02*
X118295295Y-154555357D01*
X118295295Y-154555357D02*
X118438152Y-154555357D01*
X118438152Y-154555357D02*
X118533390Y-154602976D01*
X118533390Y-154602976D02*
X118581009Y-154650595D01*
X118581009Y-154650595D02*
X118628628Y-154745833D01*
X118628628Y-154745833D02*
X118628628Y-155126785D01*
X119104819Y-153602976D02*
X119104819Y-154174404D01*
X119104819Y-153888690D02*
X118104819Y-153888690D01*
X118104819Y-153888690D02*
X118247676Y-153983928D01*
X118247676Y-153983928D02*
X118342914Y-154079166D01*
X118342914Y-154079166D02*
X118390533Y-154174404D01*
X118104819Y-152983928D02*
X118104819Y-152888690D01*
X118104819Y-152888690D02*
X118152438Y-152793452D01*
X118152438Y-152793452D02*
X118200057Y-152745833D01*
X118200057Y-152745833D02*
X118295295Y-152698214D01*
X118295295Y-152698214D02*
X118485771Y-152650595D01*
X118485771Y-152650595D02*
X118723866Y-152650595D01*
X118723866Y-152650595D02*
X118914342Y-152698214D01*
X118914342Y-152698214D02*
X119009580Y-152745833D01*
X119009580Y-152745833D02*
X119057200Y-152793452D01*
X119057200Y-152793452D02*
X119104819Y-152888690D01*
X119104819Y-152888690D02*
X119104819Y-152983928D01*
X119104819Y-152983928D02*
X119057200Y-153079166D01*
X119057200Y-153079166D02*
X119009580Y-153126785D01*
X119009580Y-153126785D02*
X118914342Y-153174404D01*
X118914342Y-153174404D02*
X118723866Y-153222023D01*
X118723866Y-153222023D02*
X118485771Y-153222023D01*
X118485771Y-153222023D02*
X118295295Y-153174404D01*
X118295295Y-153174404D02*
X118200057Y-153126785D01*
X118200057Y-153126785D02*
X118152438Y-153079166D01*
X118152438Y-153079166D02*
X118104819Y-152983928D01*
X116104819Y-121642857D02*
X115628628Y-121976190D01*
X116104819Y-122214285D02*
X115104819Y-122214285D01*
X115104819Y-122214285D02*
X115104819Y-121833333D01*
X115104819Y-121833333D02*
X115152438Y-121738095D01*
X115152438Y-121738095D02*
X115200057Y-121690476D01*
X115200057Y-121690476D02*
X115295295Y-121642857D01*
X115295295Y-121642857D02*
X115438152Y-121642857D01*
X115438152Y-121642857D02*
X115533390Y-121690476D01*
X115533390Y-121690476D02*
X115581009Y-121738095D01*
X115581009Y-121738095D02*
X115628628Y-121833333D01*
X115628628Y-121833333D02*
X115628628Y-122214285D01*
X115200057Y-121261904D02*
X115152438Y-121214285D01*
X115152438Y-121214285D02*
X115104819Y-121119047D01*
X115104819Y-121119047D02*
X115104819Y-120880952D01*
X115104819Y-120880952D02*
X115152438Y-120785714D01*
X115152438Y-120785714D02*
X115200057Y-120738095D01*
X115200057Y-120738095D02*
X115295295Y-120690476D01*
X115295295Y-120690476D02*
X115390533Y-120690476D01*
X115390533Y-120690476D02*
X115533390Y-120738095D01*
X115533390Y-120738095D02*
X116104819Y-121309523D01*
X116104819Y-121309523D02*
X116104819Y-120690476D01*
X115104819Y-120357142D02*
X115104819Y-119690476D01*
X115104819Y-119690476D02*
X116104819Y-120119047D01*
X129104819Y-149166666D02*
X128628628Y-149499999D01*
X129104819Y-149738094D02*
X128104819Y-149738094D01*
X128104819Y-149738094D02*
X128104819Y-149357142D01*
X128104819Y-149357142D02*
X128152438Y-149261904D01*
X128152438Y-149261904D02*
X128200057Y-149214285D01*
X128200057Y-149214285D02*
X128295295Y-149166666D01*
X128295295Y-149166666D02*
X128438152Y-149166666D01*
X128438152Y-149166666D02*
X128533390Y-149214285D01*
X128533390Y-149214285D02*
X128581009Y-149261904D01*
X128581009Y-149261904D02*
X128628628Y-149357142D01*
X128628628Y-149357142D02*
X128628628Y-149738094D01*
X128104819Y-148309523D02*
X128104819Y-148499999D01*
X128104819Y-148499999D02*
X128152438Y-148595237D01*
X128152438Y-148595237D02*
X128200057Y-148642856D01*
X128200057Y-148642856D02*
X128342914Y-148738094D01*
X128342914Y-148738094D02*
X128533390Y-148785713D01*
X128533390Y-148785713D02*
X128914342Y-148785713D01*
X128914342Y-148785713D02*
X129009580Y-148738094D01*
X129009580Y-148738094D02*
X129057200Y-148690475D01*
X129057200Y-148690475D02*
X129104819Y-148595237D01*
X129104819Y-148595237D02*
X129104819Y-148404761D01*
X129104819Y-148404761D02*
X129057200Y-148309523D01*
X129057200Y-148309523D02*
X129009580Y-148261904D01*
X129009580Y-148261904D02*
X128914342Y-148214285D01*
X128914342Y-148214285D02*
X128676247Y-148214285D01*
X128676247Y-148214285D02*
X128581009Y-148261904D01*
X128581009Y-148261904D02*
X128533390Y-148309523D01*
X128533390Y-148309523D02*
X128485771Y-148404761D01*
X128485771Y-148404761D02*
X128485771Y-148595237D01*
X128485771Y-148595237D02*
X128533390Y-148690475D01*
X128533390Y-148690475D02*
X128581009Y-148738094D01*
X128581009Y-148738094D02*
X128676247Y-148785713D01*
X121217319Y-136511904D02*
X122026842Y-136511904D01*
X122026842Y-136511904D02*
X122122080Y-136464285D01*
X122122080Y-136464285D02*
X122169700Y-136416666D01*
X122169700Y-136416666D02*
X122217319Y-136321428D01*
X122217319Y-136321428D02*
X122217319Y-136130952D01*
X122217319Y-136130952D02*
X122169700Y-136035714D01*
X122169700Y-136035714D02*
X122122080Y-135988095D01*
X122122080Y-135988095D02*
X122026842Y-135940476D01*
X122026842Y-135940476D02*
X121217319Y-135940476D01*
X122217319Y-134940476D02*
X122217319Y-135511904D01*
X122217319Y-135226190D02*
X121217319Y-135226190D01*
X121217319Y-135226190D02*
X121360176Y-135321428D01*
X121360176Y-135321428D02*
X121455414Y-135416666D01*
X121455414Y-135416666D02*
X121503033Y-135511904D01*
X140465476Y-156929819D02*
X140465476Y-157644104D01*
X140465476Y-157644104D02*
X140417857Y-157786961D01*
X140417857Y-157786961D02*
X140322619Y-157882200D01*
X140322619Y-157882200D02*
X140179762Y-157929819D01*
X140179762Y-157929819D02*
X140084524Y-157929819D01*
X141465476Y-157929819D02*
X140894048Y-157929819D01*
X141179762Y-157929819D02*
X141179762Y-156929819D01*
X141179762Y-156929819D02*
X141084524Y-157072676D01*
X141084524Y-157072676D02*
X140989286Y-157167914D01*
X140989286Y-157167914D02*
X140894048Y-157215533D01*
X142084524Y-156929819D02*
X142179762Y-156929819D01*
X142179762Y-156929819D02*
X142275000Y-156977438D01*
X142275000Y-156977438D02*
X142322619Y-157025057D01*
X142322619Y-157025057D02*
X142370238Y-157120295D01*
X142370238Y-157120295D02*
X142417857Y-157310771D01*
X142417857Y-157310771D02*
X142417857Y-157548866D01*
X142417857Y-157548866D02*
X142370238Y-157739342D01*
X142370238Y-157739342D02*
X142322619Y-157834580D01*
X142322619Y-157834580D02*
X142275000Y-157882200D01*
X142275000Y-157882200D02*
X142179762Y-157929819D01*
X142179762Y-157929819D02*
X142084524Y-157929819D01*
X142084524Y-157929819D02*
X141989286Y-157882200D01*
X141989286Y-157882200D02*
X141941667Y-157834580D01*
X141941667Y-157834580D02*
X141894048Y-157739342D01*
X141894048Y-157739342D02*
X141846429Y-157548866D01*
X141846429Y-157548866D02*
X141846429Y-157310771D01*
X141846429Y-157310771D02*
X141894048Y-157120295D01*
X141894048Y-157120295D02*
X141941667Y-157025057D01*
X141941667Y-157025057D02*
X141989286Y-156977438D01*
X141989286Y-156977438D02*
X142084524Y-156929819D01*
X99666666Y-115654819D02*
X99666666Y-116369104D01*
X99666666Y-116369104D02*
X99619047Y-116511961D01*
X99619047Y-116511961D02*
X99523809Y-116607200D01*
X99523809Y-116607200D02*
X99380952Y-116654819D01*
X99380952Y-116654819D02*
X99285714Y-116654819D01*
X100619047Y-115654819D02*
X100142857Y-115654819D01*
X100142857Y-115654819D02*
X100095238Y-116131009D01*
X100095238Y-116131009D02*
X100142857Y-116083390D01*
X100142857Y-116083390D02*
X100238095Y-116035771D01*
X100238095Y-116035771D02*
X100476190Y-116035771D01*
X100476190Y-116035771D02*
X100571428Y-116083390D01*
X100571428Y-116083390D02*
X100619047Y-116131009D01*
X100619047Y-116131009D02*
X100666666Y-116226247D01*
X100666666Y-116226247D02*
X100666666Y-116464342D01*
X100666666Y-116464342D02*
X100619047Y-116559580D01*
X100619047Y-116559580D02*
X100571428Y-116607200D01*
X100571428Y-116607200D02*
X100476190Y-116654819D01*
X100476190Y-116654819D02*
X100238095Y-116654819D01*
X100238095Y-116654819D02*
X100142857Y-116607200D01*
X100142857Y-116607200D02*
X100095238Y-116559580D01*
X130039580Y-142830357D02*
X130087200Y-142877976D01*
X130087200Y-142877976D02*
X130134819Y-143020833D01*
X130134819Y-143020833D02*
X130134819Y-143116071D01*
X130134819Y-143116071D02*
X130087200Y-143258928D01*
X130087200Y-143258928D02*
X129991961Y-143354166D01*
X129991961Y-143354166D02*
X129896723Y-143401785D01*
X129896723Y-143401785D02*
X129706247Y-143449404D01*
X129706247Y-143449404D02*
X129563390Y-143449404D01*
X129563390Y-143449404D02*
X129372914Y-143401785D01*
X129372914Y-143401785D02*
X129277676Y-143354166D01*
X129277676Y-143354166D02*
X129182438Y-143258928D01*
X129182438Y-143258928D02*
X129134819Y-143116071D01*
X129134819Y-143116071D02*
X129134819Y-143020833D01*
X129134819Y-143020833D02*
X129182438Y-142877976D01*
X129182438Y-142877976D02*
X129230057Y-142830357D01*
X130134819Y-141877976D02*
X130134819Y-142449404D01*
X130134819Y-142163690D02*
X129134819Y-142163690D01*
X129134819Y-142163690D02*
X129277676Y-142258928D01*
X129277676Y-142258928D02*
X129372914Y-142354166D01*
X129372914Y-142354166D02*
X129420533Y-142449404D01*
X129230057Y-141497023D02*
X129182438Y-141449404D01*
X129182438Y-141449404D02*
X129134819Y-141354166D01*
X129134819Y-141354166D02*
X129134819Y-141116071D01*
X129134819Y-141116071D02*
X129182438Y-141020833D01*
X129182438Y-141020833D02*
X129230057Y-140973214D01*
X129230057Y-140973214D02*
X129325295Y-140925595D01*
X129325295Y-140925595D02*
X129420533Y-140925595D01*
X129420533Y-140925595D02*
X129563390Y-140973214D01*
X129563390Y-140973214D02*
X130134819Y-141544642D01*
X130134819Y-141544642D02*
X130134819Y-140925595D01*
X148104819Y-150166666D02*
X147628628Y-150499999D01*
X148104819Y-150738094D02*
X147104819Y-150738094D01*
X147104819Y-150738094D02*
X147104819Y-150357142D01*
X147104819Y-150357142D02*
X147152438Y-150261904D01*
X147152438Y-150261904D02*
X147200057Y-150214285D01*
X147200057Y-150214285D02*
X147295295Y-150166666D01*
X147295295Y-150166666D02*
X147438152Y-150166666D01*
X147438152Y-150166666D02*
X147533390Y-150214285D01*
X147533390Y-150214285D02*
X147581009Y-150261904D01*
X147581009Y-150261904D02*
X147628628Y-150357142D01*
X147628628Y-150357142D02*
X147628628Y-150738094D01*
X147200057Y-149785713D02*
X147152438Y-149738094D01*
X147152438Y-149738094D02*
X147104819Y-149642856D01*
X147104819Y-149642856D02*
X147104819Y-149404761D01*
X147104819Y-149404761D02*
X147152438Y-149309523D01*
X147152438Y-149309523D02*
X147200057Y-149261904D01*
X147200057Y-149261904D02*
X147295295Y-149214285D01*
X147295295Y-149214285D02*
X147390533Y-149214285D01*
X147390533Y-149214285D02*
X147533390Y-149261904D01*
X147533390Y-149261904D02*
X148104819Y-149833332D01*
X148104819Y-149833332D02*
X148104819Y-149214285D01*
X129357142Y-128479580D02*
X129309523Y-128527200D01*
X129309523Y-128527200D02*
X129166666Y-128574819D01*
X129166666Y-128574819D02*
X129071428Y-128574819D01*
X129071428Y-128574819D02*
X128928571Y-128527200D01*
X128928571Y-128527200D02*
X128833333Y-128431961D01*
X128833333Y-128431961D02*
X128785714Y-128336723D01*
X128785714Y-128336723D02*
X128738095Y-128146247D01*
X128738095Y-128146247D02*
X128738095Y-128003390D01*
X128738095Y-128003390D02*
X128785714Y-127812914D01*
X128785714Y-127812914D02*
X128833333Y-127717676D01*
X128833333Y-127717676D02*
X128928571Y-127622438D01*
X128928571Y-127622438D02*
X129071428Y-127574819D01*
X129071428Y-127574819D02*
X129166666Y-127574819D01*
X129166666Y-127574819D02*
X129309523Y-127622438D01*
X129309523Y-127622438D02*
X129357142Y-127670057D01*
X130309523Y-128574819D02*
X129738095Y-128574819D01*
X130023809Y-128574819D02*
X130023809Y-127574819D01*
X130023809Y-127574819D02*
X129928571Y-127717676D01*
X129928571Y-127717676D02*
X129833333Y-127812914D01*
X129833333Y-127812914D02*
X129738095Y-127860533D01*
X130928571Y-127574819D02*
X131023809Y-127574819D01*
X131023809Y-127574819D02*
X131119047Y-127622438D01*
X131119047Y-127622438D02*
X131166666Y-127670057D01*
X131166666Y-127670057D02*
X131214285Y-127765295D01*
X131214285Y-127765295D02*
X131261904Y-127955771D01*
X131261904Y-127955771D02*
X131261904Y-128193866D01*
X131261904Y-128193866D02*
X131214285Y-128384342D01*
X131214285Y-128384342D02*
X131166666Y-128479580D01*
X131166666Y-128479580D02*
X131119047Y-128527200D01*
X131119047Y-128527200D02*
X131023809Y-128574819D01*
X131023809Y-128574819D02*
X130928571Y-128574819D01*
X130928571Y-128574819D02*
X130833333Y-128527200D01*
X130833333Y-128527200D02*
X130785714Y-128479580D01*
X130785714Y-128479580D02*
X130738095Y-128384342D01*
X130738095Y-128384342D02*
X130690476Y-128193866D01*
X130690476Y-128193866D02*
X130690476Y-127955771D01*
X130690476Y-127955771D02*
X130738095Y-127765295D01*
X130738095Y-127765295D02*
X130785714Y-127670057D01*
X130785714Y-127670057D02*
X130833333Y-127622438D01*
X130833333Y-127622438D02*
X130928571Y-127574819D01*
X138433333Y-117159580D02*
X138385714Y-117207200D01*
X138385714Y-117207200D02*
X138242857Y-117254819D01*
X138242857Y-117254819D02*
X138147619Y-117254819D01*
X138147619Y-117254819D02*
X138004762Y-117207200D01*
X138004762Y-117207200D02*
X137909524Y-117111961D01*
X137909524Y-117111961D02*
X137861905Y-117016723D01*
X137861905Y-117016723D02*
X137814286Y-116826247D01*
X137814286Y-116826247D02*
X137814286Y-116683390D01*
X137814286Y-116683390D02*
X137861905Y-116492914D01*
X137861905Y-116492914D02*
X137909524Y-116397676D01*
X137909524Y-116397676D02*
X138004762Y-116302438D01*
X138004762Y-116302438D02*
X138147619Y-116254819D01*
X138147619Y-116254819D02*
X138242857Y-116254819D01*
X138242857Y-116254819D02*
X138385714Y-116302438D01*
X138385714Y-116302438D02*
X138433333Y-116350057D01*
X139290476Y-116588152D02*
X139290476Y-117254819D01*
X139052381Y-116207200D02*
X138814286Y-116921485D01*
X138814286Y-116921485D02*
X139433333Y-116921485D01*
X142804819Y-138555357D02*
X142328628Y-138888690D01*
X142804819Y-139126785D02*
X141804819Y-139126785D01*
X141804819Y-139126785D02*
X141804819Y-138745833D01*
X141804819Y-138745833D02*
X141852438Y-138650595D01*
X141852438Y-138650595D02*
X141900057Y-138602976D01*
X141900057Y-138602976D02*
X141995295Y-138555357D01*
X141995295Y-138555357D02*
X142138152Y-138555357D01*
X142138152Y-138555357D02*
X142233390Y-138602976D01*
X142233390Y-138602976D02*
X142281009Y-138650595D01*
X142281009Y-138650595D02*
X142328628Y-138745833D01*
X142328628Y-138745833D02*
X142328628Y-139126785D01*
X142804819Y-137602976D02*
X142804819Y-138174404D01*
X142804819Y-137888690D02*
X141804819Y-137888690D01*
X141804819Y-137888690D02*
X141947676Y-137983928D01*
X141947676Y-137983928D02*
X142042914Y-138079166D01*
X142042914Y-138079166D02*
X142090533Y-138174404D01*
X141900057Y-137222023D02*
X141852438Y-137174404D01*
X141852438Y-137174404D02*
X141804819Y-137079166D01*
X141804819Y-137079166D02*
X141804819Y-136841071D01*
X141804819Y-136841071D02*
X141852438Y-136745833D01*
X141852438Y-136745833D02*
X141900057Y-136698214D01*
X141900057Y-136698214D02*
X141995295Y-136650595D01*
X141995295Y-136650595D02*
X142090533Y-136650595D01*
X142090533Y-136650595D02*
X142233390Y-136698214D01*
X142233390Y-136698214D02*
X142804819Y-137269642D01*
X142804819Y-137269642D02*
X142804819Y-136650595D01*
X104357142Y-124804819D02*
X104023809Y-124328628D01*
X103785714Y-124804819D02*
X103785714Y-123804819D01*
X103785714Y-123804819D02*
X104166666Y-123804819D01*
X104166666Y-123804819D02*
X104261904Y-123852438D01*
X104261904Y-123852438D02*
X104309523Y-123900057D01*
X104309523Y-123900057D02*
X104357142Y-123995295D01*
X104357142Y-123995295D02*
X104357142Y-124138152D01*
X104357142Y-124138152D02*
X104309523Y-124233390D01*
X104309523Y-124233390D02*
X104261904Y-124281009D01*
X104261904Y-124281009D02*
X104166666Y-124328628D01*
X104166666Y-124328628D02*
X103785714Y-124328628D01*
X104738095Y-123900057D02*
X104785714Y-123852438D01*
X104785714Y-123852438D02*
X104880952Y-123804819D01*
X104880952Y-123804819D02*
X105119047Y-123804819D01*
X105119047Y-123804819D02*
X105214285Y-123852438D01*
X105214285Y-123852438D02*
X105261904Y-123900057D01*
X105261904Y-123900057D02*
X105309523Y-123995295D01*
X105309523Y-123995295D02*
X105309523Y-124090533D01*
X105309523Y-124090533D02*
X105261904Y-124233390D01*
X105261904Y-124233390D02*
X104690476Y-124804819D01*
X104690476Y-124804819D02*
X105309523Y-124804819D01*
X106166666Y-124138152D02*
X106166666Y-124804819D01*
X105928571Y-123757200D02*
X105690476Y-124471485D01*
X105690476Y-124471485D02*
X106309523Y-124471485D01*
X104357142Y-127804819D02*
X104023809Y-127328628D01*
X103785714Y-127804819D02*
X103785714Y-126804819D01*
X103785714Y-126804819D02*
X104166666Y-126804819D01*
X104166666Y-126804819D02*
X104261904Y-126852438D01*
X104261904Y-126852438D02*
X104309523Y-126900057D01*
X104309523Y-126900057D02*
X104357142Y-126995295D01*
X104357142Y-126995295D02*
X104357142Y-127138152D01*
X104357142Y-127138152D02*
X104309523Y-127233390D01*
X104309523Y-127233390D02*
X104261904Y-127281009D01*
X104261904Y-127281009D02*
X104166666Y-127328628D01*
X104166666Y-127328628D02*
X103785714Y-127328628D01*
X104738095Y-126900057D02*
X104785714Y-126852438D01*
X104785714Y-126852438D02*
X104880952Y-126804819D01*
X104880952Y-126804819D02*
X105119047Y-126804819D01*
X105119047Y-126804819D02*
X105214285Y-126852438D01*
X105214285Y-126852438D02*
X105261904Y-126900057D01*
X105261904Y-126900057D02*
X105309523Y-126995295D01*
X105309523Y-126995295D02*
X105309523Y-127090533D01*
X105309523Y-127090533D02*
X105261904Y-127233390D01*
X105261904Y-127233390D02*
X104690476Y-127804819D01*
X104690476Y-127804819D02*
X105309523Y-127804819D01*
X105690476Y-126900057D02*
X105738095Y-126852438D01*
X105738095Y-126852438D02*
X105833333Y-126804819D01*
X105833333Y-126804819D02*
X106071428Y-126804819D01*
X106071428Y-126804819D02*
X106166666Y-126852438D01*
X106166666Y-126852438D02*
X106214285Y-126900057D01*
X106214285Y-126900057D02*
X106261904Y-126995295D01*
X106261904Y-126995295D02*
X106261904Y-127090533D01*
X106261904Y-127090533D02*
X106214285Y-127233390D01*
X106214285Y-127233390D02*
X105642857Y-127804819D01*
X105642857Y-127804819D02*
X106261904Y-127804819D01*
X108923214Y-131854819D02*
X108923214Y-130854819D01*
X108923214Y-130854819D02*
X109161309Y-130854819D01*
X109161309Y-130854819D02*
X109304166Y-130902438D01*
X109304166Y-130902438D02*
X109399404Y-130997676D01*
X109399404Y-130997676D02*
X109447023Y-131092914D01*
X109447023Y-131092914D02*
X109494642Y-131283390D01*
X109494642Y-131283390D02*
X109494642Y-131426247D01*
X109494642Y-131426247D02*
X109447023Y-131616723D01*
X109447023Y-131616723D02*
X109399404Y-131711961D01*
X109399404Y-131711961D02*
X109304166Y-131807200D01*
X109304166Y-131807200D02*
X109161309Y-131854819D01*
X109161309Y-131854819D02*
X108923214Y-131854819D01*
X110447023Y-131854819D02*
X109875595Y-131854819D01*
X110161309Y-131854819D02*
X110161309Y-130854819D01*
X110161309Y-130854819D02*
X110066071Y-130997676D01*
X110066071Y-130997676D02*
X109970833Y-131092914D01*
X109970833Y-131092914D02*
X109875595Y-131140533D01*
X110827976Y-130950057D02*
X110875595Y-130902438D01*
X110875595Y-130902438D02*
X110970833Y-130854819D01*
X110970833Y-130854819D02*
X111208928Y-130854819D01*
X111208928Y-130854819D02*
X111304166Y-130902438D01*
X111304166Y-130902438D02*
X111351785Y-130950057D01*
X111351785Y-130950057D02*
X111399404Y-131045295D01*
X111399404Y-131045295D02*
X111399404Y-131140533D01*
X111399404Y-131140533D02*
X111351785Y-131283390D01*
X111351785Y-131283390D02*
X110780357Y-131854819D01*
X110780357Y-131854819D02*
X111399404Y-131854819D01*
X140465476Y-106129819D02*
X140465476Y-106844104D01*
X140465476Y-106844104D02*
X140417857Y-106986961D01*
X140417857Y-106986961D02*
X140322619Y-107082200D01*
X140322619Y-107082200D02*
X140179762Y-107129819D01*
X140179762Y-107129819D02*
X140084524Y-107129819D01*
X141465476Y-107129819D02*
X140894048Y-107129819D01*
X141179762Y-107129819D02*
X141179762Y-106129819D01*
X141179762Y-106129819D02*
X141084524Y-106272676D01*
X141084524Y-106272676D02*
X140989286Y-106367914D01*
X140989286Y-106367914D02*
X140894048Y-106415533D01*
X141846429Y-106225057D02*
X141894048Y-106177438D01*
X141894048Y-106177438D02*
X141989286Y-106129819D01*
X141989286Y-106129819D02*
X142227381Y-106129819D01*
X142227381Y-106129819D02*
X142322619Y-106177438D01*
X142322619Y-106177438D02*
X142370238Y-106225057D01*
X142370238Y-106225057D02*
X142417857Y-106320295D01*
X142417857Y-106320295D02*
X142417857Y-106415533D01*
X142417857Y-106415533D02*
X142370238Y-106558390D01*
X142370238Y-106558390D02*
X141798810Y-107129819D01*
X141798810Y-107129819D02*
X142417857Y-107129819D01*
X99666666Y-147404819D02*
X99666666Y-148119104D01*
X99666666Y-148119104D02*
X99619047Y-148261961D01*
X99619047Y-148261961D02*
X99523809Y-148357200D01*
X99523809Y-148357200D02*
X99380952Y-148404819D01*
X99380952Y-148404819D02*
X99285714Y-148404819D01*
X100571428Y-147404819D02*
X100380952Y-147404819D01*
X100380952Y-147404819D02*
X100285714Y-147452438D01*
X100285714Y-147452438D02*
X100238095Y-147500057D01*
X100238095Y-147500057D02*
X100142857Y-147642914D01*
X100142857Y-147642914D02*
X100095238Y-147833390D01*
X100095238Y-147833390D02*
X100095238Y-148214342D01*
X100095238Y-148214342D02*
X100142857Y-148309580D01*
X100142857Y-148309580D02*
X100190476Y-148357200D01*
X100190476Y-148357200D02*
X100285714Y-148404819D01*
X100285714Y-148404819D02*
X100476190Y-148404819D01*
X100476190Y-148404819D02*
X100571428Y-148357200D01*
X100571428Y-148357200D02*
X100619047Y-148309580D01*
X100619047Y-148309580D02*
X100666666Y-148214342D01*
X100666666Y-148214342D02*
X100666666Y-147976247D01*
X100666666Y-147976247D02*
X100619047Y-147881009D01*
X100619047Y-147881009D02*
X100571428Y-147833390D01*
X100571428Y-147833390D02*
X100476190Y-147785771D01*
X100476190Y-147785771D02*
X100285714Y-147785771D01*
X100285714Y-147785771D02*
X100190476Y-147833390D01*
X100190476Y-147833390D02*
X100142857Y-147881009D01*
X100142857Y-147881009D02*
X100095238Y-147976247D01*
X142804819Y-142254166D02*
X142328628Y-142587499D01*
X142804819Y-142825594D02*
X141804819Y-142825594D01*
X141804819Y-142825594D02*
X141804819Y-142444642D01*
X141804819Y-142444642D02*
X141852438Y-142349404D01*
X141852438Y-142349404D02*
X141900057Y-142301785D01*
X141900057Y-142301785D02*
X141995295Y-142254166D01*
X141995295Y-142254166D02*
X142138152Y-142254166D01*
X142138152Y-142254166D02*
X142233390Y-142301785D01*
X142233390Y-142301785D02*
X142281009Y-142349404D01*
X142281009Y-142349404D02*
X142328628Y-142444642D01*
X142328628Y-142444642D02*
X142328628Y-142825594D01*
X142804819Y-141777975D02*
X142804819Y-141587499D01*
X142804819Y-141587499D02*
X142757200Y-141492261D01*
X142757200Y-141492261D02*
X142709580Y-141444642D01*
X142709580Y-141444642D02*
X142566723Y-141349404D01*
X142566723Y-141349404D02*
X142376247Y-141301785D01*
X142376247Y-141301785D02*
X141995295Y-141301785D01*
X141995295Y-141301785D02*
X141900057Y-141349404D01*
X141900057Y-141349404D02*
X141852438Y-141397023D01*
X141852438Y-141397023D02*
X141804819Y-141492261D01*
X141804819Y-141492261D02*
X141804819Y-141682737D01*
X141804819Y-141682737D02*
X141852438Y-141777975D01*
X141852438Y-141777975D02*
X141900057Y-141825594D01*
X141900057Y-141825594D02*
X141995295Y-141873213D01*
X141995295Y-141873213D02*
X142233390Y-141873213D01*
X142233390Y-141873213D02*
X142328628Y-141825594D01*
X142328628Y-141825594D02*
X142376247Y-141777975D01*
X142376247Y-141777975D02*
X142423866Y-141682737D01*
X142423866Y-141682737D02*
X142423866Y-141492261D01*
X142423866Y-141492261D02*
X142376247Y-141397023D01*
X142376247Y-141397023D02*
X142328628Y-141349404D01*
X142328628Y-141349404D02*
X142233390Y-141301785D01*
X112804819Y-145642857D02*
X112328628Y-145976190D01*
X112804819Y-146214285D02*
X111804819Y-146214285D01*
X111804819Y-146214285D02*
X111804819Y-145833333D01*
X111804819Y-145833333D02*
X111852438Y-145738095D01*
X111852438Y-145738095D02*
X111900057Y-145690476D01*
X111900057Y-145690476D02*
X111995295Y-145642857D01*
X111995295Y-145642857D02*
X112138152Y-145642857D01*
X112138152Y-145642857D02*
X112233390Y-145690476D01*
X112233390Y-145690476D02*
X112281009Y-145738095D01*
X112281009Y-145738095D02*
X112328628Y-145833333D01*
X112328628Y-145833333D02*
X112328628Y-146214285D01*
X111804819Y-145309523D02*
X111804819Y-144690476D01*
X111804819Y-144690476D02*
X112185771Y-145023809D01*
X112185771Y-145023809D02*
X112185771Y-144880952D01*
X112185771Y-144880952D02*
X112233390Y-144785714D01*
X112233390Y-144785714D02*
X112281009Y-144738095D01*
X112281009Y-144738095D02*
X112376247Y-144690476D01*
X112376247Y-144690476D02*
X112614342Y-144690476D01*
X112614342Y-144690476D02*
X112709580Y-144738095D01*
X112709580Y-144738095D02*
X112757200Y-144785714D01*
X112757200Y-144785714D02*
X112804819Y-144880952D01*
X112804819Y-144880952D02*
X112804819Y-145166666D01*
X112804819Y-145166666D02*
X112757200Y-145261904D01*
X112757200Y-145261904D02*
X112709580Y-145309523D01*
X112804819Y-143738095D02*
X112804819Y-144309523D01*
X112804819Y-144023809D02*
X111804819Y-144023809D01*
X111804819Y-144023809D02*
X111947676Y-144119047D01*
X111947676Y-144119047D02*
X112042914Y-144214285D01*
X112042914Y-144214285D02*
X112090533Y-144309523D01*
X120407142Y-132227080D02*
X120359523Y-132274700D01*
X120359523Y-132274700D02*
X120216666Y-132322319D01*
X120216666Y-132322319D02*
X120121428Y-132322319D01*
X120121428Y-132322319D02*
X119978571Y-132274700D01*
X119978571Y-132274700D02*
X119883333Y-132179461D01*
X119883333Y-132179461D02*
X119835714Y-132084223D01*
X119835714Y-132084223D02*
X119788095Y-131893747D01*
X119788095Y-131893747D02*
X119788095Y-131750890D01*
X119788095Y-131750890D02*
X119835714Y-131560414D01*
X119835714Y-131560414D02*
X119883333Y-131465176D01*
X119883333Y-131465176D02*
X119978571Y-131369938D01*
X119978571Y-131369938D02*
X120121428Y-131322319D01*
X120121428Y-131322319D02*
X120216666Y-131322319D01*
X120216666Y-131322319D02*
X120359523Y-131369938D01*
X120359523Y-131369938D02*
X120407142Y-131417557D01*
X121359523Y-132322319D02*
X120788095Y-132322319D01*
X121073809Y-132322319D02*
X121073809Y-131322319D01*
X121073809Y-131322319D02*
X120978571Y-131465176D01*
X120978571Y-131465176D02*
X120883333Y-131560414D01*
X120883333Y-131560414D02*
X120788095Y-131608033D01*
X121692857Y-131322319D02*
X122311904Y-131322319D01*
X122311904Y-131322319D02*
X121978571Y-131703271D01*
X121978571Y-131703271D02*
X122121428Y-131703271D01*
X122121428Y-131703271D02*
X122216666Y-131750890D01*
X122216666Y-131750890D02*
X122264285Y-131798509D01*
X122264285Y-131798509D02*
X122311904Y-131893747D01*
X122311904Y-131893747D02*
X122311904Y-132131842D01*
X122311904Y-132131842D02*
X122264285Y-132227080D01*
X122264285Y-132227080D02*
X122216666Y-132274700D01*
X122216666Y-132274700D02*
X122121428Y-132322319D01*
X122121428Y-132322319D02*
X121835714Y-132322319D01*
X121835714Y-132322319D02*
X121740476Y-132274700D01*
X121740476Y-132274700D02*
X121692857Y-132227080D01*
X132039580Y-119592857D02*
X132087200Y-119640476D01*
X132087200Y-119640476D02*
X132134819Y-119783333D01*
X132134819Y-119783333D02*
X132134819Y-119878571D01*
X132134819Y-119878571D02*
X132087200Y-120021428D01*
X132087200Y-120021428D02*
X131991961Y-120116666D01*
X131991961Y-120116666D02*
X131896723Y-120164285D01*
X131896723Y-120164285D02*
X131706247Y-120211904D01*
X131706247Y-120211904D02*
X131563390Y-120211904D01*
X131563390Y-120211904D02*
X131372914Y-120164285D01*
X131372914Y-120164285D02*
X131277676Y-120116666D01*
X131277676Y-120116666D02*
X131182438Y-120021428D01*
X131182438Y-120021428D02*
X131134819Y-119878571D01*
X131134819Y-119878571D02*
X131134819Y-119783333D01*
X131134819Y-119783333D02*
X131182438Y-119640476D01*
X131182438Y-119640476D02*
X131230057Y-119592857D01*
X132134819Y-118640476D02*
X132134819Y-119211904D01*
X132134819Y-118926190D02*
X131134819Y-118926190D01*
X131134819Y-118926190D02*
X131277676Y-119021428D01*
X131277676Y-119021428D02*
X131372914Y-119116666D01*
X131372914Y-119116666D02*
X131420533Y-119211904D01*
X132134819Y-117688095D02*
X132134819Y-118259523D01*
X132134819Y-117973809D02*
X131134819Y-117973809D01*
X131134819Y-117973809D02*
X131277676Y-118069047D01*
X131277676Y-118069047D02*
X131372914Y-118164285D01*
X131372914Y-118164285D02*
X131420533Y-118259523D01*
X126804819Y-158254166D02*
X126328628Y-158587499D01*
X126804819Y-158825594D02*
X125804819Y-158825594D01*
X125804819Y-158825594D02*
X125804819Y-158444642D01*
X125804819Y-158444642D02*
X125852438Y-158349404D01*
X125852438Y-158349404D02*
X125900057Y-158301785D01*
X125900057Y-158301785D02*
X125995295Y-158254166D01*
X125995295Y-158254166D02*
X126138152Y-158254166D01*
X126138152Y-158254166D02*
X126233390Y-158301785D01*
X126233390Y-158301785D02*
X126281009Y-158349404D01*
X126281009Y-158349404D02*
X126328628Y-158444642D01*
X126328628Y-158444642D02*
X126328628Y-158825594D01*
X125804819Y-157920832D02*
X125804819Y-157301785D01*
X125804819Y-157301785D02*
X126185771Y-157635118D01*
X126185771Y-157635118D02*
X126185771Y-157492261D01*
X126185771Y-157492261D02*
X126233390Y-157397023D01*
X126233390Y-157397023D02*
X126281009Y-157349404D01*
X126281009Y-157349404D02*
X126376247Y-157301785D01*
X126376247Y-157301785D02*
X126614342Y-157301785D01*
X126614342Y-157301785D02*
X126709580Y-157349404D01*
X126709580Y-157349404D02*
X126757200Y-157397023D01*
X126757200Y-157397023D02*
X126804819Y-157492261D01*
X126804819Y-157492261D02*
X126804819Y-157777975D01*
X126804819Y-157777975D02*
X126757200Y-157873213D01*
X126757200Y-157873213D02*
X126709580Y-157920832D01*
X116104819Y-149730357D02*
X115628628Y-150063690D01*
X116104819Y-150301785D02*
X115104819Y-150301785D01*
X115104819Y-150301785D02*
X115104819Y-149920833D01*
X115104819Y-149920833D02*
X115152438Y-149825595D01*
X115152438Y-149825595D02*
X115200057Y-149777976D01*
X115200057Y-149777976D02*
X115295295Y-149730357D01*
X115295295Y-149730357D02*
X115438152Y-149730357D01*
X115438152Y-149730357D02*
X115533390Y-149777976D01*
X115533390Y-149777976D02*
X115581009Y-149825595D01*
X115581009Y-149825595D02*
X115628628Y-149920833D01*
X115628628Y-149920833D02*
X115628628Y-150301785D01*
X115200057Y-149349404D02*
X115152438Y-149301785D01*
X115152438Y-149301785D02*
X115104819Y-149206547D01*
X115104819Y-149206547D02*
X115104819Y-148968452D01*
X115104819Y-148968452D02*
X115152438Y-148873214D01*
X115152438Y-148873214D02*
X115200057Y-148825595D01*
X115200057Y-148825595D02*
X115295295Y-148777976D01*
X115295295Y-148777976D02*
X115390533Y-148777976D01*
X115390533Y-148777976D02*
X115533390Y-148825595D01*
X115533390Y-148825595D02*
X116104819Y-149397023D01*
X116104819Y-149397023D02*
X116104819Y-148777976D01*
X115104819Y-147920833D02*
X115104819Y-148111309D01*
X115104819Y-148111309D02*
X115152438Y-148206547D01*
X115152438Y-148206547D02*
X115200057Y-148254166D01*
X115200057Y-148254166D02*
X115342914Y-148349404D01*
X115342914Y-148349404D02*
X115533390Y-148397023D01*
X115533390Y-148397023D02*
X115914342Y-148397023D01*
X115914342Y-148397023D02*
X116009580Y-148349404D01*
X116009580Y-148349404D02*
X116057200Y-148301785D01*
X116057200Y-148301785D02*
X116104819Y-148206547D01*
X116104819Y-148206547D02*
X116104819Y-148016071D01*
X116104819Y-148016071D02*
X116057200Y-147920833D01*
X116057200Y-147920833D02*
X116009580Y-147873214D01*
X116009580Y-147873214D02*
X115914342Y-147825595D01*
X115914342Y-147825595D02*
X115676247Y-147825595D01*
X115676247Y-147825595D02*
X115581009Y-147873214D01*
X115581009Y-147873214D02*
X115533390Y-147920833D01*
X115533390Y-147920833D02*
X115485771Y-148016071D01*
X115485771Y-148016071D02*
X115485771Y-148206547D01*
X115485771Y-148206547D02*
X115533390Y-148301785D01*
X115533390Y-148301785D02*
X115581009Y-148349404D01*
X115581009Y-148349404D02*
X115676247Y-148397023D01*
X124039580Y-119642857D02*
X124087200Y-119690476D01*
X124087200Y-119690476D02*
X124134819Y-119833333D01*
X124134819Y-119833333D02*
X124134819Y-119928571D01*
X124134819Y-119928571D02*
X124087200Y-120071428D01*
X124087200Y-120071428D02*
X123991961Y-120166666D01*
X123991961Y-120166666D02*
X123896723Y-120214285D01*
X123896723Y-120214285D02*
X123706247Y-120261904D01*
X123706247Y-120261904D02*
X123563390Y-120261904D01*
X123563390Y-120261904D02*
X123372914Y-120214285D01*
X123372914Y-120214285D02*
X123277676Y-120166666D01*
X123277676Y-120166666D02*
X123182438Y-120071428D01*
X123182438Y-120071428D02*
X123134819Y-119928571D01*
X123134819Y-119928571D02*
X123134819Y-119833333D01*
X123134819Y-119833333D02*
X123182438Y-119690476D01*
X123182438Y-119690476D02*
X123230057Y-119642857D01*
X124134819Y-118690476D02*
X124134819Y-119261904D01*
X124134819Y-118976190D02*
X123134819Y-118976190D01*
X123134819Y-118976190D02*
X123277676Y-119071428D01*
X123277676Y-119071428D02*
X123372914Y-119166666D01*
X123372914Y-119166666D02*
X123420533Y-119261904D01*
X123468152Y-117833333D02*
X124134819Y-117833333D01*
X123087200Y-118071428D02*
X123801485Y-118309523D01*
X123801485Y-118309523D02*
X123801485Y-117690476D01*
X108923214Y-139854819D02*
X108923214Y-138854819D01*
X108923214Y-138854819D02*
X109161309Y-138854819D01*
X109161309Y-138854819D02*
X109304166Y-138902438D01*
X109304166Y-138902438D02*
X109399404Y-138997676D01*
X109399404Y-138997676D02*
X109447023Y-139092914D01*
X109447023Y-139092914D02*
X109494642Y-139283390D01*
X109494642Y-139283390D02*
X109494642Y-139426247D01*
X109494642Y-139426247D02*
X109447023Y-139616723D01*
X109447023Y-139616723D02*
X109399404Y-139711961D01*
X109399404Y-139711961D02*
X109304166Y-139807200D01*
X109304166Y-139807200D02*
X109161309Y-139854819D01*
X109161309Y-139854819D02*
X108923214Y-139854819D01*
X110447023Y-139854819D02*
X109875595Y-139854819D01*
X110161309Y-139854819D02*
X110161309Y-138854819D01*
X110161309Y-138854819D02*
X110066071Y-138997676D01*
X110066071Y-138997676D02*
X109970833Y-139092914D01*
X109970833Y-139092914D02*
X109875595Y-139140533D01*
X111066071Y-138854819D02*
X111161309Y-138854819D01*
X111161309Y-138854819D02*
X111256547Y-138902438D01*
X111256547Y-138902438D02*
X111304166Y-138950057D01*
X111304166Y-138950057D02*
X111351785Y-139045295D01*
X111351785Y-139045295D02*
X111399404Y-139235771D01*
X111399404Y-139235771D02*
X111399404Y-139473866D01*
X111399404Y-139473866D02*
X111351785Y-139664342D01*
X111351785Y-139664342D02*
X111304166Y-139759580D01*
X111304166Y-139759580D02*
X111256547Y-139807200D01*
X111256547Y-139807200D02*
X111161309Y-139854819D01*
X111161309Y-139854819D02*
X111066071Y-139854819D01*
X111066071Y-139854819D02*
X110970833Y-139807200D01*
X110970833Y-139807200D02*
X110923214Y-139759580D01*
X110923214Y-139759580D02*
X110875595Y-139664342D01*
X110875595Y-139664342D02*
X110827976Y-139473866D01*
X110827976Y-139473866D02*
X110827976Y-139235771D01*
X110827976Y-139235771D02*
X110875595Y-139045295D01*
X110875595Y-139045295D02*
X110923214Y-138950057D01*
X110923214Y-138950057D02*
X110970833Y-138902438D01*
X110970833Y-138902438D02*
X111066071Y-138854819D01*
X131854819Y-154600594D02*
X130854819Y-154600594D01*
X130854819Y-154600594D02*
X130854819Y-154362499D01*
X130854819Y-154362499D02*
X130902438Y-154219642D01*
X130902438Y-154219642D02*
X130997676Y-154124404D01*
X130997676Y-154124404D02*
X131092914Y-154076785D01*
X131092914Y-154076785D02*
X131283390Y-154029166D01*
X131283390Y-154029166D02*
X131426247Y-154029166D01*
X131426247Y-154029166D02*
X131616723Y-154076785D01*
X131616723Y-154076785D02*
X131711961Y-154124404D01*
X131711961Y-154124404D02*
X131807200Y-154219642D01*
X131807200Y-154219642D02*
X131854819Y-154362499D01*
X131854819Y-154362499D02*
X131854819Y-154600594D01*
X130950057Y-153648213D02*
X130902438Y-153600594D01*
X130902438Y-153600594D02*
X130854819Y-153505356D01*
X130854819Y-153505356D02*
X130854819Y-153267261D01*
X130854819Y-153267261D02*
X130902438Y-153172023D01*
X130902438Y-153172023D02*
X130950057Y-153124404D01*
X130950057Y-153124404D02*
X131045295Y-153076785D01*
X131045295Y-153076785D02*
X131140533Y-153076785D01*
X131140533Y-153076785D02*
X131283390Y-153124404D01*
X131283390Y-153124404D02*
X131854819Y-153695832D01*
X131854819Y-153695832D02*
X131854819Y-153076785D01*
X104357142Y-139804819D02*
X104023809Y-139328628D01*
X103785714Y-139804819D02*
X103785714Y-138804819D01*
X103785714Y-138804819D02*
X104166666Y-138804819D01*
X104166666Y-138804819D02*
X104261904Y-138852438D01*
X104261904Y-138852438D02*
X104309523Y-138900057D01*
X104309523Y-138900057D02*
X104357142Y-138995295D01*
X104357142Y-138995295D02*
X104357142Y-139138152D01*
X104357142Y-139138152D02*
X104309523Y-139233390D01*
X104309523Y-139233390D02*
X104261904Y-139281009D01*
X104261904Y-139281009D02*
X104166666Y-139328628D01*
X104166666Y-139328628D02*
X103785714Y-139328628D01*
X105309523Y-139804819D02*
X104738095Y-139804819D01*
X105023809Y-139804819D02*
X105023809Y-138804819D01*
X105023809Y-138804819D02*
X104928571Y-138947676D01*
X104928571Y-138947676D02*
X104833333Y-139042914D01*
X104833333Y-139042914D02*
X104738095Y-139090533D01*
X105880952Y-139233390D02*
X105785714Y-139185771D01*
X105785714Y-139185771D02*
X105738095Y-139138152D01*
X105738095Y-139138152D02*
X105690476Y-139042914D01*
X105690476Y-139042914D02*
X105690476Y-138995295D01*
X105690476Y-138995295D02*
X105738095Y-138900057D01*
X105738095Y-138900057D02*
X105785714Y-138852438D01*
X105785714Y-138852438D02*
X105880952Y-138804819D01*
X105880952Y-138804819D02*
X106071428Y-138804819D01*
X106071428Y-138804819D02*
X106166666Y-138852438D01*
X106166666Y-138852438D02*
X106214285Y-138900057D01*
X106214285Y-138900057D02*
X106261904Y-138995295D01*
X106261904Y-138995295D02*
X106261904Y-139042914D01*
X106261904Y-139042914D02*
X106214285Y-139138152D01*
X106214285Y-139138152D02*
X106166666Y-139185771D01*
X106166666Y-139185771D02*
X106071428Y-139233390D01*
X106071428Y-139233390D02*
X105880952Y-139233390D01*
X105880952Y-139233390D02*
X105785714Y-139281009D01*
X105785714Y-139281009D02*
X105738095Y-139328628D01*
X105738095Y-139328628D02*
X105690476Y-139423866D01*
X105690476Y-139423866D02*
X105690476Y-139614342D01*
X105690476Y-139614342D02*
X105738095Y-139709580D01*
X105738095Y-139709580D02*
X105785714Y-139757200D01*
X105785714Y-139757200D02*
X105880952Y-139804819D01*
X105880952Y-139804819D02*
X106071428Y-139804819D01*
X106071428Y-139804819D02*
X106166666Y-139757200D01*
X106166666Y-139757200D02*
X106214285Y-139709580D01*
X106214285Y-139709580D02*
X106261904Y-139614342D01*
X106261904Y-139614342D02*
X106261904Y-139423866D01*
X106261904Y-139423866D02*
X106214285Y-139328628D01*
X106214285Y-139328628D02*
X106166666Y-139281009D01*
X106166666Y-139281009D02*
X106071428Y-139233390D01*
X124666666Y-116409819D02*
X124666666Y-117124104D01*
X124666666Y-117124104D02*
X124619047Y-117266961D01*
X124619047Y-117266961D02*
X124523809Y-117362200D01*
X124523809Y-117362200D02*
X124380952Y-117409819D01*
X124380952Y-117409819D02*
X124285714Y-117409819D01*
X125571428Y-116743152D02*
X125571428Y-117409819D01*
X125333333Y-116362200D02*
X125095238Y-117076485D01*
X125095238Y-117076485D02*
X125714285Y-117076485D01*
X145559580Y-150566666D02*
X145607200Y-150614285D01*
X145607200Y-150614285D02*
X145654819Y-150757142D01*
X145654819Y-150757142D02*
X145654819Y-150852380D01*
X145654819Y-150852380D02*
X145607200Y-150995237D01*
X145607200Y-150995237D02*
X145511961Y-151090475D01*
X145511961Y-151090475D02*
X145416723Y-151138094D01*
X145416723Y-151138094D02*
X145226247Y-151185713D01*
X145226247Y-151185713D02*
X145083390Y-151185713D01*
X145083390Y-151185713D02*
X144892914Y-151138094D01*
X144892914Y-151138094D02*
X144797676Y-151090475D01*
X144797676Y-151090475D02*
X144702438Y-150995237D01*
X144702438Y-150995237D02*
X144654819Y-150852380D01*
X144654819Y-150852380D02*
X144654819Y-150757142D01*
X144654819Y-150757142D02*
X144702438Y-150614285D01*
X144702438Y-150614285D02*
X144750057Y-150566666D01*
X144654819Y-150233332D02*
X144654819Y-149566666D01*
X144654819Y-149566666D02*
X145654819Y-149995237D01*
X112804819Y-137555357D02*
X112328628Y-137888690D01*
X112804819Y-138126785D02*
X111804819Y-138126785D01*
X111804819Y-138126785D02*
X111804819Y-137745833D01*
X111804819Y-137745833D02*
X111852438Y-137650595D01*
X111852438Y-137650595D02*
X111900057Y-137602976D01*
X111900057Y-137602976D02*
X111995295Y-137555357D01*
X111995295Y-137555357D02*
X112138152Y-137555357D01*
X112138152Y-137555357D02*
X112233390Y-137602976D01*
X112233390Y-137602976D02*
X112281009Y-137650595D01*
X112281009Y-137650595D02*
X112328628Y-137745833D01*
X112328628Y-137745833D02*
X112328628Y-138126785D01*
X111804819Y-137222023D02*
X111804819Y-136602976D01*
X111804819Y-136602976D02*
X112185771Y-136936309D01*
X112185771Y-136936309D02*
X112185771Y-136793452D01*
X112185771Y-136793452D02*
X112233390Y-136698214D01*
X112233390Y-136698214D02*
X112281009Y-136650595D01*
X112281009Y-136650595D02*
X112376247Y-136602976D01*
X112376247Y-136602976D02*
X112614342Y-136602976D01*
X112614342Y-136602976D02*
X112709580Y-136650595D01*
X112709580Y-136650595D02*
X112757200Y-136698214D01*
X112757200Y-136698214D02*
X112804819Y-136793452D01*
X112804819Y-136793452D02*
X112804819Y-137079166D01*
X112804819Y-137079166D02*
X112757200Y-137174404D01*
X112757200Y-137174404D02*
X112709580Y-137222023D01*
X111804819Y-136269642D02*
X111804819Y-135650595D01*
X111804819Y-135650595D02*
X112185771Y-135983928D01*
X112185771Y-135983928D02*
X112185771Y-135841071D01*
X112185771Y-135841071D02*
X112233390Y-135745833D01*
X112233390Y-135745833D02*
X112281009Y-135698214D01*
X112281009Y-135698214D02*
X112376247Y-135650595D01*
X112376247Y-135650595D02*
X112614342Y-135650595D01*
X112614342Y-135650595D02*
X112709580Y-135698214D01*
X112709580Y-135698214D02*
X112757200Y-135745833D01*
X112757200Y-135745833D02*
X112804819Y-135841071D01*
X112804819Y-135841071D02*
X112804819Y-136126785D01*
X112804819Y-136126785D02*
X112757200Y-136222023D01*
X112757200Y-136222023D02*
X112709580Y-136269642D01*
X120039580Y-119642857D02*
X120087200Y-119690476D01*
X120087200Y-119690476D02*
X120134819Y-119833333D01*
X120134819Y-119833333D02*
X120134819Y-119928571D01*
X120134819Y-119928571D02*
X120087200Y-120071428D01*
X120087200Y-120071428D02*
X119991961Y-120166666D01*
X119991961Y-120166666D02*
X119896723Y-120214285D01*
X119896723Y-120214285D02*
X119706247Y-120261904D01*
X119706247Y-120261904D02*
X119563390Y-120261904D01*
X119563390Y-120261904D02*
X119372914Y-120214285D01*
X119372914Y-120214285D02*
X119277676Y-120166666D01*
X119277676Y-120166666D02*
X119182438Y-120071428D01*
X119182438Y-120071428D02*
X119134819Y-119928571D01*
X119134819Y-119928571D02*
X119134819Y-119833333D01*
X119134819Y-119833333D02*
X119182438Y-119690476D01*
X119182438Y-119690476D02*
X119230057Y-119642857D01*
X120134819Y-118690476D02*
X120134819Y-119261904D01*
X120134819Y-118976190D02*
X119134819Y-118976190D01*
X119134819Y-118976190D02*
X119277676Y-119071428D01*
X119277676Y-119071428D02*
X119372914Y-119166666D01*
X119372914Y-119166666D02*
X119420533Y-119261904D01*
X119134819Y-117785714D02*
X119134819Y-118261904D01*
X119134819Y-118261904D02*
X119611009Y-118309523D01*
X119611009Y-118309523D02*
X119563390Y-118261904D01*
X119563390Y-118261904D02*
X119515771Y-118166666D01*
X119515771Y-118166666D02*
X119515771Y-117928571D01*
X119515771Y-117928571D02*
X119563390Y-117833333D01*
X119563390Y-117833333D02*
X119611009Y-117785714D01*
X119611009Y-117785714D02*
X119706247Y-117738095D01*
X119706247Y-117738095D02*
X119944342Y-117738095D01*
X119944342Y-117738095D02*
X120039580Y-117785714D01*
X120039580Y-117785714D02*
X120087200Y-117833333D01*
X120087200Y-117833333D02*
X120134819Y-117928571D01*
X120134819Y-117928571D02*
X120134819Y-118166666D01*
X120134819Y-118166666D02*
X120087200Y-118261904D01*
X120087200Y-118261904D02*
X120039580Y-118309523D01*
X150466666Y-147404819D02*
X150466666Y-148119104D01*
X150466666Y-148119104D02*
X150419047Y-148261961D01*
X150419047Y-148261961D02*
X150323809Y-148357200D01*
X150323809Y-148357200D02*
X150180952Y-148404819D01*
X150180952Y-148404819D02*
X150085714Y-148404819D01*
X151085714Y-147833390D02*
X150990476Y-147785771D01*
X150990476Y-147785771D02*
X150942857Y-147738152D01*
X150942857Y-147738152D02*
X150895238Y-147642914D01*
X150895238Y-147642914D02*
X150895238Y-147595295D01*
X150895238Y-147595295D02*
X150942857Y-147500057D01*
X150942857Y-147500057D02*
X150990476Y-147452438D01*
X150990476Y-147452438D02*
X151085714Y-147404819D01*
X151085714Y-147404819D02*
X151276190Y-147404819D01*
X151276190Y-147404819D02*
X151371428Y-147452438D01*
X151371428Y-147452438D02*
X151419047Y-147500057D01*
X151419047Y-147500057D02*
X151466666Y-147595295D01*
X151466666Y-147595295D02*
X151466666Y-147642914D01*
X151466666Y-147642914D02*
X151419047Y-147738152D01*
X151419047Y-147738152D02*
X151371428Y-147785771D01*
X151371428Y-147785771D02*
X151276190Y-147833390D01*
X151276190Y-147833390D02*
X151085714Y-147833390D01*
X151085714Y-147833390D02*
X150990476Y-147881009D01*
X150990476Y-147881009D02*
X150942857Y-147928628D01*
X150942857Y-147928628D02*
X150895238Y-148023866D01*
X150895238Y-148023866D02*
X150895238Y-148214342D01*
X150895238Y-148214342D02*
X150942857Y-148309580D01*
X150942857Y-148309580D02*
X150990476Y-148357200D01*
X150990476Y-148357200D02*
X151085714Y-148404819D01*
X151085714Y-148404819D02*
X151276190Y-148404819D01*
X151276190Y-148404819D02*
X151371428Y-148357200D01*
X151371428Y-148357200D02*
X151419047Y-148309580D01*
X151419047Y-148309580D02*
X151466666Y-148214342D01*
X151466666Y-148214342D02*
X151466666Y-148023866D01*
X151466666Y-148023866D02*
X151419047Y-147928628D01*
X151419047Y-147928628D02*
X151371428Y-147881009D01*
X151371428Y-147881009D02*
X151276190Y-147833390D01*
X147124405Y-140054819D02*
X147124405Y-139054819D01*
X147124405Y-139054819D02*
X147362500Y-139054819D01*
X147362500Y-139054819D02*
X147505357Y-139102438D01*
X147505357Y-139102438D02*
X147600595Y-139197676D01*
X147600595Y-139197676D02*
X147648214Y-139292914D01*
X147648214Y-139292914D02*
X147695833Y-139483390D01*
X147695833Y-139483390D02*
X147695833Y-139626247D01*
X147695833Y-139626247D02*
X147648214Y-139816723D01*
X147648214Y-139816723D02*
X147600595Y-139911961D01*
X147600595Y-139911961D02*
X147505357Y-140007200D01*
X147505357Y-140007200D02*
X147362500Y-140054819D01*
X147362500Y-140054819D02*
X147124405Y-140054819D01*
X148648214Y-140054819D02*
X148076786Y-140054819D01*
X148362500Y-140054819D02*
X148362500Y-139054819D01*
X148362500Y-139054819D02*
X148267262Y-139197676D01*
X148267262Y-139197676D02*
X148172024Y-139292914D01*
X148172024Y-139292914D02*
X148076786Y-139340533D01*
X108923214Y-123854819D02*
X108923214Y-122854819D01*
X108923214Y-122854819D02*
X109161309Y-122854819D01*
X109161309Y-122854819D02*
X109304166Y-122902438D01*
X109304166Y-122902438D02*
X109399404Y-122997676D01*
X109399404Y-122997676D02*
X109447023Y-123092914D01*
X109447023Y-123092914D02*
X109494642Y-123283390D01*
X109494642Y-123283390D02*
X109494642Y-123426247D01*
X109494642Y-123426247D02*
X109447023Y-123616723D01*
X109447023Y-123616723D02*
X109399404Y-123711961D01*
X109399404Y-123711961D02*
X109304166Y-123807200D01*
X109304166Y-123807200D02*
X109161309Y-123854819D01*
X109161309Y-123854819D02*
X108923214Y-123854819D01*
X110447023Y-123854819D02*
X109875595Y-123854819D01*
X110161309Y-123854819D02*
X110161309Y-122854819D01*
X110161309Y-122854819D02*
X110066071Y-122997676D01*
X110066071Y-122997676D02*
X109970833Y-123092914D01*
X109970833Y-123092914D02*
X109875595Y-123140533D01*
X110780357Y-122854819D02*
X111399404Y-122854819D01*
X111399404Y-122854819D02*
X111066071Y-123235771D01*
X111066071Y-123235771D02*
X111208928Y-123235771D01*
X111208928Y-123235771D02*
X111304166Y-123283390D01*
X111304166Y-123283390D02*
X111351785Y-123331009D01*
X111351785Y-123331009D02*
X111399404Y-123426247D01*
X111399404Y-123426247D02*
X111399404Y-123664342D01*
X111399404Y-123664342D02*
X111351785Y-123759580D01*
X111351785Y-123759580D02*
X111304166Y-123807200D01*
X111304166Y-123807200D02*
X111208928Y-123854819D01*
X111208928Y-123854819D02*
X110923214Y-123854819D01*
X110923214Y-123854819D02*
X110827976Y-123807200D01*
X110827976Y-123807200D02*
X110780357Y-123759580D01*
X105357142Y-121804819D02*
X105023809Y-121328628D01*
X104785714Y-121804819D02*
X104785714Y-120804819D01*
X104785714Y-120804819D02*
X105166666Y-120804819D01*
X105166666Y-120804819D02*
X105261904Y-120852438D01*
X105261904Y-120852438D02*
X105309523Y-120900057D01*
X105309523Y-120900057D02*
X105357142Y-120995295D01*
X105357142Y-120995295D02*
X105357142Y-121138152D01*
X105357142Y-121138152D02*
X105309523Y-121233390D01*
X105309523Y-121233390D02*
X105261904Y-121281009D01*
X105261904Y-121281009D02*
X105166666Y-121328628D01*
X105166666Y-121328628D02*
X104785714Y-121328628D01*
X105738095Y-120900057D02*
X105785714Y-120852438D01*
X105785714Y-120852438D02*
X105880952Y-120804819D01*
X105880952Y-120804819D02*
X106119047Y-120804819D01*
X106119047Y-120804819D02*
X106214285Y-120852438D01*
X106214285Y-120852438D02*
X106261904Y-120900057D01*
X106261904Y-120900057D02*
X106309523Y-120995295D01*
X106309523Y-120995295D02*
X106309523Y-121090533D01*
X106309523Y-121090533D02*
X106261904Y-121233390D01*
X106261904Y-121233390D02*
X105690476Y-121804819D01*
X105690476Y-121804819D02*
X106309523Y-121804819D01*
X107214285Y-120804819D02*
X106738095Y-120804819D01*
X106738095Y-120804819D02*
X106690476Y-121281009D01*
X106690476Y-121281009D02*
X106738095Y-121233390D01*
X106738095Y-121233390D02*
X106833333Y-121185771D01*
X106833333Y-121185771D02*
X107071428Y-121185771D01*
X107071428Y-121185771D02*
X107166666Y-121233390D01*
X107166666Y-121233390D02*
X107214285Y-121281009D01*
X107214285Y-121281009D02*
X107261904Y-121376247D01*
X107261904Y-121376247D02*
X107261904Y-121614342D01*
X107261904Y-121614342D02*
X107214285Y-121709580D01*
X107214285Y-121709580D02*
X107166666Y-121757200D01*
X107166666Y-121757200D02*
X107071428Y-121804819D01*
X107071428Y-121804819D02*
X106833333Y-121804819D01*
X106833333Y-121804819D02*
X106738095Y-121757200D01*
X106738095Y-121757200D02*
X106690476Y-121709580D01*
X123804819Y-158254166D02*
X123328628Y-158587499D01*
X123804819Y-158825594D02*
X122804819Y-158825594D01*
X122804819Y-158825594D02*
X122804819Y-158444642D01*
X122804819Y-158444642D02*
X122852438Y-158349404D01*
X122852438Y-158349404D02*
X122900057Y-158301785D01*
X122900057Y-158301785D02*
X122995295Y-158254166D01*
X122995295Y-158254166D02*
X123138152Y-158254166D01*
X123138152Y-158254166D02*
X123233390Y-158301785D01*
X123233390Y-158301785D02*
X123281009Y-158349404D01*
X123281009Y-158349404D02*
X123328628Y-158444642D01*
X123328628Y-158444642D02*
X123328628Y-158825594D01*
X123138152Y-157397023D02*
X123804819Y-157397023D01*
X122757200Y-157635118D02*
X123471485Y-157873213D01*
X123471485Y-157873213D02*
X123471485Y-157254166D01*
X116104819Y-154555357D02*
X115628628Y-154888690D01*
X116104819Y-155126785D02*
X115104819Y-155126785D01*
X115104819Y-155126785D02*
X115104819Y-154745833D01*
X115104819Y-154745833D02*
X115152438Y-154650595D01*
X115152438Y-154650595D02*
X115200057Y-154602976D01*
X115200057Y-154602976D02*
X115295295Y-154555357D01*
X115295295Y-154555357D02*
X115438152Y-154555357D01*
X115438152Y-154555357D02*
X115533390Y-154602976D01*
X115533390Y-154602976D02*
X115581009Y-154650595D01*
X115581009Y-154650595D02*
X115628628Y-154745833D01*
X115628628Y-154745833D02*
X115628628Y-155126785D01*
X116104819Y-153602976D02*
X116104819Y-154174404D01*
X116104819Y-153888690D02*
X115104819Y-153888690D01*
X115104819Y-153888690D02*
X115247676Y-153983928D01*
X115247676Y-153983928D02*
X115342914Y-154079166D01*
X115342914Y-154079166D02*
X115390533Y-154174404D01*
X116104819Y-152650595D02*
X116104819Y-153222023D01*
X116104819Y-152936309D02*
X115104819Y-152936309D01*
X115104819Y-152936309D02*
X115247676Y-153031547D01*
X115247676Y-153031547D02*
X115342914Y-153126785D01*
X115342914Y-153126785D02*
X115390533Y-153222023D01*
X109191666Y-156929819D02*
X109191666Y-157644104D01*
X109191666Y-157644104D02*
X109144047Y-157786961D01*
X109144047Y-157786961D02*
X109048809Y-157882200D01*
X109048809Y-157882200D02*
X108905952Y-157929819D01*
X108905952Y-157929819D02*
X108810714Y-157929819D01*
X109715476Y-157929819D02*
X109905952Y-157929819D01*
X109905952Y-157929819D02*
X110001190Y-157882200D01*
X110001190Y-157882200D02*
X110048809Y-157834580D01*
X110048809Y-157834580D02*
X110144047Y-157691723D01*
X110144047Y-157691723D02*
X110191666Y-157501247D01*
X110191666Y-157501247D02*
X110191666Y-157120295D01*
X110191666Y-157120295D02*
X110144047Y-157025057D01*
X110144047Y-157025057D02*
X110096428Y-156977438D01*
X110096428Y-156977438D02*
X110001190Y-156929819D01*
X110001190Y-156929819D02*
X109810714Y-156929819D01*
X109810714Y-156929819D02*
X109715476Y-156977438D01*
X109715476Y-156977438D02*
X109667857Y-157025057D01*
X109667857Y-157025057D02*
X109620238Y-157120295D01*
X109620238Y-157120295D02*
X109620238Y-157358390D01*
X109620238Y-157358390D02*
X109667857Y-157453628D01*
X109667857Y-157453628D02*
X109715476Y-157501247D01*
X109715476Y-157501247D02*
X109810714Y-157548866D01*
X109810714Y-157548866D02*
X110001190Y-157548866D01*
X110001190Y-157548866D02*
X110096428Y-157501247D01*
X110096428Y-157501247D02*
X110144047Y-157453628D01*
X110144047Y-157453628D02*
X110191666Y-157358390D01*
X150466666Y-115654819D02*
X150466666Y-116369104D01*
X150466666Y-116369104D02*
X150419047Y-116511961D01*
X150419047Y-116511961D02*
X150323809Y-116607200D01*
X150323809Y-116607200D02*
X150180952Y-116654819D01*
X150180952Y-116654819D02*
X150085714Y-116654819D01*
X150847619Y-115654819D02*
X151514285Y-115654819D01*
X151514285Y-115654819D02*
X151085714Y-116654819D01*
X105357142Y-148804819D02*
X105023809Y-148328628D01*
X104785714Y-148804819D02*
X104785714Y-147804819D01*
X104785714Y-147804819D02*
X105166666Y-147804819D01*
X105166666Y-147804819D02*
X105261904Y-147852438D01*
X105261904Y-147852438D02*
X105309523Y-147900057D01*
X105309523Y-147900057D02*
X105357142Y-147995295D01*
X105357142Y-147995295D02*
X105357142Y-148138152D01*
X105357142Y-148138152D02*
X105309523Y-148233390D01*
X105309523Y-148233390D02*
X105261904Y-148281009D01*
X105261904Y-148281009D02*
X105166666Y-148328628D01*
X105166666Y-148328628D02*
X104785714Y-148328628D01*
X106309523Y-148804819D02*
X105738095Y-148804819D01*
X106023809Y-148804819D02*
X106023809Y-147804819D01*
X106023809Y-147804819D02*
X105928571Y-147947676D01*
X105928571Y-147947676D02*
X105833333Y-148042914D01*
X105833333Y-148042914D02*
X105738095Y-148090533D01*
X106642857Y-147804819D02*
X107309523Y-147804819D01*
X107309523Y-147804819D02*
X106880952Y-148804819D01*
X106399405Y-156854819D02*
X106399405Y-155854819D01*
X106399405Y-155854819D02*
X106637500Y-155854819D01*
X106637500Y-155854819D02*
X106780357Y-155902438D01*
X106780357Y-155902438D02*
X106875595Y-155997676D01*
X106875595Y-155997676D02*
X106923214Y-156092914D01*
X106923214Y-156092914D02*
X106970833Y-156283390D01*
X106970833Y-156283390D02*
X106970833Y-156426247D01*
X106970833Y-156426247D02*
X106923214Y-156616723D01*
X106923214Y-156616723D02*
X106875595Y-156711961D01*
X106875595Y-156711961D02*
X106780357Y-156807200D01*
X106780357Y-156807200D02*
X106637500Y-156854819D01*
X106637500Y-156854819D02*
X106399405Y-156854819D01*
X107827976Y-155854819D02*
X107637500Y-155854819D01*
X107637500Y-155854819D02*
X107542262Y-155902438D01*
X107542262Y-155902438D02*
X107494643Y-155950057D01*
X107494643Y-155950057D02*
X107399405Y-156092914D01*
X107399405Y-156092914D02*
X107351786Y-156283390D01*
X107351786Y-156283390D02*
X107351786Y-156664342D01*
X107351786Y-156664342D02*
X107399405Y-156759580D01*
X107399405Y-156759580D02*
X107447024Y-156807200D01*
X107447024Y-156807200D02*
X107542262Y-156854819D01*
X107542262Y-156854819D02*
X107732738Y-156854819D01*
X107732738Y-156854819D02*
X107827976Y-156807200D01*
X107827976Y-156807200D02*
X107875595Y-156759580D01*
X107875595Y-156759580D02*
X107923214Y-156664342D01*
X107923214Y-156664342D02*
X107923214Y-156426247D01*
X107923214Y-156426247D02*
X107875595Y-156331009D01*
X107875595Y-156331009D02*
X107827976Y-156283390D01*
X107827976Y-156283390D02*
X107732738Y-156235771D01*
X107732738Y-156235771D02*
X107542262Y-156235771D01*
X107542262Y-156235771D02*
X107447024Y-156283390D01*
X107447024Y-156283390D02*
X107399405Y-156331009D01*
X107399405Y-156331009D02*
X107351786Y-156426247D01*
X109399405Y-151854819D02*
X109399405Y-150854819D01*
X109399405Y-150854819D02*
X109637500Y-150854819D01*
X109637500Y-150854819D02*
X109780357Y-150902438D01*
X109780357Y-150902438D02*
X109875595Y-150997676D01*
X109875595Y-150997676D02*
X109923214Y-151092914D01*
X109923214Y-151092914D02*
X109970833Y-151283390D01*
X109970833Y-151283390D02*
X109970833Y-151426247D01*
X109970833Y-151426247D02*
X109923214Y-151616723D01*
X109923214Y-151616723D02*
X109875595Y-151711961D01*
X109875595Y-151711961D02*
X109780357Y-151807200D01*
X109780357Y-151807200D02*
X109637500Y-151854819D01*
X109637500Y-151854819D02*
X109399405Y-151854819D01*
X110875595Y-150854819D02*
X110399405Y-150854819D01*
X110399405Y-150854819D02*
X110351786Y-151331009D01*
X110351786Y-151331009D02*
X110399405Y-151283390D01*
X110399405Y-151283390D02*
X110494643Y-151235771D01*
X110494643Y-151235771D02*
X110732738Y-151235771D01*
X110732738Y-151235771D02*
X110827976Y-151283390D01*
X110827976Y-151283390D02*
X110875595Y-151331009D01*
X110875595Y-151331009D02*
X110923214Y-151426247D01*
X110923214Y-151426247D02*
X110923214Y-151664342D01*
X110923214Y-151664342D02*
X110875595Y-151759580D01*
X110875595Y-151759580D02*
X110827976Y-151807200D01*
X110827976Y-151807200D02*
X110732738Y-151854819D01*
X110732738Y-151854819D02*
X110494643Y-151854819D01*
X110494643Y-151854819D02*
X110399405Y-151807200D01*
X110399405Y-151807200D02*
X110351786Y-151759580D01*
X109399405Y-147854819D02*
X109399405Y-146854819D01*
X109399405Y-146854819D02*
X109637500Y-146854819D01*
X109637500Y-146854819D02*
X109780357Y-146902438D01*
X109780357Y-146902438D02*
X109875595Y-146997676D01*
X109875595Y-146997676D02*
X109923214Y-147092914D01*
X109923214Y-147092914D02*
X109970833Y-147283390D01*
X109970833Y-147283390D02*
X109970833Y-147426247D01*
X109970833Y-147426247D02*
X109923214Y-147616723D01*
X109923214Y-147616723D02*
X109875595Y-147711961D01*
X109875595Y-147711961D02*
X109780357Y-147807200D01*
X109780357Y-147807200D02*
X109637500Y-147854819D01*
X109637500Y-147854819D02*
X109399405Y-147854819D01*
X110542262Y-147283390D02*
X110447024Y-147235771D01*
X110447024Y-147235771D02*
X110399405Y-147188152D01*
X110399405Y-147188152D02*
X110351786Y-147092914D01*
X110351786Y-147092914D02*
X110351786Y-147045295D01*
X110351786Y-147045295D02*
X110399405Y-146950057D01*
X110399405Y-146950057D02*
X110447024Y-146902438D01*
X110447024Y-146902438D02*
X110542262Y-146854819D01*
X110542262Y-146854819D02*
X110732738Y-146854819D01*
X110732738Y-146854819D02*
X110827976Y-146902438D01*
X110827976Y-146902438D02*
X110875595Y-146950057D01*
X110875595Y-146950057D02*
X110923214Y-147045295D01*
X110923214Y-147045295D02*
X110923214Y-147092914D01*
X110923214Y-147092914D02*
X110875595Y-147188152D01*
X110875595Y-147188152D02*
X110827976Y-147235771D01*
X110827976Y-147235771D02*
X110732738Y-147283390D01*
X110732738Y-147283390D02*
X110542262Y-147283390D01*
X110542262Y-147283390D02*
X110447024Y-147331009D01*
X110447024Y-147331009D02*
X110399405Y-147378628D01*
X110399405Y-147378628D02*
X110351786Y-147473866D01*
X110351786Y-147473866D02*
X110351786Y-147664342D01*
X110351786Y-147664342D02*
X110399405Y-147759580D01*
X110399405Y-147759580D02*
X110447024Y-147807200D01*
X110447024Y-147807200D02*
X110542262Y-147854819D01*
X110542262Y-147854819D02*
X110732738Y-147854819D01*
X110732738Y-147854819D02*
X110827976Y-147807200D01*
X110827976Y-147807200D02*
X110875595Y-147759580D01*
X110875595Y-147759580D02*
X110923214Y-147664342D01*
X110923214Y-147664342D02*
X110923214Y-147473866D01*
X110923214Y-147473866D02*
X110875595Y-147378628D01*
X110875595Y-147378628D02*
X110827976Y-147331009D01*
X110827976Y-147331009D02*
X110732738Y-147283390D01*
X120804819Y-142830357D02*
X120328628Y-143163690D01*
X120804819Y-143401785D02*
X119804819Y-143401785D01*
X119804819Y-143401785D02*
X119804819Y-143020833D01*
X119804819Y-143020833D02*
X119852438Y-142925595D01*
X119852438Y-142925595D02*
X119900057Y-142877976D01*
X119900057Y-142877976D02*
X119995295Y-142830357D01*
X119995295Y-142830357D02*
X120138152Y-142830357D01*
X120138152Y-142830357D02*
X120233390Y-142877976D01*
X120233390Y-142877976D02*
X120281009Y-142925595D01*
X120281009Y-142925595D02*
X120328628Y-143020833D01*
X120328628Y-143020833D02*
X120328628Y-143401785D01*
X120804819Y-141877976D02*
X120804819Y-142449404D01*
X120804819Y-142163690D02*
X119804819Y-142163690D01*
X119804819Y-142163690D02*
X119947676Y-142258928D01*
X119947676Y-142258928D02*
X120042914Y-142354166D01*
X120042914Y-142354166D02*
X120090533Y-142449404D01*
X119804819Y-140973214D02*
X119804819Y-141449404D01*
X119804819Y-141449404D02*
X120281009Y-141497023D01*
X120281009Y-141497023D02*
X120233390Y-141449404D01*
X120233390Y-141449404D02*
X120185771Y-141354166D01*
X120185771Y-141354166D02*
X120185771Y-141116071D01*
X120185771Y-141116071D02*
X120233390Y-141020833D01*
X120233390Y-141020833D02*
X120281009Y-140973214D01*
X120281009Y-140973214D02*
X120376247Y-140925595D01*
X120376247Y-140925595D02*
X120614342Y-140925595D01*
X120614342Y-140925595D02*
X120709580Y-140973214D01*
X120709580Y-140973214D02*
X120757200Y-141020833D01*
X120757200Y-141020833D02*
X120804819Y-141116071D01*
X120804819Y-141116071D02*
X120804819Y-141354166D01*
X120804819Y-141354166D02*
X120757200Y-141449404D01*
X120757200Y-141449404D02*
X120709580Y-141497023D01*
X132833333Y-131867080D02*
X132785714Y-131914700D01*
X132785714Y-131914700D02*
X132642857Y-131962319D01*
X132642857Y-131962319D02*
X132547619Y-131962319D01*
X132547619Y-131962319D02*
X132404762Y-131914700D01*
X132404762Y-131914700D02*
X132309524Y-131819461D01*
X132309524Y-131819461D02*
X132261905Y-131724223D01*
X132261905Y-131724223D02*
X132214286Y-131533747D01*
X132214286Y-131533747D02*
X132214286Y-131390890D01*
X132214286Y-131390890D02*
X132261905Y-131200414D01*
X132261905Y-131200414D02*
X132309524Y-131105176D01*
X132309524Y-131105176D02*
X132404762Y-131009938D01*
X132404762Y-131009938D02*
X132547619Y-130962319D01*
X132547619Y-130962319D02*
X132642857Y-130962319D01*
X132642857Y-130962319D02*
X132785714Y-131009938D01*
X132785714Y-131009938D02*
X132833333Y-131057557D01*
X133738095Y-130962319D02*
X133261905Y-130962319D01*
X133261905Y-130962319D02*
X133214286Y-131438509D01*
X133214286Y-131438509D02*
X133261905Y-131390890D01*
X133261905Y-131390890D02*
X133357143Y-131343271D01*
X133357143Y-131343271D02*
X133595238Y-131343271D01*
X133595238Y-131343271D02*
X133690476Y-131390890D01*
X133690476Y-131390890D02*
X133738095Y-131438509D01*
X133738095Y-131438509D02*
X133785714Y-131533747D01*
X133785714Y-131533747D02*
X133785714Y-131771842D01*
X133785714Y-131771842D02*
X133738095Y-131867080D01*
X133738095Y-131867080D02*
X133690476Y-131914700D01*
X133690476Y-131914700D02*
X133595238Y-131962319D01*
X133595238Y-131962319D02*
X133357143Y-131962319D01*
X133357143Y-131962319D02*
X133261905Y-131914700D01*
X133261905Y-131914700D02*
X133214286Y-131867080D01*
X127039580Y-142354166D02*
X127087200Y-142401785D01*
X127087200Y-142401785D02*
X127134819Y-142544642D01*
X127134819Y-142544642D02*
X127134819Y-142639880D01*
X127134819Y-142639880D02*
X127087200Y-142782737D01*
X127087200Y-142782737D02*
X126991961Y-142877975D01*
X126991961Y-142877975D02*
X126896723Y-142925594D01*
X126896723Y-142925594D02*
X126706247Y-142973213D01*
X126706247Y-142973213D02*
X126563390Y-142973213D01*
X126563390Y-142973213D02*
X126372914Y-142925594D01*
X126372914Y-142925594D02*
X126277676Y-142877975D01*
X126277676Y-142877975D02*
X126182438Y-142782737D01*
X126182438Y-142782737D02*
X126134819Y-142639880D01*
X126134819Y-142639880D02*
X126134819Y-142544642D01*
X126134819Y-142544642D02*
X126182438Y-142401785D01*
X126182438Y-142401785D02*
X126230057Y-142354166D01*
X127134819Y-141877975D02*
X127134819Y-141687499D01*
X127134819Y-141687499D02*
X127087200Y-141592261D01*
X127087200Y-141592261D02*
X127039580Y-141544642D01*
X127039580Y-141544642D02*
X126896723Y-141449404D01*
X126896723Y-141449404D02*
X126706247Y-141401785D01*
X126706247Y-141401785D02*
X126325295Y-141401785D01*
X126325295Y-141401785D02*
X126230057Y-141449404D01*
X126230057Y-141449404D02*
X126182438Y-141497023D01*
X126182438Y-141497023D02*
X126134819Y-141592261D01*
X126134819Y-141592261D02*
X126134819Y-141782737D01*
X126134819Y-141782737D02*
X126182438Y-141877975D01*
X126182438Y-141877975D02*
X126230057Y-141925594D01*
X126230057Y-141925594D02*
X126325295Y-141973213D01*
X126325295Y-141973213D02*
X126563390Y-141973213D01*
X126563390Y-141973213D02*
X126658628Y-141925594D01*
X126658628Y-141925594D02*
X126706247Y-141877975D01*
X126706247Y-141877975D02*
X126753866Y-141782737D01*
X126753866Y-141782737D02*
X126753866Y-141592261D01*
X126753866Y-141592261D02*
X126706247Y-141497023D01*
X126706247Y-141497023D02*
X126658628Y-141449404D01*
X126658628Y-141449404D02*
X126563390Y-141401785D01*
X112804819Y-133642857D02*
X112328628Y-133976190D01*
X112804819Y-134214285D02*
X111804819Y-134214285D01*
X111804819Y-134214285D02*
X111804819Y-133833333D01*
X111804819Y-133833333D02*
X111852438Y-133738095D01*
X111852438Y-133738095D02*
X111900057Y-133690476D01*
X111900057Y-133690476D02*
X111995295Y-133642857D01*
X111995295Y-133642857D02*
X112138152Y-133642857D01*
X112138152Y-133642857D02*
X112233390Y-133690476D01*
X112233390Y-133690476D02*
X112281009Y-133738095D01*
X112281009Y-133738095D02*
X112328628Y-133833333D01*
X112328628Y-133833333D02*
X112328628Y-134214285D01*
X111804819Y-133309523D02*
X111804819Y-132690476D01*
X111804819Y-132690476D02*
X112185771Y-133023809D01*
X112185771Y-133023809D02*
X112185771Y-132880952D01*
X112185771Y-132880952D02*
X112233390Y-132785714D01*
X112233390Y-132785714D02*
X112281009Y-132738095D01*
X112281009Y-132738095D02*
X112376247Y-132690476D01*
X112376247Y-132690476D02*
X112614342Y-132690476D01*
X112614342Y-132690476D02*
X112709580Y-132738095D01*
X112709580Y-132738095D02*
X112757200Y-132785714D01*
X112757200Y-132785714D02*
X112804819Y-132880952D01*
X112804819Y-132880952D02*
X112804819Y-133166666D01*
X112804819Y-133166666D02*
X112757200Y-133261904D01*
X112757200Y-133261904D02*
X112709580Y-133309523D01*
X111900057Y-132309523D02*
X111852438Y-132261904D01*
X111852438Y-132261904D02*
X111804819Y-132166666D01*
X111804819Y-132166666D02*
X111804819Y-131928571D01*
X111804819Y-131928571D02*
X111852438Y-131833333D01*
X111852438Y-131833333D02*
X111900057Y-131785714D01*
X111900057Y-131785714D02*
X111995295Y-131738095D01*
X111995295Y-131738095D02*
X112090533Y-131738095D01*
X112090533Y-131738095D02*
X112233390Y-131785714D01*
X112233390Y-131785714D02*
X112804819Y-132357142D01*
X112804819Y-132357142D02*
X112804819Y-131738095D01*
X117783333Y-161039580D02*
X117735714Y-161087200D01*
X117735714Y-161087200D02*
X117592857Y-161134819D01*
X117592857Y-161134819D02*
X117497619Y-161134819D01*
X117497619Y-161134819D02*
X117354762Y-161087200D01*
X117354762Y-161087200D02*
X117259524Y-160991961D01*
X117259524Y-160991961D02*
X117211905Y-160896723D01*
X117211905Y-160896723D02*
X117164286Y-160706247D01*
X117164286Y-160706247D02*
X117164286Y-160563390D01*
X117164286Y-160563390D02*
X117211905Y-160372914D01*
X117211905Y-160372914D02*
X117259524Y-160277676D01*
X117259524Y-160277676D02*
X117354762Y-160182438D01*
X117354762Y-160182438D02*
X117497619Y-160134819D01*
X117497619Y-160134819D02*
X117592857Y-160134819D01*
X117592857Y-160134819D02*
X117735714Y-160182438D01*
X117735714Y-160182438D02*
X117783333Y-160230057D01*
X118164286Y-160230057D02*
X118211905Y-160182438D01*
X118211905Y-160182438D02*
X118307143Y-160134819D01*
X118307143Y-160134819D02*
X118545238Y-160134819D01*
X118545238Y-160134819D02*
X118640476Y-160182438D01*
X118640476Y-160182438D02*
X118688095Y-160230057D01*
X118688095Y-160230057D02*
X118735714Y-160325295D01*
X118735714Y-160325295D02*
X118735714Y-160420533D01*
X118735714Y-160420533D02*
X118688095Y-160563390D01*
X118688095Y-160563390D02*
X118116667Y-161134819D01*
X118116667Y-161134819D02*
X118735714Y-161134819D01*
X130967261Y-147150057D02*
X130872023Y-147102438D01*
X130872023Y-147102438D02*
X130776785Y-147007200D01*
X130776785Y-147007200D02*
X130633928Y-146864342D01*
X130633928Y-146864342D02*
X130538690Y-146816723D01*
X130538690Y-146816723D02*
X130443452Y-146816723D01*
X130491071Y-147054819D02*
X130395833Y-147007200D01*
X130395833Y-147007200D02*
X130300595Y-146911961D01*
X130300595Y-146911961D02*
X130252976Y-146721485D01*
X130252976Y-146721485D02*
X130252976Y-146388152D01*
X130252976Y-146388152D02*
X130300595Y-146197676D01*
X130300595Y-146197676D02*
X130395833Y-146102438D01*
X130395833Y-146102438D02*
X130491071Y-146054819D01*
X130491071Y-146054819D02*
X130681547Y-146054819D01*
X130681547Y-146054819D02*
X130776785Y-146102438D01*
X130776785Y-146102438D02*
X130872023Y-146197676D01*
X130872023Y-146197676D02*
X130919642Y-146388152D01*
X130919642Y-146388152D02*
X130919642Y-146721485D01*
X130919642Y-146721485D02*
X130872023Y-146911961D01*
X130872023Y-146911961D02*
X130776785Y-147007200D01*
X130776785Y-147007200D02*
X130681547Y-147054819D01*
X130681547Y-147054819D02*
X130491071Y-147054819D01*
X131872023Y-147054819D02*
X131300595Y-147054819D01*
X131586309Y-147054819D02*
X131586309Y-146054819D01*
X131586309Y-146054819D02*
X131491071Y-146197676D01*
X131491071Y-146197676D02*
X131395833Y-146292914D01*
X131395833Y-146292914D02*
X131300595Y-146340533D01*
X123854819Y-154600594D02*
X122854819Y-154600594D01*
X122854819Y-154600594D02*
X122854819Y-154362499D01*
X122854819Y-154362499D02*
X122902438Y-154219642D01*
X122902438Y-154219642D02*
X122997676Y-154124404D01*
X122997676Y-154124404D02*
X123092914Y-154076785D01*
X123092914Y-154076785D02*
X123283390Y-154029166D01*
X123283390Y-154029166D02*
X123426247Y-154029166D01*
X123426247Y-154029166D02*
X123616723Y-154076785D01*
X123616723Y-154076785D02*
X123711961Y-154124404D01*
X123711961Y-154124404D02*
X123807200Y-154219642D01*
X123807200Y-154219642D02*
X123854819Y-154362499D01*
X123854819Y-154362499D02*
X123854819Y-154600594D01*
X123188152Y-153172023D02*
X123854819Y-153172023D01*
X122807200Y-153410118D02*
X123521485Y-153648213D01*
X123521485Y-153648213D02*
X123521485Y-153029166D01*
X132944642Y-144304819D02*
X132611309Y-143828628D01*
X132373214Y-144304819D02*
X132373214Y-143304819D01*
X132373214Y-143304819D02*
X132754166Y-143304819D01*
X132754166Y-143304819D02*
X132849404Y-143352438D01*
X132849404Y-143352438D02*
X132897023Y-143400057D01*
X132897023Y-143400057D02*
X132944642Y-143495295D01*
X132944642Y-143495295D02*
X132944642Y-143638152D01*
X132944642Y-143638152D02*
X132897023Y-143733390D01*
X132897023Y-143733390D02*
X132849404Y-143781009D01*
X132849404Y-143781009D02*
X132754166Y-143828628D01*
X132754166Y-143828628D02*
X132373214Y-143828628D01*
X133897023Y-144304819D02*
X133325595Y-144304819D01*
X133611309Y-144304819D02*
X133611309Y-143304819D01*
X133611309Y-143304819D02*
X133516071Y-143447676D01*
X133516071Y-143447676D02*
X133420833Y-143542914D01*
X133420833Y-143542914D02*
X133325595Y-143590533D01*
X134230357Y-143304819D02*
X134849404Y-143304819D01*
X134849404Y-143304819D02*
X134516071Y-143685771D01*
X134516071Y-143685771D02*
X134658928Y-143685771D01*
X134658928Y-143685771D02*
X134754166Y-143733390D01*
X134754166Y-143733390D02*
X134801785Y-143781009D01*
X134801785Y-143781009D02*
X134849404Y-143876247D01*
X134849404Y-143876247D02*
X134849404Y-144114342D01*
X134849404Y-144114342D02*
X134801785Y-144209580D01*
X134801785Y-144209580D02*
X134754166Y-144257200D01*
X134754166Y-144257200D02*
X134658928Y-144304819D01*
X134658928Y-144304819D02*
X134373214Y-144304819D01*
X134373214Y-144304819D02*
X134277976Y-144257200D01*
X134277976Y-144257200D02*
X134230357Y-144209580D01*
X97357142Y-127039580D02*
X97309523Y-127087200D01*
X97309523Y-127087200D02*
X97166666Y-127134819D01*
X97166666Y-127134819D02*
X97071428Y-127134819D01*
X97071428Y-127134819D02*
X96928571Y-127087200D01*
X96928571Y-127087200D02*
X96833333Y-126991961D01*
X96833333Y-126991961D02*
X96785714Y-126896723D01*
X96785714Y-126896723D02*
X96738095Y-126706247D01*
X96738095Y-126706247D02*
X96738095Y-126563390D01*
X96738095Y-126563390D02*
X96785714Y-126372914D01*
X96785714Y-126372914D02*
X96833333Y-126277676D01*
X96833333Y-126277676D02*
X96928571Y-126182438D01*
X96928571Y-126182438D02*
X97071428Y-126134819D01*
X97071428Y-126134819D02*
X97166666Y-126134819D01*
X97166666Y-126134819D02*
X97309523Y-126182438D01*
X97309523Y-126182438D02*
X97357142Y-126230057D01*
X98309523Y-127134819D02*
X97738095Y-127134819D01*
X98023809Y-127134819D02*
X98023809Y-126134819D01*
X98023809Y-126134819D02*
X97928571Y-126277676D01*
X97928571Y-126277676D02*
X97833333Y-126372914D01*
X97833333Y-126372914D02*
X97738095Y-126420533D01*
X99166666Y-126134819D02*
X98976190Y-126134819D01*
X98976190Y-126134819D02*
X98880952Y-126182438D01*
X98880952Y-126182438D02*
X98833333Y-126230057D01*
X98833333Y-126230057D02*
X98738095Y-126372914D01*
X98738095Y-126372914D02*
X98690476Y-126563390D01*
X98690476Y-126563390D02*
X98690476Y-126944342D01*
X98690476Y-126944342D02*
X98738095Y-127039580D01*
X98738095Y-127039580D02*
X98785714Y-127087200D01*
X98785714Y-127087200D02*
X98880952Y-127134819D01*
X98880952Y-127134819D02*
X99071428Y-127134819D01*
X99071428Y-127134819D02*
X99166666Y-127087200D01*
X99166666Y-127087200D02*
X99214285Y-127039580D01*
X99214285Y-127039580D02*
X99261904Y-126944342D01*
X99261904Y-126944342D02*
X99261904Y-126706247D01*
X99261904Y-126706247D02*
X99214285Y-126611009D01*
X99214285Y-126611009D02*
X99166666Y-126563390D01*
X99166666Y-126563390D02*
X99071428Y-126515771D01*
X99071428Y-126515771D02*
X98880952Y-126515771D01*
X98880952Y-126515771D02*
X98785714Y-126563390D01*
X98785714Y-126563390D02*
X98738095Y-126611009D01*
X98738095Y-126611009D02*
X98690476Y-126706247D01*
X144194819Y-130793333D02*
X144909104Y-130793333D01*
X144909104Y-130793333D02*
X145051961Y-130840952D01*
X145051961Y-130840952D02*
X145147200Y-130936190D01*
X145147200Y-130936190D02*
X145194819Y-131079047D01*
X145194819Y-131079047D02*
X145194819Y-131174285D01*
X144194819Y-130412380D02*
X144194819Y-129793333D01*
X144194819Y-129793333D02*
X144575771Y-130126666D01*
X144575771Y-130126666D02*
X144575771Y-129983809D01*
X144575771Y-129983809D02*
X144623390Y-129888571D01*
X144623390Y-129888571D02*
X144671009Y-129840952D01*
X144671009Y-129840952D02*
X144766247Y-129793333D01*
X144766247Y-129793333D02*
X145004342Y-129793333D01*
X145004342Y-129793333D02*
X145099580Y-129840952D01*
X145099580Y-129840952D02*
X145147200Y-129888571D01*
X145147200Y-129888571D02*
X145194819Y-129983809D01*
X145194819Y-129983809D02*
X145194819Y-130269523D01*
X145194819Y-130269523D02*
X145147200Y-130364761D01*
X145147200Y-130364761D02*
X145099580Y-130412380D01*
X104357142Y-130804819D02*
X104023809Y-130328628D01*
X103785714Y-130804819D02*
X103785714Y-129804819D01*
X103785714Y-129804819D02*
X104166666Y-129804819D01*
X104166666Y-129804819D02*
X104261904Y-129852438D01*
X104261904Y-129852438D02*
X104309523Y-129900057D01*
X104309523Y-129900057D02*
X104357142Y-129995295D01*
X104357142Y-129995295D02*
X104357142Y-130138152D01*
X104357142Y-130138152D02*
X104309523Y-130233390D01*
X104309523Y-130233390D02*
X104261904Y-130281009D01*
X104261904Y-130281009D02*
X104166666Y-130328628D01*
X104166666Y-130328628D02*
X103785714Y-130328628D01*
X104738095Y-129900057D02*
X104785714Y-129852438D01*
X104785714Y-129852438D02*
X104880952Y-129804819D01*
X104880952Y-129804819D02*
X105119047Y-129804819D01*
X105119047Y-129804819D02*
X105214285Y-129852438D01*
X105214285Y-129852438D02*
X105261904Y-129900057D01*
X105261904Y-129900057D02*
X105309523Y-129995295D01*
X105309523Y-129995295D02*
X105309523Y-130090533D01*
X105309523Y-130090533D02*
X105261904Y-130233390D01*
X105261904Y-130233390D02*
X104690476Y-130804819D01*
X104690476Y-130804819D02*
X105309523Y-130804819D01*
X105642857Y-129804819D02*
X106261904Y-129804819D01*
X106261904Y-129804819D02*
X105928571Y-130185771D01*
X105928571Y-130185771D02*
X106071428Y-130185771D01*
X106071428Y-130185771D02*
X106166666Y-130233390D01*
X106166666Y-130233390D02*
X106214285Y-130281009D01*
X106214285Y-130281009D02*
X106261904Y-130376247D01*
X106261904Y-130376247D02*
X106261904Y-130614342D01*
X106261904Y-130614342D02*
X106214285Y-130709580D01*
X106214285Y-130709580D02*
X106166666Y-130757200D01*
X106166666Y-130757200D02*
X106071428Y-130804819D01*
X106071428Y-130804819D02*
X105785714Y-130804819D01*
X105785714Y-130804819D02*
X105690476Y-130757200D01*
X105690476Y-130757200D02*
X105642857Y-130709580D01*
X152666666Y-146864819D02*
X152666666Y-147579104D01*
X152666666Y-147579104D02*
X152619047Y-147721961D01*
X152619047Y-147721961D02*
X152523809Y-147817200D01*
X152523809Y-147817200D02*
X152380952Y-147864819D01*
X152380952Y-147864819D02*
X152285714Y-147864819D01*
X153666666Y-147864819D02*
X153095238Y-147864819D01*
X153380952Y-147864819D02*
X153380952Y-146864819D01*
X153380952Y-146864819D02*
X153285714Y-147007676D01*
X153285714Y-147007676D02*
X153190476Y-147102914D01*
X153190476Y-147102914D02*
X153095238Y-147150533D01*
X109399405Y-143854819D02*
X109399405Y-142854819D01*
X109399405Y-142854819D02*
X109637500Y-142854819D01*
X109637500Y-142854819D02*
X109780357Y-142902438D01*
X109780357Y-142902438D02*
X109875595Y-142997676D01*
X109875595Y-142997676D02*
X109923214Y-143092914D01*
X109923214Y-143092914D02*
X109970833Y-143283390D01*
X109970833Y-143283390D02*
X109970833Y-143426247D01*
X109970833Y-143426247D02*
X109923214Y-143616723D01*
X109923214Y-143616723D02*
X109875595Y-143711961D01*
X109875595Y-143711961D02*
X109780357Y-143807200D01*
X109780357Y-143807200D02*
X109637500Y-143854819D01*
X109637500Y-143854819D02*
X109399405Y-143854819D01*
X110304167Y-142854819D02*
X110970833Y-142854819D01*
X110970833Y-142854819D02*
X110542262Y-143854819D01*
X148104819Y-146079166D02*
X147628628Y-146412499D01*
X148104819Y-146650594D02*
X147104819Y-146650594D01*
X147104819Y-146650594D02*
X147104819Y-146269642D01*
X147104819Y-146269642D02*
X147152438Y-146174404D01*
X147152438Y-146174404D02*
X147200057Y-146126785D01*
X147200057Y-146126785D02*
X147295295Y-146079166D01*
X147295295Y-146079166D02*
X147438152Y-146079166D01*
X147438152Y-146079166D02*
X147533390Y-146126785D01*
X147533390Y-146126785D02*
X147581009Y-146174404D01*
X147581009Y-146174404D02*
X147628628Y-146269642D01*
X147628628Y-146269642D02*
X147628628Y-146650594D01*
X147533390Y-145507737D02*
X147485771Y-145602975D01*
X147485771Y-145602975D02*
X147438152Y-145650594D01*
X147438152Y-145650594D02*
X147342914Y-145698213D01*
X147342914Y-145698213D02*
X147295295Y-145698213D01*
X147295295Y-145698213D02*
X147200057Y-145650594D01*
X147200057Y-145650594D02*
X147152438Y-145602975D01*
X147152438Y-145602975D02*
X147104819Y-145507737D01*
X147104819Y-145507737D02*
X147104819Y-145317261D01*
X147104819Y-145317261D02*
X147152438Y-145222023D01*
X147152438Y-145222023D02*
X147200057Y-145174404D01*
X147200057Y-145174404D02*
X147295295Y-145126785D01*
X147295295Y-145126785D02*
X147342914Y-145126785D01*
X147342914Y-145126785D02*
X147438152Y-145174404D01*
X147438152Y-145174404D02*
X147485771Y-145222023D01*
X147485771Y-145222023D02*
X147533390Y-145317261D01*
X147533390Y-145317261D02*
X147533390Y-145507737D01*
X147533390Y-145507737D02*
X147581009Y-145602975D01*
X147581009Y-145602975D02*
X147628628Y-145650594D01*
X147628628Y-145650594D02*
X147723866Y-145698213D01*
X147723866Y-145698213D02*
X147914342Y-145698213D01*
X147914342Y-145698213D02*
X148009580Y-145650594D01*
X148009580Y-145650594D02*
X148057200Y-145602975D01*
X148057200Y-145602975D02*
X148104819Y-145507737D01*
X148104819Y-145507737D02*
X148104819Y-145317261D01*
X148104819Y-145317261D02*
X148057200Y-145222023D01*
X148057200Y-145222023D02*
X148009580Y-145174404D01*
X148009580Y-145174404D02*
X147914342Y-145126785D01*
X147914342Y-145126785D02*
X147723866Y-145126785D01*
X147723866Y-145126785D02*
X147628628Y-145174404D01*
X147628628Y-145174404D02*
X147581009Y-145222023D01*
X147581009Y-145222023D02*
X147533390Y-145317261D01*
X109399405Y-135854819D02*
X109399405Y-134854819D01*
X109399405Y-134854819D02*
X109637500Y-134854819D01*
X109637500Y-134854819D02*
X109780357Y-134902438D01*
X109780357Y-134902438D02*
X109875595Y-134997676D01*
X109875595Y-134997676D02*
X109923214Y-135092914D01*
X109923214Y-135092914D02*
X109970833Y-135283390D01*
X109970833Y-135283390D02*
X109970833Y-135426247D01*
X109970833Y-135426247D02*
X109923214Y-135616723D01*
X109923214Y-135616723D02*
X109875595Y-135711961D01*
X109875595Y-135711961D02*
X109780357Y-135807200D01*
X109780357Y-135807200D02*
X109637500Y-135854819D01*
X109637500Y-135854819D02*
X109399405Y-135854819D01*
X110447024Y-135854819D02*
X110637500Y-135854819D01*
X110637500Y-135854819D02*
X110732738Y-135807200D01*
X110732738Y-135807200D02*
X110780357Y-135759580D01*
X110780357Y-135759580D02*
X110875595Y-135616723D01*
X110875595Y-135616723D02*
X110923214Y-135426247D01*
X110923214Y-135426247D02*
X110923214Y-135045295D01*
X110923214Y-135045295D02*
X110875595Y-134950057D01*
X110875595Y-134950057D02*
X110827976Y-134902438D01*
X110827976Y-134902438D02*
X110732738Y-134854819D01*
X110732738Y-134854819D02*
X110542262Y-134854819D01*
X110542262Y-134854819D02*
X110447024Y-134902438D01*
X110447024Y-134902438D02*
X110399405Y-134950057D01*
X110399405Y-134950057D02*
X110351786Y-135045295D01*
X110351786Y-135045295D02*
X110351786Y-135283390D01*
X110351786Y-135283390D02*
X110399405Y-135378628D01*
X110399405Y-135378628D02*
X110447024Y-135426247D01*
X110447024Y-135426247D02*
X110542262Y-135473866D01*
X110542262Y-135473866D02*
X110732738Y-135473866D01*
X110732738Y-135473866D02*
X110827976Y-135426247D01*
X110827976Y-135426247D02*
X110875595Y-135378628D01*
X110875595Y-135378628D02*
X110923214Y-135283390D01*
X147920833Y-141104819D02*
X147587500Y-140628628D01*
X147349405Y-141104819D02*
X147349405Y-140104819D01*
X147349405Y-140104819D02*
X147730357Y-140104819D01*
X147730357Y-140104819D02*
X147825595Y-140152438D01*
X147825595Y-140152438D02*
X147873214Y-140200057D01*
X147873214Y-140200057D02*
X147920833Y-140295295D01*
X147920833Y-140295295D02*
X147920833Y-140438152D01*
X147920833Y-140438152D02*
X147873214Y-140533390D01*
X147873214Y-140533390D02*
X147825595Y-140581009D01*
X147825595Y-140581009D02*
X147730357Y-140628628D01*
X147730357Y-140628628D02*
X147349405Y-140628628D01*
X148873214Y-141104819D02*
X148301786Y-141104819D01*
X148587500Y-141104819D02*
X148587500Y-140104819D01*
X148587500Y-140104819D02*
X148492262Y-140247676D01*
X148492262Y-140247676D02*
X148397024Y-140342914D01*
X148397024Y-140342914D02*
X148301786Y-140390533D01*
X104357142Y-136804819D02*
X104023809Y-136328628D01*
X103785714Y-136804819D02*
X103785714Y-135804819D01*
X103785714Y-135804819D02*
X104166666Y-135804819D01*
X104166666Y-135804819D02*
X104261904Y-135852438D01*
X104261904Y-135852438D02*
X104309523Y-135900057D01*
X104309523Y-135900057D02*
X104357142Y-135995295D01*
X104357142Y-135995295D02*
X104357142Y-136138152D01*
X104357142Y-136138152D02*
X104309523Y-136233390D01*
X104309523Y-136233390D02*
X104261904Y-136281009D01*
X104261904Y-136281009D02*
X104166666Y-136328628D01*
X104166666Y-136328628D02*
X103785714Y-136328628D01*
X104738095Y-135900057D02*
X104785714Y-135852438D01*
X104785714Y-135852438D02*
X104880952Y-135804819D01*
X104880952Y-135804819D02*
X105119047Y-135804819D01*
X105119047Y-135804819D02*
X105214285Y-135852438D01*
X105214285Y-135852438D02*
X105261904Y-135900057D01*
X105261904Y-135900057D02*
X105309523Y-135995295D01*
X105309523Y-135995295D02*
X105309523Y-136090533D01*
X105309523Y-136090533D02*
X105261904Y-136233390D01*
X105261904Y-136233390D02*
X104690476Y-136804819D01*
X104690476Y-136804819D02*
X105309523Y-136804819D01*
X106261904Y-136804819D02*
X105690476Y-136804819D01*
X105976190Y-136804819D02*
X105976190Y-135804819D01*
X105976190Y-135804819D02*
X105880952Y-135947676D01*
X105880952Y-135947676D02*
X105785714Y-136042914D01*
X105785714Y-136042914D02*
X105690476Y-136090533D01*
X112804819Y-141555357D02*
X112328628Y-141888690D01*
X112804819Y-142126785D02*
X111804819Y-142126785D01*
X111804819Y-142126785D02*
X111804819Y-141745833D01*
X111804819Y-141745833D02*
X111852438Y-141650595D01*
X111852438Y-141650595D02*
X111900057Y-141602976D01*
X111900057Y-141602976D02*
X111995295Y-141555357D01*
X111995295Y-141555357D02*
X112138152Y-141555357D01*
X112138152Y-141555357D02*
X112233390Y-141602976D01*
X112233390Y-141602976D02*
X112281009Y-141650595D01*
X112281009Y-141650595D02*
X112328628Y-141745833D01*
X112328628Y-141745833D02*
X112328628Y-142126785D01*
X111804819Y-141222023D02*
X111804819Y-140602976D01*
X111804819Y-140602976D02*
X112185771Y-140936309D01*
X112185771Y-140936309D02*
X112185771Y-140793452D01*
X112185771Y-140793452D02*
X112233390Y-140698214D01*
X112233390Y-140698214D02*
X112281009Y-140650595D01*
X112281009Y-140650595D02*
X112376247Y-140602976D01*
X112376247Y-140602976D02*
X112614342Y-140602976D01*
X112614342Y-140602976D02*
X112709580Y-140650595D01*
X112709580Y-140650595D02*
X112757200Y-140698214D01*
X112757200Y-140698214D02*
X112804819Y-140793452D01*
X112804819Y-140793452D02*
X112804819Y-141079166D01*
X112804819Y-141079166D02*
X112757200Y-141174404D01*
X112757200Y-141174404D02*
X112709580Y-141222023D01*
X111804819Y-139983928D02*
X111804819Y-139888690D01*
X111804819Y-139888690D02*
X111852438Y-139793452D01*
X111852438Y-139793452D02*
X111900057Y-139745833D01*
X111900057Y-139745833D02*
X111995295Y-139698214D01*
X111995295Y-139698214D02*
X112185771Y-139650595D01*
X112185771Y-139650595D02*
X112423866Y-139650595D01*
X112423866Y-139650595D02*
X112614342Y-139698214D01*
X112614342Y-139698214D02*
X112709580Y-139745833D01*
X112709580Y-139745833D02*
X112757200Y-139793452D01*
X112757200Y-139793452D02*
X112804819Y-139888690D01*
X112804819Y-139888690D02*
X112804819Y-139983928D01*
X112804819Y-139983928D02*
X112757200Y-140079166D01*
X112757200Y-140079166D02*
X112709580Y-140126785D01*
X112709580Y-140126785D02*
X112614342Y-140174404D01*
X112614342Y-140174404D02*
X112423866Y-140222023D01*
X112423866Y-140222023D02*
X112185771Y-140222023D01*
X112185771Y-140222023D02*
X111995295Y-140174404D01*
X111995295Y-140174404D02*
X111900057Y-140126785D01*
X111900057Y-140126785D02*
X111852438Y-140079166D01*
X111852438Y-140079166D02*
X111804819Y-139983928D01*
X120804819Y-158166666D02*
X120328628Y-158499999D01*
X120804819Y-158738094D02*
X119804819Y-158738094D01*
X119804819Y-158738094D02*
X119804819Y-158357142D01*
X119804819Y-158357142D02*
X119852438Y-158261904D01*
X119852438Y-158261904D02*
X119900057Y-158214285D01*
X119900057Y-158214285D02*
X119995295Y-158166666D01*
X119995295Y-158166666D02*
X120138152Y-158166666D01*
X120138152Y-158166666D02*
X120233390Y-158214285D01*
X120233390Y-158214285D02*
X120281009Y-158261904D01*
X120281009Y-158261904D02*
X120328628Y-158357142D01*
X120328628Y-158357142D02*
X120328628Y-158738094D01*
X119804819Y-157261904D02*
X119804819Y-157738094D01*
X119804819Y-157738094D02*
X120281009Y-157785713D01*
X120281009Y-157785713D02*
X120233390Y-157738094D01*
X120233390Y-157738094D02*
X120185771Y-157642856D01*
X120185771Y-157642856D02*
X120185771Y-157404761D01*
X120185771Y-157404761D02*
X120233390Y-157309523D01*
X120233390Y-157309523D02*
X120281009Y-157261904D01*
X120281009Y-157261904D02*
X120376247Y-157214285D01*
X120376247Y-157214285D02*
X120614342Y-157214285D01*
X120614342Y-157214285D02*
X120709580Y-157261904D01*
X120709580Y-157261904D02*
X120757200Y-157309523D01*
X120757200Y-157309523D02*
X120804819Y-157404761D01*
X120804819Y-157404761D02*
X120804819Y-157642856D01*
X120804819Y-157642856D02*
X120757200Y-157738094D01*
X120757200Y-157738094D02*
X120709580Y-157785713D01*
X104423214Y-121954819D02*
X104423214Y-120954819D01*
X104423214Y-120954819D02*
X104661309Y-120954819D01*
X104661309Y-120954819D02*
X104804166Y-121002438D01*
X104804166Y-121002438D02*
X104899404Y-121097676D01*
X104899404Y-121097676D02*
X104947023Y-121192914D01*
X104947023Y-121192914D02*
X104994642Y-121383390D01*
X104994642Y-121383390D02*
X104994642Y-121526247D01*
X104994642Y-121526247D02*
X104947023Y-121716723D01*
X104947023Y-121716723D02*
X104899404Y-121811961D01*
X104899404Y-121811961D02*
X104804166Y-121907200D01*
X104804166Y-121907200D02*
X104661309Y-121954819D01*
X104661309Y-121954819D02*
X104423214Y-121954819D01*
X105947023Y-121954819D02*
X105375595Y-121954819D01*
X105661309Y-121954819D02*
X105661309Y-120954819D01*
X105661309Y-120954819D02*
X105566071Y-121097676D01*
X105566071Y-121097676D02*
X105470833Y-121192914D01*
X105470833Y-121192914D02*
X105375595Y-121240533D01*
X106804166Y-121288152D02*
X106804166Y-121954819D01*
X106566071Y-120907200D02*
X106327976Y-121621485D01*
X106327976Y-121621485D02*
X106947023Y-121621485D01*
X105157142Y-117604819D02*
X104823809Y-117128628D01*
X104585714Y-117604819D02*
X104585714Y-116604819D01*
X104585714Y-116604819D02*
X104966666Y-116604819D01*
X104966666Y-116604819D02*
X105061904Y-116652438D01*
X105061904Y-116652438D02*
X105109523Y-116700057D01*
X105109523Y-116700057D02*
X105157142Y-116795295D01*
X105157142Y-116795295D02*
X105157142Y-116938152D01*
X105157142Y-116938152D02*
X105109523Y-117033390D01*
X105109523Y-117033390D02*
X105061904Y-117081009D01*
X105061904Y-117081009D02*
X104966666Y-117128628D01*
X104966666Y-117128628D02*
X104585714Y-117128628D01*
X105538095Y-116700057D02*
X105585714Y-116652438D01*
X105585714Y-116652438D02*
X105680952Y-116604819D01*
X105680952Y-116604819D02*
X105919047Y-116604819D01*
X105919047Y-116604819D02*
X106014285Y-116652438D01*
X106014285Y-116652438D02*
X106061904Y-116700057D01*
X106061904Y-116700057D02*
X106109523Y-116795295D01*
X106109523Y-116795295D02*
X106109523Y-116890533D01*
X106109523Y-116890533D02*
X106061904Y-117033390D01*
X106061904Y-117033390D02*
X105490476Y-117604819D01*
X105490476Y-117604819D02*
X106109523Y-117604819D01*
X106680952Y-117033390D02*
X106585714Y-116985771D01*
X106585714Y-116985771D02*
X106538095Y-116938152D01*
X106538095Y-116938152D02*
X106490476Y-116842914D01*
X106490476Y-116842914D02*
X106490476Y-116795295D01*
X106490476Y-116795295D02*
X106538095Y-116700057D01*
X106538095Y-116700057D02*
X106585714Y-116652438D01*
X106585714Y-116652438D02*
X106680952Y-116604819D01*
X106680952Y-116604819D02*
X106871428Y-116604819D01*
X106871428Y-116604819D02*
X106966666Y-116652438D01*
X106966666Y-116652438D02*
X107014285Y-116700057D01*
X107014285Y-116700057D02*
X107061904Y-116795295D01*
X107061904Y-116795295D02*
X107061904Y-116842914D01*
X107061904Y-116842914D02*
X107014285Y-116938152D01*
X107014285Y-116938152D02*
X106966666Y-116985771D01*
X106966666Y-116985771D02*
X106871428Y-117033390D01*
X106871428Y-117033390D02*
X106680952Y-117033390D01*
X106680952Y-117033390D02*
X106585714Y-117081009D01*
X106585714Y-117081009D02*
X106538095Y-117128628D01*
X106538095Y-117128628D02*
X106490476Y-117223866D01*
X106490476Y-117223866D02*
X106490476Y-117414342D01*
X106490476Y-117414342D02*
X106538095Y-117509580D01*
X106538095Y-117509580D02*
X106585714Y-117557200D01*
X106585714Y-117557200D02*
X106680952Y-117604819D01*
X106680952Y-117604819D02*
X106871428Y-117604819D01*
X106871428Y-117604819D02*
X106966666Y-117557200D01*
X106966666Y-117557200D02*
X107014285Y-117509580D01*
X107014285Y-117509580D02*
X107061904Y-117414342D01*
X107061904Y-117414342D02*
X107061904Y-117223866D01*
X107061904Y-117223866D02*
X107014285Y-117128628D01*
X107014285Y-117128628D02*
X106966666Y-117081009D01*
X106966666Y-117081009D02*
X106871428Y-117033390D01*
X132957142Y-141292319D02*
X132623809Y-140816128D01*
X132385714Y-141292319D02*
X132385714Y-140292319D01*
X132385714Y-140292319D02*
X132766666Y-140292319D01*
X132766666Y-140292319D02*
X132861904Y-140339938D01*
X132861904Y-140339938D02*
X132909523Y-140387557D01*
X132909523Y-140387557D02*
X132957142Y-140482795D01*
X132957142Y-140482795D02*
X132957142Y-140625652D01*
X132957142Y-140625652D02*
X132909523Y-140720890D01*
X132909523Y-140720890D02*
X132861904Y-140768509D01*
X132861904Y-140768509D02*
X132766666Y-140816128D01*
X132766666Y-140816128D02*
X132385714Y-140816128D01*
X133909523Y-141292319D02*
X133338095Y-141292319D01*
X133623809Y-141292319D02*
X133623809Y-140292319D01*
X133623809Y-140292319D02*
X133528571Y-140435176D01*
X133528571Y-140435176D02*
X133433333Y-140530414D01*
X133433333Y-140530414D02*
X133338095Y-140578033D01*
X134766666Y-140625652D02*
X134766666Y-141292319D01*
X134528571Y-140244700D02*
X134290476Y-140958985D01*
X134290476Y-140958985D02*
X134909523Y-140958985D01*
X109804819Y-154642857D02*
X109328628Y-154976190D01*
X109804819Y-155214285D02*
X108804819Y-155214285D01*
X108804819Y-155214285D02*
X108804819Y-154833333D01*
X108804819Y-154833333D02*
X108852438Y-154738095D01*
X108852438Y-154738095D02*
X108900057Y-154690476D01*
X108900057Y-154690476D02*
X108995295Y-154642857D01*
X108995295Y-154642857D02*
X109138152Y-154642857D01*
X109138152Y-154642857D02*
X109233390Y-154690476D01*
X109233390Y-154690476D02*
X109281009Y-154738095D01*
X109281009Y-154738095D02*
X109328628Y-154833333D01*
X109328628Y-154833333D02*
X109328628Y-155214285D01*
X108900057Y-154261904D02*
X108852438Y-154214285D01*
X108852438Y-154214285D02*
X108804819Y-154119047D01*
X108804819Y-154119047D02*
X108804819Y-153880952D01*
X108804819Y-153880952D02*
X108852438Y-153785714D01*
X108852438Y-153785714D02*
X108900057Y-153738095D01*
X108900057Y-153738095D02*
X108995295Y-153690476D01*
X108995295Y-153690476D02*
X109090533Y-153690476D01*
X109090533Y-153690476D02*
X109233390Y-153738095D01*
X109233390Y-153738095D02*
X109804819Y-154309523D01*
X109804819Y-154309523D02*
X109804819Y-153690476D01*
X109804819Y-153214285D02*
X109804819Y-153023809D01*
X109804819Y-153023809D02*
X109757200Y-152928571D01*
X109757200Y-152928571D02*
X109709580Y-152880952D01*
X109709580Y-152880952D02*
X109566723Y-152785714D01*
X109566723Y-152785714D02*
X109376247Y-152738095D01*
X109376247Y-152738095D02*
X108995295Y-152738095D01*
X108995295Y-152738095D02*
X108900057Y-152785714D01*
X108900057Y-152785714D02*
X108852438Y-152833333D01*
X108852438Y-152833333D02*
X108804819Y-152928571D01*
X108804819Y-152928571D02*
X108804819Y-153119047D01*
X108804819Y-153119047D02*
X108852438Y-153214285D01*
X108852438Y-153214285D02*
X108900057Y-153261904D01*
X108900057Y-153261904D02*
X108995295Y-153309523D01*
X108995295Y-153309523D02*
X109233390Y-153309523D01*
X109233390Y-153309523D02*
X109328628Y-153261904D01*
X109328628Y-153261904D02*
X109376247Y-153214285D01*
X109376247Y-153214285D02*
X109423866Y-153119047D01*
X109423866Y-153119047D02*
X109423866Y-152928571D01*
X109423866Y-152928571D02*
X109376247Y-152833333D01*
X109376247Y-152833333D02*
X109328628Y-152785714D01*
X109328628Y-152785714D02*
X109233390Y-152738095D01*
X108923214Y-127854819D02*
X108923214Y-126854819D01*
X108923214Y-126854819D02*
X109161309Y-126854819D01*
X109161309Y-126854819D02*
X109304166Y-126902438D01*
X109304166Y-126902438D02*
X109399404Y-126997676D01*
X109399404Y-126997676D02*
X109447023Y-127092914D01*
X109447023Y-127092914D02*
X109494642Y-127283390D01*
X109494642Y-127283390D02*
X109494642Y-127426247D01*
X109494642Y-127426247D02*
X109447023Y-127616723D01*
X109447023Y-127616723D02*
X109399404Y-127711961D01*
X109399404Y-127711961D02*
X109304166Y-127807200D01*
X109304166Y-127807200D02*
X109161309Y-127854819D01*
X109161309Y-127854819D02*
X108923214Y-127854819D01*
X110447023Y-127854819D02*
X109875595Y-127854819D01*
X110161309Y-127854819D02*
X110161309Y-126854819D01*
X110161309Y-126854819D02*
X110066071Y-126997676D01*
X110066071Y-126997676D02*
X109970833Y-127092914D01*
X109970833Y-127092914D02*
X109875595Y-127140533D01*
X111399404Y-127854819D02*
X110827976Y-127854819D01*
X111113690Y-127854819D02*
X111113690Y-126854819D01*
X111113690Y-126854819D02*
X111018452Y-126997676D01*
X111018452Y-126997676D02*
X110923214Y-127092914D01*
X110923214Y-127092914D02*
X110827976Y-127140533D01*
X112804819Y-129555357D02*
X112328628Y-129888690D01*
X112804819Y-130126785D02*
X111804819Y-130126785D01*
X111804819Y-130126785D02*
X111804819Y-129745833D01*
X111804819Y-129745833D02*
X111852438Y-129650595D01*
X111852438Y-129650595D02*
X111900057Y-129602976D01*
X111900057Y-129602976D02*
X111995295Y-129555357D01*
X111995295Y-129555357D02*
X112138152Y-129555357D01*
X112138152Y-129555357D02*
X112233390Y-129602976D01*
X112233390Y-129602976D02*
X112281009Y-129650595D01*
X112281009Y-129650595D02*
X112328628Y-129745833D01*
X112328628Y-129745833D02*
X112328628Y-130126785D01*
X111804819Y-129222023D02*
X111804819Y-128602976D01*
X111804819Y-128602976D02*
X112185771Y-128936309D01*
X112185771Y-128936309D02*
X112185771Y-128793452D01*
X112185771Y-128793452D02*
X112233390Y-128698214D01*
X112233390Y-128698214D02*
X112281009Y-128650595D01*
X112281009Y-128650595D02*
X112376247Y-128602976D01*
X112376247Y-128602976D02*
X112614342Y-128602976D01*
X112614342Y-128602976D02*
X112709580Y-128650595D01*
X112709580Y-128650595D02*
X112757200Y-128698214D01*
X112757200Y-128698214D02*
X112804819Y-128793452D01*
X112804819Y-128793452D02*
X112804819Y-129079166D01*
X112804819Y-129079166D02*
X112757200Y-129174404D01*
X112757200Y-129174404D02*
X112709580Y-129222023D01*
X111804819Y-127698214D02*
X111804819Y-128174404D01*
X111804819Y-128174404D02*
X112281009Y-128222023D01*
X112281009Y-128222023D02*
X112233390Y-128174404D01*
X112233390Y-128174404D02*
X112185771Y-128079166D01*
X112185771Y-128079166D02*
X112185771Y-127841071D01*
X112185771Y-127841071D02*
X112233390Y-127745833D01*
X112233390Y-127745833D02*
X112281009Y-127698214D01*
X112281009Y-127698214D02*
X112376247Y-127650595D01*
X112376247Y-127650595D02*
X112614342Y-127650595D01*
X112614342Y-127650595D02*
X112709580Y-127698214D01*
X112709580Y-127698214D02*
X112757200Y-127745833D01*
X112757200Y-127745833D02*
X112804819Y-127841071D01*
X112804819Y-127841071D02*
X112804819Y-128079166D01*
X112804819Y-128079166D02*
X112757200Y-128174404D01*
X112757200Y-128174404D02*
X112709580Y-128222023D01*
X132883333Y-134867080D02*
X132835714Y-134914700D01*
X132835714Y-134914700D02*
X132692857Y-134962319D01*
X132692857Y-134962319D02*
X132597619Y-134962319D01*
X132597619Y-134962319D02*
X132454762Y-134914700D01*
X132454762Y-134914700D02*
X132359524Y-134819461D01*
X132359524Y-134819461D02*
X132311905Y-134724223D01*
X132311905Y-134724223D02*
X132264286Y-134533747D01*
X132264286Y-134533747D02*
X132264286Y-134390890D01*
X132264286Y-134390890D02*
X132311905Y-134200414D01*
X132311905Y-134200414D02*
X132359524Y-134105176D01*
X132359524Y-134105176D02*
X132454762Y-134009938D01*
X132454762Y-134009938D02*
X132597619Y-133962319D01*
X132597619Y-133962319D02*
X132692857Y-133962319D01*
X132692857Y-133962319D02*
X132835714Y-134009938D01*
X132835714Y-134009938D02*
X132883333Y-134057557D01*
X133740476Y-133962319D02*
X133550000Y-133962319D01*
X133550000Y-133962319D02*
X133454762Y-134009938D01*
X133454762Y-134009938D02*
X133407143Y-134057557D01*
X133407143Y-134057557D02*
X133311905Y-134200414D01*
X133311905Y-134200414D02*
X133264286Y-134390890D01*
X133264286Y-134390890D02*
X133264286Y-134771842D01*
X133264286Y-134771842D02*
X133311905Y-134867080D01*
X133311905Y-134867080D02*
X133359524Y-134914700D01*
X133359524Y-134914700D02*
X133454762Y-134962319D01*
X133454762Y-134962319D02*
X133645238Y-134962319D01*
X133645238Y-134962319D02*
X133740476Y-134914700D01*
X133740476Y-134914700D02*
X133788095Y-134867080D01*
X133788095Y-134867080D02*
X133835714Y-134771842D01*
X133835714Y-134771842D02*
X133835714Y-134533747D01*
X133835714Y-134533747D02*
X133788095Y-134438509D01*
X133788095Y-134438509D02*
X133740476Y-134390890D01*
X133740476Y-134390890D02*
X133645238Y-134343271D01*
X133645238Y-134343271D02*
X133454762Y-134343271D01*
X133454762Y-134343271D02*
X133359524Y-134390890D01*
X133359524Y-134390890D02*
X133311905Y-134438509D01*
X133311905Y-134438509D02*
X133264286Y-134533747D01*
X108715476Y-106129819D02*
X108715476Y-106844104D01*
X108715476Y-106844104D02*
X108667857Y-106986961D01*
X108667857Y-106986961D02*
X108572619Y-107082200D01*
X108572619Y-107082200D02*
X108429762Y-107129819D01*
X108429762Y-107129819D02*
X108334524Y-107129819D01*
X109715476Y-107129819D02*
X109144048Y-107129819D01*
X109429762Y-107129819D02*
X109429762Y-106129819D01*
X109429762Y-106129819D02*
X109334524Y-106272676D01*
X109334524Y-106272676D02*
X109239286Y-106367914D01*
X109239286Y-106367914D02*
X109144048Y-106415533D01*
X110667857Y-107129819D02*
X110096429Y-107129819D01*
X110382143Y-107129819D02*
X110382143Y-106129819D01*
X110382143Y-106129819D02*
X110286905Y-106272676D01*
X110286905Y-106272676D02*
X110191667Y-106367914D01*
X110191667Y-106367914D02*
X110096429Y-106415533D01*
X104357142Y-142804819D02*
X104023809Y-142328628D01*
X103785714Y-142804819D02*
X103785714Y-141804819D01*
X103785714Y-141804819D02*
X104166666Y-141804819D01*
X104166666Y-141804819D02*
X104261904Y-141852438D01*
X104261904Y-141852438D02*
X104309523Y-141900057D01*
X104309523Y-141900057D02*
X104357142Y-141995295D01*
X104357142Y-141995295D02*
X104357142Y-142138152D01*
X104357142Y-142138152D02*
X104309523Y-142233390D01*
X104309523Y-142233390D02*
X104261904Y-142281009D01*
X104261904Y-142281009D02*
X104166666Y-142328628D01*
X104166666Y-142328628D02*
X103785714Y-142328628D01*
X105309523Y-142804819D02*
X104738095Y-142804819D01*
X105023809Y-142804819D02*
X105023809Y-141804819D01*
X105023809Y-141804819D02*
X104928571Y-141947676D01*
X104928571Y-141947676D02*
X104833333Y-142042914D01*
X104833333Y-142042914D02*
X104738095Y-142090533D01*
X105785714Y-142804819D02*
X105976190Y-142804819D01*
X105976190Y-142804819D02*
X106071428Y-142757200D01*
X106071428Y-142757200D02*
X106119047Y-142709580D01*
X106119047Y-142709580D02*
X106214285Y-142566723D01*
X106214285Y-142566723D02*
X106261904Y-142376247D01*
X106261904Y-142376247D02*
X106261904Y-141995295D01*
X106261904Y-141995295D02*
X106214285Y-141900057D01*
X106214285Y-141900057D02*
X106166666Y-141852438D01*
X106166666Y-141852438D02*
X106071428Y-141804819D01*
X106071428Y-141804819D02*
X105880952Y-141804819D01*
X105880952Y-141804819D02*
X105785714Y-141852438D01*
X105785714Y-141852438D02*
X105738095Y-141900057D01*
X105738095Y-141900057D02*
X105690476Y-141995295D01*
X105690476Y-141995295D02*
X105690476Y-142233390D01*
X105690476Y-142233390D02*
X105738095Y-142328628D01*
X105738095Y-142328628D02*
X105785714Y-142376247D01*
X105785714Y-142376247D02*
X105880952Y-142423866D01*
X105880952Y-142423866D02*
X106071428Y-142423866D01*
X106071428Y-142423866D02*
X106166666Y-142376247D01*
X106166666Y-142376247D02*
X106214285Y-142328628D01*
X106214285Y-142328628D02*
X106261904Y-142233390D01*
X114044819Y-163333333D02*
X114759104Y-163333333D01*
X114759104Y-163333333D02*
X114901961Y-163380952D01*
X114901961Y-163380952D02*
X114997200Y-163476190D01*
X114997200Y-163476190D02*
X115044819Y-163619047D01*
X115044819Y-163619047D02*
X115044819Y-163714285D01*
X114140057Y-162904761D02*
X114092438Y-162857142D01*
X114092438Y-162857142D02*
X114044819Y-162761904D01*
X114044819Y-162761904D02*
X114044819Y-162523809D01*
X114044819Y-162523809D02*
X114092438Y-162428571D01*
X114092438Y-162428571D02*
X114140057Y-162380952D01*
X114140057Y-162380952D02*
X114235295Y-162333333D01*
X114235295Y-162333333D02*
X114330533Y-162333333D01*
X114330533Y-162333333D02*
X114473390Y-162380952D01*
X114473390Y-162380952D02*
X115044819Y-162952380D01*
X115044819Y-162952380D02*
X115044819Y-162333333D01*
X112804819Y-125642857D02*
X112328628Y-125976190D01*
X112804819Y-126214285D02*
X111804819Y-126214285D01*
X111804819Y-126214285D02*
X111804819Y-125833333D01*
X111804819Y-125833333D02*
X111852438Y-125738095D01*
X111852438Y-125738095D02*
X111900057Y-125690476D01*
X111900057Y-125690476D02*
X111995295Y-125642857D01*
X111995295Y-125642857D02*
X112138152Y-125642857D01*
X112138152Y-125642857D02*
X112233390Y-125690476D01*
X112233390Y-125690476D02*
X112281009Y-125738095D01*
X112281009Y-125738095D02*
X112328628Y-125833333D01*
X112328628Y-125833333D02*
X112328628Y-126214285D01*
X111804819Y-125309523D02*
X111804819Y-124690476D01*
X111804819Y-124690476D02*
X112185771Y-125023809D01*
X112185771Y-125023809D02*
X112185771Y-124880952D01*
X112185771Y-124880952D02*
X112233390Y-124785714D01*
X112233390Y-124785714D02*
X112281009Y-124738095D01*
X112281009Y-124738095D02*
X112376247Y-124690476D01*
X112376247Y-124690476D02*
X112614342Y-124690476D01*
X112614342Y-124690476D02*
X112709580Y-124738095D01*
X112709580Y-124738095D02*
X112757200Y-124785714D01*
X112757200Y-124785714D02*
X112804819Y-124880952D01*
X112804819Y-124880952D02*
X112804819Y-125166666D01*
X112804819Y-125166666D02*
X112757200Y-125261904D01*
X112757200Y-125261904D02*
X112709580Y-125309523D01*
X112138152Y-123833333D02*
X112804819Y-123833333D01*
X111757200Y-124071428D02*
X112471485Y-124309523D01*
X112471485Y-124309523D02*
X112471485Y-123690476D01*
X151039580Y-146166666D02*
X151087200Y-146214285D01*
X151087200Y-146214285D02*
X151134819Y-146357142D01*
X151134819Y-146357142D02*
X151134819Y-146452380D01*
X151134819Y-146452380D02*
X151087200Y-146595237D01*
X151087200Y-146595237D02*
X150991961Y-146690475D01*
X150991961Y-146690475D02*
X150896723Y-146738094D01*
X150896723Y-146738094D02*
X150706247Y-146785713D01*
X150706247Y-146785713D02*
X150563390Y-146785713D01*
X150563390Y-146785713D02*
X150372914Y-146738094D01*
X150372914Y-146738094D02*
X150277676Y-146690475D01*
X150277676Y-146690475D02*
X150182438Y-146595237D01*
X150182438Y-146595237D02*
X150134819Y-146452380D01*
X150134819Y-146452380D02*
X150134819Y-146357142D01*
X150134819Y-146357142D02*
X150182438Y-146214285D01*
X150182438Y-146214285D02*
X150230057Y-146166666D01*
X151134819Y-145214285D02*
X151134819Y-145785713D01*
X151134819Y-145499999D02*
X150134819Y-145499999D01*
X150134819Y-145499999D02*
X150277676Y-145595237D01*
X150277676Y-145595237D02*
X150372914Y-145690475D01*
X150372914Y-145690475D02*
X150420533Y-145785713D01*
X104357142Y-145804819D02*
X104023809Y-145328628D01*
X103785714Y-145804819D02*
X103785714Y-144804819D01*
X103785714Y-144804819D02*
X104166666Y-144804819D01*
X104166666Y-144804819D02*
X104261904Y-144852438D01*
X104261904Y-144852438D02*
X104309523Y-144900057D01*
X104309523Y-144900057D02*
X104357142Y-144995295D01*
X104357142Y-144995295D02*
X104357142Y-145138152D01*
X104357142Y-145138152D02*
X104309523Y-145233390D01*
X104309523Y-145233390D02*
X104261904Y-145281009D01*
X104261904Y-145281009D02*
X104166666Y-145328628D01*
X104166666Y-145328628D02*
X103785714Y-145328628D01*
X105309523Y-145804819D02*
X104738095Y-145804819D01*
X105023809Y-145804819D02*
X105023809Y-144804819D01*
X105023809Y-144804819D02*
X104928571Y-144947676D01*
X104928571Y-144947676D02*
X104833333Y-145042914D01*
X104833333Y-145042914D02*
X104738095Y-145090533D01*
X106166666Y-144804819D02*
X105976190Y-144804819D01*
X105976190Y-144804819D02*
X105880952Y-144852438D01*
X105880952Y-144852438D02*
X105833333Y-144900057D01*
X105833333Y-144900057D02*
X105738095Y-145042914D01*
X105738095Y-145042914D02*
X105690476Y-145233390D01*
X105690476Y-145233390D02*
X105690476Y-145614342D01*
X105690476Y-145614342D02*
X105738095Y-145709580D01*
X105738095Y-145709580D02*
X105785714Y-145757200D01*
X105785714Y-145757200D02*
X105880952Y-145804819D01*
X105880952Y-145804819D02*
X106071428Y-145804819D01*
X106071428Y-145804819D02*
X106166666Y-145757200D01*
X106166666Y-145757200D02*
X106214285Y-145709580D01*
X106214285Y-145709580D02*
X106261904Y-145614342D01*
X106261904Y-145614342D02*
X106261904Y-145376247D01*
X106261904Y-145376247D02*
X106214285Y-145281009D01*
X106214285Y-145281009D02*
X106166666Y-145233390D01*
X106166666Y-145233390D02*
X106071428Y-145185771D01*
X106071428Y-145185771D02*
X105880952Y-145185771D01*
X105880952Y-145185771D02*
X105785714Y-145233390D01*
X105785714Y-145233390D02*
X105738095Y-145281009D01*
X105738095Y-145281009D02*
X105690476Y-145376247D01*
D11*
%TO.C,J13*%
X95670000Y-128970000D02*
X97000000Y-128970000D01*
X95670000Y-130300000D02*
X95670000Y-128970000D01*
X95670000Y-131570000D02*
X95670000Y-144330000D01*
X95670000Y-131570000D02*
X98270000Y-131570000D01*
X95670000Y-144330000D02*
X100870000Y-144330000D01*
X98270000Y-128970000D02*
X100870000Y-128970000D01*
X98270000Y-131570000D02*
X98270000Y-128970000D01*
X100870000Y-128970000D02*
X100870000Y-144330000D01*
%TO.C,C3*%
X143735000Y-130688748D02*
X143735000Y-131211252D01*
X142265000Y-130688748D02*
X142265000Y-131211252D01*
%TO.C,R7*%
X123265000Y-149239564D02*
X123265000Y-148785436D01*
X124735000Y-149239564D02*
X124735000Y-148785436D01*
%TO.C,D3*%
X126560000Y-153862500D02*
X126560000Y-153062500D01*
X126560000Y-153862500D02*
X126560000Y-154662500D01*
X123440000Y-153862500D02*
X123440000Y-153062500D01*
X123440000Y-153862500D02*
X123440000Y-154662500D01*
X126840000Y-152802500D02*
X126510000Y-152562500D01*
X126840000Y-152322500D01*
X126840000Y-152802500D01*
G36*
X126840000Y-152802500D02*
G01*
X126510000Y-152562500D01*
X126840000Y-152322500D01*
X126840000Y-152802500D01*
G37*
%TO.C,C8*%
X126735000Y-118738748D02*
X126735000Y-119261252D01*
X125265000Y-118738748D02*
X125265000Y-119261252D01*
%TO.C,R20*%
X104772936Y-134265000D02*
X105227064Y-134265000D01*
X104772936Y-135735000D02*
X105227064Y-135735000D01*
%TO.C,R10*%
X117735000Y-153685436D02*
X117735000Y-154139564D01*
X116265000Y-153685436D02*
X116265000Y-154139564D01*
%TO.C,R27*%
X114735000Y-120772936D02*
X114735000Y-121227064D01*
X113265000Y-120772936D02*
X113265000Y-121227064D01*
%TO.C,R6*%
X127735000Y-148772936D02*
X127735000Y-149227064D01*
X126265000Y-148772936D02*
X126265000Y-149227064D01*
%TO.C,U1*%
X123427500Y-138360000D02*
X123192500Y-138360000D01*
X128172500Y-138360000D02*
X127697500Y-138360000D01*
X122952500Y-137885000D02*
X122952500Y-138060000D01*
X128172500Y-137885000D02*
X128172500Y-138360000D01*
X122952500Y-133615000D02*
X122952500Y-133140000D01*
X128172500Y-133615000D02*
X128172500Y-133140000D01*
X122952500Y-133140000D02*
X123427500Y-133140000D01*
X128172500Y-133140000D02*
X127697500Y-133140000D01*
X122952500Y-138360000D02*
X122622500Y-138600000D01*
X122622500Y-138120000D01*
X122952500Y-138360000D01*
G36*
X122952500Y-138360000D02*
G01*
X122622500Y-138600000D01*
X122622500Y-138120000D01*
X122952500Y-138360000D01*
G37*
%TO.C,C12*%
X128735000Y-141926248D02*
X128735000Y-142448752D01*
X127265000Y-141926248D02*
X127265000Y-142448752D01*
%TO.C,R2*%
X146735000Y-149772936D02*
X146735000Y-150227064D01*
X145265000Y-149772936D02*
X145265000Y-150227064D01*
%TO.C,C10*%
X129738748Y-129065000D02*
X130261252Y-129065000D01*
X129738748Y-130535000D02*
X130261252Y-130535000D01*
%TO.C,C4*%
X133340000Y-118804437D02*
X133340000Y-121690000D01*
X133340000Y-118804437D02*
X134404437Y-117740000D01*
X133340000Y-127195563D02*
X133340000Y-124310000D01*
X133340000Y-127195563D02*
X134404437Y-128260000D01*
X134404437Y-117740000D02*
X143860000Y-117740000D01*
X134404437Y-128260000D02*
X143860000Y-128260000D01*
X143860000Y-117740000D02*
X143860000Y-121690000D01*
X143860000Y-128260000D02*
X143860000Y-124310000D01*
%TO.C,R12*%
X143265000Y-138139564D02*
X143265000Y-137685436D01*
X144735000Y-138139564D02*
X144735000Y-137685436D01*
%TO.C,R24*%
X104772936Y-125265000D02*
X105227064Y-125265000D01*
X104772936Y-126735000D02*
X105227064Y-126735000D01*
%TO.C,R22*%
X104772936Y-128265000D02*
X105227064Y-128265000D01*
X104772936Y-129735000D02*
X105227064Y-129735000D01*
%TO.C,D12*%
X110137500Y-130560000D02*
X110937500Y-130560000D01*
X110137500Y-130560000D02*
X109337500Y-130560000D01*
X110137500Y-127440000D02*
X110937500Y-127440000D01*
X110137500Y-127440000D02*
X109337500Y-127440000D01*
X111677500Y-130840000D02*
X111197500Y-130840000D01*
X111437500Y-130510000D01*
X111677500Y-130840000D01*
G36*
X111677500Y-130840000D02*
G01*
X111197500Y-130840000D01*
X111437500Y-130510000D01*
X111677500Y-130840000D01*
G37*
%TO.C,R9*%
X143265000Y-142314564D02*
X143265000Y-141860436D01*
X144735000Y-142314564D02*
X144735000Y-141860436D01*
%TO.C,R31*%
X113265000Y-145227064D02*
X113265000Y-144772936D01*
X114735000Y-145227064D02*
X114735000Y-144772936D01*
%TO.C,C13*%
X121311252Y-130922500D02*
X120788748Y-130922500D01*
X121311252Y-129452500D02*
X120788748Y-129452500D01*
%TO.C,C11*%
X130735000Y-118688748D02*
X130735000Y-119211252D01*
X129265000Y-118688748D02*
X129265000Y-119211252D01*
%TO.C,R3*%
X127265000Y-158314564D02*
X127265000Y-157860436D01*
X128735000Y-158314564D02*
X128735000Y-157860436D01*
%TO.C,R26*%
X114735000Y-148860436D02*
X114735000Y-149314564D01*
X113265000Y-148860436D02*
X113265000Y-149314564D01*
%TO.C,C14*%
X122735000Y-118738748D02*
X122735000Y-119261252D01*
X121265000Y-118738748D02*
X121265000Y-119261252D01*
%TO.C,D10*%
X110137500Y-138560000D02*
X110937500Y-138560000D01*
X110137500Y-138560000D02*
X109337500Y-138560000D01*
X110137500Y-135440000D02*
X110937500Y-135440000D01*
X110137500Y-135440000D02*
X109337500Y-135440000D01*
X111677500Y-138840000D02*
X111197500Y-138840000D01*
X111437500Y-138510000D01*
X111677500Y-138840000D01*
G36*
X111677500Y-138840000D02*
G01*
X111197500Y-138840000D01*
X111437500Y-138510000D01*
X111677500Y-138840000D01*
G37*
%TO.C,D2*%
X130560000Y-153862500D02*
X130560000Y-153062500D01*
X130560000Y-153862500D02*
X130560000Y-154662500D01*
X127440000Y-153862500D02*
X127440000Y-153062500D01*
X127440000Y-153862500D02*
X127440000Y-154662500D01*
X130840000Y-152802500D02*
X130510000Y-152562500D01*
X130840000Y-152322500D01*
X130840000Y-152802500D01*
G36*
X130840000Y-152802500D02*
G01*
X130510000Y-152562500D01*
X130840000Y-152322500D01*
X130840000Y-152802500D01*
G37*
%TO.C,R18*%
X104772936Y-140265000D02*
X105227064Y-140265000D01*
X104772936Y-141735000D02*
X105227064Y-141735000D01*
%TO.C,J4*%
X114780000Y-115956000D02*
X114780000Y-106035000D01*
X135220000Y-115956000D02*
X114780000Y-115956000D01*
X135220000Y-115956000D02*
X135220000Y-106035000D01*
X135220000Y-112996000D02*
X114780000Y-112996000D01*
X116310000Y-111970000D02*
X116345000Y-111934000D01*
X121390000Y-111970000D02*
X121425000Y-111934000D01*
X126470000Y-111970000D02*
X126505000Y-111934000D01*
X116105000Y-111764000D02*
X116152000Y-111718000D01*
X121185000Y-111764000D02*
X121232000Y-111718000D01*
X126265000Y-111764000D02*
X126312000Y-111718000D01*
X118607000Y-109672000D02*
X118654000Y-109626000D01*
X123687000Y-109672000D02*
X123734000Y-109626000D01*
X128767000Y-109672000D02*
X128814000Y-109626000D01*
X118414000Y-109456000D02*
X118449000Y-109421000D01*
X123494000Y-109456000D02*
X123529000Y-109421000D01*
X128574000Y-109456000D02*
X128609000Y-109421000D01*
X135220000Y-108095000D02*
X114780000Y-108095000D01*
X135220000Y-106595000D02*
X114780000Y-106595000D01*
X135460000Y-106535000D02*
X135460000Y-105795000D01*
X135220000Y-106035000D02*
X114780000Y-106035000D01*
X135460000Y-105795000D02*
X134960000Y-105795000D01*
X133303042Y-112230426D02*
G75*
G02*
X131936001Y-112229999I-683041J1535419D01*
G01*
X131084574Y-111378042D02*
G75*
G02*
X131085000Y-110011000I1535426J683042D01*
G01*
X134155426Y-110011958D02*
G75*
G02*
X134154999Y-111378999I-1535419J-683041D01*
G01*
X131936682Y-109160245D02*
G75*
G02*
X132620000Y-109015001I683318J-1534755D01*
G01*
X132591195Y-109014748D02*
G75*
G02*
X133304000Y-109160001I28806J-1680253D01*
G01*
X119060000Y-110695000D02*
G75*
G02*
X115700000Y-110695000I-1680000J0D01*
G01*
X115700000Y-110695000D02*
G75*
G02*
X119060000Y-110695000I1680000J0D01*
G01*
X124140000Y-110695000D02*
G75*
G02*
X120780000Y-110695000I-1680000J0D01*
G01*
X120780000Y-110695000D02*
G75*
G02*
X124140000Y-110695000I1680000J0D01*
G01*
X129220000Y-110695000D02*
G75*
G02*
X125860000Y-110695000I-1680000J0D01*
G01*
X125860000Y-110695000D02*
G75*
G02*
X129220000Y-110695000I1680000J0D01*
G01*
%TO.C,C7*%
X143195563Y-145140000D02*
X140310000Y-145140000D01*
X143195563Y-145140000D02*
X144260000Y-146204437D01*
X134804437Y-145140000D02*
X137690000Y-145140000D01*
X134804437Y-145140000D02*
X133740000Y-146204437D01*
X144260000Y-146204437D02*
X144260000Y-155660000D01*
X133740000Y-146204437D02*
X133740000Y-155660000D01*
X144260000Y-155660000D02*
X140310000Y-155660000D01*
X133740000Y-155660000D02*
X137690000Y-155660000D01*
%TO.C,R33*%
X113265000Y-137139564D02*
X113265000Y-136685436D01*
X114735000Y-137139564D02*
X114735000Y-136685436D01*
%TO.C,C15*%
X118735000Y-118738748D02*
X118735000Y-119261252D01*
X117265000Y-118738748D02*
X117265000Y-119261252D01*
%TO.C,D1*%
X147862500Y-140440000D02*
X147062500Y-140440000D01*
X147862500Y-140440000D02*
X148662500Y-140440000D01*
X147862500Y-143560000D02*
X147062500Y-143560000D01*
X147862500Y-143560000D02*
X148662500Y-143560000D01*
X146562500Y-140490000D02*
X146322500Y-140160000D01*
X146802500Y-140160000D01*
X146562500Y-140490000D01*
G36*
X146562500Y-140490000D02*
G01*
X146322500Y-140160000D01*
X146802500Y-140160000D01*
X146562500Y-140490000D01*
G37*
%TO.C,D13*%
X110137500Y-122560000D02*
X110937500Y-122560000D01*
X110137500Y-122560000D02*
X109337500Y-122560000D01*
X110137500Y-119440000D02*
X110937500Y-119440000D01*
X110137500Y-119440000D02*
X109337500Y-119440000D01*
X111677500Y-122840000D02*
X111197500Y-122840000D01*
X111437500Y-122510000D01*
X111677500Y-122840000D01*
G36*
X111677500Y-122840000D02*
G01*
X111197500Y-122840000D01*
X111437500Y-122510000D01*
X111677500Y-122840000D01*
G37*
%TO.C,R25*%
X105772936Y-122265000D02*
X106227064Y-122265000D01*
X105772936Y-123735000D02*
X106227064Y-123735000D01*
%TO.C,R4*%
X124265000Y-158314564D02*
X124265000Y-157860436D01*
X125735000Y-158314564D02*
X125735000Y-157860436D01*
%TO.C,R11*%
X114735000Y-153685436D02*
X114735000Y-154139564D01*
X113265000Y-153685436D02*
X113265000Y-154139564D01*
%TO.C,R17*%
X105772936Y-149265000D02*
X106227064Y-149265000D01*
X105772936Y-150735000D02*
X106227064Y-150735000D01*
%TO.C,D6*%
X107137500Y-155560000D02*
X107937500Y-155560000D01*
X107137500Y-155560000D02*
X106337500Y-155560000D01*
X107137500Y-152440000D02*
X107937500Y-152440000D01*
X107137500Y-152440000D02*
X106337500Y-152440000D01*
X108677500Y-155840000D02*
X108197500Y-155840000D01*
X108437500Y-155510000D01*
X108677500Y-155840000D01*
G36*
X108677500Y-155840000D02*
G01*
X108197500Y-155840000D01*
X108437500Y-155510000D01*
X108677500Y-155840000D01*
G37*
%TO.C,D5*%
X110137500Y-150560000D02*
X110937500Y-150560000D01*
X110137500Y-150560000D02*
X109337500Y-150560000D01*
X110137500Y-147440000D02*
X110937500Y-147440000D01*
X110137500Y-147440000D02*
X109337500Y-147440000D01*
X111677500Y-150840000D02*
X111197500Y-150840000D01*
X111437500Y-150510000D01*
X111677500Y-150840000D01*
G36*
X111677500Y-150840000D02*
G01*
X111197500Y-150840000D01*
X111437500Y-150510000D01*
X111677500Y-150840000D01*
G37*
%TO.C,D8*%
X110137500Y-146560000D02*
X110937500Y-146560000D01*
X110137500Y-146560000D02*
X109337500Y-146560000D01*
X110137500Y-143440000D02*
X110937500Y-143440000D01*
X110137500Y-143440000D02*
X109337500Y-143440000D01*
X111677500Y-146840000D02*
X111197500Y-146840000D01*
X111437500Y-146510000D01*
X111677500Y-146840000D01*
G36*
X111677500Y-146840000D02*
G01*
X111197500Y-146840000D01*
X111437500Y-146510000D01*
X111677500Y-146840000D01*
G37*
%TO.C,R15*%
X121265000Y-142414564D02*
X121265000Y-141960436D01*
X122735000Y-142414564D02*
X122735000Y-141960436D01*
%TO.C,C5*%
X132738748Y-132452500D02*
X133261252Y-132452500D01*
X132738748Y-133922500D02*
X133261252Y-133922500D01*
%TO.C,C9*%
X125735000Y-141926248D02*
X125735000Y-142448752D01*
X124265000Y-141926248D02*
X124265000Y-142448752D01*
%TO.C,R32*%
X113265000Y-133227064D02*
X113265000Y-132772936D01*
X114735000Y-133227064D02*
X114735000Y-132772936D01*
%TO.C,C2*%
X118211252Y-159735000D02*
X117688748Y-159735000D01*
X118211252Y-158265000D02*
X117688748Y-158265000D01*
%TO.C,Q1*%
X131062500Y-147440000D02*
X130412500Y-147440000D01*
X131062500Y-147440000D02*
X131712500Y-147440000D01*
X131062500Y-150560000D02*
X130412500Y-150560000D01*
X131062500Y-150560000D02*
X131712500Y-150560000D01*
X129900000Y-147490000D02*
X129660000Y-147160000D01*
X130140000Y-147160000D01*
X129900000Y-147490000D01*
G36*
X129900000Y-147490000D02*
G01*
X129660000Y-147160000D01*
X130140000Y-147160000D01*
X129900000Y-147490000D01*
G37*
%TO.C,D4*%
X122560000Y-153862500D02*
X122560000Y-153062500D01*
X122560000Y-153862500D02*
X122560000Y-154662500D01*
X119440000Y-153862500D02*
X119440000Y-153062500D01*
X119440000Y-153862500D02*
X119440000Y-154662500D01*
X122840000Y-152802500D02*
X122510000Y-152562500D01*
X122840000Y-152322500D01*
X122840000Y-152802500D01*
G36*
X122840000Y-152802500D02*
G01*
X122510000Y-152562500D01*
X122840000Y-152322500D01*
X122840000Y-152802500D01*
G37*
%TO.C,R13*%
X133814564Y-142935000D02*
X133360436Y-142935000D01*
X133814564Y-141465000D02*
X133360436Y-141465000D01*
%TO.C,C16*%
X98261252Y-125735000D02*
X97738748Y-125735000D01*
X98261252Y-124265000D02*
X97738748Y-124265000D01*
%TO.C,J3*%
X155160000Y-135840000D02*
X155900000Y-135840000D01*
X155900000Y-135840000D02*
X155900000Y-135340000D01*
X145739000Y-135600000D02*
X155660000Y-135600000D01*
X145739000Y-135600000D02*
X145739000Y-125320000D01*
X148699000Y-135600000D02*
X148699000Y-125320000D01*
X153600000Y-135600000D02*
X153600000Y-125320000D01*
X155100000Y-135600000D02*
X155100000Y-125320000D01*
X155660000Y-135600000D02*
X155660000Y-125320000D01*
X152023000Y-129147000D02*
X152069000Y-129194000D01*
X152239000Y-128954000D02*
X152274000Y-128989000D01*
X149725000Y-126850000D02*
X149761000Y-126885000D01*
X149931000Y-126645000D02*
X149977000Y-126692000D01*
X145739000Y-125320000D02*
X155660000Y-125320000D01*
X151683042Y-134535426D02*
G75*
G02*
X150316001Y-134534999I-683041J1535419D01*
G01*
X149464574Y-133683042D02*
G75*
G02*
X149465001Y-132316001I1535419J683041D01*
G01*
X152680252Y-132971195D02*
G75*
G02*
X152534999Y-133684000I-1680253J-28806D01*
G01*
X152534755Y-132316682D02*
G75*
G02*
X152679999Y-133000000I-1534755J-683318D01*
G01*
X150316958Y-131464574D02*
G75*
G02*
X151684000Y-131465000I683042J-1535426D01*
G01*
X152680000Y-127920000D02*
G75*
G02*
X149320000Y-127920000I-1680000J0D01*
G01*
X149320000Y-127920000D02*
G75*
G02*
X152680000Y-127920000I1680000J0D01*
G01*
%TO.C,R23*%
X104772936Y-131265000D02*
X105227064Y-131265000D01*
X104772936Y-132735000D02*
X105227064Y-132735000D01*
%TO.C,J1*%
X154330000Y-146410000D02*
X153000000Y-146410000D01*
X154330000Y-145080000D02*
X154330000Y-146410000D01*
X154330000Y-143810000D02*
X154330000Y-138670000D01*
X154330000Y-143810000D02*
X151670000Y-143810000D01*
X154330000Y-138670000D02*
X151670000Y-138670000D01*
X151670000Y-143810000D02*
X151670000Y-138670000D01*
%TO.C,D7*%
X110137500Y-142560000D02*
X110937500Y-142560000D01*
X110137500Y-142560000D02*
X109337500Y-142560000D01*
X110137500Y-139440000D02*
X110937500Y-139440000D01*
X110137500Y-139440000D02*
X109337500Y-139440000D01*
X111677500Y-142840000D02*
X111197500Y-142840000D01*
X111437500Y-142510000D01*
X111677500Y-142840000D01*
G36*
X111677500Y-142840000D02*
G01*
X111197500Y-142840000D01*
X111437500Y-142510000D01*
X111677500Y-142840000D01*
G37*
%TO.C,R8*%
X146735000Y-145685436D02*
X146735000Y-146139564D01*
X145265000Y-145685436D02*
X145265000Y-146139564D01*
%TO.C,D9*%
X110137500Y-134560000D02*
X110937500Y-134560000D01*
X110137500Y-134560000D02*
X109337500Y-134560000D01*
X110137500Y-131440000D02*
X110937500Y-131440000D01*
X110137500Y-131440000D02*
X109337500Y-131440000D01*
X111677500Y-134840000D02*
X111197500Y-134840000D01*
X111437500Y-134510000D01*
X111677500Y-134840000D01*
G36*
X111677500Y-134840000D02*
G01*
X111197500Y-134840000D01*
X111437500Y-134510000D01*
X111677500Y-134840000D01*
G37*
%TO.C,R1*%
X148314564Y-139735000D02*
X147860436Y-139735000D01*
X148314564Y-138265000D02*
X147860436Y-138265000D01*
%TO.C,R21*%
X104772936Y-137265000D02*
X105227064Y-137265000D01*
X104772936Y-138735000D02*
X105227064Y-138735000D01*
%TO.C,R30*%
X113265000Y-141139564D02*
X113265000Y-140685436D01*
X114735000Y-141139564D02*
X114735000Y-140685436D01*
%TO.C,R5*%
X121265000Y-158227064D02*
X121265000Y-157772936D01*
X122735000Y-158227064D02*
X122735000Y-157772936D01*
%TO.C,D14*%
X107177500Y-120940000D02*
X106697500Y-120940000D01*
X106937500Y-120610000D01*
X107177500Y-120940000D01*
G36*
X107177500Y-120940000D02*
G01*
X106697500Y-120940000D01*
X106937500Y-120610000D01*
X107177500Y-120940000D01*
G37*
X105637500Y-117540000D02*
X104837500Y-117540000D01*
X105637500Y-117540000D02*
X106437500Y-117540000D01*
X105637500Y-120660000D02*
X104837500Y-120660000D01*
X105637500Y-120660000D02*
X106437500Y-120660000D01*
%TO.C,R28*%
X106027064Y-116235000D02*
X105572936Y-116235000D01*
X106027064Y-114765000D02*
X105572936Y-114765000D01*
%TO.C,R14*%
X133827064Y-139922500D02*
X133372936Y-139922500D01*
X133827064Y-138452500D02*
X133372936Y-138452500D01*
%TO.C,R29*%
X110265000Y-154227064D02*
X110265000Y-153772936D01*
X111735000Y-154227064D02*
X111735000Y-153772936D01*
%TO.C,D11*%
X110137500Y-126560000D02*
X110937500Y-126560000D01*
X110137500Y-126560000D02*
X109337500Y-126560000D01*
X110137500Y-123440000D02*
X110937500Y-123440000D01*
X110137500Y-123440000D02*
X109337500Y-123440000D01*
X111677500Y-126840000D02*
X111197500Y-126840000D01*
X111437500Y-126510000D01*
X111677500Y-126840000D01*
G36*
X111677500Y-126840000D02*
G01*
X111197500Y-126840000D01*
X111437500Y-126510000D01*
X111677500Y-126840000D01*
G37*
%TO.C,R35*%
X113265000Y-129139564D02*
X113265000Y-128685436D01*
X114735000Y-129139564D02*
X114735000Y-128685436D01*
%TO.C,C6*%
X132788748Y-135452500D02*
X133311252Y-135452500D01*
X132788748Y-136922500D02*
X133311252Y-136922500D01*
%TO.C,R19*%
X104772936Y-143265000D02*
X105227064Y-143265000D01*
X104772936Y-144735000D02*
X105227064Y-144735000D01*
%TO.C,J2*%
X115590000Y-164330000D02*
X115590000Y-163000000D01*
X116920000Y-164330000D02*
X115590000Y-164330000D01*
X118190000Y-164330000D02*
X128410000Y-164330000D01*
X118190000Y-164330000D02*
X118190000Y-161670000D01*
X128410000Y-164330000D02*
X128410000Y-161670000D01*
X118190000Y-161670000D02*
X128410000Y-161670000D01*
%TO.C,R34*%
X113265000Y-125227064D02*
X113265000Y-124772936D01*
X114735000Y-125227064D02*
X114735000Y-124772936D01*
%TO.C,C1*%
X149735000Y-145738748D02*
X149735000Y-146261252D01*
X148265000Y-145738748D02*
X148265000Y-146261252D01*
%TO.C,R16*%
X104772936Y-146265000D02*
X105227064Y-146265000D01*
X104772936Y-147735000D02*
X105227064Y-147735000D01*
%TD*%
M02*
