%TF.GenerationSoftware,KiCad,Pcbnew,8.0.1*%
%TF.CreationDate,2024-04-05T15:31:17-07:00*%
%TF.ProjectId,TMC2240Breakout,544d4332-3234-4304-9272-65616b6f7574,rev?*%
%TF.SameCoordinates,Original*%
%TF.FileFunction,Copper,L2,Bot*%
%TF.FilePolarity,Positive*%
%FSLAX46Y46*%
G04 Gerber Fmt 4.6, Leading zero omitted, Abs format (unit mm)*
G04 Created by KiCad (PCBNEW 8.0.1) date 2024-04-05 15:31:17*
%MOMM*%
%LPD*%
G01*
G04 APERTURE LIST*
%TA.AperFunction,ComponentPad*%
%ADD10R,1.700000X1.700000*%
%TD*%
%TA.AperFunction,ComponentPad*%
%ADD11O,1.700000X1.700000*%
%TD*%
%TA.AperFunction,HeatsinkPad*%
%ADD12C,0.500000*%
%TD*%
%TA.AperFunction,HeatsinkPad*%
%ADD13R,3.100000X3.100000*%
%TD*%
%TA.AperFunction,ComponentPad*%
%ADD14C,5.600000*%
%TD*%
%TA.AperFunction,ComponentPad*%
%ADD15R,2.600000X2.600000*%
%TD*%
%TA.AperFunction,ComponentPad*%
%ADD16C,2.600000*%
%TD*%
%TA.AperFunction,ViaPad*%
%ADD17C,1.000000*%
%TD*%
%TA.AperFunction,ViaPad*%
%ADD18C,0.700000*%
%TD*%
%TA.AperFunction,Conductor*%
%ADD19C,0.200000*%
%TD*%
%TA.AperFunction,Conductor*%
%ADD20C,1.000000*%
%TD*%
%TA.AperFunction,Conductor*%
%ADD21C,0.500000*%
%TD*%
G04 APERTURE END LIST*
D10*
%TO.P,J13,1,Pin_1*%
%TO.N,GND*%
X97000000Y-130300000D03*
D11*
%TO.P,J13,2,Pin_2*%
%TO.N,VDD*%
X99540000Y-130300000D03*
%TO.P,J13,3,Pin_3*%
%TO.N,Net-(J13-Pin_3)*%
X97000000Y-132840000D03*
%TO.P,J13,4,Pin_4*%
%TO.N,Net-(J13-Pin_4)*%
X99540000Y-132840000D03*
%TO.P,J13,5,Pin_5*%
%TO.N,Net-(J13-Pin_5)*%
X97000000Y-135380000D03*
%TO.P,J13,6,Pin_6*%
%TO.N,Net-(J13-Pin_6)*%
X99540000Y-135380000D03*
%TO.P,J13,7,Pin_7*%
%TO.N,Net-(J13-Pin_7)*%
X97000000Y-137920000D03*
%TO.P,J13,8,Pin_8*%
%TO.N,Net-(J13-Pin_8)*%
X99540000Y-137920000D03*
%TO.P,J13,9,Pin_9*%
%TO.N,Net-(J13-Pin_9)*%
X97000000Y-140460000D03*
%TO.P,J13,10,Pin_10*%
%TO.N,Net-(J13-Pin_10)*%
X99540000Y-140460000D03*
%TO.P,J13,11,Pin_11*%
%TO.N,Net-(J13-Pin_11)*%
X97000000Y-143000000D03*
%TO.P,J13,12,Pin_12*%
%TO.N,Net-(J13-Pin_12)*%
X99540000Y-143000000D03*
%TD*%
D12*
%TO.P,U1,33,GND*%
%TO.N,GND*%
X124262500Y-137050000D03*
X125562500Y-137050000D03*
X126862500Y-137050000D03*
X124262500Y-135750000D03*
X125562500Y-135750000D03*
D13*
X125562500Y-135750000D03*
D12*
X126862500Y-135750000D03*
X124262500Y-134450000D03*
X125562500Y-134450000D03*
X126862500Y-134450000D03*
%TD*%
D14*
%TO.P,J10,1,Pin_1*%
%TO.N,GND*%
X141275000Y-161275000D03*
%TD*%
%TO.P,J5,1,Pin_1*%
%TO.N,GND*%
X100000000Y-120000000D03*
%TD*%
%TO.P,J12,1,Pin_1*%
%TO.N,GND*%
X141275000Y-110475000D03*
%TD*%
%TO.P,J6,1,Pin_1*%
%TO.N,GND*%
X100000000Y-151750000D03*
%TD*%
D15*
%TO.P,J4,1,Pin_1*%
%TO.N,Net-(J4-Pin_1)*%
X132620000Y-110695000D03*
D16*
%TO.P,J4,2,Pin_2*%
%TO.N,Net-(J4-Pin_2)*%
X127540000Y-110695000D03*
%TO.P,J4,3,Pin_3*%
%TO.N,Net-(J4-Pin_3)*%
X122460000Y-110695000D03*
%TO.P,J4,4,Pin_4*%
%TO.N,Net-(J4-Pin_4)*%
X117380000Y-110695000D03*
%TD*%
D14*
%TO.P,J8,1,Pin_1*%
%TO.N,GND*%
X150800000Y-151750000D03*
%TD*%
%TO.P,J9,1,Pin_1*%
%TO.N,GND*%
X109525000Y-161275000D03*
%TD*%
%TO.P,J7,1,Pin_1*%
%TO.N,GND*%
X150800000Y-120000000D03*
%TD*%
D15*
%TO.P,J3,1,Pin_1*%
%TO.N,GND*%
X151000000Y-133000000D03*
D16*
%TO.P,J3,2,Pin_2*%
%TO.N,VCC*%
X151000000Y-127920000D03*
%TD*%
D10*
%TO.P,J1,1,Pin_1*%
%TO.N,GND*%
X153000000Y-145080000D03*
D11*
%TO.P,J1,2,Pin_2*%
%TO.N,/AINV*%
X153000000Y-142540000D03*
%TO.P,J1,3,Pin_3*%
%TO.N,Net-(J1-Pin_3)*%
X153000000Y-140000000D03*
%TD*%
D14*
%TO.P,J11,1,Pin_1*%
%TO.N,GND*%
X109525000Y-110475000D03*
%TD*%
D10*
%TO.P,J2,1,Pin_1*%
%TO.N,GND*%
X116920000Y-163000000D03*
D11*
%TO.P,J2,2,Pin_2*%
%TO.N,/ENCV*%
X119460000Y-163000000D03*
%TO.P,J2,3,Pin_3*%
%TO.N,Net-(J2-Pin_3)*%
X122000000Y-163000000D03*
%TO.P,J2,4,Pin_4*%
%TO.N,Net-(J2-Pin_4)*%
X124540000Y-163000000D03*
%TO.P,J2,5,Pin_5*%
%TO.N,Net-(J2-Pin_5)*%
X127080000Y-163000000D03*
%TD*%
D17*
%TO.N,GND*%
X115500000Y-115200000D03*
X132200000Y-115800000D03*
X128100000Y-115800000D03*
X124200000Y-115300000D03*
X119700000Y-115200000D03*
X131900000Y-157300000D03*
X135100000Y-148500000D03*
X140200000Y-149800000D03*
X144400000Y-144500000D03*
X131100000Y-128300000D03*
X121200000Y-126100000D03*
X126200000Y-124400000D03*
X123400000Y-131500000D03*
X127700000Y-131500000D03*
X101900000Y-146700000D03*
X130900000Y-123900000D03*
X150600000Y-141000000D03*
X142400000Y-146900000D03*
X139800000Y-137400000D03*
X139600000Y-125700000D03*
X135800000Y-127300000D03*
X133200000Y-145200000D03*
X122900000Y-146600000D03*
X118100000Y-150600000D03*
%TO.N,VDD*%
X125100000Y-148100000D03*
X120900000Y-148100000D03*
X115800000Y-155900000D03*
%TO.N,VCC*%
X141600000Y-140000000D03*
X141000000Y-134400000D03*
%TO.N,GND*%
X145900000Y-140300000D03*
X145700000Y-137800000D03*
%TO.N,VCC*%
X132000000Y-152500000D03*
X115200000Y-157600000D03*
%TO.N,VDD*%
X142700000Y-144800000D03*
X136100000Y-141500000D03*
%TO.N,GND*%
X122400000Y-151400000D03*
X125100000Y-151500000D03*
X130600000Y-154200000D03*
%TO.N,Net-(Q1-G)*%
X125600000Y-149925000D03*
X130500000Y-146900000D03*
%TO.N,/ENCV*%
X127900000Y-154300000D03*
X119700000Y-154000000D03*
X123400000Y-154000000D03*
%TO.N,GND*%
X109400000Y-130500000D03*
X109400000Y-135000000D03*
X109600000Y-138900000D03*
X109400000Y-142700000D03*
X109700000Y-146500000D03*
X108600000Y-150400000D03*
X133400000Y-120300000D03*
X129200000Y-121300000D03*
X126000000Y-121500000D03*
X122100000Y-121400000D03*
X118100000Y-121100000D03*
X110300000Y-116800000D03*
X107200000Y-121200000D03*
X110000000Y-122800000D03*
X110000000Y-126500000D03*
%TO.N,VDD*%
X109600000Y-151600000D03*
X112600000Y-147900000D03*
X112500000Y-143300000D03*
X112500000Y-139800000D03*
X112600000Y-135200000D03*
X112600000Y-131600000D03*
X112600000Y-127200000D03*
X112600000Y-123100000D03*
X112700000Y-120050000D03*
X108500000Y-118150000D03*
X99540000Y-126900000D03*
D18*
%TO.N,GND*%
X120300000Y-131700000D03*
X130451472Y-131251472D03*
%TO.N,VDD*%
X131500000Y-142600000D03*
%TO.N,/DigitalConnector/~{SLEEP}*%
X115900000Y-121000000D03*
X115900000Y-122900000D03*
%TO.N,/DigitalConnector/DIAG1*%
X116950000Y-125650000D03*
X132900000Y-128100000D03*
%TO.N,/DigitalConnector/DIAG0*%
X116500000Y-124087500D03*
X132300000Y-126700000D03*
X129600000Y-133300000D03*
X129700000Y-137100000D03*
%TO.N,/DigitalConnector/DIAG1*%
X130200000Y-136200000D03*
X130700000Y-133200000D03*
%TO.N,/DigitalConnector/~{DRV_EN}*%
X118700000Y-133100000D03*
X125600000Y-144700000D03*
X119500000Y-144700000D03*
X130140380Y-138578859D03*
%TO.N,/OV*%
X128100000Y-145700000D03*
X131359620Y-137940380D03*
%TO.N,VCC*%
X125500000Y-131100000D03*
X122100000Y-127600000D03*
X129000000Y-127500000D03*
X125500000Y-132000000D03*
%TO.N,/ENCA*%
X129050000Y-144300000D03*
X130396587Y-139729392D03*
%TO.N,/ENCB*%
X126900000Y-144600000D03*
X128300000Y-139300000D03*
%TO.N,/ENCN*%
X129700000Y-143500000D03*
X130350781Y-140899219D03*
%TO.N,GND*%
X126500000Y-141550000D03*
X126500000Y-143100000D03*
%TO.N,/DigitalConnector/~{CS}*%
X118100000Y-139500000D03*
X117700000Y-135300000D03*
%TO.N,/DigitalConnector/SCLK*%
X118800000Y-138700000D03*
X120400000Y-134850000D03*
%TO.N,/DigitalConnector/SDI*%
X116650000Y-139100000D03*
X119200000Y-136300000D03*
%TO.N,/DigitalConnector/SDO*%
X120300000Y-136300000D03*
X117300000Y-137800000D03*
%TD*%
D19*
%TO.N,/DigitalConnector/DIAG1*%
X132700000Y-128100000D02*
X132900000Y-128100000D01*
X119200000Y-123400000D02*
X128000000Y-123400000D01*
X116950000Y-125650000D02*
X119200000Y-123400000D01*
X128000000Y-123400000D02*
X132700000Y-128100000D01*
%TO.N,/DigitalConnector/DIAG0*%
X128100000Y-122700000D02*
X132100000Y-126700000D01*
X116500000Y-124087500D02*
X117887500Y-122700000D01*
X117887500Y-122700000D02*
X128100000Y-122700000D01*
X132100000Y-126700000D02*
X132300000Y-126700000D01*
D20*
%TO.N,GND*%
X122200000Y-147300000D02*
X122200000Y-151400000D01*
X122900000Y-146600000D02*
X122200000Y-147300000D01*
X122200000Y-145900000D02*
X122900000Y-146600000D01*
D19*
%TO.N,/DigitalConnector/SCLK*%
X121000000Y-136819240D02*
X119119240Y-138700000D01*
X121000000Y-135450000D02*
X121000000Y-136819240D01*
X120400000Y-134850000D02*
X121000000Y-135450000D01*
X119119240Y-138700000D02*
X118800000Y-138700000D01*
%TO.N,/DigitalConnector/SDO*%
X118800000Y-135300000D02*
X117300000Y-136800000D01*
X117300000Y-136800000D02*
X117300000Y-137800000D01*
X119300000Y-135300000D02*
X118800000Y-135300000D01*
X120300000Y-136300000D02*
X119300000Y-135300000D01*
%TO.N,/DigitalConnector/~{CS}*%
X117400000Y-140200000D02*
X118100000Y-139500000D01*
X116400000Y-140200000D02*
X117400000Y-140200000D01*
X115800000Y-139600000D02*
X116400000Y-140200000D01*
X115800000Y-137200000D02*
X115800000Y-139600000D01*
X117700000Y-135300000D02*
X115800000Y-137200000D01*
%TO.N,/DigitalConnector/SDI*%
X119200000Y-137100000D02*
X119200000Y-136300000D01*
X117200000Y-139100000D02*
X119200000Y-137100000D01*
X116650000Y-139100000D02*
X117200000Y-139100000D01*
%TO.N,/DigitalConnector/~{DRV_EN}*%
X115300000Y-136500000D02*
X118700000Y-133100000D01*
X115300000Y-140500000D02*
X115300000Y-136500000D01*
X119500000Y-144700000D02*
X115300000Y-140500000D01*
D20*
%TO.N,VDD*%
X136100000Y-141500000D02*
X139400000Y-141500000D01*
X135000000Y-142600000D02*
X134700000Y-142600000D01*
X139400000Y-141500000D02*
X142700000Y-144800000D01*
X136100000Y-141500000D02*
X135000000Y-142600000D01*
D21*
X132800000Y-142600000D02*
X134700000Y-142600000D01*
D20*
X131500000Y-142600000D02*
X134700000Y-142600000D01*
D21*
X131500000Y-142600000D02*
X132800000Y-142600000D01*
D20*
X132800000Y-142900000D02*
X132800000Y-142600000D01*
X127600000Y-148100000D02*
X132800000Y-142900000D01*
X125100000Y-148100000D02*
X127600000Y-148100000D01*
D21*
%TO.N,Net-(Q1-G)*%
X127875000Y-149925000D02*
X125600000Y-149925000D01*
X130500000Y-146900000D02*
X130500000Y-147300000D01*
X130500000Y-147300000D02*
X127875000Y-149925000D01*
D20*
%TO.N,VDD*%
X120900000Y-148100000D02*
X112800000Y-148100000D01*
X112800000Y-148100000D02*
X112600000Y-147900000D01*
%TO.N,GND*%
X122200000Y-151400000D02*
X122400000Y-151400000D01*
X122200000Y-144400000D02*
X122200000Y-145900000D01*
X123500000Y-143100000D02*
X122200000Y-144400000D01*
X126500000Y-143100000D02*
X123500000Y-143100000D01*
%TO.N,VDD*%
X112600000Y-152700000D02*
X115800000Y-155900000D01*
X112600000Y-150900000D02*
X112600000Y-152700000D01*
%TO.N,VCC*%
X132000000Y-154497057D02*
X132000000Y-152500000D01*
X129397057Y-157100000D02*
X132000000Y-154497057D01*
X115700000Y-157100000D02*
X129397057Y-157100000D01*
X115200000Y-157600000D02*
X115700000Y-157100000D01*
X141600000Y-135000000D02*
X141000000Y-134400000D01*
X141600000Y-140000000D02*
X141600000Y-135000000D01*
D21*
%TO.N,GND*%
X145900000Y-138000000D02*
X145700000Y-137800000D01*
X145900000Y-140300000D02*
X145900000Y-138000000D01*
D20*
X122500000Y-151500000D02*
X122400000Y-151400000D01*
X125100000Y-151500000D02*
X122500000Y-151500000D01*
X127900000Y-151500000D02*
X125100000Y-151500000D01*
X130600000Y-154200000D02*
X127900000Y-151500000D01*
D21*
%TO.N,/ENCV*%
X127600000Y-154000000D02*
X127900000Y-154300000D01*
X123400000Y-154000000D02*
X127600000Y-154000000D01*
X123400000Y-154000000D02*
X119700000Y-154000000D01*
D20*
%TO.N,GND*%
X108400000Y-121200000D02*
X110000000Y-122800000D01*
X107200000Y-121200000D02*
X108400000Y-121200000D01*
X109400000Y-127100000D02*
X110000000Y-126500000D01*
X109400000Y-135000000D02*
X109400000Y-127100000D01*
X109600000Y-135200000D02*
X109400000Y-135000000D01*
X109600000Y-138900000D02*
X109600000Y-135200000D01*
X109400000Y-139100000D02*
X109600000Y-138900000D01*
X109400000Y-142700000D02*
X109400000Y-139100000D01*
X109700000Y-143000000D02*
X109400000Y-142700000D01*
X109700000Y-146500000D02*
X109700000Y-143000000D01*
X108600000Y-147600000D02*
X109700000Y-146500000D01*
X108600000Y-150400000D02*
X108600000Y-147600000D01*
X101350000Y-150400000D02*
X100000000Y-151750000D01*
X108600000Y-150400000D02*
X101350000Y-150400000D01*
%TO.N,VDD*%
X112500000Y-143300000D02*
X112500000Y-147800000D01*
X112500000Y-147800000D02*
X112600000Y-147900000D01*
X112500000Y-139800000D02*
X112500000Y-143300000D01*
%TO.N,GND*%
X132400000Y-120300000D02*
X133400000Y-120300000D01*
X131700000Y-120300000D02*
X132400000Y-120300000D01*
X130700000Y-121300000D02*
X131700000Y-120300000D01*
X129200000Y-121300000D02*
X130700000Y-121300000D01*
X129000000Y-121500000D02*
X129200000Y-121300000D01*
X126000000Y-121500000D02*
X129000000Y-121500000D01*
X125900000Y-121400000D02*
X126000000Y-121500000D01*
X122100000Y-121400000D02*
X125900000Y-121400000D01*
X121800000Y-121100000D02*
X122100000Y-121400000D01*
X118100000Y-121100000D02*
X121800000Y-121100000D01*
X113800000Y-116800000D02*
X118100000Y-121100000D01*
X110300000Y-116800000D02*
X113800000Y-116800000D01*
X104100000Y-117100000D02*
X104400000Y-116800000D01*
X104400000Y-116800000D02*
X110300000Y-116800000D01*
X102900000Y-117100000D02*
X104100000Y-117100000D01*
X100000000Y-120000000D02*
X102900000Y-117100000D01*
X110300000Y-111250000D02*
X109525000Y-110475000D01*
X110300000Y-116800000D02*
X110300000Y-111250000D01*
X107800000Y-121200000D02*
X110600000Y-118400000D01*
X110600000Y-118400000D02*
X110600000Y-117100000D01*
X107200000Y-121200000D02*
X107800000Y-121200000D01*
X110600000Y-117100000D02*
X110300000Y-116800000D01*
%TO.N,VDD*%
X108250000Y-118400000D02*
X108500000Y-118150000D01*
X105200000Y-118400000D02*
X108250000Y-118400000D01*
X104600000Y-122050000D02*
X104600000Y-119000000D01*
X99750000Y-126900000D02*
X104600000Y-122050000D01*
X104600000Y-119000000D02*
X105200000Y-118400000D01*
X99540000Y-126900000D02*
X99750000Y-126900000D01*
%TO.N,GND*%
X110000000Y-126500000D02*
X110000000Y-122800000D01*
%TO.N,VDD*%
X112100000Y-151400000D02*
X111900000Y-151600000D01*
X112600000Y-150900000D02*
X112100000Y-151400000D01*
X111900000Y-151600000D02*
X109600000Y-151600000D01*
X112600000Y-147900000D02*
X112600000Y-150900000D01*
X112600000Y-139700000D02*
X112500000Y-139800000D01*
X112600000Y-135200000D02*
X112600000Y-139700000D01*
X112600000Y-131600000D02*
X112600000Y-135200000D01*
X112600000Y-127200000D02*
X112600000Y-131600000D01*
X112600000Y-123100000D02*
X112600000Y-127200000D01*
X112700000Y-123000000D02*
X112600000Y-123100000D01*
X112700000Y-120050000D02*
X112700000Y-123000000D01*
%TO.N,GND*%
X121512500Y-131700000D02*
X124262500Y-134450000D01*
X120300000Y-131700000D02*
X121512500Y-131700000D01*
X130061028Y-131251472D02*
X126862500Y-134450000D01*
X130451472Y-131251472D02*
X130061028Y-131251472D01*
D19*
%TO.N,/ENCN*%
X129700000Y-143500000D02*
X129700000Y-141550000D01*
X129700000Y-141550000D02*
X130350781Y-140899219D01*
%TO.N,/OV*%
X131295479Y-138004521D02*
X131359620Y-137940380D01*
X131295479Y-141000000D02*
X131295479Y-138004521D01*
X130434619Y-141860860D02*
X131295479Y-141000000D01*
X130434619Y-143834619D02*
X130434619Y-141860860D01*
X128569239Y-145700000D02*
X130434619Y-143834619D01*
X128100000Y-145700000D02*
X128569239Y-145700000D01*
%TO.N,/ENCB*%
X128000000Y-140641054D02*
X128000000Y-143500000D01*
X128000000Y-143500000D02*
X126900000Y-144600000D01*
X128700000Y-139941053D02*
X128000000Y-140641054D01*
X128300000Y-139300000D02*
X128700000Y-139700000D01*
X128700000Y-139700000D02*
X128700000Y-139941053D01*
%TO.N,/ENCA*%
X129050000Y-141280761D02*
X129050000Y-144300000D01*
X130396587Y-139729392D02*
X130396587Y-139934174D01*
X130396587Y-139934174D02*
X129050000Y-141280761D01*
%TO.N,/DigitalConnector/~{DRV_EN}*%
X126150000Y-145250000D02*
X125600000Y-144700000D01*
X127250000Y-145250000D02*
X126150000Y-145250000D01*
X130140380Y-138578859D02*
X130140380Y-139066359D01*
X130140380Y-139066359D02*
X128400000Y-140806739D01*
X128400000Y-140806739D02*
X128400000Y-144100000D01*
X128400000Y-144100000D02*
X127250000Y-145250000D01*
%TO.N,/DigitalConnector/~{SLEEP}*%
X115900000Y-122900000D02*
X115900000Y-121000000D01*
%TO.N,/DigitalConnector/DIAG0*%
X129550000Y-133350000D02*
X129600000Y-133300000D01*
X129700000Y-137100000D02*
X129550000Y-136950000D01*
X129550000Y-136950000D02*
X129550000Y-133350000D01*
%TO.N,/DigitalConnector/DIAG1*%
X130200000Y-133700000D02*
X130700000Y-133200000D01*
X130200000Y-136200000D02*
X130200000Y-133700000D01*
D20*
%TO.N,VCC*%
X125500000Y-131100000D02*
X125500000Y-132000000D01*
X125500000Y-127500000D02*
X125500000Y-131100000D01*
X125500000Y-127500000D02*
X122200000Y-127500000D01*
X129000000Y-127500000D02*
X125500000Y-127500000D01*
X122200000Y-127500000D02*
X122100000Y-127600000D01*
D19*
%TO.N,GND*%
X126500000Y-141550000D02*
X126500000Y-143100000D01*
%TD*%
%TA.AperFunction,Conductor*%
%TO.N,GND*%
G36*
X141083363Y-104995185D02*
G01*
X141104005Y-105011819D01*
X156263181Y-120170995D01*
X156296666Y-120232318D01*
X156299500Y-120258676D01*
X156299500Y-151491324D01*
X156279815Y-151558363D01*
X156263181Y-151579005D01*
X141104005Y-166738181D01*
X141042682Y-166771666D01*
X141016324Y-166774500D01*
X109783676Y-166774500D01*
X109716637Y-166754815D01*
X109695995Y-166738181D01*
X105957814Y-163000000D01*
X118104341Y-163000000D01*
X118124936Y-163235403D01*
X118124938Y-163235413D01*
X118186094Y-163463655D01*
X118186096Y-163463659D01*
X118186097Y-163463663D01*
X118190000Y-163472032D01*
X118285965Y-163677830D01*
X118285967Y-163677834D01*
X118394281Y-163832521D01*
X118421505Y-163871401D01*
X118588599Y-164038495D01*
X118685384Y-164106265D01*
X118782165Y-164174032D01*
X118782167Y-164174033D01*
X118782170Y-164174035D01*
X118996337Y-164273903D01*
X119224592Y-164335063D01*
X119412918Y-164351539D01*
X119459999Y-164355659D01*
X119460000Y-164355659D01*
X119460001Y-164355659D01*
X119499234Y-164352226D01*
X119695408Y-164335063D01*
X119923663Y-164273903D01*
X120137830Y-164174035D01*
X120331401Y-164038495D01*
X120498495Y-163871401D01*
X120628425Y-163685842D01*
X120683002Y-163642217D01*
X120752500Y-163635023D01*
X120814855Y-163666546D01*
X120831575Y-163685842D01*
X120961500Y-163871395D01*
X120961505Y-163871401D01*
X121128599Y-164038495D01*
X121225384Y-164106265D01*
X121322165Y-164174032D01*
X121322167Y-164174033D01*
X121322170Y-164174035D01*
X121536337Y-164273903D01*
X121764592Y-164335063D01*
X121952918Y-164351539D01*
X121999999Y-164355659D01*
X122000000Y-164355659D01*
X122000001Y-164355659D01*
X122039234Y-164352226D01*
X122235408Y-164335063D01*
X122463663Y-164273903D01*
X122677830Y-164174035D01*
X122871401Y-164038495D01*
X123038495Y-163871401D01*
X123168425Y-163685842D01*
X123223002Y-163642217D01*
X123292500Y-163635023D01*
X123354855Y-163666546D01*
X123371575Y-163685842D01*
X123501500Y-163871395D01*
X123501505Y-163871401D01*
X123668599Y-164038495D01*
X123765384Y-164106265D01*
X123862165Y-164174032D01*
X123862167Y-164174033D01*
X123862170Y-164174035D01*
X124076337Y-164273903D01*
X124304592Y-164335063D01*
X124492918Y-164351539D01*
X124539999Y-164355659D01*
X124540000Y-164355659D01*
X124540001Y-164355659D01*
X124579234Y-164352226D01*
X124775408Y-164335063D01*
X125003663Y-164273903D01*
X125217830Y-164174035D01*
X125411401Y-164038495D01*
X125578495Y-163871401D01*
X125708425Y-163685842D01*
X125763002Y-163642217D01*
X125832500Y-163635023D01*
X125894855Y-163666546D01*
X125911575Y-163685842D01*
X126041500Y-163871395D01*
X126041505Y-163871401D01*
X126208599Y-164038495D01*
X126305384Y-164106265D01*
X126402165Y-164174032D01*
X126402167Y-164174033D01*
X126402170Y-164174035D01*
X126616337Y-164273903D01*
X126844592Y-164335063D01*
X127032918Y-164351539D01*
X127079999Y-164355659D01*
X127080000Y-164355659D01*
X127080001Y-164355659D01*
X127119234Y-164352226D01*
X127315408Y-164335063D01*
X127543663Y-164273903D01*
X127757830Y-164174035D01*
X127951401Y-164038495D01*
X128118495Y-163871401D01*
X128254035Y-163677830D01*
X128353903Y-163463663D01*
X128415063Y-163235408D01*
X128435659Y-163000000D01*
X128415063Y-162764592D01*
X128353903Y-162536337D01*
X128254035Y-162322171D01*
X128248425Y-162314158D01*
X128118494Y-162128597D01*
X127951402Y-161961506D01*
X127951395Y-161961501D01*
X127757834Y-161825967D01*
X127757830Y-161825965D01*
X127757828Y-161825964D01*
X127543663Y-161726097D01*
X127543659Y-161726096D01*
X127543655Y-161726094D01*
X127315413Y-161664938D01*
X127315403Y-161664936D01*
X127080001Y-161644341D01*
X127079999Y-161644341D01*
X126844596Y-161664936D01*
X126844586Y-161664938D01*
X126616344Y-161726094D01*
X126616335Y-161726098D01*
X126402171Y-161825964D01*
X126402169Y-161825965D01*
X126208597Y-161961505D01*
X126041505Y-162128597D01*
X125911575Y-162314158D01*
X125856998Y-162357783D01*
X125787500Y-162364977D01*
X125725145Y-162333454D01*
X125708425Y-162314158D01*
X125578494Y-162128597D01*
X125411402Y-161961506D01*
X125411395Y-161961501D01*
X125217834Y-161825967D01*
X125217830Y-161825965D01*
X125217828Y-161825964D01*
X125003663Y-161726097D01*
X125003659Y-161726096D01*
X125003655Y-161726094D01*
X124775413Y-161664938D01*
X124775403Y-161664936D01*
X124540001Y-161644341D01*
X124539999Y-161644341D01*
X124304596Y-161664936D01*
X124304586Y-161664938D01*
X124076344Y-161726094D01*
X124076335Y-161726098D01*
X123862171Y-161825964D01*
X123862169Y-161825965D01*
X123668597Y-161961505D01*
X123501505Y-162128597D01*
X123371575Y-162314158D01*
X123316998Y-162357783D01*
X123247500Y-162364977D01*
X123185145Y-162333454D01*
X123168425Y-162314158D01*
X123038494Y-162128597D01*
X122871402Y-161961506D01*
X122871395Y-161961501D01*
X122677834Y-161825967D01*
X122677830Y-161825965D01*
X122677828Y-161825964D01*
X122463663Y-161726097D01*
X122463659Y-161726096D01*
X122463655Y-161726094D01*
X122235413Y-161664938D01*
X122235403Y-161664936D01*
X122000001Y-161644341D01*
X121999999Y-161644341D01*
X121764596Y-161664936D01*
X121764586Y-161664938D01*
X121536344Y-161726094D01*
X121536335Y-161726098D01*
X121322171Y-161825964D01*
X121322169Y-161825965D01*
X121128597Y-161961505D01*
X120961505Y-162128597D01*
X120831575Y-162314158D01*
X120776998Y-162357783D01*
X120707500Y-162364977D01*
X120645145Y-162333454D01*
X120628425Y-162314158D01*
X120498494Y-162128597D01*
X120331402Y-161961506D01*
X120331395Y-161961501D01*
X120137834Y-161825967D01*
X120137830Y-161825965D01*
X120137828Y-161825964D01*
X119923663Y-161726097D01*
X119923659Y-161726096D01*
X119923655Y-161726094D01*
X119695413Y-161664938D01*
X119695403Y-161664936D01*
X119460001Y-161644341D01*
X119459999Y-161644341D01*
X119224596Y-161664936D01*
X119224586Y-161664938D01*
X118996344Y-161726094D01*
X118996335Y-161726098D01*
X118782171Y-161825964D01*
X118782169Y-161825965D01*
X118588597Y-161961505D01*
X118421505Y-162128597D01*
X118285965Y-162322169D01*
X118285964Y-162322171D01*
X118186098Y-162536335D01*
X118186094Y-162536344D01*
X118124938Y-162764586D01*
X118124936Y-162764596D01*
X118104341Y-162999999D01*
X118104341Y-163000000D01*
X105957814Y-163000000D01*
X94557813Y-151599999D01*
X108594659Y-151599999D01*
X108598903Y-151643090D01*
X108599500Y-151655244D01*
X108599500Y-151698544D01*
X108607945Y-151741006D01*
X108609730Y-151753035D01*
X108613975Y-151796130D01*
X108613976Y-151796134D01*
X108626547Y-151837575D01*
X108629503Y-151849378D01*
X108637946Y-151891827D01*
X108637948Y-151891834D01*
X108654517Y-151931834D01*
X108658612Y-151943277D01*
X108671186Y-151984727D01*
X108671187Y-151984729D01*
X108691597Y-152022913D01*
X108696800Y-152033915D01*
X108713368Y-152073914D01*
X108713370Y-152073918D01*
X108737425Y-152109918D01*
X108743683Y-152120358D01*
X108764088Y-152158535D01*
X108764094Y-152158543D01*
X108791552Y-152192002D01*
X108798799Y-152201772D01*
X108822862Y-152237783D01*
X108822865Y-152237787D01*
X108853479Y-152268401D01*
X108861651Y-152277416D01*
X108889118Y-152310884D01*
X108922581Y-152338346D01*
X108931599Y-152346520D01*
X108962214Y-152377136D01*
X108962219Y-152377140D01*
X108998219Y-152401194D01*
X109007988Y-152408438D01*
X109041462Y-152435910D01*
X109041464Y-152435911D01*
X109079640Y-152456316D01*
X109090078Y-152462572D01*
X109126086Y-152486632D01*
X109166095Y-152503203D01*
X109177091Y-152508404D01*
X109215273Y-152528814D01*
X109256710Y-152541383D01*
X109268160Y-152545480D01*
X109308165Y-152562051D01*
X109350640Y-152570499D01*
X109362414Y-152573448D01*
X109403868Y-152586024D01*
X109446964Y-152590268D01*
X109458990Y-152592052D01*
X109489480Y-152598117D01*
X109501458Y-152600500D01*
X109501459Y-152600500D01*
X109544756Y-152600500D01*
X109556909Y-152601096D01*
X109600000Y-152605341D01*
X109643090Y-152601096D01*
X109655244Y-152600500D01*
X111475500Y-152600500D01*
X111542539Y-152620185D01*
X111588294Y-152672989D01*
X111599500Y-152724500D01*
X111599500Y-152798544D01*
X111637947Y-152991829D01*
X111637949Y-152991836D01*
X111647118Y-153013972D01*
X111647119Y-153013976D01*
X111647120Y-153013976D01*
X111713364Y-153173907D01*
X111713371Y-153173920D01*
X111822859Y-153337780D01*
X111822860Y-153337781D01*
X111822861Y-153337782D01*
X111962218Y-153477139D01*
X111962219Y-153477139D01*
X111969286Y-153484206D01*
X111969285Y-153484206D01*
X111969289Y-153484209D01*
X114847398Y-156362318D01*
X114880883Y-156423641D01*
X114875899Y-156493333D01*
X114847398Y-156537680D01*
X114531603Y-156853475D01*
X114522589Y-156861645D01*
X114489116Y-156889116D01*
X114461645Y-156922589D01*
X114453478Y-156931601D01*
X114422858Y-156962222D01*
X114422853Y-156962228D01*
X114398802Y-156998222D01*
X114391558Y-157007991D01*
X114364088Y-157041464D01*
X114343672Y-157079658D01*
X114337420Y-157090089D01*
X114313367Y-157126087D01*
X114296799Y-157166084D01*
X114291600Y-157177076D01*
X114271188Y-157215266D01*
X114271187Y-157215270D01*
X114258616Y-157256707D01*
X114254518Y-157268158D01*
X114237950Y-157308158D01*
X114237948Y-157308165D01*
X114229503Y-157350622D01*
X114226547Y-157362423D01*
X114213977Y-157403862D01*
X114213975Y-157403869D01*
X114209730Y-157446964D01*
X114207945Y-157458992D01*
X114199500Y-157501454D01*
X114199500Y-157544754D01*
X114198903Y-157556907D01*
X114194659Y-157599999D01*
X114198903Y-157643090D01*
X114199500Y-157655244D01*
X114199500Y-157698543D01*
X114207945Y-157741005D01*
X114209730Y-157753034D01*
X114213975Y-157796130D01*
X114213977Y-157796137D01*
X114226547Y-157837577D01*
X114229503Y-157849378D01*
X114237947Y-157891829D01*
X114237948Y-157891831D01*
X114237949Y-157891836D01*
X114254523Y-157931850D01*
X114258615Y-157943288D01*
X114271185Y-157984725D01*
X114271187Y-157984730D01*
X114291599Y-158022919D01*
X114296799Y-158033913D01*
X114308455Y-158062051D01*
X114313369Y-158073914D01*
X114313369Y-158073915D01*
X114337422Y-158109913D01*
X114343676Y-158120347D01*
X114352480Y-158136818D01*
X114364092Y-158158541D01*
X114391557Y-158192007D01*
X114398806Y-158201781D01*
X114422860Y-158237780D01*
X114422863Y-158237784D01*
X114453474Y-158268394D01*
X114461646Y-158277410D01*
X114489118Y-158310884D01*
X114522587Y-158338351D01*
X114531605Y-158346525D01*
X114562213Y-158377134D01*
X114562216Y-158377136D01*
X114562219Y-158377139D01*
X114598207Y-158401185D01*
X114598219Y-158401193D01*
X114607992Y-158408442D01*
X114628151Y-158424986D01*
X114641462Y-158435910D01*
X114679647Y-158456320D01*
X114679651Y-158456322D01*
X114690090Y-158462579D01*
X114726086Y-158486631D01*
X114766087Y-158503201D01*
X114777082Y-158508401D01*
X114815273Y-158528814D01*
X114856721Y-158541387D01*
X114868166Y-158545483D01*
X114908156Y-158562048D01*
X114908157Y-158562048D01*
X114908164Y-158562051D01*
X114950632Y-158570497D01*
X114962424Y-158573451D01*
X115003868Y-158586024D01*
X115046965Y-158590268D01*
X115058991Y-158592052D01*
X115089481Y-158598117D01*
X115101459Y-158600500D01*
X115101460Y-158600500D01*
X115144756Y-158600500D01*
X115156909Y-158601096D01*
X115200000Y-158605341D01*
X115243090Y-158601096D01*
X115255244Y-158600500D01*
X115298541Y-158600500D01*
X115314453Y-158597334D01*
X115341004Y-158592053D01*
X115353036Y-158590268D01*
X115396132Y-158586024D01*
X115437570Y-158573452D01*
X115449370Y-158570497D01*
X115491836Y-158562051D01*
X115531855Y-158545473D01*
X115543275Y-158541387D01*
X115584727Y-158528814D01*
X115622922Y-158508397D01*
X115633901Y-158503204D01*
X115673914Y-158486631D01*
X115709908Y-158462580D01*
X115720332Y-158456330D01*
X115758538Y-158435910D01*
X115792020Y-158408430D01*
X115801780Y-158401193D01*
X115837781Y-158377139D01*
X115868394Y-158346524D01*
X115877411Y-158338352D01*
X115877412Y-158338351D01*
X115910883Y-158310883D01*
X115938363Y-158277397D01*
X115946505Y-158268413D01*
X116078102Y-158136817D01*
X116139425Y-158103334D01*
X116165782Y-158100500D01*
X129495599Y-158100500D01*
X129514927Y-158096655D01*
X129592245Y-158081275D01*
X129688893Y-158062051D01*
X129742222Y-158039961D01*
X129870971Y-157986632D01*
X130034839Y-157877139D01*
X130174196Y-157737782D01*
X130174196Y-157737780D01*
X130184404Y-157727573D01*
X130184405Y-157727570D01*
X132777139Y-155134839D01*
X132886632Y-154970971D01*
X132962051Y-154788892D01*
X133000500Y-154595598D01*
X133000500Y-152555244D01*
X133001097Y-152543090D01*
X133002503Y-152528813D01*
X133005341Y-152500000D01*
X133001097Y-152456907D01*
X133000500Y-152444754D01*
X133000500Y-152401458D01*
X132998117Y-152389480D01*
X132992052Y-152358990D01*
X132990268Y-152346961D01*
X132986024Y-152303869D01*
X132986024Y-152303868D01*
X132973448Y-152262414D01*
X132970499Y-152250640D01*
X132962051Y-152208165D01*
X132945480Y-152168159D01*
X132941383Y-152156710D01*
X132928814Y-152115273D01*
X132908404Y-152077091D01*
X132903203Y-152066095D01*
X132886632Y-152026086D01*
X132862572Y-151990078D01*
X132856316Y-151979640D01*
X132835911Y-151941464D01*
X132835910Y-151941462D01*
X132808438Y-151907988D01*
X132801194Y-151898219D01*
X132796928Y-151891835D01*
X132777139Y-151862218D01*
X132777136Y-151862214D01*
X132746520Y-151831599D01*
X132738346Y-151822581D01*
X132710884Y-151789118D01*
X132677416Y-151761651D01*
X132668401Y-151753479D01*
X132637787Y-151722865D01*
X132637783Y-151722862D01*
X132637780Y-151722860D01*
X132621139Y-151711740D01*
X132601772Y-151698799D01*
X132592002Y-151691552D01*
X132558543Y-151664094D01*
X132558535Y-151664088D01*
X132541436Y-151654948D01*
X132520350Y-151643678D01*
X132509918Y-151637425D01*
X132473918Y-151613370D01*
X132473914Y-151613368D01*
X132433915Y-151596800D01*
X132422913Y-151591597D01*
X132384729Y-151571187D01*
X132384728Y-151571186D01*
X132384727Y-151571186D01*
X132343277Y-151558612D01*
X132331834Y-151554517D01*
X132291834Y-151537948D01*
X132291827Y-151537946D01*
X132249378Y-151529503D01*
X132237575Y-151526547D01*
X132196134Y-151513976D01*
X132196130Y-151513975D01*
X132153035Y-151509730D01*
X132141006Y-151507945D01*
X132098544Y-151499500D01*
X132098541Y-151499500D01*
X132055244Y-151499500D01*
X132043090Y-151498903D01*
X132000000Y-151494659D01*
X131956910Y-151498903D01*
X131944756Y-151499500D01*
X131901453Y-151499500D01*
X131858991Y-151507945D01*
X131846963Y-151509730D01*
X131803867Y-151513976D01*
X131762427Y-151526546D01*
X131750626Y-151529502D01*
X131708166Y-151537948D01*
X131708161Y-151537949D01*
X131668159Y-151554518D01*
X131656707Y-151558616D01*
X131615272Y-151571186D01*
X131577091Y-151591594D01*
X131566093Y-151596795D01*
X131526091Y-151613364D01*
X131490080Y-151637426D01*
X131479645Y-151643680D01*
X131441465Y-151664087D01*
X131441460Y-151664091D01*
X131407990Y-151691557D01*
X131398225Y-151698799D01*
X131362225Y-151722855D01*
X131362219Y-151722860D01*
X131331595Y-151753483D01*
X131322584Y-151761650D01*
X131289117Y-151789117D01*
X131261650Y-151822584D01*
X131253483Y-151831595D01*
X131222860Y-151862219D01*
X131222855Y-151862225D01*
X131198799Y-151898225D01*
X131191557Y-151907990D01*
X131164091Y-151941460D01*
X131164087Y-151941465D01*
X131143680Y-151979645D01*
X131137426Y-151990080D01*
X131113364Y-152026091D01*
X131096795Y-152066093D01*
X131091594Y-152077091D01*
X131071186Y-152115272D01*
X131058616Y-152156707D01*
X131054518Y-152168159D01*
X131037949Y-152208161D01*
X131037948Y-152208166D01*
X131029502Y-152250626D01*
X131026546Y-152262427D01*
X131013976Y-152303867D01*
X131009730Y-152346963D01*
X131007945Y-152358991D01*
X130999500Y-152401453D01*
X130999500Y-152444754D01*
X130998903Y-152456907D01*
X130994659Y-152499999D01*
X130998903Y-152543090D01*
X130999500Y-152555244D01*
X130999500Y-154031274D01*
X130979815Y-154098313D01*
X130963181Y-154118955D01*
X129018956Y-156063181D01*
X128957633Y-156096666D01*
X128931275Y-156099500D01*
X116924500Y-156099500D01*
X116857461Y-156079815D01*
X116811706Y-156027011D01*
X116800500Y-155975500D01*
X116800500Y-155955244D01*
X116801097Y-155943090D01*
X116805341Y-155900000D01*
X116801097Y-155856907D01*
X116800500Y-155844754D01*
X116800500Y-155801458D01*
X116798117Y-155789480D01*
X116792052Y-155758990D01*
X116790268Y-155746961D01*
X116786024Y-155703869D01*
X116773452Y-155662424D01*
X116770499Y-155650636D01*
X116762051Y-155608164D01*
X116745475Y-155568147D01*
X116741388Y-155556725D01*
X116728814Y-155515273D01*
X116708397Y-155477077D01*
X116703200Y-155466086D01*
X116686631Y-155426085D01*
X116662573Y-155390080D01*
X116656317Y-155379642D01*
X116635910Y-155341462D01*
X116608439Y-155307989D01*
X116601202Y-155298231D01*
X116577139Y-155262218D01*
X116546519Y-155231598D01*
X116538346Y-155222581D01*
X116510883Y-155189116D01*
X116477417Y-155161652D01*
X116468400Y-155153479D01*
X115314921Y-154000000D01*
X118694659Y-154000000D01*
X118713975Y-154196129D01*
X118771188Y-154384733D01*
X118864086Y-154558532D01*
X118864090Y-154558539D01*
X118989116Y-154710883D01*
X119141460Y-154835909D01*
X119141467Y-154835913D01*
X119315266Y-154928811D01*
X119315269Y-154928811D01*
X119315273Y-154928814D01*
X119503868Y-154986024D01*
X119700000Y-155005341D01*
X119896132Y-154986024D01*
X120084727Y-154928814D01*
X120258538Y-154835910D01*
X120328313Y-154778647D01*
X120392623Y-154751334D01*
X120406978Y-154750500D01*
X122693022Y-154750500D01*
X122760061Y-154770185D01*
X122771687Y-154778647D01*
X122841460Y-154835909D01*
X122841467Y-154835913D01*
X123015266Y-154928811D01*
X123015269Y-154928811D01*
X123015273Y-154928814D01*
X123203868Y-154986024D01*
X123400000Y-155005341D01*
X123596132Y-154986024D01*
X123784727Y-154928814D01*
X123958538Y-154835910D01*
X124028313Y-154778647D01*
X124092623Y-154751334D01*
X124106978Y-154750500D01*
X126932020Y-154750500D01*
X126999059Y-154770185D01*
X127041378Y-154816047D01*
X127064090Y-154858539D01*
X127189116Y-155010883D01*
X127341460Y-155135909D01*
X127341467Y-155135913D01*
X127515266Y-155228811D01*
X127515269Y-155228811D01*
X127515273Y-155228814D01*
X127703868Y-155286024D01*
X127900000Y-155305341D01*
X128096132Y-155286024D01*
X128284727Y-155228814D01*
X128458538Y-155135910D01*
X128610883Y-155010883D01*
X128735910Y-154858538D01*
X128828814Y-154684727D01*
X128886024Y-154496132D01*
X128905341Y-154300000D01*
X128886024Y-154103868D01*
X128828814Y-153915273D01*
X128828811Y-153915269D01*
X128828811Y-153915266D01*
X128735913Y-153741467D01*
X128735909Y-153741460D01*
X128610883Y-153589116D01*
X128458539Y-153464090D01*
X128458532Y-153464086D01*
X128284733Y-153371188D01*
X128284727Y-153371186D01*
X128096132Y-153313976D01*
X128096129Y-153313975D01*
X127900000Y-153294659D01*
X127899995Y-153294659D01*
X127897222Y-153294932D01*
X127895382Y-153294659D01*
X127893910Y-153294659D01*
X127893910Y-153294440D01*
X127837621Y-153286091D01*
X127818913Y-153278342D01*
X127818911Y-153278341D01*
X127818910Y-153278341D01*
X127673920Y-153249500D01*
X127673918Y-153249500D01*
X124106978Y-153249500D01*
X124039939Y-153229815D01*
X124028313Y-153221353D01*
X123958539Y-153164090D01*
X123958532Y-153164086D01*
X123784733Y-153071188D01*
X123784727Y-153071186D01*
X123596132Y-153013976D01*
X123596129Y-153013975D01*
X123400000Y-152994659D01*
X123203870Y-153013975D01*
X123015266Y-153071188D01*
X122841467Y-153164086D01*
X122841460Y-153164090D01*
X122771687Y-153221353D01*
X122707377Y-153248666D01*
X122693022Y-153249500D01*
X120406978Y-153249500D01*
X120339939Y-153229815D01*
X120328313Y-153221353D01*
X120258539Y-153164090D01*
X120258532Y-153164086D01*
X120084733Y-153071188D01*
X120084727Y-153071186D01*
X119896132Y-153013976D01*
X119896129Y-153013975D01*
X119700000Y-152994659D01*
X119503870Y-153013975D01*
X119315266Y-153071188D01*
X119141467Y-153164086D01*
X119141460Y-153164090D01*
X118989116Y-153289116D01*
X118864090Y-153441460D01*
X118864086Y-153441467D01*
X118771188Y-153615266D01*
X118713975Y-153803870D01*
X118694659Y-154000000D01*
X115314921Y-154000000D01*
X113636819Y-152321898D01*
X113603334Y-152260575D01*
X113600500Y-152234217D01*
X113600500Y-149224500D01*
X113620185Y-149157461D01*
X113672989Y-149111706D01*
X113724500Y-149100500D01*
X120844756Y-149100500D01*
X120856909Y-149101096D01*
X120900000Y-149105341D01*
X120943090Y-149101096D01*
X120955244Y-149100500D01*
X120998542Y-149100500D01*
X121014454Y-149097334D01*
X121041005Y-149092053D01*
X121053037Y-149090268D01*
X121096132Y-149086024D01*
X121137580Y-149073450D01*
X121149353Y-149070500D01*
X121191835Y-149062051D01*
X121231847Y-149045476D01*
X121243280Y-149041386D01*
X121284727Y-149028814D01*
X121322918Y-149008399D01*
X121333910Y-149003201D01*
X121373914Y-148986632D01*
X121409938Y-148962560D01*
X121420351Y-148956320D01*
X121446591Y-148942295D01*
X121458535Y-148935912D01*
X121458539Y-148935909D01*
X121492005Y-148908444D01*
X121501782Y-148901193D01*
X121537781Y-148877140D01*
X121537783Y-148877138D01*
X121537785Y-148877136D01*
X121568408Y-148846512D01*
X121577402Y-148838359D01*
X121610883Y-148810883D01*
X121638359Y-148777402D01*
X121646512Y-148768408D01*
X121677139Y-148737782D01*
X121701200Y-148701772D01*
X121708444Y-148692005D01*
X121735909Y-148658539D01*
X121735912Y-148658535D01*
X121742295Y-148646591D01*
X121756320Y-148620351D01*
X121762560Y-148609938D01*
X121786632Y-148573914D01*
X121803202Y-148533906D01*
X121808402Y-148522913D01*
X121828814Y-148484727D01*
X121841386Y-148443280D01*
X121845476Y-148431847D01*
X121862051Y-148391835D01*
X121870500Y-148349353D01*
X121873450Y-148337580D01*
X121886024Y-148296132D01*
X121890268Y-148253037D01*
X121892054Y-148240999D01*
X121900500Y-148198541D01*
X121900500Y-148155244D01*
X121901097Y-148143090D01*
X121905341Y-148100000D01*
X121905341Y-148099999D01*
X124094659Y-148099999D01*
X124098903Y-148143090D01*
X124099500Y-148155244D01*
X124099500Y-148198544D01*
X124107945Y-148241006D01*
X124109730Y-148253035D01*
X124113975Y-148296130D01*
X124113976Y-148296134D01*
X124126547Y-148337575D01*
X124129503Y-148349378D01*
X124137946Y-148391827D01*
X124137948Y-148391834D01*
X124154517Y-148431834D01*
X124158612Y-148443277D01*
X124171186Y-148484726D01*
X124171187Y-148484729D01*
X124191597Y-148522913D01*
X124196800Y-148533915D01*
X124213368Y-148573914D01*
X124213370Y-148573918D01*
X124237425Y-148609918D01*
X124243678Y-148620350D01*
X124254948Y-148641436D01*
X124264088Y-148658535D01*
X124264094Y-148658543D01*
X124291552Y-148692002D01*
X124298799Y-148701772D01*
X124322860Y-148737781D01*
X124322862Y-148737783D01*
X124322865Y-148737787D01*
X124353479Y-148768401D01*
X124361651Y-148777416D01*
X124389117Y-148810883D01*
X124422579Y-148838345D01*
X124422581Y-148838346D01*
X124431599Y-148846520D01*
X124462214Y-148877136D01*
X124462217Y-148877138D01*
X124462218Y-148877139D01*
X124498217Y-148901193D01*
X124498219Y-148901194D01*
X124507988Y-148908438D01*
X124541462Y-148935910D01*
X124579640Y-148956316D01*
X124590078Y-148962572D01*
X124597899Y-148967797D01*
X124626086Y-148986632D01*
X124666095Y-149003203D01*
X124677091Y-149008404D01*
X124715273Y-149028814D01*
X124756710Y-149041383D01*
X124768160Y-149045480D01*
X124807248Y-149061671D01*
X124861652Y-149105513D01*
X124883716Y-149171807D01*
X124866436Y-149239506D01*
X124855649Y-149254896D01*
X124764090Y-149366461D01*
X124764086Y-149366467D01*
X124671188Y-149540266D01*
X124613975Y-149728870D01*
X124594659Y-149925000D01*
X124613975Y-150121129D01*
X124671188Y-150309733D01*
X124764086Y-150483532D01*
X124764090Y-150483539D01*
X124889116Y-150635883D01*
X125041460Y-150760909D01*
X125041467Y-150760913D01*
X125215266Y-150853811D01*
X125215269Y-150853811D01*
X125215273Y-150853814D01*
X125403868Y-150911024D01*
X125600000Y-150930341D01*
X125796132Y-150911024D01*
X125984727Y-150853814D01*
X125985347Y-150853483D01*
X126093976Y-150795419D01*
X126158538Y-150760910D01*
X126228313Y-150703647D01*
X126292623Y-150676334D01*
X126306978Y-150675500D01*
X127948920Y-150675500D01*
X128054399Y-150654518D01*
X128093913Y-150646658D01*
X128230495Y-150590084D01*
X128279729Y-150557186D01*
X128353416Y-150507952D01*
X131082952Y-147778415D01*
X131097458Y-147756706D01*
X131111353Y-147735911D01*
X131132183Y-147704734D01*
X131165084Y-147655495D01*
X131165085Y-147655490D01*
X131165258Y-147655233D01*
X131189696Y-147628270D01*
X131210883Y-147610883D01*
X131335910Y-147458538D01*
X131408429Y-147322865D01*
X131428811Y-147284733D01*
X131428811Y-147284732D01*
X131428814Y-147284727D01*
X131486024Y-147096132D01*
X131505341Y-146900000D01*
X131486024Y-146703868D01*
X131428814Y-146515273D01*
X131428811Y-146515269D01*
X131428811Y-146515266D01*
X131335913Y-146341467D01*
X131335909Y-146341460D01*
X131210883Y-146189116D01*
X131160061Y-146147408D01*
X131120727Y-146089663D01*
X131118856Y-146019818D01*
X131151043Y-145963876D01*
X133478102Y-143636819D01*
X133539425Y-143603334D01*
X133565783Y-143600500D01*
X135098543Y-143600500D01*
X135170407Y-143586204D01*
X135206341Y-143579057D01*
X135291836Y-143562051D01*
X135350428Y-143537781D01*
X135473914Y-143486632D01*
X135637782Y-143377139D01*
X135777139Y-143237782D01*
X135777140Y-143237779D01*
X135784206Y-143230714D01*
X135784208Y-143230710D01*
X136478101Y-142536819D01*
X136539424Y-142503334D01*
X136565782Y-142500500D01*
X138934218Y-142500500D01*
X139001257Y-142520185D01*
X139021899Y-142536819D01*
X141953479Y-145468400D01*
X141961652Y-145477417D01*
X141989116Y-145510883D01*
X142022581Y-145538346D01*
X142031599Y-145546520D01*
X142062215Y-145577137D01*
X142062219Y-145577140D01*
X142098223Y-145601197D01*
X142107988Y-145608438D01*
X142141462Y-145635910D01*
X142141465Y-145635911D01*
X142141468Y-145635914D01*
X142179653Y-145656324D01*
X142190082Y-145662574D01*
X142226086Y-145686631D01*
X142242432Y-145693401D01*
X142266087Y-145703201D01*
X142277082Y-145708401D01*
X142315273Y-145728814D01*
X142356721Y-145741387D01*
X142368166Y-145745483D01*
X142408156Y-145762048D01*
X142408157Y-145762048D01*
X142408164Y-145762051D01*
X142450632Y-145770497D01*
X142462424Y-145773451D01*
X142503868Y-145786024D01*
X142546965Y-145790268D01*
X142558991Y-145792052D01*
X142589481Y-145798117D01*
X142601459Y-145800500D01*
X142601460Y-145800500D01*
X142644756Y-145800500D01*
X142656909Y-145801096D01*
X142700000Y-145805341D01*
X142743090Y-145801096D01*
X142755244Y-145800500D01*
X142798541Y-145800500D01*
X142814453Y-145797334D01*
X142841004Y-145792053D01*
X142853036Y-145790268D01*
X142896132Y-145786024D01*
X142937570Y-145773452D01*
X142949370Y-145770497D01*
X142991836Y-145762051D01*
X143031855Y-145745473D01*
X143043275Y-145741387D01*
X143084727Y-145728814D01*
X143122922Y-145708397D01*
X143133901Y-145703204D01*
X143173914Y-145686631D01*
X143209914Y-145662575D01*
X143220338Y-145656327D01*
X143258538Y-145635910D01*
X143279489Y-145618716D01*
X143292009Y-145608441D01*
X143301780Y-145601194D01*
X143337781Y-145577140D01*
X143368400Y-145546519D01*
X143377417Y-145538347D01*
X143377418Y-145538346D01*
X143410883Y-145510883D01*
X143438348Y-145477415D01*
X143446521Y-145468399D01*
X143477140Y-145437781D01*
X143501194Y-145401780D01*
X143508441Y-145392009D01*
X143535907Y-145358542D01*
X143535907Y-145358541D01*
X143535910Y-145358538D01*
X143556327Y-145320338D01*
X143562576Y-145309914D01*
X143586631Y-145273914D01*
X143603204Y-145233901D01*
X143608401Y-145222916D01*
X143628814Y-145184727D01*
X143641387Y-145143275D01*
X143645473Y-145131855D01*
X143662051Y-145091836D01*
X143670497Y-145049370D01*
X143673454Y-145037566D01*
X143686024Y-144996132D01*
X143690268Y-144953036D01*
X143692054Y-144940998D01*
X143692501Y-144938754D01*
X143700500Y-144898540D01*
X143700500Y-144855244D01*
X143701097Y-144843090D01*
X143705341Y-144800000D01*
X143701097Y-144756907D01*
X143700500Y-144744754D01*
X143700500Y-144701459D01*
X143698117Y-144689481D01*
X143692052Y-144658991D01*
X143690268Y-144646962D01*
X143686024Y-144603868D01*
X143673451Y-144562424D01*
X143670496Y-144550625D01*
X143662051Y-144508164D01*
X143645482Y-144468165D01*
X143641387Y-144456721D01*
X143628814Y-144415273D01*
X143608402Y-144377084D01*
X143603201Y-144366087D01*
X143590349Y-144335063D01*
X143586631Y-144326086D01*
X143562574Y-144290082D01*
X143556324Y-144279653D01*
X143535914Y-144241468D01*
X143535911Y-144241465D01*
X143535910Y-144241462D01*
X143508438Y-144207988D01*
X143501194Y-144198219D01*
X143500603Y-144197335D01*
X143477140Y-144162219D01*
X143477137Y-144162215D01*
X143446520Y-144131599D01*
X143438346Y-144122581D01*
X143410883Y-144089116D01*
X143377417Y-144061652D01*
X143368400Y-144053479D01*
X141854921Y-142540000D01*
X151644341Y-142540000D01*
X151664936Y-142775403D01*
X151664938Y-142775413D01*
X151726094Y-143003655D01*
X151726096Y-143003659D01*
X151726097Y-143003663D01*
X151818331Y-143201459D01*
X151825965Y-143217830D01*
X151825967Y-143217834D01*
X151874807Y-143287584D01*
X151961505Y-143411401D01*
X152128599Y-143578495D01*
X152164073Y-143603334D01*
X152322165Y-143714032D01*
X152322167Y-143714033D01*
X152322170Y-143714035D01*
X152536337Y-143813903D01*
X152764592Y-143875063D01*
X152952918Y-143891539D01*
X152999999Y-143895659D01*
X153000000Y-143895659D01*
X153000001Y-143895659D01*
X153039234Y-143892226D01*
X153235408Y-143875063D01*
X153463663Y-143813903D01*
X153677830Y-143714035D01*
X153871401Y-143578495D01*
X154038495Y-143411401D01*
X154174035Y-143217830D01*
X154273903Y-143003663D01*
X154335063Y-142775408D01*
X154355659Y-142540000D01*
X154335063Y-142304592D01*
X154273903Y-142076337D01*
X154174035Y-141862171D01*
X154148684Y-141825965D01*
X154038494Y-141668597D01*
X153871402Y-141501506D01*
X153871396Y-141501501D01*
X153685842Y-141371575D01*
X153642217Y-141316998D01*
X153635023Y-141247500D01*
X153666546Y-141185145D01*
X153685842Y-141168425D01*
X153745651Y-141126546D01*
X153871401Y-141038495D01*
X154038495Y-140871401D01*
X154174035Y-140677830D01*
X154273903Y-140463663D01*
X154335063Y-140235408D01*
X154355659Y-140000000D01*
X154335063Y-139764592D01*
X154273903Y-139536337D01*
X154174035Y-139322171D01*
X154148684Y-139285965D01*
X154038494Y-139128597D01*
X153871402Y-138961506D01*
X153871395Y-138961501D01*
X153867106Y-138958498D01*
X153795739Y-138908526D01*
X153677834Y-138825967D01*
X153677830Y-138825965D01*
X153616433Y-138797335D01*
X153463663Y-138726097D01*
X153463659Y-138726096D01*
X153463655Y-138726094D01*
X153235413Y-138664938D01*
X153235403Y-138664936D01*
X153000001Y-138644341D01*
X152999999Y-138644341D01*
X152764596Y-138664936D01*
X152764586Y-138664938D01*
X152536344Y-138726094D01*
X152536335Y-138726098D01*
X152322171Y-138825964D01*
X152322169Y-138825965D01*
X152128597Y-138961505D01*
X151961505Y-139128597D01*
X151825965Y-139322169D01*
X151825964Y-139322171D01*
X151726098Y-139536335D01*
X151726094Y-139536344D01*
X151664938Y-139764586D01*
X151664936Y-139764596D01*
X151644341Y-139999999D01*
X151644341Y-140000000D01*
X151664936Y-140235403D01*
X151664938Y-140235413D01*
X151726094Y-140463655D01*
X151726096Y-140463659D01*
X151726097Y-140463663D01*
X151825772Y-140677416D01*
X151825965Y-140677830D01*
X151825967Y-140677834D01*
X151911860Y-140800501D01*
X151960023Y-140869285D01*
X151961501Y-140871395D01*
X151961506Y-140871402D01*
X152128597Y-141038493D01*
X152128603Y-141038498D01*
X152314158Y-141168425D01*
X152357783Y-141223002D01*
X152364977Y-141292500D01*
X152333454Y-141354855D01*
X152314158Y-141371575D01*
X152128597Y-141501505D01*
X151961505Y-141668597D01*
X151825965Y-141862169D01*
X151825964Y-141862171D01*
X151726098Y-142076335D01*
X151726094Y-142076344D01*
X151664938Y-142304586D01*
X151664936Y-142304596D01*
X151644341Y-142539999D01*
X151644341Y-142540000D01*
X141854921Y-142540000D01*
X140184209Y-140869289D01*
X140184206Y-140869285D01*
X140184206Y-140869286D01*
X140177139Y-140862219D01*
X140177139Y-140862218D01*
X140037782Y-140722861D01*
X140037781Y-140722860D01*
X140037780Y-140722859D01*
X139873917Y-140613369D01*
X139733601Y-140555249D01*
X139733598Y-140555247D01*
X139691840Y-140537950D01*
X139691828Y-140537947D01*
X139571316Y-140513976D01*
X139546974Y-140509134D01*
X139498543Y-140499500D01*
X139498541Y-140499500D01*
X136155244Y-140499500D01*
X136143090Y-140498903D01*
X136100000Y-140494659D01*
X136056910Y-140498903D01*
X136044756Y-140499500D01*
X136001453Y-140499500D01*
X135958991Y-140507945D01*
X135946963Y-140509730D01*
X135903869Y-140513975D01*
X135903862Y-140513977D01*
X135862423Y-140526547D01*
X135850621Y-140529503D01*
X135808170Y-140537947D01*
X135808167Y-140537947D01*
X135768165Y-140554517D01*
X135756711Y-140558615D01*
X135715272Y-140571186D01*
X135677091Y-140591594D01*
X135666093Y-140596795D01*
X135626091Y-140613364D01*
X135590080Y-140637426D01*
X135579645Y-140643680D01*
X135541465Y-140664087D01*
X135541460Y-140664091D01*
X135507990Y-140691557D01*
X135498225Y-140698799D01*
X135462225Y-140722855D01*
X135462219Y-140722860D01*
X135431595Y-140753483D01*
X135422584Y-140761650D01*
X135389117Y-140789117D01*
X135361650Y-140822584D01*
X135353483Y-140831594D01*
X135328767Y-140856312D01*
X135322861Y-140862218D01*
X135322858Y-140862221D01*
X134962078Y-141223002D01*
X134621899Y-141563181D01*
X134560576Y-141596666D01*
X134534218Y-141599500D01*
X131844577Y-141599500D01*
X131777538Y-141579815D01*
X131731783Y-141527011D01*
X131721839Y-141457853D01*
X131750864Y-141394297D01*
X131756896Y-141387819D01*
X131775999Y-141368716D01*
X131797546Y-141331395D01*
X131830739Y-141273904D01*
X131830740Y-141273902D01*
X131855053Y-141231790D01*
X131855054Y-141231789D01*
X131855054Y-141231787D01*
X131855056Y-141231785D01*
X131895980Y-141079057D01*
X131895980Y-140920943D01*
X131895980Y-140913348D01*
X131895979Y-140913330D01*
X131895979Y-138663344D01*
X131915664Y-138596305D01*
X131927829Y-138580372D01*
X131950653Y-138555023D01*
X132051479Y-138443045D01*
X132140870Y-138288215D01*
X132196117Y-138118183D01*
X132214805Y-137940380D01*
X132196117Y-137762577D01*
X132150505Y-137622197D01*
X132140872Y-137592550D01*
X132140869Y-137592544D01*
X132062229Y-137456335D01*
X132051479Y-137437715D01*
X131996756Y-137376939D01*
X131931855Y-137304858D01*
X131931852Y-137304856D01*
X131931851Y-137304855D01*
X131931850Y-137304854D01*
X131787213Y-137199768D01*
X131623887Y-137127051D01*
X131623885Y-137127050D01*
X131496214Y-137099913D01*
X131449011Y-137089880D01*
X131270229Y-137089880D01*
X131239574Y-137096395D01*
X131095353Y-137127050D01*
X131095348Y-137127052D01*
X130932028Y-137199767D01*
X130787387Y-137304856D01*
X130755480Y-137340292D01*
X130695993Y-137376939D01*
X130626136Y-137375608D01*
X130568089Y-137336720D01*
X130540280Y-137272623D01*
X130540011Y-137244368D01*
X130555185Y-137100000D01*
X130551835Y-137068130D01*
X130564404Y-136999402D01*
X130612136Y-136948378D01*
X130624727Y-136941888D01*
X130624790Y-136941859D01*
X130627593Y-136940612D01*
X130772230Y-136835526D01*
X130891859Y-136702665D01*
X130981250Y-136547835D01*
X131036497Y-136377803D01*
X131055185Y-136200000D01*
X131036497Y-136022197D01*
X130981250Y-135852165D01*
X130891859Y-135697335D01*
X130891855Y-135697329D01*
X130832350Y-135631242D01*
X130802120Y-135568250D01*
X130800500Y-135548270D01*
X130800500Y-134399999D01*
X139994659Y-134399999D01*
X139998903Y-134443090D01*
X139999500Y-134455244D01*
X139999500Y-134498543D01*
X140007945Y-134541005D01*
X140009730Y-134553034D01*
X140013975Y-134596130D01*
X140013977Y-134596137D01*
X140026547Y-134637577D01*
X140029503Y-134649378D01*
X140037947Y-134691829D01*
X140037948Y-134691831D01*
X140037949Y-134691836D01*
X140054523Y-134731850D01*
X140058615Y-134743288D01*
X140071185Y-134784725D01*
X140091599Y-134822919D01*
X140096800Y-134833915D01*
X140113369Y-134873914D01*
X140113369Y-134873915D01*
X140137422Y-134909913D01*
X140143677Y-134920348D01*
X140164092Y-134958541D01*
X140191557Y-134992007D01*
X140198806Y-135001781D01*
X140222860Y-135037780D01*
X140222863Y-135037784D01*
X140253474Y-135068394D01*
X140261646Y-135077410D01*
X140289118Y-135110884D01*
X140322587Y-135138351D01*
X140331604Y-135146524D01*
X140563181Y-135378101D01*
X140596666Y-135439424D01*
X140599500Y-135465782D01*
X140599500Y-139944754D01*
X140598903Y-139956907D01*
X140594659Y-140000000D01*
X140598903Y-140043090D01*
X140599500Y-140055244D01*
X140599500Y-140098544D01*
X140607945Y-140141006D01*
X140609730Y-140153035D01*
X140613975Y-140196130D01*
X140613976Y-140196134D01*
X140626547Y-140237575D01*
X140629503Y-140249378D01*
X140637946Y-140291827D01*
X140637948Y-140291834D01*
X140654517Y-140331834D01*
X140658612Y-140343277D01*
X140661663Y-140353334D01*
X140671187Y-140384729D01*
X140691597Y-140422913D01*
X140696800Y-140433915D01*
X140713368Y-140473914D01*
X140713370Y-140473918D01*
X140737425Y-140509918D01*
X140743678Y-140520350D01*
X140746991Y-140526547D01*
X140764088Y-140558535D01*
X140764094Y-140558543D01*
X140791552Y-140592002D01*
X140798799Y-140601772D01*
X140822860Y-140637781D01*
X140822862Y-140637783D01*
X140822865Y-140637787D01*
X140853479Y-140668401D01*
X140861651Y-140677416D01*
X140864200Y-140680522D01*
X140889117Y-140710883D01*
X140922579Y-140738345D01*
X140922581Y-140738346D01*
X140931599Y-140746520D01*
X140962214Y-140777136D01*
X140962217Y-140777138D01*
X140962218Y-140777139D01*
X140998217Y-140801193D01*
X140998219Y-140801194D01*
X141007988Y-140808438D01*
X141041462Y-140835910D01*
X141079640Y-140856316D01*
X141090078Y-140862572D01*
X141097899Y-140867797D01*
X141126086Y-140886632D01*
X141166095Y-140903203D01*
X141177091Y-140908404D01*
X141215273Y-140928814D01*
X141256710Y-140941383D01*
X141268160Y-140945480D01*
X141308165Y-140962051D01*
X141350640Y-140970499D01*
X141362414Y-140973448D01*
X141403868Y-140986024D01*
X141446964Y-140990268D01*
X141458990Y-140992052D01*
X141489480Y-140998117D01*
X141501458Y-141000500D01*
X141501459Y-141000500D01*
X141544756Y-141000500D01*
X141556909Y-141001096D01*
X141600000Y-141005341D01*
X141643090Y-141001096D01*
X141655244Y-141000500D01*
X141698542Y-141000500D01*
X141714454Y-140997334D01*
X141741005Y-140992053D01*
X141753037Y-140990268D01*
X141796132Y-140986024D01*
X141837580Y-140973450D01*
X141849353Y-140970500D01*
X141891835Y-140962051D01*
X141931847Y-140945476D01*
X141943280Y-140941386D01*
X141984727Y-140928814D01*
X142022918Y-140908399D01*
X142033910Y-140903201D01*
X142073914Y-140886632D01*
X142109938Y-140862560D01*
X142120351Y-140856320D01*
X142146591Y-140842295D01*
X142158535Y-140835912D01*
X142158539Y-140835909D01*
X142169043Y-140827289D01*
X142192005Y-140808444D01*
X142201782Y-140801193D01*
X142237781Y-140777140D01*
X142237783Y-140777138D01*
X142237785Y-140777136D01*
X142268408Y-140746512D01*
X142277402Y-140738359D01*
X142310883Y-140710883D01*
X142338359Y-140677402D01*
X142346512Y-140668408D01*
X142377139Y-140637782D01*
X142401200Y-140601772D01*
X142408444Y-140592005D01*
X142427559Y-140568713D01*
X142435910Y-140558538D01*
X142435931Y-140558500D01*
X142446914Y-140537949D01*
X142456320Y-140520351D01*
X142462560Y-140509938D01*
X142486632Y-140473914D01*
X142503202Y-140433906D01*
X142508402Y-140422913D01*
X142528814Y-140384727D01*
X142541386Y-140343280D01*
X142545476Y-140331847D01*
X142562051Y-140291835D01*
X142570500Y-140249353D01*
X142573450Y-140237580D01*
X142586024Y-140196132D01*
X142590268Y-140153037D01*
X142592054Y-140140999D01*
X142593144Y-140135523D01*
X142600500Y-140098541D01*
X142600500Y-140055244D01*
X142601097Y-140043090D01*
X142605341Y-140000000D01*
X142601097Y-139956907D01*
X142600500Y-139944754D01*
X142600500Y-134901456D01*
X142577280Y-134784727D01*
X142562051Y-134708164D01*
X142534422Y-134641462D01*
X142506276Y-134573510D01*
X142486635Y-134526092D01*
X142486628Y-134526079D01*
X142377139Y-134362218D01*
X142377136Y-134362214D01*
X142234686Y-134219764D01*
X142234655Y-134219735D01*
X141746524Y-133731604D01*
X141738351Y-133722587D01*
X141710884Y-133689118D01*
X141677410Y-133661646D01*
X141668394Y-133653474D01*
X141637784Y-133622863D01*
X141637780Y-133622860D01*
X141601781Y-133598806D01*
X141592007Y-133591557D01*
X141558541Y-133564092D01*
X141558539Y-133564091D01*
X141558538Y-133564090D01*
X141520347Y-133543676D01*
X141509913Y-133537422D01*
X141473914Y-133513369D01*
X141433915Y-133496800D01*
X141422919Y-133491599D01*
X141384730Y-133471187D01*
X141384725Y-133471185D01*
X141343288Y-133458615D01*
X141331850Y-133454523D01*
X141291836Y-133437949D01*
X141291829Y-133437947D01*
X141249378Y-133429503D01*
X141237577Y-133426547D01*
X141196137Y-133413977D01*
X141196130Y-133413975D01*
X141153034Y-133409730D01*
X141141005Y-133407945D01*
X141098543Y-133399500D01*
X141098540Y-133399500D01*
X141055244Y-133399500D01*
X141043090Y-133398903D01*
X141000000Y-133394659D01*
X140956910Y-133398903D01*
X140944756Y-133399500D01*
X140901454Y-133399500D01*
X140858992Y-133407945D01*
X140846964Y-133409730D01*
X140803869Y-133413975D01*
X140803862Y-133413977D01*
X140762423Y-133426547D01*
X140750622Y-133429503D01*
X140708165Y-133437948D01*
X140708158Y-133437950D01*
X140668158Y-133454518D01*
X140656707Y-133458616D01*
X140624314Y-133468443D01*
X140615277Y-133471185D01*
X140615270Y-133471187D01*
X140615266Y-133471188D01*
X140577076Y-133491600D01*
X140566084Y-133496799D01*
X140526087Y-133513367D01*
X140490089Y-133537420D01*
X140479658Y-133543672D01*
X140441464Y-133564088D01*
X140407991Y-133591558D01*
X140398222Y-133598802D01*
X140362228Y-133622853D01*
X140362222Y-133622858D01*
X140331601Y-133653478D01*
X140322589Y-133661645D01*
X140289116Y-133689116D01*
X140261645Y-133722589D01*
X140253478Y-133731601D01*
X140222858Y-133762222D01*
X140222853Y-133762228D01*
X140198802Y-133798222D01*
X140191558Y-133807991D01*
X140164088Y-133841464D01*
X140143672Y-133879658D01*
X140137420Y-133890089D01*
X140113367Y-133926087D01*
X140096799Y-133966084D01*
X140091600Y-133977076D01*
X140071188Y-134015266D01*
X140071187Y-134015270D01*
X140058616Y-134056707D01*
X140054518Y-134068158D01*
X140037950Y-134108158D01*
X140037948Y-134108165D01*
X140029503Y-134150622D01*
X140026547Y-134162423D01*
X140013977Y-134203862D01*
X140013975Y-134203869D01*
X140009730Y-134246964D01*
X140007945Y-134258992D01*
X139999500Y-134301454D01*
X139999500Y-134344754D01*
X139998903Y-134356907D01*
X139994659Y-134399999D01*
X130800500Y-134399999D01*
X130800500Y-134148551D01*
X130820185Y-134081512D01*
X130872989Y-134035757D01*
X130898710Y-134027263D01*
X130964267Y-134013329D01*
X131127593Y-133940612D01*
X131272230Y-133835526D01*
X131391859Y-133702665D01*
X131481250Y-133547835D01*
X131536497Y-133377803D01*
X131555185Y-133200000D01*
X131536497Y-133022197D01*
X131481250Y-132852165D01*
X131391859Y-132697335D01*
X131338236Y-132637781D01*
X131272235Y-132564478D01*
X131272232Y-132564476D01*
X131272231Y-132564475D01*
X131272230Y-132564474D01*
X131127593Y-132459388D01*
X130964267Y-132386671D01*
X130964265Y-132386670D01*
X130835906Y-132359387D01*
X130789391Y-132349500D01*
X130610609Y-132349500D01*
X130579954Y-132356015D01*
X130435733Y-132386670D01*
X130435728Y-132386672D01*
X130272409Y-132459387D01*
X130151964Y-132546895D01*
X130086157Y-132570374D01*
X130028644Y-132559856D01*
X129999533Y-132546895D01*
X129864267Y-132486671D01*
X129864265Y-132486670D01*
X129735906Y-132459387D01*
X129689391Y-132449500D01*
X129510609Y-132449500D01*
X129479954Y-132456015D01*
X129335733Y-132486670D01*
X129335728Y-132486672D01*
X129172408Y-132559387D01*
X129027768Y-132664475D01*
X128908140Y-132797336D01*
X128818750Y-132952164D01*
X128818747Y-132952170D01*
X128763504Y-133122192D01*
X128763503Y-133122194D01*
X128744815Y-133300000D01*
X128763503Y-133477805D01*
X128763504Y-133477807D01*
X128818747Y-133647829D01*
X128818750Y-133647835D01*
X128908141Y-133802665D01*
X128908697Y-133803282D01*
X128917648Y-133813223D01*
X128947879Y-133876213D01*
X128949500Y-133896197D01*
X128949500Y-136665678D01*
X128932887Y-136727678D01*
X128918750Y-136752163D01*
X128863504Y-136922192D01*
X128863503Y-136922194D01*
X128844815Y-137100000D01*
X128863503Y-137277805D01*
X128863504Y-137277807D01*
X128918747Y-137447829D01*
X128918750Y-137447835D01*
X129008141Y-137602665D01*
X129025728Y-137622197D01*
X129127764Y-137735521D01*
X129127767Y-137735523D01*
X129127770Y-137735526D01*
X129272407Y-137840612D01*
X129394915Y-137895155D01*
X129448150Y-137940404D01*
X129468472Y-138007253D01*
X129450708Y-138069953D01*
X129451770Y-138070566D01*
X129359130Y-138231023D01*
X129359127Y-138231029D01*
X129303884Y-138401051D01*
X129303883Y-138401053D01*
X129285195Y-138578859D01*
X129303883Y-138756664D01*
X129303884Y-138756666D01*
X129353227Y-138908526D01*
X129355222Y-138978367D01*
X129322977Y-139034525D01*
X129303811Y-139053691D01*
X129242488Y-139087176D01*
X129172796Y-139082192D01*
X129116863Y-139040320D01*
X129098199Y-139004328D01*
X129081252Y-138952170D01*
X129081249Y-138952164D01*
X129056055Y-138908526D01*
X128991859Y-138797335D01*
X128927713Y-138726094D01*
X128872235Y-138664478D01*
X128872232Y-138664476D01*
X128872231Y-138664475D01*
X128872230Y-138664474D01*
X128727593Y-138559388D01*
X128564267Y-138486671D01*
X128564265Y-138486670D01*
X128436594Y-138459533D01*
X128389391Y-138449500D01*
X128210609Y-138449500D01*
X128179954Y-138456015D01*
X128035733Y-138486670D01*
X128035728Y-138486672D01*
X127872408Y-138559387D01*
X127727768Y-138664475D01*
X127608140Y-138797336D01*
X127518750Y-138952164D01*
X127518747Y-138952170D01*
X127463504Y-139122192D01*
X127463503Y-139122194D01*
X127444815Y-139300000D01*
X127463503Y-139477805D01*
X127463504Y-139477807D01*
X127518747Y-139647829D01*
X127518750Y-139647835D01*
X127608141Y-139802665D01*
X127649998Y-139849152D01*
X127709925Y-139915708D01*
X127740155Y-139978700D01*
X127731530Y-140048035D01*
X127705456Y-140086361D01*
X127519481Y-140272336D01*
X127519475Y-140272344D01*
X127440426Y-140409263D01*
X127440423Y-140409268D01*
X127425850Y-140463655D01*
X127399499Y-140561997D01*
X127399499Y-140561998D01*
X127399499Y-140561999D01*
X127399500Y-140662051D01*
X127399500Y-143199903D01*
X127379815Y-143266942D01*
X127363181Y-143287584D01*
X126937584Y-143713181D01*
X126876261Y-143746666D01*
X126849903Y-143749500D01*
X126810609Y-143749500D01*
X126779954Y-143756015D01*
X126635733Y-143786670D01*
X126635728Y-143786672D01*
X126472408Y-143859387D01*
X126327768Y-143964475D01*
X126286534Y-144010270D01*
X126227047Y-144046918D01*
X126157190Y-144045587D01*
X126121500Y-144027615D01*
X126027597Y-143959390D01*
X126027593Y-143959388D01*
X125864267Y-143886671D01*
X125864265Y-143886670D01*
X125735906Y-143859387D01*
X125689391Y-143849500D01*
X125510609Y-143849500D01*
X125479954Y-143856015D01*
X125335733Y-143886670D01*
X125335728Y-143886672D01*
X125172408Y-143959387D01*
X125027768Y-144064475D01*
X124908140Y-144197336D01*
X124818750Y-144352164D01*
X124818747Y-144352170D01*
X124763504Y-144522192D01*
X124763503Y-144522194D01*
X124744815Y-144700000D01*
X124763503Y-144877805D01*
X124763504Y-144877807D01*
X124818747Y-145047829D01*
X124818750Y-145047835D01*
X124908141Y-145202665D01*
X124949812Y-145248946D01*
X125027764Y-145335521D01*
X125027767Y-145335523D01*
X125027770Y-145335526D01*
X125172407Y-145440612D01*
X125335733Y-145513329D01*
X125510609Y-145550500D01*
X125549903Y-145550500D01*
X125616942Y-145570185D01*
X125637584Y-145586819D01*
X125665139Y-145614374D01*
X125665149Y-145614385D01*
X125669479Y-145618715D01*
X125669480Y-145618716D01*
X125781284Y-145730520D01*
X125781286Y-145730521D01*
X125781290Y-145730524D01*
X125887865Y-145792054D01*
X125918216Y-145809577D01*
X126030019Y-145839534D01*
X126070942Y-145850500D01*
X126070943Y-145850500D01*
X127163331Y-145850500D01*
X127163347Y-145850501D01*
X127164541Y-145850501D01*
X127164862Y-145850595D01*
X127178711Y-145851458D01*
X127178719Y-145851459D01*
X127178332Y-145854550D01*
X127231580Y-145870186D01*
X127277335Y-145922990D01*
X127282472Y-145936183D01*
X127318747Y-146047829D01*
X127318750Y-146047835D01*
X127408141Y-146202665D01*
X127449812Y-146248946D01*
X127527764Y-146335521D01*
X127527767Y-146335523D01*
X127527770Y-146335526D01*
X127654607Y-146427679D01*
X127697271Y-146483008D01*
X127703250Y-146552622D01*
X127670644Y-146614417D01*
X127669401Y-146615677D01*
X127221899Y-147063181D01*
X127160576Y-147096666D01*
X127134218Y-147099500D01*
X125155244Y-147099500D01*
X125143090Y-147098903D01*
X125120377Y-147096666D01*
X125100000Y-147094659D01*
X125079623Y-147096666D01*
X125056910Y-147098903D01*
X125044756Y-147099500D01*
X125001453Y-147099500D01*
X124958991Y-147107945D01*
X124946963Y-147109730D01*
X124903867Y-147113976D01*
X124862427Y-147126546D01*
X124850626Y-147129502D01*
X124808166Y-147137948D01*
X124808161Y-147137949D01*
X124768159Y-147154518D01*
X124756707Y-147158616D01*
X124715272Y-147171186D01*
X124677091Y-147191594D01*
X124666093Y-147196795D01*
X124626091Y-147213364D01*
X124590080Y-147237426D01*
X124579645Y-147243680D01*
X124541465Y-147264087D01*
X124541460Y-147264091D01*
X124507990Y-147291557D01*
X124498225Y-147298799D01*
X124462225Y-147322855D01*
X124462219Y-147322860D01*
X124431595Y-147353483D01*
X124422584Y-147361650D01*
X124389117Y-147389117D01*
X124361650Y-147422584D01*
X124353483Y-147431595D01*
X124322860Y-147462219D01*
X124322855Y-147462225D01*
X124298799Y-147498225D01*
X124291557Y-147507990D01*
X124264091Y-147541460D01*
X124264087Y-147541465D01*
X124243680Y-147579645D01*
X124237426Y-147590080D01*
X124213364Y-147626091D01*
X124196795Y-147666093D01*
X124191594Y-147677091D01*
X124171186Y-147715272D01*
X124158616Y-147756707D01*
X124154518Y-147768159D01*
X124137949Y-147808161D01*
X124137948Y-147808166D01*
X124129502Y-147850626D01*
X124126546Y-147862427D01*
X124113976Y-147903867D01*
X124109730Y-147946963D01*
X124107945Y-147958991D01*
X124099500Y-148001453D01*
X124099500Y-148044754D01*
X124098903Y-148056907D01*
X124094659Y-148099999D01*
X121905341Y-148099999D01*
X121901097Y-148056907D01*
X121900500Y-148044754D01*
X121900500Y-148001458D01*
X121898117Y-147989480D01*
X121892052Y-147958990D01*
X121890268Y-147946961D01*
X121886024Y-147903869D01*
X121886024Y-147903868D01*
X121873448Y-147862414D01*
X121870499Y-147850640D01*
X121862051Y-147808165D01*
X121845480Y-147768159D01*
X121841383Y-147756710D01*
X121828814Y-147715273D01*
X121808404Y-147677091D01*
X121803203Y-147666095D01*
X121786632Y-147626086D01*
X121762572Y-147590078D01*
X121756316Y-147579640D01*
X121735911Y-147541464D01*
X121735910Y-147541462D01*
X121708438Y-147507988D01*
X121701194Y-147498219D01*
X121677140Y-147462219D01*
X121677136Y-147462214D01*
X121646520Y-147431599D01*
X121638346Y-147422581D01*
X121610884Y-147389118D01*
X121577416Y-147361651D01*
X121568401Y-147353479D01*
X121537787Y-147322865D01*
X121537783Y-147322862D01*
X121537780Y-147322860D01*
X121521139Y-147311740D01*
X121501772Y-147298799D01*
X121492002Y-147291552D01*
X121458543Y-147264094D01*
X121458535Y-147264088D01*
X121441436Y-147254948D01*
X121420350Y-147243678D01*
X121409918Y-147237425D01*
X121373918Y-147213370D01*
X121373914Y-147213368D01*
X121333915Y-147196800D01*
X121322913Y-147191597D01*
X121284729Y-147171187D01*
X121284728Y-147171186D01*
X121284727Y-147171186D01*
X121243277Y-147158612D01*
X121231834Y-147154517D01*
X121191834Y-147137948D01*
X121191827Y-147137946D01*
X121149378Y-147129503D01*
X121137575Y-147126547D01*
X121096134Y-147113976D01*
X121096130Y-147113975D01*
X121053035Y-147109730D01*
X121041006Y-147107945D01*
X120998544Y-147099500D01*
X120998541Y-147099500D01*
X120955244Y-147099500D01*
X120943090Y-147098903D01*
X120920377Y-147096666D01*
X120900000Y-147094659D01*
X120879623Y-147096666D01*
X120856910Y-147098903D01*
X120844756Y-147099500D01*
X113624500Y-147099500D01*
X113557461Y-147079815D01*
X113511706Y-147027011D01*
X113500500Y-146975500D01*
X113500500Y-143355244D01*
X113501097Y-143343090D01*
X113505341Y-143300000D01*
X113501097Y-143256907D01*
X113500500Y-143244754D01*
X113500500Y-140579054D01*
X114699498Y-140579054D01*
X114705588Y-140601782D01*
X114740423Y-140731785D01*
X114747909Y-140744751D01*
X114819477Y-140868712D01*
X114819481Y-140868717D01*
X114938349Y-140987585D01*
X114938355Y-140987590D01*
X118613066Y-144662301D01*
X118646551Y-144723624D01*
X118648706Y-144737020D01*
X118663503Y-144877804D01*
X118663504Y-144877807D01*
X118718747Y-145047829D01*
X118718750Y-145047835D01*
X118808141Y-145202665D01*
X118849812Y-145248946D01*
X118927764Y-145335521D01*
X118927767Y-145335523D01*
X118927770Y-145335526D01*
X119072407Y-145440612D01*
X119235733Y-145513329D01*
X119410609Y-145550500D01*
X119410610Y-145550500D01*
X119589389Y-145550500D01*
X119589391Y-145550500D01*
X119764267Y-145513329D01*
X119927593Y-145440612D01*
X120072230Y-145335526D01*
X120090733Y-145314977D01*
X120098148Y-145306741D01*
X120191859Y-145202665D01*
X120281250Y-145047835D01*
X120336497Y-144877803D01*
X120355185Y-144700000D01*
X120336497Y-144522197D01*
X120285774Y-144366087D01*
X120281252Y-144352170D01*
X120281249Y-144352164D01*
X120271375Y-144335061D01*
X120191859Y-144197335D01*
X120124550Y-144122581D01*
X120072235Y-144064478D01*
X120072232Y-144064476D01*
X120072231Y-144064475D01*
X120072230Y-144064474D01*
X119927593Y-143959388D01*
X119764267Y-143886671D01*
X119764265Y-143886670D01*
X119635906Y-143859387D01*
X119589391Y-143849500D01*
X119589390Y-143849500D01*
X119550097Y-143849500D01*
X119483058Y-143829815D01*
X119462416Y-143813181D01*
X116661416Y-141012181D01*
X116627931Y-140950858D01*
X116632915Y-140881166D01*
X116674787Y-140825233D01*
X116740251Y-140800816D01*
X116749097Y-140800500D01*
X117313331Y-140800500D01*
X117313347Y-140800501D01*
X117320943Y-140800501D01*
X117479054Y-140800501D01*
X117479057Y-140800501D01*
X117631785Y-140759577D01*
X117687028Y-140727682D01*
X117768716Y-140680520D01*
X117880520Y-140568716D01*
X117880520Y-140568714D01*
X117890721Y-140558514D01*
X117890724Y-140558509D01*
X118062417Y-140386816D01*
X118123740Y-140353334D01*
X118150097Y-140350500D01*
X118189389Y-140350500D01*
X118189391Y-140350500D01*
X118364267Y-140313329D01*
X118527593Y-140240612D01*
X118672230Y-140135526D01*
X118791859Y-140002665D01*
X118881250Y-139847835D01*
X118936497Y-139677803D01*
X118941842Y-139626943D01*
X118968425Y-139562333D01*
X119025722Y-139522347D01*
X119039368Y-139518621D01*
X119064267Y-139513329D01*
X119227593Y-139440612D01*
X119372230Y-139335526D01*
X119376090Y-139331240D01*
X119416855Y-139285965D01*
X119491859Y-139202665D01*
X119519281Y-139155167D01*
X119538985Y-139129490D01*
X119574441Y-139094035D01*
X119599760Y-139068716D01*
X119599760Y-139068715D01*
X119609962Y-139058514D01*
X119609969Y-139058504D01*
X121358506Y-137309968D01*
X121358511Y-137309964D01*
X121368714Y-137299760D01*
X121368716Y-137299760D01*
X121480520Y-137187956D01*
X121554639Y-137059577D01*
X121559577Y-137051025D01*
X121600500Y-136898298D01*
X121600500Y-136740183D01*
X121600500Y-135370943D01*
X121581100Y-135298541D01*
X121559577Y-135218215D01*
X121559575Y-135218211D01*
X121522804Y-135154522D01*
X121480522Y-135081287D01*
X121480521Y-135081286D01*
X121480520Y-135081284D01*
X121368716Y-134969480D01*
X121368715Y-134969479D01*
X121364385Y-134965149D01*
X121364374Y-134965139D01*
X121286933Y-134887698D01*
X121253448Y-134826375D01*
X121251295Y-134812992D01*
X121236497Y-134672197D01*
X121199843Y-134559388D01*
X121181252Y-134502170D01*
X121181249Y-134502164D01*
X121091859Y-134347335D01*
X121045003Y-134295296D01*
X120972235Y-134214478D01*
X120972232Y-134214476D01*
X120972231Y-134214475D01*
X120972230Y-134214474D01*
X120827593Y-134109388D01*
X120664267Y-134036671D01*
X120664265Y-134036670D01*
X120531380Y-134008425D01*
X120489391Y-133999500D01*
X120310609Y-133999500D01*
X120279954Y-134006015D01*
X120135733Y-134036670D01*
X120135728Y-134036672D01*
X119972408Y-134109387D01*
X119827768Y-134214475D01*
X119708140Y-134347336D01*
X119618750Y-134502164D01*
X119618748Y-134502168D01*
X119576932Y-134630865D01*
X119537494Y-134688540D01*
X119473135Y-134715738D01*
X119426908Y-134712321D01*
X119379057Y-134699499D01*
X119220943Y-134699499D01*
X119213347Y-134699499D01*
X119213331Y-134699500D01*
X118720939Y-134699500D01*
X118688607Y-134708163D01*
X118688608Y-134708164D01*
X118568215Y-134740423D01*
X118505423Y-134776676D01*
X118437523Y-134793147D01*
X118371496Y-134770295D01*
X118351274Y-134752260D01*
X118272235Y-134664478D01*
X118272230Y-134664474D01*
X118223185Y-134628840D01*
X118180520Y-134573510D01*
X118174542Y-134503896D01*
X118207149Y-134442102D01*
X118208309Y-134440924D01*
X118662416Y-133986819D01*
X118723739Y-133953334D01*
X118750097Y-133950500D01*
X118789389Y-133950500D01*
X118789391Y-133950500D01*
X118964267Y-133913329D01*
X119127593Y-133840612D01*
X119272230Y-133735526D01*
X119275762Y-133731604D01*
X119314018Y-133689116D01*
X119391859Y-133602665D01*
X119481250Y-133447835D01*
X119484463Y-133437948D01*
X119492251Y-133413977D01*
X119536497Y-133277803D01*
X119555185Y-133100000D01*
X119536497Y-132922197D01*
X119481250Y-132752165D01*
X119391859Y-132597335D01*
X119345003Y-132545296D01*
X119272235Y-132464478D01*
X119272232Y-132464476D01*
X119272231Y-132464475D01*
X119272230Y-132464474D01*
X119127593Y-132359388D01*
X118964267Y-132286671D01*
X118964265Y-132286670D01*
X118836594Y-132259533D01*
X118789391Y-132249500D01*
X118610609Y-132249500D01*
X118579954Y-132256015D01*
X118435733Y-132286670D01*
X118435728Y-132286672D01*
X118272408Y-132359387D01*
X118127768Y-132464475D01*
X118008140Y-132597336D01*
X117918750Y-132752164D01*
X117918747Y-132752170D01*
X117863504Y-132922192D01*
X117863503Y-132922195D01*
X117848706Y-133062978D01*
X117822121Y-133127593D01*
X117813066Y-133137697D01*
X114931286Y-136019478D01*
X114819481Y-136131282D01*
X114819479Y-136131285D01*
X114776725Y-136205339D01*
X114776724Y-136205340D01*
X114740423Y-136268214D01*
X114740423Y-136268215D01*
X114699499Y-136420943D01*
X114699499Y-136420945D01*
X114699499Y-136589046D01*
X114699500Y-136589059D01*
X114699500Y-140413330D01*
X114699499Y-140413348D01*
X114699499Y-140579054D01*
X114699498Y-140579054D01*
X113500500Y-140579054D01*
X113500500Y-140165098D01*
X113509939Y-140117645D01*
X113535786Y-140055244D01*
X113558669Y-140000000D01*
X113562051Y-139991836D01*
X113600500Y-139798541D01*
X113600500Y-139601460D01*
X113600500Y-135255244D01*
X113601097Y-135243090D01*
X113605341Y-135200000D01*
X113601097Y-135156907D01*
X113600500Y-135144754D01*
X113600500Y-131655244D01*
X113601097Y-131643090D01*
X113605341Y-131600000D01*
X113601097Y-131556907D01*
X113600500Y-131544754D01*
X113600500Y-127698544D01*
X121099500Y-127698544D01*
X121137947Y-127891828D01*
X121137949Y-127891836D01*
X121213367Y-128073910D01*
X121213372Y-128073920D01*
X121322860Y-128237780D01*
X121322863Y-128237784D01*
X121462215Y-128377136D01*
X121462219Y-128377139D01*
X121626079Y-128486627D01*
X121626083Y-128486629D01*
X121626086Y-128486631D01*
X121808164Y-128562051D01*
X122001455Y-128600499D01*
X122001458Y-128600500D01*
X122001460Y-128600500D01*
X122198542Y-128600500D01*
X122198543Y-128600499D01*
X122391836Y-128562051D01*
X122517644Y-128509938D01*
X122565097Y-128500500D01*
X124375500Y-128500500D01*
X124442539Y-128520185D01*
X124488294Y-128572989D01*
X124499500Y-128624500D01*
X124499500Y-131001459D01*
X124499500Y-132098541D01*
X124499500Y-132098543D01*
X124499499Y-132098543D01*
X124537947Y-132291829D01*
X124537950Y-132291839D01*
X124613364Y-132473907D01*
X124613371Y-132473920D01*
X124722860Y-132637781D01*
X124722863Y-132637785D01*
X124862214Y-132777136D01*
X124862218Y-132777139D01*
X125026079Y-132886628D01*
X125026092Y-132886635D01*
X125184295Y-132952164D01*
X125208165Y-132962051D01*
X125208169Y-132962051D01*
X125208170Y-132962052D01*
X125401456Y-133000500D01*
X125401459Y-133000500D01*
X125598543Y-133000500D01*
X125728582Y-132974632D01*
X125791835Y-132962051D01*
X125973914Y-132886632D01*
X126137782Y-132777139D01*
X126277139Y-132637782D01*
X126386632Y-132473914D01*
X126390541Y-132464478D01*
X126403721Y-132432655D01*
X126462051Y-132291835D01*
X126487843Y-132162171D01*
X126500500Y-132098543D01*
X126500500Y-128624500D01*
X126520185Y-128557461D01*
X126572989Y-128511706D01*
X126624500Y-128500500D01*
X129098543Y-128500500D01*
X129228582Y-128474632D01*
X129291835Y-128462051D01*
X129473914Y-128386632D01*
X129637782Y-128277139D01*
X129777139Y-128137782D01*
X129886632Y-127973914D01*
X129962051Y-127791835D01*
X129984866Y-127677136D01*
X130000500Y-127598543D01*
X130000500Y-127401456D01*
X129962052Y-127208170D01*
X129962051Y-127208169D01*
X129962051Y-127208165D01*
X129952860Y-127185976D01*
X129886635Y-127026092D01*
X129886628Y-127026079D01*
X129777139Y-126862218D01*
X129777136Y-126862214D01*
X129637785Y-126722863D01*
X129637781Y-126722860D01*
X129473920Y-126613371D01*
X129473907Y-126613364D01*
X129291839Y-126537950D01*
X129291829Y-126537947D01*
X129098543Y-126499500D01*
X129098541Y-126499500D01*
X125598541Y-126499500D01*
X122298540Y-126499500D01*
X122101459Y-126499500D01*
X122101456Y-126499500D01*
X121908171Y-126537947D01*
X121908163Y-126537949D01*
X121849574Y-126562218D01*
X121849573Y-126562218D01*
X121726092Y-126613364D01*
X121726079Y-126613371D01*
X121562218Y-126722860D01*
X121429932Y-126855146D01*
X121429931Y-126855145D01*
X121429926Y-126855151D01*
X121322864Y-126962215D01*
X121322860Y-126962220D01*
X121213372Y-127126079D01*
X121213367Y-127126089D01*
X121137949Y-127308163D01*
X121137947Y-127308171D01*
X121099500Y-127501455D01*
X121099500Y-127698544D01*
X113600500Y-127698544D01*
X113600500Y-127255244D01*
X113601097Y-127243090D01*
X113601651Y-127237462D01*
X113605341Y-127200000D01*
X113601097Y-127156907D01*
X113600500Y-127144754D01*
X113600500Y-123465096D01*
X113609937Y-123417647D01*
X113630811Y-123367255D01*
X113662051Y-123291836D01*
X113700500Y-123098541D01*
X113700500Y-122901460D01*
X113700500Y-122900000D01*
X115044815Y-122900000D01*
X115063503Y-123077805D01*
X115063504Y-123077807D01*
X115118747Y-123247829D01*
X115118750Y-123247835D01*
X115208141Y-123402665D01*
X115242148Y-123440433D01*
X115327764Y-123535521D01*
X115327767Y-123535523D01*
X115327770Y-123535526D01*
X115472407Y-123640612D01*
X115613737Y-123703535D01*
X115666972Y-123748784D01*
X115687294Y-123815633D01*
X115681232Y-123855130D01*
X115663503Y-123909694D01*
X115644815Y-124087500D01*
X115663503Y-124265305D01*
X115663504Y-124265307D01*
X115718747Y-124435329D01*
X115718750Y-124435335D01*
X115808141Y-124590165D01*
X115849812Y-124636446D01*
X115927764Y-124723021D01*
X115927767Y-124723023D01*
X115927770Y-124723026D01*
X116072407Y-124828112D01*
X116235733Y-124900829D01*
X116235738Y-124900830D01*
X116241913Y-124902837D01*
X116241094Y-124905354D01*
X116292231Y-124932954D01*
X116326015Y-124994113D01*
X116321371Y-125063828D01*
X116297129Y-125104034D01*
X116258140Y-125147335D01*
X116168750Y-125302164D01*
X116168747Y-125302170D01*
X116113504Y-125472192D01*
X116113503Y-125472194D01*
X116094815Y-125650000D01*
X116113503Y-125827805D01*
X116113504Y-125827807D01*
X116168747Y-125997829D01*
X116168750Y-125997835D01*
X116258141Y-126152665D01*
X116290963Y-126189117D01*
X116377764Y-126285521D01*
X116377767Y-126285523D01*
X116377770Y-126285526D01*
X116522407Y-126390612D01*
X116685733Y-126463329D01*
X116860609Y-126500500D01*
X116860610Y-126500500D01*
X117039389Y-126500500D01*
X117039391Y-126500500D01*
X117214267Y-126463329D01*
X117377593Y-126390612D01*
X117522230Y-126285526D01*
X117641859Y-126152665D01*
X117731250Y-125997835D01*
X117786497Y-125827803D01*
X117801294Y-125687018D01*
X117827877Y-125622406D01*
X117836924Y-125612310D01*
X119412417Y-124036819D01*
X119473740Y-124003334D01*
X119500098Y-124000500D01*
X127699903Y-124000500D01*
X127766942Y-124020185D01*
X127787584Y-124036819D01*
X132059265Y-128308501D01*
X132089515Y-128357862D01*
X132098864Y-128386635D01*
X132118750Y-128447835D01*
X132208141Y-128602665D01*
X132249812Y-128648946D01*
X132327764Y-128735521D01*
X132327767Y-128735523D01*
X132327770Y-128735526D01*
X132472407Y-128840612D01*
X132635733Y-128913329D01*
X132810609Y-128950500D01*
X132810610Y-128950500D01*
X132989389Y-128950500D01*
X132989391Y-128950500D01*
X133164267Y-128913329D01*
X133327593Y-128840612D01*
X133472230Y-128735526D01*
X133591859Y-128602665D01*
X133681250Y-128447835D01*
X133736497Y-128277803D01*
X133755185Y-128100000D01*
X133736497Y-127922197D01*
X133735784Y-127920004D01*
X149194451Y-127920004D01*
X149214616Y-128189101D01*
X149274664Y-128452188D01*
X149274666Y-128452195D01*
X149293624Y-128500500D01*
X149373257Y-128703398D01*
X149508185Y-128937102D01*
X149644080Y-129107509D01*
X149676442Y-129148089D01*
X149863183Y-129321358D01*
X149874259Y-129331635D01*
X150097226Y-129483651D01*
X150340359Y-129600738D01*
X150598228Y-129680280D01*
X150598229Y-129680280D01*
X150598232Y-129680281D01*
X150865063Y-129720499D01*
X150865068Y-129720499D01*
X150865071Y-129720500D01*
X150865072Y-129720500D01*
X151134928Y-129720500D01*
X151134929Y-129720500D01*
X151134936Y-129720499D01*
X151401767Y-129680281D01*
X151401768Y-129680280D01*
X151401772Y-129680280D01*
X151659641Y-129600738D01*
X151902775Y-129483651D01*
X152125741Y-129331635D01*
X152323561Y-129148085D01*
X152491815Y-128937102D01*
X152626743Y-128703398D01*
X152725334Y-128452195D01*
X152785383Y-128189103D01*
X152794015Y-128073910D01*
X152805549Y-127920004D01*
X152805549Y-127919995D01*
X152787350Y-127677140D01*
X152785383Y-127650897D01*
X152725334Y-127387805D01*
X152626743Y-127136602D01*
X152491815Y-126902898D01*
X152323561Y-126691915D01*
X152323560Y-126691914D01*
X152323557Y-126691910D01*
X152125741Y-126508365D01*
X152112738Y-126499500D01*
X151902775Y-126356349D01*
X151902769Y-126356346D01*
X151902768Y-126356345D01*
X151902767Y-126356344D01*
X151659643Y-126239263D01*
X151659645Y-126239263D01*
X151401773Y-126159720D01*
X151401767Y-126159718D01*
X151134936Y-126119500D01*
X151134929Y-126119500D01*
X150865071Y-126119500D01*
X150865063Y-126119500D01*
X150598232Y-126159718D01*
X150598226Y-126159720D01*
X150340358Y-126239262D01*
X150097230Y-126356346D01*
X149874258Y-126508365D01*
X149676442Y-126691910D01*
X149508185Y-126902898D01*
X149373258Y-127136599D01*
X149373256Y-127136603D01*
X149274666Y-127387804D01*
X149274664Y-127387811D01*
X149214616Y-127650898D01*
X149194451Y-127919995D01*
X149194451Y-127920004D01*
X133735784Y-127920004D01*
X133692448Y-127786628D01*
X133681252Y-127752170D01*
X133681249Y-127752164D01*
X133591859Y-127597335D01*
X133529045Y-127527573D01*
X133472235Y-127464478D01*
X133472232Y-127464476D01*
X133472231Y-127464475D01*
X133472230Y-127464474D01*
X133327593Y-127359388D01*
X133164267Y-127286671D01*
X133164265Y-127286670D01*
X133164264Y-127286670D01*
X133134446Y-127280332D01*
X133072964Y-127247139D01*
X133039188Y-127185976D01*
X133043840Y-127116262D01*
X133052840Y-127097042D01*
X133081250Y-127047835D01*
X133081529Y-127046978D01*
X133097266Y-126998544D01*
X133136497Y-126877803D01*
X133155185Y-126700000D01*
X133136497Y-126522197D01*
X133105270Y-126426091D01*
X133081252Y-126352170D01*
X133081249Y-126352164D01*
X133075072Y-126341465D01*
X132991859Y-126197335D01*
X132924802Y-126122861D01*
X132872235Y-126064478D01*
X132872232Y-126064476D01*
X132872231Y-126064475D01*
X132872230Y-126064474D01*
X132727593Y-125959388D01*
X132564267Y-125886671D01*
X132564265Y-125886670D01*
X132436594Y-125859533D01*
X132389391Y-125849500D01*
X132210609Y-125849500D01*
X132184197Y-125855113D01*
X132114533Y-125849797D01*
X132070739Y-125821504D01*
X128587590Y-122338355D01*
X128587588Y-122338352D01*
X128468717Y-122219481D01*
X128468709Y-122219475D01*
X128364634Y-122159388D01*
X128364631Y-122159387D01*
X128331786Y-122140423D01*
X128331787Y-122140423D01*
X128270693Y-122124053D01*
X128179057Y-122099499D01*
X128020943Y-122099499D01*
X128013347Y-122099499D01*
X128013331Y-122099500D01*
X117808442Y-122099500D01*
X117655712Y-122140423D01*
X117622869Y-122159387D01*
X117622866Y-122159388D01*
X117518790Y-122219475D01*
X117518782Y-122219481D01*
X117406978Y-122331286D01*
X116946913Y-122791350D01*
X116885590Y-122824835D01*
X116815898Y-122819851D01*
X116759965Y-122777979D01*
X116740382Y-122728012D01*
X116737847Y-122728551D01*
X116736497Y-122722205D01*
X116736497Y-122722197D01*
X116681250Y-122552165D01*
X116591859Y-122397335D01*
X116591855Y-122397329D01*
X116532350Y-122331242D01*
X116502120Y-122268250D01*
X116500500Y-122248270D01*
X116500500Y-121651728D01*
X116520185Y-121584689D01*
X116532350Y-121568756D01*
X116591859Y-121502665D01*
X116681250Y-121347835D01*
X116736497Y-121177803D01*
X116755185Y-121000000D01*
X116736497Y-120822197D01*
X116681250Y-120652165D01*
X116591859Y-120497335D01*
X116545003Y-120445296D01*
X116472235Y-120364478D01*
X116472232Y-120364476D01*
X116472231Y-120364475D01*
X116472230Y-120364474D01*
X116327593Y-120259388D01*
X116164267Y-120186671D01*
X116164265Y-120186670D01*
X116036594Y-120159533D01*
X115989391Y-120149500D01*
X115810609Y-120149500D01*
X115779954Y-120156015D01*
X115635733Y-120186670D01*
X115635728Y-120186672D01*
X115472408Y-120259387D01*
X115327768Y-120364475D01*
X115208140Y-120497336D01*
X115118750Y-120652164D01*
X115118747Y-120652170D01*
X115063504Y-120822192D01*
X115063503Y-120822194D01*
X115044815Y-121000000D01*
X115063503Y-121177805D01*
X115063504Y-121177807D01*
X115118747Y-121347829D01*
X115118750Y-121347835D01*
X115208141Y-121502665D01*
X115267650Y-121568756D01*
X115297880Y-121631747D01*
X115299500Y-121651728D01*
X115299500Y-122248270D01*
X115279815Y-122315309D01*
X115267650Y-122331242D01*
X115208144Y-122397329D01*
X115208139Y-122397336D01*
X115118750Y-122552164D01*
X115118747Y-122552170D01*
X115063504Y-122722192D01*
X115063503Y-122722194D01*
X115044815Y-122900000D01*
X113700500Y-122900000D01*
X113700500Y-120105244D01*
X113701097Y-120093090D01*
X113705341Y-120050000D01*
X113701097Y-120006907D01*
X113700500Y-119994754D01*
X113700500Y-119951458D01*
X113697049Y-119934108D01*
X113692052Y-119908990D01*
X113690268Y-119896961D01*
X113686024Y-119853869D01*
X113686024Y-119853868D01*
X113673448Y-119812414D01*
X113670499Y-119800640D01*
X113662051Y-119758165D01*
X113645480Y-119718159D01*
X113641383Y-119706710D01*
X113628814Y-119665273D01*
X113608404Y-119627091D01*
X113603203Y-119616095D01*
X113586632Y-119576086D01*
X113562572Y-119540078D01*
X113556316Y-119529640D01*
X113535911Y-119491464D01*
X113535910Y-119491462D01*
X113508438Y-119457988D01*
X113501194Y-119448219D01*
X113477140Y-119412219D01*
X113477136Y-119412214D01*
X113446520Y-119381599D01*
X113438346Y-119372581D01*
X113429703Y-119362050D01*
X113410883Y-119339117D01*
X113377415Y-119311650D01*
X113368401Y-119303479D01*
X113337787Y-119272865D01*
X113337783Y-119272862D01*
X113337780Y-119272860D01*
X113321139Y-119261740D01*
X113301772Y-119248799D01*
X113292002Y-119241552D01*
X113258543Y-119214094D01*
X113258535Y-119214088D01*
X113241436Y-119204948D01*
X113220350Y-119193678D01*
X113209918Y-119187425D01*
X113173918Y-119163370D01*
X113173914Y-119163368D01*
X113133915Y-119146800D01*
X113122913Y-119141597D01*
X113084729Y-119121187D01*
X113084728Y-119121186D01*
X113084727Y-119121186D01*
X113043277Y-119108612D01*
X113031834Y-119104517D01*
X112991834Y-119087948D01*
X112991827Y-119087946D01*
X112949378Y-119079503D01*
X112937575Y-119076547D01*
X112896134Y-119063976D01*
X112896130Y-119063975D01*
X112853035Y-119059730D01*
X112841006Y-119057945D01*
X112798544Y-119049500D01*
X112798541Y-119049500D01*
X112755244Y-119049500D01*
X112743090Y-119048903D01*
X112700000Y-119044659D01*
X112656910Y-119048903D01*
X112644756Y-119049500D01*
X112601453Y-119049500D01*
X112558991Y-119057945D01*
X112546963Y-119059730D01*
X112503867Y-119063976D01*
X112462427Y-119076546D01*
X112450626Y-119079502D01*
X112408166Y-119087948D01*
X112408161Y-119087949D01*
X112368159Y-119104518D01*
X112356707Y-119108616D01*
X112315272Y-119121186D01*
X112277091Y-119141594D01*
X112266093Y-119146795D01*
X112226091Y-119163364D01*
X112190080Y-119187426D01*
X112179645Y-119193680D01*
X112141465Y-119214087D01*
X112141460Y-119214091D01*
X112107990Y-119241557D01*
X112098225Y-119248799D01*
X112062225Y-119272855D01*
X112062219Y-119272860D01*
X112031595Y-119303483D01*
X112022584Y-119311650D01*
X111989117Y-119339117D01*
X111961650Y-119372584D01*
X111953483Y-119381595D01*
X111922860Y-119412219D01*
X111922855Y-119412225D01*
X111898799Y-119448225D01*
X111891557Y-119457990D01*
X111864091Y-119491460D01*
X111864087Y-119491465D01*
X111843680Y-119529645D01*
X111837426Y-119540080D01*
X111813364Y-119576091D01*
X111796795Y-119616093D01*
X111791594Y-119627091D01*
X111771186Y-119665272D01*
X111758616Y-119706707D01*
X111754518Y-119718159D01*
X111737949Y-119758161D01*
X111737948Y-119758166D01*
X111729502Y-119800626D01*
X111726546Y-119812427D01*
X111713976Y-119853867D01*
X111709730Y-119896963D01*
X111707945Y-119908991D01*
X111699500Y-119951453D01*
X111699500Y-119994754D01*
X111698903Y-120006907D01*
X111694659Y-120049999D01*
X111698903Y-120093090D01*
X111699500Y-120105244D01*
X111699500Y-122631240D01*
X111684859Y-122689693D01*
X111671186Y-122715273D01*
X111658616Y-122756707D01*
X111654520Y-122768153D01*
X111641544Y-122799486D01*
X111641539Y-122799499D01*
X111637949Y-122808165D01*
X111634633Y-122824835D01*
X111629502Y-122850628D01*
X111626546Y-122862426D01*
X111613976Y-122903867D01*
X111609730Y-122946963D01*
X111607945Y-122958991D01*
X111599500Y-123001453D01*
X111599500Y-123044754D01*
X111598903Y-123056907D01*
X111594659Y-123099999D01*
X111598903Y-123143090D01*
X111599500Y-123155244D01*
X111599500Y-127144754D01*
X111598903Y-127156907D01*
X111594659Y-127200000D01*
X111595463Y-127208160D01*
X111598903Y-127243090D01*
X111599500Y-127255244D01*
X111599500Y-131544754D01*
X111598903Y-131556907D01*
X111594659Y-131599999D01*
X111598903Y-131643090D01*
X111599500Y-131655244D01*
X111599500Y-135144754D01*
X111598903Y-135156907D01*
X111594659Y-135199999D01*
X111598903Y-135243090D01*
X111599500Y-135255244D01*
X111599500Y-139331240D01*
X111584859Y-139389693D01*
X111571186Y-139415273D01*
X111558616Y-139456707D01*
X111554518Y-139468158D01*
X111537950Y-139508158D01*
X111537948Y-139508165D01*
X111529503Y-139550622D01*
X111526547Y-139562423D01*
X111513977Y-139603862D01*
X111513975Y-139603869D01*
X111509730Y-139646963D01*
X111507945Y-139658991D01*
X111499500Y-139701453D01*
X111499500Y-139744754D01*
X111498903Y-139756907D01*
X111494659Y-139800000D01*
X111497119Y-139824977D01*
X111498903Y-139843090D01*
X111499500Y-139855244D01*
X111499500Y-143244754D01*
X111498903Y-143256907D01*
X111494659Y-143299999D01*
X111498903Y-143343090D01*
X111499500Y-143355244D01*
X111499500Y-147898544D01*
X111537946Y-148091825D01*
X111537948Y-148091832D01*
X111537949Y-148091836D01*
X111541329Y-148099996D01*
X111541330Y-148100000D01*
X111541331Y-148100000D01*
X111590061Y-148217645D01*
X111599500Y-148265098D01*
X111599500Y-150434218D01*
X111579815Y-150501257D01*
X111563181Y-150521899D01*
X111521899Y-150563181D01*
X111460576Y-150596666D01*
X111434218Y-150599500D01*
X109655244Y-150599500D01*
X109643090Y-150598903D01*
X109620377Y-150596666D01*
X109600000Y-150594659D01*
X109579623Y-150596666D01*
X109556910Y-150598903D01*
X109544756Y-150599500D01*
X109501453Y-150599500D01*
X109458991Y-150607945D01*
X109446963Y-150609730D01*
X109403867Y-150613976D01*
X109362427Y-150626546D01*
X109350626Y-150629502D01*
X109308166Y-150637948D01*
X109308161Y-150637949D01*
X109268159Y-150654518D01*
X109256707Y-150658616D01*
X109215272Y-150671186D01*
X109177091Y-150691594D01*
X109166093Y-150696795D01*
X109126091Y-150713364D01*
X109090080Y-150737426D01*
X109079645Y-150743680D01*
X109041465Y-150764087D01*
X109041460Y-150764091D01*
X109007990Y-150791557D01*
X108998225Y-150798799D01*
X108962225Y-150822855D01*
X108962219Y-150822860D01*
X108931595Y-150853483D01*
X108922584Y-150861650D01*
X108889117Y-150889117D01*
X108861650Y-150922584D01*
X108853483Y-150931595D01*
X108822860Y-150962219D01*
X108822855Y-150962225D01*
X108798799Y-150998225D01*
X108791557Y-151007990D01*
X108764091Y-151041460D01*
X108764087Y-151041465D01*
X108743680Y-151079645D01*
X108737426Y-151090080D01*
X108713364Y-151126091D01*
X108696795Y-151166093D01*
X108691594Y-151177091D01*
X108671186Y-151215272D01*
X108658616Y-151256707D01*
X108654518Y-151268159D01*
X108637949Y-151308161D01*
X108637948Y-151308166D01*
X108629502Y-151350626D01*
X108626546Y-151362427D01*
X108613976Y-151403867D01*
X108609730Y-151446963D01*
X108607945Y-151458991D01*
X108599500Y-151501453D01*
X108599500Y-151544754D01*
X108598903Y-151556907D01*
X108594659Y-151599999D01*
X94557813Y-151599999D01*
X94536819Y-151579005D01*
X94503334Y-151517682D01*
X94500500Y-151491324D01*
X94500500Y-143000000D01*
X95644341Y-143000000D01*
X95664936Y-143235403D01*
X95664938Y-143235413D01*
X95726094Y-143463655D01*
X95726096Y-143463659D01*
X95726097Y-143463663D01*
X95791227Y-143603334D01*
X95825965Y-143677830D01*
X95825967Y-143677834D01*
X95902176Y-143786671D01*
X95961505Y-143871401D01*
X96128599Y-144038495D01*
X96165704Y-144064476D01*
X96322165Y-144174032D01*
X96322167Y-144174033D01*
X96322170Y-144174035D01*
X96536337Y-144273903D01*
X96536343Y-144273904D01*
X96536344Y-144273905D01*
X96577834Y-144285022D01*
X96764592Y-144335063D01*
X96952918Y-144351539D01*
X96999999Y-144355659D01*
X97000000Y-144355659D01*
X97000001Y-144355659D01*
X97039947Y-144352164D01*
X97235408Y-144335063D01*
X97463663Y-144273903D01*
X97677830Y-144174035D01*
X97871401Y-144038495D01*
X98038495Y-143871401D01*
X98168425Y-143685842D01*
X98223002Y-143642217D01*
X98292500Y-143635023D01*
X98354855Y-143666546D01*
X98371575Y-143685842D01*
X98501500Y-143871395D01*
X98501505Y-143871401D01*
X98668599Y-144038495D01*
X98705704Y-144064476D01*
X98862165Y-144174032D01*
X98862167Y-144174033D01*
X98862170Y-144174035D01*
X99076337Y-144273903D01*
X99076343Y-144273904D01*
X99076344Y-144273905D01*
X99117834Y-144285022D01*
X99304592Y-144335063D01*
X99492918Y-144351539D01*
X99539999Y-144355659D01*
X99540000Y-144355659D01*
X99540001Y-144355659D01*
X99579947Y-144352164D01*
X99775408Y-144335063D01*
X100003663Y-144273903D01*
X100217830Y-144174035D01*
X100411401Y-144038495D01*
X100578495Y-143871401D01*
X100714035Y-143677830D01*
X100813903Y-143463663D01*
X100875063Y-143235408D01*
X100895659Y-143000000D01*
X100875063Y-142764592D01*
X100828626Y-142591285D01*
X100813905Y-142536344D01*
X100813904Y-142536343D01*
X100813903Y-142536337D01*
X100714035Y-142322171D01*
X100708425Y-142314158D01*
X100578494Y-142128597D01*
X100411402Y-141961506D01*
X100411396Y-141961501D01*
X100225842Y-141831575D01*
X100182217Y-141776998D01*
X100175023Y-141707500D01*
X100206546Y-141645145D01*
X100225842Y-141628425D01*
X100319020Y-141563181D01*
X100411401Y-141498495D01*
X100578495Y-141331401D01*
X100714035Y-141137830D01*
X100813903Y-140923663D01*
X100875063Y-140695408D01*
X100895659Y-140460000D01*
X100875063Y-140224592D01*
X100814904Y-140000072D01*
X100813905Y-139996344D01*
X100813904Y-139996343D01*
X100813903Y-139996337D01*
X100714035Y-139782171D01*
X100708425Y-139774158D01*
X100578494Y-139588597D01*
X100411402Y-139421506D01*
X100411396Y-139421501D01*
X100225842Y-139291575D01*
X100182217Y-139236998D01*
X100175023Y-139167500D01*
X100206546Y-139105145D01*
X100225842Y-139088425D01*
X100302819Y-139034525D01*
X100411401Y-138958495D01*
X100578495Y-138791401D01*
X100714035Y-138597830D01*
X100813903Y-138383663D01*
X100875063Y-138155408D01*
X100895659Y-137920000D01*
X100875063Y-137684592D01*
X100813903Y-137456337D01*
X100714035Y-137242171D01*
X100708425Y-137234158D01*
X100578494Y-137048597D01*
X100411402Y-136881506D01*
X100411396Y-136881501D01*
X100225842Y-136751575D01*
X100182217Y-136696998D01*
X100175023Y-136627500D01*
X100206546Y-136565145D01*
X100225842Y-136548425D01*
X100248026Y-136532891D01*
X100411401Y-136418495D01*
X100578495Y-136251401D01*
X100714035Y-136057830D01*
X100813903Y-135843663D01*
X100875063Y-135615408D01*
X100895659Y-135380000D01*
X100875063Y-135144592D01*
X100813903Y-134916337D01*
X100714035Y-134702171D01*
X100708425Y-134694158D01*
X100578494Y-134508597D01*
X100411402Y-134341506D01*
X100411396Y-134341501D01*
X100225842Y-134211575D01*
X100182217Y-134156998D01*
X100175023Y-134087500D01*
X100206546Y-134025145D01*
X100225842Y-134008425D01*
X100308567Y-133950500D01*
X100411401Y-133878495D01*
X100578495Y-133711401D01*
X100714035Y-133517830D01*
X100813903Y-133303663D01*
X100875063Y-133075408D01*
X100895659Y-132840000D01*
X100875063Y-132604592D01*
X100813903Y-132376337D01*
X100714035Y-132162171D01*
X100708425Y-132154158D01*
X100578494Y-131968597D01*
X100411402Y-131801506D01*
X100411396Y-131801501D01*
X100225842Y-131671575D01*
X100182217Y-131616998D01*
X100175023Y-131547500D01*
X100206546Y-131485145D01*
X100225842Y-131468425D01*
X100248026Y-131452891D01*
X100411401Y-131338495D01*
X100578495Y-131171401D01*
X100714035Y-130977830D01*
X100813903Y-130763663D01*
X100875063Y-130535408D01*
X100895659Y-130300000D01*
X100875063Y-130064592D01*
X100813903Y-129836337D01*
X100714035Y-129622171D01*
X100699027Y-129600736D01*
X100578494Y-129428597D01*
X100411402Y-129261506D01*
X100411395Y-129261501D01*
X100217834Y-129125967D01*
X100217830Y-129125965D01*
X100217828Y-129125964D01*
X100003663Y-129026097D01*
X100003659Y-129026096D01*
X100003655Y-129026094D01*
X99775413Y-128964938D01*
X99775403Y-128964936D01*
X99540001Y-128944341D01*
X99539999Y-128944341D01*
X99304596Y-128964936D01*
X99304586Y-128964938D01*
X99076344Y-129026094D01*
X99076335Y-129026098D01*
X98862171Y-129125964D01*
X98862169Y-129125965D01*
X98668597Y-129261505D01*
X98501505Y-129428597D01*
X98365965Y-129622169D01*
X98365964Y-129622171D01*
X98266098Y-129836335D01*
X98266094Y-129836344D01*
X98204938Y-130064586D01*
X98204936Y-130064596D01*
X98184341Y-130299999D01*
X98184341Y-130300000D01*
X98204936Y-130535403D01*
X98204938Y-130535413D01*
X98266094Y-130763655D01*
X98266096Y-130763659D01*
X98266097Y-130763663D01*
X98365965Y-130977830D01*
X98365967Y-130977834D01*
X98501501Y-131171395D01*
X98501506Y-131171402D01*
X98668597Y-131338493D01*
X98668603Y-131338498D01*
X98854158Y-131468425D01*
X98897783Y-131523002D01*
X98904977Y-131592500D01*
X98873454Y-131654855D01*
X98854158Y-131671575D01*
X98668597Y-131801505D01*
X98501505Y-131968597D01*
X98371575Y-132154158D01*
X98316998Y-132197783D01*
X98247500Y-132204977D01*
X98185145Y-132173454D01*
X98168425Y-132154158D01*
X98038494Y-131968597D01*
X97871402Y-131801506D01*
X97871395Y-131801501D01*
X97677834Y-131665967D01*
X97677830Y-131665965D01*
X97654839Y-131655244D01*
X97463663Y-131566097D01*
X97463659Y-131566096D01*
X97463655Y-131566094D01*
X97235413Y-131504938D01*
X97235403Y-131504936D01*
X97000001Y-131484341D01*
X96999999Y-131484341D01*
X96764596Y-131504936D01*
X96764586Y-131504938D01*
X96536344Y-131566094D01*
X96536335Y-131566098D01*
X96322171Y-131665964D01*
X96322169Y-131665965D01*
X96128597Y-131801505D01*
X95961505Y-131968597D01*
X95825965Y-132162169D01*
X95825964Y-132162171D01*
X95726098Y-132376335D01*
X95726094Y-132376344D01*
X95664938Y-132604586D01*
X95664936Y-132604596D01*
X95644341Y-132839999D01*
X95644341Y-132840000D01*
X95664936Y-133075403D01*
X95664938Y-133075413D01*
X95726094Y-133303655D01*
X95726096Y-133303659D01*
X95726097Y-133303663D01*
X95806004Y-133475023D01*
X95825965Y-133517830D01*
X95825967Y-133517834D01*
X95920944Y-133653474D01*
X95961501Y-133711396D01*
X95961506Y-133711402D01*
X96128597Y-133878493D01*
X96128603Y-133878498D01*
X96314158Y-134008425D01*
X96357783Y-134063002D01*
X96364977Y-134132500D01*
X96333454Y-134194855D01*
X96314158Y-134211575D01*
X96128597Y-134341505D01*
X95961505Y-134508597D01*
X95825965Y-134702169D01*
X95825964Y-134702171D01*
X95726098Y-134916335D01*
X95726094Y-134916344D01*
X95664938Y-135144586D01*
X95664936Y-135144596D01*
X95644341Y-135379999D01*
X95644341Y-135380000D01*
X95664936Y-135615403D01*
X95664938Y-135615413D01*
X95726094Y-135843655D01*
X95726096Y-135843659D01*
X95726097Y-135843663D01*
X95730062Y-135852165D01*
X95825965Y-136057830D01*
X95825967Y-136057834D01*
X95925514Y-136200000D01*
X95961501Y-136251396D01*
X95961506Y-136251402D01*
X96128597Y-136418493D01*
X96128603Y-136418498D01*
X96314158Y-136548425D01*
X96357783Y-136603002D01*
X96364977Y-136672500D01*
X96333454Y-136734855D01*
X96314158Y-136751575D01*
X96128597Y-136881505D01*
X95961505Y-137048597D01*
X95825965Y-137242169D01*
X95825964Y-137242171D01*
X95726098Y-137456335D01*
X95726094Y-137456344D01*
X95664938Y-137684586D01*
X95664936Y-137684596D01*
X95644341Y-137919999D01*
X95644341Y-137920000D01*
X95664936Y-138155403D01*
X95664938Y-138155413D01*
X95726094Y-138383655D01*
X95726096Y-138383659D01*
X95726097Y-138383663D01*
X95774130Y-138486670D01*
X95825965Y-138597830D01*
X95825967Y-138597834D01*
X95915779Y-138726098D01*
X95961501Y-138791396D01*
X95961506Y-138791402D01*
X96128597Y-138958493D01*
X96128603Y-138958498D01*
X96314158Y-139088425D01*
X96357783Y-139143002D01*
X96364977Y-139212500D01*
X96333454Y-139274855D01*
X96314158Y-139291575D01*
X96128597Y-139421505D01*
X95961505Y-139588597D01*
X95825965Y-139782169D01*
X95825964Y-139782171D01*
X95726098Y-139996335D01*
X95726094Y-139996344D01*
X95664938Y-140224586D01*
X95664936Y-140224596D01*
X95644341Y-140459999D01*
X95644341Y-140460000D01*
X95664936Y-140695403D01*
X95664938Y-140695413D01*
X95726094Y-140923655D01*
X95726096Y-140923659D01*
X95726097Y-140923663D01*
X95779644Y-141038495D01*
X95825965Y-141137830D01*
X95825967Y-141137834D01*
X95921244Y-141273902D01*
X95961501Y-141331396D01*
X95961506Y-141331402D01*
X96128597Y-141498493D01*
X96128603Y-141498498D01*
X96314158Y-141628425D01*
X96357783Y-141683002D01*
X96364977Y-141752500D01*
X96333454Y-141814855D01*
X96314158Y-141831575D01*
X96128597Y-141961505D01*
X95961505Y-142128597D01*
X95825965Y-142322169D01*
X95825964Y-142322171D01*
X95726098Y-142536335D01*
X95726094Y-142536344D01*
X95664938Y-142764586D01*
X95664936Y-142764596D01*
X95644341Y-142999999D01*
X95644341Y-143000000D01*
X94500500Y-143000000D01*
X94500500Y-126900000D01*
X98534659Y-126900000D01*
X98538903Y-126943090D01*
X98539500Y-126955244D01*
X98539500Y-126998544D01*
X98547945Y-127041006D01*
X98549730Y-127053035D01*
X98553975Y-127096130D01*
X98553976Y-127096134D01*
X98566547Y-127137575D01*
X98569503Y-127149378D01*
X98577946Y-127191827D01*
X98577948Y-127191834D01*
X98594517Y-127231834D01*
X98598612Y-127243277D01*
X98609853Y-127280332D01*
X98611187Y-127284729D01*
X98631597Y-127322913D01*
X98636800Y-127333915D01*
X98653368Y-127373914D01*
X98653370Y-127373918D01*
X98677425Y-127409918D01*
X98683683Y-127420358D01*
X98704088Y-127458535D01*
X98704094Y-127458543D01*
X98731552Y-127492002D01*
X98738799Y-127501772D01*
X98756039Y-127527573D01*
X98762862Y-127537783D01*
X98762865Y-127537787D01*
X98793479Y-127568401D01*
X98801651Y-127577416D01*
X98829118Y-127610884D01*
X98862581Y-127638346D01*
X98871599Y-127646520D01*
X98902214Y-127677136D01*
X98902219Y-127677140D01*
X98938219Y-127701194D01*
X98947988Y-127708438D01*
X98981462Y-127735910D01*
X98981464Y-127735911D01*
X99019640Y-127756316D01*
X99030078Y-127762572D01*
X99066086Y-127786632D01*
X99106095Y-127803203D01*
X99117091Y-127808404D01*
X99155273Y-127828814D01*
X99196710Y-127841383D01*
X99208160Y-127845480D01*
X99248165Y-127862051D01*
X99290640Y-127870499D01*
X99302414Y-127873448D01*
X99343868Y-127886024D01*
X99386964Y-127890268D01*
X99398990Y-127892052D01*
X99429480Y-127898117D01*
X99441458Y-127900500D01*
X99441459Y-127900500D01*
X99484756Y-127900500D01*
X99496909Y-127901096D01*
X99540000Y-127905341D01*
X99583090Y-127901096D01*
X99595244Y-127900500D01*
X99848543Y-127900500D01*
X99993402Y-127871685D01*
X100010842Y-127868216D01*
X100041836Y-127862051D01*
X100100426Y-127837782D01*
X100223914Y-127786632D01*
X100387782Y-127677139D01*
X100527139Y-127537782D01*
X100527139Y-127537780D01*
X100537347Y-127527573D01*
X100537348Y-127527570D01*
X105377140Y-122687781D01*
X105467755Y-122552165D01*
X105486632Y-122523914D01*
X105554230Y-122360717D01*
X105562051Y-122341836D01*
X105587605Y-122213368D01*
X105600500Y-122148541D01*
X105600500Y-119524500D01*
X105620185Y-119457461D01*
X105672989Y-119411706D01*
X105724500Y-119400500D01*
X108348543Y-119400500D01*
X108452291Y-119379862D01*
X108504166Y-119369544D01*
X108541836Y-119362051D01*
X108597203Y-119339117D01*
X108723914Y-119286632D01*
X108887782Y-119177139D01*
X109027139Y-119037782D01*
X109027140Y-119037780D01*
X109168410Y-118896508D01*
X109177420Y-118888344D01*
X109210883Y-118860883D01*
X109238359Y-118827401D01*
X109246502Y-118818417D01*
X109277139Y-118787782D01*
X109301204Y-118751762D01*
X109308433Y-118742016D01*
X109335910Y-118708538D01*
X109356326Y-118670340D01*
X109362579Y-118659909D01*
X109386631Y-118623915D01*
X109403203Y-118583906D01*
X109408407Y-118572904D01*
X109428814Y-118534727D01*
X109441385Y-118493283D01*
X109445477Y-118481847D01*
X109462051Y-118441836D01*
X109470501Y-118399352D01*
X109473448Y-118387586D01*
X109486024Y-118346132D01*
X109490268Y-118303037D01*
X109492054Y-118290999D01*
X109500500Y-118248541D01*
X109500500Y-118205244D01*
X109501097Y-118193090D01*
X109505341Y-118150000D01*
X109501097Y-118106907D01*
X109500500Y-118094754D01*
X109500500Y-118051458D01*
X109492054Y-118009001D01*
X109490268Y-117996961D01*
X109486024Y-117953869D01*
X109486024Y-117953868D01*
X109473450Y-117912419D01*
X109470499Y-117900640D01*
X109462051Y-117858165D01*
X109445483Y-117818168D01*
X109441385Y-117806712D01*
X109428815Y-117765276D01*
X109428814Y-117765275D01*
X109428814Y-117765273D01*
X109408393Y-117727069D01*
X109403199Y-117716084D01*
X109386633Y-117676090D01*
X109386632Y-117676088D01*
X109362579Y-117640090D01*
X109356322Y-117629651D01*
X109352692Y-117622859D01*
X109335910Y-117591462D01*
X109324986Y-117578151D01*
X109308442Y-117557992D01*
X109301193Y-117548219D01*
X109277139Y-117512219D01*
X109277136Y-117512216D01*
X109277134Y-117512213D01*
X109246525Y-117481605D01*
X109238351Y-117472587D01*
X109210884Y-117439118D01*
X109177410Y-117411646D01*
X109168394Y-117403474D01*
X109137784Y-117372863D01*
X109137780Y-117372860D01*
X109101781Y-117348806D01*
X109092007Y-117341557D01*
X109058541Y-117314092D01*
X109058539Y-117314091D01*
X109058538Y-117314090D01*
X109020340Y-117293673D01*
X109009916Y-117287425D01*
X108973914Y-117263369D01*
X108933912Y-117246799D01*
X108922920Y-117241600D01*
X108884727Y-117221186D01*
X108884726Y-117221185D01*
X108884725Y-117221185D01*
X108843293Y-117208616D01*
X108831841Y-117204519D01*
X108812827Y-117196643D01*
X108791835Y-117187949D01*
X108791831Y-117187948D01*
X108791828Y-117187947D01*
X108749377Y-117179503D01*
X108737575Y-117176547D01*
X108696132Y-117163976D01*
X108653037Y-117159731D01*
X108641004Y-117157946D01*
X108598540Y-117149500D01*
X108555244Y-117149500D01*
X108543090Y-117148903D01*
X108500000Y-117144659D01*
X108456910Y-117148903D01*
X108444756Y-117149500D01*
X108401453Y-117149500D01*
X108358991Y-117157945D01*
X108346963Y-117159730D01*
X108303867Y-117163976D01*
X108262433Y-117176544D01*
X108250634Y-117179500D01*
X108208165Y-117187948D01*
X108168162Y-117204517D01*
X108156713Y-117208613D01*
X108115278Y-117221183D01*
X108089660Y-117234875D01*
X108077086Y-117241597D01*
X108077082Y-117241599D01*
X108066086Y-117246799D01*
X108026083Y-117263369D01*
X107990080Y-117287425D01*
X107979649Y-117293677D01*
X107941461Y-117314090D01*
X107907992Y-117341557D01*
X107898221Y-117348803D01*
X107857154Y-117376244D01*
X107856133Y-117374717D01*
X107799745Y-117398666D01*
X107785390Y-117399500D01*
X105101458Y-117399500D01*
X105077685Y-117404229D01*
X105030137Y-117413687D01*
X104908167Y-117437947D01*
X104908159Y-117437950D01*
X104854834Y-117460037D01*
X104854834Y-117460038D01*
X104824539Y-117472587D01*
X104726089Y-117513366D01*
X104726079Y-117513371D01*
X104562219Y-117622859D01*
X104508993Y-117676086D01*
X104422861Y-117762218D01*
X104422858Y-117762221D01*
X103962221Y-118222858D01*
X103962218Y-118222861D01*
X103894080Y-118290999D01*
X103822859Y-118362219D01*
X103713371Y-118526079D01*
X103713364Y-118526092D01*
X103674099Y-118620890D01*
X103674099Y-118620891D01*
X103644712Y-118691837D01*
X103637950Y-118708159D01*
X103637947Y-118708171D01*
X103599500Y-118901454D01*
X103599500Y-121584217D01*
X103579815Y-121651256D01*
X103563181Y-121671898D01*
X99335886Y-125899192D01*
X99274563Y-125932677D01*
X99272398Y-125933128D01*
X99248164Y-125937948D01*
X99248161Y-125937949D01*
X99208159Y-125954518D01*
X99196707Y-125958616D01*
X99155272Y-125971186D01*
X99117091Y-125991594D01*
X99106093Y-125996795D01*
X99066091Y-126013364D01*
X99030080Y-126037426D01*
X99019645Y-126043680D01*
X98981465Y-126064087D01*
X98981460Y-126064091D01*
X98947990Y-126091557D01*
X98938225Y-126098799D01*
X98902225Y-126122855D01*
X98902219Y-126122860D01*
X98871595Y-126153483D01*
X98862584Y-126161650D01*
X98829117Y-126189117D01*
X98801650Y-126222584D01*
X98793483Y-126231595D01*
X98762860Y-126262219D01*
X98762855Y-126262225D01*
X98738799Y-126298225D01*
X98731557Y-126307990D01*
X98704091Y-126341460D01*
X98704087Y-126341465D01*
X98683680Y-126379645D01*
X98677426Y-126390080D01*
X98653364Y-126426091D01*
X98636795Y-126466093D01*
X98631594Y-126477091D01*
X98611186Y-126515272D01*
X98598616Y-126556707D01*
X98594518Y-126568159D01*
X98577949Y-126608161D01*
X98577948Y-126608166D01*
X98569502Y-126650626D01*
X98566546Y-126662427D01*
X98553976Y-126703867D01*
X98549730Y-126746963D01*
X98547945Y-126758991D01*
X98539500Y-126801453D01*
X98539500Y-126844754D01*
X98538903Y-126856907D01*
X98534659Y-126900000D01*
X94500500Y-126900000D01*
X94500500Y-120258676D01*
X94520185Y-120191637D01*
X94536819Y-120170995D01*
X104012810Y-110695004D01*
X115574451Y-110695004D01*
X115594616Y-110964101D01*
X115654664Y-111227188D01*
X115654666Y-111227195D01*
X115753257Y-111478398D01*
X115888185Y-111712102D01*
X116024080Y-111882509D01*
X116056442Y-111923089D01*
X116243183Y-112096358D01*
X116254259Y-112106635D01*
X116477226Y-112258651D01*
X116720359Y-112375738D01*
X116978228Y-112455280D01*
X116978229Y-112455280D01*
X116978232Y-112455281D01*
X117245063Y-112495499D01*
X117245068Y-112495499D01*
X117245071Y-112495500D01*
X117245072Y-112495500D01*
X117514928Y-112495500D01*
X117514929Y-112495500D01*
X117514936Y-112495499D01*
X117781767Y-112455281D01*
X117781768Y-112455280D01*
X117781772Y-112455280D01*
X118039641Y-112375738D01*
X118282775Y-112258651D01*
X118505741Y-112106635D01*
X118703561Y-111923085D01*
X118871815Y-111712102D01*
X119006743Y-111478398D01*
X119105334Y-111227195D01*
X119165383Y-110964103D01*
X119185549Y-110695004D01*
X120654451Y-110695004D01*
X120674616Y-110964101D01*
X120734664Y-111227188D01*
X120734666Y-111227195D01*
X120833257Y-111478398D01*
X120968185Y-111712102D01*
X121104080Y-111882509D01*
X121136442Y-111923089D01*
X121323183Y-112096358D01*
X121334259Y-112106635D01*
X121557226Y-112258651D01*
X121800359Y-112375738D01*
X122058228Y-112455280D01*
X122058229Y-112455280D01*
X122058232Y-112455281D01*
X122325063Y-112495499D01*
X122325068Y-112495499D01*
X122325071Y-112495500D01*
X122325072Y-112495500D01*
X122594928Y-112495500D01*
X122594929Y-112495500D01*
X122594936Y-112495499D01*
X122861767Y-112455281D01*
X122861768Y-112455280D01*
X122861772Y-112455280D01*
X123119641Y-112375738D01*
X123362775Y-112258651D01*
X123585741Y-112106635D01*
X123783561Y-111923085D01*
X123951815Y-111712102D01*
X124086743Y-111478398D01*
X124185334Y-111227195D01*
X124245383Y-110964103D01*
X124265549Y-110695004D01*
X125734451Y-110695004D01*
X125754616Y-110964101D01*
X125814664Y-111227188D01*
X125814666Y-111227195D01*
X125913257Y-111478398D01*
X126048185Y-111712102D01*
X126184080Y-111882509D01*
X126216442Y-111923089D01*
X126403183Y-112096358D01*
X126414259Y-112106635D01*
X126637226Y-112258651D01*
X126880359Y-112375738D01*
X127138228Y-112455280D01*
X127138229Y-112455280D01*
X127138232Y-112455281D01*
X127405063Y-112495499D01*
X127405068Y-112495499D01*
X127405071Y-112495500D01*
X127405072Y-112495500D01*
X127674928Y-112495500D01*
X127674929Y-112495500D01*
X127674936Y-112495499D01*
X127941767Y-112455281D01*
X127941768Y-112455280D01*
X127941772Y-112455280D01*
X128199641Y-112375738D01*
X128442775Y-112258651D01*
X128665741Y-112106635D01*
X128734463Y-112042870D01*
X130819500Y-112042870D01*
X130819501Y-112042876D01*
X130825908Y-112102483D01*
X130876202Y-112237328D01*
X130876206Y-112237335D01*
X130962452Y-112352544D01*
X130962455Y-112352547D01*
X131077664Y-112438793D01*
X131077671Y-112438797D01*
X131212517Y-112489091D01*
X131212516Y-112489091D01*
X131219444Y-112489835D01*
X131272127Y-112495500D01*
X133967872Y-112495499D01*
X134027483Y-112489091D01*
X134162331Y-112438796D01*
X134277546Y-112352546D01*
X134363796Y-112237331D01*
X134414091Y-112102483D01*
X134420500Y-112042873D01*
X134420499Y-109347128D01*
X134414091Y-109287517D01*
X134412542Y-109283365D01*
X134363797Y-109152671D01*
X134363793Y-109152664D01*
X134277547Y-109037455D01*
X134277544Y-109037452D01*
X134162335Y-108951206D01*
X134162328Y-108951202D01*
X134027482Y-108900908D01*
X134027483Y-108900908D01*
X133967883Y-108894501D01*
X133967881Y-108894500D01*
X133967873Y-108894500D01*
X133967864Y-108894500D01*
X131272129Y-108894500D01*
X131272123Y-108894501D01*
X131212516Y-108900908D01*
X131077671Y-108951202D01*
X131077664Y-108951206D01*
X130962455Y-109037452D01*
X130962452Y-109037455D01*
X130876206Y-109152664D01*
X130876202Y-109152671D01*
X130825908Y-109287517D01*
X130819501Y-109347116D01*
X130819501Y-109347123D01*
X130819500Y-109347135D01*
X130819500Y-112042870D01*
X128734463Y-112042870D01*
X128863561Y-111923085D01*
X129031815Y-111712102D01*
X129166743Y-111478398D01*
X129265334Y-111227195D01*
X129325383Y-110964103D01*
X129345549Y-110695000D01*
X129325383Y-110425897D01*
X129265334Y-110162805D01*
X129166743Y-109911602D01*
X129031815Y-109677898D01*
X128863561Y-109466915D01*
X128863560Y-109466914D01*
X128863557Y-109466910D01*
X128665741Y-109283365D01*
X128442775Y-109131349D01*
X128442769Y-109131346D01*
X128442768Y-109131345D01*
X128442767Y-109131344D01*
X128199643Y-109014263D01*
X128199645Y-109014263D01*
X127941773Y-108934720D01*
X127941767Y-108934718D01*
X127674936Y-108894500D01*
X127674929Y-108894500D01*
X127405071Y-108894500D01*
X127405063Y-108894500D01*
X127138232Y-108934718D01*
X127138226Y-108934720D01*
X126880358Y-109014262D01*
X126637230Y-109131346D01*
X126414258Y-109283365D01*
X126216442Y-109466910D01*
X126048185Y-109677898D01*
X125913258Y-109911599D01*
X125913256Y-109911603D01*
X125814666Y-110162804D01*
X125814664Y-110162811D01*
X125754616Y-110425898D01*
X125734451Y-110694995D01*
X125734451Y-110695004D01*
X124265549Y-110695004D01*
X124265549Y-110695000D01*
X124245383Y-110425897D01*
X124185334Y-110162805D01*
X124086743Y-109911602D01*
X123951815Y-109677898D01*
X123783561Y-109466915D01*
X123783560Y-109466914D01*
X123783557Y-109466910D01*
X123585741Y-109283365D01*
X123362775Y-109131349D01*
X123362769Y-109131346D01*
X123362768Y-109131345D01*
X123362767Y-109131344D01*
X123119643Y-109014263D01*
X123119645Y-109014263D01*
X122861773Y-108934720D01*
X122861767Y-108934718D01*
X122594936Y-108894500D01*
X122594929Y-108894500D01*
X122325071Y-108894500D01*
X122325063Y-108894500D01*
X122058232Y-108934718D01*
X122058226Y-108934720D01*
X121800358Y-109014262D01*
X121557230Y-109131346D01*
X121334258Y-109283365D01*
X121136442Y-109466910D01*
X120968185Y-109677898D01*
X120833258Y-109911599D01*
X120833256Y-109911603D01*
X120734666Y-110162804D01*
X120734664Y-110162811D01*
X120674616Y-110425898D01*
X120654451Y-110694995D01*
X120654451Y-110695004D01*
X119185549Y-110695004D01*
X119185549Y-110695000D01*
X119165383Y-110425897D01*
X119105334Y-110162805D01*
X119006743Y-109911602D01*
X118871815Y-109677898D01*
X118703561Y-109466915D01*
X118703560Y-109466914D01*
X118703557Y-109466910D01*
X118505741Y-109283365D01*
X118282775Y-109131349D01*
X118282769Y-109131346D01*
X118282768Y-109131345D01*
X118282767Y-109131344D01*
X118039643Y-109014263D01*
X118039645Y-109014263D01*
X117781773Y-108934720D01*
X117781767Y-108934718D01*
X117514936Y-108894500D01*
X117514929Y-108894500D01*
X117245071Y-108894500D01*
X117245063Y-108894500D01*
X116978232Y-108934718D01*
X116978226Y-108934720D01*
X116720358Y-109014262D01*
X116477230Y-109131346D01*
X116254258Y-109283365D01*
X116056442Y-109466910D01*
X115888185Y-109677898D01*
X115753258Y-109911599D01*
X115753256Y-109911603D01*
X115654666Y-110162804D01*
X115654664Y-110162811D01*
X115594616Y-110425898D01*
X115574451Y-110694995D01*
X115574451Y-110695004D01*
X104012810Y-110695004D01*
X109695995Y-105011819D01*
X109757318Y-104978334D01*
X109783676Y-104975500D01*
X141016324Y-104975500D01*
X141083363Y-104995185D01*
G37*
%TD.AperFunction*%
%TD*%
M02*
