%TF.GenerationSoftware,KiCad,Pcbnew,8.0.1*%
%TF.CreationDate,2024-04-11T10:52:21-07:00*%
%TF.ProjectId,TMC2240_RP2040,544d4332-3234-4305-9f52-50323034302e,rev?*%
%TF.SameCoordinates,Original*%
%TF.FileFunction,Legend,Bot*%
%TF.FilePolarity,Positive*%
%FSLAX46Y46*%
G04 Gerber Fmt 4.6, Leading zero omitted, Abs format (unit mm)*
G04 Created by KiCad (PCBNEW 8.0.1) date 2024-04-11 10:52:21*
%MOMM*%
%LPD*%
G01*
G04 APERTURE LIST*
%ADD10C,0.150000*%
%ADD11C,0.120000*%
G04 APERTURE END LIST*
D10*
X104489987Y-124508207D02*
X104013796Y-124174874D01*
X104489987Y-123936779D02*
X103489987Y-123936779D01*
X103489987Y-123936779D02*
X103489987Y-124317731D01*
X103489987Y-124317731D02*
X103537606Y-124412969D01*
X103537606Y-124412969D02*
X103585225Y-124460588D01*
X103585225Y-124460588D02*
X103680463Y-124508207D01*
X103680463Y-124508207D02*
X103823320Y-124508207D01*
X103823320Y-124508207D02*
X103918558Y-124460588D01*
X103918558Y-124460588D02*
X103966177Y-124412969D01*
X103966177Y-124412969D02*
X104013796Y-124317731D01*
X104013796Y-124317731D02*
X104013796Y-123936779D01*
X104489987Y-124936779D02*
X103489987Y-124936779D01*
X103489987Y-124936779D02*
X103489987Y-125317731D01*
X103489987Y-125317731D02*
X103537606Y-125412969D01*
X103537606Y-125412969D02*
X103585225Y-125460588D01*
X103585225Y-125460588D02*
X103680463Y-125508207D01*
X103680463Y-125508207D02*
X103823320Y-125508207D01*
X103823320Y-125508207D02*
X103918558Y-125460588D01*
X103918558Y-125460588D02*
X103966177Y-125412969D01*
X103966177Y-125412969D02*
X104013796Y-125317731D01*
X104013796Y-125317731D02*
X104013796Y-124936779D01*
X103585225Y-125889160D02*
X103537606Y-125936779D01*
X103537606Y-125936779D02*
X103489987Y-126032017D01*
X103489987Y-126032017D02*
X103489987Y-126270112D01*
X103489987Y-126270112D02*
X103537606Y-126365350D01*
X103537606Y-126365350D02*
X103585225Y-126412969D01*
X103585225Y-126412969D02*
X103680463Y-126460588D01*
X103680463Y-126460588D02*
X103775701Y-126460588D01*
X103775701Y-126460588D02*
X103918558Y-126412969D01*
X103918558Y-126412969D02*
X104489987Y-125841541D01*
X104489987Y-125841541D02*
X104489987Y-126460588D01*
X103489987Y-127079636D02*
X103489987Y-127174874D01*
X103489987Y-127174874D02*
X103537606Y-127270112D01*
X103537606Y-127270112D02*
X103585225Y-127317731D01*
X103585225Y-127317731D02*
X103680463Y-127365350D01*
X103680463Y-127365350D02*
X103870939Y-127412969D01*
X103870939Y-127412969D02*
X104109034Y-127412969D01*
X104109034Y-127412969D02*
X104299510Y-127365350D01*
X104299510Y-127365350D02*
X104394748Y-127317731D01*
X104394748Y-127317731D02*
X104442368Y-127270112D01*
X104442368Y-127270112D02*
X104489987Y-127174874D01*
X104489987Y-127174874D02*
X104489987Y-127079636D01*
X104489987Y-127079636D02*
X104442368Y-126984398D01*
X104442368Y-126984398D02*
X104394748Y-126936779D01*
X104394748Y-126936779D02*
X104299510Y-126889160D01*
X104299510Y-126889160D02*
X104109034Y-126841541D01*
X104109034Y-126841541D02*
X103870939Y-126841541D01*
X103870939Y-126841541D02*
X103680463Y-126889160D01*
X103680463Y-126889160D02*
X103585225Y-126936779D01*
X103585225Y-126936779D02*
X103537606Y-126984398D01*
X103537606Y-126984398D02*
X103489987Y-127079636D01*
X103823320Y-128270112D02*
X104489987Y-128270112D01*
X103442368Y-128032017D02*
X104156653Y-127793922D01*
X104156653Y-127793922D02*
X104156653Y-128412969D01*
X103489987Y-128984398D02*
X103489987Y-129079636D01*
X103489987Y-129079636D02*
X103537606Y-129174874D01*
X103537606Y-129174874D02*
X103585225Y-129222493D01*
X103585225Y-129222493D02*
X103680463Y-129270112D01*
X103680463Y-129270112D02*
X103870939Y-129317731D01*
X103870939Y-129317731D02*
X104109034Y-129317731D01*
X104109034Y-129317731D02*
X104299510Y-129270112D01*
X104299510Y-129270112D02*
X104394748Y-129222493D01*
X104394748Y-129222493D02*
X104442368Y-129174874D01*
X104442368Y-129174874D02*
X104489987Y-129079636D01*
X104489987Y-129079636D02*
X104489987Y-128984398D01*
X104489987Y-128984398D02*
X104442368Y-128889160D01*
X104442368Y-128889160D02*
X104394748Y-128841541D01*
X104394748Y-128841541D02*
X104299510Y-128793922D01*
X104299510Y-128793922D02*
X104109034Y-128746303D01*
X104109034Y-128746303D02*
X103870939Y-128746303D01*
X103870939Y-128746303D02*
X103680463Y-128793922D01*
X103680463Y-128793922D02*
X103585225Y-128841541D01*
X103585225Y-128841541D02*
X103537606Y-128889160D01*
X103537606Y-128889160D02*
X103489987Y-128984398D01*
X104442368Y-130460589D02*
X104489987Y-130603446D01*
X104489987Y-130603446D02*
X104489987Y-130841541D01*
X104489987Y-130841541D02*
X104442368Y-130936779D01*
X104442368Y-130936779D02*
X104394748Y-130984398D01*
X104394748Y-130984398D02*
X104299510Y-131032017D01*
X104299510Y-131032017D02*
X104204272Y-131032017D01*
X104204272Y-131032017D02*
X104109034Y-130984398D01*
X104109034Y-130984398D02*
X104061415Y-130936779D01*
X104061415Y-130936779D02*
X104013796Y-130841541D01*
X104013796Y-130841541D02*
X103966177Y-130651065D01*
X103966177Y-130651065D02*
X103918558Y-130555827D01*
X103918558Y-130555827D02*
X103870939Y-130508208D01*
X103870939Y-130508208D02*
X103775701Y-130460589D01*
X103775701Y-130460589D02*
X103680463Y-130460589D01*
X103680463Y-130460589D02*
X103585225Y-130508208D01*
X103585225Y-130508208D02*
X103537606Y-130555827D01*
X103537606Y-130555827D02*
X103489987Y-130651065D01*
X103489987Y-130651065D02*
X103489987Y-130889160D01*
X103489987Y-130889160D02*
X103537606Y-131032017D01*
X103823320Y-131317732D02*
X103823320Y-131698684D01*
X103489987Y-131460589D02*
X104347129Y-131460589D01*
X104347129Y-131460589D02*
X104442368Y-131508208D01*
X104442368Y-131508208D02*
X104489987Y-131603446D01*
X104489987Y-131603446D02*
X104489987Y-131698684D01*
X104442368Y-132412970D02*
X104489987Y-132317732D01*
X104489987Y-132317732D02*
X104489987Y-132127256D01*
X104489987Y-132127256D02*
X104442368Y-132032018D01*
X104442368Y-132032018D02*
X104347129Y-131984399D01*
X104347129Y-131984399D02*
X103966177Y-131984399D01*
X103966177Y-131984399D02*
X103870939Y-132032018D01*
X103870939Y-132032018D02*
X103823320Y-132127256D01*
X103823320Y-132127256D02*
X103823320Y-132317732D01*
X103823320Y-132317732D02*
X103870939Y-132412970D01*
X103870939Y-132412970D02*
X103966177Y-132460589D01*
X103966177Y-132460589D02*
X104061415Y-132460589D01*
X104061415Y-132460589D02*
X104156653Y-131984399D01*
X103823320Y-132889161D02*
X104823320Y-132889161D01*
X103870939Y-132889161D02*
X103823320Y-132984399D01*
X103823320Y-132984399D02*
X103823320Y-133174875D01*
X103823320Y-133174875D02*
X103870939Y-133270113D01*
X103870939Y-133270113D02*
X103918558Y-133317732D01*
X103918558Y-133317732D02*
X104013796Y-133365351D01*
X104013796Y-133365351D02*
X104299510Y-133365351D01*
X104299510Y-133365351D02*
X104394748Y-133317732D01*
X104394748Y-133317732D02*
X104442368Y-133270113D01*
X104442368Y-133270113D02*
X104489987Y-133174875D01*
X104489987Y-133174875D02*
X104489987Y-132984399D01*
X104489987Y-132984399D02*
X104442368Y-132889161D01*
X103823320Y-133793923D02*
X104823320Y-133793923D01*
X103870939Y-133793923D02*
X103823320Y-133889161D01*
X103823320Y-133889161D02*
X103823320Y-134079637D01*
X103823320Y-134079637D02*
X103870939Y-134174875D01*
X103870939Y-134174875D02*
X103918558Y-134222494D01*
X103918558Y-134222494D02*
X104013796Y-134270113D01*
X104013796Y-134270113D02*
X104299510Y-134270113D01*
X104299510Y-134270113D02*
X104394748Y-134222494D01*
X104394748Y-134222494D02*
X104442368Y-134174875D01*
X104442368Y-134174875D02*
X104489987Y-134079637D01*
X104489987Y-134079637D02*
X104489987Y-133889161D01*
X104489987Y-133889161D02*
X104442368Y-133793923D01*
X104442368Y-135079637D02*
X104489987Y-134984399D01*
X104489987Y-134984399D02*
X104489987Y-134793923D01*
X104489987Y-134793923D02*
X104442368Y-134698685D01*
X104442368Y-134698685D02*
X104347129Y-134651066D01*
X104347129Y-134651066D02*
X103966177Y-134651066D01*
X103966177Y-134651066D02*
X103870939Y-134698685D01*
X103870939Y-134698685D02*
X103823320Y-134793923D01*
X103823320Y-134793923D02*
X103823320Y-134984399D01*
X103823320Y-134984399D02*
X103870939Y-135079637D01*
X103870939Y-135079637D02*
X103966177Y-135127256D01*
X103966177Y-135127256D02*
X104061415Y-135127256D01*
X104061415Y-135127256D02*
X104156653Y-134651066D01*
X104489987Y-135555828D02*
X103823320Y-135555828D01*
X104013796Y-135555828D02*
X103918558Y-135603447D01*
X103918558Y-135603447D02*
X103870939Y-135651066D01*
X103870939Y-135651066D02*
X103823320Y-135746304D01*
X103823320Y-135746304D02*
X103823320Y-135841542D01*
X104394748Y-137508209D02*
X104442368Y-137460590D01*
X104442368Y-137460590D02*
X104489987Y-137317733D01*
X104489987Y-137317733D02*
X104489987Y-137222495D01*
X104489987Y-137222495D02*
X104442368Y-137079638D01*
X104442368Y-137079638D02*
X104347129Y-136984400D01*
X104347129Y-136984400D02*
X104251891Y-136936781D01*
X104251891Y-136936781D02*
X104061415Y-136889162D01*
X104061415Y-136889162D02*
X103918558Y-136889162D01*
X103918558Y-136889162D02*
X103728082Y-136936781D01*
X103728082Y-136936781D02*
X103632844Y-136984400D01*
X103632844Y-136984400D02*
X103537606Y-137079638D01*
X103537606Y-137079638D02*
X103489987Y-137222495D01*
X103489987Y-137222495D02*
X103489987Y-137317733D01*
X103489987Y-137317733D02*
X103537606Y-137460590D01*
X103537606Y-137460590D02*
X103585225Y-137508209D01*
X104489987Y-138079638D02*
X104442368Y-137984400D01*
X104442368Y-137984400D02*
X104394748Y-137936781D01*
X104394748Y-137936781D02*
X104299510Y-137889162D01*
X104299510Y-137889162D02*
X104013796Y-137889162D01*
X104013796Y-137889162D02*
X103918558Y-137936781D01*
X103918558Y-137936781D02*
X103870939Y-137984400D01*
X103870939Y-137984400D02*
X103823320Y-138079638D01*
X103823320Y-138079638D02*
X103823320Y-138222495D01*
X103823320Y-138222495D02*
X103870939Y-138317733D01*
X103870939Y-138317733D02*
X103918558Y-138365352D01*
X103918558Y-138365352D02*
X104013796Y-138412971D01*
X104013796Y-138412971D02*
X104299510Y-138412971D01*
X104299510Y-138412971D02*
X104394748Y-138365352D01*
X104394748Y-138365352D02*
X104442368Y-138317733D01*
X104442368Y-138317733D02*
X104489987Y-138222495D01*
X104489987Y-138222495D02*
X104489987Y-138079638D01*
X103823320Y-138841543D02*
X104489987Y-138841543D01*
X103918558Y-138841543D02*
X103870939Y-138889162D01*
X103870939Y-138889162D02*
X103823320Y-138984400D01*
X103823320Y-138984400D02*
X103823320Y-139127257D01*
X103823320Y-139127257D02*
X103870939Y-139222495D01*
X103870939Y-139222495D02*
X103966177Y-139270114D01*
X103966177Y-139270114D02*
X104489987Y-139270114D01*
X103823320Y-139603448D02*
X103823320Y-139984400D01*
X103489987Y-139746305D02*
X104347129Y-139746305D01*
X104347129Y-139746305D02*
X104442368Y-139793924D01*
X104442368Y-139793924D02*
X104489987Y-139889162D01*
X104489987Y-139889162D02*
X104489987Y-139984400D01*
X104489987Y-140317734D02*
X103823320Y-140317734D01*
X104013796Y-140317734D02*
X103918558Y-140365353D01*
X103918558Y-140365353D02*
X103870939Y-140412972D01*
X103870939Y-140412972D02*
X103823320Y-140508210D01*
X103823320Y-140508210D02*
X103823320Y-140603448D01*
X104489987Y-141079639D02*
X104442368Y-140984401D01*
X104442368Y-140984401D02*
X104394748Y-140936782D01*
X104394748Y-140936782D02*
X104299510Y-140889163D01*
X104299510Y-140889163D02*
X104013796Y-140889163D01*
X104013796Y-140889163D02*
X103918558Y-140936782D01*
X103918558Y-140936782D02*
X103870939Y-140984401D01*
X103870939Y-140984401D02*
X103823320Y-141079639D01*
X103823320Y-141079639D02*
X103823320Y-141222496D01*
X103823320Y-141222496D02*
X103870939Y-141317734D01*
X103870939Y-141317734D02*
X103918558Y-141365353D01*
X103918558Y-141365353D02*
X104013796Y-141412972D01*
X104013796Y-141412972D02*
X104299510Y-141412972D01*
X104299510Y-141412972D02*
X104394748Y-141365353D01*
X104394748Y-141365353D02*
X104442368Y-141317734D01*
X104442368Y-141317734D02*
X104489987Y-141222496D01*
X104489987Y-141222496D02*
X104489987Y-141079639D01*
X104489987Y-141984401D02*
X104442368Y-141889163D01*
X104442368Y-141889163D02*
X104347129Y-141841544D01*
X104347129Y-141841544D02*
X103489987Y-141841544D01*
X104489987Y-142508211D02*
X104442368Y-142412973D01*
X104442368Y-142412973D02*
X104347129Y-142365354D01*
X104347129Y-142365354D02*
X103489987Y-142365354D01*
X104442368Y-143270116D02*
X104489987Y-143174878D01*
X104489987Y-143174878D02*
X104489987Y-142984402D01*
X104489987Y-142984402D02*
X104442368Y-142889164D01*
X104442368Y-142889164D02*
X104347129Y-142841545D01*
X104347129Y-142841545D02*
X103966177Y-142841545D01*
X103966177Y-142841545D02*
X103870939Y-142889164D01*
X103870939Y-142889164D02*
X103823320Y-142984402D01*
X103823320Y-142984402D02*
X103823320Y-143174878D01*
X103823320Y-143174878D02*
X103870939Y-143270116D01*
X103870939Y-143270116D02*
X103966177Y-143317735D01*
X103966177Y-143317735D02*
X104061415Y-143317735D01*
X104061415Y-143317735D02*
X104156653Y-142841545D01*
X104489987Y-143746307D02*
X103823320Y-143746307D01*
X104013796Y-143746307D02*
X103918558Y-143793926D01*
X103918558Y-143793926D02*
X103870939Y-143841545D01*
X103870939Y-143841545D02*
X103823320Y-143936783D01*
X103823320Y-143936783D02*
X103823320Y-144032021D01*
X103489987Y-144984403D02*
X104489987Y-145317736D01*
X104489987Y-145317736D02*
X103489987Y-145651069D01*
X104489987Y-146508212D02*
X104489987Y-145936784D01*
X104489987Y-146222498D02*
X103489987Y-146222498D01*
X103489987Y-146222498D02*
X103632844Y-146127260D01*
X103632844Y-146127260D02*
X103728082Y-146032022D01*
X103728082Y-146032022D02*
X103775701Y-145936784D01*
X104394748Y-146936784D02*
X104442368Y-146984403D01*
X104442368Y-146984403D02*
X104489987Y-146936784D01*
X104489987Y-146936784D02*
X104442368Y-146889165D01*
X104442368Y-146889165D02*
X104394748Y-146936784D01*
X104394748Y-146936784D02*
X104489987Y-146936784D01*
X103489987Y-147603450D02*
X103489987Y-147698688D01*
X103489987Y-147698688D02*
X103537606Y-147793926D01*
X103537606Y-147793926D02*
X103585225Y-147841545D01*
X103585225Y-147841545D02*
X103680463Y-147889164D01*
X103680463Y-147889164D02*
X103870939Y-147936783D01*
X103870939Y-147936783D02*
X104109034Y-147936783D01*
X104109034Y-147936783D02*
X104299510Y-147889164D01*
X104299510Y-147889164D02*
X104394748Y-147841545D01*
X104394748Y-147841545D02*
X104442368Y-147793926D01*
X104442368Y-147793926D02*
X104489987Y-147698688D01*
X104489987Y-147698688D02*
X104489987Y-147603450D01*
X104489987Y-147603450D02*
X104442368Y-147508212D01*
X104442368Y-147508212D02*
X104394748Y-147460593D01*
X104394748Y-147460593D02*
X104299510Y-147412974D01*
X104299510Y-147412974D02*
X104109034Y-147365355D01*
X104109034Y-147365355D02*
X103870939Y-147365355D01*
X103870939Y-147365355D02*
X103680463Y-147412974D01*
X103680463Y-147412974D02*
X103585225Y-147460593D01*
X103585225Y-147460593D02*
X103537606Y-147508212D01*
X103537606Y-147508212D02*
X103489987Y-147603450D01*
X105099931Y-123793922D02*
X105099931Y-124365350D01*
X106099931Y-124079636D02*
X105099931Y-124079636D01*
X106099931Y-124698684D02*
X105099931Y-124698684D01*
X105099931Y-124698684D02*
X105814216Y-125032017D01*
X105814216Y-125032017D02*
X105099931Y-125365350D01*
X105099931Y-125365350D02*
X106099931Y-125365350D01*
X106004692Y-126412969D02*
X106052312Y-126365350D01*
X106052312Y-126365350D02*
X106099931Y-126222493D01*
X106099931Y-126222493D02*
X106099931Y-126127255D01*
X106099931Y-126127255D02*
X106052312Y-125984398D01*
X106052312Y-125984398D02*
X105957073Y-125889160D01*
X105957073Y-125889160D02*
X105861835Y-125841541D01*
X105861835Y-125841541D02*
X105671359Y-125793922D01*
X105671359Y-125793922D02*
X105528502Y-125793922D01*
X105528502Y-125793922D02*
X105338026Y-125841541D01*
X105338026Y-125841541D02*
X105242788Y-125889160D01*
X105242788Y-125889160D02*
X105147550Y-125984398D01*
X105147550Y-125984398D02*
X105099931Y-126127255D01*
X105099931Y-126127255D02*
X105099931Y-126222493D01*
X105099931Y-126222493D02*
X105147550Y-126365350D01*
X105147550Y-126365350D02*
X105195169Y-126412969D01*
X105195169Y-126793922D02*
X105147550Y-126841541D01*
X105147550Y-126841541D02*
X105099931Y-126936779D01*
X105099931Y-126936779D02*
X105099931Y-127174874D01*
X105099931Y-127174874D02*
X105147550Y-127270112D01*
X105147550Y-127270112D02*
X105195169Y-127317731D01*
X105195169Y-127317731D02*
X105290407Y-127365350D01*
X105290407Y-127365350D02*
X105385645Y-127365350D01*
X105385645Y-127365350D02*
X105528502Y-127317731D01*
X105528502Y-127317731D02*
X106099931Y-126746303D01*
X106099931Y-126746303D02*
X106099931Y-127365350D01*
X105195169Y-127746303D02*
X105147550Y-127793922D01*
X105147550Y-127793922D02*
X105099931Y-127889160D01*
X105099931Y-127889160D02*
X105099931Y-128127255D01*
X105099931Y-128127255D02*
X105147550Y-128222493D01*
X105147550Y-128222493D02*
X105195169Y-128270112D01*
X105195169Y-128270112D02*
X105290407Y-128317731D01*
X105290407Y-128317731D02*
X105385645Y-128317731D01*
X105385645Y-128317731D02*
X105528502Y-128270112D01*
X105528502Y-128270112D02*
X106099931Y-127698684D01*
X106099931Y-127698684D02*
X106099931Y-128317731D01*
X105433264Y-129174874D02*
X106099931Y-129174874D01*
X105052312Y-128936779D02*
X105766597Y-128698684D01*
X105766597Y-128698684D02*
X105766597Y-129317731D01*
X105099931Y-129889160D02*
X105099931Y-129984398D01*
X105099931Y-129984398D02*
X105147550Y-130079636D01*
X105147550Y-130079636D02*
X105195169Y-130127255D01*
X105195169Y-130127255D02*
X105290407Y-130174874D01*
X105290407Y-130174874D02*
X105480883Y-130222493D01*
X105480883Y-130222493D02*
X105718978Y-130222493D01*
X105718978Y-130222493D02*
X105909454Y-130174874D01*
X105909454Y-130174874D02*
X106004692Y-130127255D01*
X106004692Y-130127255D02*
X106052312Y-130079636D01*
X106052312Y-130079636D02*
X106099931Y-129984398D01*
X106099931Y-129984398D02*
X106099931Y-129889160D01*
X106099931Y-129889160D02*
X106052312Y-129793922D01*
X106052312Y-129793922D02*
X106004692Y-129746303D01*
X106004692Y-129746303D02*
X105909454Y-129698684D01*
X105909454Y-129698684D02*
X105718978Y-129651065D01*
X105718978Y-129651065D02*
X105480883Y-129651065D01*
X105480883Y-129651065D02*
X105290407Y-129698684D01*
X105290407Y-129698684D02*
X105195169Y-129746303D01*
X105195169Y-129746303D02*
X105147550Y-129793922D01*
X105147550Y-129793922D02*
X105099931Y-129889160D01*
X106052312Y-131365351D02*
X106099931Y-131460589D01*
X106099931Y-131460589D02*
X106099931Y-131651065D01*
X106099931Y-131651065D02*
X106052312Y-131746303D01*
X106052312Y-131746303D02*
X105957073Y-131793922D01*
X105957073Y-131793922D02*
X105909454Y-131793922D01*
X105909454Y-131793922D02*
X105814216Y-131746303D01*
X105814216Y-131746303D02*
X105766597Y-131651065D01*
X105766597Y-131651065D02*
X105766597Y-131508208D01*
X105766597Y-131508208D02*
X105718978Y-131412970D01*
X105718978Y-131412970D02*
X105623740Y-131365351D01*
X105623740Y-131365351D02*
X105576121Y-131365351D01*
X105576121Y-131365351D02*
X105480883Y-131412970D01*
X105480883Y-131412970D02*
X105433264Y-131508208D01*
X105433264Y-131508208D02*
X105433264Y-131651065D01*
X105433264Y-131651065D02*
X105480883Y-131746303D01*
X105433264Y-132079637D02*
X105433264Y-132460589D01*
X105099931Y-132222494D02*
X105957073Y-132222494D01*
X105957073Y-132222494D02*
X106052312Y-132270113D01*
X106052312Y-132270113D02*
X106099931Y-132365351D01*
X106099931Y-132365351D02*
X106099931Y-132460589D01*
X106052312Y-133174875D02*
X106099931Y-133079637D01*
X106099931Y-133079637D02*
X106099931Y-132889161D01*
X106099931Y-132889161D02*
X106052312Y-132793923D01*
X106052312Y-132793923D02*
X105957073Y-132746304D01*
X105957073Y-132746304D02*
X105576121Y-132746304D01*
X105576121Y-132746304D02*
X105480883Y-132793923D01*
X105480883Y-132793923D02*
X105433264Y-132889161D01*
X105433264Y-132889161D02*
X105433264Y-133079637D01*
X105433264Y-133079637D02*
X105480883Y-133174875D01*
X105480883Y-133174875D02*
X105576121Y-133222494D01*
X105576121Y-133222494D02*
X105671359Y-133222494D01*
X105671359Y-133222494D02*
X105766597Y-132746304D01*
X105433264Y-133651066D02*
X106433264Y-133651066D01*
X105480883Y-133651066D02*
X105433264Y-133746304D01*
X105433264Y-133746304D02*
X105433264Y-133936780D01*
X105433264Y-133936780D02*
X105480883Y-134032018D01*
X105480883Y-134032018D02*
X105528502Y-134079637D01*
X105528502Y-134079637D02*
X105623740Y-134127256D01*
X105623740Y-134127256D02*
X105909454Y-134127256D01*
X105909454Y-134127256D02*
X106004692Y-134079637D01*
X106004692Y-134079637D02*
X106052312Y-134032018D01*
X106052312Y-134032018D02*
X106099931Y-133936780D01*
X106099931Y-133936780D02*
X106099931Y-133746304D01*
X106099931Y-133746304D02*
X106052312Y-133651066D01*
X105433264Y-134555828D02*
X106433264Y-134555828D01*
X105480883Y-134555828D02*
X105433264Y-134651066D01*
X105433264Y-134651066D02*
X105433264Y-134841542D01*
X105433264Y-134841542D02*
X105480883Y-134936780D01*
X105480883Y-134936780D02*
X105528502Y-134984399D01*
X105528502Y-134984399D02*
X105623740Y-135032018D01*
X105623740Y-135032018D02*
X105909454Y-135032018D01*
X105909454Y-135032018D02*
X106004692Y-134984399D01*
X106004692Y-134984399D02*
X106052312Y-134936780D01*
X106052312Y-134936780D02*
X106099931Y-134841542D01*
X106099931Y-134841542D02*
X106099931Y-134651066D01*
X106099931Y-134651066D02*
X106052312Y-134555828D01*
X106052312Y-135841542D02*
X106099931Y-135746304D01*
X106099931Y-135746304D02*
X106099931Y-135555828D01*
X106099931Y-135555828D02*
X106052312Y-135460590D01*
X106052312Y-135460590D02*
X105957073Y-135412971D01*
X105957073Y-135412971D02*
X105576121Y-135412971D01*
X105576121Y-135412971D02*
X105480883Y-135460590D01*
X105480883Y-135460590D02*
X105433264Y-135555828D01*
X105433264Y-135555828D02*
X105433264Y-135746304D01*
X105433264Y-135746304D02*
X105480883Y-135841542D01*
X105480883Y-135841542D02*
X105576121Y-135889161D01*
X105576121Y-135889161D02*
X105671359Y-135889161D01*
X105671359Y-135889161D02*
X105766597Y-135412971D01*
X106099931Y-136317733D02*
X105433264Y-136317733D01*
X105623740Y-136317733D02*
X105528502Y-136365352D01*
X105528502Y-136365352D02*
X105480883Y-136412971D01*
X105480883Y-136412971D02*
X105433264Y-136508209D01*
X105433264Y-136508209D02*
X105433264Y-136603447D01*
X106099931Y-138127257D02*
X105099931Y-138127257D01*
X106052312Y-138127257D02*
X106099931Y-138032019D01*
X106099931Y-138032019D02*
X106099931Y-137841543D01*
X106099931Y-137841543D02*
X106052312Y-137746305D01*
X106052312Y-137746305D02*
X106004692Y-137698686D01*
X106004692Y-137698686D02*
X105909454Y-137651067D01*
X105909454Y-137651067D02*
X105623740Y-137651067D01*
X105623740Y-137651067D02*
X105528502Y-137698686D01*
X105528502Y-137698686D02*
X105480883Y-137746305D01*
X105480883Y-137746305D02*
X105433264Y-137841543D01*
X105433264Y-137841543D02*
X105433264Y-138032019D01*
X105433264Y-138032019D02*
X105480883Y-138127257D01*
X106099931Y-138603448D02*
X105433264Y-138603448D01*
X105623740Y-138603448D02*
X105528502Y-138651067D01*
X105528502Y-138651067D02*
X105480883Y-138698686D01*
X105480883Y-138698686D02*
X105433264Y-138793924D01*
X105433264Y-138793924D02*
X105433264Y-138889162D01*
X106099931Y-139222496D02*
X105433264Y-139222496D01*
X105099931Y-139222496D02*
X105147550Y-139174877D01*
X105147550Y-139174877D02*
X105195169Y-139222496D01*
X105195169Y-139222496D02*
X105147550Y-139270115D01*
X105147550Y-139270115D02*
X105099931Y-139222496D01*
X105099931Y-139222496D02*
X105195169Y-139222496D01*
X105433264Y-139603448D02*
X106099931Y-139841543D01*
X106099931Y-139841543D02*
X105433264Y-140079638D01*
X106052312Y-140841543D02*
X106099931Y-140746305D01*
X106099931Y-140746305D02*
X106099931Y-140555829D01*
X106099931Y-140555829D02*
X106052312Y-140460591D01*
X106052312Y-140460591D02*
X105957073Y-140412972D01*
X105957073Y-140412972D02*
X105576121Y-140412972D01*
X105576121Y-140412972D02*
X105480883Y-140460591D01*
X105480883Y-140460591D02*
X105433264Y-140555829D01*
X105433264Y-140555829D02*
X105433264Y-140746305D01*
X105433264Y-140746305D02*
X105480883Y-140841543D01*
X105480883Y-140841543D02*
X105576121Y-140889162D01*
X105576121Y-140889162D02*
X105671359Y-140889162D01*
X105671359Y-140889162D02*
X105766597Y-140412972D01*
X106099931Y-141317734D02*
X105433264Y-141317734D01*
X105623740Y-141317734D02*
X105528502Y-141365353D01*
X105528502Y-141365353D02*
X105480883Y-141412972D01*
X105480883Y-141412972D02*
X105433264Y-141508210D01*
X105433264Y-141508210D02*
X105433264Y-141603448D01*
X107709875Y-123936779D02*
X106709875Y-123936779D01*
X106709875Y-123936779D02*
X107424160Y-124270112D01*
X107424160Y-124270112D02*
X106709875Y-124603445D01*
X106709875Y-124603445D02*
X107709875Y-124603445D01*
X107424160Y-125032017D02*
X107424160Y-125508207D01*
X107709875Y-124936779D02*
X106709875Y-125270112D01*
X106709875Y-125270112D02*
X107709875Y-125603445D01*
X106709875Y-125841541D02*
X107709875Y-126508207D01*
X106709875Y-126508207D02*
X107709875Y-125841541D01*
X106709875Y-126793922D02*
X106709875Y-127412969D01*
X106709875Y-127412969D02*
X107090827Y-127079636D01*
X107090827Y-127079636D02*
X107090827Y-127222493D01*
X107090827Y-127222493D02*
X107138446Y-127317731D01*
X107138446Y-127317731D02*
X107186065Y-127365350D01*
X107186065Y-127365350D02*
X107281303Y-127412969D01*
X107281303Y-127412969D02*
X107519398Y-127412969D01*
X107519398Y-127412969D02*
X107614636Y-127365350D01*
X107614636Y-127365350D02*
X107662256Y-127317731D01*
X107662256Y-127317731D02*
X107709875Y-127222493D01*
X107709875Y-127222493D02*
X107709875Y-126936779D01*
X107709875Y-126936779D02*
X107662256Y-126841541D01*
X107662256Y-126841541D02*
X107614636Y-126793922D01*
X106805113Y-127793922D02*
X106757494Y-127841541D01*
X106757494Y-127841541D02*
X106709875Y-127936779D01*
X106709875Y-127936779D02*
X106709875Y-128174874D01*
X106709875Y-128174874D02*
X106757494Y-128270112D01*
X106757494Y-128270112D02*
X106805113Y-128317731D01*
X106805113Y-128317731D02*
X106900351Y-128365350D01*
X106900351Y-128365350D02*
X106995589Y-128365350D01*
X106995589Y-128365350D02*
X107138446Y-128317731D01*
X107138446Y-128317731D02*
X107709875Y-127746303D01*
X107709875Y-127746303D02*
X107709875Y-128365350D01*
X106709875Y-128698684D02*
X106709875Y-129317731D01*
X106709875Y-129317731D02*
X107090827Y-128984398D01*
X107090827Y-128984398D02*
X107090827Y-129127255D01*
X107090827Y-129127255D02*
X107138446Y-129222493D01*
X107138446Y-129222493D02*
X107186065Y-129270112D01*
X107186065Y-129270112D02*
X107281303Y-129317731D01*
X107281303Y-129317731D02*
X107519398Y-129317731D01*
X107519398Y-129317731D02*
X107614636Y-129270112D01*
X107614636Y-129270112D02*
X107662256Y-129222493D01*
X107662256Y-129222493D02*
X107709875Y-129127255D01*
X107709875Y-129127255D02*
X107709875Y-128841541D01*
X107709875Y-128841541D02*
X107662256Y-128746303D01*
X107662256Y-128746303D02*
X107614636Y-128698684D01*
X106805113Y-129698684D02*
X106757494Y-129746303D01*
X106757494Y-129746303D02*
X106709875Y-129841541D01*
X106709875Y-129841541D02*
X106709875Y-130079636D01*
X106709875Y-130079636D02*
X106757494Y-130174874D01*
X106757494Y-130174874D02*
X106805113Y-130222493D01*
X106805113Y-130222493D02*
X106900351Y-130270112D01*
X106900351Y-130270112D02*
X106995589Y-130270112D01*
X106995589Y-130270112D02*
X107138446Y-130222493D01*
X107138446Y-130222493D02*
X107709875Y-129651065D01*
X107709875Y-129651065D02*
X107709875Y-130270112D01*
X107709875Y-132032017D02*
X107233684Y-131698684D01*
X107709875Y-131460589D02*
X106709875Y-131460589D01*
X106709875Y-131460589D02*
X106709875Y-131841541D01*
X106709875Y-131841541D02*
X106757494Y-131936779D01*
X106757494Y-131936779D02*
X106805113Y-131984398D01*
X106805113Y-131984398D02*
X106900351Y-132032017D01*
X106900351Y-132032017D02*
X107043208Y-132032017D01*
X107043208Y-132032017D02*
X107138446Y-131984398D01*
X107138446Y-131984398D02*
X107186065Y-131936779D01*
X107186065Y-131936779D02*
X107233684Y-131841541D01*
X107233684Y-131841541D02*
X107233684Y-131460589D01*
X107662256Y-132412970D02*
X107709875Y-132555827D01*
X107709875Y-132555827D02*
X107709875Y-132793922D01*
X107709875Y-132793922D02*
X107662256Y-132889160D01*
X107662256Y-132889160D02*
X107614636Y-132936779D01*
X107614636Y-132936779D02*
X107519398Y-132984398D01*
X107519398Y-132984398D02*
X107424160Y-132984398D01*
X107424160Y-132984398D02*
X107328922Y-132936779D01*
X107328922Y-132936779D02*
X107281303Y-132889160D01*
X107281303Y-132889160D02*
X107233684Y-132793922D01*
X107233684Y-132793922D02*
X107186065Y-132603446D01*
X107186065Y-132603446D02*
X107138446Y-132508208D01*
X107138446Y-132508208D02*
X107090827Y-132460589D01*
X107090827Y-132460589D02*
X106995589Y-132412970D01*
X106995589Y-132412970D02*
X106900351Y-132412970D01*
X106900351Y-132412970D02*
X106805113Y-132460589D01*
X106805113Y-132460589D02*
X106757494Y-132508208D01*
X106757494Y-132508208D02*
X106709875Y-132603446D01*
X106709875Y-132603446D02*
X106709875Y-132841541D01*
X106709875Y-132841541D02*
X106757494Y-132984398D01*
X106805113Y-133365351D02*
X106757494Y-133412970D01*
X106757494Y-133412970D02*
X106709875Y-133508208D01*
X106709875Y-133508208D02*
X106709875Y-133746303D01*
X106709875Y-133746303D02*
X106757494Y-133841541D01*
X106757494Y-133841541D02*
X106805113Y-133889160D01*
X106805113Y-133889160D02*
X106900351Y-133936779D01*
X106900351Y-133936779D02*
X106995589Y-133936779D01*
X106995589Y-133936779D02*
X107138446Y-133889160D01*
X107138446Y-133889160D02*
X107709875Y-133317732D01*
X107709875Y-133317732D02*
X107709875Y-133936779D01*
X106709875Y-134270113D02*
X106709875Y-134889160D01*
X106709875Y-134889160D02*
X107090827Y-134555827D01*
X107090827Y-134555827D02*
X107090827Y-134698684D01*
X107090827Y-134698684D02*
X107138446Y-134793922D01*
X107138446Y-134793922D02*
X107186065Y-134841541D01*
X107186065Y-134841541D02*
X107281303Y-134889160D01*
X107281303Y-134889160D02*
X107519398Y-134889160D01*
X107519398Y-134889160D02*
X107614636Y-134841541D01*
X107614636Y-134841541D02*
X107662256Y-134793922D01*
X107662256Y-134793922D02*
X107709875Y-134698684D01*
X107709875Y-134698684D02*
X107709875Y-134412970D01*
X107709875Y-134412970D02*
X107662256Y-134317732D01*
X107662256Y-134317732D02*
X107614636Y-134270113D01*
X106805113Y-135270113D02*
X106757494Y-135317732D01*
X106757494Y-135317732D02*
X106709875Y-135412970D01*
X106709875Y-135412970D02*
X106709875Y-135651065D01*
X106709875Y-135651065D02*
X106757494Y-135746303D01*
X106757494Y-135746303D02*
X106805113Y-135793922D01*
X106805113Y-135793922D02*
X106900351Y-135841541D01*
X106900351Y-135841541D02*
X106995589Y-135841541D01*
X106995589Y-135841541D02*
X107138446Y-135793922D01*
X107138446Y-135793922D02*
X107709875Y-135222494D01*
X107709875Y-135222494D02*
X107709875Y-135841541D01*
X107709875Y-137032018D02*
X107043208Y-137032018D01*
X106709875Y-137032018D02*
X106757494Y-136984399D01*
X106757494Y-136984399D02*
X106805113Y-137032018D01*
X106805113Y-137032018D02*
X106757494Y-137079637D01*
X106757494Y-137079637D02*
X106709875Y-137032018D01*
X106709875Y-137032018D02*
X106805113Y-137032018D01*
X107043208Y-137508208D02*
X107709875Y-137508208D01*
X107138446Y-137508208D02*
X107090827Y-137555827D01*
X107090827Y-137555827D02*
X107043208Y-137651065D01*
X107043208Y-137651065D02*
X107043208Y-137793922D01*
X107043208Y-137793922D02*
X107090827Y-137889160D01*
X107090827Y-137889160D02*
X107186065Y-137936779D01*
X107186065Y-137936779D02*
X107709875Y-137936779D01*
X106662256Y-139127255D02*
X107947970Y-138270113D01*
X107709875Y-139603446D02*
X107662256Y-139508208D01*
X107662256Y-139508208D02*
X107614636Y-139460589D01*
X107614636Y-139460589D02*
X107519398Y-139412970D01*
X107519398Y-139412970D02*
X107233684Y-139412970D01*
X107233684Y-139412970D02*
X107138446Y-139460589D01*
X107138446Y-139460589D02*
X107090827Y-139508208D01*
X107090827Y-139508208D02*
X107043208Y-139603446D01*
X107043208Y-139603446D02*
X107043208Y-139746303D01*
X107043208Y-139746303D02*
X107090827Y-139841541D01*
X107090827Y-139841541D02*
X107138446Y-139889160D01*
X107138446Y-139889160D02*
X107233684Y-139936779D01*
X107233684Y-139936779D02*
X107519398Y-139936779D01*
X107519398Y-139936779D02*
X107614636Y-139889160D01*
X107614636Y-139889160D02*
X107662256Y-139841541D01*
X107662256Y-139841541D02*
X107709875Y-139746303D01*
X107709875Y-139746303D02*
X107709875Y-139603446D01*
X107043208Y-140793922D02*
X107709875Y-140793922D01*
X107043208Y-140365351D02*
X107567017Y-140365351D01*
X107567017Y-140365351D02*
X107662256Y-140412970D01*
X107662256Y-140412970D02*
X107709875Y-140508208D01*
X107709875Y-140508208D02*
X107709875Y-140651065D01*
X107709875Y-140651065D02*
X107662256Y-140746303D01*
X107662256Y-140746303D02*
X107614636Y-140793922D01*
X107043208Y-141127256D02*
X107043208Y-141508208D01*
X106709875Y-141270113D02*
X107567017Y-141270113D01*
X107567017Y-141270113D02*
X107662256Y-141317732D01*
X107662256Y-141317732D02*
X107709875Y-141412970D01*
X107709875Y-141412970D02*
X107709875Y-141508208D01*
X109034104Y-123889160D02*
X109034104Y-124365350D01*
X109319819Y-123793922D02*
X108319819Y-124127255D01*
X108319819Y-124127255D02*
X109319819Y-124460588D01*
X109272200Y-124746303D02*
X109319819Y-124889160D01*
X109319819Y-124889160D02*
X109319819Y-125127255D01*
X109319819Y-125127255D02*
X109272200Y-125222493D01*
X109272200Y-125222493D02*
X109224580Y-125270112D01*
X109224580Y-125270112D02*
X109129342Y-125317731D01*
X109129342Y-125317731D02*
X109034104Y-125317731D01*
X109034104Y-125317731D02*
X108938866Y-125270112D01*
X108938866Y-125270112D02*
X108891247Y-125222493D01*
X108891247Y-125222493D02*
X108843628Y-125127255D01*
X108843628Y-125127255D02*
X108796009Y-124936779D01*
X108796009Y-124936779D02*
X108748390Y-124841541D01*
X108748390Y-124841541D02*
X108700771Y-124793922D01*
X108700771Y-124793922D02*
X108605533Y-124746303D01*
X108605533Y-124746303D02*
X108510295Y-124746303D01*
X108510295Y-124746303D02*
X108415057Y-124793922D01*
X108415057Y-124793922D02*
X108367438Y-124841541D01*
X108367438Y-124841541D02*
X108319819Y-124936779D01*
X108319819Y-124936779D02*
X108319819Y-125174874D01*
X108319819Y-125174874D02*
X108367438Y-125317731D01*
X108319819Y-126222493D02*
X108319819Y-125746303D01*
X108319819Y-125746303D02*
X108796009Y-125698684D01*
X108796009Y-125698684D02*
X108748390Y-125746303D01*
X108748390Y-125746303D02*
X108700771Y-125841541D01*
X108700771Y-125841541D02*
X108700771Y-126079636D01*
X108700771Y-126079636D02*
X108748390Y-126174874D01*
X108748390Y-126174874D02*
X108796009Y-126222493D01*
X108796009Y-126222493D02*
X108891247Y-126270112D01*
X108891247Y-126270112D02*
X109129342Y-126270112D01*
X109129342Y-126270112D02*
X109224580Y-126222493D01*
X109224580Y-126222493D02*
X109272200Y-126174874D01*
X109272200Y-126174874D02*
X109319819Y-126079636D01*
X109319819Y-126079636D02*
X109319819Y-125841541D01*
X109319819Y-125841541D02*
X109272200Y-125746303D01*
X109272200Y-125746303D02*
X109224580Y-125698684D01*
X108319819Y-126889160D02*
X108319819Y-126984398D01*
X108319819Y-126984398D02*
X108367438Y-127079636D01*
X108367438Y-127079636D02*
X108415057Y-127127255D01*
X108415057Y-127127255D02*
X108510295Y-127174874D01*
X108510295Y-127174874D02*
X108700771Y-127222493D01*
X108700771Y-127222493D02*
X108938866Y-127222493D01*
X108938866Y-127222493D02*
X109129342Y-127174874D01*
X109129342Y-127174874D02*
X109224580Y-127127255D01*
X109224580Y-127127255D02*
X109272200Y-127079636D01*
X109272200Y-127079636D02*
X109319819Y-126984398D01*
X109319819Y-126984398D02*
X109319819Y-126889160D01*
X109319819Y-126889160D02*
X109272200Y-126793922D01*
X109272200Y-126793922D02*
X109224580Y-126746303D01*
X109224580Y-126746303D02*
X109129342Y-126698684D01*
X109129342Y-126698684D02*
X108938866Y-126651065D01*
X108938866Y-126651065D02*
X108700771Y-126651065D01*
X108700771Y-126651065D02*
X108510295Y-126698684D01*
X108510295Y-126698684D02*
X108415057Y-126746303D01*
X108415057Y-126746303D02*
X108367438Y-126793922D01*
X108367438Y-126793922D02*
X108319819Y-126889160D01*
X108653152Y-128079636D02*
X109319819Y-128079636D01*
X108272200Y-127841541D02*
X108986485Y-127603446D01*
X108986485Y-127603446D02*
X108986485Y-128222493D01*
X108748390Y-128746303D02*
X108700771Y-128651065D01*
X108700771Y-128651065D02*
X108653152Y-128603446D01*
X108653152Y-128603446D02*
X108557914Y-128555827D01*
X108557914Y-128555827D02*
X108510295Y-128555827D01*
X108510295Y-128555827D02*
X108415057Y-128603446D01*
X108415057Y-128603446D02*
X108367438Y-128651065D01*
X108367438Y-128651065D02*
X108319819Y-128746303D01*
X108319819Y-128746303D02*
X108319819Y-128936779D01*
X108319819Y-128936779D02*
X108367438Y-129032017D01*
X108367438Y-129032017D02*
X108415057Y-129079636D01*
X108415057Y-129079636D02*
X108510295Y-129127255D01*
X108510295Y-129127255D02*
X108557914Y-129127255D01*
X108557914Y-129127255D02*
X108653152Y-129079636D01*
X108653152Y-129079636D02*
X108700771Y-129032017D01*
X108700771Y-129032017D02*
X108748390Y-128936779D01*
X108748390Y-128936779D02*
X108748390Y-128746303D01*
X108748390Y-128746303D02*
X108796009Y-128651065D01*
X108796009Y-128651065D02*
X108843628Y-128603446D01*
X108843628Y-128603446D02*
X108938866Y-128555827D01*
X108938866Y-128555827D02*
X109129342Y-128555827D01*
X109129342Y-128555827D02*
X109224580Y-128603446D01*
X109224580Y-128603446D02*
X109272200Y-128651065D01*
X109272200Y-128651065D02*
X109319819Y-128746303D01*
X109319819Y-128746303D02*
X109319819Y-128936779D01*
X109319819Y-128936779D02*
X109272200Y-129032017D01*
X109272200Y-129032017D02*
X109224580Y-129079636D01*
X109224580Y-129079636D02*
X109129342Y-129127255D01*
X109129342Y-129127255D02*
X108938866Y-129127255D01*
X108938866Y-129127255D02*
X108843628Y-129079636D01*
X108843628Y-129079636D02*
X108796009Y-129032017D01*
X108796009Y-129032017D02*
X108748390Y-128936779D01*
X109272200Y-130698684D02*
X109319819Y-130603446D01*
X109319819Y-130603446D02*
X109319819Y-130412970D01*
X109319819Y-130412970D02*
X109272200Y-130317732D01*
X109272200Y-130317732D02*
X109176961Y-130270113D01*
X109176961Y-130270113D02*
X108796009Y-130270113D01*
X108796009Y-130270113D02*
X108700771Y-130317732D01*
X108700771Y-130317732D02*
X108653152Y-130412970D01*
X108653152Y-130412970D02*
X108653152Y-130603446D01*
X108653152Y-130603446D02*
X108700771Y-130698684D01*
X108700771Y-130698684D02*
X108796009Y-130746303D01*
X108796009Y-130746303D02*
X108891247Y-130746303D01*
X108891247Y-130746303D02*
X108986485Y-130270113D01*
X108653152Y-131174875D02*
X109319819Y-131174875D01*
X108748390Y-131174875D02*
X108700771Y-131222494D01*
X108700771Y-131222494D02*
X108653152Y-131317732D01*
X108653152Y-131317732D02*
X108653152Y-131460589D01*
X108653152Y-131460589D02*
X108700771Y-131555827D01*
X108700771Y-131555827D02*
X108796009Y-131603446D01*
X108796009Y-131603446D02*
X109319819Y-131603446D01*
X109272200Y-132508208D02*
X109319819Y-132412970D01*
X109319819Y-132412970D02*
X109319819Y-132222494D01*
X109319819Y-132222494D02*
X109272200Y-132127256D01*
X109272200Y-132127256D02*
X109224580Y-132079637D01*
X109224580Y-132079637D02*
X109129342Y-132032018D01*
X109129342Y-132032018D02*
X108843628Y-132032018D01*
X108843628Y-132032018D02*
X108748390Y-132079637D01*
X108748390Y-132079637D02*
X108700771Y-132127256D01*
X108700771Y-132127256D02*
X108653152Y-132222494D01*
X108653152Y-132222494D02*
X108653152Y-132412970D01*
X108653152Y-132412970D02*
X108700771Y-132508208D01*
X109319819Y-133079637D02*
X109272200Y-132984399D01*
X109272200Y-132984399D02*
X109224580Y-132936780D01*
X109224580Y-132936780D02*
X109129342Y-132889161D01*
X109129342Y-132889161D02*
X108843628Y-132889161D01*
X108843628Y-132889161D02*
X108748390Y-132936780D01*
X108748390Y-132936780D02*
X108700771Y-132984399D01*
X108700771Y-132984399D02*
X108653152Y-133079637D01*
X108653152Y-133079637D02*
X108653152Y-133222494D01*
X108653152Y-133222494D02*
X108700771Y-133317732D01*
X108700771Y-133317732D02*
X108748390Y-133365351D01*
X108748390Y-133365351D02*
X108843628Y-133412970D01*
X108843628Y-133412970D02*
X109129342Y-133412970D01*
X109129342Y-133412970D02*
X109224580Y-133365351D01*
X109224580Y-133365351D02*
X109272200Y-133317732D01*
X109272200Y-133317732D02*
X109319819Y-133222494D01*
X109319819Y-133222494D02*
X109319819Y-133079637D01*
X109319819Y-134270113D02*
X108319819Y-134270113D01*
X109272200Y-134270113D02*
X109319819Y-134174875D01*
X109319819Y-134174875D02*
X109319819Y-133984399D01*
X109319819Y-133984399D02*
X109272200Y-133889161D01*
X109272200Y-133889161D02*
X109224580Y-133841542D01*
X109224580Y-133841542D02*
X109129342Y-133793923D01*
X109129342Y-133793923D02*
X108843628Y-133793923D01*
X108843628Y-133793923D02*
X108748390Y-133841542D01*
X108748390Y-133841542D02*
X108700771Y-133889161D01*
X108700771Y-133889161D02*
X108653152Y-133984399D01*
X108653152Y-133984399D02*
X108653152Y-134174875D01*
X108653152Y-134174875D02*
X108700771Y-134270113D01*
X109272200Y-135127256D02*
X109319819Y-135032018D01*
X109319819Y-135032018D02*
X109319819Y-134841542D01*
X109319819Y-134841542D02*
X109272200Y-134746304D01*
X109272200Y-134746304D02*
X109176961Y-134698685D01*
X109176961Y-134698685D02*
X108796009Y-134698685D01*
X108796009Y-134698685D02*
X108700771Y-134746304D01*
X108700771Y-134746304D02*
X108653152Y-134841542D01*
X108653152Y-134841542D02*
X108653152Y-135032018D01*
X108653152Y-135032018D02*
X108700771Y-135127256D01*
X108700771Y-135127256D02*
X108796009Y-135174875D01*
X108796009Y-135174875D02*
X108891247Y-135174875D01*
X108891247Y-135174875D02*
X108986485Y-134698685D01*
X109319819Y-135603447D02*
X108653152Y-135603447D01*
X108843628Y-135603447D02*
X108748390Y-135651066D01*
X108748390Y-135651066D02*
X108700771Y-135698685D01*
X108700771Y-135698685D02*
X108653152Y-135793923D01*
X108653152Y-135793923D02*
X108653152Y-135889161D01*
X122472744Y-166200414D02*
X122472744Y-165450414D01*
X122472744Y-165450414D02*
X122222744Y-165986128D01*
X122222744Y-165986128D02*
X121972744Y-165450414D01*
X121972744Y-165450414D02*
X121972744Y-166200414D01*
X121472744Y-165450414D02*
X121329887Y-165450414D01*
X121329887Y-165450414D02*
X121258458Y-165486128D01*
X121258458Y-165486128D02*
X121187030Y-165557557D01*
X121187030Y-165557557D02*
X121151315Y-165700414D01*
X121151315Y-165700414D02*
X121151315Y-165950414D01*
X121151315Y-165950414D02*
X121187030Y-166093271D01*
X121187030Y-166093271D02*
X121258458Y-166164700D01*
X121258458Y-166164700D02*
X121329887Y-166200414D01*
X121329887Y-166200414D02*
X121472744Y-166200414D01*
X121472744Y-166200414D02*
X121544173Y-166164700D01*
X121544173Y-166164700D02*
X121615601Y-166093271D01*
X121615601Y-166093271D02*
X121651315Y-165950414D01*
X121651315Y-165950414D02*
X121651315Y-165700414D01*
X121651315Y-165700414D02*
X121615601Y-165557557D01*
X121615601Y-165557557D02*
X121544173Y-165486128D01*
X121544173Y-165486128D02*
X121472744Y-165450414D01*
X120937030Y-165450414D02*
X120508459Y-165450414D01*
X120722744Y-166200414D02*
X120722744Y-165450414D01*
X120115601Y-165450414D02*
X119972744Y-165450414D01*
X119972744Y-165450414D02*
X119901315Y-165486128D01*
X119901315Y-165486128D02*
X119829887Y-165557557D01*
X119829887Y-165557557D02*
X119794172Y-165700414D01*
X119794172Y-165700414D02*
X119794172Y-165950414D01*
X119794172Y-165950414D02*
X119829887Y-166093271D01*
X119829887Y-166093271D02*
X119901315Y-166164700D01*
X119901315Y-166164700D02*
X119972744Y-166200414D01*
X119972744Y-166200414D02*
X120115601Y-166200414D01*
X120115601Y-166200414D02*
X120187030Y-166164700D01*
X120187030Y-166164700D02*
X120258458Y-166093271D01*
X120258458Y-166093271D02*
X120294172Y-165950414D01*
X120294172Y-165950414D02*
X120294172Y-165700414D01*
X120294172Y-165700414D02*
X120258458Y-165557557D01*
X120258458Y-165557557D02*
X120187030Y-165486128D01*
X120187030Y-165486128D02*
X120115601Y-165450414D01*
X119044173Y-166200414D02*
X119294173Y-165843271D01*
X119472744Y-166200414D02*
X119472744Y-165450414D01*
X119472744Y-165450414D02*
X119187030Y-165450414D01*
X119187030Y-165450414D02*
X119115601Y-165486128D01*
X119115601Y-165486128D02*
X119079887Y-165521842D01*
X119079887Y-165521842D02*
X119044173Y-165593271D01*
X119044173Y-165593271D02*
X119044173Y-165700414D01*
X119044173Y-165700414D02*
X119079887Y-165771842D01*
X119079887Y-165771842D02*
X119115601Y-165807557D01*
X119115601Y-165807557D02*
X119187030Y-165843271D01*
X119187030Y-165843271D02*
X119472744Y-165843271D01*
X136685300Y-163922744D02*
X136685300Y-163351316D01*
X136399585Y-163637030D02*
X136971014Y-163637030D01*
X137149585Y-163101316D02*
X136399585Y-162851316D01*
X136399585Y-162851316D02*
X137149585Y-162601316D01*
X135179887Y-165200414D02*
X134929887Y-165950414D01*
X134929887Y-165950414D02*
X134679887Y-165200414D01*
X134465601Y-166033271D02*
X134465601Y-165433271D01*
X134465601Y-165433271D02*
X134265601Y-165861842D01*
X134265601Y-165861842D02*
X134065601Y-165433271D01*
X134065601Y-165433271D02*
X134065601Y-166033271D01*
X133665602Y-165433271D02*
X133551316Y-165433271D01*
X133551316Y-165433271D02*
X133494173Y-165461842D01*
X133494173Y-165461842D02*
X133437030Y-165518985D01*
X133437030Y-165518985D02*
X133408459Y-165633271D01*
X133408459Y-165633271D02*
X133408459Y-165833271D01*
X133408459Y-165833271D02*
X133437030Y-165947557D01*
X133437030Y-165947557D02*
X133494173Y-166004700D01*
X133494173Y-166004700D02*
X133551316Y-166033271D01*
X133551316Y-166033271D02*
X133665602Y-166033271D01*
X133665602Y-166033271D02*
X133722745Y-166004700D01*
X133722745Y-166004700D02*
X133779887Y-165947557D01*
X133779887Y-165947557D02*
X133808459Y-165833271D01*
X133808459Y-165833271D02*
X133808459Y-165633271D01*
X133808459Y-165633271D02*
X133779887Y-165518985D01*
X133779887Y-165518985D02*
X133722745Y-165461842D01*
X133722745Y-165461842D02*
X133665602Y-165433271D01*
X133237031Y-165433271D02*
X132894174Y-165433271D01*
X133065602Y-166033271D02*
X133065602Y-165433271D01*
X132579888Y-165433271D02*
X132465602Y-165433271D01*
X132465602Y-165433271D02*
X132408459Y-165461842D01*
X132408459Y-165461842D02*
X132351316Y-165518985D01*
X132351316Y-165518985D02*
X132322745Y-165633271D01*
X132322745Y-165633271D02*
X132322745Y-165833271D01*
X132322745Y-165833271D02*
X132351316Y-165947557D01*
X132351316Y-165947557D02*
X132408459Y-166004700D01*
X132408459Y-166004700D02*
X132465602Y-166033271D01*
X132465602Y-166033271D02*
X132579888Y-166033271D01*
X132579888Y-166033271D02*
X132637031Y-166004700D01*
X132637031Y-166004700D02*
X132694173Y-165947557D01*
X132694173Y-165947557D02*
X132722745Y-165833271D01*
X132722745Y-165833271D02*
X132722745Y-165633271D01*
X132722745Y-165633271D02*
X132694173Y-165518985D01*
X132694173Y-165518985D02*
X132637031Y-165461842D01*
X132637031Y-165461842D02*
X132579888Y-165433271D01*
X131722745Y-166033271D02*
X131922745Y-165747557D01*
X132065602Y-166033271D02*
X132065602Y-165433271D01*
X132065602Y-165433271D02*
X131837031Y-165433271D01*
X131837031Y-165433271D02*
X131779888Y-165461842D01*
X131779888Y-165461842D02*
X131751317Y-165490414D01*
X131751317Y-165490414D02*
X131722745Y-165547557D01*
X131722745Y-165547557D02*
X131722745Y-165633271D01*
X131722745Y-165633271D02*
X131751317Y-165690414D01*
X131751317Y-165690414D02*
X131779888Y-165718985D01*
X131779888Y-165718985D02*
X131837031Y-165747557D01*
X131837031Y-165747557D02*
X132065602Y-165747557D01*
X130063871Y-164129887D02*
X130099585Y-164201316D01*
X130099585Y-164201316D02*
X130099585Y-164308458D01*
X130099585Y-164308458D02*
X130063871Y-164415601D01*
X130063871Y-164415601D02*
X129992442Y-164487030D01*
X129992442Y-164487030D02*
X129921014Y-164522744D01*
X129921014Y-164522744D02*
X129778157Y-164558458D01*
X129778157Y-164558458D02*
X129671014Y-164558458D01*
X129671014Y-164558458D02*
X129528157Y-164522744D01*
X129528157Y-164522744D02*
X129456728Y-164487030D01*
X129456728Y-164487030D02*
X129385300Y-164415601D01*
X129385300Y-164415601D02*
X129349585Y-164308458D01*
X129349585Y-164308458D02*
X129349585Y-164237030D01*
X129349585Y-164237030D02*
X129385300Y-164129887D01*
X129385300Y-164129887D02*
X129421014Y-164094173D01*
X129421014Y-164094173D02*
X129671014Y-164094173D01*
X129671014Y-164094173D02*
X129671014Y-164237030D01*
X129349585Y-163772744D02*
X130099585Y-163772744D01*
X130099585Y-163772744D02*
X129349585Y-163344173D01*
X129349585Y-163344173D02*
X130099585Y-163344173D01*
X129349585Y-162987030D02*
X130099585Y-162987030D01*
X130099585Y-162987030D02*
X130099585Y-162808459D01*
X130099585Y-162808459D02*
X130063871Y-162701316D01*
X130063871Y-162701316D02*
X129992442Y-162629887D01*
X129992442Y-162629887D02*
X129921014Y-162594173D01*
X129921014Y-162594173D02*
X129778157Y-162558459D01*
X129778157Y-162558459D02*
X129671014Y-162558459D01*
X129671014Y-162558459D02*
X129528157Y-162594173D01*
X129528157Y-162594173D02*
X129456728Y-162629887D01*
X129456728Y-162629887D02*
X129385300Y-162701316D01*
X129385300Y-162701316D02*
X129349585Y-162808459D01*
X129349585Y-162808459D02*
X129349585Y-162987030D01*
X154863871Y-132008458D02*
X154863871Y-131651316D01*
X154649585Y-132079887D02*
X155399585Y-131829887D01*
X155399585Y-131829887D02*
X154649585Y-131579887D01*
X154649585Y-131329887D02*
X155399585Y-131329887D01*
X154499585Y-137122744D02*
X155249585Y-137122744D01*
X155249585Y-136622744D02*
X155249585Y-136479887D01*
X155249585Y-136479887D02*
X155213871Y-136408458D01*
X155213871Y-136408458D02*
X155142442Y-136337030D01*
X155142442Y-136337030D02*
X154999585Y-136301315D01*
X154999585Y-136301315D02*
X154749585Y-136301315D01*
X154749585Y-136301315D02*
X154606728Y-136337030D01*
X154606728Y-136337030D02*
X154535300Y-136408458D01*
X154535300Y-136408458D02*
X154499585Y-136479887D01*
X154499585Y-136479887D02*
X154499585Y-136622744D01*
X154499585Y-136622744D02*
X154535300Y-136694173D01*
X154535300Y-136694173D02*
X154606728Y-136765601D01*
X154606728Y-136765601D02*
X154749585Y-136801315D01*
X154749585Y-136801315D02*
X154999585Y-136801315D01*
X154999585Y-136801315D02*
X155142442Y-136765601D01*
X155142442Y-136765601D02*
X155213871Y-136694173D01*
X155213871Y-136694173D02*
X155249585Y-136622744D01*
X155249585Y-142544173D02*
X155249585Y-142079887D01*
X155249585Y-142079887D02*
X154963871Y-142329887D01*
X154963871Y-142329887D02*
X154963871Y-142222744D01*
X154963871Y-142222744D02*
X154928157Y-142151316D01*
X154928157Y-142151316D02*
X154892442Y-142115601D01*
X154892442Y-142115601D02*
X154821014Y-142079887D01*
X154821014Y-142079887D02*
X154642442Y-142079887D01*
X154642442Y-142079887D02*
X154571014Y-142115601D01*
X154571014Y-142115601D02*
X154535300Y-142151316D01*
X154535300Y-142151316D02*
X154499585Y-142222744D01*
X154499585Y-142222744D02*
X154499585Y-142437030D01*
X154499585Y-142437030D02*
X154535300Y-142508458D01*
X154535300Y-142508458D02*
X154571014Y-142544173D01*
X155249585Y-141865601D02*
X154499585Y-141615601D01*
X154499585Y-141615601D02*
X155249585Y-141365601D01*
X155249585Y-141187030D02*
X155249585Y-140722744D01*
X155249585Y-140722744D02*
X154963871Y-140972744D01*
X154963871Y-140972744D02*
X154963871Y-140865601D01*
X154963871Y-140865601D02*
X154928157Y-140794173D01*
X154928157Y-140794173D02*
X154892442Y-140758458D01*
X154892442Y-140758458D02*
X154821014Y-140722744D01*
X154821014Y-140722744D02*
X154642442Y-140722744D01*
X154642442Y-140722744D02*
X154571014Y-140758458D01*
X154571014Y-140758458D02*
X154535300Y-140794173D01*
X154535300Y-140794173D02*
X154499585Y-140865601D01*
X154499585Y-140865601D02*
X154499585Y-141079887D01*
X154499585Y-141079887D02*
X154535300Y-141151315D01*
X154535300Y-141151315D02*
X154571014Y-141187030D01*
X150399585Y-134715601D02*
X150399585Y-135072744D01*
X150399585Y-135072744D02*
X151149585Y-135072744D01*
X150399585Y-134465601D02*
X151149585Y-134465601D01*
X150399585Y-134108458D02*
X151149585Y-134108458D01*
X151149585Y-134108458D02*
X150613871Y-133858458D01*
X150613871Y-133858458D02*
X151149585Y-133608458D01*
X151149585Y-133608458D02*
X150399585Y-133608458D01*
X150399585Y-133251315D02*
X151149585Y-133251315D01*
X151149585Y-133001315D02*
X151149585Y-132572744D01*
X150399585Y-132787029D02*
X151149585Y-132787029D01*
X150435300Y-132358457D02*
X150399585Y-132251315D01*
X150399585Y-132251315D02*
X150399585Y-132072743D01*
X150399585Y-132072743D02*
X150435300Y-132001315D01*
X150435300Y-132001315D02*
X150471014Y-131965600D01*
X150471014Y-131965600D02*
X150542442Y-131929886D01*
X150542442Y-131929886D02*
X150613871Y-131929886D01*
X150613871Y-131929886D02*
X150685300Y-131965600D01*
X150685300Y-131965600D02*
X150721014Y-132001315D01*
X150721014Y-132001315D02*
X150756728Y-132072743D01*
X150756728Y-132072743D02*
X150792442Y-132215600D01*
X150792442Y-132215600D02*
X150828157Y-132287029D01*
X150828157Y-132287029D02*
X150863871Y-132322743D01*
X150863871Y-132322743D02*
X150935300Y-132358457D01*
X150935300Y-132358457D02*
X151006728Y-132358457D01*
X151006728Y-132358457D02*
X151078157Y-132322743D01*
X151078157Y-132322743D02*
X151113871Y-132287029D01*
X151113871Y-132287029D02*
X151149585Y-132215600D01*
X151149585Y-132215600D02*
X151149585Y-132037029D01*
X151149585Y-132037029D02*
X151113871Y-131929886D01*
X154599585Y-134822744D02*
X155349585Y-134822744D01*
X155349585Y-134322744D02*
X155349585Y-134179887D01*
X155349585Y-134179887D02*
X155313871Y-134108458D01*
X155313871Y-134108458D02*
X155242442Y-134037030D01*
X155242442Y-134037030D02*
X155099585Y-134001315D01*
X155099585Y-134001315D02*
X154849585Y-134001315D01*
X154849585Y-134001315D02*
X154706728Y-134037030D01*
X154706728Y-134037030D02*
X154635300Y-134108458D01*
X154635300Y-134108458D02*
X154599585Y-134179887D01*
X154599585Y-134179887D02*
X154599585Y-134322744D01*
X154599585Y-134322744D02*
X154635300Y-134394173D01*
X154635300Y-134394173D02*
X154706728Y-134465601D01*
X154706728Y-134465601D02*
X154849585Y-134501315D01*
X154849585Y-134501315D02*
X155099585Y-134501315D01*
X155099585Y-134501315D02*
X155242442Y-134465601D01*
X155242442Y-134465601D02*
X155313871Y-134394173D01*
X155313871Y-134394173D02*
X155349585Y-134322744D01*
X154499585Y-139722744D02*
X155249585Y-139722744D01*
X155249585Y-139222744D02*
X155249585Y-139079887D01*
X155249585Y-139079887D02*
X155213871Y-139008458D01*
X155213871Y-139008458D02*
X155142442Y-138937030D01*
X155142442Y-138937030D02*
X154999585Y-138901315D01*
X154999585Y-138901315D02*
X154749585Y-138901315D01*
X154749585Y-138901315D02*
X154606728Y-138937030D01*
X154606728Y-138937030D02*
X154535300Y-139008458D01*
X154535300Y-139008458D02*
X154499585Y-139079887D01*
X154499585Y-139079887D02*
X154499585Y-139222744D01*
X154499585Y-139222744D02*
X154535300Y-139294173D01*
X154535300Y-139294173D02*
X154606728Y-139365601D01*
X154606728Y-139365601D02*
X154749585Y-139401315D01*
X154749585Y-139401315D02*
X154999585Y-139401315D01*
X154999585Y-139401315D02*
X155142442Y-139365601D01*
X155142442Y-139365601D02*
X155213871Y-139294173D01*
X155213871Y-139294173D02*
X155249585Y-139222744D01*
X154486128Y-144020112D02*
X154450414Y-143948684D01*
X154450414Y-143948684D02*
X154450414Y-143841541D01*
X154450414Y-143841541D02*
X154486128Y-143734398D01*
X154486128Y-143734398D02*
X154557557Y-143662969D01*
X154557557Y-143662969D02*
X154628985Y-143627255D01*
X154628985Y-143627255D02*
X154771842Y-143591541D01*
X154771842Y-143591541D02*
X154878985Y-143591541D01*
X154878985Y-143591541D02*
X155021842Y-143627255D01*
X155021842Y-143627255D02*
X155093271Y-143662969D01*
X155093271Y-143662969D02*
X155164700Y-143734398D01*
X155164700Y-143734398D02*
X155200414Y-143841541D01*
X155200414Y-143841541D02*
X155200414Y-143912969D01*
X155200414Y-143912969D02*
X155164700Y-144020112D01*
X155164700Y-144020112D02*
X155128985Y-144055826D01*
X155128985Y-144055826D02*
X154878985Y-144055826D01*
X154878985Y-144055826D02*
X154878985Y-143912969D01*
X155200414Y-144377255D02*
X154450414Y-144377255D01*
X154450414Y-144377255D02*
X155200414Y-144805826D01*
X155200414Y-144805826D02*
X154450414Y-144805826D01*
X155200414Y-145162969D02*
X154450414Y-145162969D01*
X154450414Y-145162969D02*
X154450414Y-145341540D01*
X154450414Y-145341540D02*
X154486128Y-145448683D01*
X154486128Y-145448683D02*
X154557557Y-145520112D01*
X154557557Y-145520112D02*
X154628985Y-145555826D01*
X154628985Y-145555826D02*
X154771842Y-145591540D01*
X154771842Y-145591540D02*
X154878985Y-145591540D01*
X154878985Y-145591540D02*
X155021842Y-145555826D01*
X155021842Y-145555826D02*
X155093271Y-145520112D01*
X155093271Y-145520112D02*
X155164700Y-145448683D01*
X155164700Y-145448683D02*
X155200414Y-145341540D01*
X155200414Y-145341540D02*
X155200414Y-145162969D01*
X94749585Y-140994173D02*
X95106728Y-141244173D01*
X94749585Y-141422744D02*
X95499585Y-141422744D01*
X95499585Y-141422744D02*
X95499585Y-141137030D01*
X95499585Y-141137030D02*
X95463871Y-141065601D01*
X95463871Y-141065601D02*
X95428157Y-141029887D01*
X95428157Y-141029887D02*
X95356728Y-140994173D01*
X95356728Y-140994173D02*
X95249585Y-140994173D01*
X95249585Y-140994173D02*
X95178157Y-141029887D01*
X95178157Y-141029887D02*
X95142442Y-141065601D01*
X95142442Y-141065601D02*
X95106728Y-141137030D01*
X95106728Y-141137030D02*
X95106728Y-141422744D01*
X95499585Y-140744173D02*
X94749585Y-140244173D01*
X95499585Y-140244173D02*
X94749585Y-140744173D01*
X95599585Y-143929887D02*
X95599585Y-143501316D01*
X94849585Y-143715601D02*
X95599585Y-143715601D01*
X95599585Y-143322744D02*
X94849585Y-142822744D01*
X95599585Y-142822744D02*
X94849585Y-143322744D01*
X95363871Y-138829887D02*
X95399585Y-138901316D01*
X95399585Y-138901316D02*
X95399585Y-139008458D01*
X95399585Y-139008458D02*
X95363871Y-139115601D01*
X95363871Y-139115601D02*
X95292442Y-139187030D01*
X95292442Y-139187030D02*
X95221014Y-139222744D01*
X95221014Y-139222744D02*
X95078157Y-139258458D01*
X95078157Y-139258458D02*
X94971014Y-139258458D01*
X94971014Y-139258458D02*
X94828157Y-139222744D01*
X94828157Y-139222744D02*
X94756728Y-139187030D01*
X94756728Y-139187030D02*
X94685300Y-139115601D01*
X94685300Y-139115601D02*
X94649585Y-139008458D01*
X94649585Y-139008458D02*
X94649585Y-138937030D01*
X94649585Y-138937030D02*
X94685300Y-138829887D01*
X94685300Y-138829887D02*
X94721014Y-138794173D01*
X94721014Y-138794173D02*
X94971014Y-138794173D01*
X94971014Y-138794173D02*
X94971014Y-138937030D01*
X94649585Y-138472744D02*
X95399585Y-138472744D01*
X95399585Y-138472744D02*
X94649585Y-138044173D01*
X94649585Y-138044173D02*
X95399585Y-138044173D01*
X94649585Y-137687030D02*
X95399585Y-137687030D01*
X95399585Y-137687030D02*
X95399585Y-137508459D01*
X95399585Y-137508459D02*
X95363871Y-137401316D01*
X95363871Y-137401316D02*
X95292442Y-137329887D01*
X95292442Y-137329887D02*
X95221014Y-137294173D01*
X95221014Y-137294173D02*
X95078157Y-137258459D01*
X95078157Y-137258459D02*
X94971014Y-137258459D01*
X94971014Y-137258459D02*
X94828157Y-137294173D01*
X94828157Y-137294173D02*
X94756728Y-137329887D01*
X94756728Y-137329887D02*
X94685300Y-137401316D01*
X94685300Y-137401316D02*
X94649585Y-137508459D01*
X94649585Y-137508459D02*
X94649585Y-137687030D01*
X95649585Y-146665601D02*
X95649585Y-147022744D01*
X95649585Y-147022744D02*
X95292442Y-147058458D01*
X95292442Y-147058458D02*
X95328157Y-147022744D01*
X95328157Y-147022744D02*
X95363871Y-146951316D01*
X95363871Y-146951316D02*
X95363871Y-146772744D01*
X95363871Y-146772744D02*
X95328157Y-146701316D01*
X95328157Y-146701316D02*
X95292442Y-146665601D01*
X95292442Y-146665601D02*
X95221014Y-146629887D01*
X95221014Y-146629887D02*
X95042442Y-146629887D01*
X95042442Y-146629887D02*
X94971014Y-146665601D01*
X94971014Y-146665601D02*
X94935300Y-146701316D01*
X94935300Y-146701316D02*
X94899585Y-146772744D01*
X94899585Y-146772744D02*
X94899585Y-146951316D01*
X94899585Y-146951316D02*
X94935300Y-147022744D01*
X94935300Y-147022744D02*
X94971014Y-147058458D01*
X95649585Y-146415601D02*
X94899585Y-146165601D01*
X94899585Y-146165601D02*
X95649585Y-145915601D01*
X94816728Y-145701315D02*
X95416728Y-145701315D01*
X94816728Y-145415601D02*
X95416728Y-145415601D01*
X95416728Y-145415601D02*
X94816728Y-145072744D01*
X94816728Y-145072744D02*
X95416728Y-145072744D01*
X98949585Y-144644173D02*
X99306728Y-144894173D01*
X98949585Y-145072744D02*
X99699585Y-145072744D01*
X99699585Y-145072744D02*
X99699585Y-144787030D01*
X99699585Y-144787030D02*
X99663871Y-144715601D01*
X99663871Y-144715601D02*
X99628157Y-144679887D01*
X99628157Y-144679887D02*
X99556728Y-144644173D01*
X99556728Y-144644173D02*
X99449585Y-144644173D01*
X99449585Y-144644173D02*
X99378157Y-144679887D01*
X99378157Y-144679887D02*
X99342442Y-144715601D01*
X99342442Y-144715601D02*
X99306728Y-144787030D01*
X99306728Y-144787030D02*
X99306728Y-145072744D01*
X98985300Y-144358458D02*
X98949585Y-144251316D01*
X98949585Y-144251316D02*
X98949585Y-144072744D01*
X98949585Y-144072744D02*
X98985300Y-144001316D01*
X98985300Y-144001316D02*
X99021014Y-143965601D01*
X99021014Y-143965601D02*
X99092442Y-143929887D01*
X99092442Y-143929887D02*
X99163871Y-143929887D01*
X99163871Y-143929887D02*
X99235300Y-143965601D01*
X99235300Y-143965601D02*
X99271014Y-144001316D01*
X99271014Y-144001316D02*
X99306728Y-144072744D01*
X99306728Y-144072744D02*
X99342442Y-144215601D01*
X99342442Y-144215601D02*
X99378157Y-144287030D01*
X99378157Y-144287030D02*
X99413871Y-144322744D01*
X99413871Y-144322744D02*
X99485300Y-144358458D01*
X99485300Y-144358458D02*
X99556728Y-144358458D01*
X99556728Y-144358458D02*
X99628157Y-144322744D01*
X99628157Y-144322744D02*
X99663871Y-144287030D01*
X99663871Y-144287030D02*
X99699585Y-144215601D01*
X99699585Y-144215601D02*
X99699585Y-144037030D01*
X99699585Y-144037030D02*
X99663871Y-143929887D01*
X99628157Y-143644172D02*
X99663871Y-143608458D01*
X99663871Y-143608458D02*
X99699585Y-143537030D01*
X99699585Y-143537030D02*
X99699585Y-143358458D01*
X99699585Y-143358458D02*
X99663871Y-143287030D01*
X99663871Y-143287030D02*
X99628157Y-143251315D01*
X99628157Y-143251315D02*
X99556728Y-143215601D01*
X99556728Y-143215601D02*
X99485300Y-143215601D01*
X99485300Y-143215601D02*
X99378157Y-143251315D01*
X99378157Y-143251315D02*
X98949585Y-143679887D01*
X98949585Y-143679887D02*
X98949585Y-143215601D01*
X99699585Y-142965601D02*
X99699585Y-142501315D01*
X99699585Y-142501315D02*
X99413871Y-142751315D01*
X99413871Y-142751315D02*
X99413871Y-142644172D01*
X99413871Y-142644172D02*
X99378157Y-142572744D01*
X99378157Y-142572744D02*
X99342442Y-142537029D01*
X99342442Y-142537029D02*
X99271014Y-142501315D01*
X99271014Y-142501315D02*
X99092442Y-142501315D01*
X99092442Y-142501315D02*
X99021014Y-142537029D01*
X99021014Y-142537029D02*
X98985300Y-142572744D01*
X98985300Y-142572744D02*
X98949585Y-142644172D01*
X98949585Y-142644172D02*
X98949585Y-142858458D01*
X98949585Y-142858458D02*
X98985300Y-142929886D01*
X98985300Y-142929886D02*
X99021014Y-142965601D01*
X99628157Y-142215600D02*
X99663871Y-142179886D01*
X99663871Y-142179886D02*
X99699585Y-142108458D01*
X99699585Y-142108458D02*
X99699585Y-141929886D01*
X99699585Y-141929886D02*
X99663871Y-141858458D01*
X99663871Y-141858458D02*
X99628157Y-141822743D01*
X99628157Y-141822743D02*
X99556728Y-141787029D01*
X99556728Y-141787029D02*
X99485300Y-141787029D01*
X99485300Y-141787029D02*
X99378157Y-141822743D01*
X99378157Y-141822743D02*
X98949585Y-142251315D01*
X98949585Y-142251315D02*
X98949585Y-141787029D01*
X98866728Y-141501314D02*
X99466728Y-141501314D01*
X98866728Y-141215600D02*
X99466728Y-141215600D01*
X99466728Y-141215600D02*
X98866728Y-140872743D01*
X98866728Y-140872743D02*
X99466728Y-140872743D01*
X94599585Y-131194173D02*
X94956728Y-131444173D01*
X94599585Y-131622744D02*
X95349585Y-131622744D01*
X95349585Y-131622744D02*
X95349585Y-131337030D01*
X95349585Y-131337030D02*
X95313871Y-131265601D01*
X95313871Y-131265601D02*
X95278157Y-131229887D01*
X95278157Y-131229887D02*
X95206728Y-131194173D01*
X95206728Y-131194173D02*
X95099585Y-131194173D01*
X95099585Y-131194173D02*
X95028157Y-131229887D01*
X95028157Y-131229887D02*
X94992442Y-131265601D01*
X94992442Y-131265601D02*
X94956728Y-131337030D01*
X94956728Y-131337030D02*
X94956728Y-131622744D01*
X95349585Y-130944173D02*
X94599585Y-130444173D01*
X95349585Y-130444173D02*
X94599585Y-130944173D01*
X95499585Y-134815601D02*
X95499585Y-135172744D01*
X95499585Y-135172744D02*
X95142442Y-135208458D01*
X95142442Y-135208458D02*
X95178157Y-135172744D01*
X95178157Y-135172744D02*
X95213871Y-135101316D01*
X95213871Y-135101316D02*
X95213871Y-134922744D01*
X95213871Y-134922744D02*
X95178157Y-134851316D01*
X95178157Y-134851316D02*
X95142442Y-134815601D01*
X95142442Y-134815601D02*
X95071014Y-134779887D01*
X95071014Y-134779887D02*
X94892442Y-134779887D01*
X94892442Y-134779887D02*
X94821014Y-134815601D01*
X94821014Y-134815601D02*
X94785300Y-134851316D01*
X94785300Y-134851316D02*
X94749585Y-134922744D01*
X94749585Y-134922744D02*
X94749585Y-135101316D01*
X94749585Y-135101316D02*
X94785300Y-135172744D01*
X94785300Y-135172744D02*
X94821014Y-135208458D01*
X95499585Y-134565601D02*
X94749585Y-134315601D01*
X94749585Y-134315601D02*
X95499585Y-134065601D01*
X95266728Y-133737030D02*
X95266728Y-133622744D01*
X95266728Y-133622744D02*
X95238157Y-133565601D01*
X95238157Y-133565601D02*
X95181014Y-133508458D01*
X95181014Y-133508458D02*
X95066728Y-133479887D01*
X95066728Y-133479887D02*
X94866728Y-133479887D01*
X94866728Y-133479887D02*
X94752442Y-133508458D01*
X94752442Y-133508458D02*
X94695300Y-133565601D01*
X94695300Y-133565601D02*
X94666728Y-133622744D01*
X94666728Y-133622744D02*
X94666728Y-133737030D01*
X94666728Y-133737030D02*
X94695300Y-133794173D01*
X94695300Y-133794173D02*
X94752442Y-133851315D01*
X94752442Y-133851315D02*
X94866728Y-133879887D01*
X94866728Y-133879887D02*
X95066728Y-133879887D01*
X95066728Y-133879887D02*
X95181014Y-133851315D01*
X95181014Y-133851315D02*
X95238157Y-133794173D01*
X95238157Y-133794173D02*
X95266728Y-133737030D01*
X95266728Y-133222744D02*
X94781014Y-133222744D01*
X94781014Y-133222744D02*
X94723871Y-133194173D01*
X94723871Y-133194173D02*
X94695300Y-133165602D01*
X94695300Y-133165602D02*
X94666728Y-133108459D01*
X94666728Y-133108459D02*
X94666728Y-132994173D01*
X94666728Y-132994173D02*
X94695300Y-132937030D01*
X94695300Y-132937030D02*
X94723871Y-132908459D01*
X94723871Y-132908459D02*
X94781014Y-132879887D01*
X94781014Y-132879887D02*
X95266728Y-132879887D01*
X95266728Y-132679888D02*
X95266728Y-132337031D01*
X94666728Y-132508459D02*
X95266728Y-132508459D01*
X95349585Y-128929887D02*
X95349585Y-128501316D01*
X94599585Y-128715601D02*
X95349585Y-128715601D01*
X95349585Y-128322744D02*
X94599585Y-127822744D01*
X95349585Y-127822744D02*
X94599585Y-128322744D01*
X99049585Y-132044173D02*
X99406728Y-132294173D01*
X99049585Y-132472744D02*
X99799585Y-132472744D01*
X99799585Y-132472744D02*
X99799585Y-132187030D01*
X99799585Y-132187030D02*
X99763871Y-132115601D01*
X99763871Y-132115601D02*
X99728157Y-132079887D01*
X99728157Y-132079887D02*
X99656728Y-132044173D01*
X99656728Y-132044173D02*
X99549585Y-132044173D01*
X99549585Y-132044173D02*
X99478157Y-132079887D01*
X99478157Y-132079887D02*
X99442442Y-132115601D01*
X99442442Y-132115601D02*
X99406728Y-132187030D01*
X99406728Y-132187030D02*
X99406728Y-132472744D01*
X99085300Y-131758458D02*
X99049585Y-131651316D01*
X99049585Y-131651316D02*
X99049585Y-131472744D01*
X99049585Y-131472744D02*
X99085300Y-131401316D01*
X99085300Y-131401316D02*
X99121014Y-131365601D01*
X99121014Y-131365601D02*
X99192442Y-131329887D01*
X99192442Y-131329887D02*
X99263871Y-131329887D01*
X99263871Y-131329887D02*
X99335300Y-131365601D01*
X99335300Y-131365601D02*
X99371014Y-131401316D01*
X99371014Y-131401316D02*
X99406728Y-131472744D01*
X99406728Y-131472744D02*
X99442442Y-131615601D01*
X99442442Y-131615601D02*
X99478157Y-131687030D01*
X99478157Y-131687030D02*
X99513871Y-131722744D01*
X99513871Y-131722744D02*
X99585300Y-131758458D01*
X99585300Y-131758458D02*
X99656728Y-131758458D01*
X99656728Y-131758458D02*
X99728157Y-131722744D01*
X99728157Y-131722744D02*
X99763871Y-131687030D01*
X99763871Y-131687030D02*
X99799585Y-131615601D01*
X99799585Y-131615601D02*
X99799585Y-131437030D01*
X99799585Y-131437030D02*
X99763871Y-131329887D01*
X99728157Y-131044172D02*
X99763871Y-131008458D01*
X99763871Y-131008458D02*
X99799585Y-130937030D01*
X99799585Y-130937030D02*
X99799585Y-130758458D01*
X99799585Y-130758458D02*
X99763871Y-130687030D01*
X99763871Y-130687030D02*
X99728157Y-130651315D01*
X99728157Y-130651315D02*
X99656728Y-130615601D01*
X99656728Y-130615601D02*
X99585300Y-130615601D01*
X99585300Y-130615601D02*
X99478157Y-130651315D01*
X99478157Y-130651315D02*
X99049585Y-131079887D01*
X99049585Y-131079887D02*
X99049585Y-130615601D01*
X99799585Y-130365601D02*
X99799585Y-129901315D01*
X99799585Y-129901315D02*
X99513871Y-130151315D01*
X99513871Y-130151315D02*
X99513871Y-130044172D01*
X99513871Y-130044172D02*
X99478157Y-129972744D01*
X99478157Y-129972744D02*
X99442442Y-129937029D01*
X99442442Y-129937029D02*
X99371014Y-129901315D01*
X99371014Y-129901315D02*
X99192442Y-129901315D01*
X99192442Y-129901315D02*
X99121014Y-129937029D01*
X99121014Y-129937029D02*
X99085300Y-129972744D01*
X99085300Y-129972744D02*
X99049585Y-130044172D01*
X99049585Y-130044172D02*
X99049585Y-130258458D01*
X99049585Y-130258458D02*
X99085300Y-130329886D01*
X99085300Y-130329886D02*
X99121014Y-130365601D01*
X99728157Y-129615600D02*
X99763871Y-129579886D01*
X99763871Y-129579886D02*
X99799585Y-129508458D01*
X99799585Y-129508458D02*
X99799585Y-129329886D01*
X99799585Y-129329886D02*
X99763871Y-129258458D01*
X99763871Y-129258458D02*
X99728157Y-129222743D01*
X99728157Y-129222743D02*
X99656728Y-129187029D01*
X99656728Y-129187029D02*
X99585300Y-129187029D01*
X99585300Y-129187029D02*
X99478157Y-129222743D01*
X99478157Y-129222743D02*
X99049585Y-129651315D01*
X99049585Y-129651315D02*
X99049585Y-129187029D01*
X99566728Y-128787029D02*
X99566728Y-128672743D01*
X99566728Y-128672743D02*
X99538157Y-128615600D01*
X99538157Y-128615600D02*
X99481014Y-128558457D01*
X99481014Y-128558457D02*
X99366728Y-128529886D01*
X99366728Y-128529886D02*
X99166728Y-128529886D01*
X99166728Y-128529886D02*
X99052442Y-128558457D01*
X99052442Y-128558457D02*
X98995300Y-128615600D01*
X98995300Y-128615600D02*
X98966728Y-128672743D01*
X98966728Y-128672743D02*
X98966728Y-128787029D01*
X98966728Y-128787029D02*
X98995300Y-128844172D01*
X98995300Y-128844172D02*
X99052442Y-128901314D01*
X99052442Y-128901314D02*
X99166728Y-128929886D01*
X99166728Y-128929886D02*
X99366728Y-128929886D01*
X99366728Y-128929886D02*
X99481014Y-128901314D01*
X99481014Y-128901314D02*
X99538157Y-128844172D01*
X99538157Y-128844172D02*
X99566728Y-128787029D01*
X99566728Y-128272743D02*
X99081014Y-128272743D01*
X99081014Y-128272743D02*
X99023871Y-128244172D01*
X99023871Y-128244172D02*
X98995300Y-128215601D01*
X98995300Y-128215601D02*
X98966728Y-128158458D01*
X98966728Y-128158458D02*
X98966728Y-128044172D01*
X98966728Y-128044172D02*
X98995300Y-127987029D01*
X98995300Y-127987029D02*
X99023871Y-127958458D01*
X99023871Y-127958458D02*
X99081014Y-127929886D01*
X99081014Y-127929886D02*
X99566728Y-127929886D01*
X99566728Y-127729887D02*
X99566728Y-127387030D01*
X98966728Y-127558458D02*
X99566728Y-127558458D01*
X95563871Y-126229887D02*
X95599585Y-126301316D01*
X95599585Y-126301316D02*
X95599585Y-126408458D01*
X95599585Y-126408458D02*
X95563871Y-126515601D01*
X95563871Y-126515601D02*
X95492442Y-126587030D01*
X95492442Y-126587030D02*
X95421014Y-126622744D01*
X95421014Y-126622744D02*
X95278157Y-126658458D01*
X95278157Y-126658458D02*
X95171014Y-126658458D01*
X95171014Y-126658458D02*
X95028157Y-126622744D01*
X95028157Y-126622744D02*
X94956728Y-126587030D01*
X94956728Y-126587030D02*
X94885300Y-126515601D01*
X94885300Y-126515601D02*
X94849585Y-126408458D01*
X94849585Y-126408458D02*
X94849585Y-126337030D01*
X94849585Y-126337030D02*
X94885300Y-126229887D01*
X94885300Y-126229887D02*
X94921014Y-126194173D01*
X94921014Y-126194173D02*
X95171014Y-126194173D01*
X95171014Y-126194173D02*
X95171014Y-126337030D01*
X94849585Y-125872744D02*
X95599585Y-125872744D01*
X95599585Y-125872744D02*
X94849585Y-125444173D01*
X94849585Y-125444173D02*
X95599585Y-125444173D01*
X94849585Y-125087030D02*
X95599585Y-125087030D01*
X95599585Y-125087030D02*
X95599585Y-124908459D01*
X95599585Y-124908459D02*
X95563871Y-124801316D01*
X95563871Y-124801316D02*
X95492442Y-124729887D01*
X95492442Y-124729887D02*
X95421014Y-124694173D01*
X95421014Y-124694173D02*
X95278157Y-124658459D01*
X95278157Y-124658459D02*
X95171014Y-124658459D01*
X95171014Y-124658459D02*
X95028157Y-124694173D01*
X95028157Y-124694173D02*
X94956728Y-124729887D01*
X94956728Y-124729887D02*
X94885300Y-124801316D01*
X94885300Y-124801316D02*
X94849585Y-124908459D01*
X94849585Y-124908459D02*
X94849585Y-125087030D01*
X131779580Y-114882142D02*
X131827200Y-114834523D01*
X131827200Y-114834523D02*
X131874819Y-114691666D01*
X131874819Y-114691666D02*
X131874819Y-114596428D01*
X131874819Y-114596428D02*
X131827200Y-114453571D01*
X131827200Y-114453571D02*
X131731961Y-114358333D01*
X131731961Y-114358333D02*
X131636723Y-114310714D01*
X131636723Y-114310714D02*
X131446247Y-114263095D01*
X131446247Y-114263095D02*
X131303390Y-114263095D01*
X131303390Y-114263095D02*
X131112914Y-114310714D01*
X131112914Y-114310714D02*
X131017676Y-114358333D01*
X131017676Y-114358333D02*
X130922438Y-114453571D01*
X130922438Y-114453571D02*
X130874819Y-114596428D01*
X130874819Y-114596428D02*
X130874819Y-114691666D01*
X130874819Y-114691666D02*
X130922438Y-114834523D01*
X130922438Y-114834523D02*
X130970057Y-114882142D01*
X130970057Y-115263095D02*
X130922438Y-115310714D01*
X130922438Y-115310714D02*
X130874819Y-115405952D01*
X130874819Y-115405952D02*
X130874819Y-115644047D01*
X130874819Y-115644047D02*
X130922438Y-115739285D01*
X130922438Y-115739285D02*
X130970057Y-115786904D01*
X130970057Y-115786904D02*
X131065295Y-115834523D01*
X131065295Y-115834523D02*
X131160533Y-115834523D01*
X131160533Y-115834523D02*
X131303390Y-115786904D01*
X131303390Y-115786904D02*
X131874819Y-115215476D01*
X131874819Y-115215476D02*
X131874819Y-115834523D01*
X130874819Y-116167857D02*
X130874819Y-116834523D01*
X130874819Y-116834523D02*
X131874819Y-116405952D01*
X128689580Y-114857142D02*
X128737200Y-114809523D01*
X128737200Y-114809523D02*
X128784819Y-114666666D01*
X128784819Y-114666666D02*
X128784819Y-114571428D01*
X128784819Y-114571428D02*
X128737200Y-114428571D01*
X128737200Y-114428571D02*
X128641961Y-114333333D01*
X128641961Y-114333333D02*
X128546723Y-114285714D01*
X128546723Y-114285714D02*
X128356247Y-114238095D01*
X128356247Y-114238095D02*
X128213390Y-114238095D01*
X128213390Y-114238095D02*
X128022914Y-114285714D01*
X128022914Y-114285714D02*
X127927676Y-114333333D01*
X127927676Y-114333333D02*
X127832438Y-114428571D01*
X127832438Y-114428571D02*
X127784819Y-114571428D01*
X127784819Y-114571428D02*
X127784819Y-114666666D01*
X127784819Y-114666666D02*
X127832438Y-114809523D01*
X127832438Y-114809523D02*
X127880057Y-114857142D01*
X127880057Y-115238095D02*
X127832438Y-115285714D01*
X127832438Y-115285714D02*
X127784819Y-115380952D01*
X127784819Y-115380952D02*
X127784819Y-115619047D01*
X127784819Y-115619047D02*
X127832438Y-115714285D01*
X127832438Y-115714285D02*
X127880057Y-115761904D01*
X127880057Y-115761904D02*
X127975295Y-115809523D01*
X127975295Y-115809523D02*
X128070533Y-115809523D01*
X128070533Y-115809523D02*
X128213390Y-115761904D01*
X128213390Y-115761904D02*
X128784819Y-115190476D01*
X128784819Y-115190476D02*
X128784819Y-115809523D01*
X127784819Y-116666666D02*
X127784819Y-116476190D01*
X127784819Y-116476190D02*
X127832438Y-116380952D01*
X127832438Y-116380952D02*
X127880057Y-116333333D01*
X127880057Y-116333333D02*
X128022914Y-116238095D01*
X128022914Y-116238095D02*
X128213390Y-116190476D01*
X128213390Y-116190476D02*
X128594342Y-116190476D01*
X128594342Y-116190476D02*
X128689580Y-116238095D01*
X128689580Y-116238095D02*
X128737200Y-116285714D01*
X128737200Y-116285714D02*
X128784819Y-116380952D01*
X128784819Y-116380952D02*
X128784819Y-116571428D01*
X128784819Y-116571428D02*
X128737200Y-116666666D01*
X128737200Y-116666666D02*
X128689580Y-116714285D01*
X128689580Y-116714285D02*
X128594342Y-116761904D01*
X128594342Y-116761904D02*
X128356247Y-116761904D01*
X128356247Y-116761904D02*
X128261009Y-116714285D01*
X128261009Y-116714285D02*
X128213390Y-116666666D01*
X128213390Y-116666666D02*
X128165771Y-116571428D01*
X128165771Y-116571428D02*
X128165771Y-116380952D01*
X128165771Y-116380952D02*
X128213390Y-116285714D01*
X128213390Y-116285714D02*
X128261009Y-116238095D01*
X128261009Y-116238095D02*
X128356247Y-116190476D01*
X126161904Y-131879819D02*
X126161904Y-132689342D01*
X126161904Y-132689342D02*
X126114285Y-132784580D01*
X126114285Y-132784580D02*
X126066666Y-132832200D01*
X126066666Y-132832200D02*
X125971428Y-132879819D01*
X125971428Y-132879819D02*
X125780952Y-132879819D01*
X125780952Y-132879819D02*
X125685714Y-132832200D01*
X125685714Y-132832200D02*
X125638095Y-132784580D01*
X125638095Y-132784580D02*
X125590476Y-132689342D01*
X125590476Y-132689342D02*
X125590476Y-131879819D01*
X125161904Y-131975057D02*
X125114285Y-131927438D01*
X125114285Y-131927438D02*
X125019047Y-131879819D01*
X125019047Y-131879819D02*
X124780952Y-131879819D01*
X124780952Y-131879819D02*
X124685714Y-131927438D01*
X124685714Y-131927438D02*
X124638095Y-131975057D01*
X124638095Y-131975057D02*
X124590476Y-132070295D01*
X124590476Y-132070295D02*
X124590476Y-132165533D01*
X124590476Y-132165533D02*
X124638095Y-132308390D01*
X124638095Y-132308390D02*
X125209523Y-132879819D01*
X125209523Y-132879819D02*
X124590476Y-132879819D01*
X123859580Y-114833333D02*
X123907200Y-114785714D01*
X123907200Y-114785714D02*
X123954819Y-114642857D01*
X123954819Y-114642857D02*
X123954819Y-114547619D01*
X123954819Y-114547619D02*
X123907200Y-114404762D01*
X123907200Y-114404762D02*
X123811961Y-114309524D01*
X123811961Y-114309524D02*
X123716723Y-114261905D01*
X123716723Y-114261905D02*
X123526247Y-114214286D01*
X123526247Y-114214286D02*
X123383390Y-114214286D01*
X123383390Y-114214286D02*
X123192914Y-114261905D01*
X123192914Y-114261905D02*
X123097676Y-114309524D01*
X123097676Y-114309524D02*
X123002438Y-114404762D01*
X123002438Y-114404762D02*
X122954819Y-114547619D01*
X122954819Y-114547619D02*
X122954819Y-114642857D01*
X122954819Y-114642857D02*
X123002438Y-114785714D01*
X123002438Y-114785714D02*
X123050057Y-114833333D01*
X122954819Y-115166667D02*
X122954819Y-115785714D01*
X122954819Y-115785714D02*
X123335771Y-115452381D01*
X123335771Y-115452381D02*
X123335771Y-115595238D01*
X123335771Y-115595238D02*
X123383390Y-115690476D01*
X123383390Y-115690476D02*
X123431009Y-115738095D01*
X123431009Y-115738095D02*
X123526247Y-115785714D01*
X123526247Y-115785714D02*
X123764342Y-115785714D01*
X123764342Y-115785714D02*
X123859580Y-115738095D01*
X123859580Y-115738095D02*
X123907200Y-115690476D01*
X123907200Y-115690476D02*
X123954819Y-115595238D01*
X123954819Y-115595238D02*
X123954819Y-115309524D01*
X123954819Y-115309524D02*
X123907200Y-115214286D01*
X123907200Y-115214286D02*
X123859580Y-115166667D01*
D11*
%TO.C,C27*%
X129480000Y-115384420D02*
X129480000Y-115665580D01*
X130500000Y-115384420D02*
X130500000Y-115665580D01*
%TO.C,C26*%
X126390000Y-115359420D02*
X126390000Y-115640580D01*
X127410000Y-115359420D02*
X127410000Y-115640580D01*
%TO.C,U2*%
X123200000Y-133265000D02*
X125400000Y-133265000D01*
X123200000Y-138485000D02*
X125400000Y-138485000D01*
X127600000Y-133265000D02*
X125400000Y-133265000D01*
X127600000Y-138485000D02*
X125400000Y-138485000D01*
X128300000Y-133465000D02*
X128060000Y-133135000D01*
X128540000Y-133135000D01*
X128300000Y-133465000D01*
G36*
X128300000Y-133465000D02*
G01*
X128060000Y-133135000D01*
X128540000Y-133135000D01*
X128300000Y-133465000D01*
G37*
%TO.C,C3*%
X124390000Y-115349420D02*
X124390000Y-115630580D01*
X125410000Y-115349420D02*
X125410000Y-115630580D01*
%TD*%
M02*
