%TF.GenerationSoftware,KiCad,Pcbnew,8.0.1*%
%TF.CreationDate,2024-04-05T15:31:18-07:00*%
%TF.ProjectId,TMC2240Breakout,544d4332-3234-4304-9272-65616b6f7574,rev?*%
%TF.SameCoordinates,Original*%
%TF.FileFunction,Soldermask,Top*%
%TF.FilePolarity,Negative*%
%FSLAX46Y46*%
G04 Gerber Fmt 4.6, Leading zero omitted, Abs format (unit mm)*
G04 Created by KiCad (PCBNEW 8.0.1) date 2024-04-05 15:31:18*
%MOMM*%
%LPD*%
G01*
G04 APERTURE LIST*
G04 Aperture macros list*
%AMRoundRect*
0 Rectangle with rounded corners*
0 $1 Rounding radius*
0 $2 $3 $4 $5 $6 $7 $8 $9 X,Y pos of 4 corners*
0 Add a 4 corners polygon primitive as box body*
4,1,4,$2,$3,$4,$5,$6,$7,$8,$9,$2,$3,0*
0 Add four circle primitives for the rounded corners*
1,1,$1+$1,$2,$3*
1,1,$1+$1,$4,$5*
1,1,$1+$1,$6,$7*
1,1,$1+$1,$8,$9*
0 Add four rect primitives between the rounded corners*
20,1,$1+$1,$2,$3,$4,$5,0*
20,1,$1+$1,$4,$5,$6,$7,0*
20,1,$1+$1,$6,$7,$8,$9,0*
20,1,$1+$1,$8,$9,$2,$3,0*%
%AMFreePoly0*
4,1,14,0.340806,0.106694,0.394194,0.053306,0.412500,0.009112,0.412500,-0.062500,0.394194,-0.106694,0.350000,-0.125000,-0.350000,-0.125000,-0.394194,-0.106694,-0.412500,-0.062500,-0.412500,0.062500,-0.394194,0.106694,-0.350000,0.125000,0.296612,0.125000,0.340806,0.106694,0.340806,0.106694,$1*%
%AMFreePoly1*
4,1,14,0.394194,0.106694,0.412500,0.062500,0.412500,-0.009112,0.394194,-0.053306,0.340806,-0.106694,0.296612,-0.125000,-0.350000,-0.125000,-0.394194,-0.106694,-0.412500,-0.062500,-0.412500,0.062500,-0.394194,0.106694,-0.350000,0.125000,0.350000,0.125000,0.394194,0.106694,0.394194,0.106694,$1*%
%AMFreePoly2*
4,1,14,0.106694,0.394194,0.125000,0.350000,0.125000,-0.350000,0.106694,-0.394194,0.062500,-0.412500,-0.062500,-0.412500,-0.106694,-0.394194,-0.125000,-0.350000,-0.125000,0.296612,-0.106694,0.340806,-0.053306,0.394194,-0.009112,0.412500,0.062500,0.412500,0.106694,0.394194,0.106694,0.394194,$1*%
%AMFreePoly3*
4,1,14,0.053306,0.394194,0.106694,0.340806,0.125000,0.296612,0.125000,-0.350000,0.106694,-0.394194,0.062500,-0.412500,-0.062500,-0.412500,-0.106694,-0.394194,-0.125000,-0.350000,-0.125000,0.350000,-0.106694,0.394194,-0.062500,0.412500,0.009112,0.412500,0.053306,0.394194,0.053306,0.394194,$1*%
%AMFreePoly4*
4,1,14,0.394194,0.106694,0.412500,0.062500,0.412500,-0.062500,0.394194,-0.106694,0.350000,-0.125000,-0.296612,-0.125000,-0.340806,-0.106694,-0.394194,-0.053306,-0.412500,-0.009112,-0.412500,0.062500,-0.394194,0.106694,-0.350000,0.125000,0.350000,0.125000,0.394194,0.106694,0.394194,0.106694,$1*%
%AMFreePoly5*
4,1,14,0.394194,0.106694,0.412500,0.062500,0.412500,-0.062500,0.394194,-0.106694,0.350000,-0.125000,-0.350000,-0.125000,-0.394194,-0.106694,-0.412500,-0.062500,-0.412500,0.009112,-0.394194,0.053306,-0.340806,0.106694,-0.296612,0.125000,0.350000,0.125000,0.394194,0.106694,0.394194,0.106694,$1*%
%AMFreePoly6*
4,1,14,0.106694,0.394194,0.125000,0.350000,0.125000,-0.296612,0.106694,-0.340806,0.053306,-0.394194,0.009112,-0.412500,-0.062500,-0.412500,-0.106694,-0.394194,-0.125000,-0.350000,-0.125000,0.350000,-0.106694,0.394194,-0.062500,0.412500,0.062500,0.412500,0.106694,0.394194,0.106694,0.394194,$1*%
%AMFreePoly7*
4,1,14,0.106694,0.394194,0.125000,0.350000,0.125000,-0.350000,0.106694,-0.394194,0.062500,-0.412500,-0.009112,-0.412500,-0.053306,-0.394194,-0.106694,-0.340806,-0.125000,-0.296612,-0.125000,0.350000,-0.106694,0.394194,-0.062500,0.412500,0.062500,0.412500,0.106694,0.394194,0.106694,0.394194,$1*%
G04 Aperture macros list end*
%ADD10R,1.700000X1.700000*%
%ADD11O,1.700000X1.700000*%
%ADD12RoundRect,0.250000X-0.475000X0.250000X-0.475000X-0.250000X0.475000X-0.250000X0.475000X0.250000X0*%
%ADD13RoundRect,0.250000X0.450000X-0.262500X0.450000X0.262500X-0.450000X0.262500X-0.450000X-0.262500X0*%
%ADD14RoundRect,0.150000X-0.150000X0.512500X-0.150000X-0.512500X0.150000X-0.512500X0.150000X0.512500X0*%
%ADD15RoundRect,0.250000X-0.262500X-0.450000X0.262500X-0.450000X0.262500X0.450000X-0.262500X0.450000X0*%
%ADD16RoundRect,0.250000X-0.450000X0.262500X-0.450000X-0.262500X0.450000X-0.262500X0.450000X0.262500X0*%
%ADD17FreePoly0,90.000000*%
%ADD18RoundRect,0.062500X0.062500X-0.350000X0.062500X0.350000X-0.062500X0.350000X-0.062500X-0.350000X0*%
%ADD19FreePoly1,90.000000*%
%ADD20FreePoly2,90.000000*%
%ADD21RoundRect,0.062500X0.350000X-0.062500X0.350000X0.062500X-0.350000X0.062500X-0.350000X-0.062500X0*%
%ADD22FreePoly3,90.000000*%
%ADD23FreePoly4,90.000000*%
%ADD24FreePoly5,90.000000*%
%ADD25FreePoly6,90.000000*%
%ADD26FreePoly7,90.000000*%
%ADD27R,3.100000X3.100000*%
%ADD28C,5.600000*%
%ADD29RoundRect,0.250000X-0.250000X-0.475000X0.250000X-0.475000X0.250000X0.475000X-0.250000X0.475000X0*%
%ADD30RoundRect,0.250001X-2.049999X-0.799999X2.049999X-0.799999X2.049999X0.799999X-2.049999X0.799999X0*%
%ADD31RoundRect,0.150000X0.512500X0.150000X-0.512500X0.150000X-0.512500X-0.150000X0.512500X-0.150000X0*%
%ADD32RoundRect,0.250000X0.250000X0.475000X-0.250000X0.475000X-0.250000X-0.475000X0.250000X-0.475000X0*%
%ADD33R,2.600000X2.600000*%
%ADD34C,2.600000*%
%ADD35RoundRect,0.250001X-0.799999X2.049999X-0.799999X-2.049999X0.799999X-2.049999X0.799999X2.049999X0*%
%ADD36RoundRect,0.150000X-0.512500X-0.150000X0.512500X-0.150000X0.512500X0.150000X-0.512500X0.150000X0*%
%ADD37RoundRect,0.150000X-0.587500X-0.150000X0.587500X-0.150000X0.587500X0.150000X-0.587500X0.150000X0*%
%ADD38RoundRect,0.250000X0.262500X0.450000X-0.262500X0.450000X-0.262500X-0.450000X0.262500X-0.450000X0*%
G04 APERTURE END LIST*
D10*
%TO.C,J13*%
X97000000Y-130300000D03*
D11*
X99540000Y-130300000D03*
X97000000Y-132840000D03*
X99540000Y-132840000D03*
X97000000Y-135380000D03*
X99540000Y-135380000D03*
X97000000Y-137920000D03*
X99540000Y-137920000D03*
X97000000Y-140460000D03*
X99540000Y-140460000D03*
X97000000Y-143000000D03*
X99540000Y-143000000D03*
%TD*%
D12*
%TO.C,C3*%
X143000000Y-130000000D03*
X143000000Y-131900000D03*
%TD*%
D13*
%TO.C,R7*%
X124000000Y-149925000D03*
X124000000Y-148100000D03*
%TD*%
D14*
%TO.C,D3*%
X125950000Y-152725000D03*
X124050000Y-152725000D03*
X125000000Y-155000000D03*
%TD*%
D12*
%TO.C,C8*%
X126000000Y-118050000D03*
X126000000Y-119950000D03*
%TD*%
D15*
%TO.C,R20*%
X104087500Y-135000000D03*
X105912500Y-135000000D03*
%TD*%
D16*
%TO.C,R10*%
X117000000Y-153000000D03*
X117000000Y-154825000D03*
%TD*%
%TO.C,R27*%
X114000000Y-120087500D03*
X114000000Y-121912500D03*
%TD*%
%TO.C,R6*%
X127000000Y-148087500D03*
X127000000Y-149912500D03*
%TD*%
D17*
%TO.C,U1*%
X123812500Y-138187500D03*
D18*
X124312500Y-138187500D03*
X124812500Y-138187500D03*
X125312500Y-138187500D03*
X125812500Y-138187500D03*
X126312500Y-138187500D03*
X126812500Y-138187500D03*
D19*
X127312500Y-138187500D03*
D20*
X128000000Y-137500000D03*
D21*
X128000000Y-137000000D03*
X128000000Y-136500000D03*
X128000000Y-136000000D03*
X128000000Y-135500000D03*
X128000000Y-135000000D03*
X128000000Y-134500000D03*
D22*
X128000000Y-134000000D03*
D23*
X127312500Y-133312500D03*
D18*
X126812500Y-133312500D03*
X126312500Y-133312500D03*
X125812500Y-133312500D03*
X125312500Y-133312500D03*
X124812500Y-133312500D03*
X124312500Y-133312500D03*
D24*
X123812500Y-133312500D03*
D25*
X123125000Y-134000000D03*
D21*
X123125000Y-134500000D03*
X123125000Y-135000000D03*
X123125000Y-135500000D03*
X123125000Y-136000000D03*
X123125000Y-136500000D03*
X123125000Y-137000000D03*
D26*
X123125000Y-137500000D03*
D27*
X125562500Y-135750000D03*
%TD*%
D28*
%TO.C,J10*%
X141275000Y-161275000D03*
%TD*%
%TO.C,J5*%
X100000000Y-120000000D03*
%TD*%
D12*
%TO.C,C12*%
X128000000Y-141237500D03*
X128000000Y-143137500D03*
%TD*%
D16*
%TO.C,R2*%
X146000000Y-149087500D03*
X146000000Y-150912500D03*
%TD*%
D29*
%TO.C,C10*%
X129050000Y-129800000D03*
X130950000Y-129800000D03*
%TD*%
D30*
%TO.C,C4*%
X134200000Y-123000000D03*
X143000000Y-123000000D03*
%TD*%
D13*
%TO.C,R12*%
X144000000Y-138825000D03*
X144000000Y-137000000D03*
%TD*%
D15*
%TO.C,R24*%
X104087500Y-126000000D03*
X105912500Y-126000000D03*
%TD*%
%TO.C,R22*%
X104087500Y-129000000D03*
X105912500Y-129000000D03*
%TD*%
D31*
%TO.C,D12*%
X111275000Y-129950000D03*
X111275000Y-128050000D03*
X109000000Y-129000000D03*
%TD*%
D28*
%TO.C,J12*%
X141275000Y-110475000D03*
%TD*%
%TO.C,J6*%
X100000000Y-151750000D03*
%TD*%
D13*
%TO.C,R9*%
X144000000Y-143000000D03*
X144000000Y-141175000D03*
%TD*%
%TO.C,R31*%
X114000000Y-145912500D03*
X114000000Y-144087500D03*
%TD*%
D32*
%TO.C,C13*%
X122000000Y-130187500D03*
X120100000Y-130187500D03*
%TD*%
D12*
%TO.C,C11*%
X130000000Y-118000000D03*
X130000000Y-119900000D03*
%TD*%
D13*
%TO.C,R3*%
X128000000Y-159000000D03*
X128000000Y-157175000D03*
%TD*%
D16*
%TO.C,R26*%
X114000000Y-148175000D03*
X114000000Y-150000000D03*
%TD*%
D12*
%TO.C,C14*%
X122000000Y-118050000D03*
X122000000Y-119950000D03*
%TD*%
D31*
%TO.C,D10*%
X111275000Y-137950000D03*
X111275000Y-136050000D03*
X109000000Y-137000000D03*
%TD*%
D14*
%TO.C,D2*%
X129950000Y-152725000D03*
X128050000Y-152725000D03*
X129000000Y-155000000D03*
%TD*%
D15*
%TO.C,R18*%
X104087500Y-141000000D03*
X105912500Y-141000000D03*
%TD*%
D33*
%TO.C,J4*%
X132620000Y-110695000D03*
D34*
X127540000Y-110695000D03*
X122460000Y-110695000D03*
X117380000Y-110695000D03*
%TD*%
D35*
%TO.C,C7*%
X139000000Y-146000000D03*
X139000000Y-154800000D03*
%TD*%
D13*
%TO.C,R33*%
X114000000Y-137825000D03*
X114000000Y-136000000D03*
%TD*%
D12*
%TO.C,C15*%
X118000000Y-118050000D03*
X118000000Y-119950000D03*
%TD*%
D28*
%TO.C,J8*%
X150800000Y-151750000D03*
%TD*%
D36*
%TO.C,D1*%
X146725000Y-141050000D03*
X146725000Y-142950000D03*
X149000000Y-142000000D03*
%TD*%
D31*
%TO.C,D13*%
X111275000Y-121950000D03*
X111275000Y-120050000D03*
X109000000Y-121000000D03*
%TD*%
D15*
%TO.C,R25*%
X105087500Y-123000000D03*
X106912500Y-123000000D03*
%TD*%
D13*
%TO.C,R4*%
X125000000Y-159000000D03*
X125000000Y-157175000D03*
%TD*%
D16*
%TO.C,R11*%
X114000000Y-153000000D03*
X114000000Y-154825000D03*
%TD*%
D28*
%TO.C,J9*%
X109525000Y-161275000D03*
%TD*%
%TO.C,J7*%
X150800000Y-120000000D03*
%TD*%
D15*
%TO.C,R17*%
X105087500Y-150000000D03*
X106912500Y-150000000D03*
%TD*%
D31*
%TO.C,D6*%
X108275000Y-154950000D03*
X108275000Y-153050000D03*
X106000000Y-154000000D03*
%TD*%
%TO.C,D5*%
X111275000Y-149950000D03*
X111275000Y-148050000D03*
X109000000Y-149000000D03*
%TD*%
%TO.C,D8*%
X111275000Y-145950000D03*
X111275000Y-144050000D03*
X109000000Y-145000000D03*
%TD*%
D13*
%TO.C,R15*%
X122000000Y-143100000D03*
X122000000Y-141275000D03*
%TD*%
D29*
%TO.C,C5*%
X132050000Y-133187500D03*
X133950000Y-133187500D03*
%TD*%
D12*
%TO.C,C9*%
X125000000Y-141237500D03*
X125000000Y-143137500D03*
%TD*%
D13*
%TO.C,R32*%
X114000000Y-133912500D03*
X114000000Y-132087500D03*
%TD*%
D32*
%TO.C,C2*%
X118900000Y-159000000D03*
X117000000Y-159000000D03*
%TD*%
D37*
%TO.C,Q1*%
X130125000Y-148050000D03*
X130125000Y-149950000D03*
X132000000Y-149000000D03*
%TD*%
D14*
%TO.C,D4*%
X121950000Y-152725000D03*
X120050000Y-152725000D03*
X121000000Y-155000000D03*
%TD*%
D38*
%TO.C,R13*%
X134500000Y-142200000D03*
X132675000Y-142200000D03*
%TD*%
D32*
%TO.C,C16*%
X98950000Y-125000000D03*
X97050000Y-125000000D03*
%TD*%
D33*
%TO.C,J3*%
X151000000Y-133000000D03*
D34*
X151000000Y-127920000D03*
%TD*%
D15*
%TO.C,R23*%
X104087500Y-132000000D03*
X105912500Y-132000000D03*
%TD*%
D10*
%TO.C,J1*%
X153000000Y-145080000D03*
D11*
X153000000Y-142540000D03*
X153000000Y-140000000D03*
%TD*%
D31*
%TO.C,D7*%
X111275000Y-141950000D03*
X111275000Y-140050000D03*
X109000000Y-141000000D03*
%TD*%
D16*
%TO.C,R8*%
X146000000Y-145000000D03*
X146000000Y-146825000D03*
%TD*%
D31*
%TO.C,D9*%
X111275000Y-133950000D03*
X111275000Y-132050000D03*
X109000000Y-133000000D03*
%TD*%
D38*
%TO.C,R1*%
X149000000Y-139000000D03*
X147175000Y-139000000D03*
%TD*%
D15*
%TO.C,R21*%
X104087500Y-138000000D03*
X105912500Y-138000000D03*
%TD*%
D13*
%TO.C,R30*%
X114000000Y-141825000D03*
X114000000Y-140000000D03*
%TD*%
%TO.C,R5*%
X122000000Y-158912500D03*
X122000000Y-157087500D03*
%TD*%
D31*
%TO.C,D14*%
X104500000Y-119100000D03*
X106775000Y-118150000D03*
X106775000Y-120050000D03*
%TD*%
D38*
%TO.C,R28*%
X106712500Y-115500000D03*
X104887500Y-115500000D03*
%TD*%
%TO.C,R14*%
X134512500Y-139187500D03*
X132687500Y-139187500D03*
%TD*%
D13*
%TO.C,R29*%
X111000000Y-154912500D03*
X111000000Y-153087500D03*
%TD*%
D31*
%TO.C,D11*%
X111275000Y-125950000D03*
X111275000Y-124050000D03*
X109000000Y-125000000D03*
%TD*%
D13*
%TO.C,R35*%
X114000000Y-129825000D03*
X114000000Y-128000000D03*
%TD*%
D29*
%TO.C,C6*%
X132100000Y-136187500D03*
X134000000Y-136187500D03*
%TD*%
D28*
%TO.C,J11*%
X109525000Y-110475000D03*
%TD*%
D15*
%TO.C,R19*%
X104087500Y-144000000D03*
X105912500Y-144000000D03*
%TD*%
D10*
%TO.C,J2*%
X116920000Y-163000000D03*
D11*
X119460000Y-163000000D03*
X122000000Y-163000000D03*
X124540000Y-163000000D03*
X127080000Y-163000000D03*
%TD*%
D13*
%TO.C,R34*%
X114000000Y-125912500D03*
X114000000Y-124087500D03*
%TD*%
D12*
%TO.C,C1*%
X149000000Y-145050000D03*
X149000000Y-146950000D03*
%TD*%
D15*
%TO.C,R16*%
X104087500Y-147000000D03*
X105912500Y-147000000D03*
%TD*%
M02*
