%TF.GenerationSoftware,KiCad,Pcbnew,8.0.1*%
%TF.CreationDate,2024-04-11T10:52:21-07:00*%
%TF.ProjectId,TMC2240_RP2040,544d4332-3234-4305-9f52-50323034302e,rev?*%
%TF.SameCoordinates,Original*%
%TF.FileFunction,Soldermask,Bot*%
%TF.FilePolarity,Negative*%
%FSLAX46Y46*%
G04 Gerber Fmt 4.6, Leading zero omitted, Abs format (unit mm)*
G04 Created by KiCad (PCBNEW 8.0.1) date 2024-04-11 10:52:21*
%MOMM*%
%LPD*%
G01*
G04 APERTURE LIST*
G04 Aperture macros list*
%AMRoundRect*
0 Rectangle with rounded corners*
0 $1 Rounding radius*
0 $2 $3 $4 $5 $6 $7 $8 $9 X,Y pos of 4 corners*
0 Add a 4 corners polygon primitive as box body*
4,1,4,$2,$3,$4,$5,$6,$7,$8,$9,$2,$3,0*
0 Add four circle primitives for the rounded corners*
1,1,$1+$1,$2,$3*
1,1,$1+$1,$4,$5*
1,1,$1+$1,$6,$7*
1,1,$1+$1,$8,$9*
0 Add four rect primitives between the rounded corners*
20,1,$1+$1,$2,$3,$4,$5,0*
20,1,$1+$1,$4,$5,$6,$7,0*
20,1,$1+$1,$6,$7,$8,$9,0*
20,1,$1+$1,$8,$9,$2,$3,0*%
G04 Aperture macros list end*
%ADD10R,1.700000X1.700000*%
%ADD11O,1.700000X1.700000*%
%ADD12C,5.600000*%
%ADD13C,0.650000*%
%ADD14O,1.000000X2.100000*%
%ADD15O,1.000000X1.600000*%
%ADD16RoundRect,0.225000X0.250000X-0.225000X0.250000X0.225000X-0.250000X0.225000X-0.250000X-0.225000X0*%
%ADD17RoundRect,0.100000X0.637500X0.100000X-0.637500X0.100000X-0.637500X-0.100000X0.637500X-0.100000X0*%
G04 APERTURE END LIST*
D10*
%TO.C,J2*%
X153000000Y-144500000D03*
D11*
X153000000Y-141960000D03*
X153000000Y-139420000D03*
X153000000Y-136880000D03*
X153000000Y-134340000D03*
X153000000Y-131800000D03*
%TD*%
D10*
%TO.C,J14*%
X97200000Y-125980000D03*
D11*
X97200000Y-128520000D03*
X97200000Y-131060000D03*
X97200000Y-133600000D03*
%TD*%
D12*
%TO.C,J10*%
X141275000Y-161275000D03*
%TD*%
D13*
%TO.C,J19*%
X128410000Y-110850000D03*
X122630000Y-110850000D03*
D14*
X129840000Y-111380000D03*
D15*
X129840000Y-107200000D03*
D14*
X121200000Y-111380000D03*
D15*
X121200000Y-107200000D03*
%TD*%
D12*
%TO.C,J5*%
X100000000Y-120000000D03*
%TD*%
%TO.C,J12*%
X141275000Y-110475000D03*
%TD*%
%TO.C,J6*%
X100000000Y-151750000D03*
%TD*%
D10*
%TO.C,J1*%
X131825000Y-163400000D03*
D11*
X134365000Y-163400000D03*
%TD*%
D12*
%TO.C,J8*%
X150800000Y-151750000D03*
%TD*%
%TO.C,J9*%
X109525000Y-161275000D03*
%TD*%
D10*
%TO.C,J16*%
X148610000Y-127350000D03*
D11*
X151150000Y-127350000D03*
X153690000Y-127350000D03*
%TD*%
D12*
%TO.C,J7*%
X150800000Y-120000000D03*
%TD*%
D10*
%TO.C,J4*%
X117330000Y-163600000D03*
D11*
X119870000Y-163600000D03*
X122410000Y-163600000D03*
X124950000Y-163600000D03*
%TD*%
D10*
%TO.C,J15*%
X97200000Y-138400000D03*
D11*
X97200000Y-140940000D03*
X97200000Y-143480000D03*
X97200000Y-146020000D03*
%TD*%
D10*
%TO.C,SW2*%
X140400000Y-118000000D03*
D11*
X140400000Y-120540000D03*
%TD*%
D10*
%TO.C,SW1*%
X144700000Y-117925000D03*
D11*
X144700000Y-120465000D03*
%TD*%
D12*
%TO.C,J11*%
X109525000Y-110475000D03*
%TD*%
D16*
%TO.C,C27*%
X129990000Y-116300000D03*
X129990000Y-114750000D03*
%TD*%
%TO.C,C26*%
X126900000Y-116275000D03*
X126900000Y-114725000D03*
%TD*%
D17*
%TO.C,U2*%
X128262500Y-133925000D03*
X128262500Y-134575000D03*
X128262500Y-135225000D03*
X128262500Y-135875000D03*
X128262500Y-136525000D03*
X128262500Y-137175000D03*
X128262500Y-137825000D03*
X122537500Y-137825000D03*
X122537500Y-137175000D03*
X122537500Y-136525000D03*
X122537500Y-135875000D03*
X122537500Y-135225000D03*
X122537500Y-134575000D03*
X122537500Y-133925000D03*
%TD*%
D16*
%TO.C,C3*%
X124900000Y-116265000D03*
X124900000Y-114715000D03*
%TD*%
M02*
