%TF.GenerationSoftware,KiCad,Pcbnew,8.0.1*%
%TF.CreationDate,2024-04-11T10:52:21-07:00*%
%TF.ProjectId,TMC2240_RP2040,544d4332-3234-4305-9f52-50323034302e,rev?*%
%TF.SameCoordinates,Original*%
%TF.FileFunction,Copper,L2,Inr*%
%TF.FilePolarity,Positive*%
%FSLAX46Y46*%
G04 Gerber Fmt 4.6, Leading zero omitted, Abs format (unit mm)*
G04 Created by KiCad (PCBNEW 8.0.1) date 2024-04-11 10:52:21*
%MOMM*%
%LPD*%
G01*
G04 APERTURE LIST*
%TA.AperFunction,ComponentPad*%
%ADD10R,1.700000X1.700000*%
%TD*%
%TA.AperFunction,ComponentPad*%
%ADD11O,1.700000X1.700000*%
%TD*%
%TA.AperFunction,ComponentPad*%
%ADD12C,5.600000*%
%TD*%
%TA.AperFunction,ComponentPad*%
%ADD13O,1.000000X2.100000*%
%TD*%
%TA.AperFunction,ComponentPad*%
%ADD14O,1.000000X1.600000*%
%TD*%
%TA.AperFunction,HeatsinkPad*%
%ADD15C,0.600000*%
%TD*%
%TA.AperFunction,ViaPad*%
%ADD16C,0.600000*%
%TD*%
%TA.AperFunction,Conductor*%
%ADD17C,0.200000*%
%TD*%
%TA.AperFunction,Conductor*%
%ADD18C,0.300000*%
%TD*%
G04 APERTURE END LIST*
D10*
%TO.N,GND*%
%TO.C,J2*%
X153000000Y-144500000D03*
D11*
%TO.N,+3.3V*%
X153000000Y-141960000D03*
%TO.N,Net-(J2-Pin_3)*%
X153000000Y-139420000D03*
%TO.N,Net-(J2-Pin_4)*%
X153000000Y-136880000D03*
%TO.N,Net-(J2-Pin_5)*%
X153000000Y-134340000D03*
%TO.N,Net-(J2-Pin_6)*%
X153000000Y-131800000D03*
%TD*%
D10*
%TO.N,GND*%
%TO.C,J14*%
X97200000Y-125980000D03*
D11*
%TO.N,Net-(J14-Pin_2)*%
X97200000Y-128520000D03*
%TO.N,Net-(J14-Pin_3)*%
X97200000Y-131060000D03*
%TO.N,+5V*%
X97200000Y-133600000D03*
%TD*%
D12*
%TO.N,GND*%
%TO.C,J10*%
X141275000Y-161275000D03*
%TD*%
D13*
%TO.N,GND*%
%TO.C,J19*%
X129840000Y-111380000D03*
D14*
X129840000Y-107200000D03*
D13*
X121200000Y-111380000D03*
D14*
X121200000Y-107200000D03*
%TD*%
D12*
%TO.N,GND*%
%TO.C,J5*%
X100000000Y-120000000D03*
%TD*%
%TO.N,GND*%
%TO.C,J12*%
X141275000Y-110475000D03*
%TD*%
%TO.N,GND*%
%TO.C,J6*%
X100000000Y-151750000D03*
%TD*%
D10*
%TO.N,GND*%
%TO.C,J1*%
X131825000Y-163400000D03*
D11*
%TO.N,VCC*%
X134365000Y-163400000D03*
%TD*%
D12*
%TO.N,GND*%
%TO.C,J8*%
X150800000Y-151750000D03*
%TD*%
%TO.N,GND*%
%TO.C,J9*%
X109525000Y-161275000D03*
%TD*%
D10*
%TO.N,/RP2040uC/SWCLK*%
%TO.C,J16*%
X148610000Y-127350000D03*
D11*
%TO.N,GND*%
X151150000Y-127350000D03*
%TO.N,/RP2040uC/SWDIO*%
X153690000Y-127350000D03*
%TD*%
D12*
%TO.N,GND*%
%TO.C,J7*%
X150800000Y-120000000D03*
%TD*%
D10*
%TO.N,Net-(J4-Pin_1)*%
%TO.C,J4*%
X117330000Y-163600000D03*
D11*
%TO.N,Net-(J4-Pin_2)*%
X119870000Y-163600000D03*
%TO.N,Net-(J4-Pin_3)*%
X122410000Y-163600000D03*
%TO.N,Net-(J4-Pin_4)*%
X124950000Y-163600000D03*
%TD*%
D10*
%TO.N,GND*%
%TO.C,J15*%
X97200000Y-138400000D03*
D11*
%TO.N,Net-(J15-Pin_2)*%
X97200000Y-140940000D03*
%TO.N,Net-(J15-Pin_3)*%
X97200000Y-143480000D03*
%TO.N,Net-(J15-Pin_4)*%
X97200000Y-146020000D03*
%TD*%
D10*
%TO.N,GND*%
%TO.C,SW2*%
X140400000Y-118000000D03*
D11*
%TO.N,Net-(JP1-C)*%
X140400000Y-120540000D03*
%TD*%
D10*
%TO.N,GND*%
%TO.C,SW1*%
X144700000Y-117925000D03*
D11*
%TO.N,/RP2040uC/RUN*%
X144700000Y-120465000D03*
%TD*%
D12*
%TO.N,GND*%
%TO.C,J11*%
X109525000Y-110475000D03*
%TD*%
D15*
%TO.N,GND*%
%TO.C,U1*%
X126550000Y-151262500D03*
X125250000Y-151262500D03*
X123950000Y-151262500D03*
X126550000Y-152562500D03*
X125250000Y-152562500D03*
X123950000Y-152562500D03*
X126550000Y-153862500D03*
X125250000Y-153862500D03*
X123950000Y-153862500D03*
%TD*%
D16*
%TO.N,GND*%
X116750000Y-146950000D03*
X151000000Y-138400000D03*
X151000000Y-135600000D03*
X151000000Y-131600000D03*
X146700000Y-139800000D03*
X142000000Y-139800000D03*
X138900000Y-140850000D03*
X140300000Y-136900000D03*
X138600000Y-134100000D03*
X142600000Y-134300000D03*
X139500000Y-131200000D03*
%TO.N,/AccessoryConnections/LIMITM*%
X147000000Y-137800000D03*
%TO.N,/AccessoryConnections/LIMITL*%
X146800000Y-133500000D03*
%TO.N,/AccessoryConnections/ADC*%
X137060000Y-132500000D03*
X135600000Y-116900000D03*
%TO.N,+3.3V*%
X140000000Y-135400000D03*
X144800000Y-135400000D03*
X148245000Y-131655000D03*
X148550000Y-134400000D03*
X148560000Y-138900000D03*
%TO.N,GND*%
X126070000Y-122550000D03*
X102900000Y-139180000D03*
X114380000Y-143610000D03*
X123960000Y-134600000D03*
X125950000Y-146175000D03*
X117700000Y-107380000D03*
X132460000Y-146970000D03*
X134440000Y-117670000D03*
X134500000Y-146000000D03*
X138600000Y-143800000D03*
X132860000Y-131000000D03*
X126700000Y-133900000D03*
X121350000Y-161270000D03*
X99080000Y-144640000D03*
X134100000Y-155300000D03*
X136800000Y-155300000D03*
X129380000Y-160350000D03*
X114500000Y-140500000D03*
X124000000Y-137600000D03*
X124310000Y-131100000D03*
X121000000Y-137700000D03*
X121530000Y-144400000D03*
X134500000Y-136600000D03*
X125900000Y-120880000D03*
X132460000Y-155630000D03*
X117425000Y-132200000D03*
X99160000Y-139570000D03*
X128670000Y-139120000D03*
X122943897Y-116278897D03*
X129010000Y-132700000D03*
X135350000Y-122620000D03*
X135900000Y-124000000D03*
X127660000Y-122630000D03*
X127660000Y-120870000D03*
X112000000Y-131600000D03*
%TO.N,/RP2040uC/RUN*%
X144605000Y-125535000D03*
X129010000Y-123940000D03*
%TO.N,VCC*%
X125500000Y-156660000D03*
X122610000Y-155890000D03*
X128390000Y-155650000D03*
%TO.N,Net-(U1-V_{CP})*%
X124500000Y-156680000D03*
X122200000Y-155080000D03*
%TO.N,/RP2040uC/XIN*%
X128950000Y-131080000D03*
X126610000Y-124050000D03*
%TO.N,+1V1*%
X128780000Y-117290000D03*
X125170000Y-117290000D03*
X127885000Y-126395000D03*
%TO.N,+5V*%
X102080000Y-130100000D03*
X136800000Y-158590000D03*
X115300000Y-114250000D03*
X104430000Y-144110000D03*
%TO.N,Net-(U2-VDD3V)*%
X120760000Y-134580000D03*
%TO.N,+3.3V*%
X127652475Y-127737526D03*
X123840000Y-147160000D03*
X120800000Y-122920000D03*
X147800000Y-144100000D03*
X120360000Y-144300000D03*
X120900000Y-135840000D03*
X117270000Y-112660000D03*
X131690000Y-133860000D03*
X120280000Y-117590000D03*
X141580000Y-128380000D03*
X126876911Y-117213089D03*
X131660000Y-118640000D03*
X130280000Y-117430000D03*
X132240000Y-153540000D03*
X132810000Y-123490000D03*
X116340000Y-129510000D03*
%TO.N,Net-(J14-Pin_2)*%
X105120000Y-137720000D03*
%TO.N,Net-(J14-Pin_3)*%
X101990000Y-138550000D03*
%TO.N,Net-(J15-Pin_3)*%
X106540000Y-134920000D03*
%TO.N,Net-(J15-Pin_2)*%
X106260000Y-136320000D03*
%TO.N,/RP2040uC/SWCLK*%
X127409426Y-124080358D03*
X129190000Y-128900000D03*
%TO.N,/RP2040uC/SWDIO*%
X128210000Y-124020000D03*
X129920000Y-128420000D03*
%TO.N,/StepperTMC2240/OV*%
X122500000Y-148880000D03*
X121110000Y-152550000D03*
%TO.N,/DualRS232UART/TX1*%
X116580000Y-137060000D03*
X118310000Y-122300000D03*
%TO.N,/RP2040uC/RX0_SCL0_SPIS0_GP1*%
X114280000Y-120500000D03*
X120790000Y-120510000D03*
X114350000Y-135310000D03*
%TO.N,/RP2040uC/TX1_SDA0_SPIO0_GP4*%
X118118345Y-121523294D03*
X124476461Y-121235504D03*
%TO.N,/DualRS232UART/TX2*%
X115520000Y-122860000D03*
X115740000Y-137980000D03*
%TO.N,/RP2040uC/RX1_SCL0_SPIS0_GP5*%
X122124264Y-122162500D03*
X114640000Y-139150000D03*
X120690000Y-140570000D03*
%TO.N,/RP2040uC/TX1_SDA0_SPIO1_GP8*%
X122200000Y-123362500D03*
X120780000Y-126900000D03*
%TO.N,/AS5048AEncoder/MOSI*%
X129450000Y-152430000D03*
X119080000Y-129100000D03*
X124530245Y-139610000D03*
X123920000Y-144580000D03*
X126750000Y-144570000D03*
X118720000Y-139350000D03*
%TO.N,/RP2040uC/RX1_SCL0_SPIS1_GP9*%
X124529574Y-123714972D03*
X126460000Y-141070000D03*
%TO.N,/StepperTMC2240/~{CS}*%
X127850000Y-144560000D03*
X130430000Y-152450000D03*
%TO.N,/RP2040uC/SDA1_SPIC1_GP10*%
X122230000Y-124220000D03*
X124050000Y-128150000D03*
%TO.N,/AS5048AEncoder/CLK*%
X124050000Y-128950003D03*
X125600000Y-136100000D03*
X128710000Y-153490000D03*
%TO.N,/RP2040uC/SCL1_SPII1_GP11*%
X131300000Y-150150000D03*
X121600000Y-140340000D03*
X122138300Y-125014729D03*
X131400000Y-140320000D03*
%TO.N,/AS5048AEncoder/MISO*%
X130140000Y-136170000D03*
%TO.N,/AS5048AEncoder/~{CS}*%
X129830000Y-134925000D03*
%TO.N,/RP2040uC/SCL1_SPII0_GP7*%
X124340000Y-135730000D03*
X124440000Y-122920000D03*
%TO.N,/AS5048AEncoder/PWM*%
X121160000Y-132600000D03*
%TO.N,/RP2040uC/SDA1_SPIC0_GP6*%
X124403263Y-122032151D03*
X120980000Y-129000000D03*
%TO.N,/StepperTMC2240/STEP*%
X132800000Y-148210000D03*
X133280000Y-129270000D03*
%TO.N,/StepperTMC2240/DIR*%
X124950000Y-145170000D03*
X127940000Y-149730000D03*
%TO.N,/RP2040uC/SCL1_SPII0_GP3*%
X119760000Y-140040000D03*
X122087849Y-121363327D03*
X123870000Y-140090000D03*
%TO.N,/RP2040uC/TX0_SDA0_SPIO1_GP12*%
X122160000Y-125840000D03*
X121300000Y-148200000D03*
%TO.N,/RP2040uC/RX0_SCL0_SPIS1_GP13*%
X117610000Y-148940000D03*
X123290000Y-126000000D03*
X123100000Y-148140000D03*
%TO.N,/StepperTMC2240/~{DRV_EN}*%
X126990735Y-148930735D03*
X123500000Y-148930000D03*
%TO.N,/RP2040uC/SDA1_SPIC1_GP14*%
X125164773Y-124201311D03*
X128500000Y-141220000D03*
%TO.N,/RP2040uC/SCL1_SPII1_GP15*%
X125130245Y-126162696D03*
X132370000Y-139840000D03*
X125260000Y-140090000D03*
%TO.N,/StepperTMC2240/~{SLEEP}*%
X132910000Y-156730000D03*
X132240000Y-144820000D03*
%TO.N,/RP2040uC/GPIO2*%
X121610000Y-120550000D03*
X127760000Y-119350000D03*
X137750000Y-119660000D03*
%TO.N,Net-(J19-CC1)*%
X126700000Y-110680000D03*
X124169265Y-113669265D03*
%TO.N,/RP2040uC/QSPI_SS*%
X123070000Y-118280000D03*
X113640000Y-117690000D03*
%TO.N,/RP2040uC/~{USB_BOOT}*%
X121840000Y-130610000D03*
X142370000Y-129810000D03*
X142820000Y-124640000D03*
%TO.N,/RP2040uC/QSPI_SCLK*%
X111170000Y-127630000D03*
X111190000Y-119750000D03*
X125900000Y-119500000D03*
%TO.N,/RP2040uC/QSPI_SD2*%
X124280000Y-120460000D03*
X111860000Y-120950000D03*
%TO.N,/RP2040uC/QSPI_SD0*%
X109950000Y-119750000D03*
X109910000Y-128070000D03*
X124780000Y-119770000D03*
%TO.N,/RP2040uC/QSPI_SD1*%
X123250000Y-117470000D03*
X112390000Y-118090000D03*
%TO.N,/RP2040uC/QSPI_SD3*%
X112640000Y-119140000D03*
X112500000Y-127900000D03*
X126800000Y-119500000D03*
%TO.N,/AccessoryConnections/LIMITM*%
X145080000Y-129970000D03*
%TO.N,/RP2040uC/ADC0_GP26*%
X137490000Y-139240000D03*
X137660000Y-120670000D03*
X132760000Y-120380000D03*
%TO.N,/AccessoryConnections/LIMITL*%
X146290000Y-125600000D03*
X132030000Y-124840000D03*
%TO.N,VBUS*%
X123810000Y-109120000D03*
X119940000Y-108540000D03*
X115390000Y-107020000D03*
X127390000Y-109130000D03*
%TO.N,/RP2040uC/GPIO25*%
X136916667Y-131000000D03*
X132710000Y-121360000D03*
X136910000Y-121370000D03*
%TD*%
D17*
%TO.N,/RP2040uC/SWCLK*%
X129190000Y-125860932D02*
X127409426Y-124080358D01*
X129190000Y-128900000D02*
X129190000Y-125860932D01*
%TO.N,/AccessoryConnections/LIMITM*%
X147000000Y-135600000D02*
X147000000Y-137800000D01*
X145400000Y-130290000D02*
X145400000Y-134000000D01*
X145400000Y-134000000D02*
X147000000Y-135600000D01*
X145080000Y-129970000D02*
X145400000Y-130290000D01*
%TO.N,/AccessoryConnections/LIMITL*%
X146290000Y-125600000D02*
X146290000Y-132990000D01*
X146290000Y-132990000D02*
X146800000Y-133500000D01*
%TO.N,/AccessoryConnections/ADC*%
X136500000Y-130500000D02*
X136500000Y-122100000D01*
X136316667Y-130683333D02*
X136500000Y-130500000D01*
X136316667Y-131756667D02*
X136316667Y-130683333D01*
X135600000Y-121200000D02*
X135600000Y-116900000D01*
X137060000Y-132500000D02*
X136316667Y-131756667D01*
X136500000Y-122100000D02*
X135600000Y-121200000D01*
%TO.N,/RP2040uC/GPIO25*%
X136916667Y-131000000D02*
X136910000Y-121370000D01*
%TO.N,/RP2040uC/XIN*%
X128500000Y-126019461D02*
X128500000Y-129400000D01*
X126610000Y-124129461D02*
X128500000Y-126019461D01*
X128950000Y-129850000D02*
X128500000Y-129400000D01*
X128950000Y-131080000D02*
X128950000Y-129850000D01*
X126610000Y-124050000D02*
X126610000Y-124129461D01*
D18*
%TO.N,Net-(J14-Pin_2)*%
X105120000Y-136440000D02*
X105120000Y-137720000D01*
X97200000Y-128520000D02*
X105120000Y-136440000D01*
%TO.N,Net-(J14-Pin_3)*%
X101990000Y-134600000D02*
X98450000Y-131060000D01*
X101990000Y-138550000D02*
X101990000Y-134600000D01*
X98450000Y-131060000D02*
X97200000Y-131060000D01*
%TO.N,Net-(J15-Pin_3)*%
X107100000Y-137687106D02*
X102767106Y-142020000D01*
X98660000Y-142020000D02*
X97200000Y-143480000D01*
X102767106Y-142020000D02*
X98660000Y-142020000D01*
X106540000Y-134920000D02*
X107100000Y-135480000D01*
X107100000Y-135480000D02*
X107100000Y-137687106D01*
%TO.N,Net-(J15-Pin_2)*%
X106260000Y-137820000D02*
X106260000Y-136320000D01*
X103140000Y-140940000D02*
X106260000Y-137820000D01*
X97200000Y-140940000D02*
X103140000Y-140940000D01*
D17*
%TO.N,/RP2040uC/SWDIO*%
X129780000Y-125650000D02*
X129780000Y-128280000D01*
X128210000Y-124080000D02*
X129780000Y-125650000D01*
X129780000Y-128280000D02*
X129920000Y-128420000D01*
X128210000Y-124020000D02*
X128210000Y-124080000D01*
%TO.N,/StepperTMC2240/OV*%
X122500000Y-148880000D02*
X122500000Y-151160000D01*
X122500000Y-151160000D02*
X121110000Y-152550000D01*
%TO.N,/DualRS232UART/TX1*%
X118310000Y-135330000D02*
X116580000Y-137060000D01*
X118310000Y-122300000D02*
X118310000Y-135330000D01*
%TO.N,/RP2040uC/RX0_SCL0_SPIS0_GP1*%
X114280000Y-135240000D02*
X114350000Y-135310000D01*
X114280000Y-120500000D02*
X114280000Y-135240000D01*
%TO.N,/DualRS232UART/TX2*%
X114840000Y-123540000D02*
X114840000Y-134240000D01*
X114840000Y-134240000D02*
X115740000Y-135140000D01*
X115520000Y-122860000D02*
X114840000Y-123540000D01*
X115740000Y-135140000D02*
X115740000Y-137980000D01*
%TO.N,/RP2040uC/RX1_SCL0_SPIS0_GP5*%
X122124264Y-122589707D02*
X122124264Y-122162500D01*
X120160000Y-138860000D02*
X120160000Y-134331471D01*
X120690000Y-140570000D02*
X120700000Y-140560000D01*
X120700000Y-139400000D02*
X120160000Y-138860000D01*
X120700000Y-140560000D02*
X120700000Y-139400000D01*
X120160000Y-134331471D02*
X120180000Y-134311471D01*
X120180000Y-124533971D02*
X122124264Y-122589707D01*
X120180000Y-134311471D02*
X120180000Y-124533971D01*
%TO.N,/RP2040uC/TX1_SDA0_SPIO1_GP8*%
X122200000Y-123362500D02*
X120780000Y-124782500D01*
X120780000Y-124782500D02*
X120780000Y-126900000D01*
%TO.N,/AS5048AEncoder/MOSI*%
X124470000Y-144030000D02*
X124470000Y-139670245D01*
X118700000Y-139380000D02*
X118700000Y-139370000D01*
X123920000Y-144580000D02*
X124470000Y-144030000D01*
X129450000Y-152430000D02*
X129450000Y-147440000D01*
X126750000Y-144740000D02*
X126750000Y-144570000D01*
X129450000Y-147440000D02*
X126750000Y-144740000D01*
X119080000Y-129100000D02*
X119080000Y-139000000D01*
X118700000Y-139370000D02*
X118720000Y-139350000D01*
X119080000Y-139000000D02*
X118700000Y-139380000D01*
X124470000Y-139670245D02*
X124530245Y-139610000D01*
%TO.N,/StepperTMC2240/~{CS}*%
X130300000Y-147554314D02*
X127850000Y-145104314D01*
X127850000Y-145104314D02*
X127850000Y-144560000D01*
X130300000Y-152320000D02*
X130300000Y-147554314D01*
X130430000Y-152450000D02*
X130300000Y-152320000D01*
%TO.N,/RP2040uC/SDA1_SPIC1_GP10*%
X122358529Y-124220000D02*
X124050000Y-125911471D01*
X124050000Y-125911471D02*
X124050000Y-128150000D01*
X122230000Y-124220000D02*
X122358529Y-124220000D01*
%TO.N,/AS5048AEncoder/CLK*%
X125880000Y-140801471D02*
X125810000Y-140871471D01*
X125600000Y-136100000D02*
X125880000Y-136380000D01*
X128700000Y-153480000D02*
X128710000Y-153490000D01*
X125810000Y-140871471D02*
X125810000Y-144570000D01*
X125880000Y-136380000D02*
X125880000Y-140801471D01*
X125810000Y-144570000D02*
X128700000Y-147460000D01*
X128700000Y-147460000D02*
X128700000Y-153480000D01*
%TO.N,/RP2040uC/SCL1_SPII1_GP11*%
X122440000Y-126990000D02*
X121560000Y-126110000D01*
X131400000Y-140320000D02*
X131400000Y-150050000D01*
X121760000Y-134994214D02*
X121760000Y-131930000D01*
X131400000Y-150050000D02*
X131300000Y-150150000D01*
X122440000Y-131230000D02*
X122440000Y-126990000D01*
X121600000Y-140340000D02*
X121750000Y-140190000D01*
X121750000Y-135004215D02*
X121760000Y-134994214D01*
X121760000Y-131930000D02*
X121750000Y-131920000D01*
X121750000Y-140190000D02*
X121750000Y-135004215D01*
X122136742Y-125014729D02*
X122138300Y-125014729D01*
X121560000Y-125591471D02*
X122136742Y-125014729D01*
X121750000Y-131920000D02*
X122440000Y-131230000D01*
X121560000Y-126110000D02*
X121560000Y-125591471D01*
%TO.N,/RP2040uC/SCL1_SPII0_GP7*%
X124800000Y-126720000D02*
X124460000Y-126380000D01*
X124460000Y-126380000D02*
X124460000Y-125220000D01*
X124460000Y-125220000D02*
X123430000Y-124190000D01*
X124800000Y-129400000D02*
X124800000Y-126720000D01*
X123430000Y-124190000D02*
X123430000Y-123930000D01*
X123790000Y-135730000D02*
X123090000Y-135030000D01*
X123430000Y-123930000D02*
X124440000Y-122920000D01*
X124340000Y-135730000D02*
X123790000Y-135730000D01*
X123700000Y-130500000D02*
X124800000Y-129400000D01*
X123700000Y-131667058D02*
X123700000Y-130500000D01*
X123090000Y-132277058D02*
X123700000Y-131667058D01*
X123090000Y-135030000D02*
X123090000Y-132277058D01*
%TO.N,/StepperTMC2240/STEP*%
X133460000Y-129450000D02*
X133280000Y-129270000D01*
X133460000Y-147545000D02*
X133460000Y-129450000D01*
X132800000Y-148210000D02*
X132800000Y-148205000D01*
X132800000Y-148205000D02*
X133460000Y-147545000D01*
%TO.N,/StepperTMC2240/DIR*%
X127940000Y-147316471D02*
X127940000Y-149730000D01*
X125793529Y-145170000D02*
X127940000Y-147316471D01*
X124950000Y-145170000D02*
X125793529Y-145170000D01*
%TO.N,/RP2040uC/SCL1_SPII0_GP3*%
X119760000Y-134165786D02*
X119780000Y-134145786D01*
X119780000Y-134145786D02*
X119780000Y-122700000D01*
X121116673Y-121363327D02*
X122087849Y-121363327D01*
X119780000Y-122700000D02*
X121116673Y-121363327D01*
X119760000Y-140040000D02*
X119760000Y-134165786D01*
%TO.N,/RP2040uC/TX0_SDA0_SPIO1_GP12*%
X122840000Y-126520000D02*
X122840000Y-131395686D01*
X122300000Y-140948529D02*
X122120000Y-141128529D01*
X122120000Y-147380000D02*
X121300000Y-148200000D01*
X122160000Y-125840000D02*
X122840000Y-126520000D01*
X122160000Y-132075686D02*
X122160000Y-139591471D01*
X122160000Y-139591471D02*
X122300000Y-139731471D01*
X122120000Y-144658529D02*
X122120000Y-147380000D01*
X122120000Y-141128529D02*
X122120000Y-144141471D01*
X122130000Y-144648529D02*
X122120000Y-144658529D01*
X122300000Y-139731471D02*
X122300000Y-140948529D01*
X122120000Y-144141471D02*
X122130000Y-144151471D01*
X122840000Y-131395686D02*
X122160000Y-132075686D01*
X122130000Y-144151471D02*
X122130000Y-144648529D01*
%TO.N,/RP2040uC/RX0_SCL0_SPIS1_GP13*%
X123290000Y-131511372D02*
X123290000Y-126000000D01*
X122700000Y-139565785D02*
X122560000Y-139425785D01*
X122700000Y-141114215D02*
X122700000Y-139565785D01*
X122530000Y-147535686D02*
X122530000Y-141284215D01*
X123100000Y-148140000D02*
X123100000Y-148100000D01*
X123100000Y-148100000D02*
X122535686Y-147535686D01*
X122560000Y-139425785D02*
X122560000Y-132241372D01*
X122535686Y-147535686D02*
X122530000Y-147535686D01*
X122530000Y-141284215D02*
X122700000Y-141114215D01*
X122560000Y-132241372D02*
X123290000Y-131511372D01*
%TO.N,/StepperTMC2240/~{SLEEP}*%
X131860000Y-148270000D02*
X131860000Y-145200000D01*
X133060000Y-156580000D02*
X133060000Y-149470000D01*
X133060000Y-149470000D02*
X131860000Y-148270000D01*
X131860000Y-145200000D02*
X132240000Y-144820000D01*
X132910000Y-156730000D02*
X133060000Y-156580000D01*
%TO.N,Net-(J19-CC1)*%
X125310000Y-110680000D02*
X126700000Y-110680000D01*
X124169265Y-113669265D02*
X124169265Y-111820735D01*
X124169265Y-111820735D02*
X125310000Y-110680000D01*
%TO.N,/RP2040uC/~{USB_BOOT}*%
X142370000Y-129810000D02*
X142370000Y-125090000D01*
X142370000Y-125090000D02*
X142820000Y-124640000D01*
%TO.N,/RP2040uC/QSPI_SCLK*%
X111190000Y-127610000D02*
X111170000Y-127630000D01*
X111190000Y-119750000D02*
X111190000Y-127610000D01*
%TO.N,/RP2040uC/QSPI_SD0*%
X109950000Y-119750000D02*
X109950000Y-128030000D01*
X109950000Y-128030000D02*
X109910000Y-128070000D01*
%TO.N,/RP2040uC/QSPI_SD3*%
X112640000Y-127760000D02*
X112500000Y-127900000D01*
X112640000Y-119140000D02*
X112640000Y-127760000D01*
%TO.N,/RP2040uC/ADC0_GP26*%
X137660000Y-120670000D02*
X137660000Y-139070000D01*
X137660000Y-139070000D02*
X137490000Y-139240000D01*
%TD*%
%TA.AperFunction,Conductor*%
%TO.N,GND*%
G36*
X132803599Y-145496884D02*
G01*
X132848813Y-145550152D01*
X132859500Y-145600511D01*
X132859500Y-147244901D01*
X132839815Y-147311940D01*
X132823180Y-147332583D01*
X132775828Y-147379934D01*
X132714505Y-147413418D01*
X132702032Y-147415472D01*
X132620749Y-147424630D01*
X132613953Y-147426182D01*
X132613365Y-147423609D01*
X132555624Y-147426532D01*
X132495012Y-147391777D01*
X132462811Y-147329770D01*
X132460500Y-147305941D01*
X132460500Y-145678918D01*
X132480185Y-145611879D01*
X132532989Y-145566124D01*
X132543547Y-145561876D01*
X132559377Y-145556337D01*
X132589522Y-145545789D01*
X132669528Y-145495517D01*
X132736764Y-145476517D01*
X132803599Y-145496884D01*
G37*
%TD.AperFunction*%
%TA.AperFunction,Conductor*%
G36*
X123365703Y-136155385D02*
G01*
X123372181Y-136161417D01*
X123421284Y-136210520D01*
X123421286Y-136210521D01*
X123421290Y-136210524D01*
X123517176Y-136265883D01*
X123558216Y-136289577D01*
X123670019Y-136319534D01*
X123710942Y-136330500D01*
X123710943Y-136330500D01*
X123757588Y-136330500D01*
X123824627Y-136350185D01*
X123834903Y-136357555D01*
X123837736Y-136359814D01*
X123837738Y-136359816D01*
X123990478Y-136455789D01*
X124047692Y-136475809D01*
X124160745Y-136515368D01*
X124160750Y-136515369D01*
X124339996Y-136535565D01*
X124340000Y-136535565D01*
X124340004Y-136535565D01*
X124519249Y-136515369D01*
X124519252Y-136515368D01*
X124519255Y-136515368D01*
X124689522Y-136455789D01*
X124719761Y-136436788D01*
X124786996Y-136417787D01*
X124853831Y-136438153D01*
X124890728Y-136475809D01*
X124970184Y-136602262D01*
X125097740Y-136729818D01*
X125139742Y-136756209D01*
X125221472Y-136807563D01*
X125267763Y-136859896D01*
X125279500Y-136912556D01*
X125279500Y-138927815D01*
X125259815Y-138994854D01*
X125207011Y-139040609D01*
X125137853Y-139050553D01*
X125074297Y-139021528D01*
X125067819Y-139015496D01*
X125032507Y-138980184D01*
X124879768Y-138884211D01*
X124709499Y-138824631D01*
X124709494Y-138824630D01*
X124530249Y-138804435D01*
X124530241Y-138804435D01*
X124350995Y-138824630D01*
X124350990Y-138824631D01*
X124180721Y-138884211D01*
X124027982Y-138980184D01*
X123900429Y-139107737D01*
X123815033Y-139243645D01*
X123762698Y-139289936D01*
X123723923Y-139300893D01*
X123690750Y-139304630D01*
X123520477Y-139364210D01*
X123446363Y-139410780D01*
X123379126Y-139429780D01*
X123312291Y-139409412D01*
X123267077Y-139356144D01*
X123260616Y-139337879D01*
X123259577Y-139334000D01*
X123256837Y-139329255D01*
X123242620Y-139304630D01*
X123217129Y-139260478D01*
X123180520Y-139197069D01*
X123177112Y-139191166D01*
X123160500Y-139129167D01*
X123160500Y-136249098D01*
X123180185Y-136182059D01*
X123232989Y-136136304D01*
X123302147Y-136126360D01*
X123365703Y-136155385D01*
G37*
%TD.AperFunction*%
%TA.AperFunction,Conductor*%
G36*
X121080438Y-136645043D02*
G01*
X121131818Y-136692392D01*
X121149500Y-136756209D01*
X121149500Y-138700903D01*
X121129815Y-138767942D01*
X121077011Y-138813697D01*
X121007853Y-138823641D01*
X120944297Y-138794616D01*
X120937819Y-138788584D01*
X120796819Y-138647584D01*
X120763334Y-138586261D01*
X120760500Y-138559903D01*
X120760500Y-136768603D01*
X120780185Y-136701564D01*
X120832989Y-136655809D01*
X120893036Y-136646236D01*
X120893036Y-136645565D01*
X120897245Y-136645565D01*
X120898386Y-136645383D01*
X120900000Y-136645565D01*
X120900001Y-136645564D01*
X120900002Y-136645565D01*
X120900003Y-136645565D01*
X121011616Y-136632989D01*
X121080438Y-136645043D01*
G37*
%TD.AperFunction*%
%TA.AperFunction,Conductor*%
G36*
X141083363Y-104995185D02*
G01*
X141104005Y-105011819D01*
X156263181Y-120170995D01*
X156296666Y-120232318D01*
X156299500Y-120258676D01*
X156299500Y-151491324D01*
X156279815Y-151558363D01*
X156263181Y-151579005D01*
X141104005Y-166738181D01*
X141042682Y-166771666D01*
X141016324Y-166774500D01*
X109783676Y-166774500D01*
X109716637Y-166754815D01*
X109695995Y-166738181D01*
X107455684Y-164497870D01*
X115979500Y-164497870D01*
X115979501Y-164497876D01*
X115985908Y-164557483D01*
X116036202Y-164692328D01*
X116036206Y-164692335D01*
X116122452Y-164807544D01*
X116122455Y-164807547D01*
X116237664Y-164893793D01*
X116237671Y-164893797D01*
X116372517Y-164944091D01*
X116372516Y-164944091D01*
X116379444Y-164944835D01*
X116432127Y-164950500D01*
X118227872Y-164950499D01*
X118287483Y-164944091D01*
X118422331Y-164893796D01*
X118537546Y-164807546D01*
X118623796Y-164692331D01*
X118672810Y-164560916D01*
X118714681Y-164504984D01*
X118780145Y-164480566D01*
X118848418Y-164495417D01*
X118876673Y-164516569D01*
X118998599Y-164638495D01*
X119095384Y-164706265D01*
X119192165Y-164774032D01*
X119192167Y-164774033D01*
X119192170Y-164774035D01*
X119406337Y-164873903D01*
X119634592Y-164935063D01*
X119811034Y-164950500D01*
X119869999Y-164955659D01*
X119870000Y-164955659D01*
X119870001Y-164955659D01*
X119928966Y-164950500D01*
X120105408Y-164935063D01*
X120333663Y-164873903D01*
X120547830Y-164774035D01*
X120741401Y-164638495D01*
X120908495Y-164471401D01*
X121038425Y-164285842D01*
X121093002Y-164242217D01*
X121162500Y-164235023D01*
X121224855Y-164266546D01*
X121241575Y-164285842D01*
X121371500Y-164471395D01*
X121371505Y-164471401D01*
X121538599Y-164638495D01*
X121635384Y-164706265D01*
X121732165Y-164774032D01*
X121732167Y-164774033D01*
X121732170Y-164774035D01*
X121946337Y-164873903D01*
X122174592Y-164935063D01*
X122351034Y-164950500D01*
X122409999Y-164955659D01*
X122410000Y-164955659D01*
X122410001Y-164955659D01*
X122468966Y-164950500D01*
X122645408Y-164935063D01*
X122873663Y-164873903D01*
X123087830Y-164774035D01*
X123281401Y-164638495D01*
X123448495Y-164471401D01*
X123578425Y-164285842D01*
X123633002Y-164242217D01*
X123702500Y-164235023D01*
X123764855Y-164266546D01*
X123781575Y-164285842D01*
X123911500Y-164471395D01*
X123911505Y-164471401D01*
X124078599Y-164638495D01*
X124175384Y-164706265D01*
X124272165Y-164774032D01*
X124272167Y-164774033D01*
X124272170Y-164774035D01*
X124486337Y-164873903D01*
X124714592Y-164935063D01*
X124891034Y-164950500D01*
X124949999Y-164955659D01*
X124950000Y-164955659D01*
X124950001Y-164955659D01*
X125008966Y-164950500D01*
X125185408Y-164935063D01*
X125413663Y-164873903D01*
X125627830Y-164774035D01*
X125821401Y-164638495D01*
X125988495Y-164471401D01*
X126124035Y-164277830D01*
X126223903Y-164063663D01*
X126285063Y-163835408D01*
X126305659Y-163600000D01*
X126288161Y-163400000D01*
X133009341Y-163400000D01*
X133029936Y-163635403D01*
X133029938Y-163635413D01*
X133091094Y-163863655D01*
X133091096Y-163863659D01*
X133091097Y-163863663D01*
X133184355Y-164063655D01*
X133190965Y-164077830D01*
X133190967Y-164077834D01*
X133299281Y-164232521D01*
X133326505Y-164271401D01*
X133493599Y-164438495D01*
X133578404Y-164497876D01*
X133687165Y-164574032D01*
X133687167Y-164574033D01*
X133687170Y-164574035D01*
X133901337Y-164673903D01*
X134129592Y-164735063D01*
X134317918Y-164751539D01*
X134364999Y-164755659D01*
X134365000Y-164755659D01*
X134365001Y-164755659D01*
X134404234Y-164752226D01*
X134600408Y-164735063D01*
X134828663Y-164673903D01*
X135042830Y-164574035D01*
X135236401Y-164438495D01*
X135403495Y-164271401D01*
X135539035Y-164077830D01*
X135638903Y-163863663D01*
X135700063Y-163635408D01*
X135720659Y-163400000D01*
X135717561Y-163364596D01*
X135700063Y-163164596D01*
X135700063Y-163164592D01*
X135638903Y-162936337D01*
X135539035Y-162722171D01*
X135531865Y-162711930D01*
X135403494Y-162528597D01*
X135236402Y-162361506D01*
X135236395Y-162361501D01*
X135042834Y-162225967D01*
X135042830Y-162225965D01*
X135042828Y-162225964D01*
X134828663Y-162126097D01*
X134828659Y-162126096D01*
X134828655Y-162126094D01*
X134600413Y-162064938D01*
X134600403Y-162064936D01*
X134365001Y-162044341D01*
X134364999Y-162044341D01*
X134129596Y-162064936D01*
X134129586Y-162064938D01*
X133901344Y-162126094D01*
X133901335Y-162126098D01*
X133687171Y-162225964D01*
X133687169Y-162225965D01*
X133493597Y-162361505D01*
X133326505Y-162528597D01*
X133190965Y-162722169D01*
X133190964Y-162722171D01*
X133091098Y-162936335D01*
X133091094Y-162936344D01*
X133029938Y-163164586D01*
X133029936Y-163164596D01*
X133009341Y-163399999D01*
X133009341Y-163400000D01*
X126288161Y-163400000D01*
X126285063Y-163364592D01*
X126223903Y-163136337D01*
X126124035Y-162922171D01*
X126118425Y-162914158D01*
X125988494Y-162728597D01*
X125821402Y-162561506D01*
X125821395Y-162561501D01*
X125627834Y-162425967D01*
X125627830Y-162425965D01*
X125627828Y-162425964D01*
X125413663Y-162326097D01*
X125413659Y-162326096D01*
X125413655Y-162326094D01*
X125185413Y-162264938D01*
X125185403Y-162264936D01*
X124950001Y-162244341D01*
X124949999Y-162244341D01*
X124714596Y-162264936D01*
X124714586Y-162264938D01*
X124486344Y-162326094D01*
X124486335Y-162326098D01*
X124272171Y-162425964D01*
X124272169Y-162425965D01*
X124078597Y-162561505D01*
X123911505Y-162728597D01*
X123781575Y-162914158D01*
X123726998Y-162957783D01*
X123657500Y-162964977D01*
X123595145Y-162933454D01*
X123578425Y-162914158D01*
X123448494Y-162728597D01*
X123281402Y-162561506D01*
X123281395Y-162561501D01*
X123087834Y-162425967D01*
X123087830Y-162425965D01*
X123087828Y-162425964D01*
X122873663Y-162326097D01*
X122873659Y-162326096D01*
X122873655Y-162326094D01*
X122645413Y-162264938D01*
X122645403Y-162264936D01*
X122410001Y-162244341D01*
X122409999Y-162244341D01*
X122174596Y-162264936D01*
X122174586Y-162264938D01*
X121946344Y-162326094D01*
X121946335Y-162326098D01*
X121732171Y-162425964D01*
X121732169Y-162425965D01*
X121538597Y-162561505D01*
X121371505Y-162728597D01*
X121241575Y-162914158D01*
X121186998Y-162957783D01*
X121117500Y-162964977D01*
X121055145Y-162933454D01*
X121038425Y-162914158D01*
X120908494Y-162728597D01*
X120741402Y-162561506D01*
X120741395Y-162561501D01*
X120547834Y-162425967D01*
X120547830Y-162425965D01*
X120547828Y-162425964D01*
X120333663Y-162326097D01*
X120333659Y-162326096D01*
X120333655Y-162326094D01*
X120105413Y-162264938D01*
X120105403Y-162264936D01*
X119870001Y-162244341D01*
X119869999Y-162244341D01*
X119634596Y-162264936D01*
X119634586Y-162264938D01*
X119406344Y-162326094D01*
X119406335Y-162326098D01*
X119192171Y-162425964D01*
X119192169Y-162425965D01*
X118998600Y-162561503D01*
X118876673Y-162683430D01*
X118815350Y-162716914D01*
X118745658Y-162711930D01*
X118689725Y-162670058D01*
X118672810Y-162639081D01*
X118623797Y-162507671D01*
X118623793Y-162507664D01*
X118537547Y-162392455D01*
X118537544Y-162392452D01*
X118422335Y-162306206D01*
X118422328Y-162306202D01*
X118287482Y-162255908D01*
X118287483Y-162255908D01*
X118227883Y-162249501D01*
X118227881Y-162249500D01*
X118227873Y-162249500D01*
X118227864Y-162249500D01*
X116432129Y-162249500D01*
X116432123Y-162249501D01*
X116372516Y-162255908D01*
X116237671Y-162306202D01*
X116237664Y-162306206D01*
X116122455Y-162392452D01*
X116122452Y-162392455D01*
X116036206Y-162507664D01*
X116036202Y-162507671D01*
X115985908Y-162642517D01*
X115979501Y-162702116D01*
X115979500Y-162702135D01*
X115979500Y-164497870D01*
X107455684Y-164497870D01*
X101547817Y-158590003D01*
X135994435Y-158590003D01*
X136014630Y-158769249D01*
X136014631Y-158769254D01*
X136074211Y-158939523D01*
X136170184Y-159092262D01*
X136297738Y-159219816D01*
X136450478Y-159315789D01*
X136620745Y-159375368D01*
X136620750Y-159375369D01*
X136799996Y-159395565D01*
X136800000Y-159395565D01*
X136800004Y-159395565D01*
X136979249Y-159375369D01*
X136979252Y-159375368D01*
X136979255Y-159375368D01*
X137149522Y-159315789D01*
X137302262Y-159219816D01*
X137429816Y-159092262D01*
X137525789Y-158939522D01*
X137585368Y-158769255D01*
X137605565Y-158590000D01*
X137585368Y-158410745D01*
X137525789Y-158240478D01*
X137429816Y-158087738D01*
X137302262Y-157960184D01*
X137149523Y-157864211D01*
X136979254Y-157804631D01*
X136979249Y-157804630D01*
X136800004Y-157784435D01*
X136799996Y-157784435D01*
X136620750Y-157804630D01*
X136620745Y-157804631D01*
X136450476Y-157864211D01*
X136297737Y-157960184D01*
X136170184Y-158087737D01*
X136074211Y-158240476D01*
X136014631Y-158410745D01*
X136014630Y-158410750D01*
X135994435Y-158589996D01*
X135994435Y-158590003D01*
X101547817Y-158590003D01*
X98037817Y-155080003D01*
X121394435Y-155080003D01*
X121414630Y-155259249D01*
X121414631Y-155259254D01*
X121474211Y-155429523D01*
X121500113Y-155470745D01*
X121570184Y-155582262D01*
X121697738Y-155709816D01*
X121750368Y-155742885D01*
X121796659Y-155795219D01*
X121807616Y-155861761D01*
X121804435Y-155889995D01*
X121804435Y-155890003D01*
X121824630Y-156069249D01*
X121824631Y-156069254D01*
X121884211Y-156239523D01*
X121969833Y-156375788D01*
X121980184Y-156392262D01*
X122107738Y-156519816D01*
X122260478Y-156615789D01*
X122430745Y-156675368D01*
X122430750Y-156675369D01*
X122609996Y-156695565D01*
X122610000Y-156695565D01*
X122610004Y-156695565D01*
X122748121Y-156680003D01*
X123694435Y-156680003D01*
X123714630Y-156859249D01*
X123714631Y-156859254D01*
X123774211Y-157029523D01*
X123857617Y-157162262D01*
X123870184Y-157182262D01*
X123997738Y-157309816D01*
X124088080Y-157366582D01*
X124118646Y-157385788D01*
X124150478Y-157405789D01*
X124263591Y-157445369D01*
X124320745Y-157465368D01*
X124320750Y-157465369D01*
X124499996Y-157485565D01*
X124500000Y-157485565D01*
X124500004Y-157485565D01*
X124679249Y-157465369D01*
X124679252Y-157465368D01*
X124679255Y-157465368D01*
X124849522Y-157405789D01*
X124949942Y-157342690D01*
X125017178Y-157323690D01*
X125081886Y-157342690D01*
X125109140Y-157359815D01*
X125150478Y-157385789D01*
X125207632Y-157405788D01*
X125320745Y-157445368D01*
X125320750Y-157445369D01*
X125499996Y-157465565D01*
X125500000Y-157465565D01*
X125500004Y-157465565D01*
X125679249Y-157445369D01*
X125679252Y-157445368D01*
X125679255Y-157445368D01*
X125849522Y-157385789D01*
X126002262Y-157289816D01*
X126129816Y-157162262D01*
X126225789Y-157009522D01*
X126285368Y-156839255D01*
X126297678Y-156730000D01*
X126305565Y-156660003D01*
X126305565Y-156659996D01*
X126285369Y-156480750D01*
X126285368Y-156480745D01*
X126232787Y-156330478D01*
X126225789Y-156310478D01*
X126129816Y-156157738D01*
X126002262Y-156030184D01*
X125980180Y-156016309D01*
X125849523Y-155934211D01*
X125679254Y-155874631D01*
X125679249Y-155874630D01*
X125500004Y-155854435D01*
X125499996Y-155854435D01*
X125320750Y-155874630D01*
X125320745Y-155874631D01*
X125150476Y-155934211D01*
X125050057Y-155997309D01*
X124982820Y-156016309D01*
X124918114Y-155997309D01*
X124849520Y-155954209D01*
X124679262Y-155894633D01*
X124679249Y-155894630D01*
X124500004Y-155874435D01*
X124499996Y-155874435D01*
X124320750Y-155894630D01*
X124320745Y-155894631D01*
X124150476Y-155954211D01*
X123997737Y-156050184D01*
X123870184Y-156177737D01*
X123774211Y-156330476D01*
X123714631Y-156500745D01*
X123714630Y-156500750D01*
X123694435Y-156679996D01*
X123694435Y-156680003D01*
X122748121Y-156680003D01*
X122789249Y-156675369D01*
X122789252Y-156675368D01*
X122789255Y-156675368D01*
X122959522Y-156615789D01*
X123112262Y-156519816D01*
X123239816Y-156392262D01*
X123335789Y-156239522D01*
X123395368Y-156069255D01*
X123398583Y-156040720D01*
X123415565Y-155890003D01*
X123415565Y-155889996D01*
X123395369Y-155710750D01*
X123395368Y-155710745D01*
X123374113Y-155650003D01*
X127584435Y-155650003D01*
X127604630Y-155829249D01*
X127604631Y-155829254D01*
X127664211Y-155999523D01*
X127727461Y-156100184D01*
X127760184Y-156152262D01*
X127887738Y-156279816D01*
X128040478Y-156375789D01*
X128195484Y-156430028D01*
X128210745Y-156435368D01*
X128210750Y-156435369D01*
X128389996Y-156455565D01*
X128390000Y-156455565D01*
X128390004Y-156455565D01*
X128569249Y-156435369D01*
X128569252Y-156435368D01*
X128569255Y-156435368D01*
X128739522Y-156375789D01*
X128892262Y-156279816D01*
X129019816Y-156152262D01*
X129115789Y-155999522D01*
X129175368Y-155829255D01*
X129180429Y-155784338D01*
X129195565Y-155650003D01*
X129195565Y-155649996D01*
X129175369Y-155470750D01*
X129175368Y-155470745D01*
X129160943Y-155429522D01*
X129115789Y-155300478D01*
X129019816Y-155147738D01*
X128892262Y-155020184D01*
X128739523Y-154924211D01*
X128569254Y-154864631D01*
X128569249Y-154864630D01*
X128390004Y-154844435D01*
X128389996Y-154844435D01*
X128210750Y-154864630D01*
X128210745Y-154864631D01*
X128040476Y-154924211D01*
X127887737Y-155020184D01*
X127760184Y-155147737D01*
X127664211Y-155300476D01*
X127604631Y-155470745D01*
X127604630Y-155470750D01*
X127584435Y-155649996D01*
X127584435Y-155650003D01*
X123374113Y-155650003D01*
X123335788Y-155540476D01*
X123266071Y-155429523D01*
X123239816Y-155387738D01*
X123112262Y-155260184D01*
X123059630Y-155227113D01*
X123013340Y-155174779D01*
X123002383Y-155108235D01*
X123005565Y-155080000D01*
X123005565Y-155079996D01*
X122985369Y-154900750D01*
X122985368Y-154900745D01*
X122925789Y-154730478D01*
X122829816Y-154577738D01*
X122702262Y-154450184D01*
X122615666Y-154395772D01*
X122549523Y-154354211D01*
X122379254Y-154294631D01*
X122379249Y-154294630D01*
X122200004Y-154274435D01*
X122199996Y-154274435D01*
X122020750Y-154294630D01*
X122020745Y-154294631D01*
X121850476Y-154354211D01*
X121697737Y-154450184D01*
X121570184Y-154577737D01*
X121474211Y-154730476D01*
X121414631Y-154900745D01*
X121414630Y-154900750D01*
X121394435Y-155079996D01*
X121394435Y-155080003D01*
X98037817Y-155080003D01*
X94536819Y-151579005D01*
X94503334Y-151517682D01*
X94500500Y-151491324D01*
X94500500Y-148940003D01*
X116804435Y-148940003D01*
X116824630Y-149119249D01*
X116824631Y-149119251D01*
X116824631Y-149119253D01*
X116824632Y-149119255D01*
X116856398Y-149210037D01*
X116884211Y-149289523D01*
X116947938Y-149390943D01*
X116980184Y-149442262D01*
X117107738Y-149569816D01*
X117194584Y-149624385D01*
X117244561Y-149655788D01*
X117260478Y-149665789D01*
X117404267Y-149716103D01*
X117430745Y-149725368D01*
X117430750Y-149725369D01*
X117609996Y-149745565D01*
X117610000Y-149745565D01*
X117610004Y-149745565D01*
X117789249Y-149725369D01*
X117789252Y-149725368D01*
X117789255Y-149725368D01*
X117959522Y-149665789D01*
X118112262Y-149569816D01*
X118239816Y-149442262D01*
X118335789Y-149289522D01*
X118395368Y-149119255D01*
X118395368Y-149119253D01*
X118395369Y-149119251D01*
X118395369Y-149119249D01*
X118415565Y-148940003D01*
X118415565Y-148939996D01*
X118395369Y-148760750D01*
X118395368Y-148760745D01*
X118335788Y-148590476D01*
X118239815Y-148437737D01*
X118112262Y-148310184D01*
X117959523Y-148214211D01*
X117789254Y-148154631D01*
X117789249Y-148154630D01*
X117610004Y-148134435D01*
X117609996Y-148134435D01*
X117430750Y-148154630D01*
X117430745Y-148154631D01*
X117260476Y-148214211D01*
X117107737Y-148310184D01*
X116980184Y-148437737D01*
X116884211Y-148590476D01*
X116824631Y-148760745D01*
X116824630Y-148760750D01*
X116804435Y-148939996D01*
X116804435Y-148940003D01*
X94500500Y-148940003D01*
X94500500Y-146020000D01*
X95844341Y-146020000D01*
X95864936Y-146255403D01*
X95864938Y-146255413D01*
X95926094Y-146483655D01*
X95926096Y-146483659D01*
X95926097Y-146483663D01*
X95959009Y-146554242D01*
X96025965Y-146697830D01*
X96025967Y-146697834D01*
X96104842Y-146810478D01*
X96161505Y-146891401D01*
X96328599Y-147058495D01*
X96425384Y-147126265D01*
X96522165Y-147194032D01*
X96522167Y-147194033D01*
X96522170Y-147194035D01*
X96736337Y-147293903D01*
X96964592Y-147355063D01*
X97152918Y-147371539D01*
X97199999Y-147375659D01*
X97200000Y-147375659D01*
X97200001Y-147375659D01*
X97239234Y-147372226D01*
X97435408Y-147355063D01*
X97663663Y-147293903D01*
X97877830Y-147194035D01*
X98071401Y-147058495D01*
X98238495Y-146891401D01*
X98374035Y-146697830D01*
X98473903Y-146483663D01*
X98535063Y-146255408D01*
X98555659Y-146020000D01*
X98535063Y-145784592D01*
X98473903Y-145556337D01*
X98374035Y-145342171D01*
X98348561Y-145305789D01*
X98238494Y-145148597D01*
X98071402Y-144981506D01*
X98071396Y-144981501D01*
X97885842Y-144851575D01*
X97842217Y-144796998D01*
X97835023Y-144727500D01*
X97866546Y-144665145D01*
X97885842Y-144648425D01*
X98012121Y-144560003D01*
X98071401Y-144518495D01*
X98238495Y-144351401D01*
X98374035Y-144157830D01*
X98396337Y-144110003D01*
X103624435Y-144110003D01*
X103644630Y-144289249D01*
X103644631Y-144289254D01*
X103704211Y-144459523D01*
X103779581Y-144579472D01*
X103800184Y-144612262D01*
X103927738Y-144739816D01*
X103943946Y-144750000D01*
X104078991Y-144834855D01*
X104080478Y-144835789D01*
X104232066Y-144888832D01*
X104250745Y-144895368D01*
X104250750Y-144895369D01*
X104429996Y-144915565D01*
X104430000Y-144915565D01*
X104430004Y-144915565D01*
X104609249Y-144895369D01*
X104609252Y-144895368D01*
X104609255Y-144895368D01*
X104779522Y-144835789D01*
X104932262Y-144739816D01*
X105059816Y-144612262D01*
X105155789Y-144459522D01*
X105211607Y-144300003D01*
X119554435Y-144300003D01*
X119574630Y-144479249D01*
X119574631Y-144479254D01*
X119634211Y-144649523D01*
X119703161Y-144759255D01*
X119730184Y-144802262D01*
X119857738Y-144929816D01*
X120010478Y-145025789D01*
X120171869Y-145082262D01*
X120180745Y-145085368D01*
X120180750Y-145085369D01*
X120359996Y-145105565D01*
X120360000Y-145105565D01*
X120360004Y-145105565D01*
X120539249Y-145085369D01*
X120539252Y-145085368D01*
X120539255Y-145085368D01*
X120709522Y-145025789D01*
X120862262Y-144929816D01*
X120989816Y-144802262D01*
X121085789Y-144649522D01*
X121145368Y-144479255D01*
X121145369Y-144479249D01*
X121165565Y-144300003D01*
X121165565Y-144299996D01*
X121145369Y-144120750D01*
X121145368Y-144120745D01*
X121124956Y-144062410D01*
X121085789Y-143950478D01*
X121085604Y-143950184D01*
X121025300Y-143854210D01*
X120989816Y-143797738D01*
X120862262Y-143670184D01*
X120855509Y-143665941D01*
X120709523Y-143574211D01*
X120539254Y-143514631D01*
X120539249Y-143514630D01*
X120360004Y-143494435D01*
X120359996Y-143494435D01*
X120180750Y-143514630D01*
X120180745Y-143514631D01*
X120010476Y-143574211D01*
X119857737Y-143670184D01*
X119730184Y-143797737D01*
X119634211Y-143950476D01*
X119574631Y-144120745D01*
X119574630Y-144120750D01*
X119554435Y-144299996D01*
X119554435Y-144300003D01*
X105211607Y-144300003D01*
X105215368Y-144289255D01*
X105216495Y-144279254D01*
X105235565Y-144110003D01*
X105235565Y-144109996D01*
X105215369Y-143930750D01*
X105215368Y-143930745D01*
X105205542Y-143902663D01*
X105155789Y-143760478D01*
X105149504Y-143750476D01*
X105059815Y-143607737D01*
X104932262Y-143480184D01*
X104779523Y-143384211D01*
X104609254Y-143324631D01*
X104609249Y-143324630D01*
X104430004Y-143304435D01*
X104429996Y-143304435D01*
X104250750Y-143324630D01*
X104250745Y-143324631D01*
X104080476Y-143384211D01*
X103927737Y-143480184D01*
X103800184Y-143607737D01*
X103704211Y-143760476D01*
X103644631Y-143930745D01*
X103644630Y-143930750D01*
X103624435Y-144109996D01*
X103624435Y-144110003D01*
X98396337Y-144110003D01*
X98473903Y-143943663D01*
X98535063Y-143715408D01*
X98555659Y-143480000D01*
X98535063Y-143244592D01*
X98515614Y-143172007D01*
X98517277Y-143102162D01*
X98547706Y-143052238D01*
X98893127Y-142706819D01*
X98954450Y-142673334D01*
X98980808Y-142670500D01*
X102831177Y-142670500D01*
X102915721Y-142653682D01*
X102956850Y-142645501D01*
X103075233Y-142596465D01*
X103079865Y-142593369D01*
X103079868Y-142593369D01*
X103156125Y-142542415D01*
X103181775Y-142525277D01*
X107605276Y-138101776D01*
X107676465Y-137995233D01*
X107725501Y-137876850D01*
X107732423Y-137842051D01*
X107750500Y-137751175D01*
X107750500Y-135415931D01*
X107750500Y-135415928D01*
X107725502Y-135290261D01*
X107725501Y-135290260D01*
X107725501Y-135290256D01*
X107700749Y-135230500D01*
X107696708Y-135220745D01*
X107690421Y-135205565D01*
X107676466Y-135171874D01*
X107645673Y-135125789D01*
X107605278Y-135065332D01*
X107605272Y-135065325D01*
X107361722Y-134821776D01*
X107328237Y-134760453D01*
X107326182Y-134747973D01*
X107325368Y-134740745D01*
X107265789Y-134570478D01*
X107169816Y-134417738D01*
X107042262Y-134290184D01*
X106960805Y-134239001D01*
X106889523Y-134194211D01*
X106719254Y-134134631D01*
X106719249Y-134134630D01*
X106540004Y-134114435D01*
X106539996Y-134114435D01*
X106360750Y-134134630D01*
X106360745Y-134134631D01*
X106190476Y-134194211D01*
X106037737Y-134290184D01*
X105910184Y-134417737D01*
X105814211Y-134570476D01*
X105754631Y-134740745D01*
X105754630Y-134740750D01*
X105734435Y-134919996D01*
X105734435Y-134920003D01*
X105754630Y-135099249D01*
X105754631Y-135099254D01*
X105814211Y-135269523D01*
X105910184Y-135422262D01*
X105914525Y-135427705D01*
X105912231Y-135429534D01*
X105939431Y-135479347D01*
X105934447Y-135549039D01*
X105892575Y-135604972D01*
X105884237Y-135610699D01*
X105757737Y-135690184D01*
X105630186Y-135817735D01*
X105625843Y-135823182D01*
X105624585Y-135822178D01*
X105578565Y-135862877D01*
X105509510Y-135873519D01*
X105445665Y-135845137D01*
X105438236Y-135838290D01*
X99699949Y-130100003D01*
X101274435Y-130100003D01*
X101294630Y-130279249D01*
X101294631Y-130279254D01*
X101354211Y-130449523D01*
X101445852Y-130595368D01*
X101450184Y-130602262D01*
X101577738Y-130729816D01*
X101730478Y-130825789D01*
X101855771Y-130869631D01*
X101900745Y-130885368D01*
X101900750Y-130885369D01*
X102079996Y-130905565D01*
X102080000Y-130905565D01*
X102080004Y-130905565D01*
X102259249Y-130885369D01*
X102259252Y-130885368D01*
X102259255Y-130885368D01*
X102429522Y-130825789D01*
X102582262Y-130729816D01*
X102709816Y-130602262D01*
X102805789Y-130449522D01*
X102865368Y-130279255D01*
X102865369Y-130279249D01*
X102885565Y-130100003D01*
X102885565Y-130099996D01*
X102865369Y-129920750D01*
X102865368Y-129920745D01*
X102842294Y-129854803D01*
X102805789Y-129750478D01*
X102770323Y-129694035D01*
X102730559Y-129630750D01*
X102709816Y-129597738D01*
X102582262Y-129470184D01*
X102546037Y-129447422D01*
X102429523Y-129374211D01*
X102259254Y-129314631D01*
X102259249Y-129314630D01*
X102080004Y-129294435D01*
X102079996Y-129294435D01*
X101900750Y-129314630D01*
X101900745Y-129314631D01*
X101730476Y-129374211D01*
X101577737Y-129470184D01*
X101450184Y-129597737D01*
X101354211Y-129750476D01*
X101294631Y-129920745D01*
X101294630Y-129920750D01*
X101274435Y-130099996D01*
X101274435Y-130100003D01*
X99699949Y-130100003D01*
X98547709Y-128947763D01*
X98514224Y-128886440D01*
X98515615Y-128827989D01*
X98527345Y-128784211D01*
X98535063Y-128755408D01*
X98555659Y-128520000D01*
X98535063Y-128284592D01*
X98477692Y-128070478D01*
X98477565Y-128070003D01*
X109104435Y-128070003D01*
X109124630Y-128249249D01*
X109124631Y-128249254D01*
X109184211Y-128419523D01*
X109272011Y-128559255D01*
X109280184Y-128572262D01*
X109407738Y-128699816D01*
X109496204Y-128755403D01*
X109542051Y-128784211D01*
X109560478Y-128795789D01*
X109730745Y-128855368D01*
X109730750Y-128855369D01*
X109909996Y-128875565D01*
X109910000Y-128875565D01*
X109910004Y-128875565D01*
X110089249Y-128855369D01*
X110089252Y-128855368D01*
X110089255Y-128855368D01*
X110259522Y-128795789D01*
X110412262Y-128699816D01*
X110539816Y-128572262D01*
X110635789Y-128419522D01*
X110635999Y-128418919D01*
X110636242Y-128418581D01*
X110638810Y-128413249D01*
X110639743Y-128413698D01*
X110676715Y-128362142D01*
X110741665Y-128336388D01*
X110810228Y-128349838D01*
X110819013Y-128354869D01*
X110820476Y-128355788D01*
X110820478Y-128355789D01*
X110913955Y-128388498D01*
X110990745Y-128415368D01*
X110990750Y-128415369D01*
X111169996Y-128435565D01*
X111170000Y-128435565D01*
X111170004Y-128435565D01*
X111349249Y-128415369D01*
X111349252Y-128415368D01*
X111349255Y-128415368D01*
X111519522Y-128355789D01*
X111611499Y-128297996D01*
X111644997Y-128276948D01*
X111712234Y-128257948D01*
X111779069Y-128278316D01*
X111815963Y-128315970D01*
X111870184Y-128402262D01*
X111997738Y-128529816D01*
X112088080Y-128586582D01*
X112147479Y-128623905D01*
X112150478Y-128625789D01*
X112319868Y-128685061D01*
X112320745Y-128685368D01*
X112320750Y-128685369D01*
X112499996Y-128705565D01*
X112500000Y-128705565D01*
X112500004Y-128705565D01*
X112679249Y-128685369D01*
X112679252Y-128685368D01*
X112679255Y-128685368D01*
X112849522Y-128625789D01*
X113002262Y-128529816D01*
X113129816Y-128402262D01*
X113225789Y-128249522D01*
X113285368Y-128079255D01*
X113286357Y-128070476D01*
X113305565Y-127900003D01*
X113305565Y-127899996D01*
X113285369Y-127720750D01*
X113285367Y-127720742D01*
X113247458Y-127612403D01*
X113240500Y-127571449D01*
X113240500Y-120631797D01*
X113260185Y-120564758D01*
X113312989Y-120519003D01*
X113382147Y-120509059D01*
X113445703Y-120538084D01*
X113483477Y-120596862D01*
X113487720Y-120617914D01*
X113494630Y-120679249D01*
X113494631Y-120679254D01*
X113554211Y-120849523D01*
X113603939Y-120928663D01*
X113633530Y-120975758D01*
X113650185Y-121002263D01*
X113652445Y-121005097D01*
X113653334Y-121007275D01*
X113653889Y-121008158D01*
X113653734Y-121008255D01*
X113678855Y-121069783D01*
X113679500Y-121082412D01*
X113679500Y-134836761D01*
X113660494Y-134902733D01*
X113624211Y-134960476D01*
X113564631Y-135130745D01*
X113564630Y-135130750D01*
X113544435Y-135309996D01*
X113544435Y-135310003D01*
X113564630Y-135489249D01*
X113564631Y-135489254D01*
X113624211Y-135659523D01*
X113696118Y-135773961D01*
X113720184Y-135812262D01*
X113847738Y-135939816D01*
X114000478Y-136035789D01*
X114146002Y-136086710D01*
X114170745Y-136095368D01*
X114170750Y-136095369D01*
X114349996Y-136115565D01*
X114350000Y-136115565D01*
X114350004Y-136115565D01*
X114529249Y-136095369D01*
X114529252Y-136095368D01*
X114529255Y-136095368D01*
X114699522Y-136035789D01*
X114852262Y-135939816D01*
X114927819Y-135864259D01*
X114989142Y-135830774D01*
X115058834Y-135835758D01*
X115114767Y-135877630D01*
X115139184Y-135943094D01*
X115139500Y-135951940D01*
X115139500Y-137397587D01*
X115119815Y-137464626D01*
X115112450Y-137474896D01*
X115110186Y-137477734D01*
X115014211Y-137630476D01*
X114954631Y-137800745D01*
X114954630Y-137800750D01*
X114934435Y-137979996D01*
X114934435Y-137980003D01*
X114954630Y-138159249D01*
X114954632Y-138159257D01*
X114970382Y-138204268D01*
X114973943Y-138274047D01*
X114939214Y-138334674D01*
X114877220Y-138366901D01*
X114825752Y-138366114D01*
X114819254Y-138364631D01*
X114640004Y-138344435D01*
X114639996Y-138344435D01*
X114460750Y-138364630D01*
X114460745Y-138364631D01*
X114290476Y-138424211D01*
X114137737Y-138520184D01*
X114010184Y-138647737D01*
X113914211Y-138800476D01*
X113854631Y-138970745D01*
X113854630Y-138970750D01*
X113834435Y-139149996D01*
X113834435Y-139150003D01*
X113854630Y-139329249D01*
X113854631Y-139329254D01*
X113914211Y-139499523D01*
X113936271Y-139534631D01*
X114010184Y-139652262D01*
X114137738Y-139779816D01*
X114290478Y-139875789D01*
X114363973Y-139901506D01*
X114460745Y-139935368D01*
X114460750Y-139935369D01*
X114639996Y-139955565D01*
X114640000Y-139955565D01*
X114640004Y-139955565D01*
X114819249Y-139935369D01*
X114819252Y-139935368D01*
X114819255Y-139935368D01*
X114989522Y-139875789D01*
X115142262Y-139779816D01*
X115269816Y-139652262D01*
X115365789Y-139499522D01*
X115425368Y-139329255D01*
X115425369Y-139329249D01*
X115445565Y-139150003D01*
X115445565Y-139149996D01*
X115425369Y-138970750D01*
X115425366Y-138970737D01*
X115409618Y-138925732D01*
X115406056Y-138855953D01*
X115440784Y-138795326D01*
X115502777Y-138763098D01*
X115554254Y-138763886D01*
X115560738Y-138765365D01*
X115560745Y-138765368D01*
X115560752Y-138765368D01*
X115560753Y-138765369D01*
X115739996Y-138785565D01*
X115740000Y-138785565D01*
X115740004Y-138785565D01*
X115919249Y-138765369D01*
X115919252Y-138765368D01*
X115919255Y-138765368D01*
X116089522Y-138705789D01*
X116242262Y-138609816D01*
X116369816Y-138482262D01*
X116465789Y-138329522D01*
X116525368Y-138159255D01*
X116531845Y-138101776D01*
X116546345Y-137973080D01*
X116547630Y-137973224D01*
X116565250Y-137913219D01*
X116618054Y-137867464D01*
X116655682Y-137857038D01*
X116759249Y-137845369D01*
X116759252Y-137845368D01*
X116759255Y-137845368D01*
X116929522Y-137785789D01*
X117082262Y-137689816D01*
X117209816Y-137562262D01*
X117305789Y-137409522D01*
X117365368Y-137239255D01*
X117375161Y-137152329D01*
X117402226Y-137087918D01*
X117410690Y-137078543D01*
X118267820Y-136221414D01*
X118329142Y-136187930D01*
X118398834Y-136192914D01*
X118454767Y-136234786D01*
X118479184Y-136300250D01*
X118479500Y-136309096D01*
X118479500Y-138498080D01*
X118459815Y-138565119D01*
X118407011Y-138610874D01*
X118396455Y-138615121D01*
X118370479Y-138624210D01*
X118370475Y-138624212D01*
X118217737Y-138720184D01*
X118090184Y-138847737D01*
X117994211Y-139000476D01*
X117934631Y-139170745D01*
X117934630Y-139170750D01*
X117914435Y-139349996D01*
X117914435Y-139350003D01*
X117934630Y-139529249D01*
X117934631Y-139529254D01*
X117994211Y-139699523D01*
X118021066Y-139742262D01*
X118090184Y-139852262D01*
X118217738Y-139979816D01*
X118370478Y-140075789D01*
X118540745Y-140135368D01*
X118540750Y-140135369D01*
X118719996Y-140155565D01*
X118720000Y-140155565D01*
X118720003Y-140155565D01*
X118845268Y-140141451D01*
X118914090Y-140153505D01*
X118965470Y-140200854D01*
X118976191Y-140223711D01*
X118998220Y-140286666D01*
X119034210Y-140389521D01*
X119103157Y-140499249D01*
X119130184Y-140542262D01*
X119257738Y-140669816D01*
X119410478Y-140765789D01*
X119499491Y-140796936D01*
X119580745Y-140825368D01*
X119580750Y-140825369D01*
X119759996Y-140845565D01*
X119760000Y-140845565D01*
X119760003Y-140845565D01*
X119833302Y-140837306D01*
X119902124Y-140849360D01*
X119953504Y-140896709D01*
X119964016Y-140919120D01*
X119964207Y-140919516D01*
X120040384Y-141040750D01*
X120060184Y-141072262D01*
X120187738Y-141199816D01*
X120340478Y-141295789D01*
X120483973Y-141346000D01*
X120510745Y-141355368D01*
X120510750Y-141355369D01*
X120689996Y-141375565D01*
X120690000Y-141375565D01*
X120690004Y-141375565D01*
X120869249Y-141355369D01*
X120869252Y-141355368D01*
X120869255Y-141355368D01*
X121039522Y-141295789D01*
X121192262Y-141199816D01*
X121251545Y-141140532D01*
X121312865Y-141107049D01*
X121380177Y-141111172D01*
X121420745Y-141125368D01*
X121420746Y-141125368D01*
X121423090Y-141125903D01*
X121424451Y-141126664D01*
X121427319Y-141127668D01*
X121427143Y-141128170D01*
X121484069Y-141160011D01*
X121516928Y-141221671D01*
X121519500Y-141246795D01*
X121519500Y-144054801D01*
X121519499Y-144054819D01*
X121519499Y-144220528D01*
X121525275Y-144242084D01*
X121529500Y-144274177D01*
X121529500Y-144525822D01*
X121525275Y-144557913D01*
X121519499Y-144579467D01*
X121519499Y-144747575D01*
X121519500Y-144747588D01*
X121519500Y-147079902D01*
X121499815Y-147146941D01*
X121483181Y-147167583D01*
X121281465Y-147369298D01*
X121220142Y-147402783D01*
X121207668Y-147404837D01*
X121120750Y-147414630D01*
X120950478Y-147474210D01*
X120797737Y-147570184D01*
X120670184Y-147697737D01*
X120574211Y-147850476D01*
X120514631Y-148020745D01*
X120514630Y-148020750D01*
X120494435Y-148199996D01*
X120494435Y-148200003D01*
X120514630Y-148379249D01*
X120514631Y-148379254D01*
X120574211Y-148549523D01*
X120599944Y-148590476D01*
X120670184Y-148702262D01*
X120797738Y-148829816D01*
X120950478Y-148925789D01*
X121120091Y-148985139D01*
X121120745Y-148985368D01*
X121120750Y-148985369D01*
X121299996Y-149005565D01*
X121300000Y-149005565D01*
X121300004Y-149005565D01*
X121479249Y-148985369D01*
X121479250Y-148985368D01*
X121479255Y-148985368D01*
X121550930Y-148960287D01*
X121620705Y-148956725D01*
X121681333Y-148991453D01*
X121713051Y-149052465D01*
X121713080Y-149052459D01*
X121713105Y-149052569D01*
X121713561Y-149053446D01*
X121714093Y-149056900D01*
X121714629Y-149059246D01*
X121774210Y-149229521D01*
X121811912Y-149289523D01*
X121846416Y-149344436D01*
X121870185Y-149382263D01*
X121872445Y-149385097D01*
X121873334Y-149387275D01*
X121873889Y-149388158D01*
X121873734Y-149388255D01*
X121898855Y-149449783D01*
X121899500Y-149462412D01*
X121899500Y-150859902D01*
X121879815Y-150926941D01*
X121863181Y-150947583D01*
X121091465Y-151719298D01*
X121030142Y-151752783D01*
X121017668Y-151754837D01*
X120930750Y-151764630D01*
X120760478Y-151824210D01*
X120607737Y-151920184D01*
X120480184Y-152047737D01*
X120384211Y-152200476D01*
X120324631Y-152370745D01*
X120324630Y-152370750D01*
X120304435Y-152549996D01*
X120304435Y-152550003D01*
X120324630Y-152729249D01*
X120324631Y-152729254D01*
X120384211Y-152899523D01*
X120439331Y-152987245D01*
X120480184Y-153052262D01*
X120607738Y-153179816D01*
X120760478Y-153275789D01*
X120789254Y-153285858D01*
X120930745Y-153335368D01*
X120930750Y-153335369D01*
X121109996Y-153355565D01*
X121110000Y-153355565D01*
X121110004Y-153355565D01*
X121289249Y-153335369D01*
X121289252Y-153335368D01*
X121289255Y-153335368D01*
X121459522Y-153275789D01*
X121612262Y-153179816D01*
X121739816Y-153052262D01*
X121835789Y-152899522D01*
X121895368Y-152729255D01*
X121905161Y-152642329D01*
X121932226Y-152577918D01*
X121940690Y-152568543D01*
X122868713Y-151640521D01*
X122868716Y-151640520D01*
X122980520Y-151528716D01*
X123030639Y-151441904D01*
X123059577Y-151391785D01*
X123100501Y-151239057D01*
X123100501Y-151080943D01*
X123100501Y-151073348D01*
X123100500Y-151073330D01*
X123100500Y-149813062D01*
X123120185Y-149746023D01*
X123172989Y-149700268D01*
X123242147Y-149690324D01*
X123265448Y-149696018D01*
X123320745Y-149715368D01*
X123320748Y-149715368D01*
X123320750Y-149715369D01*
X123499996Y-149735565D01*
X123500000Y-149735565D01*
X123500004Y-149735565D01*
X123679249Y-149715369D01*
X123679252Y-149715368D01*
X123679255Y-149715368D01*
X123849522Y-149655789D01*
X124002262Y-149559816D01*
X124129816Y-149432262D01*
X124225789Y-149279522D01*
X124285368Y-149109255D01*
X124286266Y-149101284D01*
X124305565Y-148930003D01*
X124305565Y-148929996D01*
X124285369Y-148750750D01*
X124285368Y-148750745D01*
X124225788Y-148580476D01*
X124136099Y-148437738D01*
X124129816Y-148427738D01*
X124002262Y-148300184D01*
X124002261Y-148300183D01*
X123961075Y-148274304D01*
X123914784Y-148221969D01*
X123903827Y-148155425D01*
X123905565Y-148140001D01*
X123905565Y-148139997D01*
X123899219Y-148083677D01*
X123911273Y-148014855D01*
X123958622Y-147963476D01*
X124008561Y-147946572D01*
X124019255Y-147945368D01*
X124189522Y-147885789D01*
X124342262Y-147789816D01*
X124469816Y-147662262D01*
X124565789Y-147509522D01*
X124625368Y-147339255D01*
X124638977Y-147218472D01*
X124645565Y-147160003D01*
X124645565Y-147159996D01*
X124625369Y-146980750D01*
X124625368Y-146980745D01*
X124622398Y-146972256D01*
X124565789Y-146810478D01*
X124469816Y-146657738D01*
X124342262Y-146530184D01*
X124268226Y-146483664D01*
X124189523Y-146434211D01*
X124019254Y-146374631D01*
X124019249Y-146374630D01*
X123840004Y-146354435D01*
X123839996Y-146354435D01*
X123660750Y-146374630D01*
X123660745Y-146374631D01*
X123490476Y-146434211D01*
X123337737Y-146530184D01*
X123332295Y-146534525D01*
X123330413Y-146532166D01*
X123280858Y-146559226D01*
X123211166Y-146554242D01*
X123155233Y-146512370D01*
X123130816Y-146446906D01*
X123130500Y-146438060D01*
X123130500Y-145221940D01*
X123150185Y-145154901D01*
X123202989Y-145109146D01*
X123272147Y-145099202D01*
X123335703Y-145128227D01*
X123342181Y-145134259D01*
X123417738Y-145209816D01*
X123570478Y-145305789D01*
X123647037Y-145332578D01*
X123740745Y-145365368D01*
X123740750Y-145365369D01*
X123919996Y-145385565D01*
X123920000Y-145385565D01*
X123920003Y-145385565D01*
X124069311Y-145368742D01*
X124138133Y-145380796D01*
X124189513Y-145428145D01*
X124200237Y-145451008D01*
X124224210Y-145519521D01*
X124243457Y-145550152D01*
X124320184Y-145672262D01*
X124447738Y-145799816D01*
X124600478Y-145895789D01*
X124770745Y-145955368D01*
X124770750Y-145955369D01*
X124949996Y-145975565D01*
X124950000Y-145975565D01*
X124950004Y-145975565D01*
X125129249Y-145955369D01*
X125129252Y-145955368D01*
X125129255Y-145955368D01*
X125299522Y-145895789D01*
X125443362Y-145805407D01*
X125510598Y-145786408D01*
X125577434Y-145806776D01*
X125597015Y-145822721D01*
X127303181Y-147528887D01*
X127336666Y-147590210D01*
X127339500Y-147616568D01*
X127339500Y-148029918D01*
X127319815Y-148096957D01*
X127267011Y-148142712D01*
X127197853Y-148152656D01*
X127174553Y-148146962D01*
X127170000Y-148145369D01*
X127169984Y-148145365D01*
X126990739Y-148125170D01*
X126990731Y-148125170D01*
X126811485Y-148145365D01*
X126811480Y-148145366D01*
X126641211Y-148204946D01*
X126488472Y-148300919D01*
X126360919Y-148428472D01*
X126264946Y-148581211D01*
X126205366Y-148751480D01*
X126205365Y-148751485D01*
X126185170Y-148930731D01*
X126185170Y-148930738D01*
X126205365Y-149109984D01*
X126205366Y-149109989D01*
X126264946Y-149280258D01*
X126360457Y-149432262D01*
X126360919Y-149432997D01*
X126488473Y-149560551D01*
X126578815Y-149617317D01*
X126640041Y-149655788D01*
X126641213Y-149656524D01*
X126809382Y-149715369D01*
X126811480Y-149716103D01*
X126811485Y-149716104D01*
X126886068Y-149724507D01*
X126990735Y-149736300D01*
X127010112Y-149734116D01*
X127078931Y-149746169D01*
X127130312Y-149793516D01*
X127147217Y-149843452D01*
X127154630Y-149909250D01*
X127154631Y-149909254D01*
X127214211Y-150079523D01*
X127258495Y-150150000D01*
X127310184Y-150232262D01*
X127437738Y-150359816D01*
X127590478Y-150455789D01*
X127715460Y-150499522D01*
X127760745Y-150515368D01*
X127760750Y-150515369D01*
X127939997Y-150535565D01*
X127939998Y-150535565D01*
X127939998Y-150535564D01*
X127940000Y-150535565D01*
X127961615Y-150533129D01*
X128030435Y-150545182D01*
X128081816Y-150592530D01*
X128099500Y-150656349D01*
X128099500Y-152921273D01*
X128080494Y-152987245D01*
X127984211Y-153140476D01*
X127924631Y-153310745D01*
X127924630Y-153310750D01*
X127904435Y-153489996D01*
X127904435Y-153490003D01*
X127924630Y-153669249D01*
X127924631Y-153669254D01*
X127984211Y-153839523D01*
X128080184Y-153992262D01*
X128207738Y-154119816D01*
X128360478Y-154215789D01*
X128503367Y-154265788D01*
X128530745Y-154275368D01*
X128530750Y-154275369D01*
X128709996Y-154295565D01*
X128710000Y-154295565D01*
X128710004Y-154295565D01*
X128889249Y-154275369D01*
X128889252Y-154275368D01*
X128889255Y-154275368D01*
X129059522Y-154215789D01*
X129212262Y-154119816D01*
X129339816Y-153992262D01*
X129435789Y-153839522D01*
X129495368Y-153669255D01*
X129509931Y-153540003D01*
X129515565Y-153490003D01*
X129515565Y-153489997D01*
X129501002Y-153360750D01*
X129500318Y-153354679D01*
X129512372Y-153285858D01*
X129559721Y-153234478D01*
X129609655Y-153217576D01*
X129629255Y-153215368D01*
X129629259Y-153215366D01*
X129629262Y-153215366D01*
X129695840Y-153192068D01*
X129799522Y-153155789D01*
X129858112Y-153118973D01*
X129925348Y-153099973D01*
X129990055Y-153118972D01*
X130080478Y-153175789D01*
X130199896Y-153217575D01*
X130250745Y-153235368D01*
X130250750Y-153235369D01*
X130429996Y-153255565D01*
X130430000Y-153255565D01*
X130430004Y-153255565D01*
X130609249Y-153235369D01*
X130609252Y-153235368D01*
X130609255Y-153235368D01*
X130779522Y-153175789D01*
X130932262Y-153079816D01*
X131059816Y-152952262D01*
X131155789Y-152799522D01*
X131215368Y-152629255D01*
X131218753Y-152599215D01*
X131235565Y-152450003D01*
X131235565Y-152449996D01*
X131215369Y-152270750D01*
X131215368Y-152270745D01*
X131155789Y-152100478D01*
X131059816Y-151947738D01*
X130936819Y-151824741D01*
X130903334Y-151763418D01*
X130900500Y-151737060D01*
X130900500Y-151033062D01*
X130920185Y-150966023D01*
X130972989Y-150920268D01*
X131042147Y-150910324D01*
X131065448Y-150916018D01*
X131120745Y-150935368D01*
X131120748Y-150935368D01*
X131120750Y-150935369D01*
X131299996Y-150955565D01*
X131300000Y-150955565D01*
X131300004Y-150955565D01*
X131479249Y-150935369D01*
X131479252Y-150935368D01*
X131479255Y-150935368D01*
X131649522Y-150875789D01*
X131802262Y-150779816D01*
X131929816Y-150652262D01*
X132025789Y-150499522D01*
X132085368Y-150329255D01*
X132085369Y-150329249D01*
X132105565Y-150150003D01*
X132105565Y-150149996D01*
X132085369Y-149970750D01*
X132085366Y-149970737D01*
X132025790Y-149800479D01*
X132019506Y-149790478D01*
X132000500Y-149724507D01*
X132000500Y-149559097D01*
X132020185Y-149492058D01*
X132072989Y-149446303D01*
X132142147Y-149436359D01*
X132205703Y-149465384D01*
X132212181Y-149471416D01*
X132423181Y-149682416D01*
X132456666Y-149743739D01*
X132459500Y-149770097D01*
X132459500Y-152620410D01*
X132439815Y-152687449D01*
X132387011Y-152733204D01*
X132321617Y-152743630D01*
X132240004Y-152734435D01*
X132239996Y-152734435D01*
X132060750Y-152754630D01*
X132060745Y-152754631D01*
X131890476Y-152814211D01*
X131737737Y-152910184D01*
X131610184Y-153037737D01*
X131514211Y-153190476D01*
X131454631Y-153360745D01*
X131454630Y-153360750D01*
X131434435Y-153539996D01*
X131434435Y-153540003D01*
X131454630Y-153719249D01*
X131454631Y-153719254D01*
X131514211Y-153889523D01*
X131578767Y-153992262D01*
X131610184Y-154042262D01*
X131737738Y-154169816D01*
X131890478Y-154265789D01*
X131972901Y-154294630D01*
X132060745Y-154325368D01*
X132060750Y-154325369D01*
X132239996Y-154345565D01*
X132240000Y-154345565D01*
X132240002Y-154345565D01*
X132286420Y-154340334D01*
X132321616Y-154336369D01*
X132390438Y-154348423D01*
X132441817Y-154395772D01*
X132459500Y-154459589D01*
X132459500Y-155999190D01*
X132439815Y-156066229D01*
X132412815Y-156096135D01*
X132407738Y-156100183D01*
X132280184Y-156227737D01*
X132184211Y-156380476D01*
X132124631Y-156550745D01*
X132124630Y-156550750D01*
X132104435Y-156729996D01*
X132104435Y-156730003D01*
X132124630Y-156909249D01*
X132124631Y-156909254D01*
X132184211Y-157079523D01*
X132236200Y-157162262D01*
X132280184Y-157232262D01*
X132407738Y-157359816D01*
X132449072Y-157385788D01*
X132543894Y-157445369D01*
X132560478Y-157455789D01*
X132645573Y-157485565D01*
X132730745Y-157515368D01*
X132730750Y-157515369D01*
X132909996Y-157535565D01*
X132910000Y-157535565D01*
X132910004Y-157535565D01*
X133089249Y-157515369D01*
X133089252Y-157515368D01*
X133089255Y-157515368D01*
X133259522Y-157455789D01*
X133412262Y-157359816D01*
X133539816Y-157232262D01*
X133635789Y-157079522D01*
X133695368Y-156909255D01*
X133701002Y-156859254D01*
X133715565Y-156730003D01*
X133715565Y-156729996D01*
X133702100Y-156610496D01*
X133695368Y-156550745D01*
X133667458Y-156470982D01*
X133660500Y-156430028D01*
X133660500Y-149390943D01*
X133660499Y-149390939D01*
X133648039Y-149344436D01*
X133633325Y-149289522D01*
X133619577Y-149238215D01*
X133614557Y-149229521D01*
X133605061Y-149213073D01*
X133550895Y-149119255D01*
X133540520Y-149101284D01*
X133540519Y-149101283D01*
X133540518Y-149101281D01*
X133424397Y-148985160D01*
X133424374Y-148985139D01*
X133378337Y-148939102D01*
X133344852Y-148877779D01*
X133349836Y-148808087D01*
X133378336Y-148763741D01*
X133429816Y-148712262D01*
X133525789Y-148559522D01*
X133585368Y-148389255D01*
X133595796Y-148296693D01*
X133622861Y-148232283D01*
X133631325Y-148222908D01*
X133818506Y-148035728D01*
X133818511Y-148035724D01*
X133828714Y-148025520D01*
X133828716Y-148025520D01*
X133940520Y-147913716D01*
X134001141Y-147808716D01*
X134019577Y-147776785D01*
X134060501Y-147624057D01*
X134060501Y-147465943D01*
X134060501Y-147458348D01*
X134060500Y-147458330D01*
X134060500Y-144100003D01*
X146994435Y-144100003D01*
X147014630Y-144279249D01*
X147014631Y-144279254D01*
X147074211Y-144449523D01*
X147143626Y-144559996D01*
X147170184Y-144602262D01*
X147297738Y-144729816D01*
X147450478Y-144825789D01*
X147620745Y-144885368D01*
X147620750Y-144885369D01*
X147799996Y-144905565D01*
X147800000Y-144905565D01*
X147800004Y-144905565D01*
X147979249Y-144885369D01*
X147979252Y-144885368D01*
X147979255Y-144885368D01*
X148149522Y-144825789D01*
X148302262Y-144729816D01*
X148429816Y-144602262D01*
X148525789Y-144449522D01*
X148585368Y-144279255D01*
X148585940Y-144274177D01*
X148605565Y-144100003D01*
X148605565Y-144099996D01*
X148585369Y-143920750D01*
X148585368Y-143920745D01*
X148558588Y-143844212D01*
X148525789Y-143750478D01*
X148429816Y-143597738D01*
X148302262Y-143470184D01*
X148149523Y-143374211D01*
X147979254Y-143314631D01*
X147979249Y-143314630D01*
X147800004Y-143294435D01*
X147799996Y-143294435D01*
X147620750Y-143314630D01*
X147620745Y-143314631D01*
X147450476Y-143374211D01*
X147297737Y-143470184D01*
X147170184Y-143597737D01*
X147074211Y-143750476D01*
X147014631Y-143920745D01*
X147014630Y-143920750D01*
X146994435Y-144099996D01*
X146994435Y-144100003D01*
X134060500Y-144100003D01*
X134060500Y-141960000D01*
X151644341Y-141960000D01*
X151664936Y-142195403D01*
X151664938Y-142195413D01*
X151726094Y-142423655D01*
X151726096Y-142423659D01*
X151726097Y-142423663D01*
X151805233Y-142593370D01*
X151825965Y-142637830D01*
X151825967Y-142637834D01*
X151934281Y-142792521D01*
X151961505Y-142831401D01*
X152128599Y-142998495D01*
X152205349Y-143052236D01*
X152322165Y-143134032D01*
X152322167Y-143134033D01*
X152322170Y-143134035D01*
X152536337Y-143233903D01*
X152764592Y-143295063D01*
X152952918Y-143311539D01*
X152999999Y-143315659D01*
X153000000Y-143315659D01*
X153000001Y-143315659D01*
X153039234Y-143312226D01*
X153235408Y-143295063D01*
X153463663Y-143233903D01*
X153677830Y-143134035D01*
X153871401Y-142998495D01*
X154038495Y-142831401D01*
X154174035Y-142637830D01*
X154273903Y-142423663D01*
X154335063Y-142195408D01*
X154355659Y-141960000D01*
X154352589Y-141924916D01*
X154335063Y-141724596D01*
X154335063Y-141724592D01*
X154273903Y-141496337D01*
X154174035Y-141282171D01*
X154150987Y-141249254D01*
X154038494Y-141088597D01*
X153871402Y-140921506D01*
X153871396Y-140921501D01*
X153685842Y-140791575D01*
X153642217Y-140736998D01*
X153635023Y-140667500D01*
X153666546Y-140605145D01*
X153685842Y-140588425D01*
X153751769Y-140542262D01*
X153871401Y-140458495D01*
X154038495Y-140291401D01*
X154174035Y-140097830D01*
X154273903Y-139883663D01*
X154335063Y-139655408D01*
X154355659Y-139420000D01*
X154335063Y-139184592D01*
X154284848Y-138997185D01*
X154273905Y-138956344D01*
X154273904Y-138956343D01*
X154273903Y-138956337D01*
X154174035Y-138742171D01*
X154170931Y-138737737D01*
X154038494Y-138548597D01*
X153871402Y-138381506D01*
X153871396Y-138381501D01*
X153685842Y-138251575D01*
X153642217Y-138196998D01*
X153635023Y-138127500D01*
X153666546Y-138065145D01*
X153685842Y-138048425D01*
X153761808Y-137995233D01*
X153871401Y-137918495D01*
X154038495Y-137751401D01*
X154174035Y-137557830D01*
X154273903Y-137343663D01*
X154335063Y-137115408D01*
X154355659Y-136880000D01*
X154335063Y-136644592D01*
X154273903Y-136416337D01*
X154174035Y-136202171D01*
X154167554Y-136192914D01*
X154038494Y-136008597D01*
X153871402Y-135841506D01*
X153871396Y-135841501D01*
X153685842Y-135711575D01*
X153642217Y-135656998D01*
X153635023Y-135587500D01*
X153666546Y-135525145D01*
X153685842Y-135508425D01*
X153713228Y-135489249D01*
X153871401Y-135378495D01*
X154038495Y-135211401D01*
X154174035Y-135017830D01*
X154273903Y-134803663D01*
X154335063Y-134575408D01*
X154355659Y-134340000D01*
X154335063Y-134104592D01*
X154273903Y-133876337D01*
X154174035Y-133662171D01*
X154140748Y-133614631D01*
X154038494Y-133468597D01*
X153871402Y-133301506D01*
X153871396Y-133301501D01*
X153685842Y-133171575D01*
X153642217Y-133116998D01*
X153635023Y-133047500D01*
X153666546Y-132985145D01*
X153685842Y-132968425D01*
X153826144Y-132870184D01*
X153871401Y-132838495D01*
X154038495Y-132671401D01*
X154174035Y-132477830D01*
X154273903Y-132263663D01*
X154335063Y-132035408D01*
X154355659Y-131800000D01*
X154335063Y-131564592D01*
X154273903Y-131336337D01*
X154174035Y-131122171D01*
X154106125Y-131025184D01*
X154038494Y-130928597D01*
X153871402Y-130761506D01*
X153871395Y-130761501D01*
X153853163Y-130748735D01*
X153827087Y-130730476D01*
X153677834Y-130625967D01*
X153677830Y-130625965D01*
X153621751Y-130599815D01*
X153463663Y-130526097D01*
X153463659Y-130526096D01*
X153463655Y-130526094D01*
X153235413Y-130464938D01*
X153235403Y-130464936D01*
X153000001Y-130444341D01*
X152999999Y-130444341D01*
X152764596Y-130464936D01*
X152764586Y-130464938D01*
X152536344Y-130526094D01*
X152536335Y-130526098D01*
X152322171Y-130625964D01*
X152322169Y-130625965D01*
X152128597Y-130761505D01*
X151961505Y-130928597D01*
X151825965Y-131122169D01*
X151825964Y-131122171D01*
X151726098Y-131336335D01*
X151726094Y-131336344D01*
X151664938Y-131564586D01*
X151664936Y-131564596D01*
X151644341Y-131799999D01*
X151644341Y-131800000D01*
X151664936Y-132035403D01*
X151664938Y-132035413D01*
X151726094Y-132263655D01*
X151726096Y-132263659D01*
X151726097Y-132263663D01*
X151780714Y-132380789D01*
X151825965Y-132477830D01*
X151825967Y-132477834D01*
X151961501Y-132671395D01*
X151961506Y-132671402D01*
X152128597Y-132838493D01*
X152128603Y-132838498D01*
X152314158Y-132968425D01*
X152357783Y-133023002D01*
X152364977Y-133092500D01*
X152333454Y-133154855D01*
X152314158Y-133171575D01*
X152128597Y-133301505D01*
X151961505Y-133468597D01*
X151825965Y-133662169D01*
X151825964Y-133662171D01*
X151726098Y-133876335D01*
X151726094Y-133876344D01*
X151664938Y-134104586D01*
X151664936Y-134104596D01*
X151644341Y-134339999D01*
X151644341Y-134340000D01*
X151664936Y-134575403D01*
X151664938Y-134575413D01*
X151726094Y-134803655D01*
X151726096Y-134803659D01*
X151726097Y-134803663D01*
X151780723Y-134920808D01*
X151825965Y-135017830D01*
X151825967Y-135017834D01*
X151933820Y-135171863D01*
X151943276Y-135185368D01*
X151961501Y-135211395D01*
X151961506Y-135211402D01*
X152128597Y-135378493D01*
X152128603Y-135378498D01*
X152314158Y-135508425D01*
X152357783Y-135563002D01*
X152364977Y-135632500D01*
X152333454Y-135694855D01*
X152314158Y-135711575D01*
X152128597Y-135841505D01*
X151961505Y-136008597D01*
X151825965Y-136202169D01*
X151825964Y-136202171D01*
X151726098Y-136416335D01*
X151726094Y-136416344D01*
X151664938Y-136644586D01*
X151664936Y-136644596D01*
X151644341Y-136879999D01*
X151644341Y-136880000D01*
X151664936Y-137115403D01*
X151664938Y-137115413D01*
X151726094Y-137343655D01*
X151726096Y-137343659D01*
X151726097Y-137343663D01*
X151817994Y-137540737D01*
X151825965Y-137557830D01*
X151825967Y-137557834D01*
X151918382Y-137689815D01*
X151961347Y-137751176D01*
X151961501Y-137751395D01*
X151961506Y-137751402D01*
X152128597Y-137918493D01*
X152128603Y-137918498D01*
X152314158Y-138048425D01*
X152357783Y-138103002D01*
X152364977Y-138172500D01*
X152333454Y-138234855D01*
X152314158Y-138251575D01*
X152128597Y-138381505D01*
X151961505Y-138548597D01*
X151825965Y-138742169D01*
X151825964Y-138742171D01*
X151726098Y-138956335D01*
X151726094Y-138956344D01*
X151664938Y-139184586D01*
X151664936Y-139184596D01*
X151644341Y-139419999D01*
X151644341Y-139420000D01*
X151664936Y-139655403D01*
X151664938Y-139655413D01*
X151726094Y-139883655D01*
X151726096Y-139883659D01*
X151726097Y-139883663D01*
X151750208Y-139935368D01*
X151825965Y-140097830D01*
X151825967Y-140097834D01*
X151893647Y-140194490D01*
X151952927Y-140279151D01*
X151961501Y-140291395D01*
X151961506Y-140291402D01*
X152128597Y-140458493D01*
X152128603Y-140458498D01*
X152314158Y-140588425D01*
X152357783Y-140643002D01*
X152364977Y-140712500D01*
X152333454Y-140774855D01*
X152314158Y-140791575D01*
X152128597Y-140921505D01*
X151961505Y-141088597D01*
X151825965Y-141282169D01*
X151825964Y-141282171D01*
X151726098Y-141496335D01*
X151726094Y-141496344D01*
X151664938Y-141724586D01*
X151664936Y-141724596D01*
X151644341Y-141959999D01*
X151644341Y-141960000D01*
X134060500Y-141960000D01*
X134060500Y-129484236D01*
X134065237Y-129456366D01*
X134063819Y-129456043D01*
X134065369Y-129449252D01*
X134085565Y-129270003D01*
X134085565Y-129269996D01*
X134065369Y-129090750D01*
X134065368Y-129090745D01*
X134036323Y-129007739D01*
X134005789Y-128920478D01*
X133984401Y-128886440D01*
X133947674Y-128827989D01*
X133909816Y-128767738D01*
X133782262Y-128640184D01*
X133717124Y-128599255D01*
X133629523Y-128544211D01*
X133459254Y-128484631D01*
X133459249Y-128484630D01*
X133280004Y-128464435D01*
X133279996Y-128464435D01*
X133100750Y-128484630D01*
X133100745Y-128484631D01*
X132930476Y-128544211D01*
X132777737Y-128640184D01*
X132650184Y-128767737D01*
X132554211Y-128920476D01*
X132494631Y-129090745D01*
X132494630Y-129090750D01*
X132474435Y-129269996D01*
X132474435Y-129270003D01*
X132494630Y-129449249D01*
X132494631Y-129449254D01*
X132554211Y-129619523D01*
X132620983Y-129725789D01*
X132650184Y-129772262D01*
X132777738Y-129899816D01*
X132801471Y-129914728D01*
X132847762Y-129967061D01*
X132859500Y-130019722D01*
X132859500Y-138988429D01*
X132839815Y-139055468D01*
X132787011Y-139101223D01*
X132717853Y-139111167D01*
X132694546Y-139105471D01*
X132549257Y-139054632D01*
X132549249Y-139054630D01*
X132370004Y-139034435D01*
X132369996Y-139034435D01*
X132190750Y-139054630D01*
X132190745Y-139054631D01*
X132020476Y-139114211D01*
X131867737Y-139210184D01*
X131740182Y-139337739D01*
X131655458Y-139472576D01*
X131603123Y-139518867D01*
X131536582Y-139529823D01*
X131400004Y-139514435D01*
X131399996Y-139514435D01*
X131220750Y-139534630D01*
X131220745Y-139534631D01*
X131050476Y-139594211D01*
X130897737Y-139690184D01*
X130770184Y-139817737D01*
X130674211Y-139970476D01*
X130614631Y-140140745D01*
X130614630Y-140140750D01*
X130594435Y-140319996D01*
X130594435Y-140320003D01*
X130614630Y-140499249D01*
X130614631Y-140499254D01*
X130674211Y-140669523D01*
X130770185Y-140822263D01*
X130772445Y-140825097D01*
X130773334Y-140827275D01*
X130773889Y-140828158D01*
X130773734Y-140828255D01*
X130798855Y-140889783D01*
X130799500Y-140902412D01*
X130799500Y-146905217D01*
X130779815Y-146972256D01*
X130727011Y-147018011D01*
X130657853Y-147027955D01*
X130594297Y-146998930D01*
X130587819Y-146992898D01*
X128612389Y-145017468D01*
X128578904Y-144956145D01*
X128583029Y-144888832D01*
X128635366Y-144739262D01*
X128635369Y-144739249D01*
X128655565Y-144560003D01*
X128655565Y-144559996D01*
X128635369Y-144380750D01*
X128635368Y-144380745D01*
X128575789Y-144210478D01*
X128563037Y-144190184D01*
X128512652Y-144109996D01*
X128479816Y-144057738D01*
X128352262Y-143930184D01*
X128308463Y-143902663D01*
X128199523Y-143834211D01*
X128029254Y-143774631D01*
X128029249Y-143774630D01*
X127850004Y-143754435D01*
X127849996Y-143754435D01*
X127670750Y-143774630D01*
X127670745Y-143774631D01*
X127500476Y-143834211D01*
X127358014Y-143923727D01*
X127290777Y-143942727D01*
X127226070Y-143923726D01*
X127099526Y-143844212D01*
X126929254Y-143784631D01*
X126929249Y-143784630D01*
X126750004Y-143764435D01*
X126749996Y-143764435D01*
X126570750Y-143784630D01*
X126563953Y-143786182D01*
X126563365Y-143783609D01*
X126505624Y-143786532D01*
X126445012Y-143751777D01*
X126412811Y-143689770D01*
X126410500Y-143665941D01*
X126410500Y-141991955D01*
X126430185Y-141924916D01*
X126482989Y-141879161D01*
X126520615Y-141868735D01*
X126553568Y-141865022D01*
X126639250Y-141855369D01*
X126639253Y-141855368D01*
X126639255Y-141855368D01*
X126809522Y-141795789D01*
X126962262Y-141699816D01*
X127089816Y-141572262D01*
X127185789Y-141419522D01*
X127245368Y-141249255D01*
X127248664Y-141220003D01*
X127694435Y-141220003D01*
X127714630Y-141399249D01*
X127714631Y-141399254D01*
X127774211Y-141569523D01*
X127804565Y-141617830D01*
X127870184Y-141722262D01*
X127997738Y-141849816D01*
X128150478Y-141945789D01*
X128243955Y-141978498D01*
X128320745Y-142005368D01*
X128320750Y-142005369D01*
X128499996Y-142025565D01*
X128500000Y-142025565D01*
X128500004Y-142025565D01*
X128679249Y-142005369D01*
X128679252Y-142005368D01*
X128679255Y-142005368D01*
X128849522Y-141945789D01*
X129002262Y-141849816D01*
X129129816Y-141722262D01*
X129225789Y-141569522D01*
X129285368Y-141399255D01*
X129285369Y-141399249D01*
X129305565Y-141220003D01*
X129305565Y-141219996D01*
X129285369Y-141040750D01*
X129285368Y-141040745D01*
X129283413Y-141035158D01*
X129225789Y-140870478D01*
X129213913Y-140851578D01*
X129172686Y-140785965D01*
X129129816Y-140717738D01*
X129002262Y-140590184D01*
X128977347Y-140574529D01*
X128849523Y-140494211D01*
X128679254Y-140434631D01*
X128679249Y-140434630D01*
X128500004Y-140414435D01*
X128499996Y-140414435D01*
X128320750Y-140434630D01*
X128320745Y-140434631D01*
X128150476Y-140494211D01*
X127997737Y-140590184D01*
X127870184Y-140717737D01*
X127774211Y-140870476D01*
X127714631Y-141040745D01*
X127714630Y-141040750D01*
X127694435Y-141219996D01*
X127694435Y-141220003D01*
X127248664Y-141220003D01*
X127265565Y-141070003D01*
X127265565Y-141069996D01*
X127245369Y-140890750D01*
X127245368Y-140890745D01*
X127222492Y-140825369D01*
X127185789Y-140720478D01*
X127184067Y-140717738D01*
X127138718Y-140645565D01*
X127089816Y-140567738D01*
X126962262Y-140440184D01*
X126881634Y-140389522D01*
X126809521Y-140344210D01*
X126639249Y-140284630D01*
X126590616Y-140279151D01*
X126526202Y-140252084D01*
X126486647Y-140194490D01*
X126480500Y-140155931D01*
X126480500Y-136469060D01*
X126480501Y-136469047D01*
X126480501Y-136300945D01*
X126480501Y-136300943D01*
X126439577Y-136148215D01*
X126436372Y-136142663D01*
X126417003Y-136109115D01*
X126401170Y-136060997D01*
X126385369Y-135920750D01*
X126385368Y-135920745D01*
X126325789Y-135750478D01*
X126325188Y-135749522D01*
X126268637Y-135659522D01*
X126229816Y-135597738D01*
X126102262Y-135470184D01*
X126074249Y-135452582D01*
X125949523Y-135374211D01*
X125779254Y-135314631D01*
X125779249Y-135314630D01*
X125600004Y-135294435D01*
X125599996Y-135294435D01*
X125420750Y-135314630D01*
X125420745Y-135314631D01*
X125250474Y-135374212D01*
X125220236Y-135393212D01*
X125152999Y-135412212D01*
X125086164Y-135391844D01*
X125049271Y-135354190D01*
X125024415Y-135314632D01*
X124969816Y-135227738D01*
X124842262Y-135100184D01*
X124812153Y-135081265D01*
X124689523Y-135004211D01*
X124519254Y-134944631D01*
X124519249Y-134944630D01*
X124345045Y-134925003D01*
X129024435Y-134925003D01*
X129044630Y-135104249D01*
X129044631Y-135104254D01*
X129104211Y-135274523D01*
X129183054Y-135400000D01*
X129200184Y-135427262D01*
X129327738Y-135554816D01*
X129379754Y-135587500D01*
X129404416Y-135602996D01*
X129450707Y-135655331D01*
X129461355Y-135724385D01*
X129443438Y-135773961D01*
X129414212Y-135820474D01*
X129354631Y-135990745D01*
X129354630Y-135990750D01*
X129334435Y-136169996D01*
X129334435Y-136170003D01*
X129354630Y-136349249D01*
X129354631Y-136349254D01*
X129414211Y-136519523D01*
X129483533Y-136629847D01*
X129510184Y-136672262D01*
X129637738Y-136799816D01*
X129790478Y-136895789D01*
X129960745Y-136955368D01*
X129960750Y-136955369D01*
X130139996Y-136975565D01*
X130140000Y-136975565D01*
X130140004Y-136975565D01*
X130319249Y-136955369D01*
X130319252Y-136955368D01*
X130319255Y-136955368D01*
X130489522Y-136895789D01*
X130642262Y-136799816D01*
X130769816Y-136672262D01*
X130865789Y-136519522D01*
X130925368Y-136349255D01*
X130928717Y-136319534D01*
X130945565Y-136170003D01*
X130945565Y-136169996D01*
X130925369Y-135990750D01*
X130925368Y-135990745D01*
X130865789Y-135820478D01*
X130865786Y-135820474D01*
X130805410Y-135724385D01*
X130769816Y-135667738D01*
X130642262Y-135540184D01*
X130642260Y-135540182D01*
X130565582Y-135492002D01*
X130519292Y-135439668D01*
X130508644Y-135370614D01*
X130526562Y-135321036D01*
X130555788Y-135274524D01*
X130557538Y-135269523D01*
X130615368Y-135104255D01*
X130615827Y-135100184D01*
X130635565Y-134925003D01*
X130635565Y-134924996D01*
X130615369Y-134745750D01*
X130615368Y-134745745D01*
X130587312Y-134665565D01*
X130555789Y-134575478D01*
X130552647Y-134570478D01*
X130501963Y-134489815D01*
X130459816Y-134422738D01*
X130332262Y-134295184D01*
X130291386Y-134269500D01*
X130179523Y-134199211D01*
X130009254Y-134139631D01*
X130009249Y-134139630D01*
X129830004Y-134119435D01*
X129829996Y-134119435D01*
X129650750Y-134139630D01*
X129650745Y-134139631D01*
X129480476Y-134199211D01*
X129327737Y-134295184D01*
X129200184Y-134422737D01*
X129104211Y-134575476D01*
X129044631Y-134745745D01*
X129044630Y-134745750D01*
X129024435Y-134924996D01*
X129024435Y-134925003D01*
X124345045Y-134925003D01*
X124340004Y-134924435D01*
X124339996Y-134924435D01*
X124160750Y-134944630D01*
X124160742Y-134944632D01*
X124006954Y-134998445D01*
X123937175Y-135002006D01*
X123878319Y-134969084D01*
X123726819Y-134817584D01*
X123693334Y-134756261D01*
X123690500Y-134729903D01*
X123690500Y-133860003D01*
X130884435Y-133860003D01*
X130904630Y-134039249D01*
X130904631Y-134039254D01*
X130964211Y-134209523D01*
X131024559Y-134305565D01*
X131060184Y-134362262D01*
X131187738Y-134489816D01*
X131233713Y-134518704D01*
X131330077Y-134579254D01*
X131340478Y-134585789D01*
X131422901Y-134614630D01*
X131510745Y-134645368D01*
X131510750Y-134645369D01*
X131689996Y-134665565D01*
X131690000Y-134665565D01*
X131690004Y-134665565D01*
X131869249Y-134645369D01*
X131869252Y-134645368D01*
X131869255Y-134645368D01*
X132039522Y-134585789D01*
X132192262Y-134489816D01*
X132319816Y-134362262D01*
X132415789Y-134209522D01*
X132475368Y-134039255D01*
X132480775Y-133991265D01*
X132495565Y-133860003D01*
X132495565Y-133859996D01*
X132475369Y-133680750D01*
X132475368Y-133680745D01*
X132415788Y-133510476D01*
X132337177Y-133385368D01*
X132319816Y-133357738D01*
X132192262Y-133230184D01*
X132185266Y-133225788D01*
X132039523Y-133134211D01*
X131869254Y-133074631D01*
X131869249Y-133074630D01*
X131690004Y-133054435D01*
X131689996Y-133054435D01*
X131510750Y-133074630D01*
X131510745Y-133074631D01*
X131340476Y-133134211D01*
X131187737Y-133230184D01*
X131060184Y-133357737D01*
X130964211Y-133510476D01*
X130904631Y-133680745D01*
X130904630Y-133680750D01*
X130884435Y-133859996D01*
X130884435Y-133860003D01*
X123690500Y-133860003D01*
X123690500Y-132577154D01*
X123710185Y-132510115D01*
X123726815Y-132489477D01*
X124058506Y-132157785D01*
X124058511Y-132157782D01*
X124068714Y-132147578D01*
X124068716Y-132147578D01*
X124180520Y-132035774D01*
X124240779Y-131931401D01*
X124240783Y-131931395D01*
X124253654Y-131909101D01*
X124259577Y-131898843D01*
X124300500Y-131746116D01*
X124300500Y-131588001D01*
X124300500Y-130800096D01*
X124320185Y-130733057D01*
X124336815Y-130712419D01*
X125158506Y-129890727D01*
X125158511Y-129890724D01*
X125168714Y-129880520D01*
X125168716Y-129880520D01*
X125280520Y-129768716D01*
X125295366Y-129743002D01*
X125347222Y-129653185D01*
X125347223Y-129653183D01*
X125352236Y-129644499D01*
X125359577Y-129631785D01*
X125400501Y-129479057D01*
X125400501Y-129320943D01*
X125400501Y-129313348D01*
X125400500Y-129313330D01*
X125400500Y-127004204D01*
X125420185Y-126937165D01*
X125472989Y-126891410D01*
X125477270Y-126889687D01*
X125479761Y-126888488D01*
X125479764Y-126888485D01*
X125479767Y-126888485D01*
X125632507Y-126792512D01*
X125760061Y-126664958D01*
X125856034Y-126512218D01*
X125915613Y-126341951D01*
X125918045Y-126320368D01*
X125935810Y-126162699D01*
X125935810Y-126162692D01*
X125915614Y-125983446D01*
X125915613Y-125983441D01*
X125890685Y-125912202D01*
X125856034Y-125813174D01*
X125834717Y-125779249D01*
X125760060Y-125660433D01*
X125632507Y-125532880D01*
X125479768Y-125436907D01*
X125309499Y-125377327D01*
X125309495Y-125377326D01*
X125170617Y-125361679D01*
X125106203Y-125334612D01*
X125066648Y-125277018D01*
X125060501Y-125238459D01*
X125060501Y-125132815D01*
X125063133Y-125132815D01*
X125071875Y-125076665D01*
X125118242Y-125024398D01*
X125170179Y-125006267D01*
X125344022Y-124986680D01*
X125344025Y-124986679D01*
X125344028Y-124986679D01*
X125514295Y-124927100D01*
X125667035Y-124831127D01*
X125794589Y-124703573D01*
X125841867Y-124628329D01*
X125894201Y-124582038D01*
X125963255Y-124571389D01*
X126027103Y-124599764D01*
X126034542Y-124606620D01*
X126107738Y-124679816D01*
X126260478Y-124775789D01*
X126430745Y-124835368D01*
X126430746Y-124835368D01*
X126437532Y-124836917D01*
X126437091Y-124838845D01*
X126492523Y-124862132D01*
X126501915Y-124870611D01*
X127301931Y-125670628D01*
X127335416Y-125731951D01*
X127330432Y-125801643D01*
X127301932Y-125845989D01*
X127255184Y-125892737D01*
X127159211Y-126045476D01*
X127099631Y-126215745D01*
X127099630Y-126215750D01*
X127079435Y-126394996D01*
X127079435Y-126395003D01*
X127099630Y-126574249D01*
X127099631Y-126574254D01*
X127133894Y-126672171D01*
X127159211Y-126744522D01*
X127254303Y-126895860D01*
X127273303Y-126963095D01*
X127252936Y-127029931D01*
X127215281Y-127066825D01*
X127150212Y-127107710D01*
X127022659Y-127235263D01*
X126926686Y-127388002D01*
X126867106Y-127558271D01*
X126867105Y-127558276D01*
X126846910Y-127737522D01*
X126846910Y-127737529D01*
X126867105Y-127916775D01*
X126867106Y-127916780D01*
X126926686Y-128087049D01*
X127022446Y-128239449D01*
X127022659Y-128239788D01*
X127150213Y-128367342D01*
X127231759Y-128418581D01*
X127269563Y-128442335D01*
X127302953Y-128463315D01*
X127413300Y-128501927D01*
X127473220Y-128522894D01*
X127473225Y-128522895D01*
X127652471Y-128543091D01*
X127652475Y-128543091D01*
X127652478Y-128543091D01*
X127761616Y-128530794D01*
X127830438Y-128542848D01*
X127881818Y-128590197D01*
X127899500Y-128654014D01*
X127899500Y-129313330D01*
X127899499Y-129313348D01*
X127899499Y-129479054D01*
X127899498Y-129479054D01*
X127899499Y-129479057D01*
X127940423Y-129631785D01*
X127940424Y-129631787D01*
X127940423Y-129631787D01*
X127952777Y-129653183D01*
X127952778Y-129653185D01*
X128019475Y-129768709D01*
X128019481Y-129768717D01*
X128138349Y-129887585D01*
X128138355Y-129887590D01*
X128313181Y-130062416D01*
X128346666Y-130123739D01*
X128349500Y-130150097D01*
X128349500Y-130497587D01*
X128329815Y-130564626D01*
X128322450Y-130574896D01*
X128320186Y-130577734D01*
X128224211Y-130730476D01*
X128164631Y-130900745D01*
X128164630Y-130900750D01*
X128144435Y-131079996D01*
X128144435Y-131080003D01*
X128164630Y-131259249D01*
X128164631Y-131259254D01*
X128224211Y-131429523D01*
X128253258Y-131475750D01*
X128320184Y-131582262D01*
X128447738Y-131709816D01*
X128505509Y-131746116D01*
X128597108Y-131803672D01*
X128600478Y-131805789D01*
X128770745Y-131865368D01*
X128770750Y-131865369D01*
X128949996Y-131885565D01*
X128950000Y-131885565D01*
X128950004Y-131885565D01*
X129129249Y-131865369D01*
X129129252Y-131865368D01*
X129129255Y-131865368D01*
X129299522Y-131805789D01*
X129452262Y-131709816D01*
X129579816Y-131582262D01*
X129675789Y-131429522D01*
X129735368Y-131259255D01*
X129737558Y-131239818D01*
X129755565Y-131080003D01*
X129755565Y-131079996D01*
X129735369Y-130900750D01*
X129735368Y-130900745D01*
X129696356Y-130789255D01*
X129675789Y-130730478D01*
X129675372Y-130729815D01*
X129600089Y-130610003D01*
X129579816Y-130577738D01*
X129579814Y-130577736D01*
X129579813Y-130577734D01*
X129577550Y-130574896D01*
X129576659Y-130572715D01*
X129576111Y-130571842D01*
X129576264Y-130571745D01*
X129551144Y-130510209D01*
X129550500Y-130497587D01*
X129550500Y-129770945D01*
X129550500Y-129770943D01*
X129539314Y-129729195D01*
X129540977Y-129659350D01*
X129580139Y-129601488D01*
X129593106Y-129592119D01*
X129692262Y-129529816D01*
X129819816Y-129402262D01*
X129899899Y-129274809D01*
X129952231Y-129228521D01*
X129991009Y-129217564D01*
X130099249Y-129205369D01*
X130099252Y-129205368D01*
X130099255Y-129205368D01*
X130269522Y-129145789D01*
X130422262Y-129049816D01*
X130549816Y-128922262D01*
X130645789Y-128769522D01*
X130705368Y-128599255D01*
X130706389Y-128590197D01*
X130725565Y-128420003D01*
X130725565Y-128419996D01*
X130705369Y-128240750D01*
X130705368Y-128240745D01*
X130696230Y-128214630D01*
X130645789Y-128070478D01*
X130636902Y-128056335D01*
X130549815Y-127917737D01*
X130417338Y-127785260D01*
X130419472Y-127783125D01*
X130387042Y-127736908D01*
X130380500Y-127697165D01*
X130380500Y-125570943D01*
X130380387Y-125570519D01*
X130339577Y-125418215D01*
X130308421Y-125364251D01*
X130260520Y-125281284D01*
X130148716Y-125169480D01*
X130148715Y-125169479D01*
X130144385Y-125165149D01*
X130144374Y-125165139D01*
X129819238Y-124840003D01*
X131224435Y-124840003D01*
X131244630Y-125019249D01*
X131244631Y-125019254D01*
X131304211Y-125189523D01*
X131373036Y-125299057D01*
X131400184Y-125342262D01*
X131527738Y-125469816D01*
X131680478Y-125565789D01*
X131778256Y-125600003D01*
X131850745Y-125625368D01*
X131850750Y-125625369D01*
X132029996Y-125645565D01*
X132030000Y-125645565D01*
X132030004Y-125645565D01*
X132209249Y-125625369D01*
X132209252Y-125625368D01*
X132209255Y-125625368D01*
X132379522Y-125565789D01*
X132532262Y-125469816D01*
X132659816Y-125342262D01*
X132755789Y-125189522D01*
X132815368Y-125019255D01*
X132815369Y-125019249D01*
X132835565Y-124840003D01*
X132835565Y-124839996D01*
X132815369Y-124660750D01*
X132815368Y-124660745D01*
X132755788Y-124490475D01*
X132749993Y-124481253D01*
X132730992Y-124414017D01*
X132751359Y-124347181D01*
X132804627Y-124301967D01*
X132841101Y-124292060D01*
X132927515Y-124282324D01*
X132989249Y-124275369D01*
X132989252Y-124275368D01*
X132989255Y-124275368D01*
X133159522Y-124215789D01*
X133312262Y-124119816D01*
X133439816Y-123992262D01*
X133535789Y-123839522D01*
X133595368Y-123669255D01*
X133596956Y-123655160D01*
X133615565Y-123490003D01*
X133615565Y-123489996D01*
X133595369Y-123310750D01*
X133595368Y-123310745D01*
X133589854Y-123294988D01*
X133535789Y-123140478D01*
X133439816Y-122987738D01*
X133312262Y-122860184D01*
X133229562Y-122808220D01*
X133159523Y-122764211D01*
X132989254Y-122704631D01*
X132989249Y-122704630D01*
X132810004Y-122684435D01*
X132809996Y-122684435D01*
X132630750Y-122704630D01*
X132630745Y-122704631D01*
X132460476Y-122764211D01*
X132307737Y-122860184D01*
X132180184Y-122987737D01*
X132084211Y-123140476D01*
X132024631Y-123310745D01*
X132024630Y-123310750D01*
X132004435Y-123489996D01*
X132004435Y-123490003D01*
X132024630Y-123669249D01*
X132024631Y-123669254D01*
X132084212Y-123839525D01*
X132090007Y-123848748D01*
X132109007Y-123915985D01*
X132088639Y-123982820D01*
X132035370Y-124028033D01*
X131998896Y-124037939D01*
X131850750Y-124054630D01*
X131850745Y-124054631D01*
X131680476Y-124114211D01*
X131527737Y-124210184D01*
X131400184Y-124337737D01*
X131304211Y-124490476D01*
X131244631Y-124660745D01*
X131244630Y-124660750D01*
X131224435Y-124839996D01*
X131224435Y-124840003D01*
X129819238Y-124840003D01*
X129618337Y-124639102D01*
X129584852Y-124577779D01*
X129589836Y-124508087D01*
X129618336Y-124463741D01*
X129639816Y-124442262D01*
X129735789Y-124289522D01*
X129795368Y-124119255D01*
X129795369Y-124119249D01*
X129815565Y-123940003D01*
X129815565Y-123939996D01*
X129795369Y-123760750D01*
X129795368Y-123760745D01*
X129767086Y-123679920D01*
X129735789Y-123590478D01*
X129639816Y-123437738D01*
X129512262Y-123310184D01*
X129446023Y-123268563D01*
X129359523Y-123214211D01*
X129189254Y-123154631D01*
X129189249Y-123154630D01*
X129010004Y-123134435D01*
X129009996Y-123134435D01*
X128830750Y-123154630D01*
X128830737Y-123154633D01*
X128660479Y-123214209D01*
X128593150Y-123256515D01*
X128525913Y-123275515D01*
X128486225Y-123268563D01*
X128451793Y-123256515D01*
X128389255Y-123234632D01*
X128389254Y-123234631D01*
X128389252Y-123234631D01*
X128210004Y-123214435D01*
X128209996Y-123214435D01*
X128030750Y-123234630D01*
X128030737Y-123234633D01*
X127860479Y-123294209D01*
X127813023Y-123324028D01*
X127745786Y-123343028D01*
X127706097Y-123336075D01*
X127588688Y-123294991D01*
X127588675Y-123294988D01*
X127409430Y-123274793D01*
X127409422Y-123274793D01*
X127230176Y-123294988D01*
X127230168Y-123294990D01*
X127082824Y-123346548D01*
X127013045Y-123350109D01*
X126975899Y-123334501D01*
X126959522Y-123324211D01*
X126789254Y-123264631D01*
X126789249Y-123264630D01*
X126610004Y-123244435D01*
X126609996Y-123244435D01*
X126430750Y-123264630D01*
X126430745Y-123264631D01*
X126260476Y-123324211D01*
X126107737Y-123420184D01*
X125980184Y-123547737D01*
X125980182Y-123547740D01*
X125932904Y-123622982D01*
X125880569Y-123669273D01*
X125811516Y-123679920D01*
X125747668Y-123651545D01*
X125740230Y-123644690D01*
X125667035Y-123571495D01*
X125514294Y-123475521D01*
X125344022Y-123415941D01*
X125342091Y-123415724D01*
X125340925Y-123415234D01*
X125337232Y-123414391D01*
X125337379Y-123413744D01*
X125277677Y-123388657D01*
X125250981Y-123358476D01*
X125208038Y-123290133D01*
X125189038Y-123222897D01*
X125195989Y-123183211D01*
X125225368Y-123099255D01*
X125225369Y-123099249D01*
X125245565Y-122920003D01*
X125245565Y-122919996D01*
X125225369Y-122740750D01*
X125225368Y-122740745D01*
X125221016Y-122728308D01*
X125165789Y-122570478D01*
X125129556Y-122512813D01*
X125110556Y-122445576D01*
X125127303Y-122388550D01*
X125126034Y-122387939D01*
X125129051Y-122381674D01*
X125129052Y-122381673D01*
X125188631Y-122211406D01*
X125190403Y-122195681D01*
X125208828Y-122032154D01*
X125208828Y-122032147D01*
X125188632Y-121852904D01*
X125188631Y-121852902D01*
X125188631Y-121852896D01*
X125153019Y-121751126D01*
X125149458Y-121681348D01*
X125165068Y-121644199D01*
X125168313Y-121639035D01*
X125202250Y-121585026D01*
X125238529Y-121481344D01*
X125261827Y-121414766D01*
X125261830Y-121414753D01*
X125267999Y-121360003D01*
X131904435Y-121360003D01*
X131924630Y-121539249D01*
X131924631Y-121539254D01*
X131984211Y-121709523D01*
X132045567Y-121807169D01*
X132080184Y-121862262D01*
X132207738Y-121989816D01*
X132298080Y-122046582D01*
X132342721Y-122074632D01*
X132360478Y-122085789D01*
X132460377Y-122120745D01*
X132530745Y-122145368D01*
X132530750Y-122145369D01*
X132709996Y-122165565D01*
X132710000Y-122165565D01*
X132710004Y-122165565D01*
X132889249Y-122145369D01*
X132889252Y-122145368D01*
X132889255Y-122145368D01*
X133059522Y-122085789D01*
X133212262Y-121989816D01*
X133339816Y-121862262D01*
X133435789Y-121709522D01*
X133495368Y-121539255D01*
X133497166Y-121523297D01*
X133515565Y-121360003D01*
X133515565Y-121359996D01*
X133495369Y-121180750D01*
X133495366Y-121180737D01*
X133435790Y-121010481D01*
X133435785Y-121010470D01*
X133413974Y-120975758D01*
X133394973Y-120908522D01*
X133413973Y-120843816D01*
X133479090Y-120740184D01*
X133485788Y-120729524D01*
X133485790Y-120729518D01*
X133545368Y-120559255D01*
X133546411Y-120550000D01*
X133565565Y-120380003D01*
X133565565Y-120379996D01*
X133545369Y-120200750D01*
X133545368Y-120200745D01*
X133533818Y-120167738D01*
X133485789Y-120030478D01*
X133472621Y-120009522D01*
X133422186Y-119929254D01*
X133389816Y-119877738D01*
X133262262Y-119750184D01*
X133236841Y-119734211D01*
X133109523Y-119654211D01*
X132939254Y-119594631D01*
X132939249Y-119594630D01*
X132760004Y-119574435D01*
X132759996Y-119574435D01*
X132580750Y-119594630D01*
X132580745Y-119594631D01*
X132410476Y-119654211D01*
X132257737Y-119750184D01*
X132130184Y-119877737D01*
X132034211Y-120030476D01*
X131974631Y-120200745D01*
X131974630Y-120200750D01*
X131954435Y-120379996D01*
X131954435Y-120380003D01*
X131974630Y-120559249D01*
X131974633Y-120559262D01*
X132034209Y-120729518D01*
X132034210Y-120729520D01*
X132034211Y-120729522D01*
X132042156Y-120742166D01*
X132056026Y-120764240D01*
X132075026Y-120831477D01*
X132056026Y-120896184D01*
X131984211Y-121010476D01*
X131924631Y-121180745D01*
X131924630Y-121180750D01*
X131904435Y-121359996D01*
X131904435Y-121360003D01*
X125267999Y-121360003D01*
X125282026Y-121235507D01*
X125282026Y-121235500D01*
X125261830Y-121056254D01*
X125261829Y-121056249D01*
X125246977Y-121013805D01*
X125202250Y-120885982D01*
X125175753Y-120843813D01*
X125132775Y-120775413D01*
X125106277Y-120733242D01*
X125102218Y-120729183D01*
X125068733Y-120667860D01*
X125066679Y-120627619D01*
X125071190Y-120587580D01*
X125098256Y-120523166D01*
X125128438Y-120496469D01*
X125129517Y-120495790D01*
X125129522Y-120495789D01*
X125282262Y-120399816D01*
X125409816Y-120272262D01*
X125409818Y-120272258D01*
X125414155Y-120266821D01*
X125416533Y-120268717D01*
X125458625Y-120231351D01*
X125527659Y-120220577D01*
X125552443Y-120226477D01*
X125720737Y-120285366D01*
X125720743Y-120285367D01*
X125720745Y-120285368D01*
X125720746Y-120285368D01*
X125720750Y-120285369D01*
X125899996Y-120305565D01*
X125900000Y-120305565D01*
X125900004Y-120305565D01*
X126079249Y-120285369D01*
X126079252Y-120285368D01*
X126079255Y-120285368D01*
X126249522Y-120225789D01*
X126259299Y-120219646D01*
X126284027Y-120204108D01*
X126351263Y-120185107D01*
X126415973Y-120204108D01*
X126450475Y-120225788D01*
X126620745Y-120285368D01*
X126620750Y-120285369D01*
X126799996Y-120305565D01*
X126800000Y-120305565D01*
X126800004Y-120305565D01*
X126979249Y-120285369D01*
X126979252Y-120285368D01*
X126979255Y-120285368D01*
X127149522Y-120225789D01*
X127302262Y-120129816D01*
X127315240Y-120116837D01*
X127376562Y-120083352D01*
X127443878Y-120087476D01*
X127580737Y-120135366D01*
X127580743Y-120135367D01*
X127580745Y-120135368D01*
X127580746Y-120135368D01*
X127580750Y-120135369D01*
X127759996Y-120155565D01*
X127760000Y-120155565D01*
X127760004Y-120155565D01*
X127939249Y-120135369D01*
X127939252Y-120135368D01*
X127939255Y-120135368D01*
X128109522Y-120075789D01*
X128262262Y-119979816D01*
X128389816Y-119852262D01*
X128485789Y-119699522D01*
X128545368Y-119529255D01*
X128556945Y-119426505D01*
X128565565Y-119350003D01*
X128565565Y-119349996D01*
X128545369Y-119170750D01*
X128545368Y-119170745D01*
X128500851Y-119043522D01*
X128485789Y-119000478D01*
X128484067Y-118997738D01*
X128428822Y-118909816D01*
X128389816Y-118847738D01*
X128262262Y-118720184D01*
X128253426Y-118714632D01*
X128109523Y-118624211D01*
X127939254Y-118564631D01*
X127939249Y-118564630D01*
X127760004Y-118544435D01*
X127759996Y-118544435D01*
X127580750Y-118564630D01*
X127580745Y-118564631D01*
X127410476Y-118624211D01*
X127257734Y-118720186D01*
X127257731Y-118720188D01*
X127244752Y-118733167D01*
X127183427Y-118766649D01*
X127116122Y-118762523D01*
X126979257Y-118714632D01*
X126979249Y-118714630D01*
X126800004Y-118694435D01*
X126799996Y-118694435D01*
X126620750Y-118714630D01*
X126620737Y-118714633D01*
X126450480Y-118774209D01*
X126415970Y-118795893D01*
X126348733Y-118814892D01*
X126284030Y-118795893D01*
X126249519Y-118774209D01*
X126079262Y-118714633D01*
X126079249Y-118714630D01*
X125900004Y-118694435D01*
X125899996Y-118694435D01*
X125720750Y-118714630D01*
X125720745Y-118714631D01*
X125550476Y-118774211D01*
X125397737Y-118870184D01*
X125270182Y-118997739D01*
X125265837Y-119003188D01*
X125263495Y-119001320D01*
X125221109Y-119038772D01*
X125152050Y-119049384D01*
X125127555Y-119043522D01*
X124959262Y-118984633D01*
X124959249Y-118984630D01*
X124780004Y-118964435D01*
X124779996Y-118964435D01*
X124600750Y-118984630D01*
X124600745Y-118984631D01*
X124430476Y-119044211D01*
X124277737Y-119140184D01*
X124150184Y-119267737D01*
X124054210Y-119420478D01*
X123994630Y-119590750D01*
X123988809Y-119642419D01*
X123961743Y-119706833D01*
X123931561Y-119733530D01*
X123777737Y-119830184D01*
X123650184Y-119957737D01*
X123554211Y-120110476D01*
X123494631Y-120280745D01*
X123494630Y-120280750D01*
X123474435Y-120459996D01*
X123474435Y-120460003D01*
X123494630Y-120639249D01*
X123494631Y-120639254D01*
X123554211Y-120809523D01*
X123650184Y-120962262D01*
X123654242Y-120966320D01*
X123687727Y-121027643D01*
X123689781Y-121067884D01*
X123670896Y-121235500D01*
X123670896Y-121235507D01*
X123691091Y-121414753D01*
X123691093Y-121414761D01*
X123726703Y-121516529D01*
X123730264Y-121586308D01*
X123714655Y-121623454D01*
X123677472Y-121682630D01*
X123617896Y-121852888D01*
X123617893Y-121852901D01*
X123597698Y-122032147D01*
X123597698Y-122032154D01*
X123617893Y-122211400D01*
X123617894Y-122211405D01*
X123677474Y-122381674D01*
X123713706Y-122439337D01*
X123732706Y-122506574D01*
X123715965Y-122563596D01*
X123717231Y-122564206D01*
X123714212Y-122570473D01*
X123654630Y-122740750D01*
X123644837Y-122827668D01*
X123617770Y-122892082D01*
X123609298Y-122901465D01*
X123202087Y-123308676D01*
X123140764Y-123342161D01*
X123071072Y-123337177D01*
X123015139Y-123295305D01*
X122991186Y-123234878D01*
X122985369Y-123183250D01*
X122985368Y-123183245D01*
X122975356Y-123154632D01*
X122925789Y-123012978D01*
X122829816Y-122860238D01*
X122777798Y-122808220D01*
X122744313Y-122746897D01*
X122749297Y-122677205D01*
X122760483Y-122654570D01*
X122850053Y-122512022D01*
X122909632Y-122341755D01*
X122909633Y-122341749D01*
X122929829Y-122162503D01*
X122929829Y-122162496D01*
X122909633Y-121983250D01*
X122909632Y-121983245D01*
X122898166Y-121950478D01*
X122850053Y-121812978D01*
X122835928Y-121790499D01*
X122816929Y-121723264D01*
X122823882Y-121683574D01*
X122873215Y-121542589D01*
X122873218Y-121542576D01*
X122893414Y-121363330D01*
X122893414Y-121363323D01*
X122873218Y-121184077D01*
X122873217Y-121184072D01*
X122872050Y-121180737D01*
X122813638Y-121013805D01*
X122812668Y-121012262D01*
X122717664Y-120861064D01*
X122590111Y-120733511D01*
X122519676Y-120689254D01*
X122473592Y-120660297D01*
X122427302Y-120607963D01*
X122415565Y-120555304D01*
X122415565Y-120549996D01*
X122395369Y-120370750D01*
X122395368Y-120370745D01*
X122377536Y-120319783D01*
X122335789Y-120200478D01*
X122315522Y-120168224D01*
X122272354Y-120099522D01*
X122239816Y-120047738D01*
X122112262Y-119920184D01*
X121959523Y-119824211D01*
X121789254Y-119764631D01*
X121789249Y-119764630D01*
X121610004Y-119744435D01*
X121609996Y-119744435D01*
X121430750Y-119764630D01*
X121430745Y-119764631D01*
X121280040Y-119817366D01*
X121210261Y-119820927D01*
X121173115Y-119805319D01*
X121139522Y-119784211D01*
X121139520Y-119784210D01*
X121139518Y-119784209D01*
X120969262Y-119724633D01*
X120969249Y-119724630D01*
X120790004Y-119704435D01*
X120789996Y-119704435D01*
X120610750Y-119724630D01*
X120610745Y-119724631D01*
X120440476Y-119784211D01*
X120287737Y-119880184D01*
X120160184Y-120007737D01*
X120064211Y-120160476D01*
X120004631Y-120330745D01*
X120004630Y-120330750D01*
X119984435Y-120509996D01*
X119984435Y-120510003D01*
X120004630Y-120689249D01*
X120004631Y-120689254D01*
X120064211Y-120859523D01*
X120160184Y-121012262D01*
X120287737Y-121139815D01*
X120292312Y-121143464D01*
X120332449Y-121200655D01*
X120335295Y-121270466D01*
X120302675Y-121328088D01*
X119840263Y-121790501D01*
X119411286Y-122219478D01*
X119411284Y-122219480D01*
X119340580Y-122290184D01*
X119319428Y-122311336D01*
X119258104Y-122344820D01*
X119188413Y-122339836D01*
X119132479Y-122297964D01*
X119108527Y-122237537D01*
X119095369Y-122120749D01*
X119095368Y-122120745D01*
X119064369Y-122032154D01*
X119035789Y-121950478D01*
X118939816Y-121797738D01*
X118939815Y-121797737D01*
X118935475Y-121792295D01*
X118936472Y-121791499D01*
X118906470Y-121736554D01*
X118904416Y-121696313D01*
X118923910Y-121523297D01*
X118923910Y-121523290D01*
X118903714Y-121344044D01*
X118903713Y-121344039D01*
X118901038Y-121336395D01*
X118844134Y-121173772D01*
X118748161Y-121021032D01*
X118620607Y-120893478D01*
X118569022Y-120861065D01*
X118467868Y-120797505D01*
X118297599Y-120737925D01*
X118297594Y-120737924D01*
X118118349Y-120717729D01*
X118118341Y-120717729D01*
X117939095Y-120737924D01*
X117939090Y-120737925D01*
X117768821Y-120797505D01*
X117616082Y-120893478D01*
X117488529Y-121021031D01*
X117392556Y-121173770D01*
X117332976Y-121344039D01*
X117332975Y-121344044D01*
X117312780Y-121523290D01*
X117312780Y-121523297D01*
X117332975Y-121702543D01*
X117332976Y-121702548D01*
X117392556Y-121872817D01*
X117488529Y-122025556D01*
X117492870Y-122030999D01*
X117491872Y-122031794D01*
X117521874Y-122086739D01*
X117523928Y-122126980D01*
X117504435Y-122299995D01*
X117504435Y-122300003D01*
X117524630Y-122479249D01*
X117524631Y-122479254D01*
X117584211Y-122649523D01*
X117639129Y-122736923D01*
X117665603Y-122779057D01*
X117680185Y-122802263D01*
X117682445Y-122805097D01*
X117683334Y-122807275D01*
X117683889Y-122808158D01*
X117683734Y-122808255D01*
X117708855Y-122869783D01*
X117709500Y-122882412D01*
X117709500Y-135029902D01*
X117689815Y-135096941D01*
X117673181Y-135117583D01*
X116561465Y-136229298D01*
X116500142Y-136262783D01*
X116487667Y-136264837D01*
X116478383Y-136265883D01*
X116409561Y-136253828D01*
X116358182Y-136206479D01*
X116340500Y-136142663D01*
X116340500Y-135060943D01*
X116340499Y-135060939D01*
X116332160Y-135029815D01*
X116327573Y-135012696D01*
X116299577Y-134908215D01*
X116270639Y-134858095D01*
X116220520Y-134771284D01*
X116108716Y-134659480D01*
X116108715Y-134659479D01*
X116104385Y-134655149D01*
X116104374Y-134655139D01*
X115476819Y-134027584D01*
X115443334Y-133966261D01*
X115440500Y-133939903D01*
X115440500Y-130013476D01*
X115460185Y-129946437D01*
X115512989Y-129900682D01*
X115582147Y-129890738D01*
X115645703Y-129919763D01*
X115669493Y-129947503D01*
X115710184Y-130012262D01*
X115837738Y-130139816D01*
X115990478Y-130235789D01*
X116114680Y-130279249D01*
X116160745Y-130295368D01*
X116160750Y-130295369D01*
X116339996Y-130315565D01*
X116340000Y-130315565D01*
X116340004Y-130315565D01*
X116519249Y-130295369D01*
X116519252Y-130295368D01*
X116519255Y-130295368D01*
X116689522Y-130235789D01*
X116842262Y-130139816D01*
X116969816Y-130012262D01*
X117065789Y-129859522D01*
X117125368Y-129689255D01*
X117125462Y-129688425D01*
X117145565Y-129510003D01*
X117145565Y-129509996D01*
X117125369Y-129330750D01*
X117125368Y-129330745D01*
X117119729Y-129314630D01*
X117065789Y-129160478D01*
X116969816Y-129007738D01*
X116842262Y-128880184D01*
X116802768Y-128855368D01*
X116689523Y-128784211D01*
X116519254Y-128724631D01*
X116519249Y-128724630D01*
X116340004Y-128704435D01*
X116339996Y-128704435D01*
X116160750Y-128724630D01*
X116160745Y-128724631D01*
X115990476Y-128784211D01*
X115837737Y-128880184D01*
X115710182Y-129007739D01*
X115669493Y-129072496D01*
X115617158Y-129118787D01*
X115548105Y-129129434D01*
X115484257Y-129101059D01*
X115445885Y-129042669D01*
X115440500Y-129006523D01*
X115440500Y-123840097D01*
X115460185Y-123773058D01*
X115476815Y-123752419D01*
X115538535Y-123690698D01*
X115599856Y-123657215D01*
X115612311Y-123655163D01*
X115699255Y-123645368D01*
X115869522Y-123585789D01*
X116022262Y-123489816D01*
X116149816Y-123362262D01*
X116245789Y-123209522D01*
X116305368Y-123039255D01*
X116311173Y-122987737D01*
X116325565Y-122860003D01*
X116325565Y-122859996D01*
X116305369Y-122680750D01*
X116305368Y-122680745D01*
X116245788Y-122510476D01*
X116201088Y-122439337D01*
X116149816Y-122357738D01*
X116022262Y-122230184D01*
X115992377Y-122211406D01*
X115869523Y-122134211D01*
X115699254Y-122074631D01*
X115699249Y-122074630D01*
X115520004Y-122054435D01*
X115519996Y-122054435D01*
X115340750Y-122074630D01*
X115340745Y-122074631D01*
X115170476Y-122134211D01*
X115070472Y-122197049D01*
X115003236Y-122216049D01*
X114936400Y-122195681D01*
X114891186Y-122142414D01*
X114880500Y-122092055D01*
X114880500Y-121082412D01*
X114900185Y-121015373D01*
X114907555Y-121005097D01*
X114909810Y-121002267D01*
X114909816Y-121002262D01*
X115005789Y-120849522D01*
X115065368Y-120679255D01*
X115065445Y-120678574D01*
X115085565Y-120500003D01*
X115085565Y-120499996D01*
X115065369Y-120320750D01*
X115065368Y-120320745D01*
X115046499Y-120266821D01*
X115005789Y-120150478D01*
X114996295Y-120135369D01*
X114930388Y-120030478D01*
X114909816Y-119997738D01*
X114782262Y-119870184D01*
X114769506Y-119862169D01*
X114629523Y-119774211D01*
X114459254Y-119714631D01*
X114459249Y-119714630D01*
X114280004Y-119694435D01*
X114279996Y-119694435D01*
X114100750Y-119714630D01*
X114100745Y-119714631D01*
X113930476Y-119774211D01*
X113777737Y-119870184D01*
X113650184Y-119997737D01*
X113554211Y-120150476D01*
X113494631Y-120320745D01*
X113494630Y-120320750D01*
X113487720Y-120382085D01*
X113460654Y-120446499D01*
X113403059Y-120486055D01*
X113333222Y-120488192D01*
X113273315Y-120452234D01*
X113242360Y-120389596D01*
X113240500Y-120368202D01*
X113240500Y-119722412D01*
X113260185Y-119655373D01*
X113267555Y-119645097D01*
X113269810Y-119642267D01*
X113269816Y-119642262D01*
X113365789Y-119489522D01*
X113425368Y-119319255D01*
X113427580Y-119299627D01*
X113445565Y-119140003D01*
X113445565Y-119139996D01*
X113425369Y-118960750D01*
X113425368Y-118960745D01*
X113407547Y-118909815D01*
X113365789Y-118790478D01*
X113273765Y-118644023D01*
X113254766Y-118576789D01*
X113275134Y-118509953D01*
X113328401Y-118464739D01*
X113397658Y-118455501D01*
X113419715Y-118461011D01*
X113460745Y-118475368D01*
X113460750Y-118475369D01*
X113639996Y-118495565D01*
X113640000Y-118495565D01*
X113640004Y-118495565D01*
X113819249Y-118475369D01*
X113819252Y-118475368D01*
X113819255Y-118475368D01*
X113989522Y-118415789D01*
X114142262Y-118319816D01*
X114269816Y-118192262D01*
X114365789Y-118039522D01*
X114425368Y-117869255D01*
X114428337Y-117842904D01*
X114445565Y-117690003D01*
X114445565Y-117689996D01*
X114434299Y-117590003D01*
X119474435Y-117590003D01*
X119494630Y-117769249D01*
X119494631Y-117769254D01*
X119554211Y-117939523D01*
X119617045Y-118039522D01*
X119650184Y-118092262D01*
X119777738Y-118219816D01*
X119856410Y-118269249D01*
X119890192Y-118290476D01*
X119930478Y-118315789D01*
X119941984Y-118319815D01*
X120100745Y-118375368D01*
X120100750Y-118375369D01*
X120279996Y-118395565D01*
X120280000Y-118395565D01*
X120280004Y-118395565D01*
X120459249Y-118375369D01*
X120459252Y-118375368D01*
X120459255Y-118375368D01*
X120629522Y-118315789D01*
X120686475Y-118280003D01*
X122264435Y-118280003D01*
X122284630Y-118459249D01*
X122284631Y-118459254D01*
X122344211Y-118629523D01*
X122427781Y-118762523D01*
X122440184Y-118782262D01*
X122567738Y-118909816D01*
X122654977Y-118964632D01*
X122716338Y-119003188D01*
X122720478Y-119005789D01*
X122890745Y-119065368D01*
X122890750Y-119065369D01*
X123069996Y-119085565D01*
X123070000Y-119085565D01*
X123070004Y-119085565D01*
X123249249Y-119065369D01*
X123249252Y-119065368D01*
X123249255Y-119065368D01*
X123419522Y-119005789D01*
X123572262Y-118909816D01*
X123699816Y-118782262D01*
X123795789Y-118629522D01*
X123855368Y-118459255D01*
X123855791Y-118455501D01*
X123875565Y-118280003D01*
X123875565Y-118279996D01*
X123855369Y-118100752D01*
X123855368Y-118100751D01*
X123855368Y-118100745D01*
X123854134Y-118097220D01*
X123854011Y-118094800D01*
X123853820Y-118093963D01*
X123853966Y-118093929D01*
X123850570Y-118027447D01*
X123877500Y-117979321D01*
X123875475Y-117977706D01*
X123879815Y-117972263D01*
X123900793Y-117938878D01*
X123975789Y-117819522D01*
X124035368Y-117649255D01*
X124042044Y-117590003D01*
X124055565Y-117470003D01*
X124055565Y-117469996D01*
X124035369Y-117290750D01*
X124035368Y-117290745D01*
X124035108Y-117290003D01*
X124364435Y-117290003D01*
X124384630Y-117469249D01*
X124384631Y-117469254D01*
X124444211Y-117639523D01*
X124507646Y-117740478D01*
X124540184Y-117792262D01*
X124667738Y-117919816D01*
X124718898Y-117951962D01*
X124812375Y-118010698D01*
X124820478Y-118015789D01*
X124946297Y-118059815D01*
X124990745Y-118075368D01*
X124990750Y-118075369D01*
X125169996Y-118095565D01*
X125170000Y-118095565D01*
X125170004Y-118095565D01*
X125349249Y-118075369D01*
X125349252Y-118075368D01*
X125349255Y-118075368D01*
X125519522Y-118015789D01*
X125672262Y-117919816D01*
X125799816Y-117792262D01*
X125895789Y-117639522D01*
X125919953Y-117570462D01*
X125960674Y-117513687D01*
X126025626Y-117487939D01*
X126094188Y-117501394D01*
X126144592Y-117549781D01*
X126148713Y-117557610D01*
X126151121Y-117562610D01*
X126205558Y-117649246D01*
X126247095Y-117715351D01*
X126374649Y-117842905D01*
X126416583Y-117869254D01*
X126516859Y-117932262D01*
X126527389Y-117938878D01*
X126697656Y-117998457D01*
X126697661Y-117998458D01*
X126876907Y-118018654D01*
X126876911Y-118018654D01*
X126876915Y-118018654D01*
X127056160Y-117998458D01*
X127056163Y-117998457D01*
X127056166Y-117998457D01*
X127226433Y-117938878D01*
X127379173Y-117842905D01*
X127506727Y-117715351D01*
X127602700Y-117562611D01*
X127662279Y-117392344D01*
X127662754Y-117388132D01*
X127673810Y-117290003D01*
X127974435Y-117290003D01*
X127994630Y-117469249D01*
X127994631Y-117469254D01*
X128054211Y-117639523D01*
X128117646Y-117740478D01*
X128150184Y-117792262D01*
X128277738Y-117919816D01*
X128328898Y-117951962D01*
X128422375Y-118010698D01*
X128430478Y-118015789D01*
X128556297Y-118059815D01*
X128600745Y-118075368D01*
X128600750Y-118075369D01*
X128779996Y-118095565D01*
X128780000Y-118095565D01*
X128780004Y-118095565D01*
X128959249Y-118075369D01*
X128959252Y-118075368D01*
X128959255Y-118075368D01*
X129129522Y-118015789D01*
X129282262Y-117919816D01*
X129393462Y-117808615D01*
X129454781Y-117775133D01*
X129524473Y-117780117D01*
X129580407Y-117821988D01*
X129586133Y-117830325D01*
X129650184Y-117932262D01*
X129777738Y-118059816D01*
X129930478Y-118155789D01*
X130017691Y-118186306D01*
X130100745Y-118215368D01*
X130100750Y-118215369D01*
X130279996Y-118235565D01*
X130280000Y-118235565D01*
X130280004Y-118235565D01*
X130459249Y-118215369D01*
X130459252Y-118215368D01*
X130459255Y-118215368D01*
X130629522Y-118155789D01*
X130782262Y-118059816D01*
X130802879Y-118039198D01*
X130864198Y-118005715D01*
X130933889Y-118010698D01*
X130989824Y-118052569D01*
X131014242Y-118118033D01*
X130999391Y-118186306D01*
X130995552Y-118192853D01*
X130934211Y-118290476D01*
X130874631Y-118460745D01*
X130874630Y-118460750D01*
X130854435Y-118639996D01*
X130854435Y-118640003D01*
X130874630Y-118819249D01*
X130874631Y-118819254D01*
X130934211Y-118989523D01*
X130981868Y-119065368D01*
X131030184Y-119142262D01*
X131157738Y-119269816D01*
X131191400Y-119290967D01*
X131285343Y-119349996D01*
X131310478Y-119365789D01*
X131466770Y-119420478D01*
X131480745Y-119425368D01*
X131480750Y-119425369D01*
X131659996Y-119445565D01*
X131660000Y-119445565D01*
X131660004Y-119445565D01*
X131839249Y-119425369D01*
X131839252Y-119425368D01*
X131839255Y-119425368D01*
X132009522Y-119365789D01*
X132162262Y-119269816D01*
X132289816Y-119142262D01*
X132385789Y-118989522D01*
X132445368Y-118819255D01*
X132445860Y-118814892D01*
X132465565Y-118640003D01*
X132465565Y-118639996D01*
X132445369Y-118460750D01*
X132445368Y-118460745D01*
X132429637Y-118415788D01*
X132385789Y-118290478D01*
X132289816Y-118137738D01*
X132162262Y-118010184D01*
X132110574Y-117977706D01*
X132009523Y-117914211D01*
X131839254Y-117854631D01*
X131839249Y-117854630D01*
X131660004Y-117834435D01*
X131659996Y-117834435D01*
X131480750Y-117854630D01*
X131480745Y-117854631D01*
X131310476Y-117914211D01*
X131157739Y-118010183D01*
X131137121Y-118030801D01*
X131075797Y-118064285D01*
X131006105Y-118059299D01*
X130950172Y-118017426D01*
X130925757Y-117951962D01*
X130940610Y-117883689D01*
X130944448Y-117877145D01*
X130949407Y-117869254D01*
X131005789Y-117779522D01*
X131065368Y-117609255D01*
X131067537Y-117590003D01*
X131085565Y-117430003D01*
X131085565Y-117429996D01*
X131065369Y-117250750D01*
X131065368Y-117250745D01*
X131043321Y-117187738D01*
X131005789Y-117080478D01*
X130993037Y-117060184D01*
X130948562Y-116989402D01*
X130909816Y-116927738D01*
X130882081Y-116900003D01*
X134794435Y-116900003D01*
X134814630Y-117079249D01*
X134814631Y-117079254D01*
X134874211Y-117249523D01*
X134934515Y-117345496D01*
X134963951Y-117392343D01*
X134970185Y-117402263D01*
X134972445Y-117405097D01*
X134973334Y-117407275D01*
X134973889Y-117408158D01*
X134973734Y-117408255D01*
X134998855Y-117469783D01*
X134999500Y-117482412D01*
X134999500Y-121113330D01*
X134999499Y-121113348D01*
X134999499Y-121279054D01*
X134999498Y-121279054D01*
X135014865Y-121336402D01*
X135040423Y-121431785D01*
X135052246Y-121452262D01*
X135081824Y-121503493D01*
X135119479Y-121568715D01*
X135238349Y-121687585D01*
X135238355Y-121687590D01*
X135863181Y-122312416D01*
X135896666Y-122373739D01*
X135899500Y-122400097D01*
X135899500Y-130199902D01*
X135879815Y-130266941D01*
X135863181Y-130287583D01*
X135836148Y-130314615D01*
X135836146Y-130314618D01*
X135820281Y-130342097D01*
X135804416Y-130369577D01*
X135757090Y-130451548D01*
X135716166Y-130604276D01*
X135716166Y-130604278D01*
X135716166Y-130772379D01*
X135716167Y-130772392D01*
X135716167Y-131669997D01*
X135716166Y-131670015D01*
X135716166Y-131835721D01*
X135716165Y-131835721D01*
X135757090Y-131988453D01*
X135769292Y-132009586D01*
X135769293Y-132009588D01*
X135836144Y-132125379D01*
X135836148Y-132125384D01*
X135955016Y-132244252D01*
X135955022Y-132244257D01*
X136229298Y-132518533D01*
X136262783Y-132579856D01*
X136264837Y-132592330D01*
X136274630Y-132679249D01*
X136334210Y-132849521D01*
X136379858Y-132922169D01*
X136430184Y-133002262D01*
X136557738Y-133129816D01*
X136710478Y-133225789D01*
X136880745Y-133285368D01*
X136949384Y-133293101D01*
X137013796Y-133320166D01*
X137053352Y-133377760D01*
X137059500Y-133416321D01*
X137059500Y-138496560D01*
X137039815Y-138563599D01*
X137001476Y-138601551D01*
X136987741Y-138610181D01*
X136987735Y-138610186D01*
X136860184Y-138737737D01*
X136764211Y-138890476D01*
X136704631Y-139060745D01*
X136704630Y-139060750D01*
X136684435Y-139239996D01*
X136684435Y-139240003D01*
X136704630Y-139419249D01*
X136704631Y-139419254D01*
X136764211Y-139589523D01*
X136833329Y-139699523D01*
X136860184Y-139742262D01*
X136987738Y-139869816D01*
X137078080Y-139926582D01*
X137124206Y-139955565D01*
X137140478Y-139965789D01*
X137310745Y-140025368D01*
X137310750Y-140025369D01*
X137489996Y-140045565D01*
X137490000Y-140045565D01*
X137490004Y-140045565D01*
X137669249Y-140025369D01*
X137669252Y-140025368D01*
X137669255Y-140025368D01*
X137839522Y-139965789D01*
X137992262Y-139869816D01*
X138119816Y-139742262D01*
X138215789Y-139589522D01*
X138275368Y-139419255D01*
X138284974Y-139333998D01*
X138295565Y-139240003D01*
X138295565Y-139239996D01*
X138279929Y-139101223D01*
X138275368Y-139060745D01*
X138267458Y-139038139D01*
X138260500Y-138997185D01*
X138260500Y-138900003D01*
X147754435Y-138900003D01*
X147774630Y-139079249D01*
X147774631Y-139079254D01*
X147834211Y-139249523D01*
X147897347Y-139350003D01*
X147930184Y-139402262D01*
X148057738Y-139529816D01*
X148065403Y-139534632D01*
X148177290Y-139604936D01*
X148210478Y-139625789D01*
X148295139Y-139655413D01*
X148380745Y-139685368D01*
X148380750Y-139685369D01*
X148559996Y-139705565D01*
X148560000Y-139705565D01*
X148560004Y-139705565D01*
X148739249Y-139685369D01*
X148739252Y-139685368D01*
X148739255Y-139685368D01*
X148909522Y-139625789D01*
X149062262Y-139529816D01*
X149189816Y-139402262D01*
X149285789Y-139249522D01*
X149345368Y-139079255D01*
X149347453Y-139060750D01*
X149365565Y-138900003D01*
X149365565Y-138899996D01*
X149345369Y-138720750D01*
X149345368Y-138720745D01*
X149319768Y-138647584D01*
X149285789Y-138550478D01*
X149284608Y-138548599D01*
X149189815Y-138397737D01*
X149062262Y-138270184D01*
X148909523Y-138174211D01*
X148739254Y-138114631D01*
X148739249Y-138114630D01*
X148560004Y-138094435D01*
X148559996Y-138094435D01*
X148380750Y-138114630D01*
X148380745Y-138114631D01*
X148210476Y-138174211D01*
X148057737Y-138270184D01*
X147930184Y-138397737D01*
X147834211Y-138550476D01*
X147774631Y-138720745D01*
X147774630Y-138720750D01*
X147754435Y-138899996D01*
X147754435Y-138900003D01*
X138260500Y-138900003D01*
X138260500Y-135400003D01*
X139194435Y-135400003D01*
X139214630Y-135579249D01*
X139214631Y-135579254D01*
X139274211Y-135749523D01*
X139352262Y-135873739D01*
X139370184Y-135902262D01*
X139497738Y-136029816D01*
X139507244Y-136035789D01*
X139634206Y-136115565D01*
X139650478Y-136125789D01*
X139811288Y-136182059D01*
X139820745Y-136185368D01*
X139820750Y-136185369D01*
X139999996Y-136205565D01*
X140000000Y-136205565D01*
X140000004Y-136205565D01*
X140179249Y-136185369D01*
X140179252Y-136185368D01*
X140179255Y-136185368D01*
X140349522Y-136125789D01*
X140502262Y-136029816D01*
X140629816Y-135902262D01*
X140725789Y-135749522D01*
X140785368Y-135579255D01*
X140785369Y-135579249D01*
X140805565Y-135400003D01*
X140805565Y-135399996D01*
X140785369Y-135220750D01*
X140785368Y-135220745D01*
X140772989Y-135185368D01*
X140725789Y-135050478D01*
X140715394Y-135033935D01*
X140653269Y-134935063D01*
X140629816Y-134897738D01*
X140502262Y-134770184D01*
X140469379Y-134749522D01*
X140349523Y-134674211D01*
X140179254Y-134614631D01*
X140179249Y-134614630D01*
X140000004Y-134594435D01*
X139999996Y-134594435D01*
X139820750Y-134614630D01*
X139820745Y-134614631D01*
X139650476Y-134674211D01*
X139497737Y-134770184D01*
X139370184Y-134897737D01*
X139274211Y-135050476D01*
X139214631Y-135220745D01*
X139214630Y-135220750D01*
X139194435Y-135399996D01*
X139194435Y-135400003D01*
X138260500Y-135400003D01*
X138260500Y-128380003D01*
X140774435Y-128380003D01*
X140794630Y-128559249D01*
X140794631Y-128559254D01*
X140854211Y-128729523D01*
X140895849Y-128795789D01*
X140950184Y-128882262D01*
X141077738Y-129009816D01*
X141130023Y-129042669D01*
X141206543Y-129090750D01*
X141230478Y-129105789D01*
X141386770Y-129160478D01*
X141400745Y-129165368D01*
X141400750Y-129165369D01*
X141579996Y-129185565D01*
X141586964Y-129185565D01*
X141586964Y-129187037D01*
X141647937Y-129197708D01*
X141699324Y-129245048D01*
X141716960Y-129312656D01*
X141698011Y-129374853D01*
X141644212Y-129460474D01*
X141584631Y-129630745D01*
X141584630Y-129630750D01*
X141564435Y-129809996D01*
X141564435Y-129810003D01*
X141584630Y-129989249D01*
X141584631Y-129989254D01*
X141644211Y-130159523D01*
X141719444Y-130279254D01*
X141740184Y-130312262D01*
X141867738Y-130439816D01*
X141958080Y-130496582D01*
X142005048Y-130526094D01*
X142020478Y-130535789D01*
X142190745Y-130595368D01*
X142190750Y-130595369D01*
X142369996Y-130615565D01*
X142370000Y-130615565D01*
X142370004Y-130615565D01*
X142549249Y-130595369D01*
X142549252Y-130595368D01*
X142549255Y-130595368D01*
X142719522Y-130535789D01*
X142872262Y-130439816D01*
X142999816Y-130312262D01*
X143095789Y-130159522D01*
X143155368Y-129989255D01*
X143156390Y-129980184D01*
X143175565Y-129810003D01*
X143175565Y-129809996D01*
X143155369Y-129630750D01*
X143155368Y-129630745D01*
X143151441Y-129619522D01*
X143095789Y-129460478D01*
X143095786Y-129460474D01*
X143041584Y-129374211D01*
X142999816Y-129307738D01*
X142999814Y-129307736D01*
X142999813Y-129307734D01*
X142997550Y-129304896D01*
X142996659Y-129302715D01*
X142996111Y-129301842D01*
X142996264Y-129301745D01*
X142971144Y-129240209D01*
X142970500Y-129227587D01*
X142970500Y-125535003D01*
X143799435Y-125535003D01*
X143819630Y-125714249D01*
X143819631Y-125714254D01*
X143879211Y-125884523D01*
X143961156Y-126014936D01*
X143975184Y-126037262D01*
X144102738Y-126164816D01*
X144110643Y-126169783D01*
X144250515Y-126257671D01*
X144255478Y-126260789D01*
X144400405Y-126311501D01*
X144425745Y-126320368D01*
X144425750Y-126320369D01*
X144604996Y-126340565D01*
X144605000Y-126340565D01*
X144605004Y-126340565D01*
X144784249Y-126320369D01*
X144784252Y-126320368D01*
X144784255Y-126320368D01*
X144954522Y-126260789D01*
X145107262Y-126164816D01*
X145234816Y-126037262D01*
X145329116Y-125887183D01*
X145381451Y-125840893D01*
X145450504Y-125830245D01*
X145514353Y-125858620D01*
X145551152Y-125912202D01*
X145564210Y-125949521D01*
X145585524Y-125983441D01*
X145643743Y-126076097D01*
X145660185Y-126102263D01*
X145662445Y-126105097D01*
X145663334Y-126107275D01*
X145663889Y-126108158D01*
X145663734Y-126108255D01*
X145688855Y-126169783D01*
X145689500Y-126182412D01*
X145689500Y-129183204D01*
X145669815Y-129250243D01*
X145617011Y-129295998D01*
X145547853Y-129305942D01*
X145499528Y-129288198D01*
X145429523Y-129244211D01*
X145259254Y-129184631D01*
X145259249Y-129184630D01*
X145080004Y-129164435D01*
X145079996Y-129164435D01*
X144900750Y-129184630D01*
X144900745Y-129184631D01*
X144730476Y-129244211D01*
X144577737Y-129340184D01*
X144450184Y-129467737D01*
X144354211Y-129620476D01*
X144294631Y-129790745D01*
X144294630Y-129790750D01*
X144274435Y-129969996D01*
X144274435Y-129970003D01*
X144294630Y-130149249D01*
X144294631Y-130149254D01*
X144354211Y-130319523D01*
X144445581Y-130464936D01*
X144450184Y-130472262D01*
X144577738Y-130599816D01*
X144730478Y-130695789D01*
X144730479Y-130695789D01*
X144736375Y-130699494D01*
X144735525Y-130700845D01*
X144781155Y-130742035D01*
X144799500Y-130806942D01*
X144799500Y-133913330D01*
X144799499Y-133913348D01*
X144799499Y-134079054D01*
X144799498Y-134079054D01*
X144840423Y-134231787D01*
X144840424Y-134231788D01*
X144862198Y-134269501D01*
X144919475Y-134368709D01*
X144919481Y-134368717D01*
X144938453Y-134387689D01*
X144971938Y-134449012D01*
X144966954Y-134518704D01*
X144925082Y-134574637D01*
X144859618Y-134599054D01*
X144836891Y-134598591D01*
X144810336Y-134595599D01*
X144800000Y-134594435D01*
X144799999Y-134594435D01*
X144799998Y-134594435D01*
X144799996Y-134594435D01*
X144620750Y-134614630D01*
X144620745Y-134614631D01*
X144450476Y-134674211D01*
X144297737Y-134770184D01*
X144170184Y-134897737D01*
X144074211Y-135050476D01*
X144014631Y-135220745D01*
X144014630Y-135220750D01*
X143994435Y-135399996D01*
X143994435Y-135400003D01*
X144014630Y-135579249D01*
X144014631Y-135579254D01*
X144074211Y-135749523D01*
X144152262Y-135873739D01*
X144170184Y-135902262D01*
X144297738Y-136029816D01*
X144307244Y-136035789D01*
X144434206Y-136115565D01*
X144450478Y-136125789D01*
X144611288Y-136182059D01*
X144620745Y-136185368D01*
X144620750Y-136185369D01*
X144799996Y-136205565D01*
X144800000Y-136205565D01*
X144800004Y-136205565D01*
X144979249Y-136185369D01*
X144979252Y-136185368D01*
X144979255Y-136185368D01*
X145149522Y-136125789D01*
X145302262Y-136029816D01*
X145429816Y-135902262D01*
X145525789Y-135749522D01*
X145585368Y-135579255D01*
X145585369Y-135579249D01*
X145605565Y-135400003D01*
X145605565Y-135399999D01*
X145602254Y-135370614D01*
X145601408Y-135363108D01*
X145613462Y-135294288D01*
X145660810Y-135242908D01*
X145728420Y-135225283D01*
X145794826Y-135247008D01*
X145812309Y-135261544D01*
X146363181Y-135812416D01*
X146396666Y-135873739D01*
X146399500Y-135900097D01*
X146399500Y-137217587D01*
X146379815Y-137284626D01*
X146372450Y-137294896D01*
X146370186Y-137297734D01*
X146274211Y-137450476D01*
X146214631Y-137620745D01*
X146214630Y-137620750D01*
X146194435Y-137799996D01*
X146194435Y-137800003D01*
X146214630Y-137979249D01*
X146214631Y-137979254D01*
X146274211Y-138149523D01*
X146327829Y-138234855D01*
X146370184Y-138302262D01*
X146497738Y-138429816D01*
X146570751Y-138475693D01*
X146641557Y-138520184D01*
X146650478Y-138525789D01*
X146758533Y-138563599D01*
X146820745Y-138585368D01*
X146820750Y-138585369D01*
X146999996Y-138605565D01*
X147000000Y-138605565D01*
X147000004Y-138605565D01*
X147179249Y-138585369D01*
X147179252Y-138585368D01*
X147179255Y-138585368D01*
X147349522Y-138525789D01*
X147502262Y-138429816D01*
X147629816Y-138302262D01*
X147725789Y-138149522D01*
X147785368Y-137979255D01*
X147792214Y-137918493D01*
X147805565Y-137800003D01*
X147805565Y-137799996D01*
X147785369Y-137620750D01*
X147785368Y-137620745D01*
X147763353Y-137557830D01*
X147725789Y-137450478D01*
X147629816Y-137297738D01*
X147629814Y-137297736D01*
X147629813Y-137297734D01*
X147627550Y-137294896D01*
X147626659Y-137292715D01*
X147626111Y-137291842D01*
X147626264Y-137291745D01*
X147601144Y-137230209D01*
X147600500Y-137217587D01*
X147600500Y-135689060D01*
X147600501Y-135689047D01*
X147600501Y-135520944D01*
X147598650Y-135514035D01*
X147559577Y-135368216D01*
X147528640Y-135314631D01*
X147480524Y-135231290D01*
X147480518Y-135231282D01*
X147121722Y-134872486D01*
X146761700Y-134512465D01*
X146728216Y-134451143D01*
X146731873Y-134400003D01*
X147744435Y-134400003D01*
X147764630Y-134579249D01*
X147764631Y-134579254D01*
X147824211Y-134749523D01*
X147902365Y-134873903D01*
X147920184Y-134902262D01*
X148047738Y-135029816D01*
X148200478Y-135125789D01*
X148370745Y-135185368D01*
X148370750Y-135185369D01*
X148549996Y-135205565D01*
X148550000Y-135205565D01*
X148550004Y-135205565D01*
X148729249Y-135185369D01*
X148729252Y-135185368D01*
X148729255Y-135185368D01*
X148899522Y-135125789D01*
X149052262Y-135029816D01*
X149179816Y-134902262D01*
X149275789Y-134749522D01*
X149335368Y-134579255D01*
X149335801Y-134575413D01*
X149355565Y-134400003D01*
X149355565Y-134399996D01*
X149335369Y-134220750D01*
X149335368Y-134220745D01*
X149306985Y-134139631D01*
X149275789Y-134050478D01*
X149268736Y-134039254D01*
X149206310Y-133939903D01*
X149179816Y-133897738D01*
X149052262Y-133770184D01*
X149022151Y-133751264D01*
X148899523Y-133674211D01*
X148729254Y-133614631D01*
X148729249Y-133614630D01*
X148550004Y-133594435D01*
X148549996Y-133594435D01*
X148370750Y-133614630D01*
X148370745Y-133614631D01*
X148200476Y-133674211D01*
X148047737Y-133770184D01*
X147920184Y-133897737D01*
X147824211Y-134050476D01*
X147764631Y-134220745D01*
X147764630Y-134220750D01*
X147744435Y-134399996D01*
X147744435Y-134400003D01*
X146731873Y-134400003D01*
X146733200Y-134381452D01*
X146775072Y-134325518D01*
X146835498Y-134301565D01*
X146892135Y-134295184D01*
X146979250Y-134285369D01*
X146979253Y-134285368D01*
X146979255Y-134285368D01*
X147149522Y-134225789D01*
X147302262Y-134129816D01*
X147429816Y-134002262D01*
X147525789Y-133849522D01*
X147585368Y-133679255D01*
X147585369Y-133679249D01*
X147605565Y-133500003D01*
X147605565Y-133499996D01*
X147585369Y-133320750D01*
X147585368Y-133320745D01*
X147531208Y-133165965D01*
X147525789Y-133150478D01*
X147516902Y-133136335D01*
X147465441Y-133054435D01*
X147429816Y-132997738D01*
X147302262Y-132870184D01*
X147251834Y-132838498D01*
X147149523Y-132774211D01*
X146973545Y-132712634D01*
X146916769Y-132671912D01*
X146891022Y-132606959D01*
X146890500Y-132595592D01*
X146890500Y-131655003D01*
X147439435Y-131655003D01*
X147459630Y-131834249D01*
X147459631Y-131834254D01*
X147519211Y-132004523D01*
X147595153Y-132125383D01*
X147615184Y-132157262D01*
X147742738Y-132284816D01*
X147814648Y-132330000D01*
X147889444Y-132376998D01*
X147895478Y-132380789D01*
X147992833Y-132414855D01*
X148065745Y-132440368D01*
X148065750Y-132440369D01*
X148244996Y-132460565D01*
X148245000Y-132460565D01*
X148245004Y-132460565D01*
X148424249Y-132440369D01*
X148424252Y-132440368D01*
X148424255Y-132440368D01*
X148594522Y-132380789D01*
X148747262Y-132284816D01*
X148874816Y-132157262D01*
X148970789Y-132004522D01*
X149030368Y-131834255D01*
X149030369Y-131834249D01*
X149050565Y-131655003D01*
X149050565Y-131654996D01*
X149030369Y-131475750D01*
X149030368Y-131475745D01*
X148970788Y-131305476D01*
X148874815Y-131152737D01*
X148747262Y-131025184D01*
X148594523Y-130929211D01*
X148424254Y-130869631D01*
X148424249Y-130869630D01*
X148245004Y-130849435D01*
X148244996Y-130849435D01*
X148065750Y-130869630D01*
X148065745Y-130869631D01*
X147895476Y-130929211D01*
X147742737Y-131025184D01*
X147615184Y-131152737D01*
X147519211Y-131305476D01*
X147459631Y-131475745D01*
X147459630Y-131475750D01*
X147439435Y-131654996D01*
X147439435Y-131655003D01*
X146890500Y-131655003D01*
X146890500Y-128247870D01*
X147259500Y-128247870D01*
X147259501Y-128247876D01*
X147265908Y-128307483D01*
X147316202Y-128442328D01*
X147316206Y-128442335D01*
X147402452Y-128557544D01*
X147402455Y-128557547D01*
X147517664Y-128643793D01*
X147517671Y-128643797D01*
X147652517Y-128694091D01*
X147652516Y-128694091D01*
X147659444Y-128694835D01*
X147712127Y-128700500D01*
X149507872Y-128700499D01*
X149567483Y-128694091D01*
X149702331Y-128643796D01*
X149817546Y-128557546D01*
X149903796Y-128442331D01*
X149954091Y-128307483D01*
X149960500Y-128247873D01*
X149960499Y-127350000D01*
X152334341Y-127350000D01*
X152354936Y-127585403D01*
X152354938Y-127585413D01*
X152416094Y-127813655D01*
X152416096Y-127813659D01*
X152416097Y-127813663D01*
X152464182Y-127916781D01*
X152515965Y-128027830D01*
X152515967Y-128027834D01*
X152595887Y-128141971D01*
X152651505Y-128221401D01*
X152818599Y-128388495D01*
X152915384Y-128456265D01*
X153012165Y-128524032D01*
X153012167Y-128524033D01*
X153012170Y-128524035D01*
X153226337Y-128623903D01*
X153226343Y-128623904D01*
X153226344Y-128623905D01*
X153281285Y-128638626D01*
X153454592Y-128685063D01*
X153631034Y-128700500D01*
X153689999Y-128705659D01*
X153690000Y-128705659D01*
X153690001Y-128705659D01*
X153748966Y-128700500D01*
X153925408Y-128685063D01*
X154153663Y-128623903D01*
X154367830Y-128524035D01*
X154561401Y-128388495D01*
X154728495Y-128221401D01*
X154864035Y-128027830D01*
X154963903Y-127813663D01*
X155025063Y-127585408D01*
X155045659Y-127350000D01*
X155025063Y-127114592D01*
X154963903Y-126886337D01*
X154864035Y-126672171D01*
X154858985Y-126664958D01*
X154728494Y-126478597D01*
X154561402Y-126311506D01*
X154561395Y-126311501D01*
X154367834Y-126175967D01*
X154367830Y-126175965D01*
X154339381Y-126162699D01*
X154153663Y-126076097D01*
X154153659Y-126076096D01*
X154153655Y-126076094D01*
X153925413Y-126014938D01*
X153925403Y-126014936D01*
X153690001Y-125994341D01*
X153689999Y-125994341D01*
X153454596Y-126014936D01*
X153454586Y-126014938D01*
X153226344Y-126076094D01*
X153226335Y-126076098D01*
X153012171Y-126175964D01*
X153012169Y-126175965D01*
X152818597Y-126311505D01*
X152651505Y-126478597D01*
X152515965Y-126672169D01*
X152515964Y-126672171D01*
X152416098Y-126886335D01*
X152416094Y-126886344D01*
X152354938Y-127114586D01*
X152354936Y-127114596D01*
X152334341Y-127349999D01*
X152334341Y-127350000D01*
X149960499Y-127350000D01*
X149960499Y-126452128D01*
X149954358Y-126395000D01*
X149954091Y-126392516D01*
X149903797Y-126257671D01*
X149903793Y-126257664D01*
X149817547Y-126142455D01*
X149817544Y-126142452D01*
X149702335Y-126056206D01*
X149702328Y-126056202D01*
X149567482Y-126005908D01*
X149567483Y-126005908D01*
X149507883Y-125999501D01*
X149507881Y-125999500D01*
X149507873Y-125999500D01*
X149507864Y-125999500D01*
X147712129Y-125999500D01*
X147712123Y-125999501D01*
X147652516Y-126005908D01*
X147517671Y-126056202D01*
X147517664Y-126056206D01*
X147402455Y-126142452D01*
X147402452Y-126142455D01*
X147316206Y-126257664D01*
X147316202Y-126257671D01*
X147265908Y-126392517D01*
X147259501Y-126452116D01*
X147259501Y-126452123D01*
X147259500Y-126452135D01*
X147259500Y-128247870D01*
X146890500Y-128247870D01*
X146890500Y-126182412D01*
X146910185Y-126115373D01*
X146917555Y-126105097D01*
X146919810Y-126102267D01*
X146919816Y-126102262D01*
X147015789Y-125949522D01*
X147075368Y-125779255D01*
X147075369Y-125779249D01*
X147095565Y-125600003D01*
X147095565Y-125599996D01*
X147075369Y-125420750D01*
X147075368Y-125420745D01*
X147052625Y-125355750D01*
X147015789Y-125250478D01*
X147014116Y-125247816D01*
X146970905Y-125179046D01*
X146919816Y-125097738D01*
X146792262Y-124970184D01*
X146639523Y-124874211D01*
X146469254Y-124814631D01*
X146469249Y-124814630D01*
X146290004Y-124794435D01*
X146289996Y-124794435D01*
X146110750Y-124814630D01*
X146110745Y-124814631D01*
X145940476Y-124874211D01*
X145787737Y-124970184D01*
X145660182Y-125097739D01*
X145565882Y-125247816D01*
X145513547Y-125294106D01*
X145444494Y-125304754D01*
X145380646Y-125276379D01*
X145343847Y-125222796D01*
X145330789Y-125185479D01*
X145330789Y-125185478D01*
X145234816Y-125032738D01*
X145107262Y-124905184D01*
X145057969Y-124874211D01*
X144954523Y-124809211D01*
X144784254Y-124749631D01*
X144784249Y-124749630D01*
X144605004Y-124729435D01*
X144604996Y-124729435D01*
X144425750Y-124749630D01*
X144425745Y-124749631D01*
X144255476Y-124809211D01*
X144102737Y-124905184D01*
X143975184Y-125032737D01*
X143879211Y-125185476D01*
X143819631Y-125355745D01*
X143819630Y-125355750D01*
X143799435Y-125534996D01*
X143799435Y-125535003D01*
X142970500Y-125535003D01*
X142970500Y-125523412D01*
X142990185Y-125456373D01*
X143042989Y-125410618D01*
X143053531Y-125406375D01*
X143169522Y-125365789D01*
X143322262Y-125269816D01*
X143449816Y-125142262D01*
X143545789Y-124989522D01*
X143605368Y-124819255D01*
X143608165Y-124794433D01*
X143625565Y-124640003D01*
X143625565Y-124639996D01*
X143605369Y-124460750D01*
X143605368Y-124460745D01*
X143605155Y-124460136D01*
X143545789Y-124290478D01*
X143545188Y-124289522D01*
X143449815Y-124137737D01*
X143322262Y-124010184D01*
X143169523Y-123914211D01*
X142999254Y-123854631D01*
X142999249Y-123854630D01*
X142820004Y-123834435D01*
X142819996Y-123834435D01*
X142640750Y-123854630D01*
X142640745Y-123854631D01*
X142470476Y-123914211D01*
X142317737Y-124010184D01*
X142190184Y-124137737D01*
X142094210Y-124290478D01*
X142034630Y-124460750D01*
X142024837Y-124547668D01*
X141997770Y-124612082D01*
X141989299Y-124621465D01*
X141889478Y-124721286D01*
X141889475Y-124721290D01*
X141847247Y-124794433D01*
X141847247Y-124794435D01*
X141810423Y-124858214D01*
X141810423Y-124858215D01*
X141769499Y-125010943D01*
X141769499Y-125010945D01*
X141769499Y-125179046D01*
X141769500Y-125179059D01*
X141769500Y-127457030D01*
X141749815Y-127524069D01*
X141697011Y-127569824D01*
X141631617Y-127580250D01*
X141580004Y-127574435D01*
X141579996Y-127574435D01*
X141400750Y-127594630D01*
X141400745Y-127594631D01*
X141230476Y-127654211D01*
X141077737Y-127750184D01*
X140950184Y-127877737D01*
X140854211Y-128030476D01*
X140794631Y-128200745D01*
X140794630Y-128200750D01*
X140774435Y-128379996D01*
X140774435Y-128380003D01*
X138260500Y-128380003D01*
X138260500Y-121252412D01*
X138280185Y-121185373D01*
X138287555Y-121175097D01*
X138289810Y-121172267D01*
X138289816Y-121172262D01*
X138385789Y-121019522D01*
X138445368Y-120849255D01*
X138453688Y-120775413D01*
X138465565Y-120670003D01*
X138465565Y-120669996D01*
X138450918Y-120540000D01*
X139044341Y-120540000D01*
X139064936Y-120775403D01*
X139064938Y-120775413D01*
X139126094Y-121003655D01*
X139126096Y-121003659D01*
X139126097Y-121003663D01*
X139205420Y-121173772D01*
X139225965Y-121217830D01*
X139225967Y-121217834D01*
X139314341Y-121344044D01*
X139361505Y-121411401D01*
X139528599Y-121578495D01*
X139592807Y-121623454D01*
X139722165Y-121714032D01*
X139722167Y-121714033D01*
X139722170Y-121714035D01*
X139936337Y-121813903D01*
X140164592Y-121875063D01*
X140352918Y-121891539D01*
X140399999Y-121895659D01*
X140400000Y-121895659D01*
X140400001Y-121895659D01*
X140439234Y-121892226D01*
X140635408Y-121875063D01*
X140863663Y-121813903D01*
X141077830Y-121714035D01*
X141271401Y-121578495D01*
X141438495Y-121411401D01*
X141574035Y-121217830D01*
X141673903Y-121003663D01*
X141735063Y-120775408D01*
X141755659Y-120540000D01*
X141749097Y-120465000D01*
X143344341Y-120465000D01*
X143364936Y-120700403D01*
X143364938Y-120700413D01*
X143426094Y-120928655D01*
X143426096Y-120928659D01*
X143426097Y-120928663D01*
X143474087Y-121031578D01*
X143525965Y-121142830D01*
X143525967Y-121142834D01*
X143590853Y-121235500D01*
X143661505Y-121336401D01*
X143828599Y-121503495D01*
X143884421Y-121542582D01*
X144022165Y-121639032D01*
X144022167Y-121639033D01*
X144022170Y-121639035D01*
X144236337Y-121738903D01*
X144464592Y-121800063D01*
X144652918Y-121816539D01*
X144699999Y-121820659D01*
X144700000Y-121820659D01*
X144700001Y-121820659D01*
X144739234Y-121817226D01*
X144935408Y-121800063D01*
X145163663Y-121738903D01*
X145377830Y-121639035D01*
X145571401Y-121503495D01*
X145738495Y-121336401D01*
X145874035Y-121142830D01*
X145973903Y-120928663D01*
X146035063Y-120700408D01*
X146055659Y-120465000D01*
X146035063Y-120229592D01*
X145980968Y-120027705D01*
X145973905Y-120001344D01*
X145973904Y-120001343D01*
X145973903Y-120001337D01*
X145874035Y-119787171D01*
X145871963Y-119784211D01*
X145738494Y-119593597D01*
X145571402Y-119426506D01*
X145571395Y-119426501D01*
X145569778Y-119425369D01*
X145484690Y-119365789D01*
X145377834Y-119290967D01*
X145377830Y-119290965D01*
X145332474Y-119269815D01*
X145163663Y-119191097D01*
X145163659Y-119191096D01*
X145163655Y-119191094D01*
X144935413Y-119129938D01*
X144935403Y-119129936D01*
X144700001Y-119109341D01*
X144699999Y-119109341D01*
X144464596Y-119129936D01*
X144464586Y-119129938D01*
X144236344Y-119191094D01*
X144236335Y-119191098D01*
X144022171Y-119290964D01*
X144022169Y-119290965D01*
X143828597Y-119426505D01*
X143661505Y-119593597D01*
X143525965Y-119787169D01*
X143525964Y-119787171D01*
X143426098Y-120001335D01*
X143426094Y-120001344D01*
X143364938Y-120229586D01*
X143364936Y-120229596D01*
X143344341Y-120464999D01*
X143344341Y-120465000D01*
X141749097Y-120465000D01*
X141735063Y-120304592D01*
X141673903Y-120076337D01*
X141574035Y-119862171D01*
X141557990Y-119839255D01*
X141438494Y-119668597D01*
X141271402Y-119501506D01*
X141271395Y-119501501D01*
X141254287Y-119489522D01*
X141232521Y-119474281D01*
X141077834Y-119365967D01*
X141077830Y-119365965D01*
X140977658Y-119319254D01*
X140863663Y-119266097D01*
X140863659Y-119266096D01*
X140863655Y-119266094D01*
X140635413Y-119204938D01*
X140635403Y-119204936D01*
X140400001Y-119184341D01*
X140399999Y-119184341D01*
X140164596Y-119204936D01*
X140164586Y-119204938D01*
X139936344Y-119266094D01*
X139936335Y-119266098D01*
X139722171Y-119365964D01*
X139722169Y-119365965D01*
X139528597Y-119501505D01*
X139361505Y-119668597D01*
X139225965Y-119862169D01*
X139225964Y-119862171D01*
X139126098Y-120076335D01*
X139126094Y-120076344D01*
X139064938Y-120304586D01*
X139064936Y-120304596D01*
X139044341Y-120539999D01*
X139044341Y-120540000D01*
X138450918Y-120540000D01*
X138445369Y-120490750D01*
X138445366Y-120490737D01*
X138389383Y-120330750D01*
X138385789Y-120320478D01*
X138374361Y-120302292D01*
X138355362Y-120235059D01*
X138375729Y-120168224D01*
X138378282Y-120164702D01*
X138379813Y-120162264D01*
X138379816Y-120162262D01*
X138475789Y-120009522D01*
X138535368Y-119839255D01*
X138537433Y-119820927D01*
X138555565Y-119660003D01*
X138555565Y-119659996D01*
X138535369Y-119480750D01*
X138535368Y-119480745D01*
X138475788Y-119310476D01*
X138396145Y-119183726D01*
X138379816Y-119157738D01*
X138252262Y-119030184D01*
X138209298Y-119003188D01*
X138099523Y-118934211D01*
X137929254Y-118874631D01*
X137929249Y-118874630D01*
X137750004Y-118854435D01*
X137749996Y-118854435D01*
X137570750Y-118874630D01*
X137570745Y-118874631D01*
X137400476Y-118934211D01*
X137247737Y-119030184D01*
X137120184Y-119157737D01*
X137024211Y-119310476D01*
X136964631Y-119480745D01*
X136964630Y-119480750D01*
X136944435Y-119659996D01*
X136944435Y-119660003D01*
X136964630Y-119839249D01*
X136964631Y-119839254D01*
X137024211Y-120009522D01*
X137035636Y-120027705D01*
X137054637Y-120094941D01*
X137034270Y-120161776D01*
X137031717Y-120165298D01*
X136934210Y-120320478D01*
X136906449Y-120399816D01*
X136874632Y-120490745D01*
X136874631Y-120490747D01*
X136872333Y-120497317D01*
X136869526Y-120496334D01*
X136841815Y-120545759D01*
X136780120Y-120578554D01*
X136769006Y-120580320D01*
X136730750Y-120584630D01*
X136560478Y-120644210D01*
X136407737Y-120740184D01*
X136402295Y-120744525D01*
X136400413Y-120742166D01*
X136350858Y-120769226D01*
X136281166Y-120764242D01*
X136225233Y-120722370D01*
X136200816Y-120656906D01*
X136200500Y-120648060D01*
X136200500Y-117482412D01*
X136220185Y-117415373D01*
X136227555Y-117405097D01*
X136229810Y-117402267D01*
X136229816Y-117402262D01*
X136325789Y-117249522D01*
X136385368Y-117079255D01*
X136397933Y-116967737D01*
X136405565Y-116900003D01*
X136405565Y-116899996D01*
X136385369Y-116720750D01*
X136385368Y-116720745D01*
X136381897Y-116710826D01*
X136325789Y-116550478D01*
X136229816Y-116397738D01*
X136102262Y-116270184D01*
X135949523Y-116174211D01*
X135779254Y-116114631D01*
X135779249Y-116114630D01*
X135600004Y-116094435D01*
X135599996Y-116094435D01*
X135420750Y-116114630D01*
X135420745Y-116114631D01*
X135250476Y-116174211D01*
X135097737Y-116270184D01*
X134970184Y-116397737D01*
X134874211Y-116550476D01*
X134814631Y-116720745D01*
X134814630Y-116720750D01*
X134794435Y-116899996D01*
X134794435Y-116900003D01*
X130882081Y-116900003D01*
X130782262Y-116800184D01*
X130655844Y-116720750D01*
X130629523Y-116704211D01*
X130459254Y-116644631D01*
X130459249Y-116644630D01*
X130280004Y-116624435D01*
X130279996Y-116624435D01*
X130100750Y-116644630D01*
X130100745Y-116644631D01*
X129930476Y-116704211D01*
X129777739Y-116800183D01*
X129666540Y-116911382D01*
X129605217Y-116944866D01*
X129535525Y-116939882D01*
X129479592Y-116898010D01*
X129473865Y-116889672D01*
X129470574Y-116884435D01*
X129409816Y-116787738D01*
X129282262Y-116660184D01*
X129225368Y-116624435D01*
X129129523Y-116564211D01*
X128959254Y-116504631D01*
X128959249Y-116504630D01*
X128780004Y-116484435D01*
X128779996Y-116484435D01*
X128600750Y-116504630D01*
X128600745Y-116504631D01*
X128430476Y-116564211D01*
X128277737Y-116660184D01*
X128150184Y-116787737D01*
X128054211Y-116940476D01*
X127994631Y-117110745D01*
X127994630Y-117110750D01*
X127974435Y-117289996D01*
X127974435Y-117290003D01*
X127673810Y-117290003D01*
X127682476Y-117213092D01*
X127682476Y-117213085D01*
X127662280Y-117033839D01*
X127662279Y-117033834D01*
X127651032Y-117001693D01*
X127602700Y-116863567D01*
X127588007Y-116840184D01*
X127552978Y-116784435D01*
X127506727Y-116710827D01*
X127379173Y-116583273D01*
X127326977Y-116550476D01*
X127226434Y-116487300D01*
X127056165Y-116427720D01*
X127056160Y-116427719D01*
X126876915Y-116407524D01*
X126876907Y-116407524D01*
X126697661Y-116427719D01*
X126697656Y-116427720D01*
X126527387Y-116487300D01*
X126374648Y-116583273D01*
X126247095Y-116710826D01*
X126151120Y-116863569D01*
X126126956Y-116932626D01*
X126086235Y-116989402D01*
X126021282Y-117015149D01*
X125952720Y-117001693D01*
X125902318Y-116953305D01*
X125898195Y-116945474D01*
X125895788Y-116940476D01*
X125810431Y-116804632D01*
X125799816Y-116787738D01*
X125672262Y-116660184D01*
X125615368Y-116624435D01*
X125519523Y-116564211D01*
X125349254Y-116504631D01*
X125349249Y-116504630D01*
X125170004Y-116484435D01*
X125169996Y-116484435D01*
X124990750Y-116504630D01*
X124990745Y-116504631D01*
X124820476Y-116564211D01*
X124667737Y-116660184D01*
X124540184Y-116787737D01*
X124444211Y-116940476D01*
X124384631Y-117110745D01*
X124384630Y-117110750D01*
X124364435Y-117289996D01*
X124364435Y-117290003D01*
X124035108Y-117290003D01*
X124008195Y-117213089D01*
X123975789Y-117120478D01*
X123969676Y-117110750D01*
X123879815Y-116967737D01*
X123752262Y-116840184D01*
X123599523Y-116744211D01*
X123429254Y-116684631D01*
X123429249Y-116684630D01*
X123250004Y-116664435D01*
X123249996Y-116664435D01*
X123070750Y-116684630D01*
X123070745Y-116684631D01*
X122900476Y-116744211D01*
X122747737Y-116840184D01*
X122620184Y-116967737D01*
X122524211Y-117120476D01*
X122464631Y-117290745D01*
X122464630Y-117290750D01*
X122444435Y-117469996D01*
X122444435Y-117470003D01*
X122464630Y-117649246D01*
X122464632Y-117649257D01*
X122465867Y-117652785D01*
X122465990Y-117655204D01*
X122466181Y-117656039D01*
X122466034Y-117656072D01*
X122469426Y-117722564D01*
X122442515Y-117770692D01*
X122444525Y-117772295D01*
X122440184Y-117777738D01*
X122344211Y-117930476D01*
X122284631Y-118100745D01*
X122284630Y-118100750D01*
X122264435Y-118279996D01*
X122264435Y-118280003D01*
X120686475Y-118280003D01*
X120782262Y-118219816D01*
X120909816Y-118092262D01*
X121005789Y-117939522D01*
X121065368Y-117769255D01*
X121065369Y-117769249D01*
X121085565Y-117590003D01*
X121085565Y-117589996D01*
X121065369Y-117410750D01*
X121065368Y-117410745D01*
X121049085Y-117364211D01*
X121005789Y-117240478D01*
X120909816Y-117087738D01*
X120782262Y-116960184D01*
X120730623Y-116927737D01*
X120629523Y-116864211D01*
X120459254Y-116804631D01*
X120459249Y-116804630D01*
X120280004Y-116784435D01*
X120279996Y-116784435D01*
X120100750Y-116804630D01*
X120100745Y-116804631D01*
X119930476Y-116864211D01*
X119777737Y-116960184D01*
X119650184Y-117087737D01*
X119554211Y-117240476D01*
X119494631Y-117410745D01*
X119494630Y-117410750D01*
X119474435Y-117589996D01*
X119474435Y-117590003D01*
X114434299Y-117590003D01*
X114425369Y-117510750D01*
X114425368Y-117510745D01*
X114388400Y-117405097D01*
X114365789Y-117340478D01*
X114359955Y-117331194D01*
X114302955Y-117240478D01*
X114269816Y-117187738D01*
X114142262Y-117060184D01*
X114100334Y-117033839D01*
X113989523Y-116964211D01*
X113819254Y-116904631D01*
X113819249Y-116904630D01*
X113640004Y-116884435D01*
X113639996Y-116884435D01*
X113460750Y-116904630D01*
X113460745Y-116904631D01*
X113290476Y-116964211D01*
X113137737Y-117060184D01*
X113010182Y-117187739D01*
X112920043Y-117331194D01*
X112867708Y-117377484D01*
X112798655Y-117388132D01*
X112749079Y-117370215D01*
X112739525Y-117364212D01*
X112569254Y-117304631D01*
X112569249Y-117304630D01*
X112390004Y-117284435D01*
X112389996Y-117284435D01*
X112210750Y-117304630D01*
X112210745Y-117304631D01*
X112040476Y-117364211D01*
X111887737Y-117460184D01*
X111760184Y-117587737D01*
X111664211Y-117740476D01*
X111604631Y-117910745D01*
X111604630Y-117910750D01*
X111584435Y-118089996D01*
X111584435Y-118090003D01*
X111604630Y-118269249D01*
X111604631Y-118269254D01*
X111664211Y-118439523D01*
X111760184Y-118592262D01*
X111870571Y-118702649D01*
X111904056Y-118763972D01*
X111899932Y-118831285D01*
X111854631Y-118960745D01*
X111854630Y-118960749D01*
X111849215Y-119008817D01*
X111822148Y-119073231D01*
X111764554Y-119112786D01*
X111694717Y-119114923D01*
X111660023Y-119099927D01*
X111539523Y-119024211D01*
X111369254Y-118964631D01*
X111369249Y-118964630D01*
X111190004Y-118944435D01*
X111189996Y-118944435D01*
X111010750Y-118964630D01*
X111010745Y-118964631D01*
X110840476Y-119024211D01*
X110687737Y-119120184D01*
X110657681Y-119150241D01*
X110596358Y-119183726D01*
X110526666Y-119178742D01*
X110482319Y-119150241D01*
X110452262Y-119120184D01*
X110299523Y-119024211D01*
X110129254Y-118964631D01*
X110129249Y-118964630D01*
X109950004Y-118944435D01*
X109949996Y-118944435D01*
X109770750Y-118964630D01*
X109770745Y-118964631D01*
X109600476Y-119024211D01*
X109447737Y-119120184D01*
X109320184Y-119247737D01*
X109224211Y-119400476D01*
X109164631Y-119570745D01*
X109164630Y-119570750D01*
X109144435Y-119749996D01*
X109144435Y-119750003D01*
X109164630Y-119929249D01*
X109164631Y-119929254D01*
X109224211Y-120099523D01*
X109277988Y-120185107D01*
X109307652Y-120232318D01*
X109320185Y-120252263D01*
X109322445Y-120255097D01*
X109323334Y-120257275D01*
X109323889Y-120258158D01*
X109323734Y-120258255D01*
X109348855Y-120319783D01*
X109349500Y-120332412D01*
X109349500Y-127447060D01*
X109329815Y-127514099D01*
X109313181Y-127534741D01*
X109280184Y-127567737D01*
X109184211Y-127720476D01*
X109124631Y-127890745D01*
X109124630Y-127890750D01*
X109104435Y-128069996D01*
X109104435Y-128070003D01*
X98477565Y-128070003D01*
X98473905Y-128056344D01*
X98473904Y-128056343D01*
X98473903Y-128056337D01*
X98374035Y-127842171D01*
X98354075Y-127813664D01*
X98238494Y-127648597D01*
X98071402Y-127481506D01*
X98071395Y-127481501D01*
X97877834Y-127345967D01*
X97877830Y-127345965D01*
X97877828Y-127345964D01*
X97663663Y-127246097D01*
X97663659Y-127246096D01*
X97663655Y-127246094D01*
X97435413Y-127184938D01*
X97435403Y-127184936D01*
X97200001Y-127164341D01*
X97199999Y-127164341D01*
X96964596Y-127184936D01*
X96964586Y-127184938D01*
X96736344Y-127246094D01*
X96736335Y-127246098D01*
X96522171Y-127345964D01*
X96522169Y-127345965D01*
X96328597Y-127481505D01*
X96161505Y-127648597D01*
X96025965Y-127842169D01*
X96025964Y-127842171D01*
X95926098Y-128056335D01*
X95926094Y-128056344D01*
X95864938Y-128284586D01*
X95864936Y-128284596D01*
X95844341Y-128519999D01*
X95844341Y-128520000D01*
X95864936Y-128755403D01*
X95864938Y-128755413D01*
X95926094Y-128983655D01*
X95926096Y-128983659D01*
X95926097Y-128983663D01*
X96009156Y-129161783D01*
X96025965Y-129197830D01*
X96025967Y-129197834D01*
X96107749Y-129314630D01*
X96149468Y-129374211D01*
X96161501Y-129391395D01*
X96161506Y-129391402D01*
X96328597Y-129558493D01*
X96328603Y-129558498D01*
X96514158Y-129688425D01*
X96557783Y-129743002D01*
X96564977Y-129812500D01*
X96533454Y-129874855D01*
X96514158Y-129891575D01*
X96328597Y-130021505D01*
X96161505Y-130188597D01*
X96025965Y-130382169D01*
X96025964Y-130382171D01*
X95926098Y-130596335D01*
X95926094Y-130596344D01*
X95864938Y-130824586D01*
X95864936Y-130824596D01*
X95844341Y-131059999D01*
X95844341Y-131060000D01*
X95864936Y-131295403D01*
X95864938Y-131295413D01*
X95926094Y-131523655D01*
X95926096Y-131523659D01*
X95926097Y-131523663D01*
X95987339Y-131654996D01*
X96025965Y-131737830D01*
X96025967Y-131737834D01*
X96094391Y-131835553D01*
X96161504Y-131931400D01*
X96161506Y-131931402D01*
X96328597Y-132098493D01*
X96328603Y-132098498D01*
X96514158Y-132228425D01*
X96557783Y-132283002D01*
X96564977Y-132352500D01*
X96533454Y-132414855D01*
X96514158Y-132431575D01*
X96328597Y-132561505D01*
X96161505Y-132728597D01*
X96025965Y-132922169D01*
X96025964Y-132922171D01*
X95926098Y-133136335D01*
X95926094Y-133136344D01*
X95864938Y-133364586D01*
X95864936Y-133364596D01*
X95844341Y-133599999D01*
X95844341Y-133600000D01*
X95864936Y-133835403D01*
X95864938Y-133835413D01*
X95926094Y-134063655D01*
X95926096Y-134063659D01*
X95926097Y-134063663D01*
X95994113Y-134209523D01*
X96025965Y-134277830D01*
X96025967Y-134277834D01*
X96123929Y-134417737D01*
X96161505Y-134471401D01*
X96328599Y-134638495D01*
X96358566Y-134659478D01*
X96522165Y-134774032D01*
X96522167Y-134774033D01*
X96522170Y-134774035D01*
X96736337Y-134873903D01*
X96964592Y-134935063D01*
X97152918Y-134951539D01*
X97199999Y-134955659D01*
X97200000Y-134955659D01*
X97200001Y-134955659D01*
X97239234Y-134952226D01*
X97435408Y-134935063D01*
X97663663Y-134873903D01*
X97877830Y-134774035D01*
X98071401Y-134638495D01*
X98238495Y-134471401D01*
X98374035Y-134277830D01*
X98473903Y-134063663D01*
X98535063Y-133835408D01*
X98555659Y-133600000D01*
X98535063Y-133364592D01*
X98477692Y-133150478D01*
X98473905Y-133136344D01*
X98473904Y-133136343D01*
X98473903Y-133136337D01*
X98374035Y-132922171D01*
X98337634Y-132870184D01*
X98238494Y-132728597D01*
X98071402Y-132561506D01*
X98071396Y-132561501D01*
X97885842Y-132431575D01*
X97842217Y-132376998D01*
X97835023Y-132307500D01*
X97866546Y-132245145D01*
X97885842Y-132228425D01*
X97987473Y-132157262D01*
X98071401Y-132098495D01*
X98232294Y-131937602D01*
X98293617Y-131904117D01*
X98363309Y-131909101D01*
X98407656Y-131937602D01*
X101303181Y-134833127D01*
X101336666Y-134894450D01*
X101339500Y-134920808D01*
X101339500Y-138044931D01*
X101320494Y-138110903D01*
X101264211Y-138200477D01*
X101264209Y-138200481D01*
X101204633Y-138370737D01*
X101204630Y-138370750D01*
X101184435Y-138549996D01*
X101184435Y-138550003D01*
X101204630Y-138729249D01*
X101204631Y-138729254D01*
X101264211Y-138899523D01*
X101351310Y-139038139D01*
X101360184Y-139052262D01*
X101487738Y-139179816D01*
X101578080Y-139236582D01*
X101616110Y-139260478D01*
X101640478Y-139275789D01*
X101810745Y-139335368D01*
X101810750Y-139335369D01*
X101989996Y-139355565D01*
X101990000Y-139355565D01*
X101990004Y-139355565D01*
X102169249Y-139335369D01*
X102169252Y-139335368D01*
X102169255Y-139335368D01*
X102339522Y-139275789D01*
X102492262Y-139179816D01*
X102619816Y-139052262D01*
X102715789Y-138899522D01*
X102775368Y-138729255D01*
X102775369Y-138729249D01*
X102795565Y-138550003D01*
X102795565Y-138549996D01*
X102775369Y-138370750D01*
X102775366Y-138370737D01*
X102715790Y-138200481D01*
X102715789Y-138200478D01*
X102669934Y-138127500D01*
X102659506Y-138110903D01*
X102640500Y-138044931D01*
X102640500Y-135179808D01*
X102660185Y-135112769D01*
X102712989Y-135067014D01*
X102782147Y-135057070D01*
X102845703Y-135086095D01*
X102852181Y-135092127D01*
X104433181Y-136673127D01*
X104466666Y-136734450D01*
X104469500Y-136760808D01*
X104469500Y-137214931D01*
X104450494Y-137280903D01*
X104394211Y-137370477D01*
X104394209Y-137370481D01*
X104334633Y-137540737D01*
X104334630Y-137540750D01*
X104314435Y-137719996D01*
X104314435Y-137720003D01*
X104334630Y-137899249D01*
X104334631Y-137899254D01*
X104394211Y-138069523D01*
X104490184Y-138222262D01*
X104622662Y-138354740D01*
X104621438Y-138355963D01*
X104656485Y-138405882D01*
X104659342Y-138475693D01*
X104626717Y-138533335D01*
X102906873Y-140253181D01*
X102845550Y-140286666D01*
X102819192Y-140289500D01*
X98457721Y-140289500D01*
X98390682Y-140269815D01*
X98356146Y-140236623D01*
X98238494Y-140068597D01*
X98071402Y-139901506D01*
X98071395Y-139901501D01*
X98045908Y-139883655D01*
X98032521Y-139874281D01*
X97877834Y-139765967D01*
X97877830Y-139765965D01*
X97826999Y-139742262D01*
X97663663Y-139666097D01*
X97663659Y-139666096D01*
X97663655Y-139666094D01*
X97435413Y-139604938D01*
X97435403Y-139604936D01*
X97200001Y-139584341D01*
X97199999Y-139584341D01*
X96964596Y-139604936D01*
X96964586Y-139604938D01*
X96736344Y-139666094D01*
X96736335Y-139666098D01*
X96522171Y-139765964D01*
X96522169Y-139765965D01*
X96328597Y-139901505D01*
X96161505Y-140068597D01*
X96025965Y-140262169D01*
X96025964Y-140262171D01*
X95926098Y-140476335D01*
X95926094Y-140476344D01*
X95864938Y-140704586D01*
X95864936Y-140704596D01*
X95844341Y-140939999D01*
X95844341Y-140940000D01*
X95864936Y-141175403D01*
X95864938Y-141175413D01*
X95926094Y-141403655D01*
X95926096Y-141403659D01*
X95926097Y-141403663D01*
X95979075Y-141517274D01*
X96025965Y-141617830D01*
X96025967Y-141617834D01*
X96161501Y-141811395D01*
X96161506Y-141811402D01*
X96328597Y-141978493D01*
X96328603Y-141978498D01*
X96514158Y-142108425D01*
X96557783Y-142163002D01*
X96564977Y-142232500D01*
X96533454Y-142294855D01*
X96514158Y-142311575D01*
X96328597Y-142441505D01*
X96161505Y-142608597D01*
X96025965Y-142802169D01*
X96025964Y-142802171D01*
X95926098Y-143016335D01*
X95926094Y-143016344D01*
X95864938Y-143244586D01*
X95864936Y-143244596D01*
X95844341Y-143479999D01*
X95844341Y-143480000D01*
X95864936Y-143715403D01*
X95864938Y-143715413D01*
X95926094Y-143943655D01*
X95926096Y-143943659D01*
X95926097Y-143943663D01*
X96003663Y-144110003D01*
X96025965Y-144157830D01*
X96025967Y-144157834D01*
X96161501Y-144351395D01*
X96161506Y-144351402D01*
X96328597Y-144518493D01*
X96328603Y-144518498D01*
X96514158Y-144648425D01*
X96557783Y-144703002D01*
X96564977Y-144772500D01*
X96533454Y-144834855D01*
X96514158Y-144851575D01*
X96328597Y-144981505D01*
X96161505Y-145148597D01*
X96025965Y-145342169D01*
X96025964Y-145342171D01*
X95926098Y-145556335D01*
X95926094Y-145556344D01*
X95864938Y-145784586D01*
X95864936Y-145784596D01*
X95844341Y-146019999D01*
X95844341Y-146020000D01*
X94500500Y-146020000D01*
X94500500Y-120258676D01*
X94520185Y-120191637D01*
X94536819Y-120170995D01*
X100457811Y-114250003D01*
X114494435Y-114250003D01*
X114514630Y-114429249D01*
X114514631Y-114429254D01*
X114574211Y-114599523D01*
X114670184Y-114752262D01*
X114797738Y-114879816D01*
X114950478Y-114975789D01*
X115120745Y-115035368D01*
X115120750Y-115035369D01*
X115299996Y-115055565D01*
X115300000Y-115055565D01*
X115300004Y-115055565D01*
X115479249Y-115035369D01*
X115479252Y-115035368D01*
X115479255Y-115035368D01*
X115649522Y-114975789D01*
X115802262Y-114879816D01*
X115929816Y-114752262D01*
X116025789Y-114599522D01*
X116085368Y-114429255D01*
X116085369Y-114429249D01*
X116105565Y-114250003D01*
X116105565Y-114249996D01*
X116085369Y-114070750D01*
X116085368Y-114070745D01*
X116025788Y-113900476D01*
X115929815Y-113747737D01*
X115851346Y-113669268D01*
X123363700Y-113669268D01*
X123383895Y-113848514D01*
X123383896Y-113848519D01*
X123443476Y-114018788D01*
X123539449Y-114171527D01*
X123667003Y-114299081D01*
X123819743Y-114395054D01*
X123917467Y-114429249D01*
X123990010Y-114454633D01*
X123990015Y-114454634D01*
X124169261Y-114474830D01*
X124169265Y-114474830D01*
X124169269Y-114474830D01*
X124348514Y-114454634D01*
X124348517Y-114454633D01*
X124348520Y-114454633D01*
X124518787Y-114395054D01*
X124671527Y-114299081D01*
X124799081Y-114171527D01*
X124895054Y-114018787D01*
X124954633Y-113848520D01*
X124954634Y-113848514D01*
X124974830Y-113669268D01*
X124974830Y-113669261D01*
X124954634Y-113490015D01*
X124954633Y-113490010D01*
X124945753Y-113464632D01*
X124895054Y-113319743D01*
X124799081Y-113167003D01*
X124799079Y-113167001D01*
X124799078Y-113166999D01*
X124796815Y-113164161D01*
X124795924Y-113161980D01*
X124795376Y-113161107D01*
X124795529Y-113161010D01*
X124770409Y-113099474D01*
X124769765Y-113086852D01*
X124769765Y-112120832D01*
X124789450Y-112053793D01*
X124806084Y-112033151D01*
X125522416Y-111316819D01*
X125583739Y-111283334D01*
X125610097Y-111280500D01*
X126117588Y-111280500D01*
X126184627Y-111300185D01*
X126194903Y-111307555D01*
X126197736Y-111309814D01*
X126197738Y-111309816D01*
X126350478Y-111405789D01*
X126406809Y-111425500D01*
X126520745Y-111465368D01*
X126520750Y-111465369D01*
X126699996Y-111485565D01*
X126700000Y-111485565D01*
X126700004Y-111485565D01*
X126879249Y-111465369D01*
X126879252Y-111465368D01*
X126879255Y-111465368D01*
X127049522Y-111405789D01*
X127202262Y-111309816D01*
X127329816Y-111182262D01*
X127425789Y-111029522D01*
X127462095Y-110925765D01*
X127834500Y-110925765D01*
X127873719Y-111072136D01*
X127911602Y-111137750D01*
X127949485Y-111203365D01*
X128056635Y-111310515D01*
X128187865Y-111386281D01*
X128334234Y-111425500D01*
X128334236Y-111425500D01*
X128485764Y-111425500D01*
X128485766Y-111425500D01*
X128632135Y-111386281D01*
X128763365Y-111310515D01*
X128870515Y-111203365D01*
X128946281Y-111072135D01*
X128985500Y-110925766D01*
X128985500Y-110774234D01*
X128946281Y-110627865D01*
X128870515Y-110496635D01*
X128763365Y-110389485D01*
X128697750Y-110351602D01*
X128632136Y-110313719D01*
X128558950Y-110294109D01*
X128485766Y-110274500D01*
X128334234Y-110274500D01*
X128187863Y-110313719D01*
X128056635Y-110389485D01*
X128056632Y-110389487D01*
X127949487Y-110496632D01*
X127949485Y-110496635D01*
X127873719Y-110627863D01*
X127834500Y-110774234D01*
X127834500Y-110925765D01*
X127462095Y-110925765D01*
X127485368Y-110859255D01*
X127485369Y-110859249D01*
X127505565Y-110680003D01*
X127505565Y-110679996D01*
X127485369Y-110500750D01*
X127485368Y-110500745D01*
X127425788Y-110330476D01*
X127329815Y-110177737D01*
X127299324Y-110147246D01*
X127265839Y-110085923D01*
X127270823Y-110016231D01*
X127312695Y-109960298D01*
X127378159Y-109935881D01*
X127387005Y-109935565D01*
X127390004Y-109935565D01*
X127569249Y-109915369D01*
X127569252Y-109915368D01*
X127569255Y-109915368D01*
X127739522Y-109855789D01*
X127892262Y-109759816D01*
X128019816Y-109632262D01*
X128115789Y-109479522D01*
X128175368Y-109309255D01*
X128176495Y-109299254D01*
X128195565Y-109130003D01*
X128195565Y-109129996D01*
X128175369Y-108950750D01*
X128175368Y-108950745D01*
X128115788Y-108780476D01*
X128019815Y-108627737D01*
X127892262Y-108500184D01*
X127739523Y-108404211D01*
X127569254Y-108344631D01*
X127569249Y-108344630D01*
X127390004Y-108324435D01*
X127389996Y-108324435D01*
X127210750Y-108344630D01*
X127210745Y-108344631D01*
X127040476Y-108404211D01*
X126887737Y-108500184D01*
X126760184Y-108627737D01*
X126664211Y-108780476D01*
X126604631Y-108950745D01*
X126604630Y-108950750D01*
X126584435Y-109129996D01*
X126584435Y-109130003D01*
X126604630Y-109309249D01*
X126604631Y-109309254D01*
X126664211Y-109479523D01*
X126760184Y-109632262D01*
X126790676Y-109662754D01*
X126824161Y-109724077D01*
X126819177Y-109793769D01*
X126777305Y-109849702D01*
X126711841Y-109874119D01*
X126702995Y-109874435D01*
X126699996Y-109874435D01*
X126520750Y-109894630D01*
X126520745Y-109894631D01*
X126350476Y-109954211D01*
X126197736Y-110050185D01*
X126194903Y-110052445D01*
X126192724Y-110053334D01*
X126191842Y-110053889D01*
X126191744Y-110053734D01*
X126130217Y-110078855D01*
X126117588Y-110079500D01*
X125396669Y-110079500D01*
X125396653Y-110079499D01*
X125389057Y-110079499D01*
X125230943Y-110079499D01*
X125123587Y-110108265D01*
X125078210Y-110120424D01*
X125078209Y-110120425D01*
X125043066Y-110140716D01*
X125043064Y-110140717D01*
X124941290Y-110199475D01*
X124941282Y-110199481D01*
X123688746Y-111452017D01*
X123688744Y-111452020D01*
X123638626Y-111538829D01*
X123638624Y-111538831D01*
X123609690Y-111588944D01*
X123609689Y-111588945D01*
X123609688Y-111588950D01*
X123568764Y-111741678D01*
X123568764Y-111741680D01*
X123568764Y-111909781D01*
X123568765Y-111909794D01*
X123568765Y-113086852D01*
X123549080Y-113153891D01*
X123541715Y-113164161D01*
X123539451Y-113166999D01*
X123443476Y-113319741D01*
X123383896Y-113490010D01*
X123383895Y-113490015D01*
X123363700Y-113669261D01*
X123363700Y-113669268D01*
X115851346Y-113669268D01*
X115802262Y-113620184D01*
X115649523Y-113524211D01*
X115479254Y-113464631D01*
X115479249Y-113464630D01*
X115300004Y-113444435D01*
X115299996Y-113444435D01*
X115120750Y-113464630D01*
X115120745Y-113464631D01*
X114950476Y-113524211D01*
X114797737Y-113620184D01*
X114670184Y-113747737D01*
X114574211Y-113900476D01*
X114514631Y-114070745D01*
X114514630Y-114070750D01*
X114494435Y-114249996D01*
X114494435Y-114250003D01*
X100457811Y-114250003D01*
X102047811Y-112660003D01*
X116464435Y-112660003D01*
X116484630Y-112839249D01*
X116484631Y-112839254D01*
X116544211Y-113009523D01*
X116624742Y-113137687D01*
X116640184Y-113162262D01*
X116767738Y-113289816D01*
X116920478Y-113385789D01*
X117088079Y-113444435D01*
X117090745Y-113445368D01*
X117090750Y-113445369D01*
X117269996Y-113465565D01*
X117270000Y-113465565D01*
X117270004Y-113465565D01*
X117449249Y-113445369D01*
X117449252Y-113445368D01*
X117449255Y-113445368D01*
X117619522Y-113385789D01*
X117772262Y-113289816D01*
X117899816Y-113162262D01*
X117995789Y-113009522D01*
X118055368Y-112839255D01*
X118075565Y-112660000D01*
X118055368Y-112480745D01*
X117995789Y-112310478D01*
X117899816Y-112157738D01*
X117772262Y-112030184D01*
X117619523Y-111934211D01*
X117449254Y-111874631D01*
X117449249Y-111874630D01*
X117270004Y-111854435D01*
X117269996Y-111854435D01*
X117090750Y-111874630D01*
X117090745Y-111874631D01*
X116920476Y-111934211D01*
X116767737Y-112030184D01*
X116640184Y-112157737D01*
X116544211Y-112310476D01*
X116484631Y-112480745D01*
X116484630Y-112480750D01*
X116464435Y-112659996D01*
X116464435Y-112660003D01*
X102047811Y-112660003D01*
X103782049Y-110925765D01*
X122054500Y-110925765D01*
X122093719Y-111072136D01*
X122131602Y-111137750D01*
X122169485Y-111203365D01*
X122276635Y-111310515D01*
X122407865Y-111386281D01*
X122554234Y-111425500D01*
X122554236Y-111425500D01*
X122705764Y-111425500D01*
X122705766Y-111425500D01*
X122852135Y-111386281D01*
X122983365Y-111310515D01*
X123090515Y-111203365D01*
X123166281Y-111072135D01*
X123205500Y-110925766D01*
X123205500Y-110774234D01*
X123166281Y-110627865D01*
X123090515Y-110496635D01*
X122983365Y-110389485D01*
X122917750Y-110351602D01*
X122852136Y-110313719D01*
X122778950Y-110294109D01*
X122705766Y-110274500D01*
X122554234Y-110274500D01*
X122407863Y-110313719D01*
X122276635Y-110389485D01*
X122276632Y-110389487D01*
X122169487Y-110496632D01*
X122169485Y-110496635D01*
X122093719Y-110627863D01*
X122054500Y-110774234D01*
X122054500Y-110925765D01*
X103782049Y-110925765D01*
X106167811Y-108540003D01*
X119134435Y-108540003D01*
X119154630Y-108719249D01*
X119154631Y-108719254D01*
X119214211Y-108889523D01*
X119252680Y-108950745D01*
X119310184Y-109042262D01*
X119437738Y-109169816D01*
X119590478Y-109265789D01*
X119714680Y-109309249D01*
X119760745Y-109325368D01*
X119760750Y-109325369D01*
X119939996Y-109345565D01*
X119940000Y-109345565D01*
X119940004Y-109345565D01*
X120119249Y-109325369D01*
X120119252Y-109325368D01*
X120119255Y-109325368D01*
X120289522Y-109265789D01*
X120442262Y-109169816D01*
X120492075Y-109120003D01*
X123004435Y-109120003D01*
X123024630Y-109299249D01*
X123024631Y-109299254D01*
X123084211Y-109469523D01*
X123180184Y-109622262D01*
X123307738Y-109749816D01*
X123460478Y-109845789D01*
X123600063Y-109894632D01*
X123630745Y-109905368D01*
X123630750Y-109905369D01*
X123809996Y-109925565D01*
X123810000Y-109925565D01*
X123810004Y-109925565D01*
X123989249Y-109905369D01*
X123989252Y-109905368D01*
X123989255Y-109905368D01*
X124159522Y-109845789D01*
X124312262Y-109749816D01*
X124439816Y-109622262D01*
X124535789Y-109469522D01*
X124595368Y-109299255D01*
X124609952Y-109169816D01*
X124615565Y-109120003D01*
X124615565Y-109119996D01*
X124595369Y-108940750D01*
X124595368Y-108940745D01*
X124535788Y-108770476D01*
X124446099Y-108627738D01*
X124439816Y-108617738D01*
X124312262Y-108490184D01*
X124159523Y-108394211D01*
X123989254Y-108334631D01*
X123989249Y-108334630D01*
X123810004Y-108314435D01*
X123809996Y-108314435D01*
X123630750Y-108334630D01*
X123630745Y-108334631D01*
X123460476Y-108394211D01*
X123307737Y-108490184D01*
X123180184Y-108617737D01*
X123084211Y-108770476D01*
X123024631Y-108940745D01*
X123024630Y-108940750D01*
X123004435Y-109119996D01*
X123004435Y-109120003D01*
X120492075Y-109120003D01*
X120569816Y-109042262D01*
X120665789Y-108889522D01*
X120725368Y-108719255D01*
X120725369Y-108719249D01*
X120745565Y-108540003D01*
X120745565Y-108539996D01*
X120725369Y-108360750D01*
X120725368Y-108360745D01*
X120665788Y-108190476D01*
X120569815Y-108037737D01*
X120442262Y-107910184D01*
X120289523Y-107814211D01*
X120119254Y-107754631D01*
X120119249Y-107754630D01*
X119940004Y-107734435D01*
X119939996Y-107734435D01*
X119760750Y-107754630D01*
X119760745Y-107754631D01*
X119590476Y-107814211D01*
X119437737Y-107910184D01*
X119310184Y-108037737D01*
X119214211Y-108190476D01*
X119154631Y-108360745D01*
X119154630Y-108360750D01*
X119134435Y-108539996D01*
X119134435Y-108540003D01*
X106167811Y-108540003D01*
X107687811Y-107020003D01*
X114584435Y-107020003D01*
X114604630Y-107199249D01*
X114604631Y-107199254D01*
X114664211Y-107369523D01*
X114760184Y-107522262D01*
X114887738Y-107649816D01*
X115040478Y-107745789D01*
X115210745Y-107805368D01*
X115210750Y-107805369D01*
X115389996Y-107825565D01*
X115390000Y-107825565D01*
X115390004Y-107825565D01*
X115569249Y-107805369D01*
X115569252Y-107805368D01*
X115569255Y-107805368D01*
X115739522Y-107745789D01*
X115892262Y-107649816D01*
X116019816Y-107522262D01*
X116115789Y-107369522D01*
X116175368Y-107199255D01*
X116195565Y-107020000D01*
X116175368Y-106840745D01*
X116115789Y-106670478D01*
X116019816Y-106517738D01*
X115892262Y-106390184D01*
X115739523Y-106294211D01*
X115569254Y-106234631D01*
X115569249Y-106234630D01*
X115390004Y-106214435D01*
X115389996Y-106214435D01*
X115210750Y-106234630D01*
X115210745Y-106234631D01*
X115040476Y-106294211D01*
X114887737Y-106390184D01*
X114760184Y-106517737D01*
X114664211Y-106670476D01*
X114604631Y-106840745D01*
X114604630Y-106840750D01*
X114584435Y-107019996D01*
X114584435Y-107020003D01*
X107687811Y-107020003D01*
X109695995Y-105011819D01*
X109757318Y-104978334D01*
X109783676Y-104975500D01*
X141016324Y-104975500D01*
X141083363Y-104995185D01*
G37*
%TD.AperFunction*%
%TD*%
M02*
