%TF.GenerationSoftware,KiCad,Pcbnew,8.0.1*%
%TF.CreationDate,2024-04-11T10:52:21-07:00*%
%TF.ProjectId,TMC2240_RP2040,544d4332-3234-4305-9f52-50323034302e,rev?*%
%TF.SameCoordinates,Original*%
%TF.FileFunction,Copper,L3,Inr*%
%TF.FilePolarity,Positive*%
%FSLAX46Y46*%
G04 Gerber Fmt 4.6, Leading zero omitted, Abs format (unit mm)*
G04 Created by KiCad (PCBNEW 8.0.1) date 2024-04-11 10:52:21*
%MOMM*%
%LPD*%
G01*
G04 APERTURE LIST*
%TA.AperFunction,ComponentPad*%
%ADD10R,1.700000X1.700000*%
%TD*%
%TA.AperFunction,ComponentPad*%
%ADD11O,1.700000X1.700000*%
%TD*%
%TA.AperFunction,ComponentPad*%
%ADD12C,5.600000*%
%TD*%
%TA.AperFunction,ComponentPad*%
%ADD13O,1.000000X2.100000*%
%TD*%
%TA.AperFunction,ComponentPad*%
%ADD14O,1.000000X1.600000*%
%TD*%
%TA.AperFunction,HeatsinkPad*%
%ADD15C,0.600000*%
%TD*%
%TA.AperFunction,ViaPad*%
%ADD16C,0.600000*%
%TD*%
%TA.AperFunction,Conductor*%
%ADD17C,0.500000*%
%TD*%
%TA.AperFunction,Conductor*%
%ADD18C,0.800000*%
%TD*%
%TA.AperFunction,Conductor*%
%ADD19C,0.200000*%
%TD*%
G04 APERTURE END LIST*
D10*
%TO.N,GND*%
%TO.C,J2*%
X153000000Y-144500000D03*
D11*
%TO.N,+3.3V*%
X153000000Y-141960000D03*
%TO.N,Net-(J2-Pin_3)*%
X153000000Y-139420000D03*
%TO.N,Net-(J2-Pin_4)*%
X153000000Y-136880000D03*
%TO.N,Net-(J2-Pin_5)*%
X153000000Y-134340000D03*
%TO.N,Net-(J2-Pin_6)*%
X153000000Y-131800000D03*
%TD*%
D10*
%TO.N,GND*%
%TO.C,J14*%
X97200000Y-125980000D03*
D11*
%TO.N,Net-(J14-Pin_2)*%
X97200000Y-128520000D03*
%TO.N,Net-(J14-Pin_3)*%
X97200000Y-131060000D03*
%TO.N,+5V*%
X97200000Y-133600000D03*
%TD*%
D12*
%TO.N,GND*%
%TO.C,J10*%
X141275000Y-161275000D03*
%TD*%
D13*
%TO.N,GND*%
%TO.C,J19*%
X129840000Y-111380000D03*
D14*
X129840000Y-107200000D03*
D13*
X121200000Y-111380000D03*
D14*
X121200000Y-107200000D03*
%TD*%
D12*
%TO.N,GND*%
%TO.C,J5*%
X100000000Y-120000000D03*
%TD*%
%TO.N,GND*%
%TO.C,J12*%
X141275000Y-110475000D03*
%TD*%
%TO.N,GND*%
%TO.C,J6*%
X100000000Y-151750000D03*
%TD*%
D10*
%TO.N,GND*%
%TO.C,J1*%
X131825000Y-163400000D03*
D11*
%TO.N,VCC*%
X134365000Y-163400000D03*
%TD*%
D12*
%TO.N,GND*%
%TO.C,J8*%
X150800000Y-151750000D03*
%TD*%
%TO.N,GND*%
%TO.C,J9*%
X109525000Y-161275000D03*
%TD*%
D10*
%TO.N,/RP2040uC/SWCLK*%
%TO.C,J16*%
X148610000Y-127350000D03*
D11*
%TO.N,GND*%
X151150000Y-127350000D03*
%TO.N,/RP2040uC/SWDIO*%
X153690000Y-127350000D03*
%TD*%
D12*
%TO.N,GND*%
%TO.C,J7*%
X150800000Y-120000000D03*
%TD*%
D10*
%TO.N,Net-(J4-Pin_1)*%
%TO.C,J4*%
X117330000Y-163600000D03*
D11*
%TO.N,Net-(J4-Pin_2)*%
X119870000Y-163600000D03*
%TO.N,Net-(J4-Pin_3)*%
X122410000Y-163600000D03*
%TO.N,Net-(J4-Pin_4)*%
X124950000Y-163600000D03*
%TD*%
D10*
%TO.N,GND*%
%TO.C,J15*%
X97200000Y-138400000D03*
D11*
%TO.N,Net-(J15-Pin_2)*%
X97200000Y-140940000D03*
%TO.N,Net-(J15-Pin_3)*%
X97200000Y-143480000D03*
%TO.N,Net-(J15-Pin_4)*%
X97200000Y-146020000D03*
%TD*%
D10*
%TO.N,GND*%
%TO.C,SW2*%
X140400000Y-118000000D03*
D11*
%TO.N,Net-(JP1-C)*%
X140400000Y-120540000D03*
%TD*%
D10*
%TO.N,GND*%
%TO.C,SW1*%
X144700000Y-117925000D03*
D11*
%TO.N,/RP2040uC/RUN*%
X144700000Y-120465000D03*
%TD*%
D12*
%TO.N,GND*%
%TO.C,J11*%
X109525000Y-110475000D03*
%TD*%
D15*
%TO.N,GND*%
%TO.C,U1*%
X126550000Y-151262500D03*
X125250000Y-151262500D03*
X123950000Y-151262500D03*
X126550000Y-152562500D03*
X125250000Y-152562500D03*
X123950000Y-152562500D03*
X126550000Y-153862500D03*
X125250000Y-153862500D03*
X123950000Y-153862500D03*
%TD*%
D16*
%TO.N,GND*%
X116750000Y-146950000D03*
X151000000Y-138400000D03*
X151000000Y-135600000D03*
X151000000Y-131600000D03*
X146700000Y-139800000D03*
X142000000Y-139800000D03*
X138900000Y-140850000D03*
X140300000Y-136900000D03*
X138600000Y-134100000D03*
X142600000Y-134300000D03*
X139500000Y-131200000D03*
%TO.N,/AccessoryConnections/LIMITM*%
X147000000Y-137800000D03*
%TO.N,/AccessoryConnections/LIMITL*%
X146800000Y-133500000D03*
%TO.N,/AccessoryConnections/ADC*%
X137060000Y-132500000D03*
X135600000Y-116900000D03*
%TO.N,+3.3V*%
X140000000Y-135400000D03*
X144800000Y-135400000D03*
X148245000Y-131655000D03*
X148550000Y-134400000D03*
X148560000Y-138900000D03*
%TO.N,GND*%
X126070000Y-122550000D03*
X102900000Y-139180000D03*
X114380000Y-143610000D03*
X123960000Y-134600000D03*
X125950000Y-146175000D03*
X117700000Y-107380000D03*
X132460000Y-146970000D03*
X134440000Y-117670000D03*
X134500000Y-146000000D03*
X138600000Y-143800000D03*
X132860000Y-131000000D03*
X126700000Y-133900000D03*
X121350000Y-161270000D03*
X99080000Y-144640000D03*
X134100000Y-155300000D03*
X136800000Y-155300000D03*
X129380000Y-160350000D03*
X114500000Y-140500000D03*
X124000000Y-137600000D03*
X124310000Y-131100000D03*
X121000000Y-137700000D03*
X121530000Y-144400000D03*
X134500000Y-136600000D03*
X125900000Y-120880000D03*
X132460000Y-155630000D03*
X117425000Y-132200000D03*
X99160000Y-139570000D03*
X128670000Y-139120000D03*
X122943897Y-116278897D03*
X129010000Y-132700000D03*
X135350000Y-122620000D03*
X135900000Y-124000000D03*
X127660000Y-122630000D03*
X127660000Y-120870000D03*
X112000000Y-131600000D03*
%TO.N,/RP2040uC/RUN*%
X144605000Y-125535000D03*
X129010000Y-123940000D03*
%TO.N,VCC*%
X125500000Y-156660000D03*
X122610000Y-155890000D03*
X128390000Y-155650000D03*
%TO.N,Net-(U1-V_{CP})*%
X124500000Y-156680000D03*
X122200000Y-155080000D03*
%TO.N,/RP2040uC/XIN*%
X128950000Y-131080000D03*
X126610000Y-124050000D03*
%TO.N,+1V1*%
X128780000Y-117290000D03*
X125170000Y-117290000D03*
X127885000Y-126395000D03*
%TO.N,+5V*%
X102080000Y-130100000D03*
X136800000Y-158590000D03*
X115300000Y-114250000D03*
X104430000Y-144110000D03*
%TO.N,Net-(U2-VDD3V)*%
X120760000Y-134580000D03*
%TO.N,+3.3V*%
X127652475Y-127737526D03*
X123840000Y-147160000D03*
X120800000Y-122920000D03*
X147800000Y-144100000D03*
X120360000Y-144300000D03*
X120900000Y-135840000D03*
X117270000Y-112660000D03*
X131690000Y-133860000D03*
X120280000Y-117590000D03*
X141580000Y-128380000D03*
X126876911Y-117213089D03*
X131660000Y-118640000D03*
X130280000Y-117430000D03*
X132240000Y-153540000D03*
X132810000Y-123490000D03*
X116340000Y-129510000D03*
%TO.N,Net-(J14-Pin_2)*%
X105120000Y-137720000D03*
%TO.N,Net-(J14-Pin_3)*%
X101990000Y-138550000D03*
%TO.N,Net-(J15-Pin_3)*%
X106540000Y-134920000D03*
%TO.N,Net-(J15-Pin_2)*%
X106260000Y-136320000D03*
%TO.N,/RP2040uC/SWCLK*%
X127409426Y-124080358D03*
X129190000Y-128900000D03*
%TO.N,/RP2040uC/SWDIO*%
X128210000Y-124020000D03*
X129920000Y-128420000D03*
%TO.N,/StepperTMC2240/OV*%
X122500000Y-148880000D03*
X121110000Y-152550000D03*
%TO.N,/DualRS232UART/TX1*%
X116580000Y-137060000D03*
X118310000Y-122300000D03*
%TO.N,/RP2040uC/RX0_SCL0_SPIS0_GP1*%
X114280000Y-120500000D03*
X120790000Y-120510000D03*
X114350000Y-135310000D03*
%TO.N,/RP2040uC/TX1_SDA0_SPIO0_GP4*%
X118118345Y-121523294D03*
X124476461Y-121235504D03*
%TO.N,/DualRS232UART/TX2*%
X115520000Y-122860000D03*
X115740000Y-137980000D03*
%TO.N,/RP2040uC/RX1_SCL0_SPIS0_GP5*%
X122124264Y-122162500D03*
X114640000Y-139150000D03*
X120690000Y-140570000D03*
%TO.N,/RP2040uC/TX1_SDA0_SPIO1_GP8*%
X122200000Y-123362500D03*
X120780000Y-126900000D03*
%TO.N,/AS5048AEncoder/MOSI*%
X129450000Y-152430000D03*
X119080000Y-129100000D03*
X124530245Y-139610000D03*
X123920000Y-144580000D03*
X126750000Y-144570000D03*
X118720000Y-139350000D03*
%TO.N,/RP2040uC/RX1_SCL0_SPIS1_GP9*%
X124529574Y-123714972D03*
X126460000Y-141070000D03*
%TO.N,/StepperTMC2240/~{CS}*%
X127850000Y-144560000D03*
X130430000Y-152450000D03*
%TO.N,/RP2040uC/SDA1_SPIC1_GP10*%
X122230000Y-124220000D03*
X124050000Y-128150000D03*
%TO.N,/AS5048AEncoder/CLK*%
X124050000Y-128950003D03*
X125600000Y-136100000D03*
X128710000Y-153490000D03*
%TO.N,/RP2040uC/SCL1_SPII1_GP11*%
X131300000Y-150150000D03*
X121600000Y-140340000D03*
X122138300Y-125014729D03*
X131400000Y-140320000D03*
%TO.N,/AS5048AEncoder/MISO*%
X130140000Y-136170000D03*
%TO.N,/AS5048AEncoder/~{CS}*%
X129830000Y-134925000D03*
%TO.N,/RP2040uC/SCL1_SPII0_GP7*%
X124340000Y-135730000D03*
X124440000Y-122920000D03*
%TO.N,/AS5048AEncoder/PWM*%
X121160000Y-132600000D03*
%TO.N,/RP2040uC/SDA1_SPIC0_GP6*%
X124403263Y-122032151D03*
X120980000Y-129000000D03*
%TO.N,/StepperTMC2240/STEP*%
X132800000Y-148210000D03*
X133280000Y-129270000D03*
%TO.N,/StepperTMC2240/DIR*%
X124950000Y-145170000D03*
X127940000Y-149730000D03*
%TO.N,/RP2040uC/SCL1_SPII0_GP3*%
X119760000Y-140040000D03*
X122087849Y-121363327D03*
X123870000Y-140090000D03*
%TO.N,/RP2040uC/TX0_SDA0_SPIO1_GP12*%
X122160000Y-125840000D03*
X121300000Y-148200000D03*
%TO.N,/RP2040uC/RX0_SCL0_SPIS1_GP13*%
X117610000Y-148940000D03*
X123290000Y-126000000D03*
X123100000Y-148140000D03*
%TO.N,/StepperTMC2240/~{DRV_EN}*%
X126990735Y-148930735D03*
X123500000Y-148930000D03*
%TO.N,/RP2040uC/SDA1_SPIC1_GP14*%
X125164773Y-124201311D03*
X128500000Y-141220000D03*
%TO.N,/RP2040uC/SCL1_SPII1_GP15*%
X125130245Y-126162696D03*
X132370000Y-139840000D03*
X125260000Y-140090000D03*
%TO.N,/StepperTMC2240/~{SLEEP}*%
X132910000Y-156730000D03*
X132240000Y-144820000D03*
%TO.N,/RP2040uC/GPIO2*%
X121610000Y-120550000D03*
X127760000Y-119350000D03*
X137750000Y-119660000D03*
%TO.N,Net-(J19-CC1)*%
X126700000Y-110680000D03*
X124169265Y-113669265D03*
%TO.N,/RP2040uC/QSPI_SS*%
X123070000Y-118280000D03*
X113640000Y-117690000D03*
%TO.N,/RP2040uC/~{USB_BOOT}*%
X121840000Y-130610000D03*
X142370000Y-129810000D03*
X142820000Y-124640000D03*
%TO.N,/RP2040uC/QSPI_SCLK*%
X111170000Y-127630000D03*
X111190000Y-119750000D03*
X125900000Y-119500000D03*
%TO.N,/RP2040uC/QSPI_SD2*%
X124280000Y-120460000D03*
X111860000Y-120950000D03*
%TO.N,/RP2040uC/QSPI_SD0*%
X109950000Y-119750000D03*
X109910000Y-128070000D03*
X124780000Y-119770000D03*
%TO.N,/RP2040uC/QSPI_SD1*%
X123250000Y-117470000D03*
X112390000Y-118090000D03*
%TO.N,/RP2040uC/QSPI_SD3*%
X112640000Y-119140000D03*
X112500000Y-127900000D03*
X126800000Y-119500000D03*
%TO.N,/AccessoryConnections/LIMITM*%
X145080000Y-129970000D03*
%TO.N,/RP2040uC/ADC0_GP26*%
X137490000Y-139240000D03*
X137660000Y-120670000D03*
X132760000Y-120380000D03*
%TO.N,/AccessoryConnections/LIMITL*%
X146290000Y-125600000D03*
X132030000Y-124840000D03*
%TO.N,VBUS*%
X123810000Y-109120000D03*
X119940000Y-108540000D03*
X115390000Y-107020000D03*
X127390000Y-109130000D03*
%TO.N,/RP2040uC/GPIO25*%
X136916667Y-131000000D03*
X132710000Y-121360000D03*
X136910000Y-121370000D03*
%TD*%
D17*
%TO.N,+3.3V*%
X144800000Y-135400000D02*
X140000000Y-135400000D01*
X145800000Y-134400000D02*
X144800000Y-135400000D01*
X148550000Y-134400000D02*
X145800000Y-134400000D01*
D18*
X148245000Y-131655000D02*
X148550000Y-131960000D01*
X144970000Y-128380000D02*
X148245000Y-131655000D01*
X148550000Y-131960000D02*
X148550000Y-134400000D01*
X148550000Y-134400000D02*
X148550000Y-135770000D01*
X148560000Y-138900000D02*
X148560000Y-139560000D01*
X148560000Y-135780000D02*
X148560000Y-138900000D01*
X147800000Y-144100000D02*
X148570000Y-143330000D01*
X148570000Y-143330000D02*
X148570000Y-139570000D01*
D17*
%TO.N,+1V1*%
X131870000Y-120710000D02*
X131870000Y-122410000D01*
X128780000Y-117620000D02*
X131870000Y-120710000D01*
X131870000Y-122410000D02*
X127885000Y-126395000D01*
X125170000Y-117290000D02*
X125240000Y-117290000D01*
X126030000Y-118080000D02*
X127990000Y-118080000D01*
X128780000Y-117290000D02*
X128780000Y-117620000D01*
X125240000Y-117290000D02*
X126030000Y-118080000D01*
X127990000Y-118080000D02*
X128780000Y-117290000D01*
D18*
%TO.N,+5V*%
X102080000Y-130100000D02*
X102080000Y-126220000D01*
X136800000Y-158590000D02*
X114760000Y-158590000D01*
X111830000Y-155660000D02*
X111830000Y-151510000D01*
X114760000Y-158590000D02*
X111830000Y-155660000D01*
X114050000Y-114250000D02*
X115300000Y-114250000D01*
X111830000Y-151510000D02*
X104430000Y-144110000D01*
X102080000Y-126220000D02*
X114050000Y-114250000D01*
%TO.N,+3.3V*%
X132810000Y-123490000D02*
X133660000Y-122640000D01*
X130280000Y-117430000D02*
X130280000Y-116430000D01*
X123840000Y-147160000D02*
X122000000Y-147160000D01*
X116340000Y-134900000D02*
X118510000Y-137070000D01*
X130500000Y-137100000D02*
X131690000Y-135910000D01*
X128690000Y-145500000D02*
X130500000Y-143690000D01*
X117270000Y-112660000D02*
X117270000Y-114580000D01*
X130450000Y-117430000D02*
X131660000Y-118640000D01*
X148560000Y-139560000D02*
X148570000Y-139570000D01*
X127652475Y-128912475D02*
X128760000Y-130020000D01*
X129390000Y-115540000D02*
X128550000Y-115540000D01*
X131690000Y-132547207D02*
X129162793Y-130020000D01*
X119740000Y-135840000D02*
X118510000Y-137070000D01*
X132240000Y-149050000D02*
X132240000Y-153540000D01*
X119040000Y-118830000D02*
X120280000Y-117590000D01*
X117270000Y-114580000D02*
X120280000Y-117590000D01*
X119040000Y-121160000D02*
X119040000Y-118830000D01*
X117820000Y-137760000D02*
X117820000Y-140300000D01*
X131690000Y-133860000D02*
X131690000Y-132547207D01*
X120280000Y-117590000D02*
X120280000Y-116470000D01*
X133660000Y-122640000D02*
X133660000Y-120007207D01*
X129162793Y-130020000D02*
X128760000Y-130020000D01*
X128690000Y-145500000D02*
X132240000Y-149050000D01*
X122000000Y-147160000D02*
X120360000Y-145520000D01*
X120360000Y-145520000D02*
X120360000Y-144300000D01*
X120360000Y-142840000D02*
X120360000Y-144300000D01*
X132062793Y-123490000D02*
X132810000Y-123490000D01*
X130500000Y-143690000D02*
X130500000Y-137100000D01*
X133650000Y-123490000D02*
X138540000Y-128380000D01*
X120800000Y-122920000D02*
X120800000Y-125050000D01*
X127652475Y-127737526D02*
X127815267Y-127737526D01*
X131690000Y-135910000D02*
X131690000Y-133860000D01*
X116340000Y-129510000D02*
X116340000Y-134900000D01*
X121480000Y-115270000D02*
X126220000Y-115270000D01*
X132292793Y-118640000D02*
X131660000Y-118640000D01*
X123840000Y-147160000D02*
X127030000Y-147160000D01*
X126876911Y-115926911D02*
X126876911Y-117213089D01*
X132810000Y-123490000D02*
X133650000Y-123490000D01*
X127030000Y-147160000D02*
X128690000Y-145500000D01*
X120900000Y-135840000D02*
X119740000Y-135840000D01*
X127652475Y-128912475D02*
X127652475Y-127737526D01*
X138540000Y-128380000D02*
X141580000Y-128380000D01*
X118510000Y-137070000D02*
X117820000Y-137760000D01*
X120800000Y-122920000D02*
X119040000Y-121160000D01*
X126220000Y-115270000D02*
X126876911Y-115926911D01*
X130280000Y-117430000D02*
X130450000Y-117430000D01*
X117820000Y-140300000D02*
X120360000Y-142840000D01*
X128550000Y-115540000D02*
X126876911Y-117213089D01*
X141580000Y-128380000D02*
X144970000Y-128380000D01*
X127815267Y-127737526D02*
X132062793Y-123490000D01*
X120280000Y-116470000D02*
X121480000Y-115270000D01*
X133660000Y-120007207D02*
X132292793Y-118640000D01*
X120800000Y-125050000D02*
X116340000Y-129510000D01*
X148550000Y-135770000D02*
X148560000Y-135780000D01*
X130280000Y-116430000D02*
X129390000Y-115540000D01*
D19*
%TO.N,/RP2040uC/RX1_SCL0_SPIS1_GP9*%
X124529574Y-123714972D02*
X124529574Y-124429574D01*
X125730245Y-134164559D02*
X126700000Y-135134314D01*
X124529574Y-124429574D02*
X125730245Y-125630245D01*
X125730245Y-125630245D02*
X125730245Y-134164559D01*
X126700000Y-135134314D02*
X126700000Y-139400000D01*
X126460000Y-139640000D02*
X126460000Y-141070000D01*
X126700000Y-139400000D02*
X126460000Y-139640000D01*
%TO.N,/AS5048AEncoder/CLK*%
X125600000Y-135200000D02*
X125600000Y-136100000D01*
X123600000Y-133200000D02*
X125600000Y-135200000D01*
X123600000Y-129400003D02*
X123600000Y-133200000D01*
X124050000Y-128950003D02*
X123600000Y-129400003D01*
%TO.N,/RP2040uC/SDA1_SPIC0_GP6*%
X124250000Y-126430000D02*
X124250000Y-125440000D01*
X120980000Y-129000000D02*
X121680000Y-129000000D01*
X123660000Y-124850000D02*
X123660000Y-122660000D01*
X124250000Y-125440000D02*
X123660000Y-124850000D01*
X123660000Y-122660000D02*
X124287849Y-122032151D01*
X124287849Y-122032151D02*
X124403263Y-122032151D01*
X121680000Y-129000000D02*
X124250000Y-126430000D01*
%TO.N,/StepperTMC2240/~{DRV_EN}*%
X123500000Y-148930000D02*
X126990000Y-148930000D01*
X126990000Y-148930000D02*
X126990735Y-148930735D01*
%TO.N,/RP2040uC/SDA1_SPIC1_GP14*%
X128000000Y-140720000D02*
X128500000Y-141220000D01*
X128000000Y-130600000D02*
X128000000Y-140720000D01*
X125164773Y-124201311D02*
X126300000Y-125336538D01*
X126300000Y-128900000D02*
X128000000Y-130600000D01*
X126300000Y-125336538D02*
X126300000Y-128900000D01*
%TO.N,/RP2040uC/SCL1_SPII1_GP15*%
X126300000Y-139100000D02*
X126300000Y-135300000D01*
X125310000Y-140090000D02*
X126300000Y-139100000D01*
X125130245Y-134130245D02*
X125130245Y-126162696D01*
X126300000Y-135300000D02*
X125130245Y-134130245D01*
X125260000Y-140090000D02*
X125310000Y-140090000D01*
%TO.N,/RP2040uC/GPIO2*%
X127070000Y-118660000D02*
X127760000Y-119350000D01*
X122220000Y-119940000D02*
X123370000Y-119940000D01*
X121610000Y-120550000D02*
X122220000Y-119940000D01*
X123370000Y-119940000D02*
X124650000Y-118660000D01*
X124650000Y-118660000D02*
X127070000Y-118660000D01*
D18*
%TO.N,VBUS*%
X123820000Y-109110000D02*
X127370000Y-109110000D01*
X127370000Y-109110000D02*
X127390000Y-109130000D01*
X123810000Y-109120000D02*
X122850000Y-109120000D01*
X123810000Y-109120000D02*
X123820000Y-109110000D01*
X119940000Y-108540000D02*
X119450000Y-109030000D01*
X117360000Y-109030000D02*
X115390000Y-107060000D01*
X115390000Y-107060000D02*
X115390000Y-107020000D01*
X120620000Y-109220000D02*
X119940000Y-108540000D01*
X119450000Y-109030000D02*
X117360000Y-109030000D01*
X122750000Y-109220000D02*
X120620000Y-109220000D01*
X122850000Y-109120000D02*
X122750000Y-109220000D01*
%TD*%
%TA.AperFunction,Conductor*%
%TO.N,GND*%
G36*
X121706563Y-126502956D02*
G01*
X121726842Y-126513237D01*
X121810475Y-126565788D01*
X121980745Y-126625368D01*
X121980750Y-126625369D01*
X122159996Y-126645565D01*
X122160000Y-126645565D01*
X122160004Y-126645565D01*
X122339249Y-126625369D01*
X122339252Y-126625368D01*
X122339255Y-126625368D01*
X122509522Y-126565789D01*
X122557328Y-126535749D01*
X122624564Y-126516748D01*
X122691400Y-126537114D01*
X122710983Y-126553061D01*
X122787738Y-126629816D01*
X122909841Y-126706539D01*
X122956132Y-126758873D01*
X122966780Y-126827926D01*
X122938405Y-126891775D01*
X122931550Y-126899213D01*
X121538870Y-128291893D01*
X121477547Y-128325378D01*
X121407855Y-128320394D01*
X121385218Y-128309206D01*
X121329520Y-128274209D01*
X121159262Y-128214633D01*
X121159249Y-128214630D01*
X120980004Y-128194435D01*
X120979996Y-128194435D01*
X120800750Y-128214630D01*
X120800745Y-128214631D01*
X120630476Y-128274211D01*
X120477737Y-128370184D01*
X120350184Y-128497737D01*
X120254211Y-128650476D01*
X120194631Y-128820745D01*
X120194630Y-128820750D01*
X120174435Y-128999996D01*
X120174435Y-129000003D01*
X120194630Y-129179249D01*
X120194631Y-129179254D01*
X120254211Y-129349523D01*
X120341882Y-129489049D01*
X120350184Y-129502262D01*
X120477738Y-129629816D01*
X120520242Y-129656523D01*
X120615492Y-129716373D01*
X120630478Y-129725789D01*
X120746469Y-129766376D01*
X120800745Y-129785368D01*
X120800750Y-129785369D01*
X120979996Y-129805565D01*
X120980000Y-129805565D01*
X120980004Y-129805565D01*
X121159249Y-129785369D01*
X121159251Y-129785368D01*
X121159255Y-129785368D01*
X121159258Y-129785366D01*
X121159262Y-129785366D01*
X121223709Y-129762815D01*
X121293487Y-129759252D01*
X121354115Y-129793981D01*
X121386342Y-129855974D01*
X121379938Y-129925550D01*
X121341983Y-129976798D01*
X121337739Y-129980182D01*
X121210184Y-130107737D01*
X121114211Y-130260476D01*
X121054631Y-130430745D01*
X121054630Y-130430750D01*
X121034435Y-130609996D01*
X121034435Y-130610003D01*
X121054630Y-130789249D01*
X121054631Y-130789254D01*
X121114211Y-130959523D01*
X121210184Y-131112262D01*
X121337738Y-131239816D01*
X121490478Y-131335789D01*
X121529725Y-131349522D01*
X121660745Y-131395368D01*
X121660750Y-131395369D01*
X121839996Y-131415565D01*
X121840000Y-131415565D01*
X121840004Y-131415565D01*
X122019249Y-131395369D01*
X122019252Y-131395368D01*
X122019255Y-131395368D01*
X122189522Y-131335789D01*
X122342262Y-131239816D01*
X122469816Y-131112262D01*
X122565789Y-130959522D01*
X122625368Y-130789255D01*
X122625369Y-130789249D01*
X122645565Y-130610003D01*
X122645565Y-130609996D01*
X122625369Y-130430750D01*
X122625368Y-130430745D01*
X122608371Y-130382171D01*
X122565789Y-130260478D01*
X122469816Y-130107738D01*
X122342262Y-129980184D01*
X122326048Y-129969996D01*
X122189523Y-129884211D01*
X122019254Y-129824631D01*
X122019250Y-129824630D01*
X121898459Y-129811021D01*
X121834045Y-129783955D01*
X121794490Y-129726360D01*
X121792353Y-129656523D01*
X121828311Y-129596616D01*
X121880248Y-129568027D01*
X121911785Y-129559577D01*
X121979468Y-129520500D01*
X122048716Y-129480520D01*
X122160520Y-129368716D01*
X122160520Y-129368714D01*
X122170724Y-129358511D01*
X122170728Y-129358506D01*
X123108331Y-128420902D01*
X123169652Y-128387419D01*
X123239344Y-128392403D01*
X123295277Y-128434275D01*
X123313052Y-128467631D01*
X123326511Y-128506095D01*
X123324367Y-128506845D01*
X123333960Y-128565161D01*
X123325613Y-128593593D01*
X123326511Y-128593908D01*
X123264630Y-128770753D01*
X123254837Y-128857671D01*
X123227770Y-128922085D01*
X123219299Y-128931468D01*
X123119478Y-129031288D01*
X123091665Y-129079464D01*
X123079809Y-129100000D01*
X123040423Y-129168218D01*
X122999499Y-129320946D01*
X122999499Y-129320948D01*
X122999499Y-129489049D01*
X122999500Y-129489062D01*
X122999500Y-133113330D01*
X122999499Y-133113348D01*
X122999499Y-133279054D01*
X122999498Y-133279054D01*
X122999499Y-133279057D01*
X123033397Y-133405565D01*
X123040424Y-133431787D01*
X123049614Y-133447704D01*
X123049615Y-133447706D01*
X123119477Y-133568712D01*
X123119481Y-133568717D01*
X123238349Y-133687585D01*
X123238355Y-133687590D01*
X124279437Y-134728672D01*
X124312922Y-134789995D01*
X124307938Y-134859687D01*
X124266066Y-134915620D01*
X124205640Y-134939573D01*
X124160749Y-134944630D01*
X124160745Y-134944631D01*
X123990476Y-135004211D01*
X123837737Y-135100184D01*
X123710184Y-135227737D01*
X123614211Y-135380476D01*
X123554631Y-135550745D01*
X123554630Y-135550750D01*
X123534435Y-135729996D01*
X123534435Y-135730003D01*
X123554630Y-135909249D01*
X123554631Y-135909254D01*
X123614211Y-136079523D01*
X123693409Y-136205565D01*
X123710184Y-136232262D01*
X123837738Y-136359816D01*
X123911376Y-136406086D01*
X123960239Y-136436789D01*
X123990478Y-136455789D01*
X124071209Y-136484038D01*
X124160745Y-136515368D01*
X124160750Y-136515369D01*
X124339996Y-136535565D01*
X124340000Y-136535565D01*
X124340004Y-136535565D01*
X124519249Y-136515369D01*
X124519252Y-136515368D01*
X124519255Y-136515368D01*
X124689522Y-136455789D01*
X124719761Y-136436788D01*
X124786996Y-136417787D01*
X124853831Y-136438153D01*
X124890728Y-136475809D01*
X124928275Y-136535565D01*
X124970184Y-136602262D01*
X125097738Y-136729816D01*
X125119252Y-136743334D01*
X125244864Y-136822262D01*
X125250478Y-136825789D01*
X125420745Y-136885368D01*
X125420750Y-136885369D01*
X125589383Y-136904369D01*
X125653797Y-136931435D01*
X125693352Y-136989030D01*
X125699500Y-137027589D01*
X125699500Y-138799902D01*
X125679815Y-138866941D01*
X125663181Y-138887583D01*
X125379199Y-139171564D01*
X125317876Y-139205049D01*
X125248184Y-139200065D01*
X125192251Y-139158193D01*
X125186524Y-139149854D01*
X125160062Y-139107740D01*
X125160060Y-139107737D01*
X125032507Y-138980184D01*
X124879768Y-138884211D01*
X124709499Y-138824631D01*
X124709494Y-138824630D01*
X124530249Y-138804435D01*
X124530241Y-138804435D01*
X124350995Y-138824630D01*
X124350990Y-138824631D01*
X124180721Y-138884211D01*
X124027982Y-138980184D01*
X123900429Y-139107737D01*
X123815033Y-139243645D01*
X123762698Y-139289936D01*
X123723923Y-139300893D01*
X123690750Y-139304630D01*
X123520478Y-139364210D01*
X123367737Y-139460184D01*
X123240184Y-139587737D01*
X123144211Y-139740476D01*
X123084631Y-139910745D01*
X123084630Y-139910750D01*
X123064435Y-140089996D01*
X123064435Y-140090003D01*
X123084630Y-140269249D01*
X123084631Y-140269254D01*
X123144211Y-140439523D01*
X123233280Y-140581274D01*
X123240184Y-140592262D01*
X123367738Y-140719816D01*
X123520478Y-140815789D01*
X123676770Y-140870478D01*
X123690745Y-140875368D01*
X123690750Y-140875369D01*
X123869996Y-140895565D01*
X123870000Y-140895565D01*
X123870004Y-140895565D01*
X124049249Y-140875369D01*
X124049252Y-140875368D01*
X124049255Y-140875368D01*
X124219522Y-140815789D01*
X124372262Y-140719816D01*
X124477319Y-140614759D01*
X124538642Y-140581274D01*
X124608334Y-140586258D01*
X124652681Y-140614759D01*
X124757738Y-140719816D01*
X124910478Y-140815789D01*
X125066770Y-140870478D01*
X125080745Y-140875368D01*
X125080750Y-140875369D01*
X125259996Y-140895565D01*
X125260000Y-140895565D01*
X125260004Y-140895565D01*
X125439249Y-140875369D01*
X125439252Y-140875368D01*
X125439255Y-140875368D01*
X125439256Y-140875367D01*
X125439259Y-140875367D01*
X125499824Y-140854174D01*
X125569603Y-140850611D01*
X125630231Y-140885340D01*
X125662458Y-140947333D01*
X125664000Y-140985098D01*
X125654435Y-141069995D01*
X125654435Y-141070003D01*
X125674630Y-141249249D01*
X125674631Y-141249254D01*
X125734211Y-141419523D01*
X125812891Y-141544740D01*
X125830184Y-141572262D01*
X125957738Y-141699816D01*
X126110478Y-141795789D01*
X126264878Y-141849816D01*
X126280745Y-141855368D01*
X126280750Y-141855369D01*
X126459996Y-141875565D01*
X126460000Y-141875565D01*
X126460004Y-141875565D01*
X126639249Y-141855369D01*
X126639252Y-141855368D01*
X126639255Y-141855368D01*
X126809522Y-141795789D01*
X126962262Y-141699816D01*
X127089816Y-141572262D01*
X127185789Y-141419522D01*
X127245368Y-141249255D01*
X127246826Y-141236321D01*
X127259326Y-141125369D01*
X127263070Y-141092139D01*
X127290136Y-141027727D01*
X127347731Y-140988172D01*
X127417567Y-140986034D01*
X127477474Y-141021991D01*
X127493677Y-141044025D01*
X127519475Y-141088709D01*
X127519481Y-141088717D01*
X127631284Y-141200520D01*
X127631285Y-141200522D01*
X127669298Y-141238535D01*
X127702783Y-141299858D01*
X127704837Y-141312332D01*
X127714630Y-141399249D01*
X127714631Y-141399254D01*
X127714632Y-141399255D01*
X127716175Y-141403664D01*
X127774210Y-141569521D01*
X127804565Y-141617830D01*
X127870184Y-141722262D01*
X127997738Y-141849816D01*
X128150478Y-141945789D01*
X128243955Y-141978498D01*
X128320745Y-142005368D01*
X128320750Y-142005369D01*
X128499996Y-142025565D01*
X128500000Y-142025565D01*
X128500004Y-142025565D01*
X128679249Y-142005369D01*
X128679252Y-142005368D01*
X128679255Y-142005368D01*
X128849522Y-141945789D01*
X129002262Y-141849816D01*
X129129816Y-141722262D01*
X129225789Y-141569522D01*
X129285368Y-141399255D01*
X129285369Y-141399249D01*
X129305565Y-141220003D01*
X129305565Y-141219996D01*
X129285369Y-141040750D01*
X129285368Y-141040745D01*
X129260549Y-140969816D01*
X129225789Y-140870478D01*
X129129816Y-140717738D01*
X129002262Y-140590184D01*
X128988082Y-140581274D01*
X128849521Y-140494210D01*
X128747460Y-140458498D01*
X128683544Y-140436132D01*
X128626770Y-140395412D01*
X128601022Y-140330460D01*
X128600500Y-140319092D01*
X128600500Y-131980557D01*
X128620185Y-131913518D01*
X128672989Y-131867763D01*
X128742147Y-131857819D01*
X128765446Y-131863513D01*
X128770745Y-131865368D01*
X128770752Y-131865368D01*
X128770753Y-131865369D01*
X128949996Y-131885565D01*
X128950000Y-131885565D01*
X128950004Y-131885565D01*
X129129249Y-131865369D01*
X129129252Y-131865368D01*
X129129255Y-131865368D01*
X129299522Y-131805789D01*
X129446432Y-131713478D01*
X129513668Y-131694479D01*
X129580504Y-131714847D01*
X129600085Y-131730792D01*
X130753181Y-132883887D01*
X130786666Y-132945210D01*
X130789500Y-132971568D01*
X130789500Y-134517503D01*
X130769815Y-134584542D01*
X130717011Y-134630297D01*
X130647853Y-134640241D01*
X130584297Y-134611216D01*
X130560833Y-134580532D01*
X130559494Y-134581374D01*
X130493055Y-134475638D01*
X130459816Y-134422738D01*
X130332262Y-134295184D01*
X130304643Y-134277830D01*
X130179523Y-134199211D01*
X130009254Y-134139631D01*
X130009249Y-134139630D01*
X129830004Y-134119435D01*
X129829996Y-134119435D01*
X129650750Y-134139630D01*
X129650745Y-134139631D01*
X129480476Y-134199211D01*
X129327737Y-134295184D01*
X129200184Y-134422737D01*
X129104211Y-134575476D01*
X129044631Y-134745745D01*
X129044630Y-134745750D01*
X129024435Y-134924996D01*
X129024435Y-134925003D01*
X129044630Y-135104249D01*
X129044631Y-135104254D01*
X129104211Y-135274523D01*
X129173981Y-135385560D01*
X129200184Y-135427262D01*
X129327738Y-135554816D01*
X129379754Y-135587500D01*
X129404416Y-135602996D01*
X129450707Y-135655331D01*
X129461355Y-135724385D01*
X129443438Y-135773961D01*
X129414212Y-135820474D01*
X129354631Y-135990745D01*
X129354630Y-135990750D01*
X129334435Y-136169996D01*
X129334435Y-136170003D01*
X129354630Y-136349249D01*
X129354631Y-136349254D01*
X129414211Y-136519523D01*
X129510184Y-136672262D01*
X129594065Y-136756143D01*
X129627550Y-136817466D01*
X129628002Y-136868014D01*
X129605467Y-136981309D01*
X129599500Y-137011308D01*
X129599500Y-143265638D01*
X129579815Y-143332677D01*
X129563181Y-143353319D01*
X128735991Y-144180508D01*
X128674668Y-144213993D01*
X128604976Y-144209009D01*
X128549043Y-144167137D01*
X128543326Y-144158814D01*
X128479816Y-144057738D01*
X128352262Y-143930184D01*
X128310648Y-143904036D01*
X128199523Y-143834211D01*
X128029254Y-143774631D01*
X128029249Y-143774630D01*
X127850004Y-143754435D01*
X127849996Y-143754435D01*
X127670750Y-143774630D01*
X127670745Y-143774631D01*
X127500476Y-143834211D01*
X127358014Y-143923727D01*
X127290777Y-143942727D01*
X127226070Y-143923726D01*
X127099526Y-143844212D01*
X126929254Y-143784631D01*
X126929249Y-143784630D01*
X126750004Y-143764435D01*
X126749996Y-143764435D01*
X126570750Y-143784630D01*
X126570745Y-143784631D01*
X126400476Y-143844211D01*
X126247737Y-143940184D01*
X126120184Y-144067737D01*
X126024211Y-144220476D01*
X125964631Y-144390745D01*
X125964630Y-144390750D01*
X125944435Y-144569996D01*
X125944435Y-144570003D01*
X125964630Y-144749249D01*
X125964631Y-144749254D01*
X126024211Y-144919523D01*
X126075092Y-145000499D01*
X126120184Y-145072262D01*
X126247738Y-145199816D01*
X126400478Y-145295789D01*
X126533030Y-145342171D01*
X126570745Y-145355368D01*
X126570750Y-145355369D01*
X126749996Y-145375565D01*
X126750000Y-145375565D01*
X126750004Y-145375565D01*
X126929249Y-145355369D01*
X126929252Y-145355368D01*
X126929255Y-145355368D01*
X127099522Y-145295789D01*
X127241987Y-145206272D01*
X127309221Y-145187272D01*
X127373926Y-145206271D01*
X127448800Y-145253318D01*
X127495090Y-145305651D01*
X127505738Y-145374704D01*
X127477363Y-145438553D01*
X127470508Y-145445991D01*
X126693319Y-146223181D01*
X126631996Y-146256666D01*
X126605638Y-146259500D01*
X122424361Y-146259500D01*
X122357322Y-146239815D01*
X122336680Y-146223181D01*
X121296819Y-145183319D01*
X121263334Y-145121996D01*
X121260500Y-145095638D01*
X121260500Y-144580003D01*
X123114435Y-144580003D01*
X123134630Y-144759249D01*
X123134631Y-144759254D01*
X123194211Y-144929523D01*
X123238027Y-144999255D01*
X123290184Y-145082262D01*
X123417738Y-145209816D01*
X123486968Y-145253316D01*
X123554561Y-145295788D01*
X123570478Y-145305789D01*
X123740745Y-145365368D01*
X123740750Y-145365369D01*
X123919996Y-145385565D01*
X123920000Y-145385565D01*
X123920003Y-145385565D01*
X124069311Y-145368742D01*
X124138133Y-145380796D01*
X124189513Y-145428145D01*
X124200237Y-145451008D01*
X124224210Y-145519521D01*
X124278152Y-145605368D01*
X124320184Y-145672262D01*
X124447738Y-145799816D01*
X124600478Y-145895789D01*
X124745516Y-145946540D01*
X124770745Y-145955368D01*
X124770750Y-145955369D01*
X124949996Y-145975565D01*
X124950000Y-145975565D01*
X124950004Y-145975565D01*
X125129249Y-145955369D01*
X125129252Y-145955368D01*
X125129255Y-145955368D01*
X125299522Y-145895789D01*
X125452262Y-145799816D01*
X125579816Y-145672262D01*
X125675789Y-145519522D01*
X125735368Y-145349255D01*
X125736166Y-145342171D01*
X125755565Y-145170003D01*
X125755565Y-145169996D01*
X125735369Y-144990750D01*
X125735368Y-144990745D01*
X125684707Y-144845965D01*
X125675789Y-144820478D01*
X125579816Y-144667738D01*
X125452262Y-144540184D01*
X125446474Y-144536547D01*
X125299523Y-144444211D01*
X125129254Y-144384631D01*
X125129249Y-144384630D01*
X124950004Y-144364435D01*
X124949996Y-144364435D01*
X124800688Y-144381257D01*
X124731866Y-144369202D01*
X124680487Y-144321853D01*
X124669763Y-144298991D01*
X124645789Y-144230478D01*
X124625819Y-144198696D01*
X124549816Y-144077738D01*
X124422262Y-143950184D01*
X124269523Y-143854211D01*
X124099254Y-143794631D01*
X124099249Y-143794630D01*
X123920004Y-143774435D01*
X123919996Y-143774435D01*
X123740750Y-143794630D01*
X123740745Y-143794631D01*
X123570476Y-143854211D01*
X123417737Y-143950184D01*
X123290184Y-144077737D01*
X123194211Y-144230476D01*
X123134631Y-144400745D01*
X123134630Y-144400750D01*
X123114435Y-144579996D01*
X123114435Y-144580003D01*
X121260500Y-144580003D01*
X121260500Y-142751306D01*
X121260499Y-142751304D01*
X121225896Y-142577341D01*
X121225893Y-142577332D01*
X121158016Y-142413459D01*
X121158009Y-142413446D01*
X121059465Y-142265966D01*
X121003499Y-142210000D01*
X120934035Y-142140536D01*
X120643314Y-141849815D01*
X120338240Y-141544740D01*
X120304755Y-141483417D01*
X120309739Y-141413725D01*
X120351611Y-141357792D01*
X120417075Y-141333375D01*
X120466877Y-141340018D01*
X120510740Y-141355367D01*
X120510750Y-141355369D01*
X120689996Y-141375565D01*
X120690000Y-141375565D01*
X120690004Y-141375565D01*
X120869249Y-141355369D01*
X120869252Y-141355368D01*
X120869255Y-141355368D01*
X121039522Y-141295789D01*
X121192262Y-141199816D01*
X121251545Y-141140532D01*
X121312865Y-141107049D01*
X121380179Y-141111174D01*
X121420737Y-141125366D01*
X121420743Y-141125367D01*
X121420745Y-141125368D01*
X121420746Y-141125368D01*
X121420750Y-141125369D01*
X121599996Y-141145565D01*
X121600000Y-141145565D01*
X121600004Y-141145565D01*
X121779249Y-141125369D01*
X121779252Y-141125368D01*
X121779255Y-141125368D01*
X121949522Y-141065789D01*
X122102262Y-140969816D01*
X122229816Y-140842262D01*
X122325789Y-140689522D01*
X122385368Y-140519255D01*
X122390204Y-140476335D01*
X122405565Y-140340003D01*
X122405565Y-140339996D01*
X122385369Y-140160750D01*
X122385368Y-140160745D01*
X122337998Y-140025369D01*
X122325789Y-139990478D01*
X122229816Y-139837738D01*
X122102262Y-139710184D01*
X122032098Y-139666097D01*
X121949523Y-139614211D01*
X121779254Y-139554631D01*
X121779249Y-139554630D01*
X121600004Y-139534435D01*
X121599996Y-139534435D01*
X121420750Y-139554630D01*
X121420745Y-139554631D01*
X121250476Y-139614211D01*
X121097737Y-139710184D01*
X121038455Y-139769466D01*
X120977131Y-139802950D01*
X120909820Y-139798826D01*
X120869252Y-139784631D01*
X120690004Y-139764435D01*
X120689995Y-139764435D01*
X120616695Y-139772693D01*
X120547873Y-139760638D01*
X120496494Y-139713288D01*
X120486043Y-139691007D01*
X120485789Y-139690477D01*
X120400431Y-139554632D01*
X120389816Y-139537738D01*
X120262262Y-139410184D01*
X120251906Y-139403677D01*
X120109523Y-139314211D01*
X119939254Y-139254631D01*
X119939249Y-139254630D01*
X119760004Y-139234435D01*
X119759996Y-139234435D01*
X119634731Y-139248548D01*
X119565909Y-139236493D01*
X119514530Y-139189144D01*
X119503806Y-139166282D01*
X119498107Y-139149996D01*
X119445789Y-139000478D01*
X119349816Y-138847738D01*
X119222262Y-138720184D01*
X119106965Y-138647738D01*
X119069521Y-138624210D01*
X118899249Y-138564630D01*
X118830616Y-138556897D01*
X118766202Y-138529830D01*
X118726647Y-138472235D01*
X118720500Y-138433677D01*
X118720500Y-138184360D01*
X118740185Y-138117321D01*
X118756815Y-138096683D01*
X119073826Y-137779671D01*
X119073831Y-137779668D01*
X119084034Y-137769464D01*
X119084036Y-137769464D01*
X120076680Y-136776818D01*
X120138003Y-136743334D01*
X120164361Y-136740500D01*
X120988693Y-136740500D01*
X120988694Y-136740499D01*
X121046682Y-136728964D01*
X121162658Y-136705896D01*
X121162661Y-136705894D01*
X121162666Y-136705894D01*
X121326547Y-136638013D01*
X121474035Y-136539464D01*
X121599464Y-136414035D01*
X121698013Y-136266547D01*
X121765894Y-136102666D01*
X121767346Y-136095369D01*
X121800499Y-135928695D01*
X121800500Y-135928693D01*
X121800500Y-135751306D01*
X121800499Y-135751304D01*
X121765896Y-135577341D01*
X121765893Y-135577332D01*
X121759957Y-135563002D01*
X121729411Y-135489255D01*
X121698016Y-135413459D01*
X121698009Y-135413446D01*
X121599464Y-135265965D01*
X121599461Y-135265961D01*
X121469751Y-135136251D01*
X121436266Y-135074928D01*
X121441250Y-135005236D01*
X121452433Y-134982606D01*
X121485789Y-134929522D01*
X121545368Y-134759255D01*
X121546890Y-134745750D01*
X121565565Y-134580003D01*
X121565565Y-134579996D01*
X121545369Y-134400750D01*
X121545368Y-134400745D01*
X121514073Y-134311309D01*
X121485789Y-134230478D01*
X121389816Y-134077738D01*
X121262262Y-133950184D01*
X121207577Y-133915823D01*
X121109523Y-133854211D01*
X120939254Y-133794631D01*
X120939249Y-133794630D01*
X120760004Y-133774435D01*
X120759996Y-133774435D01*
X120580750Y-133794630D01*
X120580745Y-133794631D01*
X120410476Y-133854211D01*
X120257737Y-133950184D01*
X120130184Y-134077737D01*
X120034211Y-134230476D01*
X119974631Y-134400745D01*
X119974630Y-134400750D01*
X119954435Y-134579996D01*
X119954435Y-134580003D01*
X119974630Y-134759249D01*
X119974632Y-134759257D01*
X119979982Y-134774546D01*
X119983543Y-134844325D01*
X119948814Y-134904952D01*
X119886820Y-134937179D01*
X119862940Y-134939500D01*
X119651304Y-134939500D01*
X119477341Y-134974103D01*
X119477333Y-134974105D01*
X119371774Y-135017830D01*
X119313455Y-135041986D01*
X119313451Y-135041988D01*
X119226356Y-135100184D01*
X119226355Y-135100184D01*
X119165969Y-135140532D01*
X119165961Y-135140538D01*
X118597680Y-135708819D01*
X118536357Y-135742304D01*
X118466665Y-135737320D01*
X118422318Y-135708819D01*
X117866833Y-135153334D01*
X117276819Y-134563319D01*
X117243334Y-134501996D01*
X117240500Y-134475638D01*
X117240500Y-132600003D01*
X120354435Y-132600003D01*
X120374630Y-132779249D01*
X120374631Y-132779254D01*
X120434211Y-132949523D01*
X120509912Y-133070000D01*
X120530184Y-133102262D01*
X120657738Y-133229816D01*
X120736100Y-133279054D01*
X120802450Y-133320745D01*
X120810478Y-133325789D01*
X120921371Y-133364592D01*
X120980745Y-133385368D01*
X120980750Y-133385369D01*
X121159996Y-133405565D01*
X121160000Y-133405565D01*
X121160004Y-133405565D01*
X121339249Y-133385369D01*
X121339252Y-133385368D01*
X121339255Y-133385368D01*
X121509522Y-133325789D01*
X121662262Y-133229816D01*
X121789816Y-133102262D01*
X121885789Y-132949522D01*
X121945368Y-132779255D01*
X121945369Y-132779249D01*
X121965565Y-132600003D01*
X121965565Y-132599996D01*
X121945369Y-132420750D01*
X121945368Y-132420745D01*
X121901956Y-132296680D01*
X121885789Y-132250478D01*
X121789816Y-132097738D01*
X121662262Y-131970184D01*
X121600541Y-131931402D01*
X121509523Y-131874211D01*
X121339254Y-131814631D01*
X121339249Y-131814630D01*
X121160004Y-131794435D01*
X121159996Y-131794435D01*
X120980750Y-131814630D01*
X120980745Y-131814631D01*
X120810476Y-131874211D01*
X120657737Y-131970184D01*
X120530184Y-132097737D01*
X120434211Y-132250476D01*
X120374631Y-132420745D01*
X120374630Y-132420750D01*
X120354435Y-132599996D01*
X120354435Y-132600003D01*
X117240500Y-132600003D01*
X117240500Y-129934360D01*
X117260185Y-129867321D01*
X117276814Y-129846683D01*
X118066954Y-129056543D01*
X118128275Y-129023060D01*
X118197966Y-129028044D01*
X118253900Y-129069916D01*
X118277853Y-129130342D01*
X118294630Y-129279250D01*
X118294631Y-129279254D01*
X118354211Y-129449523D01*
X118423363Y-129559577D01*
X118450184Y-129602262D01*
X118577738Y-129729816D01*
X118659367Y-129781107D01*
X118728636Y-129824632D01*
X118730478Y-129825789D01*
X118900745Y-129885368D01*
X118900750Y-129885369D01*
X119079996Y-129905565D01*
X119080000Y-129905565D01*
X119080004Y-129905565D01*
X119259249Y-129885369D01*
X119259252Y-129885368D01*
X119259255Y-129885368D01*
X119429522Y-129825789D01*
X119582262Y-129729816D01*
X119709816Y-129602262D01*
X119805789Y-129449522D01*
X119865368Y-129279255D01*
X119866411Y-129270003D01*
X119885565Y-129100001D01*
X119885565Y-129099996D01*
X119865369Y-128920750D01*
X119865368Y-128920745D01*
X119842492Y-128855369D01*
X119805789Y-128750478D01*
X119774384Y-128700498D01*
X119742955Y-128650478D01*
X119709816Y-128597738D01*
X119582262Y-128470184D01*
X119537941Y-128442335D01*
X119429523Y-128374211D01*
X119259254Y-128314631D01*
X119259250Y-128314630D01*
X119110342Y-128297853D01*
X119045928Y-128270787D01*
X119006373Y-128213192D01*
X119004236Y-128143355D01*
X119036543Y-128086954D01*
X119874714Y-127248783D01*
X119936036Y-127215300D01*
X120005728Y-127220284D01*
X120061661Y-127262156D01*
X120067387Y-127270493D01*
X120150182Y-127402260D01*
X120150184Y-127402262D01*
X120277738Y-127529816D01*
X120430478Y-127625789D01*
X120586936Y-127680536D01*
X120600745Y-127685368D01*
X120600750Y-127685369D01*
X120779996Y-127705565D01*
X120780000Y-127705565D01*
X120780004Y-127705565D01*
X120959249Y-127685369D01*
X120959252Y-127685368D01*
X120959255Y-127685368D01*
X121129522Y-127625789D01*
X121282262Y-127529816D01*
X121409816Y-127402262D01*
X121505789Y-127249522D01*
X121565368Y-127079255D01*
X121565369Y-127079249D01*
X121585565Y-126900003D01*
X121585565Y-126899996D01*
X121565369Y-126720750D01*
X121565366Y-126720737D01*
X121543828Y-126659185D01*
X121540266Y-126589406D01*
X121574994Y-126528779D01*
X121636988Y-126496551D01*
X121706563Y-126502956D01*
G37*
%TD.AperFunction*%
%TA.AperFunction,Conductor*%
G36*
X126535948Y-129985629D02*
G01*
X126542426Y-129991661D01*
X127363181Y-130812416D01*
X127396666Y-130873739D01*
X127399500Y-130900097D01*
X127399500Y-134685686D01*
X127379815Y-134752725D01*
X127327011Y-134798480D01*
X127257853Y-134808424D01*
X127194297Y-134779399D01*
X127186493Y-134771118D01*
X127186267Y-134771345D01*
X126367064Y-133952142D01*
X126333579Y-133890819D01*
X126330745Y-133864461D01*
X126330745Y-130079342D01*
X126350430Y-130012303D01*
X126403234Y-129966548D01*
X126472392Y-129956604D01*
X126535948Y-129985629D01*
G37*
%TD.AperFunction*%
%TA.AperFunction,Conductor*%
G36*
X124495197Y-129719113D02*
G01*
X124527424Y-129781107D01*
X124529745Y-129804987D01*
X124529745Y-132981148D01*
X124510060Y-133048187D01*
X124457256Y-133093942D01*
X124388098Y-133103886D01*
X124324542Y-133074861D01*
X124318064Y-133068829D01*
X124236819Y-132987584D01*
X124203334Y-132926261D01*
X124200500Y-132899903D01*
X124200500Y-129833415D01*
X124220185Y-129766376D01*
X124272989Y-129720621D01*
X124283531Y-129716378D01*
X124364791Y-129687945D01*
X124434570Y-129684384D01*
X124495197Y-129719113D01*
G37*
%TD.AperFunction*%
%TA.AperFunction,Conductor*%
G36*
X128658333Y-118575548D02*
G01*
X128702681Y-118604049D01*
X131083181Y-120984549D01*
X131116666Y-121045872D01*
X131119500Y-121072230D01*
X131119500Y-122047769D01*
X131099815Y-122114808D01*
X131083181Y-122135450D01*
X129798035Y-123420595D01*
X129736712Y-123454080D01*
X129667020Y-123449096D01*
X129622673Y-123420595D01*
X129512262Y-123310184D01*
X129359523Y-123214211D01*
X129189254Y-123154631D01*
X129189249Y-123154630D01*
X129010004Y-123134435D01*
X129009996Y-123134435D01*
X128830750Y-123154630D01*
X128830737Y-123154633D01*
X128660479Y-123214209D01*
X128593150Y-123256515D01*
X128525913Y-123275515D01*
X128486225Y-123268563D01*
X128451793Y-123256515D01*
X128389255Y-123234632D01*
X128389254Y-123234631D01*
X128389252Y-123234631D01*
X128210004Y-123214435D01*
X128209996Y-123214435D01*
X128030750Y-123234630D01*
X128030737Y-123234633D01*
X127860479Y-123294209D01*
X127813023Y-123324028D01*
X127745786Y-123343028D01*
X127706097Y-123336075D01*
X127588688Y-123294991D01*
X127588675Y-123294988D01*
X127409430Y-123274793D01*
X127409422Y-123274793D01*
X127230176Y-123294988D01*
X127230168Y-123294990D01*
X127082824Y-123346548D01*
X127013045Y-123350109D01*
X126975899Y-123334501D01*
X126959522Y-123324211D01*
X126789254Y-123264631D01*
X126789249Y-123264630D01*
X126610004Y-123244435D01*
X126609996Y-123244435D01*
X126430750Y-123264630D01*
X126430745Y-123264631D01*
X126260476Y-123324211D01*
X126107737Y-123420184D01*
X125980184Y-123547737D01*
X125980182Y-123547740D01*
X125932904Y-123622982D01*
X125880569Y-123669273D01*
X125811516Y-123679920D01*
X125747668Y-123651545D01*
X125740230Y-123644690D01*
X125667035Y-123571495D01*
X125514294Y-123475521D01*
X125344022Y-123415941D01*
X125342091Y-123415724D01*
X125340925Y-123415234D01*
X125337232Y-123414391D01*
X125337379Y-123413744D01*
X125277677Y-123388657D01*
X125250981Y-123358476D01*
X125208038Y-123290133D01*
X125189038Y-123222897D01*
X125195989Y-123183211D01*
X125225368Y-123099255D01*
X125226933Y-123085368D01*
X125245565Y-122920003D01*
X125245565Y-122919996D01*
X125225369Y-122740750D01*
X125225368Y-122740745D01*
X125165788Y-122570476D01*
X125129556Y-122512813D01*
X125110556Y-122445576D01*
X125127303Y-122388550D01*
X125126034Y-122387939D01*
X125129051Y-122381674D01*
X125129052Y-122381673D01*
X125188631Y-122211406D01*
X125192228Y-122179480D01*
X125208828Y-122032154D01*
X125208828Y-122032147D01*
X125188632Y-121852904D01*
X125188631Y-121852902D01*
X125188631Y-121852896D01*
X125153019Y-121751126D01*
X125149458Y-121681348D01*
X125165068Y-121644199D01*
X125168313Y-121639035D01*
X125202250Y-121585026D01*
X125242296Y-121470581D01*
X125261827Y-121414766D01*
X125261830Y-121414753D01*
X125282026Y-121235507D01*
X125282026Y-121235500D01*
X125261830Y-121056254D01*
X125261829Y-121056249D01*
X125246977Y-121013805D01*
X125202250Y-120885982D01*
X125106277Y-120733242D01*
X125102218Y-120729183D01*
X125068733Y-120667860D01*
X125066679Y-120627619D01*
X125071190Y-120587580D01*
X125098256Y-120523166D01*
X125128438Y-120496469D01*
X125129517Y-120495790D01*
X125129522Y-120495789D01*
X125282262Y-120399816D01*
X125409816Y-120272262D01*
X125409818Y-120272258D01*
X125414155Y-120266821D01*
X125416533Y-120268717D01*
X125458625Y-120231351D01*
X125527659Y-120220577D01*
X125552443Y-120226477D01*
X125720737Y-120285366D01*
X125720743Y-120285367D01*
X125720745Y-120285368D01*
X125720746Y-120285368D01*
X125720750Y-120285369D01*
X125899996Y-120305565D01*
X125900000Y-120305565D01*
X125900004Y-120305565D01*
X126079249Y-120285369D01*
X126079252Y-120285368D01*
X126079255Y-120285368D01*
X126249522Y-120225789D01*
X126252034Y-120224211D01*
X126284027Y-120204108D01*
X126351263Y-120185107D01*
X126415973Y-120204108D01*
X126450475Y-120225788D01*
X126620745Y-120285368D01*
X126620750Y-120285369D01*
X126799996Y-120305565D01*
X126800000Y-120305565D01*
X126800004Y-120305565D01*
X126979249Y-120285369D01*
X126979252Y-120285368D01*
X126979255Y-120285368D01*
X127149522Y-120225789D01*
X127302262Y-120129816D01*
X127315240Y-120116837D01*
X127376562Y-120083352D01*
X127443878Y-120087476D01*
X127580737Y-120135366D01*
X127580743Y-120135367D01*
X127580745Y-120135368D01*
X127580746Y-120135368D01*
X127580750Y-120135369D01*
X127759996Y-120155565D01*
X127760000Y-120155565D01*
X127760004Y-120155565D01*
X127939249Y-120135369D01*
X127939252Y-120135368D01*
X127939255Y-120135368D01*
X128109522Y-120075789D01*
X128262262Y-119979816D01*
X128389816Y-119852262D01*
X128485789Y-119699522D01*
X128545368Y-119529255D01*
X128553230Y-119459480D01*
X128565565Y-119350003D01*
X128565565Y-119349996D01*
X128545369Y-119170750D01*
X128545368Y-119170745D01*
X128522450Y-119105250D01*
X128485789Y-119000478D01*
X128395427Y-118856668D01*
X128376428Y-118789434D01*
X128396796Y-118722598D01*
X128431530Y-118687597D01*
X128468416Y-118662952D01*
X128527320Y-118604047D01*
X128588641Y-118570564D01*
X128658333Y-118575548D01*
G37*
%TD.AperFunction*%
%TA.AperFunction,Conductor*%
G36*
X125862676Y-116190185D02*
G01*
X125883317Y-116206818D01*
X125940091Y-116263591D01*
X125973577Y-116324914D01*
X125976411Y-116351273D01*
X125976411Y-116664971D01*
X125956726Y-116732010D01*
X125903922Y-116777765D01*
X125834764Y-116787709D01*
X125771208Y-116758684D01*
X125764730Y-116752652D01*
X125672262Y-116660184D01*
X125519523Y-116564211D01*
X125349254Y-116504631D01*
X125349249Y-116504630D01*
X125170004Y-116484435D01*
X125169996Y-116484435D01*
X124990750Y-116504630D01*
X124990745Y-116504631D01*
X124820476Y-116564211D01*
X124667737Y-116660184D01*
X124540184Y-116787737D01*
X124444211Y-116940476D01*
X124384631Y-117110745D01*
X124384630Y-117110750D01*
X124364435Y-117289996D01*
X124364435Y-117290003D01*
X124384630Y-117469249D01*
X124384631Y-117469254D01*
X124444211Y-117639523D01*
X124540184Y-117792262D01*
X124605580Y-117857658D01*
X124639065Y-117918981D01*
X124634081Y-117988673D01*
X124592209Y-118044606D01*
X124549976Y-118065118D01*
X124546818Y-118065963D01*
X124546819Y-118065964D01*
X124418214Y-118100423D01*
X124418209Y-118100426D01*
X124281290Y-118179475D01*
X124281282Y-118179481D01*
X124087246Y-118373518D01*
X124025923Y-118407003D01*
X123956231Y-118402019D01*
X123900298Y-118360147D01*
X123875881Y-118294683D01*
X123875565Y-118285837D01*
X123875565Y-118279996D01*
X123855369Y-118100752D01*
X123855368Y-118100751D01*
X123855368Y-118100745D01*
X123854134Y-118097220D01*
X123854011Y-118094800D01*
X123853820Y-118093963D01*
X123853966Y-118093929D01*
X123850570Y-118027447D01*
X123877500Y-117979321D01*
X123875475Y-117977706D01*
X123879815Y-117972263D01*
X123899751Y-117940536D01*
X123975789Y-117819522D01*
X124035368Y-117649255D01*
X124038012Y-117625788D01*
X124055565Y-117470003D01*
X124055565Y-117469996D01*
X124035369Y-117290750D01*
X124035368Y-117290745D01*
X124010046Y-117218378D01*
X123975789Y-117120478D01*
X123969676Y-117110750D01*
X123879815Y-116967737D01*
X123752262Y-116840184D01*
X123599523Y-116744211D01*
X123429254Y-116684631D01*
X123429249Y-116684630D01*
X123250004Y-116664435D01*
X123249996Y-116664435D01*
X123070750Y-116684630D01*
X123070745Y-116684631D01*
X122900476Y-116744211D01*
X122747737Y-116840184D01*
X122620184Y-116967737D01*
X122524211Y-117120476D01*
X122464631Y-117290745D01*
X122464630Y-117290750D01*
X122444435Y-117469996D01*
X122444435Y-117470003D01*
X122464630Y-117649246D01*
X122464632Y-117649257D01*
X122465867Y-117652785D01*
X122465990Y-117655204D01*
X122466181Y-117656039D01*
X122466034Y-117656072D01*
X122469426Y-117722564D01*
X122442515Y-117770692D01*
X122444525Y-117772295D01*
X122440184Y-117777738D01*
X122344211Y-117930476D01*
X122284631Y-118100745D01*
X122284630Y-118100750D01*
X122264435Y-118279996D01*
X122264435Y-118280003D01*
X122284630Y-118459249D01*
X122284631Y-118459254D01*
X122344211Y-118629523D01*
X122427559Y-118762169D01*
X122440184Y-118782262D01*
X122567738Y-118909816D01*
X122654977Y-118964632D01*
X122713672Y-119001513D01*
X122720478Y-119005789D01*
X122790195Y-119030184D01*
X122890745Y-119065368D01*
X122890750Y-119065369D01*
X123069996Y-119085565D01*
X123075838Y-119085565D01*
X123142877Y-119105250D01*
X123188632Y-119158054D01*
X123198576Y-119227212D01*
X123169551Y-119290768D01*
X123163519Y-119297246D01*
X123157584Y-119303181D01*
X123096261Y-119336666D01*
X123069903Y-119339500D01*
X122299057Y-119339500D01*
X122140942Y-119339500D01*
X121988215Y-119380423D01*
X121988214Y-119380423D01*
X121988212Y-119380424D01*
X121988209Y-119380425D01*
X121953480Y-119400477D01*
X121953478Y-119400478D01*
X121851290Y-119459475D01*
X121851282Y-119459481D01*
X121781515Y-119529249D01*
X121739480Y-119571284D01*
X121739478Y-119571286D01*
X121650768Y-119659996D01*
X121591465Y-119719299D01*
X121530142Y-119752783D01*
X121517668Y-119754837D01*
X121430750Y-119764630D01*
X121280039Y-119817366D01*
X121210260Y-119820927D01*
X121173115Y-119805319D01*
X121139522Y-119784211D01*
X121139520Y-119784210D01*
X121139518Y-119784209D01*
X120969262Y-119724633D01*
X120969249Y-119724630D01*
X120790004Y-119704435D01*
X120789996Y-119704435D01*
X120610750Y-119724630D01*
X120610745Y-119724631D01*
X120440476Y-119784211D01*
X120287737Y-119880184D01*
X120155260Y-120012662D01*
X120153989Y-120011391D01*
X120104245Y-120046299D01*
X120034433Y-120049140D01*
X119974167Y-120013788D01*
X119942581Y-119951465D01*
X119940500Y-119928841D01*
X119940500Y-119254362D01*
X119960185Y-119187323D01*
X119976819Y-119166681D01*
X120979461Y-118164039D01*
X120979464Y-118164036D01*
X120990265Y-118147871D01*
X121008554Y-118120501D01*
X121008554Y-118120500D01*
X121078009Y-118016553D01*
X121078009Y-118016552D01*
X121078013Y-118016547D01*
X121145895Y-117852666D01*
X121180500Y-117678692D01*
X121180500Y-117501308D01*
X121180500Y-116894361D01*
X121200185Y-116827322D01*
X121216819Y-116806680D01*
X121816680Y-116206819D01*
X121878003Y-116173334D01*
X121904361Y-116170500D01*
X125795637Y-116170500D01*
X125862676Y-116190185D01*
G37*
%TD.AperFunction*%
%TA.AperFunction,Conductor*%
G36*
X141083363Y-104995185D02*
G01*
X141104005Y-105011819D01*
X156263181Y-120170995D01*
X156296666Y-120232318D01*
X156299500Y-120258676D01*
X156299500Y-151491324D01*
X156279815Y-151558363D01*
X156263181Y-151579005D01*
X141104005Y-166738181D01*
X141042682Y-166771666D01*
X141016324Y-166774500D01*
X109783676Y-166774500D01*
X109716637Y-166754815D01*
X109695995Y-166738181D01*
X107455684Y-164497870D01*
X115979500Y-164497870D01*
X115979501Y-164497876D01*
X115985908Y-164557483D01*
X116036202Y-164692328D01*
X116036206Y-164692335D01*
X116122452Y-164807544D01*
X116122455Y-164807547D01*
X116237664Y-164893793D01*
X116237671Y-164893797D01*
X116372517Y-164944091D01*
X116372516Y-164944091D01*
X116379444Y-164944835D01*
X116432127Y-164950500D01*
X118227872Y-164950499D01*
X118287483Y-164944091D01*
X118422331Y-164893796D01*
X118537546Y-164807546D01*
X118623796Y-164692331D01*
X118672810Y-164560916D01*
X118714681Y-164504984D01*
X118780145Y-164480566D01*
X118848418Y-164495417D01*
X118876673Y-164516569D01*
X118998599Y-164638495D01*
X119095384Y-164706265D01*
X119192165Y-164774032D01*
X119192167Y-164774033D01*
X119192170Y-164774035D01*
X119406337Y-164873903D01*
X119634592Y-164935063D01*
X119811034Y-164950500D01*
X119869999Y-164955659D01*
X119870000Y-164955659D01*
X119870001Y-164955659D01*
X119928966Y-164950500D01*
X120105408Y-164935063D01*
X120333663Y-164873903D01*
X120547830Y-164774035D01*
X120741401Y-164638495D01*
X120908495Y-164471401D01*
X121038425Y-164285842D01*
X121093002Y-164242217D01*
X121162500Y-164235023D01*
X121224855Y-164266546D01*
X121241575Y-164285842D01*
X121371500Y-164471395D01*
X121371505Y-164471401D01*
X121538599Y-164638495D01*
X121635384Y-164706265D01*
X121732165Y-164774032D01*
X121732167Y-164774033D01*
X121732170Y-164774035D01*
X121946337Y-164873903D01*
X122174592Y-164935063D01*
X122351034Y-164950500D01*
X122409999Y-164955659D01*
X122410000Y-164955659D01*
X122410001Y-164955659D01*
X122468966Y-164950500D01*
X122645408Y-164935063D01*
X122873663Y-164873903D01*
X123087830Y-164774035D01*
X123281401Y-164638495D01*
X123448495Y-164471401D01*
X123578425Y-164285842D01*
X123633002Y-164242217D01*
X123702500Y-164235023D01*
X123764855Y-164266546D01*
X123781575Y-164285842D01*
X123911500Y-164471395D01*
X123911505Y-164471401D01*
X124078599Y-164638495D01*
X124175384Y-164706265D01*
X124272165Y-164774032D01*
X124272167Y-164774033D01*
X124272170Y-164774035D01*
X124486337Y-164873903D01*
X124714592Y-164935063D01*
X124891034Y-164950500D01*
X124949999Y-164955659D01*
X124950000Y-164955659D01*
X124950001Y-164955659D01*
X125008966Y-164950500D01*
X125185408Y-164935063D01*
X125413663Y-164873903D01*
X125627830Y-164774035D01*
X125821401Y-164638495D01*
X125988495Y-164471401D01*
X126124035Y-164277830D01*
X126223903Y-164063663D01*
X126285063Y-163835408D01*
X126305659Y-163600000D01*
X126288161Y-163400000D01*
X133009341Y-163400000D01*
X133029936Y-163635403D01*
X133029938Y-163635413D01*
X133091094Y-163863655D01*
X133091096Y-163863659D01*
X133091097Y-163863663D01*
X133184355Y-164063655D01*
X133190965Y-164077830D01*
X133190967Y-164077834D01*
X133299281Y-164232521D01*
X133326505Y-164271401D01*
X133493599Y-164438495D01*
X133578404Y-164497876D01*
X133687165Y-164574032D01*
X133687167Y-164574033D01*
X133687170Y-164574035D01*
X133901337Y-164673903D01*
X134129592Y-164735063D01*
X134317918Y-164751539D01*
X134364999Y-164755659D01*
X134365000Y-164755659D01*
X134365001Y-164755659D01*
X134404234Y-164752226D01*
X134600408Y-164735063D01*
X134828663Y-164673903D01*
X135042830Y-164574035D01*
X135236401Y-164438495D01*
X135403495Y-164271401D01*
X135539035Y-164077830D01*
X135638903Y-163863663D01*
X135700063Y-163635408D01*
X135720659Y-163400000D01*
X135717561Y-163364596D01*
X135700063Y-163164596D01*
X135700063Y-163164592D01*
X135638903Y-162936337D01*
X135539035Y-162722171D01*
X135531865Y-162711930D01*
X135403494Y-162528597D01*
X135236402Y-162361506D01*
X135236395Y-162361501D01*
X135042834Y-162225967D01*
X135042830Y-162225965D01*
X135042828Y-162225964D01*
X134828663Y-162126097D01*
X134828659Y-162126096D01*
X134828655Y-162126094D01*
X134600413Y-162064938D01*
X134600403Y-162064936D01*
X134365001Y-162044341D01*
X134364999Y-162044341D01*
X134129596Y-162064936D01*
X134129586Y-162064938D01*
X133901344Y-162126094D01*
X133901335Y-162126098D01*
X133687171Y-162225964D01*
X133687169Y-162225965D01*
X133493597Y-162361505D01*
X133326505Y-162528597D01*
X133190965Y-162722169D01*
X133190964Y-162722171D01*
X133091098Y-162936335D01*
X133091094Y-162936344D01*
X133029938Y-163164586D01*
X133029936Y-163164596D01*
X133009341Y-163399999D01*
X133009341Y-163400000D01*
X126288161Y-163400000D01*
X126285063Y-163364592D01*
X126223903Y-163136337D01*
X126124035Y-162922171D01*
X126118425Y-162914158D01*
X125988494Y-162728597D01*
X125821402Y-162561506D01*
X125821395Y-162561501D01*
X125627834Y-162425967D01*
X125627830Y-162425965D01*
X125627828Y-162425964D01*
X125413663Y-162326097D01*
X125413659Y-162326096D01*
X125413655Y-162326094D01*
X125185413Y-162264938D01*
X125185403Y-162264936D01*
X124950001Y-162244341D01*
X124949999Y-162244341D01*
X124714596Y-162264936D01*
X124714586Y-162264938D01*
X124486344Y-162326094D01*
X124486335Y-162326098D01*
X124272171Y-162425964D01*
X124272169Y-162425965D01*
X124078597Y-162561505D01*
X123911505Y-162728597D01*
X123781575Y-162914158D01*
X123726998Y-162957783D01*
X123657500Y-162964977D01*
X123595145Y-162933454D01*
X123578425Y-162914158D01*
X123448494Y-162728597D01*
X123281402Y-162561506D01*
X123281395Y-162561501D01*
X123087834Y-162425967D01*
X123087830Y-162425965D01*
X123087828Y-162425964D01*
X122873663Y-162326097D01*
X122873659Y-162326096D01*
X122873655Y-162326094D01*
X122645413Y-162264938D01*
X122645403Y-162264936D01*
X122410001Y-162244341D01*
X122409999Y-162244341D01*
X122174596Y-162264936D01*
X122174586Y-162264938D01*
X121946344Y-162326094D01*
X121946335Y-162326098D01*
X121732171Y-162425964D01*
X121732169Y-162425965D01*
X121538597Y-162561505D01*
X121371505Y-162728597D01*
X121241575Y-162914158D01*
X121186998Y-162957783D01*
X121117500Y-162964977D01*
X121055145Y-162933454D01*
X121038425Y-162914158D01*
X120908494Y-162728597D01*
X120741402Y-162561506D01*
X120741395Y-162561501D01*
X120547834Y-162425967D01*
X120547830Y-162425965D01*
X120547828Y-162425964D01*
X120333663Y-162326097D01*
X120333659Y-162326096D01*
X120333655Y-162326094D01*
X120105413Y-162264938D01*
X120105403Y-162264936D01*
X119870001Y-162244341D01*
X119869999Y-162244341D01*
X119634596Y-162264936D01*
X119634586Y-162264938D01*
X119406344Y-162326094D01*
X119406335Y-162326098D01*
X119192171Y-162425964D01*
X119192169Y-162425965D01*
X118998600Y-162561503D01*
X118876673Y-162683430D01*
X118815350Y-162716914D01*
X118745658Y-162711930D01*
X118689725Y-162670058D01*
X118672810Y-162639081D01*
X118623797Y-162507671D01*
X118623793Y-162507664D01*
X118537547Y-162392455D01*
X118537544Y-162392452D01*
X118422335Y-162306206D01*
X118422328Y-162306202D01*
X118287482Y-162255908D01*
X118287483Y-162255908D01*
X118227883Y-162249501D01*
X118227881Y-162249500D01*
X118227873Y-162249500D01*
X118227864Y-162249500D01*
X116432129Y-162249500D01*
X116432123Y-162249501D01*
X116372516Y-162255908D01*
X116237671Y-162306202D01*
X116237664Y-162306206D01*
X116122455Y-162392452D01*
X116122452Y-162392455D01*
X116036206Y-162507664D01*
X116036202Y-162507671D01*
X115985908Y-162642517D01*
X115979501Y-162702116D01*
X115979500Y-162702135D01*
X115979500Y-164497870D01*
X107455684Y-164497870D01*
X94536819Y-151579005D01*
X94503334Y-151517682D01*
X94500500Y-151491324D01*
X94500500Y-146019999D01*
X95844341Y-146019999D01*
X95864936Y-146255403D01*
X95864938Y-146255413D01*
X95926094Y-146483655D01*
X95926096Y-146483659D01*
X95926097Y-146483663D01*
X96025965Y-146697830D01*
X96025967Y-146697834D01*
X96120387Y-146832679D01*
X96161505Y-146891401D01*
X96328599Y-147058495D01*
X96425384Y-147126265D01*
X96522165Y-147194032D01*
X96522167Y-147194033D01*
X96522170Y-147194035D01*
X96736337Y-147293903D01*
X96964592Y-147355063D01*
X97152918Y-147371539D01*
X97199999Y-147375659D01*
X97200000Y-147375659D01*
X97200001Y-147375659D01*
X97239234Y-147372226D01*
X97435408Y-147355063D01*
X97663663Y-147293903D01*
X97877830Y-147194035D01*
X98071401Y-147058495D01*
X98238495Y-146891401D01*
X98374035Y-146697830D01*
X98473903Y-146483663D01*
X98535063Y-146255408D01*
X98555659Y-146020000D01*
X98535063Y-145784592D01*
X98473903Y-145556337D01*
X98374035Y-145342171D01*
X98348561Y-145305789D01*
X98238494Y-145148597D01*
X98071402Y-144981506D01*
X98071396Y-144981501D01*
X97885842Y-144851575D01*
X97842217Y-144796998D01*
X97835023Y-144727500D01*
X97866546Y-144665145D01*
X97885842Y-144648425D01*
X97908026Y-144632891D01*
X98071401Y-144518495D01*
X98238495Y-144351401D01*
X98345420Y-144198696D01*
X103529500Y-144198696D01*
X103564103Y-144372658D01*
X103564105Y-144372666D01*
X103631988Y-144536548D01*
X103730534Y-144684034D01*
X103730540Y-144684041D01*
X110893181Y-151846680D01*
X110926666Y-151908003D01*
X110929500Y-151934361D01*
X110929500Y-155748696D01*
X110964103Y-155922659D01*
X110964106Y-155922669D01*
X110977172Y-155954211D01*
X110977173Y-155954214D01*
X111031984Y-156086542D01*
X111031985Y-156086543D01*
X111031987Y-156086547D01*
X111075896Y-156152260D01*
X111075896Y-156152261D01*
X111130537Y-156234038D01*
X111130540Y-156234041D01*
X114060536Y-159164035D01*
X114185965Y-159289464D01*
X114333453Y-159388013D01*
X114381452Y-159407895D01*
X114497334Y-159455895D01*
X114671303Y-159490499D01*
X114671307Y-159490500D01*
X114671308Y-159490500D01*
X136888693Y-159490500D01*
X136888694Y-159490499D01*
X136946682Y-159478964D01*
X137062658Y-159455896D01*
X137062661Y-159455894D01*
X137062666Y-159455894D01*
X137226547Y-159388013D01*
X137374035Y-159289464D01*
X137499464Y-159164035D01*
X137598013Y-159016547D01*
X137665894Y-158852666D01*
X137700500Y-158678691D01*
X137700500Y-158501309D01*
X137700500Y-158501306D01*
X137700499Y-158501304D01*
X137665896Y-158327341D01*
X137665893Y-158327332D01*
X137598016Y-158163459D01*
X137598009Y-158163446D01*
X137499464Y-158015965D01*
X137499461Y-158015961D01*
X137374038Y-157890538D01*
X137374034Y-157890535D01*
X137226553Y-157791990D01*
X137226540Y-157791983D01*
X137062667Y-157724106D01*
X137062658Y-157724103D01*
X136888694Y-157689500D01*
X136888691Y-157689500D01*
X133317497Y-157689500D01*
X133250458Y-157669815D01*
X133204703Y-157617011D01*
X133194759Y-157547853D01*
X133223784Y-157484297D01*
X133254467Y-157460833D01*
X133253626Y-157459494D01*
X133339096Y-157405789D01*
X133412262Y-157359816D01*
X133539816Y-157232262D01*
X133635789Y-157079522D01*
X133695368Y-156909255D01*
X133701002Y-156859254D01*
X133715565Y-156730003D01*
X133715565Y-156729996D01*
X133695369Y-156550750D01*
X133695368Y-156550745D01*
X133635788Y-156380476D01*
X133543776Y-156234041D01*
X133539816Y-156227738D01*
X133412262Y-156100184D01*
X133390559Y-156086547D01*
X133259523Y-156004211D01*
X133089254Y-155944631D01*
X133089249Y-155944630D01*
X132910004Y-155924435D01*
X132909996Y-155924435D01*
X132730750Y-155944630D01*
X132730745Y-155944631D01*
X132560476Y-156004211D01*
X132407737Y-156100184D01*
X132280184Y-156227737D01*
X132184211Y-156380476D01*
X132124631Y-156550745D01*
X132124630Y-156550750D01*
X132104435Y-156729996D01*
X132104435Y-156730003D01*
X132124630Y-156909249D01*
X132124631Y-156909254D01*
X132184211Y-157079523D01*
X132236200Y-157162262D01*
X132280184Y-157232262D01*
X132407738Y-157359816D01*
X132449072Y-157385788D01*
X132566374Y-157459494D01*
X132565021Y-157461646D01*
X132608170Y-157500611D01*
X132626477Y-157568040D01*
X132605424Y-157634662D01*
X132551694Y-157679326D01*
X132502503Y-157689500D01*
X125710175Y-157689500D01*
X125643136Y-157669815D01*
X125597381Y-157617011D01*
X125587437Y-157547853D01*
X125616462Y-157484297D01*
X125672824Y-157448075D01*
X125672682Y-157447668D01*
X125674386Y-157447071D01*
X125675240Y-157446523D01*
X125678038Y-157445793D01*
X125679251Y-157445368D01*
X125679255Y-157445368D01*
X125849522Y-157385789D01*
X126002262Y-157289816D01*
X126129816Y-157162262D01*
X126225789Y-157009522D01*
X126285368Y-156839255D01*
X126297678Y-156730000D01*
X126305565Y-156660003D01*
X126305565Y-156659996D01*
X126285369Y-156480750D01*
X126285368Y-156480745D01*
X126232787Y-156330478D01*
X126225789Y-156310478D01*
X126129816Y-156157738D01*
X126002262Y-156030184D01*
X125980180Y-156016309D01*
X125849523Y-155934211D01*
X125679254Y-155874631D01*
X125679249Y-155874630D01*
X125500004Y-155854435D01*
X125499996Y-155854435D01*
X125320750Y-155874630D01*
X125320745Y-155874631D01*
X125150476Y-155934211D01*
X125050057Y-155997309D01*
X124982820Y-156016309D01*
X124918114Y-155997309D01*
X124849520Y-155954209D01*
X124679262Y-155894633D01*
X124679249Y-155894630D01*
X124500004Y-155874435D01*
X124499996Y-155874435D01*
X124320750Y-155894630D01*
X124320745Y-155894631D01*
X124150476Y-155954211D01*
X123997737Y-156050184D01*
X123870184Y-156177737D01*
X123774211Y-156330476D01*
X123714631Y-156500745D01*
X123714630Y-156500750D01*
X123694435Y-156679996D01*
X123694435Y-156680003D01*
X123714630Y-156859249D01*
X123714631Y-156859254D01*
X123774211Y-157029523D01*
X123857617Y-157162262D01*
X123870184Y-157182262D01*
X123997738Y-157309816D01*
X124088080Y-157366582D01*
X124118646Y-157385788D01*
X124150478Y-157405789D01*
X124263588Y-157445368D01*
X124272419Y-157448458D01*
X124329195Y-157489180D01*
X124354942Y-157554133D01*
X124341486Y-157622694D01*
X124293099Y-157673097D01*
X124231464Y-157689500D01*
X115184361Y-157689500D01*
X115117322Y-157669815D01*
X115096680Y-157653181D01*
X112766819Y-155323319D01*
X112733334Y-155261996D01*
X112730500Y-155235638D01*
X112730500Y-155080003D01*
X121394435Y-155080003D01*
X121414630Y-155259249D01*
X121414631Y-155259254D01*
X121474211Y-155429523D01*
X121500113Y-155470745D01*
X121570184Y-155582262D01*
X121697738Y-155709816D01*
X121750368Y-155742885D01*
X121796659Y-155795219D01*
X121807616Y-155861761D01*
X121804435Y-155889995D01*
X121804435Y-155890003D01*
X121824630Y-156069249D01*
X121824631Y-156069254D01*
X121884211Y-156239523D01*
X121969833Y-156375788D01*
X121980184Y-156392262D01*
X122107738Y-156519816D01*
X122260478Y-156615789D01*
X122430745Y-156675368D01*
X122430750Y-156675369D01*
X122609996Y-156695565D01*
X122610000Y-156695565D01*
X122610004Y-156695565D01*
X122789249Y-156675369D01*
X122789252Y-156675368D01*
X122789255Y-156675368D01*
X122959522Y-156615789D01*
X123112262Y-156519816D01*
X123239816Y-156392262D01*
X123335789Y-156239522D01*
X123395368Y-156069255D01*
X123398583Y-156040720D01*
X123415565Y-155890003D01*
X123415565Y-155889996D01*
X123395369Y-155710750D01*
X123395368Y-155710745D01*
X123374113Y-155650003D01*
X127584435Y-155650003D01*
X127604630Y-155829249D01*
X127604631Y-155829254D01*
X127664211Y-155999523D01*
X127708027Y-156069255D01*
X127760184Y-156152262D01*
X127887738Y-156279816D01*
X128040478Y-156375789D01*
X128210745Y-156435368D01*
X128210750Y-156435369D01*
X128389996Y-156455565D01*
X128390000Y-156455565D01*
X128390004Y-156455565D01*
X128569249Y-156435369D01*
X128569252Y-156435368D01*
X128569255Y-156435368D01*
X128739522Y-156375789D01*
X128892262Y-156279816D01*
X129019816Y-156152262D01*
X129115789Y-155999522D01*
X129175368Y-155829255D01*
X129184445Y-155748696D01*
X129195565Y-155650003D01*
X129195565Y-155649996D01*
X129175369Y-155470750D01*
X129175368Y-155470745D01*
X129160943Y-155429522D01*
X129115789Y-155300478D01*
X129019816Y-155147738D01*
X128892262Y-155020184D01*
X128739523Y-154924211D01*
X128569254Y-154864631D01*
X128569249Y-154864630D01*
X128390004Y-154844435D01*
X128389996Y-154844435D01*
X128210750Y-154864630D01*
X128210745Y-154864631D01*
X128040476Y-154924211D01*
X127887737Y-155020184D01*
X127760184Y-155147737D01*
X127664211Y-155300476D01*
X127604631Y-155470745D01*
X127604630Y-155470750D01*
X127584435Y-155649996D01*
X127584435Y-155650003D01*
X123374113Y-155650003D01*
X123335788Y-155540476D01*
X123266071Y-155429523D01*
X123239816Y-155387738D01*
X123112262Y-155260184D01*
X123059630Y-155227113D01*
X123013340Y-155174779D01*
X123002383Y-155108235D01*
X123005565Y-155080000D01*
X123005565Y-155079996D01*
X122985369Y-154900750D01*
X122985368Y-154900745D01*
X122925789Y-154730478D01*
X122829816Y-154577738D01*
X122702262Y-154450184D01*
X122686850Y-154440500D01*
X122549523Y-154354211D01*
X122379254Y-154294631D01*
X122379249Y-154294630D01*
X122200004Y-154274435D01*
X122199996Y-154274435D01*
X122020750Y-154294630D01*
X122020745Y-154294631D01*
X121850476Y-154354211D01*
X121697737Y-154450184D01*
X121570184Y-154577737D01*
X121474211Y-154730476D01*
X121414631Y-154900745D01*
X121414630Y-154900750D01*
X121394435Y-155079996D01*
X121394435Y-155080003D01*
X112730500Y-155080003D01*
X112730500Y-152550003D01*
X120304435Y-152550003D01*
X120324630Y-152729249D01*
X120324631Y-152729254D01*
X120384211Y-152899523D01*
X120439640Y-152987737D01*
X120480184Y-153052262D01*
X120607738Y-153179816D01*
X120760478Y-153275789D01*
X120789254Y-153285858D01*
X120930745Y-153335368D01*
X120930750Y-153335369D01*
X121109996Y-153355565D01*
X121110000Y-153355565D01*
X121110004Y-153355565D01*
X121289249Y-153335369D01*
X121289252Y-153335368D01*
X121289255Y-153335368D01*
X121459522Y-153275789D01*
X121612262Y-153179816D01*
X121739816Y-153052262D01*
X121835789Y-152899522D01*
X121895368Y-152729255D01*
X121895369Y-152729249D01*
X121915565Y-152550003D01*
X121915565Y-152549996D01*
X121895369Y-152370750D01*
X121895368Y-152370745D01*
X121835788Y-152200476D01*
X121760388Y-152080478D01*
X121739816Y-152047738D01*
X121612262Y-151920184D01*
X121592876Y-151908003D01*
X121459523Y-151824211D01*
X121289254Y-151764631D01*
X121289249Y-151764630D01*
X121110004Y-151744435D01*
X121109996Y-151744435D01*
X120930750Y-151764630D01*
X120930745Y-151764631D01*
X120760476Y-151824211D01*
X120607737Y-151920184D01*
X120480184Y-152047737D01*
X120384211Y-152200476D01*
X120324631Y-152370745D01*
X120324630Y-152370750D01*
X120304435Y-152549996D01*
X120304435Y-152550003D01*
X112730500Y-152550003D01*
X112730500Y-151421306D01*
X112730499Y-151421304D01*
X112695896Y-151247341D01*
X112695893Y-151247332D01*
X112628016Y-151083459D01*
X112628009Y-151083446D01*
X112529465Y-150935966D01*
X112469287Y-150875788D01*
X112404035Y-150810536D01*
X110554807Y-148961308D01*
X110533502Y-148940003D01*
X116804435Y-148940003D01*
X116824630Y-149119249D01*
X116824631Y-149119254D01*
X116884211Y-149289523D01*
X116968842Y-149424211D01*
X116980184Y-149442262D01*
X117107738Y-149569816D01*
X117164987Y-149605788D01*
X117259809Y-149665369D01*
X117260478Y-149665789D01*
X117404267Y-149716103D01*
X117430745Y-149725368D01*
X117430750Y-149725369D01*
X117609996Y-149745565D01*
X117610000Y-149745565D01*
X117610004Y-149745565D01*
X117789249Y-149725369D01*
X117789252Y-149725368D01*
X117789255Y-149725368D01*
X117959522Y-149665789D01*
X118112262Y-149569816D01*
X118239816Y-149442262D01*
X118335789Y-149289522D01*
X118395368Y-149119255D01*
X118397517Y-149100184D01*
X118415565Y-148940003D01*
X118415565Y-148939996D01*
X118395369Y-148760750D01*
X118395368Y-148760745D01*
X118335788Y-148590476D01*
X118239815Y-148437737D01*
X118112262Y-148310184D01*
X117959523Y-148214211D01*
X117789254Y-148154631D01*
X117789249Y-148154630D01*
X117610004Y-148134435D01*
X117609996Y-148134435D01*
X117430750Y-148154630D01*
X117430745Y-148154631D01*
X117260476Y-148214211D01*
X117107737Y-148310184D01*
X116980184Y-148437737D01*
X116884211Y-148590476D01*
X116824631Y-148760745D01*
X116824630Y-148760750D01*
X116804435Y-148939996D01*
X116804435Y-148940003D01*
X110533502Y-148940003D01*
X105004041Y-143410540D01*
X105004034Y-143410534D01*
X104856548Y-143311988D01*
X104692666Y-143244105D01*
X104692658Y-143244103D01*
X104518696Y-143209500D01*
X104518692Y-143209500D01*
X104341308Y-143209500D01*
X104341303Y-143209500D01*
X104167341Y-143244103D01*
X104167333Y-143244105D01*
X104003451Y-143311988D01*
X103855965Y-143410534D01*
X103855958Y-143410540D01*
X103730540Y-143535958D01*
X103730534Y-143535965D01*
X103631988Y-143683451D01*
X103564105Y-143847333D01*
X103564103Y-143847341D01*
X103529500Y-144021303D01*
X103529500Y-144198696D01*
X98345420Y-144198696D01*
X98374035Y-144157830D01*
X98473903Y-143943663D01*
X98535063Y-143715408D01*
X98555659Y-143480000D01*
X98535063Y-143244592D01*
X98473903Y-143016337D01*
X98374035Y-142802171D01*
X98338422Y-142751309D01*
X98238494Y-142608597D01*
X98071402Y-142441506D01*
X98071396Y-142441501D01*
X97885842Y-142311575D01*
X97842217Y-142256998D01*
X97835023Y-142187500D01*
X97866546Y-142125145D01*
X97885842Y-142108425D01*
X98004178Y-142025565D01*
X98071401Y-141978495D01*
X98238495Y-141811401D01*
X98374035Y-141617830D01*
X98473903Y-141403663D01*
X98535063Y-141175408D01*
X98555659Y-140940000D01*
X98535063Y-140704592D01*
X98473903Y-140476337D01*
X98374035Y-140262171D01*
X98338421Y-140211308D01*
X98238494Y-140068597D01*
X98071402Y-139901506D01*
X98071395Y-139901501D01*
X98053163Y-139888735D01*
X98030776Y-139873059D01*
X97877834Y-139765967D01*
X97877830Y-139765965D01*
X97823169Y-139740476D01*
X97663663Y-139666097D01*
X97663659Y-139666096D01*
X97663655Y-139666094D01*
X97435413Y-139604938D01*
X97435403Y-139604936D01*
X97200001Y-139584341D01*
X97199999Y-139584341D01*
X96964596Y-139604936D01*
X96964586Y-139604938D01*
X96736344Y-139666094D01*
X96736335Y-139666098D01*
X96522171Y-139765964D01*
X96522169Y-139765965D01*
X96328597Y-139901505D01*
X96161505Y-140068597D01*
X96025965Y-140262169D01*
X96025964Y-140262171D01*
X95926098Y-140476335D01*
X95926094Y-140476344D01*
X95864938Y-140704586D01*
X95864936Y-140704596D01*
X95844341Y-140939999D01*
X95844341Y-140940000D01*
X95864936Y-141175403D01*
X95864938Y-141175413D01*
X95926094Y-141403655D01*
X95926096Y-141403659D01*
X95926097Y-141403663D01*
X96003438Y-141569521D01*
X96025965Y-141617830D01*
X96025967Y-141617834D01*
X96161501Y-141811395D01*
X96161506Y-141811402D01*
X96328597Y-141978493D01*
X96328603Y-141978498D01*
X96514158Y-142108425D01*
X96557783Y-142163002D01*
X96564977Y-142232500D01*
X96533454Y-142294855D01*
X96514158Y-142311575D01*
X96328597Y-142441505D01*
X96161505Y-142608597D01*
X96025965Y-142802169D01*
X96025964Y-142802171D01*
X95926098Y-143016335D01*
X95926094Y-143016344D01*
X95864938Y-143244586D01*
X95864936Y-143244596D01*
X95844341Y-143479999D01*
X95844341Y-143480000D01*
X95864936Y-143715403D01*
X95864938Y-143715413D01*
X95926094Y-143943655D01*
X95926096Y-143943659D01*
X95926097Y-143943663D01*
X95996299Y-144094211D01*
X96025965Y-144157830D01*
X96025967Y-144157834D01*
X96161501Y-144351395D01*
X96161506Y-144351402D01*
X96328597Y-144518493D01*
X96328603Y-144518498D01*
X96514158Y-144648425D01*
X96557783Y-144703002D01*
X96564977Y-144772500D01*
X96533454Y-144834855D01*
X96514158Y-144851575D01*
X96328597Y-144981505D01*
X96161505Y-145148597D01*
X96025965Y-145342169D01*
X96025964Y-145342171D01*
X95926098Y-145556335D01*
X95926094Y-145556344D01*
X95864938Y-145784586D01*
X95864936Y-145784596D01*
X95844341Y-146019999D01*
X94500500Y-146019999D01*
X94500500Y-138550003D01*
X101184435Y-138550003D01*
X101204630Y-138729249D01*
X101204631Y-138729254D01*
X101264211Y-138899523D01*
X101360184Y-139052262D01*
X101487738Y-139179816D01*
X101574664Y-139234435D01*
X101616110Y-139260478D01*
X101640478Y-139275789D01*
X101722901Y-139304630D01*
X101810745Y-139335368D01*
X101810750Y-139335369D01*
X101989996Y-139355565D01*
X101990000Y-139355565D01*
X101990004Y-139355565D01*
X102169249Y-139335369D01*
X102169252Y-139335368D01*
X102169255Y-139335368D01*
X102339522Y-139275789D01*
X102492262Y-139179816D01*
X102619816Y-139052262D01*
X102715789Y-138899522D01*
X102775368Y-138729255D01*
X102788784Y-138610184D01*
X102795565Y-138550003D01*
X102795565Y-138549996D01*
X102775369Y-138370750D01*
X102775368Y-138370745D01*
X102734874Y-138255020D01*
X102715789Y-138200478D01*
X102713602Y-138196998D01*
X102633504Y-138069522D01*
X102619816Y-138047738D01*
X102492262Y-137920184D01*
X102408359Y-137867464D01*
X102339523Y-137824211D01*
X102169254Y-137764631D01*
X102169249Y-137764630D01*
X101990004Y-137744435D01*
X101989996Y-137744435D01*
X101810750Y-137764630D01*
X101810745Y-137764631D01*
X101640476Y-137824211D01*
X101487737Y-137920184D01*
X101360184Y-138047737D01*
X101264211Y-138200476D01*
X101204631Y-138370745D01*
X101204630Y-138370750D01*
X101184435Y-138549996D01*
X101184435Y-138550003D01*
X94500500Y-138550003D01*
X94500500Y-137720003D01*
X104314435Y-137720003D01*
X104334630Y-137899249D01*
X104334631Y-137899254D01*
X104394211Y-138069523D01*
X104476495Y-138200476D01*
X104490184Y-138222262D01*
X104617738Y-138349816D01*
X104708080Y-138406582D01*
X104747552Y-138431384D01*
X104770478Y-138445789D01*
X104874712Y-138482262D01*
X104940745Y-138505368D01*
X104940750Y-138505369D01*
X105119996Y-138525565D01*
X105120000Y-138525565D01*
X105120004Y-138525565D01*
X105299249Y-138505369D01*
X105299252Y-138505368D01*
X105299255Y-138505368D01*
X105469522Y-138445789D01*
X105622262Y-138349816D01*
X105749816Y-138222262D01*
X105845789Y-138069522D01*
X105905368Y-137899255D01*
X105910125Y-137857038D01*
X105925565Y-137720003D01*
X105925565Y-137719996D01*
X105905369Y-137540750D01*
X105905368Y-137540745D01*
X105883321Y-137477738D01*
X105845789Y-137370478D01*
X105754179Y-137224682D01*
X105735180Y-137157448D01*
X105755548Y-137090612D01*
X105808815Y-137045398D01*
X105878072Y-137036160D01*
X105903687Y-137044111D01*
X105903905Y-137043489D01*
X106080745Y-137105368D01*
X106080750Y-137105369D01*
X106259996Y-137125565D01*
X106260000Y-137125565D01*
X106260004Y-137125565D01*
X106439249Y-137105369D01*
X106439252Y-137105368D01*
X106439255Y-137105368D01*
X106609522Y-137045789D01*
X106762262Y-136949816D01*
X106889816Y-136822262D01*
X106985789Y-136669522D01*
X107045368Y-136499255D01*
X107048010Y-136475809D01*
X107065565Y-136320003D01*
X107065565Y-136319996D01*
X107045369Y-136140750D01*
X107045368Y-136140745D01*
X106995662Y-135998693D01*
X106985789Y-135970478D01*
X106959532Y-135928691D01*
X106892059Y-135821308D01*
X106889816Y-135817738D01*
X106889815Y-135817737D01*
X106885475Y-135812295D01*
X106887768Y-135810465D01*
X106860568Y-135760652D01*
X106865552Y-135690960D01*
X106907424Y-135635027D01*
X106915751Y-135629307D01*
X107042262Y-135549816D01*
X107169816Y-135422262D01*
X107240353Y-135310003D01*
X113544435Y-135310003D01*
X113564630Y-135489249D01*
X113564631Y-135489254D01*
X113624211Y-135659523D01*
X113687755Y-135760652D01*
X113720184Y-135812262D01*
X113847738Y-135939816D01*
X114000478Y-136035789D01*
X114125460Y-136079522D01*
X114170745Y-136095368D01*
X114170750Y-136095369D01*
X114349996Y-136115565D01*
X114350000Y-136115565D01*
X114350004Y-136115565D01*
X114529249Y-136095369D01*
X114529252Y-136095368D01*
X114529255Y-136095368D01*
X114699522Y-136035789D01*
X114852262Y-135939816D01*
X114979816Y-135812262D01*
X115075789Y-135659522D01*
X115135368Y-135489255D01*
X115135369Y-135489249D01*
X115155565Y-135310003D01*
X115155565Y-135309996D01*
X115135369Y-135130750D01*
X115135368Y-135130745D01*
X115115837Y-135074928D01*
X115075789Y-134960478D01*
X115063928Y-134941602D01*
X115036366Y-134897737D01*
X114979816Y-134807738D01*
X114852262Y-134680184D01*
X114803429Y-134649500D01*
X114699523Y-134584211D01*
X114529254Y-134524631D01*
X114529249Y-134524630D01*
X114350004Y-134504435D01*
X114349996Y-134504435D01*
X114170750Y-134524630D01*
X114170745Y-134524631D01*
X114000476Y-134584211D01*
X113847737Y-134680184D01*
X113720184Y-134807737D01*
X113624211Y-134960476D01*
X113564631Y-135130745D01*
X113564630Y-135130750D01*
X113544435Y-135309996D01*
X113544435Y-135310003D01*
X107240353Y-135310003D01*
X107265789Y-135269522D01*
X107325368Y-135099255D01*
X107328109Y-135074928D01*
X107345565Y-134920003D01*
X107345565Y-134919996D01*
X107325369Y-134740750D01*
X107325368Y-134740745D01*
X107289588Y-134638493D01*
X107265789Y-134570478D01*
X107169816Y-134417738D01*
X107042262Y-134290184D01*
X106947241Y-134230478D01*
X106889523Y-134194211D01*
X106719254Y-134134631D01*
X106719249Y-134134630D01*
X106540004Y-134114435D01*
X106539996Y-134114435D01*
X106360750Y-134134630D01*
X106360745Y-134134631D01*
X106190476Y-134194211D01*
X106037737Y-134290184D01*
X105910184Y-134417737D01*
X105814211Y-134570476D01*
X105754631Y-134740745D01*
X105754630Y-134740750D01*
X105734435Y-134919996D01*
X105734435Y-134920003D01*
X105754630Y-135099249D01*
X105754631Y-135099254D01*
X105814211Y-135269523D01*
X105910184Y-135422262D01*
X105914525Y-135427705D01*
X105912231Y-135429534D01*
X105939431Y-135479347D01*
X105934447Y-135549039D01*
X105892575Y-135604972D01*
X105884237Y-135610699D01*
X105757737Y-135690184D01*
X105630184Y-135817737D01*
X105534211Y-135970476D01*
X105474631Y-136140745D01*
X105474630Y-136140750D01*
X105454435Y-136319996D01*
X105454435Y-136320003D01*
X105474630Y-136499249D01*
X105474631Y-136499254D01*
X105534211Y-136669523D01*
X105625819Y-136815315D01*
X105644819Y-136882551D01*
X105624451Y-136949387D01*
X105571184Y-136994601D01*
X105501927Y-137003839D01*
X105476312Y-136995889D01*
X105476095Y-136996511D01*
X105299254Y-136934631D01*
X105299249Y-136934630D01*
X105120004Y-136914435D01*
X105119996Y-136914435D01*
X104940750Y-136934630D01*
X104940745Y-136934631D01*
X104770476Y-136994211D01*
X104617737Y-137090184D01*
X104490184Y-137217737D01*
X104394211Y-137370476D01*
X104334631Y-137540745D01*
X104334630Y-137540750D01*
X104314435Y-137719996D01*
X104314435Y-137720003D01*
X94500500Y-137720003D01*
X94500500Y-133600000D01*
X95844341Y-133600000D01*
X95864936Y-133835403D01*
X95864938Y-133835413D01*
X95926094Y-134063655D01*
X95926096Y-134063659D01*
X95926097Y-134063663D01*
X96003884Y-134230478D01*
X96025965Y-134277830D01*
X96025967Y-134277834D01*
X96123929Y-134417737D01*
X96161505Y-134471401D01*
X96328599Y-134638495D01*
X96344316Y-134649500D01*
X96522165Y-134774032D01*
X96522167Y-134774033D01*
X96522170Y-134774035D01*
X96736337Y-134873903D01*
X96964592Y-134935063D01*
X97152918Y-134951539D01*
X97199999Y-134955659D01*
X97200000Y-134955659D01*
X97200001Y-134955659D01*
X97239234Y-134952226D01*
X97435408Y-134935063D01*
X97663663Y-134873903D01*
X97877830Y-134774035D01*
X98071401Y-134638495D01*
X98238495Y-134471401D01*
X98374035Y-134277830D01*
X98473903Y-134063663D01*
X98535063Y-133835408D01*
X98555659Y-133600000D01*
X98535063Y-133364592D01*
X98477692Y-133150478D01*
X98473905Y-133136344D01*
X98473904Y-133136343D01*
X98473903Y-133136337D01*
X98374035Y-132922171D01*
X98371704Y-132918841D01*
X98238494Y-132728597D01*
X98071402Y-132561506D01*
X98071396Y-132561501D01*
X97885842Y-132431575D01*
X97842217Y-132376998D01*
X97835023Y-132307500D01*
X97866546Y-132245145D01*
X97885842Y-132228425D01*
X97908026Y-132212891D01*
X98071401Y-132098495D01*
X98238495Y-131931401D01*
X98374035Y-131737830D01*
X98473903Y-131523663D01*
X98535063Y-131295408D01*
X98555659Y-131060000D01*
X98535063Y-130824592D01*
X98473903Y-130596337D01*
X98374035Y-130382171D01*
X98360379Y-130362667D01*
X98238563Y-130188695D01*
X101179500Y-130188695D01*
X101214103Y-130362658D01*
X101214106Y-130362667D01*
X101281983Y-130526540D01*
X101281990Y-130526553D01*
X101380535Y-130674034D01*
X101380538Y-130674038D01*
X101505961Y-130799461D01*
X101505965Y-130799464D01*
X101653446Y-130898009D01*
X101653459Y-130898016D01*
X101776363Y-130948923D01*
X101817334Y-130965894D01*
X101817336Y-130965894D01*
X101817341Y-130965896D01*
X101991304Y-131000499D01*
X101991307Y-131000500D01*
X101991309Y-131000500D01*
X102168693Y-131000500D01*
X102168694Y-131000499D01*
X102226682Y-130988964D01*
X102342658Y-130965896D01*
X102342661Y-130965894D01*
X102342666Y-130965894D01*
X102506547Y-130898013D01*
X102654035Y-130799464D01*
X102779464Y-130674035D01*
X102878013Y-130526547D01*
X102945894Y-130362666D01*
X102980500Y-130188691D01*
X102980500Y-128070003D01*
X109104435Y-128070003D01*
X109124630Y-128249249D01*
X109124631Y-128249254D01*
X109184211Y-128419523D01*
X109249879Y-128524032D01*
X109280184Y-128572262D01*
X109407738Y-128699816D01*
X109488363Y-128750476D01*
X109520625Y-128770748D01*
X109560478Y-128795789D01*
X109730745Y-128855368D01*
X109730750Y-128855369D01*
X109909996Y-128875565D01*
X109910000Y-128875565D01*
X109910004Y-128875565D01*
X110089249Y-128855369D01*
X110089252Y-128855368D01*
X110089255Y-128855368D01*
X110259522Y-128795789D01*
X110412262Y-128699816D01*
X110539816Y-128572262D01*
X110635789Y-128419522D01*
X110635999Y-128418919D01*
X110636242Y-128418581D01*
X110638810Y-128413249D01*
X110639743Y-128413698D01*
X110676715Y-128362142D01*
X110741665Y-128336388D01*
X110810228Y-128349838D01*
X110819013Y-128354869D01*
X110820476Y-128355788D01*
X110820478Y-128355789D01*
X110953290Y-128402262D01*
X110990745Y-128415368D01*
X110990750Y-128415369D01*
X111169996Y-128435565D01*
X111170000Y-128435565D01*
X111170004Y-128435565D01*
X111349249Y-128415369D01*
X111349252Y-128415368D01*
X111349255Y-128415368D01*
X111519522Y-128355789D01*
X111632825Y-128284596D01*
X111644997Y-128276948D01*
X111712234Y-128257948D01*
X111779069Y-128278316D01*
X111815963Y-128315970D01*
X111824311Y-128329255D01*
X111870184Y-128402262D01*
X111997738Y-128529816D01*
X112088080Y-128586582D01*
X112147479Y-128623905D01*
X112150478Y-128625789D01*
X112319868Y-128685061D01*
X112320745Y-128685368D01*
X112320750Y-128685369D01*
X112499996Y-128705565D01*
X112500000Y-128705565D01*
X112500004Y-128705565D01*
X112679249Y-128685369D01*
X112679252Y-128685368D01*
X112679255Y-128685368D01*
X112849522Y-128625789D01*
X113002262Y-128529816D01*
X113129816Y-128402262D01*
X113225789Y-128249522D01*
X113285368Y-128079255D01*
X113286357Y-128070476D01*
X113305565Y-127900003D01*
X113305565Y-127899996D01*
X113285369Y-127720750D01*
X113285368Y-127720745D01*
X113252141Y-127625788D01*
X113225789Y-127550478D01*
X113129816Y-127397738D01*
X113002262Y-127270184D01*
X112974997Y-127253052D01*
X112849523Y-127174211D01*
X112679254Y-127114631D01*
X112679249Y-127114630D01*
X112500004Y-127094435D01*
X112499996Y-127094435D01*
X112320750Y-127114630D01*
X112320745Y-127114631D01*
X112150476Y-127174211D01*
X112025003Y-127253052D01*
X111957766Y-127272052D01*
X111890931Y-127251684D01*
X111854037Y-127214030D01*
X111835757Y-127184938D01*
X111799816Y-127127738D01*
X111672262Y-127000184D01*
X111542373Y-126918569D01*
X111519523Y-126904211D01*
X111349254Y-126844631D01*
X111349249Y-126844630D01*
X111170004Y-126824435D01*
X111169996Y-126824435D01*
X110990750Y-126844630D01*
X110990745Y-126844631D01*
X110820476Y-126904211D01*
X110667737Y-127000184D01*
X110540184Y-127127737D01*
X110444212Y-127280475D01*
X110444208Y-127280483D01*
X110443992Y-127281102D01*
X110443744Y-127281446D01*
X110441193Y-127286746D01*
X110440263Y-127286298D01*
X110403264Y-127337874D01*
X110338309Y-127363614D01*
X110269749Y-127350151D01*
X110260980Y-127345127D01*
X110259521Y-127344210D01*
X110259518Y-127344209D01*
X110089262Y-127284633D01*
X110089249Y-127284630D01*
X109910004Y-127264435D01*
X109909996Y-127264435D01*
X109730750Y-127284630D01*
X109730745Y-127284631D01*
X109560476Y-127344211D01*
X109407737Y-127440184D01*
X109280184Y-127567737D01*
X109184211Y-127720476D01*
X109124631Y-127890745D01*
X109124630Y-127890750D01*
X109104435Y-128069996D01*
X109104435Y-128070003D01*
X102980500Y-128070003D01*
X102980500Y-126644360D01*
X103000185Y-126577321D01*
X103016814Y-126556684D01*
X106713494Y-122860003D01*
X114714435Y-122860003D01*
X114734630Y-123039249D01*
X114734631Y-123039254D01*
X114794211Y-123209523D01*
X114878098Y-123343028D01*
X114890184Y-123362262D01*
X115017738Y-123489816D01*
X115170478Y-123585789D01*
X115338807Y-123644690D01*
X115340745Y-123645368D01*
X115340750Y-123645369D01*
X115519996Y-123665565D01*
X115520000Y-123665565D01*
X115520004Y-123665565D01*
X115699249Y-123645369D01*
X115699252Y-123645368D01*
X115699255Y-123645368D01*
X115869522Y-123585789D01*
X116022262Y-123489816D01*
X116149816Y-123362262D01*
X116245789Y-123209522D01*
X116305368Y-123039255D01*
X116305642Y-123036824D01*
X116325565Y-122860003D01*
X116325565Y-122859996D01*
X116305369Y-122680750D01*
X116305368Y-122680745D01*
X116245788Y-122510476D01*
X116169176Y-122388550D01*
X116149816Y-122357738D01*
X116022262Y-122230184D01*
X115992377Y-122211406D01*
X115869523Y-122134211D01*
X115699254Y-122074631D01*
X115699249Y-122074630D01*
X115520004Y-122054435D01*
X115519996Y-122054435D01*
X115340750Y-122074630D01*
X115340745Y-122074631D01*
X115170476Y-122134211D01*
X115017737Y-122230184D01*
X114890184Y-122357737D01*
X114794211Y-122510476D01*
X114734631Y-122680745D01*
X114734630Y-122680750D01*
X114714435Y-122859996D01*
X114714435Y-122860003D01*
X106713494Y-122860003D01*
X109233029Y-120340468D01*
X109294352Y-120306984D01*
X109364044Y-120311968D01*
X109408391Y-120340469D01*
X109447738Y-120379816D01*
X109479568Y-120399816D01*
X109555833Y-120447737D01*
X109600478Y-120475789D01*
X109707593Y-120513270D01*
X109770745Y-120535368D01*
X109770750Y-120535369D01*
X109949996Y-120555565D01*
X109950000Y-120555565D01*
X109950004Y-120555565D01*
X110129249Y-120535369D01*
X110129252Y-120535368D01*
X110129255Y-120535368D01*
X110299522Y-120475789D01*
X110452262Y-120379816D01*
X110482319Y-120349759D01*
X110543642Y-120316274D01*
X110613334Y-120321258D01*
X110657681Y-120349759D01*
X110687738Y-120379816D01*
X110719568Y-120399816D01*
X110795833Y-120447737D01*
X110840478Y-120475789D01*
X111010745Y-120535368D01*
X111010758Y-120535369D01*
X111010884Y-120535399D01*
X111010968Y-120535446D01*
X111017318Y-120537668D01*
X111016929Y-120538779D01*
X111071867Y-120569500D01*
X111104733Y-120631158D01*
X111100349Y-120697248D01*
X111074632Y-120770742D01*
X111074630Y-120770750D01*
X111054435Y-120949996D01*
X111054435Y-120950003D01*
X111074630Y-121129249D01*
X111074631Y-121129254D01*
X111134211Y-121299523D01*
X111206624Y-121414766D01*
X111230184Y-121452262D01*
X111357738Y-121579816D01*
X111510478Y-121675789D01*
X111619776Y-121714034D01*
X111680745Y-121735368D01*
X111680750Y-121735369D01*
X111859996Y-121755565D01*
X111860000Y-121755565D01*
X111860004Y-121755565D01*
X112039249Y-121735369D01*
X112039252Y-121735368D01*
X112039255Y-121735368D01*
X112209522Y-121675789D01*
X112362262Y-121579816D01*
X112489816Y-121452262D01*
X112585789Y-121299522D01*
X112645368Y-121129255D01*
X112657562Y-121021031D01*
X112665565Y-120950003D01*
X112665565Y-120949996D01*
X112645369Y-120770750D01*
X112645368Y-120770745D01*
X112626817Y-120717729D01*
X112585789Y-120600478D01*
X112584995Y-120599215D01*
X112537211Y-120523166D01*
X112522657Y-120500003D01*
X113474435Y-120500003D01*
X113494630Y-120679249D01*
X113494631Y-120679254D01*
X113554211Y-120849523D01*
X113617347Y-120950003D01*
X113650184Y-121002262D01*
X113777738Y-121129816D01*
X113847690Y-121173770D01*
X113917817Y-121217834D01*
X113930478Y-121225789D01*
X114070318Y-121274721D01*
X114100745Y-121285368D01*
X114100750Y-121285369D01*
X114279996Y-121305565D01*
X114280000Y-121305565D01*
X114280004Y-121305565D01*
X114459249Y-121285369D01*
X114459252Y-121285368D01*
X114459255Y-121285368D01*
X114629522Y-121225789D01*
X114782262Y-121129816D01*
X114909816Y-121002262D01*
X115005789Y-120849522D01*
X115065368Y-120679255D01*
X115066234Y-120671570D01*
X115085565Y-120500003D01*
X115085565Y-120499996D01*
X115065369Y-120320750D01*
X115065368Y-120320745D01*
X115046499Y-120266821D01*
X115005789Y-120150478D01*
X114996295Y-120135369D01*
X114940329Y-120046299D01*
X114909816Y-119997738D01*
X114782262Y-119870184D01*
X114769506Y-119862169D01*
X114629523Y-119774211D01*
X114459254Y-119714631D01*
X114459249Y-119714630D01*
X114280004Y-119694435D01*
X114279996Y-119694435D01*
X114100750Y-119714630D01*
X114100745Y-119714631D01*
X113930476Y-119774211D01*
X113777737Y-119870184D01*
X113650184Y-119997737D01*
X113554211Y-120150476D01*
X113494631Y-120320745D01*
X113494630Y-120320750D01*
X113474435Y-120499996D01*
X113474435Y-120500003D01*
X112522657Y-120500003D01*
X112489816Y-120447738D01*
X112362262Y-120320184D01*
X112337454Y-120304596D01*
X112209521Y-120224210D01*
X112097769Y-120185107D01*
X112039255Y-120164632D01*
X112039253Y-120164631D01*
X112039248Y-120164630D01*
X112039085Y-120164593D01*
X112038990Y-120164539D01*
X112032683Y-120162333D01*
X112033069Y-120161227D01*
X111978111Y-120130477D01*
X111945260Y-120068812D01*
X111949651Y-120002749D01*
X111951405Y-119997738D01*
X111961418Y-119969119D01*
X111975367Y-119929259D01*
X111975367Y-119929257D01*
X111975368Y-119929255D01*
X111980784Y-119881181D01*
X112007849Y-119816770D01*
X112065443Y-119777214D01*
X112135280Y-119775075D01*
X112169976Y-119790073D01*
X112290473Y-119865787D01*
X112290477Y-119865788D01*
X112290478Y-119865789D01*
X112441163Y-119918516D01*
X112460745Y-119925368D01*
X112460750Y-119925369D01*
X112639996Y-119945565D01*
X112640000Y-119945565D01*
X112640004Y-119945565D01*
X112819249Y-119925369D01*
X112819252Y-119925368D01*
X112819255Y-119925368D01*
X112989522Y-119865789D01*
X113142262Y-119769816D01*
X113269816Y-119642262D01*
X113365789Y-119489522D01*
X113425368Y-119319255D01*
X113427848Y-119297246D01*
X113445565Y-119140003D01*
X113445565Y-119139996D01*
X113425369Y-118960750D01*
X113425368Y-118960745D01*
X113407547Y-118909815D01*
X113365789Y-118790478D01*
X113273765Y-118644023D01*
X113254766Y-118576789D01*
X113275134Y-118509953D01*
X113328401Y-118464739D01*
X113397658Y-118455501D01*
X113419715Y-118461011D01*
X113460745Y-118475368D01*
X113460750Y-118475369D01*
X113639996Y-118495565D01*
X113640000Y-118495565D01*
X113640004Y-118495565D01*
X113819249Y-118475369D01*
X113819252Y-118475368D01*
X113819255Y-118475368D01*
X113989522Y-118415789D01*
X114142262Y-118319816D01*
X114269816Y-118192262D01*
X114365789Y-118039522D01*
X114425368Y-117869255D01*
X114427238Y-117852658D01*
X114445565Y-117690003D01*
X114445565Y-117689996D01*
X114425369Y-117510750D01*
X114425368Y-117510745D01*
X114374094Y-117364212D01*
X114365789Y-117340478D01*
X114359955Y-117331194D01*
X114289068Y-117218378D01*
X114269816Y-117187738D01*
X114142262Y-117060184D01*
X113989523Y-116964211D01*
X113819254Y-116904631D01*
X113819249Y-116904630D01*
X113640004Y-116884435D01*
X113639996Y-116884435D01*
X113460750Y-116904630D01*
X113460745Y-116904631D01*
X113290476Y-116964211D01*
X113137737Y-117060184D01*
X113010182Y-117187739D01*
X112920043Y-117331194D01*
X112867708Y-117377484D01*
X112798655Y-117388132D01*
X112749079Y-117370215D01*
X112739525Y-117364212D01*
X112569253Y-117304631D01*
X112555150Y-117303042D01*
X112490737Y-117275974D01*
X112451183Y-117218378D01*
X112449047Y-117148541D01*
X112481354Y-117092143D01*
X114386680Y-115186819D01*
X114448003Y-115153334D01*
X114474361Y-115150500D01*
X115388693Y-115150500D01*
X115388694Y-115150499D01*
X115446682Y-115138964D01*
X115562658Y-115115896D01*
X115562661Y-115115894D01*
X115562666Y-115115894D01*
X115726547Y-115048013D01*
X115874035Y-114949464D01*
X115999464Y-114824035D01*
X116098013Y-114676547D01*
X116098014Y-114676544D01*
X116098016Y-114676541D01*
X116130939Y-114597056D01*
X116174779Y-114542652D01*
X116241073Y-114520587D01*
X116308773Y-114537866D01*
X116356383Y-114589003D01*
X116369500Y-114644508D01*
X116369500Y-114668696D01*
X116404103Y-114842658D01*
X116404105Y-114842666D01*
X116428061Y-114900500D01*
X116428061Y-114900501D01*
X116471984Y-115006542D01*
X116471986Y-115006545D01*
X116471987Y-115006547D01*
X116491245Y-115035368D01*
X116499694Y-115048013D01*
X116570537Y-115154038D01*
X116570538Y-115154039D01*
X118918818Y-117502318D01*
X118952303Y-117563641D01*
X118947319Y-117633333D01*
X118918818Y-117677680D01*
X118340540Y-118255958D01*
X118340534Y-118255965D01*
X118311839Y-118298912D01*
X118311839Y-118298913D01*
X118241985Y-118403455D01*
X118241984Y-118403457D01*
X118218256Y-118460744D01*
X118218256Y-118460745D01*
X118174105Y-118567333D01*
X118174103Y-118567341D01*
X118139948Y-118739054D01*
X118139947Y-118739059D01*
X118139500Y-118741305D01*
X118139500Y-120604531D01*
X118119815Y-120671570D01*
X118067011Y-120717325D01*
X118029385Y-120727751D01*
X117939093Y-120737925D01*
X117939090Y-120737925D01*
X117768821Y-120797505D01*
X117616082Y-120893478D01*
X117488529Y-121021031D01*
X117392556Y-121173770D01*
X117332976Y-121344039D01*
X117332975Y-121344044D01*
X117312780Y-121523290D01*
X117312780Y-121523297D01*
X117332975Y-121702543D01*
X117332976Y-121702548D01*
X117392556Y-121872817D01*
X117488529Y-122025556D01*
X117492870Y-122030999D01*
X117491872Y-122031794D01*
X117521874Y-122086739D01*
X117523928Y-122126980D01*
X117504435Y-122299995D01*
X117504435Y-122300003D01*
X117524630Y-122479249D01*
X117524631Y-122479254D01*
X117584211Y-122649523D01*
X117641530Y-122740745D01*
X117680184Y-122802262D01*
X117807738Y-122929816D01*
X117960478Y-123025789D01*
X117998959Y-123039254D01*
X118130745Y-123085368D01*
X118130750Y-123085369D01*
X118309996Y-123105565D01*
X118310000Y-123105565D01*
X118310004Y-123105565D01*
X118489249Y-123085369D01*
X118489252Y-123085368D01*
X118489255Y-123085368D01*
X118659522Y-123025789D01*
X118812262Y-122929816D01*
X118939816Y-122802262D01*
X119035789Y-122649522D01*
X119035789Y-122649521D01*
X119038046Y-122645930D01*
X119090381Y-122599639D01*
X119159434Y-122588991D01*
X119223283Y-122617366D01*
X119230721Y-122624221D01*
X119863181Y-123256681D01*
X119896666Y-123318004D01*
X119899500Y-123344362D01*
X119899500Y-124625637D01*
X119879815Y-124692676D01*
X119863181Y-124713318D01*
X115640540Y-128935958D01*
X115640537Y-128935961D01*
X115608665Y-128983663D01*
X115541988Y-129083450D01*
X115541987Y-129083452D01*
X115516167Y-129145788D01*
X115516167Y-129145789D01*
X115474105Y-129247333D01*
X115469596Y-129270003D01*
X115442839Y-129404523D01*
X115442839Y-129404525D01*
X115439500Y-129421309D01*
X115439500Y-134988696D01*
X115474103Y-135162658D01*
X115474105Y-135162666D01*
X115501059Y-135227738D01*
X115541985Y-135326544D01*
X115581418Y-135385560D01*
X115581419Y-135385561D01*
X115581422Y-135385565D01*
X115605942Y-135422262D01*
X115640537Y-135474038D01*
X116291118Y-136124619D01*
X116324603Y-136185942D01*
X116319619Y-136255634D01*
X116277747Y-136311567D01*
X116244393Y-136329341D01*
X116230479Y-136334209D01*
X116077737Y-136430184D01*
X115950184Y-136557737D01*
X115854211Y-136710476D01*
X115794631Y-136880745D01*
X115794630Y-136880750D01*
X115773655Y-137066919D01*
X115772369Y-137066774D01*
X115754750Y-137126780D01*
X115701946Y-137172535D01*
X115664319Y-137182961D01*
X115560749Y-137194630D01*
X115560745Y-137194631D01*
X115390476Y-137254211D01*
X115237737Y-137350184D01*
X115110184Y-137477737D01*
X115014211Y-137630476D01*
X114954631Y-137800745D01*
X114954630Y-137800750D01*
X114934435Y-137979996D01*
X114934435Y-137980003D01*
X114954630Y-138159249D01*
X114954632Y-138159257D01*
X114970382Y-138204268D01*
X114973943Y-138274047D01*
X114939214Y-138334674D01*
X114877220Y-138366901D01*
X114825752Y-138366114D01*
X114819254Y-138364631D01*
X114640004Y-138344435D01*
X114639996Y-138344435D01*
X114460750Y-138364630D01*
X114460745Y-138364631D01*
X114290476Y-138424211D01*
X114137737Y-138520184D01*
X114010184Y-138647737D01*
X113914211Y-138800476D01*
X113854631Y-138970745D01*
X113854630Y-138970750D01*
X113834435Y-139149996D01*
X113834435Y-139150003D01*
X113854630Y-139329249D01*
X113854631Y-139329254D01*
X113914211Y-139499523D01*
X113948838Y-139554631D01*
X114010184Y-139652262D01*
X114137738Y-139779816D01*
X114290478Y-139875789D01*
X114363973Y-139901506D01*
X114460745Y-139935368D01*
X114460750Y-139935369D01*
X114639996Y-139955565D01*
X114640000Y-139955565D01*
X114640004Y-139955565D01*
X114819249Y-139935369D01*
X114819252Y-139935368D01*
X114819255Y-139935368D01*
X114989522Y-139875789D01*
X115142262Y-139779816D01*
X115269816Y-139652262D01*
X115365789Y-139499522D01*
X115425368Y-139329255D01*
X115427063Y-139314211D01*
X115445565Y-139150003D01*
X115445565Y-139149996D01*
X115425369Y-138970750D01*
X115425366Y-138970737D01*
X115409618Y-138925732D01*
X115406056Y-138855953D01*
X115440784Y-138795326D01*
X115502777Y-138763098D01*
X115554254Y-138763886D01*
X115560738Y-138765365D01*
X115560745Y-138765368D01*
X115560752Y-138765368D01*
X115560753Y-138765369D01*
X115739996Y-138785565D01*
X115740000Y-138785565D01*
X115740004Y-138785565D01*
X115919249Y-138765369D01*
X115919252Y-138765368D01*
X115919255Y-138765368D01*
X116089522Y-138705789D01*
X116242262Y-138609816D01*
X116369816Y-138482262D01*
X116465789Y-138329522D01*
X116525368Y-138159255D01*
X116528327Y-138132999D01*
X116546345Y-137973080D01*
X116547630Y-137973224D01*
X116565250Y-137913219D01*
X116618054Y-137867464D01*
X116655682Y-137857038D01*
X116759251Y-137845369D01*
X116766037Y-137843820D01*
X116766626Y-137846400D01*
X116824318Y-137843452D01*
X116884947Y-137878178D01*
X116917177Y-137940170D01*
X116919500Y-137964057D01*
X116919500Y-140388696D01*
X116954103Y-140562658D01*
X116954105Y-140562666D01*
X116979899Y-140624938D01*
X117021985Y-140726544D01*
X117021987Y-140726547D01*
X117061689Y-140785965D01*
X117061689Y-140785966D01*
X117120532Y-140874031D01*
X117120538Y-140874039D01*
X119423181Y-143176680D01*
X119456666Y-143238003D01*
X119459500Y-143264361D01*
X119459500Y-145608696D01*
X119494103Y-145782659D01*
X119494106Y-145782670D01*
X119509775Y-145820494D01*
X119509776Y-145820500D01*
X119509777Y-145820500D01*
X119561983Y-145946540D01*
X119561987Y-145946547D01*
X119611067Y-146020000D01*
X119648086Y-146075403D01*
X119660537Y-146094038D01*
X119660538Y-146094039D01*
X120895943Y-147329442D01*
X120929428Y-147390765D01*
X120924444Y-147460456D01*
X120882573Y-147516390D01*
X120874236Y-147522116D01*
X120797736Y-147570185D01*
X120670184Y-147697737D01*
X120574211Y-147850476D01*
X120514631Y-148020745D01*
X120514630Y-148020750D01*
X120494435Y-148199996D01*
X120494435Y-148200003D01*
X120514630Y-148379249D01*
X120514631Y-148379254D01*
X120574211Y-148549523D01*
X120599944Y-148590476D01*
X120670184Y-148702262D01*
X120797738Y-148829816D01*
X120950478Y-148925789D01*
X121120742Y-148985367D01*
X121120745Y-148985368D01*
X121120750Y-148985369D01*
X121299996Y-149005565D01*
X121300000Y-149005565D01*
X121300004Y-149005565D01*
X121479249Y-148985369D01*
X121479250Y-148985368D01*
X121479255Y-148985368D01*
X121550930Y-148960287D01*
X121620705Y-148956725D01*
X121681333Y-148991453D01*
X121713051Y-149052465D01*
X121713080Y-149052459D01*
X121713105Y-149052569D01*
X121713561Y-149053446D01*
X121714093Y-149056900D01*
X121714629Y-149059246D01*
X121774210Y-149229521D01*
X121811912Y-149289523D01*
X121870184Y-149382262D01*
X121997738Y-149509816D01*
X122150478Y-149605789D01*
X122295470Y-149656524D01*
X122320745Y-149665368D01*
X122320750Y-149665369D01*
X122499996Y-149685565D01*
X122500000Y-149685565D01*
X122500004Y-149685565D01*
X122679249Y-149665369D01*
X122679252Y-149665368D01*
X122679255Y-149665368D01*
X122849522Y-149605789D01*
X122894242Y-149577688D01*
X122961475Y-149558689D01*
X123026183Y-149577689D01*
X123068256Y-149604125D01*
X123150475Y-149655788D01*
X123320745Y-149715368D01*
X123320750Y-149715369D01*
X123499996Y-149735565D01*
X123500000Y-149735565D01*
X123500004Y-149735565D01*
X123679249Y-149715369D01*
X123679252Y-149715368D01*
X123679255Y-149715368D01*
X123849522Y-149655789D01*
X124002262Y-149559816D01*
X124002267Y-149559810D01*
X124005097Y-149557555D01*
X124007275Y-149556665D01*
X124008158Y-149556111D01*
X124008255Y-149556265D01*
X124069783Y-149531145D01*
X124082412Y-149530500D01*
X126407401Y-149530500D01*
X126474440Y-149550185D01*
X126484714Y-149557553D01*
X126488468Y-149560546D01*
X126488473Y-149560551D01*
X126610013Y-149636920D01*
X126640041Y-149655788D01*
X126641213Y-149656524D01*
X126809382Y-149715369D01*
X126811480Y-149716103D01*
X126811485Y-149716104D01*
X126890866Y-149725047D01*
X126990735Y-149736300D01*
X127010112Y-149734116D01*
X127078931Y-149746169D01*
X127130312Y-149793516D01*
X127147217Y-149843452D01*
X127154630Y-149909250D01*
X127154631Y-149909254D01*
X127214211Y-150079523D01*
X127258495Y-150150000D01*
X127310184Y-150232262D01*
X127437738Y-150359816D01*
X127590478Y-150455789D01*
X127715460Y-150499522D01*
X127760745Y-150515368D01*
X127760750Y-150515369D01*
X127939996Y-150535565D01*
X127940000Y-150535565D01*
X127940004Y-150535565D01*
X128119249Y-150515369D01*
X128119252Y-150515368D01*
X128119255Y-150515368D01*
X128289522Y-150455789D01*
X128442262Y-150359816D01*
X128569816Y-150232262D01*
X128665789Y-150079522D01*
X128725368Y-149909255D01*
X128737624Y-149800478D01*
X128745565Y-149730003D01*
X128745565Y-149729996D01*
X128725369Y-149550750D01*
X128725368Y-149550745D01*
X128665788Y-149380476D01*
X128569815Y-149227737D01*
X128442262Y-149100184D01*
X128289523Y-149004211D01*
X128119254Y-148944631D01*
X128119249Y-148944630D01*
X127940004Y-148924435D01*
X127939996Y-148924435D01*
X127920620Y-148926618D01*
X127851798Y-148914563D01*
X127800419Y-148867214D01*
X127783517Y-148817280D01*
X127776104Y-148751485D01*
X127776103Y-148751480D01*
X127716523Y-148581211D01*
X127677317Y-148518815D01*
X127620551Y-148428473D01*
X127492997Y-148300919D01*
X127436951Y-148265703D01*
X127352840Y-148212852D01*
X127306549Y-148160517D01*
X127295901Y-148091463D01*
X127324276Y-148027615D01*
X127371347Y-147993302D01*
X127374598Y-147991956D01*
X127374605Y-147991955D01*
X127374605Y-147991954D01*
X127404874Y-147979415D01*
X127456547Y-147958013D01*
X127564637Y-147885789D01*
X127604036Y-147859464D01*
X128602318Y-146861179D01*
X128663641Y-146827695D01*
X128733332Y-146832679D01*
X128777680Y-146861180D01*
X131100013Y-149183513D01*
X131133498Y-149244836D01*
X131128514Y-149314528D01*
X131086642Y-149370461D01*
X131053287Y-149388235D01*
X130950480Y-149424209D01*
X130797737Y-149520184D01*
X130670184Y-149647737D01*
X130574211Y-149800476D01*
X130514631Y-149970745D01*
X130514630Y-149970750D01*
X130494435Y-150149996D01*
X130494435Y-150150003D01*
X130514630Y-150329249D01*
X130514631Y-150329254D01*
X130574211Y-150499523D01*
X130584168Y-150515369D01*
X130670184Y-150652262D01*
X130797738Y-150779816D01*
X130950478Y-150875789D01*
X131120745Y-150935368D01*
X131120750Y-150935369D01*
X131182114Y-150942282D01*
X131229383Y-150947608D01*
X131293797Y-150974674D01*
X131333352Y-151032268D01*
X131339500Y-151070828D01*
X131339500Y-151962438D01*
X131319815Y-152029477D01*
X131267011Y-152075232D01*
X131197853Y-152085176D01*
X131134297Y-152056151D01*
X131110507Y-152028411D01*
X131059817Y-151947739D01*
X130932262Y-151820184D01*
X130779523Y-151724211D01*
X130609254Y-151664631D01*
X130609249Y-151664630D01*
X130430004Y-151644435D01*
X130429996Y-151644435D01*
X130250750Y-151664630D01*
X130250737Y-151664633D01*
X130080481Y-151724209D01*
X130080472Y-151724213D01*
X130021885Y-151761026D01*
X129954649Y-151780026D01*
X129889942Y-151761025D01*
X129799526Y-151704212D01*
X129629254Y-151644631D01*
X129629249Y-151644630D01*
X129450004Y-151624435D01*
X129449996Y-151624435D01*
X129270750Y-151644630D01*
X129270745Y-151644631D01*
X129100476Y-151704211D01*
X128947737Y-151800184D01*
X128820184Y-151927737D01*
X128724211Y-152080476D01*
X128664631Y-152250745D01*
X128664630Y-152250750D01*
X128644435Y-152429996D01*
X128644435Y-152430003D01*
X128659681Y-152565319D01*
X128647626Y-152634141D01*
X128600277Y-152685520D01*
X128550349Y-152702422D01*
X128530749Y-152704630D01*
X128360478Y-152764210D01*
X128207737Y-152860184D01*
X128080184Y-152987737D01*
X127984211Y-153140476D01*
X127924631Y-153310745D01*
X127924630Y-153310750D01*
X127904435Y-153489996D01*
X127904435Y-153490003D01*
X127924630Y-153669249D01*
X127924631Y-153669254D01*
X127984211Y-153839523D01*
X128064022Y-153966540D01*
X128080184Y-153992262D01*
X128207738Y-154119816D01*
X128360478Y-154215789D01*
X128528079Y-154274435D01*
X128530745Y-154275368D01*
X128530750Y-154275369D01*
X128709996Y-154295565D01*
X128710000Y-154295565D01*
X128710004Y-154295565D01*
X128889249Y-154275369D01*
X128889252Y-154275368D01*
X128889255Y-154275368D01*
X129059522Y-154215789D01*
X129212262Y-154119816D01*
X129339816Y-153992262D01*
X129435789Y-153839522D01*
X129495368Y-153669255D01*
X129499938Y-153628695D01*
X129515565Y-153490003D01*
X129515565Y-153489997D01*
X129500318Y-153354680D01*
X129512372Y-153285858D01*
X129559721Y-153234478D01*
X129609655Y-153217576D01*
X129629255Y-153215368D01*
X129629259Y-153215366D01*
X129629262Y-153215366D01*
X129695840Y-153192068D01*
X129799522Y-153155789D01*
X129858112Y-153118973D01*
X129925348Y-153099973D01*
X129990055Y-153118972D01*
X130080478Y-153175789D01*
X130199896Y-153217575D01*
X130250745Y-153235368D01*
X130250750Y-153235369D01*
X130429996Y-153255565D01*
X130430000Y-153255565D01*
X130430004Y-153255565D01*
X130609249Y-153235369D01*
X130609252Y-153235368D01*
X130609255Y-153235368D01*
X130779522Y-153175789D01*
X130932262Y-153079816D01*
X131059816Y-152952262D01*
X131110506Y-152871588D01*
X131162841Y-152825298D01*
X131231894Y-152814650D01*
X131295743Y-152843025D01*
X131334115Y-152901415D01*
X131339500Y-152937561D01*
X131339500Y-153628695D01*
X131374103Y-153802658D01*
X131374106Y-153802667D01*
X131441983Y-153966540D01*
X131441990Y-153966553D01*
X131540535Y-154114034D01*
X131540538Y-154114038D01*
X131665961Y-154239461D01*
X131665965Y-154239464D01*
X131813446Y-154338009D01*
X131813459Y-154338016D01*
X131936363Y-154388923D01*
X131977334Y-154405894D01*
X131977336Y-154405894D01*
X131977341Y-154405896D01*
X132151304Y-154440499D01*
X132151307Y-154440500D01*
X132151309Y-154440500D01*
X132328693Y-154440500D01*
X132328694Y-154440499D01*
X132386682Y-154428964D01*
X132502658Y-154405896D01*
X132502661Y-154405894D01*
X132502666Y-154405894D01*
X132666547Y-154338013D01*
X132814035Y-154239464D01*
X132939464Y-154114035D01*
X133038013Y-153966547D01*
X133105894Y-153802666D01*
X133140500Y-153628691D01*
X133140500Y-149009990D01*
X133160185Y-148942951D01*
X133198526Y-148904997D01*
X133302262Y-148839816D01*
X133429816Y-148712262D01*
X133525789Y-148559522D01*
X133585368Y-148389255D01*
X133586495Y-148379254D01*
X133605565Y-148210003D01*
X133605565Y-148209996D01*
X133585369Y-148030750D01*
X133585368Y-148030745D01*
X133559918Y-147958013D01*
X133525789Y-147860478D01*
X133519504Y-147850476D01*
X133429815Y-147707737D01*
X133302262Y-147580184D01*
X133149523Y-147484211D01*
X132979254Y-147424631D01*
X132979249Y-147424630D01*
X132800004Y-147404435D01*
X132799996Y-147404435D01*
X132620750Y-147424630D01*
X132620745Y-147424631D01*
X132450476Y-147484211D01*
X132297737Y-147580184D01*
X132258392Y-147619530D01*
X132197069Y-147653015D01*
X132127377Y-147648031D01*
X132083030Y-147619530D01*
X130051180Y-145587680D01*
X130017695Y-145526357D01*
X130022679Y-145456665D01*
X130051180Y-145412318D01*
X130565487Y-144898011D01*
X130643495Y-144820003D01*
X131434435Y-144820003D01*
X131454630Y-144999249D01*
X131454631Y-144999254D01*
X131514211Y-145169523D01*
X131539529Y-145209816D01*
X131610184Y-145322262D01*
X131737738Y-145449816D01*
X131890478Y-145545789D01*
X132010196Y-145587680D01*
X132060745Y-145605368D01*
X132060750Y-145605369D01*
X132239996Y-145625565D01*
X132240000Y-145625565D01*
X132240004Y-145625565D01*
X132419249Y-145605369D01*
X132419252Y-145605368D01*
X132419255Y-145605368D01*
X132589522Y-145545789D01*
X132742262Y-145449816D01*
X132869816Y-145322262D01*
X132965789Y-145169522D01*
X133025368Y-144999255D01*
X133025369Y-144999249D01*
X133045565Y-144820003D01*
X133045565Y-144819996D01*
X133025369Y-144640750D01*
X133025368Y-144640745D01*
X132988908Y-144536548D01*
X132965789Y-144470478D01*
X132869816Y-144317738D01*
X132742262Y-144190184D01*
X132739894Y-144188696D01*
X132589523Y-144094211D01*
X132419254Y-144034631D01*
X132419249Y-144034630D01*
X132240004Y-144014435D01*
X132239996Y-144014435D01*
X132060750Y-144034630D01*
X132060745Y-144034631D01*
X131890476Y-144094211D01*
X131737737Y-144190184D01*
X131610184Y-144317737D01*
X131514211Y-144470476D01*
X131454631Y-144640745D01*
X131454630Y-144640750D01*
X131434435Y-144819996D01*
X131434435Y-144820003D01*
X130643495Y-144820003D01*
X131199464Y-144264035D01*
X131205182Y-144255477D01*
X131298013Y-144116547D01*
X131318230Y-144067738D01*
X131322372Y-144057739D01*
X131322372Y-144057738D01*
X131353362Y-143982922D01*
X131365895Y-143952666D01*
X131400500Y-143778691D01*
X131400500Y-143601308D01*
X131400500Y-141236321D01*
X131420185Y-141169282D01*
X131472989Y-141123527D01*
X131510612Y-141113101D01*
X131579255Y-141105368D01*
X131749522Y-141045789D01*
X131902262Y-140949816D01*
X132029816Y-140822262D01*
X132114540Y-140687423D01*
X132166873Y-140641133D01*
X132233417Y-140630176D01*
X132369997Y-140645565D01*
X132370000Y-140645565D01*
X132370004Y-140645565D01*
X132549249Y-140625369D01*
X132549252Y-140625368D01*
X132549255Y-140625368D01*
X132719522Y-140565789D01*
X132872262Y-140469816D01*
X132999816Y-140342262D01*
X133095789Y-140189522D01*
X133155368Y-140019255D01*
X133155369Y-140019249D01*
X133175565Y-139840003D01*
X133175565Y-139839996D01*
X133155369Y-139660750D01*
X133155367Y-139660742D01*
X133112326Y-139537738D01*
X133095789Y-139490478D01*
X133088613Y-139479058D01*
X133011017Y-139355565D01*
X132999816Y-139337738D01*
X132902081Y-139240003D01*
X136684435Y-139240003D01*
X136704630Y-139419249D01*
X136704631Y-139419254D01*
X136764211Y-139589523D01*
X136859062Y-139740476D01*
X136860184Y-139742262D01*
X136987738Y-139869816D01*
X137052876Y-139910745D01*
X137124206Y-139955565D01*
X137140478Y-139965789D01*
X137293258Y-140019249D01*
X137310745Y-140025368D01*
X137310750Y-140025369D01*
X137489996Y-140045565D01*
X137490000Y-140045565D01*
X137490004Y-140045565D01*
X137669249Y-140025369D01*
X137669252Y-140025368D01*
X137669255Y-140025368D01*
X137839522Y-139965789D01*
X137992262Y-139869816D01*
X138119816Y-139742262D01*
X138215789Y-139589522D01*
X138275368Y-139419255D01*
X138275369Y-139419249D01*
X138295565Y-139240003D01*
X138295565Y-139239996D01*
X138275369Y-139060750D01*
X138275368Y-139060745D01*
X138243877Y-138970750D01*
X138215789Y-138890478D01*
X138194095Y-138855953D01*
X138166044Y-138811309D01*
X138119816Y-138737738D01*
X137992262Y-138610184D01*
X137952768Y-138585368D01*
X137839523Y-138514211D01*
X137669254Y-138454631D01*
X137669249Y-138454630D01*
X137490004Y-138434435D01*
X137489996Y-138434435D01*
X137310750Y-138454630D01*
X137310745Y-138454631D01*
X137140476Y-138514211D01*
X136987737Y-138610184D01*
X136860184Y-138737737D01*
X136764211Y-138890476D01*
X136704631Y-139060745D01*
X136704630Y-139060750D01*
X136684435Y-139239996D01*
X136684435Y-139240003D01*
X132902081Y-139240003D01*
X132872262Y-139210184D01*
X132810799Y-139171564D01*
X132719523Y-139114211D01*
X132549254Y-139054631D01*
X132549249Y-139054630D01*
X132370004Y-139034435D01*
X132369996Y-139034435D01*
X132190750Y-139054630D01*
X132190745Y-139054631D01*
X132020476Y-139114211D01*
X131867737Y-139210184D01*
X131740182Y-139337739D01*
X131655458Y-139472576D01*
X131603123Y-139518867D01*
X131536579Y-139529823D01*
X131510614Y-139526897D01*
X131446201Y-139499829D01*
X131406647Y-139442234D01*
X131400500Y-139403677D01*
X131400500Y-137524362D01*
X131420185Y-137457323D01*
X131436819Y-137436681D01*
X132389462Y-136484038D01*
X132389464Y-136484036D01*
X132441548Y-136406086D01*
X132488013Y-136336547D01*
X132531209Y-136232262D01*
X132555895Y-136172666D01*
X132590500Y-135998692D01*
X132590500Y-135821308D01*
X132590500Y-133771309D01*
X132590500Y-132458516D01*
X132590500Y-132458513D01*
X132590499Y-132458511D01*
X132555896Y-132284548D01*
X132555893Y-132284539D01*
X132555256Y-132283002D01*
X132500363Y-132150476D01*
X132488016Y-132120666D01*
X132488009Y-132120653D01*
X132389465Y-131973173D01*
X132329810Y-131913518D01*
X132264035Y-131847743D01*
X131416295Y-131000003D01*
X136111102Y-131000003D01*
X136131297Y-131179249D01*
X136131298Y-131179254D01*
X136190878Y-131349523D01*
X136241145Y-131429522D01*
X136286851Y-131502262D01*
X136414405Y-131629816D01*
X136518387Y-131695152D01*
X136564677Y-131747486D01*
X136575326Y-131816539D01*
X136546950Y-131880387D01*
X136540096Y-131887826D01*
X136430183Y-131997739D01*
X136334211Y-132150476D01*
X136274631Y-132320745D01*
X136274630Y-132320750D01*
X136254435Y-132499996D01*
X136254435Y-132500003D01*
X136274630Y-132679249D01*
X136274631Y-132679254D01*
X136334211Y-132849523D01*
X136379858Y-132922169D01*
X136430184Y-133002262D01*
X136557738Y-133129816D01*
X136710478Y-133225789D01*
X136721984Y-133229815D01*
X136880745Y-133285368D01*
X136880750Y-133285369D01*
X137059996Y-133305565D01*
X137060000Y-133305565D01*
X137060004Y-133305565D01*
X137239249Y-133285369D01*
X137239252Y-133285368D01*
X137239255Y-133285368D01*
X137409522Y-133225789D01*
X137562262Y-133129816D01*
X137689816Y-133002262D01*
X137785789Y-132849522D01*
X137845368Y-132679255D01*
X137846254Y-132671395D01*
X137865565Y-132500003D01*
X137865565Y-132499996D01*
X137845369Y-132320750D01*
X137845368Y-132320745D01*
X137825391Y-132263655D01*
X137785789Y-132150478D01*
X137689816Y-131997738D01*
X137562262Y-131870184D01*
X137458279Y-131804847D01*
X137411989Y-131752513D01*
X137401341Y-131683460D01*
X137429716Y-131619611D01*
X137436547Y-131612197D01*
X137546483Y-131502262D01*
X137642456Y-131349522D01*
X137702035Y-131179255D01*
X137708467Y-131122169D01*
X137722232Y-131000003D01*
X137722232Y-130999996D01*
X137702036Y-130820750D01*
X137702035Y-130820745D01*
X137679159Y-130755369D01*
X137642456Y-130650478D01*
X137627053Y-130625965D01*
X137570391Y-130535788D01*
X137546483Y-130497738D01*
X137418929Y-130370184D01*
X137406964Y-130362666D01*
X137266190Y-130274211D01*
X137095921Y-130214631D01*
X137095916Y-130214630D01*
X136916671Y-130194435D01*
X136916663Y-130194435D01*
X136737417Y-130214630D01*
X136737412Y-130214631D01*
X136567143Y-130274211D01*
X136414404Y-130370184D01*
X136286851Y-130497737D01*
X136190878Y-130650476D01*
X136131298Y-130820745D01*
X136131297Y-130820750D01*
X136111102Y-130999996D01*
X136111102Y-131000003D01*
X131416295Y-131000003D01*
X131090326Y-130674034D01*
X129889252Y-129472959D01*
X129855767Y-129411636D01*
X129860751Y-129341944D01*
X129871934Y-129319315D01*
X129899899Y-129274809D01*
X129905333Y-129270003D01*
X132474435Y-129270003D01*
X132494630Y-129449249D01*
X132494631Y-129449254D01*
X132554211Y-129619523D01*
X132616788Y-129719113D01*
X132650184Y-129772262D01*
X132777738Y-129899816D01*
X132868080Y-129956582D01*
X132920077Y-129989254D01*
X132930478Y-129995789D01*
X133003973Y-130021506D01*
X133100745Y-130055368D01*
X133100750Y-130055369D01*
X133279996Y-130075565D01*
X133280000Y-130075565D01*
X133280004Y-130075565D01*
X133459249Y-130055369D01*
X133459252Y-130055368D01*
X133459255Y-130055368D01*
X133629522Y-129995789D01*
X133782262Y-129899816D01*
X133909816Y-129772262D01*
X134005789Y-129619522D01*
X134065368Y-129449255D01*
X134065369Y-129449249D01*
X134085565Y-129270003D01*
X134085565Y-129269996D01*
X134065369Y-129090750D01*
X134065368Y-129090745D01*
X134033615Y-129000000D01*
X134005789Y-128920478D01*
X133909816Y-128767738D01*
X133782262Y-128640184D01*
X133756348Y-128623901D01*
X133629523Y-128544211D01*
X133459254Y-128484631D01*
X133459249Y-128484630D01*
X133280004Y-128464435D01*
X133279996Y-128464435D01*
X133100750Y-128484630D01*
X133100745Y-128484631D01*
X132930476Y-128544211D01*
X132777737Y-128640184D01*
X132650184Y-128767737D01*
X132554211Y-128920476D01*
X132494631Y-129090745D01*
X132494630Y-129090750D01*
X132474435Y-129269996D01*
X132474435Y-129270003D01*
X129905333Y-129270003D01*
X129952233Y-129228520D01*
X129991009Y-129217564D01*
X130099249Y-129205369D01*
X130099252Y-129205368D01*
X130099255Y-129205368D01*
X130269522Y-129145789D01*
X130422262Y-129049816D01*
X130549816Y-128922262D01*
X130645789Y-128769522D01*
X130705368Y-128599255D01*
X130705539Y-128597737D01*
X130725565Y-128420003D01*
X130725565Y-128419996D01*
X130705369Y-128240750D01*
X130705368Y-128240745D01*
X130653137Y-128091478D01*
X130645789Y-128070478D01*
X130636902Y-128056335D01*
X130592656Y-127985918D01*
X130549816Y-127917738D01*
X130422262Y-127790184D01*
X130311326Y-127720478D01*
X130269523Y-127694211D01*
X130099254Y-127634631D01*
X130099249Y-127634630D01*
X129920004Y-127614435D01*
X129919996Y-127614435D01*
X129740750Y-127634630D01*
X129740745Y-127634631D01*
X129570476Y-127694211D01*
X129417737Y-127790184D01*
X129290184Y-127917737D01*
X129210102Y-128045187D01*
X129157767Y-128091478D01*
X129118991Y-128102435D01*
X129025825Y-128112932D01*
X128957003Y-128100877D01*
X128905624Y-128053528D01*
X128888000Y-127985918D01*
X128909727Y-127919512D01*
X128924256Y-127902036D01*
X131354426Y-125471865D01*
X131415749Y-125438381D01*
X131485441Y-125443365D01*
X131521464Y-125466516D01*
X131522295Y-125465475D01*
X131527737Y-125469815D01*
X131527738Y-125469816D01*
X131680478Y-125565789D01*
X131778256Y-125600003D01*
X131850745Y-125625368D01*
X131850750Y-125625369D01*
X132029996Y-125645565D01*
X132030000Y-125645565D01*
X132030004Y-125645565D01*
X132209249Y-125625369D01*
X132209252Y-125625368D01*
X132209255Y-125625368D01*
X132379522Y-125565789D01*
X132532262Y-125469816D01*
X132659816Y-125342262D01*
X132755789Y-125189522D01*
X132815368Y-125019255D01*
X132825531Y-124929057D01*
X132835565Y-124840003D01*
X132835565Y-124839996D01*
X132815369Y-124660750D01*
X132815366Y-124660737D01*
X132778526Y-124555455D01*
X132774964Y-124485676D01*
X132809692Y-124425049D01*
X132871686Y-124392821D01*
X132895567Y-124390500D01*
X133225638Y-124390500D01*
X133292677Y-124410185D01*
X133313319Y-124426819D01*
X137840536Y-128954035D01*
X137909561Y-129023060D01*
X137965966Y-129079465D01*
X138113446Y-129178009D01*
X138113458Y-129178016D01*
X138273269Y-129244210D01*
X138273271Y-129244211D01*
X138277334Y-129245894D01*
X138277337Y-129245894D01*
X138277338Y-129245895D01*
X138451305Y-129280500D01*
X138451308Y-129280500D01*
X138451309Y-129280500D01*
X141491309Y-129280500D01*
X141533538Y-129280500D01*
X141600577Y-129300185D01*
X141646332Y-129352989D01*
X141656276Y-129422147D01*
X141645260Y-129458298D01*
X141644213Y-129460472D01*
X141584631Y-129630745D01*
X141584630Y-129630750D01*
X141564435Y-129809996D01*
X141564435Y-129810003D01*
X141584630Y-129989249D01*
X141584631Y-129989254D01*
X141644211Y-130159523D01*
X141707646Y-130260478D01*
X141740184Y-130312262D01*
X141867738Y-130439816D01*
X141942807Y-130486985D01*
X142005048Y-130526094D01*
X142020478Y-130535789D01*
X142190745Y-130595368D01*
X142190750Y-130595369D01*
X142369996Y-130615565D01*
X142370000Y-130615565D01*
X142370004Y-130615565D01*
X142549249Y-130595369D01*
X142549252Y-130595368D01*
X142549255Y-130595368D01*
X142719522Y-130535789D01*
X142872262Y-130439816D01*
X142999816Y-130312262D01*
X143095789Y-130159522D01*
X143155368Y-129989255D01*
X143156390Y-129980184D01*
X143175565Y-129810003D01*
X143175565Y-129809996D01*
X143155369Y-129630750D01*
X143155368Y-129630745D01*
X143142499Y-129593967D01*
X143095789Y-129460478D01*
X143095786Y-129460474D01*
X143095786Y-129460472D01*
X143094740Y-129458298D01*
X143094485Y-129456753D01*
X143093489Y-129453905D01*
X143093988Y-129453730D01*
X143083390Y-129389357D01*
X143111114Y-129325223D01*
X143169111Y-129286259D01*
X143206462Y-129280500D01*
X144343472Y-129280500D01*
X144410511Y-129300185D01*
X144456266Y-129352989D01*
X144466210Y-129422147D01*
X144448466Y-129470472D01*
X144354211Y-129620476D01*
X144294631Y-129790745D01*
X144294630Y-129790750D01*
X144274435Y-129969996D01*
X144274435Y-129970003D01*
X144294630Y-130149249D01*
X144294631Y-130149254D01*
X144354211Y-130319523D01*
X144393576Y-130382171D01*
X144450184Y-130472262D01*
X144577738Y-130599816D01*
X144619354Y-130625965D01*
X144695861Y-130674038D01*
X144730478Y-130695789D01*
X144900745Y-130755368D01*
X144900750Y-130755369D01*
X145079996Y-130775565D01*
X145080000Y-130775565D01*
X145080004Y-130775565D01*
X145259249Y-130755369D01*
X145259252Y-130755368D01*
X145259255Y-130755368D01*
X145429522Y-130695789D01*
X145582262Y-130599816D01*
X145661608Y-130520470D01*
X145722931Y-130486985D01*
X145792623Y-130491969D01*
X145836970Y-130520470D01*
X147541195Y-132224694D01*
X147541205Y-132224705D01*
X147545535Y-132229035D01*
X147545536Y-132229036D01*
X147613182Y-132296682D01*
X147646666Y-132358003D01*
X147649500Y-132384362D01*
X147649500Y-132918841D01*
X147629815Y-132985880D01*
X147577011Y-133031635D01*
X147507853Y-133041579D01*
X147444297Y-133012554D01*
X147434770Y-133002631D01*
X147434740Y-133002662D01*
X147302262Y-132870184D01*
X147149523Y-132774211D01*
X146979254Y-132714631D01*
X146979249Y-132714630D01*
X146800004Y-132694435D01*
X146799996Y-132694435D01*
X146620750Y-132714630D01*
X146620745Y-132714631D01*
X146450476Y-132774211D01*
X146297737Y-132870184D01*
X146170184Y-132997737D01*
X146074211Y-133150476D01*
X146014631Y-133320745D01*
X146014630Y-133320750D01*
X145994435Y-133499996D01*
X145994435Y-133499998D01*
X145995744Y-133511614D01*
X145983691Y-133580436D01*
X145936343Y-133631816D01*
X145872524Y-133649500D01*
X145726076Y-133649500D01*
X145697242Y-133655234D01*
X145697243Y-133655235D01*
X145581093Y-133678339D01*
X145581083Y-133678342D01*
X145501081Y-133711479D01*
X145501082Y-133711480D01*
X145444506Y-133734915D01*
X145404676Y-133761529D01*
X145321582Y-133817049D01*
X145321579Y-133817052D01*
X144525451Y-134613181D01*
X144464128Y-134646666D01*
X144437770Y-134649500D01*
X140299972Y-134649500D01*
X140259017Y-134642542D01*
X140179254Y-134614631D01*
X140179249Y-134614630D01*
X140000004Y-134594435D01*
X139999996Y-134594435D01*
X139820750Y-134614630D01*
X139820745Y-134614631D01*
X139650476Y-134674211D01*
X139497737Y-134770184D01*
X139370184Y-134897737D01*
X139274211Y-135050476D01*
X139214631Y-135220745D01*
X139214630Y-135220750D01*
X139194435Y-135399996D01*
X139194435Y-135400003D01*
X139214630Y-135579249D01*
X139214631Y-135579254D01*
X139274211Y-135749523D01*
X139319317Y-135821308D01*
X139370184Y-135902262D01*
X139497738Y-136029816D01*
X139507244Y-136035789D01*
X139634206Y-136115565D01*
X139650478Y-136125789D01*
X139784422Y-136172658D01*
X139820745Y-136185368D01*
X139820750Y-136185369D01*
X139999996Y-136205565D01*
X140000000Y-136205565D01*
X140000004Y-136205565D01*
X140179249Y-136185369D01*
X140179252Y-136185368D01*
X140179255Y-136185368D01*
X140259017Y-136157457D01*
X140299972Y-136150500D01*
X144500028Y-136150500D01*
X144540983Y-136157458D01*
X144620745Y-136185368D01*
X144620750Y-136185369D01*
X144799996Y-136205565D01*
X144800000Y-136205565D01*
X144800004Y-136205565D01*
X144979249Y-136185369D01*
X144979252Y-136185368D01*
X144979255Y-136185368D01*
X145149522Y-136125789D01*
X145302262Y-136029816D01*
X145429816Y-135902262D01*
X145525789Y-135749522D01*
X145525792Y-135749510D01*
X145528810Y-135743248D01*
X145530650Y-135744134D01*
X145553305Y-135708061D01*
X146074548Y-135186819D01*
X146135871Y-135153334D01*
X146162229Y-135150500D01*
X147525500Y-135150500D01*
X147592539Y-135170185D01*
X147638294Y-135222989D01*
X147649500Y-135274500D01*
X147649500Y-135858693D01*
X147657117Y-135896985D01*
X147659500Y-135921177D01*
X147659500Y-137044621D01*
X147639815Y-137111660D01*
X147587011Y-137157415D01*
X147517853Y-137167359D01*
X147469528Y-137149615D01*
X147349523Y-137074211D01*
X147179254Y-137014631D01*
X147179249Y-137014630D01*
X147000004Y-136994435D01*
X146999996Y-136994435D01*
X146820750Y-137014630D01*
X146820745Y-137014631D01*
X146650476Y-137074211D01*
X146497737Y-137170184D01*
X146370184Y-137297737D01*
X146274211Y-137450476D01*
X146214631Y-137620745D01*
X146214630Y-137620750D01*
X146194435Y-137799996D01*
X146194435Y-137800003D01*
X146214630Y-137979249D01*
X146214631Y-137979254D01*
X146274211Y-138149523D01*
X146327829Y-138234855D01*
X146370184Y-138302262D01*
X146497738Y-138429816D01*
X146581205Y-138482262D01*
X146650121Y-138525565D01*
X146650478Y-138525789D01*
X146719678Y-138550003D01*
X146820745Y-138585368D01*
X146820750Y-138585369D01*
X146999996Y-138605565D01*
X147000000Y-138605565D01*
X147000004Y-138605565D01*
X147179249Y-138585369D01*
X147179252Y-138585368D01*
X147179255Y-138585368D01*
X147349522Y-138525789D01*
X147469528Y-138450383D01*
X147536764Y-138431384D01*
X147603600Y-138451752D01*
X147648814Y-138505019D01*
X147659500Y-138555378D01*
X147659500Y-139648693D01*
X147667117Y-139686985D01*
X147669500Y-139711177D01*
X147669500Y-142905637D01*
X147649815Y-142972676D01*
X147633181Y-142993318D01*
X147100540Y-143525958D01*
X147100534Y-143525965D01*
X147001988Y-143673451D01*
X146934105Y-143837333D01*
X146934103Y-143837341D01*
X146899500Y-144011303D01*
X146899500Y-144188696D01*
X146934103Y-144362658D01*
X146934105Y-144362666D01*
X147001988Y-144526548D01*
X147100534Y-144674034D01*
X147100540Y-144674041D01*
X147225958Y-144799459D01*
X147225965Y-144799465D01*
X147373451Y-144898011D01*
X147373452Y-144898011D01*
X147373453Y-144898012D01*
X147537334Y-144965895D01*
X147662291Y-144990750D01*
X147711303Y-145000499D01*
X147711307Y-145000500D01*
X147711308Y-145000500D01*
X147888693Y-145000500D01*
X147888694Y-145000499D01*
X148062666Y-144965895D01*
X148226547Y-144898012D01*
X148374036Y-144799464D01*
X149269463Y-143904036D01*
X149295232Y-143865470D01*
X149368013Y-143756547D01*
X149435894Y-143592666D01*
X149470500Y-143418691D01*
X149470500Y-141960000D01*
X151644341Y-141960000D01*
X151664936Y-142195403D01*
X151664938Y-142195413D01*
X151726094Y-142423655D01*
X151726096Y-142423659D01*
X151726097Y-142423663D01*
X151812333Y-142608597D01*
X151825965Y-142637830D01*
X151825967Y-142637834D01*
X151905420Y-142751304D01*
X151961505Y-142831401D01*
X152128599Y-142998495D01*
X152225384Y-143066265D01*
X152322165Y-143134032D01*
X152322167Y-143134033D01*
X152322170Y-143134035D01*
X152536337Y-143233903D01*
X152536343Y-143233904D01*
X152536344Y-143233905D01*
X152574404Y-143244103D01*
X152764592Y-143295063D01*
X152952918Y-143311539D01*
X152999999Y-143315659D01*
X153000000Y-143315659D01*
X153000001Y-143315659D01*
X153041959Y-143311988D01*
X153235408Y-143295063D01*
X153463663Y-143233903D01*
X153677830Y-143134035D01*
X153871401Y-142998495D01*
X154038495Y-142831401D01*
X154174035Y-142637830D01*
X154273903Y-142423663D01*
X154335063Y-142195408D01*
X154355659Y-141960000D01*
X154335063Y-141724592D01*
X154273903Y-141496337D01*
X154174035Y-141282171D01*
X154164964Y-141269215D01*
X154038494Y-141088597D01*
X153871402Y-140921506D01*
X153871396Y-140921501D01*
X153685842Y-140791575D01*
X153642217Y-140736998D01*
X153635023Y-140667500D01*
X153666546Y-140605145D01*
X153685842Y-140588425D01*
X153722562Y-140562713D01*
X153871401Y-140458495D01*
X154038495Y-140291401D01*
X154174035Y-140097830D01*
X154273903Y-139883663D01*
X154335063Y-139655408D01*
X154355659Y-139420000D01*
X154335063Y-139184592D01*
X154277764Y-138970745D01*
X154273905Y-138956344D01*
X154273904Y-138956343D01*
X154273903Y-138956337D01*
X154174035Y-138742171D01*
X154170931Y-138737737D01*
X154038494Y-138548597D01*
X153871402Y-138381506D01*
X153871396Y-138381501D01*
X153685842Y-138251575D01*
X153642217Y-138196998D01*
X153635023Y-138127500D01*
X153666546Y-138065145D01*
X153685842Y-138048425D01*
X153708026Y-138032891D01*
X153871401Y-137918495D01*
X154038495Y-137751401D01*
X154174035Y-137557830D01*
X154273903Y-137343663D01*
X154335063Y-137115408D01*
X154355659Y-136880000D01*
X154335063Y-136644592D01*
X154273903Y-136416337D01*
X154174035Y-136202171D01*
X154162672Y-136185942D01*
X154038494Y-136008597D01*
X153871402Y-135841506D01*
X153871396Y-135841501D01*
X153685842Y-135711575D01*
X153642217Y-135656998D01*
X153635023Y-135587500D01*
X153666546Y-135525145D01*
X153685842Y-135508425D01*
X153713228Y-135489249D01*
X153871401Y-135378495D01*
X154038495Y-135211401D01*
X154174035Y-135017830D01*
X154273903Y-134803663D01*
X154335063Y-134575408D01*
X154355659Y-134340000D01*
X154335063Y-134104592D01*
X154273903Y-133876337D01*
X154174035Y-133662171D01*
X154169179Y-133655235D01*
X154038494Y-133468597D01*
X153871402Y-133301506D01*
X153871396Y-133301501D01*
X153685842Y-133171575D01*
X153642217Y-133116998D01*
X153635023Y-133047500D01*
X153666546Y-132985145D01*
X153685842Y-132968425D01*
X153783701Y-132899903D01*
X153871401Y-132838495D01*
X154038495Y-132671401D01*
X154174035Y-132477830D01*
X154273903Y-132263663D01*
X154335063Y-132035408D01*
X154355659Y-131800000D01*
X154335063Y-131564592D01*
X154273903Y-131336337D01*
X154174035Y-131122171D01*
X154088841Y-131000500D01*
X154038494Y-130928597D01*
X153871402Y-130761506D01*
X153871395Y-130761501D01*
X153677834Y-130625967D01*
X153677830Y-130625965D01*
X153621751Y-130599815D01*
X153463663Y-130526097D01*
X153463659Y-130526096D01*
X153463655Y-130526094D01*
X153235413Y-130464938D01*
X153235403Y-130464936D01*
X153000001Y-130444341D01*
X152999999Y-130444341D01*
X152764596Y-130464936D01*
X152764586Y-130464938D01*
X152536344Y-130526094D01*
X152536335Y-130526098D01*
X152322171Y-130625964D01*
X152322169Y-130625965D01*
X152128597Y-130761505D01*
X151961505Y-130928597D01*
X151825965Y-131122169D01*
X151825964Y-131122171D01*
X151726098Y-131336335D01*
X151726094Y-131336344D01*
X151664938Y-131564586D01*
X151664936Y-131564596D01*
X151644341Y-131799999D01*
X151644341Y-131800000D01*
X151664936Y-132035403D01*
X151664938Y-132035413D01*
X151726094Y-132263655D01*
X151726096Y-132263659D01*
X151726097Y-132263663D01*
X151770089Y-132358003D01*
X151825965Y-132477830D01*
X151825967Y-132477834D01*
X151961501Y-132671395D01*
X151961506Y-132671402D01*
X152128597Y-132838493D01*
X152128603Y-132838498D01*
X152314158Y-132968425D01*
X152357783Y-133023002D01*
X152364977Y-133092500D01*
X152333454Y-133154855D01*
X152314158Y-133171575D01*
X152128597Y-133301505D01*
X151961505Y-133468597D01*
X151825965Y-133662169D01*
X151825964Y-133662171D01*
X151726098Y-133876335D01*
X151726094Y-133876344D01*
X151664938Y-134104586D01*
X151664936Y-134104596D01*
X151644341Y-134339999D01*
X151644341Y-134340000D01*
X151664936Y-134575403D01*
X151664938Y-134575413D01*
X151726094Y-134803655D01*
X151726096Y-134803659D01*
X151726097Y-134803663D01*
X151825965Y-135017830D01*
X151944292Y-135186819D01*
X151961501Y-135211395D01*
X151961506Y-135211402D01*
X152128597Y-135378493D01*
X152128603Y-135378498D01*
X152314158Y-135508425D01*
X152357783Y-135563002D01*
X152364977Y-135632500D01*
X152333454Y-135694855D01*
X152314158Y-135711575D01*
X152128597Y-135841505D01*
X151961505Y-136008597D01*
X151825965Y-136202169D01*
X151825964Y-136202171D01*
X151757378Y-136349255D01*
X151727171Y-136414035D01*
X151726098Y-136416335D01*
X151726094Y-136416344D01*
X151664938Y-136644586D01*
X151664936Y-136644596D01*
X151644341Y-136879999D01*
X151644341Y-136880000D01*
X151664936Y-137115403D01*
X151664938Y-137115413D01*
X151726094Y-137343655D01*
X151726096Y-137343659D01*
X151726097Y-137343663D01*
X151810359Y-137524362D01*
X151825965Y-137557830D01*
X151825967Y-137557834D01*
X151934281Y-137712521D01*
X151956627Y-137744435D01*
X151961501Y-137751395D01*
X151961506Y-137751402D01*
X152128597Y-137918493D01*
X152128603Y-137918498D01*
X152314158Y-138048425D01*
X152357783Y-138103002D01*
X152364977Y-138172500D01*
X152333454Y-138234855D01*
X152314158Y-138251575D01*
X152128597Y-138381505D01*
X151961505Y-138548597D01*
X151825965Y-138742169D01*
X151825964Y-138742171D01*
X151726098Y-138956335D01*
X151726094Y-138956344D01*
X151664938Y-139184586D01*
X151664936Y-139184596D01*
X151644341Y-139419999D01*
X151644341Y-139420000D01*
X151664936Y-139655403D01*
X151664938Y-139655413D01*
X151726094Y-139883655D01*
X151726096Y-139883659D01*
X151726097Y-139883663D01*
X151759626Y-139955565D01*
X151825965Y-140097830D01*
X151825967Y-140097834D01*
X151870022Y-140160750D01*
X151945997Y-140269254D01*
X151961501Y-140291395D01*
X151961506Y-140291402D01*
X152128597Y-140458493D01*
X152128603Y-140458498D01*
X152314158Y-140588425D01*
X152357783Y-140643002D01*
X152364977Y-140712500D01*
X152333454Y-140774855D01*
X152314158Y-140791575D01*
X152128597Y-140921505D01*
X151961505Y-141088597D01*
X151825965Y-141282169D01*
X151825964Y-141282171D01*
X151726098Y-141496335D01*
X151726094Y-141496344D01*
X151664938Y-141724586D01*
X151664936Y-141724596D01*
X151644341Y-141959999D01*
X151644341Y-141960000D01*
X149470500Y-141960000D01*
X149470500Y-139481309D01*
X149470500Y-139481305D01*
X149470053Y-139479059D01*
X149470051Y-139479052D01*
X149462882Y-139443007D01*
X149460500Y-139418818D01*
X149460500Y-135691308D01*
X149460274Y-135690173D01*
X149460271Y-135690159D01*
X149452882Y-135653009D01*
X149450500Y-135628820D01*
X149450500Y-131871308D01*
X149446162Y-131849502D01*
X149446162Y-131849500D01*
X149415895Y-131697334D01*
X149368230Y-131582262D01*
X149348013Y-131533453D01*
X149348012Y-131533451D01*
X149348011Y-131533449D01*
X149278568Y-131429522D01*
X149278568Y-131429521D01*
X149249465Y-131385965D01*
X149249459Y-131385958D01*
X148814717Y-130951216D01*
X148814694Y-130951195D01*
X146111371Y-128247870D01*
X147259500Y-128247870D01*
X147259501Y-128247876D01*
X147265908Y-128307483D01*
X147316202Y-128442328D01*
X147316206Y-128442335D01*
X147402452Y-128557544D01*
X147402455Y-128557547D01*
X147517664Y-128643793D01*
X147517671Y-128643797D01*
X147652517Y-128694091D01*
X147652516Y-128694091D01*
X147659444Y-128694835D01*
X147712127Y-128700500D01*
X149507872Y-128700499D01*
X149567483Y-128694091D01*
X149702331Y-128643796D01*
X149817546Y-128557546D01*
X149903796Y-128442331D01*
X149954091Y-128307483D01*
X149960500Y-128247873D01*
X149960499Y-127350000D01*
X152334341Y-127350000D01*
X152354936Y-127585403D01*
X152354938Y-127585413D01*
X152416094Y-127813655D01*
X152416096Y-127813659D01*
X152416097Y-127813663D01*
X152496421Y-127985918D01*
X152515965Y-128027830D01*
X152515967Y-128027834D01*
X152618462Y-128174211D01*
X152651505Y-128221401D01*
X152818599Y-128388495D01*
X152915384Y-128456265D01*
X153012165Y-128524032D01*
X153012167Y-128524033D01*
X153012170Y-128524035D01*
X153226337Y-128623903D01*
X153226343Y-128623904D01*
X153226344Y-128623905D01*
X153281285Y-128638626D01*
X153454592Y-128685063D01*
X153631034Y-128700500D01*
X153689999Y-128705659D01*
X153690000Y-128705659D01*
X153690001Y-128705659D01*
X153748966Y-128700500D01*
X153925408Y-128685063D01*
X154153663Y-128623903D01*
X154367830Y-128524035D01*
X154561401Y-128388495D01*
X154728495Y-128221401D01*
X154864035Y-128027830D01*
X154963903Y-127813663D01*
X155025063Y-127585408D01*
X155045659Y-127350000D01*
X155045152Y-127344210D01*
X155036804Y-127248785D01*
X155025063Y-127114592D01*
X154963903Y-126886337D01*
X154864035Y-126672171D01*
X154854943Y-126659185D01*
X154728494Y-126478597D01*
X154561402Y-126311506D01*
X154561395Y-126311501D01*
X154367834Y-126175967D01*
X154367830Y-126175965D01*
X154318043Y-126152749D01*
X154153663Y-126076097D01*
X154153659Y-126076096D01*
X154153655Y-126076094D01*
X153925413Y-126014938D01*
X153925403Y-126014936D01*
X153690001Y-125994341D01*
X153689999Y-125994341D01*
X153454596Y-126014936D01*
X153454586Y-126014938D01*
X153226344Y-126076094D01*
X153226335Y-126076098D01*
X153012171Y-126175964D01*
X153012169Y-126175965D01*
X152818597Y-126311505D01*
X152651505Y-126478597D01*
X152515965Y-126672169D01*
X152515964Y-126672171D01*
X152416098Y-126886335D01*
X152416094Y-126886344D01*
X152354938Y-127114586D01*
X152354936Y-127114596D01*
X152334341Y-127349999D01*
X152334341Y-127350000D01*
X149960499Y-127350000D01*
X149960499Y-126452128D01*
X149954091Y-126392517D01*
X149934714Y-126340565D01*
X149903797Y-126257671D01*
X149903793Y-126257664D01*
X149817547Y-126142455D01*
X149817544Y-126142452D01*
X149702335Y-126056206D01*
X149702328Y-126056202D01*
X149567482Y-126005908D01*
X149567483Y-126005908D01*
X149507883Y-125999501D01*
X149507881Y-125999500D01*
X149507873Y-125999500D01*
X149507864Y-125999500D01*
X147712129Y-125999500D01*
X147712123Y-125999501D01*
X147652516Y-126005908D01*
X147517671Y-126056202D01*
X147517664Y-126056206D01*
X147402455Y-126142452D01*
X147402452Y-126142455D01*
X147316206Y-126257664D01*
X147316202Y-126257671D01*
X147265908Y-126392517D01*
X147259501Y-126452116D01*
X147259501Y-126452123D01*
X147259500Y-126452135D01*
X147259500Y-128247870D01*
X146111371Y-128247870D01*
X145544041Y-127680540D01*
X145544038Y-127680537D01*
X145475334Y-127634631D01*
X145396544Y-127581985D01*
X145396542Y-127581984D01*
X145288673Y-127537304D01*
X145232666Y-127514105D01*
X145232658Y-127514103D01*
X145058696Y-127479500D01*
X145058692Y-127479500D01*
X145058691Y-127479500D01*
X141668691Y-127479500D01*
X138964361Y-127479500D01*
X138897322Y-127459815D01*
X138876680Y-127443181D01*
X136968503Y-125535003D01*
X143799435Y-125535003D01*
X143819630Y-125714249D01*
X143819631Y-125714254D01*
X143879211Y-125884523D01*
X143961156Y-126014936D01*
X143975184Y-126037262D01*
X144102738Y-126164816D01*
X144183791Y-126215745D01*
X144250515Y-126257671D01*
X144255478Y-126260789D01*
X144400405Y-126311501D01*
X144425745Y-126320368D01*
X144425750Y-126320369D01*
X144604996Y-126340565D01*
X144605000Y-126340565D01*
X144605004Y-126340565D01*
X144784249Y-126320369D01*
X144784252Y-126320368D01*
X144784255Y-126320368D01*
X144954522Y-126260789D01*
X145107262Y-126164816D01*
X145234816Y-126037262D01*
X145329116Y-125887183D01*
X145381451Y-125840893D01*
X145450504Y-125830245D01*
X145514353Y-125858620D01*
X145551152Y-125912202D01*
X145564210Y-125949521D01*
X145643743Y-126076097D01*
X145660184Y-126102262D01*
X145787738Y-126229816D01*
X145832058Y-126257664D01*
X145931850Y-126320368D01*
X145940478Y-126325789D01*
X146110745Y-126385368D01*
X146110750Y-126385369D01*
X146289996Y-126405565D01*
X146290000Y-126405565D01*
X146290004Y-126405565D01*
X146469249Y-126385369D01*
X146469252Y-126385368D01*
X146469255Y-126385368D01*
X146639522Y-126325789D01*
X146792262Y-126229816D01*
X146919816Y-126102262D01*
X147015789Y-125949522D01*
X147075368Y-125779255D01*
X147075369Y-125779249D01*
X147095565Y-125600003D01*
X147095565Y-125599996D01*
X147075369Y-125420750D01*
X147075368Y-125420745D01*
X147052625Y-125355750D01*
X147015789Y-125250478D01*
X147014116Y-125247816D01*
X146924224Y-125104754D01*
X146919816Y-125097738D01*
X146792262Y-124970184D01*
X146715390Y-124921882D01*
X146639523Y-124874211D01*
X146469254Y-124814631D01*
X146469249Y-124814630D01*
X146290004Y-124794435D01*
X146289996Y-124794435D01*
X146110750Y-124814630D01*
X146110745Y-124814631D01*
X145940476Y-124874211D01*
X145787737Y-124970184D01*
X145660182Y-125097739D01*
X145565882Y-125247816D01*
X145513547Y-125294106D01*
X145444494Y-125304754D01*
X145380646Y-125276379D01*
X145343847Y-125222796D01*
X145330789Y-125185479D01*
X145330789Y-125185478D01*
X145234816Y-125032738D01*
X145107262Y-124905184D01*
X145098905Y-124899933D01*
X144954523Y-124809211D01*
X144784254Y-124749631D01*
X144784249Y-124749630D01*
X144605004Y-124729435D01*
X144604996Y-124729435D01*
X144425750Y-124749630D01*
X144425745Y-124749631D01*
X144255476Y-124809211D01*
X144102737Y-124905184D01*
X143975184Y-125032737D01*
X143879211Y-125185476D01*
X143819631Y-125355745D01*
X143819630Y-125355750D01*
X143799435Y-125534996D01*
X143799435Y-125535003D01*
X136968503Y-125535003D01*
X136073503Y-124640003D01*
X142014435Y-124640003D01*
X142034630Y-124819249D01*
X142034631Y-124819254D01*
X142094211Y-124989523D01*
X142162207Y-125097737D01*
X142190184Y-125142262D01*
X142317738Y-125269816D01*
X142470478Y-125365789D01*
X142523051Y-125384185D01*
X142640745Y-125425368D01*
X142640750Y-125425369D01*
X142819996Y-125445565D01*
X142820000Y-125445565D01*
X142820004Y-125445565D01*
X142999249Y-125425369D01*
X142999252Y-125425368D01*
X142999255Y-125425368D01*
X143169522Y-125365789D01*
X143322262Y-125269816D01*
X143449816Y-125142262D01*
X143545789Y-124989522D01*
X143605368Y-124819255D01*
X143606111Y-124812665D01*
X143625565Y-124640003D01*
X143625565Y-124639996D01*
X143605369Y-124460750D01*
X143605368Y-124460745D01*
X143545788Y-124290476D01*
X143449815Y-124137737D01*
X143322262Y-124010184D01*
X143169523Y-123914211D01*
X142999254Y-123854631D01*
X142999249Y-123854630D01*
X142820004Y-123834435D01*
X142819996Y-123834435D01*
X142640750Y-123854630D01*
X142640745Y-123854631D01*
X142470476Y-123914211D01*
X142317737Y-124010184D01*
X142190184Y-124137737D01*
X142094211Y-124290476D01*
X142034631Y-124460745D01*
X142034630Y-124460750D01*
X142014435Y-124639996D01*
X142014435Y-124640003D01*
X136073503Y-124640003D01*
X134528911Y-123095411D01*
X134495426Y-123034088D01*
X134500410Y-122964396D01*
X134502015Y-122960316D01*
X134525895Y-122902666D01*
X134560500Y-122728691D01*
X134560500Y-122551308D01*
X134560500Y-121370003D01*
X136104435Y-121370003D01*
X136124630Y-121549249D01*
X136124631Y-121549254D01*
X136184211Y-121719523D01*
X136280184Y-121872262D01*
X136407738Y-121999816D01*
X136459199Y-122032151D01*
X136526803Y-122074630D01*
X136560478Y-122095789D01*
X136649617Y-122126980D01*
X136730745Y-122155368D01*
X136730750Y-122155369D01*
X136909996Y-122175565D01*
X136910000Y-122175565D01*
X136910004Y-122175565D01*
X137089249Y-122155369D01*
X137089252Y-122155368D01*
X137089255Y-122155368D01*
X137259522Y-122095789D01*
X137412262Y-121999816D01*
X137539816Y-121872262D01*
X137635789Y-121719522D01*
X137695368Y-121549255D01*
X137695368Y-121549254D01*
X137697668Y-121542682D01*
X137700506Y-121543675D01*
X137728045Y-121494378D01*
X137789688Y-121461485D01*
X137800996Y-121459679D01*
X137839249Y-121455369D01*
X137839252Y-121455368D01*
X137839255Y-121455368D01*
X138009522Y-121395789D01*
X138162262Y-121299816D01*
X138289816Y-121172262D01*
X138385789Y-121019522D01*
X138445368Y-120849255D01*
X138451199Y-120797505D01*
X138465565Y-120670003D01*
X138465565Y-120669996D01*
X138450918Y-120540000D01*
X139044341Y-120540000D01*
X139064936Y-120775403D01*
X139064938Y-120775413D01*
X139126094Y-121003655D01*
X139126096Y-121003659D01*
X139126097Y-121003663D01*
X139205420Y-121173772D01*
X139225965Y-121217830D01*
X139225967Y-121217834D01*
X139314341Y-121344044D01*
X139361505Y-121411401D01*
X139528599Y-121578495D01*
X139592806Y-121623453D01*
X139722165Y-121714032D01*
X139722167Y-121714033D01*
X139722170Y-121714035D01*
X139936337Y-121813903D01*
X140164592Y-121875063D01*
X140352918Y-121891539D01*
X140399999Y-121895659D01*
X140400000Y-121895659D01*
X140400001Y-121895659D01*
X140439234Y-121892226D01*
X140635408Y-121875063D01*
X140863663Y-121813903D01*
X141077830Y-121714035D01*
X141271401Y-121578495D01*
X141438495Y-121411401D01*
X141574035Y-121217830D01*
X141673903Y-121003663D01*
X141735063Y-120775408D01*
X141755659Y-120540000D01*
X141755256Y-120535399D01*
X141749097Y-120465000D01*
X143344341Y-120465000D01*
X143364936Y-120700403D01*
X143364938Y-120700413D01*
X143426094Y-120928655D01*
X143426096Y-120928659D01*
X143426097Y-120928663D01*
X143480753Y-121045872D01*
X143525965Y-121142830D01*
X143525967Y-121142834D01*
X143593999Y-121239993D01*
X143661505Y-121336401D01*
X143828599Y-121503495D01*
X143893950Y-121549254D01*
X144022165Y-121639032D01*
X144022167Y-121639033D01*
X144022170Y-121639035D01*
X144236337Y-121738903D01*
X144464592Y-121800063D01*
X144652918Y-121816539D01*
X144699999Y-121820659D01*
X144700000Y-121820659D01*
X144700001Y-121820659D01*
X144739234Y-121817226D01*
X144935408Y-121800063D01*
X145163663Y-121738903D01*
X145377830Y-121639035D01*
X145571401Y-121503495D01*
X145738495Y-121336401D01*
X145874035Y-121142830D01*
X145973903Y-120928663D01*
X146035063Y-120700408D01*
X146055659Y-120465000D01*
X146035063Y-120229592D01*
X145977239Y-120013788D01*
X145973905Y-120001344D01*
X145973904Y-120001343D01*
X145973903Y-120001337D01*
X145874035Y-119787171D01*
X145871963Y-119784211D01*
X145738494Y-119593597D01*
X145571402Y-119426506D01*
X145571395Y-119426501D01*
X145377834Y-119290967D01*
X145377830Y-119290965D01*
X145377408Y-119290768D01*
X145163663Y-119191097D01*
X145163659Y-119191096D01*
X145163655Y-119191094D01*
X144935413Y-119129938D01*
X144935403Y-119129936D01*
X144700001Y-119109341D01*
X144699999Y-119109341D01*
X144464596Y-119129936D01*
X144464586Y-119129938D01*
X144236344Y-119191094D01*
X144236335Y-119191098D01*
X144022171Y-119290964D01*
X144022169Y-119290965D01*
X143828597Y-119426505D01*
X143661505Y-119593597D01*
X143525965Y-119787169D01*
X143525964Y-119787171D01*
X143426098Y-120001335D01*
X143426094Y-120001344D01*
X143364938Y-120229586D01*
X143364936Y-120229596D01*
X143344341Y-120464999D01*
X143344341Y-120465000D01*
X141749097Y-120465000D01*
X141741644Y-120379815D01*
X141735063Y-120304592D01*
X141673903Y-120076337D01*
X141574035Y-119862171D01*
X141557990Y-119839255D01*
X141438494Y-119668597D01*
X141271402Y-119501506D01*
X141271395Y-119501501D01*
X141254287Y-119489522D01*
X141173813Y-119433173D01*
X141077834Y-119365967D01*
X141077830Y-119365965D01*
X141043584Y-119349996D01*
X140863663Y-119266097D01*
X140863659Y-119266096D01*
X140863655Y-119266094D01*
X140635413Y-119204938D01*
X140635403Y-119204936D01*
X140400001Y-119184341D01*
X140399999Y-119184341D01*
X140164596Y-119204936D01*
X140164586Y-119204938D01*
X139936344Y-119266094D01*
X139936335Y-119266098D01*
X139722171Y-119365964D01*
X139722169Y-119365965D01*
X139528597Y-119501505D01*
X139361505Y-119668597D01*
X139225965Y-119862169D01*
X139225964Y-119862171D01*
X139126098Y-120076335D01*
X139126094Y-120076344D01*
X139064938Y-120304586D01*
X139064936Y-120304596D01*
X139044341Y-120539999D01*
X139044341Y-120540000D01*
X138450918Y-120540000D01*
X138445369Y-120490750D01*
X138445366Y-120490737D01*
X138392784Y-120340469D01*
X138385789Y-120320478D01*
X138374361Y-120302292D01*
X138355362Y-120235059D01*
X138375729Y-120168224D01*
X138378282Y-120164702D01*
X138379813Y-120162264D01*
X138379816Y-120162262D01*
X138475789Y-120009522D01*
X138535368Y-119839255D01*
X138537433Y-119820927D01*
X138555565Y-119660003D01*
X138555565Y-119659996D01*
X138535369Y-119480750D01*
X138535368Y-119480745D01*
X138507281Y-119400477D01*
X138475789Y-119310478D01*
X138474070Y-119307743D01*
X138400775Y-119191094D01*
X138379816Y-119157738D01*
X138252262Y-119030184D01*
X138212300Y-119005074D01*
X138099523Y-118934211D01*
X137929254Y-118874631D01*
X137929249Y-118874630D01*
X137750004Y-118854435D01*
X137749996Y-118854435D01*
X137570750Y-118874630D01*
X137570745Y-118874631D01*
X137400476Y-118934211D01*
X137247737Y-119030184D01*
X137120184Y-119157737D01*
X137024211Y-119310476D01*
X136964631Y-119480745D01*
X136964630Y-119480750D01*
X136944435Y-119659996D01*
X136944435Y-119660003D01*
X136964630Y-119839249D01*
X136964631Y-119839254D01*
X137024211Y-120009522D01*
X137035636Y-120027705D01*
X137054637Y-120094941D01*
X137034270Y-120161776D01*
X137031717Y-120165298D01*
X136934210Y-120320478D01*
X136906449Y-120399816D01*
X136874632Y-120490745D01*
X136874631Y-120490747D01*
X136872333Y-120497317D01*
X136869526Y-120496334D01*
X136841815Y-120545759D01*
X136780120Y-120578554D01*
X136769006Y-120580320D01*
X136730750Y-120584630D01*
X136560478Y-120644210D01*
X136407737Y-120740184D01*
X136280184Y-120867737D01*
X136184211Y-121020476D01*
X136124631Y-121190745D01*
X136124630Y-121190750D01*
X136104435Y-121369996D01*
X136104435Y-121370003D01*
X134560500Y-121370003D01*
X134560500Y-119918516D01*
X134557258Y-119902218D01*
X134553074Y-119881185D01*
X134539773Y-119814314D01*
X134525895Y-119744541D01*
X134471484Y-119613182D01*
X134463372Y-119593599D01*
X134458015Y-119580664D01*
X134458014Y-119580662D01*
X134359465Y-119433173D01*
X134306715Y-119380423D01*
X134234035Y-119307743D01*
X133896637Y-118970345D01*
X132866834Y-117940540D01*
X132866831Y-117940537D01*
X132797964Y-117894522D01*
X132719337Y-117841985D01*
X132719335Y-117841984D01*
X132637400Y-117808046D01*
X132637399Y-117808046D01*
X132555459Y-117774105D01*
X132555451Y-117774103D01*
X132381489Y-117739500D01*
X132381485Y-117739500D01*
X132381484Y-117739500D01*
X132084361Y-117739500D01*
X132017322Y-117719815D01*
X131996680Y-117703181D01*
X131216819Y-116923319D01*
X131204087Y-116900003D01*
X134794435Y-116900003D01*
X134814630Y-117079249D01*
X134814631Y-117079254D01*
X134874211Y-117249523D01*
X134970184Y-117402262D01*
X135097738Y-117529816D01*
X135250478Y-117625789D01*
X135336928Y-117656039D01*
X135420745Y-117685368D01*
X135420750Y-117685369D01*
X135599996Y-117705565D01*
X135600000Y-117705565D01*
X135600004Y-117705565D01*
X135779249Y-117685369D01*
X135779252Y-117685368D01*
X135779255Y-117685368D01*
X135949522Y-117625789D01*
X136102262Y-117529816D01*
X136229816Y-117402262D01*
X136325789Y-117249522D01*
X136385368Y-117079255D01*
X136397933Y-116967737D01*
X136405565Y-116900003D01*
X136405565Y-116899996D01*
X136385369Y-116720750D01*
X136385368Y-116720745D01*
X136325789Y-116550478D01*
X136229816Y-116397738D01*
X136102262Y-116270184D01*
X136091769Y-116263591D01*
X135949523Y-116174211D01*
X135779254Y-116114631D01*
X135779249Y-116114630D01*
X135600004Y-116094435D01*
X135599996Y-116094435D01*
X135420750Y-116114630D01*
X135420745Y-116114631D01*
X135250476Y-116174211D01*
X135097737Y-116270184D01*
X134970184Y-116397737D01*
X134874211Y-116550476D01*
X134814631Y-116720745D01*
X134814630Y-116720750D01*
X134794435Y-116899996D01*
X134794435Y-116900003D01*
X131204087Y-116900003D01*
X131183334Y-116861996D01*
X131180500Y-116835638D01*
X131180500Y-116341307D01*
X131180499Y-116341303D01*
X131177239Y-116324914D01*
X131145895Y-116167334D01*
X131094581Y-116043453D01*
X131078013Y-116003453D01*
X131048575Y-115959397D01*
X131018936Y-115915039D01*
X131018936Y-115915038D01*
X131018933Y-115915036D01*
X130979466Y-115855966D01*
X130979464Y-115855964D01*
X129964039Y-114840538D01*
X129964038Y-114840537D01*
X129939339Y-114824034D01*
X129887330Y-114789283D01*
X129887328Y-114789282D01*
X129887328Y-114789281D01*
X129816544Y-114741985D01*
X129816542Y-114741984D01*
X129734607Y-114708046D01*
X129734606Y-114708046D01*
X129652666Y-114674105D01*
X129652658Y-114674103D01*
X129478696Y-114639500D01*
X129478692Y-114639500D01*
X129478691Y-114639500D01*
X128638692Y-114639500D01*
X128461308Y-114639500D01*
X128461303Y-114639500D01*
X128287341Y-114674103D01*
X128287329Y-114674106D01*
X128205392Y-114708045D01*
X128205393Y-114708046D01*
X128123455Y-114741985D01*
X128052670Y-114789283D01*
X128052669Y-114789284D01*
X127975961Y-114840537D01*
X127607680Y-115208818D01*
X127546357Y-115242303D01*
X127476665Y-115237319D01*
X127432318Y-115208818D01*
X126794039Y-114570538D01*
X126752304Y-114542652D01*
X126707427Y-114512666D01*
X126646547Y-114471987D01*
X126646540Y-114471983D01*
X126543383Y-114429255D01*
X126482666Y-114404105D01*
X126482658Y-114404103D01*
X126308696Y-114369500D01*
X126308692Y-114369500D01*
X126308691Y-114369500D01*
X124898691Y-114369500D01*
X124831652Y-114349815D01*
X124785897Y-114297011D01*
X124775953Y-114227853D01*
X124797246Y-114178598D01*
X124795376Y-114177423D01*
X124805501Y-114161309D01*
X124895054Y-114018787D01*
X124954633Y-113848520D01*
X124957457Y-113823459D01*
X124974830Y-113669268D01*
X124974830Y-113669261D01*
X124954634Y-113490015D01*
X124954633Y-113490010D01*
X124941327Y-113451983D01*
X124895054Y-113319743D01*
X124799081Y-113167003D01*
X124671527Y-113039449D01*
X124518788Y-112943476D01*
X124348519Y-112883896D01*
X124348514Y-112883895D01*
X124169269Y-112863700D01*
X124169261Y-112863700D01*
X123990015Y-112883895D01*
X123990010Y-112883896D01*
X123819741Y-112943476D01*
X123667002Y-113039449D01*
X123539449Y-113167002D01*
X123443476Y-113319741D01*
X123383896Y-113490010D01*
X123383895Y-113490015D01*
X123363700Y-113669261D01*
X123363700Y-113669268D01*
X123383895Y-113848514D01*
X123383896Y-113848519D01*
X123443476Y-114018788D01*
X123543154Y-114177423D01*
X123541085Y-114178723D01*
X123563193Y-114232863D01*
X123550444Y-114301559D01*
X123502578Y-114352457D01*
X123439839Y-114369500D01*
X121391306Y-114369500D01*
X121305663Y-114386536D01*
X121262841Y-114395054D01*
X121226385Y-114402305D01*
X121217333Y-114404106D01*
X121217332Y-114404106D01*
X121053459Y-114471983D01*
X121053446Y-114471990D01*
X120905966Y-114570534D01*
X120905964Y-114570537D01*
X119807681Y-115668819D01*
X119746358Y-115702304D01*
X119676666Y-115697320D01*
X119632319Y-115668819D01*
X118206819Y-114243319D01*
X118173334Y-114181996D01*
X118170500Y-114155638D01*
X118170500Y-112571306D01*
X118170499Y-112571304D01*
X118135896Y-112397341D01*
X118135893Y-112397332D01*
X118068016Y-112233459D01*
X118068009Y-112233446D01*
X117969464Y-112085965D01*
X117969461Y-112085961D01*
X117844038Y-111960538D01*
X117844034Y-111960535D01*
X117696553Y-111861990D01*
X117696540Y-111861983D01*
X117532667Y-111794106D01*
X117532658Y-111794103D01*
X117358694Y-111759500D01*
X117358691Y-111759500D01*
X117181309Y-111759500D01*
X117181306Y-111759500D01*
X117007341Y-111794103D01*
X117007332Y-111794106D01*
X116843459Y-111861983D01*
X116843446Y-111861990D01*
X116695965Y-111960535D01*
X116695961Y-111960538D01*
X116570538Y-112085961D01*
X116570535Y-112085965D01*
X116471990Y-112233446D01*
X116471983Y-112233459D01*
X116404106Y-112397332D01*
X116404103Y-112397341D01*
X116369500Y-112571304D01*
X116369500Y-113855491D01*
X116349815Y-113922530D01*
X116297011Y-113968285D01*
X116227853Y-113978229D01*
X116164297Y-113949204D01*
X116130939Y-113902943D01*
X116098016Y-113823459D01*
X116098009Y-113823446D01*
X115999464Y-113675965D01*
X115999461Y-113675961D01*
X115874037Y-113550537D01*
X115874034Y-113550535D01*
X115726553Y-113451990D01*
X115726540Y-113451983D01*
X115562667Y-113384106D01*
X115562658Y-113384103D01*
X115388694Y-113349500D01*
X115388691Y-113349500D01*
X114138691Y-113349500D01*
X113961308Y-113349500D01*
X113961306Y-113349500D01*
X113787340Y-113384104D01*
X113787332Y-113384106D01*
X113623459Y-113451983D01*
X113623446Y-113451990D01*
X113475966Y-113550534D01*
X113475964Y-113550537D01*
X101380538Y-125645960D01*
X101380537Y-125645961D01*
X101356341Y-125682175D01*
X101356340Y-125682176D01*
X101281990Y-125793447D01*
X101281985Y-125793457D01*
X101253582Y-125862029D01*
X101214105Y-125957333D01*
X101214103Y-125957341D01*
X101182816Y-126114628D01*
X101182817Y-126114629D01*
X101179500Y-126131306D01*
X101179500Y-130188695D01*
X98238563Y-130188695D01*
X98238494Y-130188597D01*
X98071402Y-130021506D01*
X98071396Y-130021501D01*
X97885842Y-129891575D01*
X97842217Y-129836998D01*
X97835023Y-129767500D01*
X97866546Y-129705145D01*
X97885842Y-129688425D01*
X97969544Y-129629816D01*
X98071401Y-129558495D01*
X98238495Y-129391401D01*
X98374035Y-129197830D01*
X98473903Y-128983663D01*
X98535063Y-128755408D01*
X98555659Y-128520000D01*
X98554442Y-128506095D01*
X98546910Y-128420000D01*
X98535063Y-128284592D01*
X98477692Y-128070478D01*
X98473905Y-128056344D01*
X98473904Y-128056343D01*
X98473903Y-128056337D01*
X98374035Y-127842171D01*
X98354075Y-127813664D01*
X98238494Y-127648597D01*
X98071402Y-127481506D01*
X98071395Y-127481501D01*
X98068537Y-127479500D01*
X97989577Y-127424211D01*
X97877834Y-127345967D01*
X97877830Y-127345965D01*
X97860479Y-127337874D01*
X97663663Y-127246097D01*
X97663659Y-127246096D01*
X97663655Y-127246094D01*
X97435413Y-127184938D01*
X97435403Y-127184936D01*
X97200001Y-127164341D01*
X97199999Y-127164341D01*
X96964596Y-127184936D01*
X96964586Y-127184938D01*
X96736344Y-127246094D01*
X96736335Y-127246098D01*
X96522171Y-127345964D01*
X96522169Y-127345965D01*
X96328597Y-127481505D01*
X96161505Y-127648597D01*
X96025965Y-127842169D01*
X96025964Y-127842171D01*
X95926098Y-128056335D01*
X95926094Y-128056344D01*
X95864938Y-128284586D01*
X95864936Y-128284596D01*
X95844341Y-128519999D01*
X95844341Y-128520000D01*
X95864936Y-128755403D01*
X95864938Y-128755413D01*
X95926094Y-128983655D01*
X95926097Y-128983663D01*
X96025965Y-129197830D01*
X96025967Y-129197834D01*
X96161501Y-129391395D01*
X96161506Y-129391402D01*
X96328597Y-129558493D01*
X96328603Y-129558498D01*
X96514158Y-129688425D01*
X96557783Y-129743002D01*
X96564977Y-129812500D01*
X96533454Y-129874855D01*
X96514158Y-129891575D01*
X96328597Y-130021505D01*
X96161505Y-130188597D01*
X96025965Y-130382169D01*
X96025964Y-130382171D01*
X95926098Y-130596335D01*
X95926094Y-130596344D01*
X95864938Y-130824586D01*
X95864936Y-130824596D01*
X95844341Y-131059999D01*
X95844341Y-131060000D01*
X95864936Y-131295403D01*
X95864938Y-131295413D01*
X95926094Y-131523655D01*
X95926096Y-131523659D01*
X95926097Y-131523663D01*
X96007081Y-131697333D01*
X96025965Y-131737830D01*
X96025967Y-131737834D01*
X96161501Y-131931395D01*
X96161506Y-131931402D01*
X96328597Y-132098493D01*
X96328603Y-132098498D01*
X96514158Y-132228425D01*
X96557783Y-132283002D01*
X96564977Y-132352500D01*
X96533454Y-132414855D01*
X96514158Y-132431575D01*
X96328597Y-132561505D01*
X96161505Y-132728597D01*
X96025965Y-132922169D01*
X96025964Y-132922171D01*
X95926098Y-133136335D01*
X95926094Y-133136344D01*
X95864938Y-133364586D01*
X95864936Y-133364596D01*
X95844341Y-133599999D01*
X95844341Y-133600000D01*
X94500500Y-133600000D01*
X94500500Y-120258676D01*
X94520185Y-120191637D01*
X94536819Y-120170995D01*
X107559118Y-107148696D01*
X114489500Y-107148696D01*
X114524103Y-107322659D01*
X114524105Y-107322665D01*
X114543514Y-107369522D01*
X114543513Y-107369522D01*
X114543514Y-107369523D01*
X114591984Y-107486542D01*
X114591985Y-107486544D01*
X114640584Y-107559278D01*
X114640585Y-107559279D01*
X114640588Y-107559283D01*
X114677965Y-107615222D01*
X114690537Y-107634038D01*
X114690538Y-107634039D01*
X116660536Y-109604035D01*
X116785965Y-109729464D01*
X116933453Y-109828013D01*
X116976367Y-109845788D01*
X116976368Y-109845789D01*
X116976369Y-109845789D01*
X117097334Y-109895895D01*
X117258781Y-109928008D01*
X117271304Y-109930499D01*
X117271308Y-109930500D01*
X117271309Y-109930500D01*
X119538693Y-109930500D01*
X119538694Y-109930499D01*
X119712666Y-109895895D01*
X119809489Y-109855789D01*
X119855132Y-109836882D01*
X119924601Y-109829416D01*
X119987080Y-109860692D01*
X119990263Y-109863764D01*
X120045960Y-109919461D01*
X120045968Y-109919467D01*
X120097967Y-109954212D01*
X120097968Y-109954212D01*
X120193453Y-110018013D01*
X120271122Y-110050184D01*
X120357334Y-110085895D01*
X120531303Y-110120499D01*
X120531307Y-110120500D01*
X122279756Y-110120500D01*
X122346795Y-110140185D01*
X122392550Y-110192989D01*
X122402494Y-110262147D01*
X122373469Y-110325703D01*
X122341756Y-110351887D01*
X122276638Y-110389482D01*
X122276632Y-110389487D01*
X122169487Y-110496632D01*
X122169485Y-110496635D01*
X122093719Y-110627863D01*
X122054500Y-110774234D01*
X122054500Y-110925765D01*
X122093719Y-111072136D01*
X122131602Y-111137750D01*
X122169485Y-111203365D01*
X122276635Y-111310515D01*
X122407865Y-111386281D01*
X122554234Y-111425500D01*
X122554236Y-111425500D01*
X122705764Y-111425500D01*
X122705766Y-111425500D01*
X122852135Y-111386281D01*
X122983365Y-111310515D01*
X123090515Y-111203365D01*
X123166281Y-111072135D01*
X123205500Y-110925766D01*
X123205500Y-110774234D01*
X123166281Y-110627865D01*
X123090515Y-110496635D01*
X122983365Y-110389485D01*
X122885101Y-110332752D01*
X122836886Y-110282184D01*
X122823664Y-110213577D01*
X122849632Y-110148713D01*
X122906546Y-110108185D01*
X122922899Y-110103750D01*
X123012666Y-110085895D01*
X123098878Y-110050184D01*
X123147758Y-110029937D01*
X123195207Y-110020500D01*
X123898693Y-110020500D01*
X123898693Y-110020499D01*
X123936986Y-110012882D01*
X123961177Y-110010500D01*
X125950905Y-110010500D01*
X126017944Y-110030185D01*
X126063699Y-110082989D01*
X126073643Y-110152147D01*
X126055899Y-110200472D01*
X125974211Y-110330476D01*
X125914631Y-110500745D01*
X125914630Y-110500750D01*
X125894435Y-110679996D01*
X125894435Y-110680003D01*
X125914630Y-110859249D01*
X125914631Y-110859254D01*
X125974211Y-111029523D01*
X126000987Y-111072136D01*
X126070184Y-111182262D01*
X126197738Y-111309816D01*
X126288080Y-111366582D01*
X126319429Y-111386280D01*
X126350478Y-111405789D01*
X126406809Y-111425500D01*
X126520745Y-111465368D01*
X126520750Y-111465369D01*
X126699996Y-111485565D01*
X126700000Y-111485565D01*
X126700004Y-111485565D01*
X126879249Y-111465369D01*
X126879252Y-111465368D01*
X126879255Y-111465368D01*
X127049522Y-111405789D01*
X127202262Y-111309816D01*
X127329816Y-111182262D01*
X127425789Y-111029522D01*
X127462095Y-110925765D01*
X127834500Y-110925765D01*
X127873719Y-111072136D01*
X127911602Y-111137750D01*
X127949485Y-111203365D01*
X128056635Y-111310515D01*
X128187865Y-111386281D01*
X128334234Y-111425500D01*
X128334236Y-111425500D01*
X128485764Y-111425500D01*
X128485766Y-111425500D01*
X128632135Y-111386281D01*
X128763365Y-111310515D01*
X128870515Y-111203365D01*
X128946281Y-111072135D01*
X128985500Y-110925766D01*
X128985500Y-110774234D01*
X128946281Y-110627865D01*
X128870515Y-110496635D01*
X128763365Y-110389485D01*
X128665101Y-110332752D01*
X128632136Y-110313719D01*
X128514443Y-110282184D01*
X128485766Y-110274500D01*
X128334234Y-110274500D01*
X128187863Y-110313719D01*
X128056635Y-110389485D01*
X128056632Y-110389487D01*
X127949487Y-110496632D01*
X127949485Y-110496635D01*
X127873719Y-110627863D01*
X127834500Y-110774234D01*
X127834500Y-110925765D01*
X127462095Y-110925765D01*
X127485368Y-110859255D01*
X127485369Y-110859249D01*
X127505565Y-110680003D01*
X127505565Y-110679996D01*
X127485369Y-110500750D01*
X127485368Y-110500745D01*
X127425788Y-110330475D01*
X127356668Y-110220473D01*
X127337667Y-110153236D01*
X127358034Y-110086401D01*
X127411302Y-110041186D01*
X127461661Y-110030500D01*
X127478694Y-110030500D01*
X127595735Y-110007218D01*
X127652666Y-109995894D01*
X127816546Y-109928012D01*
X127964035Y-109829463D01*
X128089463Y-109704035D01*
X128188012Y-109556546D01*
X128255894Y-109392666D01*
X128290500Y-109218692D01*
X128290500Y-109041308D01*
X128290500Y-109041305D01*
X128255895Y-108867339D01*
X128255894Y-108867338D01*
X128255894Y-108867334D01*
X128188012Y-108703453D01*
X128188011Y-108703452D01*
X128188008Y-108703446D01*
X128089465Y-108555967D01*
X128089463Y-108555964D01*
X127944036Y-108410536D01*
X127845403Y-108344632D01*
X127845401Y-108344631D01*
X127845401Y-108344630D01*
X127796544Y-108311985D01*
X127796542Y-108311984D01*
X127712887Y-108277334D01*
X127632666Y-108244105D01*
X127632658Y-108244103D01*
X127458696Y-108209500D01*
X127458692Y-108209500D01*
X127458691Y-108209500D01*
X123908692Y-108209500D01*
X123731308Y-108209500D01*
X123731307Y-108209500D01*
X123708858Y-108213965D01*
X123693013Y-108217117D01*
X123668823Y-108219500D01*
X122761306Y-108219500D01*
X122637612Y-108244105D01*
X122637611Y-108244105D01*
X122587341Y-108254104D01*
X122587332Y-108254106D01*
X122452245Y-108310061D01*
X122404793Y-108319500D01*
X121044362Y-108319500D01*
X120977323Y-108299815D01*
X120956681Y-108283181D01*
X120514041Y-107840540D01*
X120514035Y-107840535D01*
X120491629Y-107825564D01*
X120366553Y-107741990D01*
X120366544Y-107741985D01*
X120202666Y-107674105D01*
X120202658Y-107674103D01*
X120028696Y-107639500D01*
X120028692Y-107639500D01*
X119851308Y-107639500D01*
X119851304Y-107639500D01*
X119695458Y-107670500D01*
X119688187Y-107671946D01*
X119677336Y-107674104D01*
X119677333Y-107674105D01*
X119513455Y-107741986D01*
X119513453Y-107741987D01*
X119487298Y-107759462D01*
X119487299Y-107759463D01*
X119365963Y-107840536D01*
X119303250Y-107903250D01*
X119240536Y-107965964D01*
X119113319Y-108093181D01*
X119051996Y-108126666D01*
X119025638Y-108129500D01*
X117784361Y-108129500D01*
X117717322Y-108109815D01*
X117696680Y-108093181D01*
X116178646Y-106575146D01*
X116163225Y-106556356D01*
X116089464Y-106445964D01*
X115964038Y-106320538D01*
X115964034Y-106320535D01*
X115816553Y-106221990D01*
X115816540Y-106221983D01*
X115652667Y-106154106D01*
X115652658Y-106154103D01*
X115478694Y-106119500D01*
X115478691Y-106119500D01*
X115301309Y-106119500D01*
X115301306Y-106119500D01*
X115127341Y-106154103D01*
X115127332Y-106154106D01*
X114963459Y-106221983D01*
X114963446Y-106221990D01*
X114815965Y-106320535D01*
X114815961Y-106320538D01*
X114690538Y-106445961D01*
X114690535Y-106445965D01*
X114591990Y-106593446D01*
X114591983Y-106593459D01*
X114524106Y-106757332D01*
X114524103Y-106757341D01*
X114489500Y-106931304D01*
X114489500Y-107148696D01*
X107559118Y-107148696D01*
X109695995Y-105011819D01*
X109757318Y-104978334D01*
X109783676Y-104975500D01*
X141016324Y-104975500D01*
X141083363Y-104995185D01*
G37*
%TD.AperFunction*%
%TD*%
M02*
