%TF.GenerationSoftware,KiCad,Pcbnew,8.0.1*%
%TF.CreationDate,2024-04-11T10:52:21-07:00*%
%TF.ProjectId,TMC2240_RP2040,544d4332-3234-4305-9f52-50323034302e,rev?*%
%TF.SameCoordinates,Original*%
%TF.FileFunction,Copper,L4,Bot*%
%TF.FilePolarity,Positive*%
%FSLAX46Y46*%
G04 Gerber Fmt 4.6, Leading zero omitted, Abs format (unit mm)*
G04 Created by KiCad (PCBNEW 8.0.1) date 2024-04-11 10:52:21*
%MOMM*%
%LPD*%
G01*
G04 APERTURE LIST*
G04 Aperture macros list*
%AMRoundRect*
0 Rectangle with rounded corners*
0 $1 Rounding radius*
0 $2 $3 $4 $5 $6 $7 $8 $9 X,Y pos of 4 corners*
0 Add a 4 corners polygon primitive as box body*
4,1,4,$2,$3,$4,$5,$6,$7,$8,$9,$2,$3,0*
0 Add four circle primitives for the rounded corners*
1,1,$1+$1,$2,$3*
1,1,$1+$1,$4,$5*
1,1,$1+$1,$6,$7*
1,1,$1+$1,$8,$9*
0 Add four rect primitives between the rounded corners*
20,1,$1+$1,$2,$3,$4,$5,0*
20,1,$1+$1,$4,$5,$6,$7,0*
20,1,$1+$1,$6,$7,$8,$9,0*
20,1,$1+$1,$8,$9,$2,$3,0*%
G04 Aperture macros list end*
%TA.AperFunction,ComponentPad*%
%ADD10R,1.700000X1.700000*%
%TD*%
%TA.AperFunction,ComponentPad*%
%ADD11O,1.700000X1.700000*%
%TD*%
%TA.AperFunction,ComponentPad*%
%ADD12C,5.600000*%
%TD*%
%TA.AperFunction,ComponentPad*%
%ADD13O,1.000000X2.100000*%
%TD*%
%TA.AperFunction,ComponentPad*%
%ADD14O,1.000000X1.600000*%
%TD*%
%TA.AperFunction,HeatsinkPad*%
%ADD15C,0.600000*%
%TD*%
%TA.AperFunction,HeatsinkPad*%
%ADD16R,3.100000X3.100000*%
%TD*%
%TA.AperFunction,SMDPad,CuDef*%
%ADD17RoundRect,0.225000X0.250000X-0.225000X0.250000X0.225000X-0.250000X0.225000X-0.250000X-0.225000X0*%
%TD*%
%TA.AperFunction,SMDPad,CuDef*%
%ADD18RoundRect,0.100000X0.637500X0.100000X-0.637500X0.100000X-0.637500X-0.100000X0.637500X-0.100000X0*%
%TD*%
%TA.AperFunction,ViaPad*%
%ADD19C,0.600000*%
%TD*%
%TA.AperFunction,Conductor*%
%ADD20C,0.300000*%
%TD*%
%TA.AperFunction,Conductor*%
%ADD21C,0.200000*%
%TD*%
%TA.AperFunction,Conductor*%
%ADD22C,0.500000*%
%TD*%
%TA.AperFunction,Conductor*%
%ADD23C,0.800000*%
%TD*%
G04 APERTURE END LIST*
D10*
%TO.P,J2,1,Pin_1*%
%TO.N,GND*%
X153000000Y-144500000D03*
D11*
%TO.P,J2,2,Pin_2*%
%TO.N,+3.3V*%
X153000000Y-141960000D03*
%TO.P,J2,3,Pin_3*%
%TO.N,Net-(J2-Pin_3)*%
X153000000Y-139420000D03*
%TO.P,J2,4,Pin_4*%
%TO.N,Net-(J2-Pin_4)*%
X153000000Y-136880000D03*
%TO.P,J2,5,Pin_5*%
%TO.N,Net-(J2-Pin_5)*%
X153000000Y-134340000D03*
%TO.P,J2,6,Pin_6*%
%TO.N,Net-(J2-Pin_6)*%
X153000000Y-131800000D03*
%TD*%
D10*
%TO.P,J14,1,Pin_1*%
%TO.N,GND*%
X97200000Y-125980000D03*
D11*
%TO.P,J14,2,Pin_2*%
%TO.N,Net-(J14-Pin_2)*%
X97200000Y-128520000D03*
%TO.P,J14,3,Pin_3*%
%TO.N,Net-(J14-Pin_3)*%
X97200000Y-131060000D03*
%TO.P,J14,4,Pin_4*%
%TO.N,+5V*%
X97200000Y-133600000D03*
%TD*%
D12*
%TO.P,J10,1,Pin_1*%
%TO.N,GND*%
X141275000Y-161275000D03*
%TD*%
D13*
%TO.P,J19,S1,SHIELD*%
%TO.N,GND*%
X129840000Y-111380000D03*
D14*
X129840000Y-107200000D03*
D13*
X121200000Y-111380000D03*
D14*
X121200000Y-107200000D03*
%TD*%
D12*
%TO.P,J5,1,Pin_1*%
%TO.N,GND*%
X100000000Y-120000000D03*
%TD*%
%TO.P,J12,1,Pin_1*%
%TO.N,GND*%
X141275000Y-110475000D03*
%TD*%
%TO.P,J6,1,Pin_1*%
%TO.N,GND*%
X100000000Y-151750000D03*
%TD*%
D10*
%TO.P,J1,1,Pin_1*%
%TO.N,GND*%
X131825000Y-163400000D03*
D11*
%TO.P,J1,2,Pin_2*%
%TO.N,VCC*%
X134365000Y-163400000D03*
%TD*%
D12*
%TO.P,J8,1,Pin_1*%
%TO.N,GND*%
X150800000Y-151750000D03*
%TD*%
%TO.P,J9,1,Pin_1*%
%TO.N,GND*%
X109525000Y-161275000D03*
%TD*%
D10*
%TO.P,J16,1,Pin_1*%
%TO.N,/RP2040uC/SWCLK*%
X148610000Y-127350000D03*
D11*
%TO.P,J16,2,Pin_2*%
%TO.N,GND*%
X151150000Y-127350000D03*
%TO.P,J16,3,Pin_3*%
%TO.N,/RP2040uC/SWDIO*%
X153690000Y-127350000D03*
%TD*%
D12*
%TO.P,J7,1,Pin_1*%
%TO.N,GND*%
X150800000Y-120000000D03*
%TD*%
D10*
%TO.P,J4,1,Pin_1*%
%TO.N,Net-(J4-Pin_1)*%
X117330000Y-163600000D03*
D11*
%TO.P,J4,2,Pin_2*%
%TO.N,Net-(J4-Pin_2)*%
X119870000Y-163600000D03*
%TO.P,J4,3,Pin_3*%
%TO.N,Net-(J4-Pin_3)*%
X122410000Y-163600000D03*
%TO.P,J4,4,Pin_4*%
%TO.N,Net-(J4-Pin_4)*%
X124950000Y-163600000D03*
%TD*%
D10*
%TO.P,J15,1,Pin_1*%
%TO.N,GND*%
X97200000Y-138400000D03*
D11*
%TO.P,J15,2,Pin_2*%
%TO.N,Net-(J15-Pin_2)*%
X97200000Y-140940000D03*
%TO.P,J15,3,Pin_3*%
%TO.N,Net-(J15-Pin_3)*%
X97200000Y-143480000D03*
%TO.P,J15,4,Pin_4*%
%TO.N,Net-(J15-Pin_4)*%
X97200000Y-146020000D03*
%TD*%
D10*
%TO.P,SW2,1,1*%
%TO.N,GND*%
X140400000Y-118000000D03*
D11*
%TO.P,SW2,2,2*%
%TO.N,Net-(JP1-C)*%
X140400000Y-120540000D03*
%TD*%
D10*
%TO.P,SW1,1,1*%
%TO.N,GND*%
X144700000Y-117925000D03*
D11*
%TO.P,SW1,2,2*%
%TO.N,/RP2040uC/RUN*%
X144700000Y-120465000D03*
%TD*%
D12*
%TO.P,J11,1,Pin_1*%
%TO.N,GND*%
X109525000Y-110475000D03*
%TD*%
D15*
%TO.P,U1,33,GND*%
%TO.N,GND*%
X126550000Y-151262500D03*
X125250000Y-151262500D03*
X123950000Y-151262500D03*
X126550000Y-152562500D03*
X125250000Y-152562500D03*
D16*
X125250000Y-152562500D03*
D15*
X123950000Y-152562500D03*
X126550000Y-153862500D03*
X125250000Y-153862500D03*
X123950000Y-153862500D03*
%TD*%
D17*
%TO.P,C27,1*%
%TO.N,+3.3V*%
X129990000Y-116300000D03*
%TO.P,C27,2*%
%TO.N,GND*%
X129990000Y-114750000D03*
%TD*%
%TO.P,C26,1*%
%TO.N,+3.3V*%
X126900000Y-116275000D03*
%TO.P,C26,2*%
%TO.N,GND*%
X126900000Y-114725000D03*
%TD*%
D18*
%TO.P,U2,1,~{CSn}*%
%TO.N,/AS5048AEncoder/~{CS}*%
X128262500Y-133925000D03*
%TO.P,U2,2,CLK*%
%TO.N,/AS5048AEncoder/CLK*%
X128262500Y-134575000D03*
%TO.P,U2,3,MISO*%
%TO.N,/AS5048AEncoder/MISO*%
X128262500Y-135225000D03*
%TO.P,U2,4,MOSI*%
%TO.N,/AS5048AEncoder/MOSI*%
X128262500Y-135875000D03*
%TO.P,U2,5,TEST*%
%TO.N,GND*%
X128262500Y-136525000D03*
%TO.P,U2,6,TEST*%
%TO.N,unconnected-(U2-TEST-Pad6)*%
X128262500Y-137175000D03*
%TO.P,U2,7,TEST*%
%TO.N,unconnected-(U2-TEST-Pad7)*%
X128262500Y-137825000D03*
%TO.P,U2,8,TEST*%
%TO.N,unconnected-(U2-TEST-Pad8)*%
X122537500Y-137825000D03*
%TO.P,U2,9,TEST*%
%TO.N,unconnected-(U2-TEST-Pad9)*%
X122537500Y-137175000D03*
%TO.P,U2,10,TEST*%
%TO.N,unconnected-(U2-TEST-Pad10)*%
X122537500Y-136525000D03*
%TO.P,U2,11,VDD5V*%
%TO.N,+3.3V*%
X122537500Y-135875000D03*
%TO.P,U2,12,VDD3V*%
%TO.N,Net-(U2-VDD3V)*%
X122537500Y-135225000D03*
%TO.P,U2,13,GND*%
%TO.N,GND*%
X122537500Y-134575000D03*
%TO.P,U2,14,PWM*%
%TO.N,/AS5048AEncoder/PWM*%
X122537500Y-133925000D03*
%TD*%
D17*
%TO.P,C3,1*%
%TO.N,+1V1*%
X124900000Y-116265000D03*
%TO.P,C3,2*%
%TO.N,GND*%
X124900000Y-114715000D03*
%TD*%
D19*
%TO.N,GND*%
X116750000Y-146950000D03*
X151000000Y-138400000D03*
X151000000Y-135600000D03*
X151000000Y-131600000D03*
X146700000Y-139800000D03*
X142000000Y-139800000D03*
X138900000Y-140850000D03*
X140300000Y-136900000D03*
X138600000Y-134100000D03*
X142600000Y-134300000D03*
X139500000Y-131200000D03*
%TO.N,/AccessoryConnections/LIMITM*%
X147000000Y-137800000D03*
%TO.N,/AccessoryConnections/LIMITL*%
X146800000Y-133500000D03*
%TO.N,/AccessoryConnections/ADC*%
X137060000Y-132500000D03*
X135600000Y-116900000D03*
%TO.N,+3.3V*%
X140000000Y-135400000D03*
X144800000Y-135400000D03*
X148245000Y-131655000D03*
X148550000Y-134400000D03*
X148560000Y-138900000D03*
%TO.N,GND*%
X126070000Y-122550000D03*
X102900000Y-139180000D03*
X114380000Y-143610000D03*
X123960000Y-134600000D03*
X125950000Y-146175000D03*
X117700000Y-107380000D03*
X132460000Y-146970000D03*
X134440000Y-117670000D03*
X134500000Y-146000000D03*
X138600000Y-143800000D03*
X132860000Y-131000000D03*
X126700000Y-133900000D03*
X121350000Y-161270000D03*
X99080000Y-144640000D03*
X134100000Y-155300000D03*
X136800000Y-155300000D03*
X129380000Y-160350000D03*
X114500000Y-140500000D03*
X124000000Y-137600000D03*
X124310000Y-131100000D03*
X121000000Y-137700000D03*
X121530000Y-144400000D03*
X134500000Y-136600000D03*
X125900000Y-120880000D03*
X132460000Y-155630000D03*
X117425000Y-132200000D03*
X99160000Y-139570000D03*
X128670000Y-139120000D03*
X122943897Y-116278897D03*
X129010000Y-132700000D03*
X135350000Y-122620000D03*
X135900000Y-124000000D03*
X127660000Y-122630000D03*
X127660000Y-120870000D03*
X112000000Y-131600000D03*
%TO.N,/RP2040uC/RUN*%
X144605000Y-125535000D03*
X129010000Y-123940000D03*
%TO.N,VCC*%
X125500000Y-156660000D03*
X122610000Y-155890000D03*
X128390000Y-155650000D03*
%TO.N,Net-(U1-V_{CP})*%
X124500000Y-156680000D03*
X122200000Y-155080000D03*
%TO.N,/RP2040uC/XIN*%
X128950000Y-131080000D03*
X126610000Y-124050000D03*
%TO.N,+1V1*%
X128780000Y-117290000D03*
X125170000Y-117290000D03*
X127885000Y-126395000D03*
%TO.N,+5V*%
X102080000Y-130100000D03*
X136800000Y-158590000D03*
X115300000Y-114250000D03*
X104430000Y-144110000D03*
%TO.N,Net-(U2-VDD3V)*%
X120760000Y-134580000D03*
%TO.N,+3.3V*%
X127652475Y-127737526D03*
X123840000Y-147160000D03*
X120800000Y-122920000D03*
X147800000Y-144100000D03*
X120360000Y-144300000D03*
X120900000Y-135840000D03*
X117270000Y-112660000D03*
X131690000Y-133860000D03*
X120280000Y-117590000D03*
X141580000Y-128380000D03*
X126876911Y-117213089D03*
X131660000Y-118640000D03*
X130280000Y-117430000D03*
X132240000Y-153540000D03*
X132810000Y-123490000D03*
X116340000Y-129510000D03*
%TO.N,Net-(J14-Pin_2)*%
X105120000Y-137720000D03*
%TO.N,Net-(J14-Pin_3)*%
X101990000Y-138550000D03*
%TO.N,Net-(J15-Pin_3)*%
X106540000Y-134920000D03*
%TO.N,Net-(J15-Pin_2)*%
X106260000Y-136320000D03*
%TO.N,/RP2040uC/SWCLK*%
X127409426Y-124080358D03*
X129190000Y-128900000D03*
%TO.N,/RP2040uC/SWDIO*%
X128210000Y-124020000D03*
X129920000Y-128420000D03*
%TO.N,/StepperTMC2240/OV*%
X122500000Y-148880000D03*
X121110000Y-152550000D03*
%TO.N,/DualRS232UART/TX1*%
X116580000Y-137060000D03*
X118310000Y-122300000D03*
%TO.N,/RP2040uC/RX0_SCL0_SPIS0_GP1*%
X114280000Y-120500000D03*
X120790000Y-120510000D03*
X114350000Y-135310000D03*
%TO.N,/RP2040uC/TX1_SDA0_SPIO0_GP4*%
X118118345Y-121523294D03*
X124476461Y-121235504D03*
%TO.N,/DualRS232UART/TX2*%
X115520000Y-122860000D03*
X115740000Y-137980000D03*
%TO.N,/RP2040uC/RX1_SCL0_SPIS0_GP5*%
X122124264Y-122162500D03*
X114640000Y-139150000D03*
X120690000Y-140570000D03*
%TO.N,/RP2040uC/TX1_SDA0_SPIO1_GP8*%
X122200000Y-123362500D03*
X120780000Y-126900000D03*
%TO.N,/AS5048AEncoder/MOSI*%
X129450000Y-152430000D03*
X119080000Y-129100000D03*
X124530245Y-139610000D03*
X123920000Y-144580000D03*
X126750000Y-144570000D03*
X118720000Y-139350000D03*
%TO.N,/RP2040uC/RX1_SCL0_SPIS1_GP9*%
X124529574Y-123714972D03*
X126460000Y-141070000D03*
%TO.N,/StepperTMC2240/~{CS}*%
X127850000Y-144560000D03*
X130430000Y-152450000D03*
%TO.N,/RP2040uC/SDA1_SPIC1_GP10*%
X122230000Y-124220000D03*
X124050000Y-128150000D03*
%TO.N,/AS5048AEncoder/CLK*%
X124050000Y-128950003D03*
X125600000Y-136100000D03*
X128710000Y-153490000D03*
%TO.N,/RP2040uC/SCL1_SPII1_GP11*%
X131300000Y-150150000D03*
X121600000Y-140340000D03*
X122138300Y-125014729D03*
X131400000Y-140320000D03*
%TO.N,/AS5048AEncoder/MISO*%
X130140000Y-136170000D03*
%TO.N,/AS5048AEncoder/~{CS}*%
X129830000Y-134925000D03*
%TO.N,/RP2040uC/SCL1_SPII0_GP7*%
X124340000Y-135730000D03*
X124440000Y-122920000D03*
%TO.N,/AS5048AEncoder/PWM*%
X121160000Y-132600000D03*
%TO.N,/RP2040uC/SDA1_SPIC0_GP6*%
X124403263Y-122032151D03*
X120980000Y-129000000D03*
%TO.N,/StepperTMC2240/STEP*%
X132800000Y-148210000D03*
X133280000Y-129270000D03*
%TO.N,/StepperTMC2240/DIR*%
X124950000Y-145170000D03*
X127940000Y-149730000D03*
%TO.N,/RP2040uC/SCL1_SPII0_GP3*%
X119760000Y-140040000D03*
X122087849Y-121363327D03*
X123870000Y-140090000D03*
%TO.N,/RP2040uC/TX0_SDA0_SPIO1_GP12*%
X122160000Y-125840000D03*
X121300000Y-148200000D03*
%TO.N,/RP2040uC/RX0_SCL0_SPIS1_GP13*%
X117610000Y-148940000D03*
X123290000Y-126000000D03*
X123100000Y-148140000D03*
%TO.N,/StepperTMC2240/~{DRV_EN}*%
X126990735Y-148930735D03*
X123500000Y-148930000D03*
%TO.N,/RP2040uC/SDA1_SPIC1_GP14*%
X125164773Y-124201311D03*
X128500000Y-141220000D03*
%TO.N,/RP2040uC/SCL1_SPII1_GP15*%
X125130245Y-126162696D03*
X132370000Y-139840000D03*
X125260000Y-140090000D03*
%TO.N,/StepperTMC2240/~{SLEEP}*%
X132910000Y-156730000D03*
X132240000Y-144820000D03*
%TO.N,/RP2040uC/GPIO2*%
X121610000Y-120550000D03*
X127760000Y-119350000D03*
X137750000Y-119660000D03*
%TO.N,Net-(J19-CC1)*%
X126700000Y-110680000D03*
X124169265Y-113669265D03*
%TO.N,/RP2040uC/QSPI_SS*%
X123070000Y-118280000D03*
X113640000Y-117690000D03*
%TO.N,/RP2040uC/~{USB_BOOT}*%
X121840000Y-130610000D03*
X142370000Y-129810000D03*
X142820000Y-124640000D03*
%TO.N,/RP2040uC/QSPI_SCLK*%
X111170000Y-127630000D03*
X111190000Y-119750000D03*
X125900000Y-119500000D03*
%TO.N,/RP2040uC/QSPI_SD2*%
X124280000Y-120460000D03*
X111860000Y-120950000D03*
%TO.N,/RP2040uC/QSPI_SD0*%
X109950000Y-119750000D03*
X109910000Y-128070000D03*
X124780000Y-119770000D03*
%TO.N,/RP2040uC/QSPI_SD1*%
X123250000Y-117470000D03*
X112390000Y-118090000D03*
%TO.N,/RP2040uC/QSPI_SD3*%
X112640000Y-119140000D03*
X112500000Y-127900000D03*
X126800000Y-119500000D03*
%TO.N,/AccessoryConnections/LIMITM*%
X145080000Y-129970000D03*
%TO.N,/RP2040uC/ADC0_GP26*%
X137490000Y-139240000D03*
X137660000Y-120670000D03*
X132760000Y-120380000D03*
%TO.N,/AccessoryConnections/LIMITL*%
X146290000Y-125600000D03*
X132030000Y-124840000D03*
%TO.N,VBUS*%
X123810000Y-109120000D03*
X119940000Y-108540000D03*
X115390000Y-107020000D03*
X127390000Y-109130000D03*
%TO.N,/RP2040uC/GPIO25*%
X136916667Y-131000000D03*
X132710000Y-121360000D03*
X136910000Y-121370000D03*
%TD*%
D20*
%TO.N,GND*%
X123128897Y-116278897D02*
X122943897Y-116278897D01*
X124050000Y-117200000D02*
X123128897Y-116278897D01*
X124400000Y-118000000D02*
X124050000Y-117650000D01*
X126300000Y-118000000D02*
X124400000Y-118000000D01*
X124050000Y-117650000D02*
X124050000Y-117200000D01*
X126700000Y-118400000D02*
X126300000Y-118000000D01*
X130600000Y-118400000D02*
X126700000Y-118400000D01*
X131330000Y-117670000D02*
X130600000Y-118400000D01*
X134440000Y-117670000D02*
X131330000Y-117670000D01*
D21*
%TO.N,/RP2040uC/SWCLK*%
X130890000Y-129110000D02*
X132650000Y-127350000D01*
X129190000Y-128900000D02*
X129400000Y-129110000D01*
X129400000Y-129110000D02*
X130890000Y-129110000D01*
X132650000Y-127350000D02*
X148610000Y-127350000D01*
D22*
%TO.N,GND*%
X138900000Y-138300000D02*
X140300000Y-136900000D01*
X138900000Y-140850000D02*
X138900000Y-138300000D01*
X142600000Y-135400000D02*
X142600000Y-134300000D01*
X140300000Y-136900000D02*
X141100000Y-136900000D01*
X141100000Y-136900000D02*
X142600000Y-135400000D01*
X139200000Y-136900000D02*
X140300000Y-136900000D01*
X138600000Y-136300000D02*
X139200000Y-136900000D01*
X138600000Y-134100000D02*
X138600000Y-136300000D01*
X138600000Y-132100000D02*
X139500000Y-131200000D01*
X138600000Y-134100000D02*
X138600000Y-132100000D01*
D23*
X126550000Y-153862500D02*
X127337500Y-154650000D01*
D21*
X129800000Y-138550000D02*
X129230000Y-139120000D01*
D23*
X131860000Y-122470000D02*
X135200000Y-122470000D01*
X124507794Y-114715000D02*
X124900000Y-114715000D01*
X126900000Y-114725000D02*
X129965000Y-114725000D01*
X121530000Y-144400000D02*
X121530000Y-143530000D01*
D21*
X129230000Y-139120000D02*
X128670000Y-139120000D01*
D23*
X129380000Y-158710000D02*
X132460000Y-155630000D01*
D22*
X102900000Y-139180000D02*
X102510000Y-139570000D01*
D21*
X129545000Y-136525000D02*
X129800000Y-136780000D01*
D23*
X121530000Y-144400000D02*
X122100000Y-144400000D01*
D22*
X102510000Y-139570000D02*
X99160000Y-139570000D01*
D23*
X129010000Y-132700000D02*
X128530000Y-132220000D01*
D22*
X122537500Y-134575000D02*
X123935000Y-134575000D01*
D23*
X132460000Y-146970000D02*
X126745000Y-146970000D01*
X127660000Y-120870000D02*
X127660000Y-122630000D01*
X121345000Y-161275000D02*
X121350000Y-161270000D01*
D22*
X123935000Y-134575000D02*
X123960000Y-134600000D01*
D23*
X125900000Y-120880000D02*
X127650000Y-120880000D01*
X125950000Y-146175000D02*
X125950000Y-150562500D01*
X121530000Y-143530000D02*
X120720000Y-142720000D01*
X123900000Y-131510000D02*
X118115000Y-131510000D01*
X125430000Y-132220000D02*
X124310000Y-131100000D01*
X131520000Y-114750000D02*
X134440000Y-117670000D01*
X128530000Y-132220000D02*
X125430000Y-132220000D01*
X115270000Y-142720000D02*
X114380000Y-143610000D01*
D21*
X128262500Y-136525000D02*
X129545000Y-136525000D01*
D23*
X127650000Y-120880000D02*
X127660000Y-120870000D01*
X125900000Y-122380000D02*
X126070000Y-122550000D01*
X123960000Y-134600000D02*
X123960000Y-131450000D01*
X129380000Y-160350000D02*
X129380000Y-158710000D01*
X122943897Y-116278897D02*
X124507794Y-114715000D01*
X124310000Y-131100000D02*
X123900000Y-131510000D01*
X127660000Y-120870000D02*
X130260000Y-120870000D01*
X122100000Y-144400000D02*
X123875000Y-146175000D01*
X123960000Y-131450000D02*
X124310000Y-131100000D01*
X130070000Y-155630000D02*
X132460000Y-155630000D01*
X129840000Y-114600000D02*
X129990000Y-114750000D01*
X121020000Y-107380000D02*
X121200000Y-107200000D01*
X125900000Y-120880000D02*
X125900000Y-122380000D01*
X126745000Y-146970000D02*
X125950000Y-146175000D01*
D21*
X129800000Y-136780000D02*
X129800000Y-138550000D01*
D23*
X129840000Y-111380000D02*
X129840000Y-114600000D01*
X124900000Y-114715000D02*
X126890000Y-114715000D01*
X109525000Y-161275000D02*
X121345000Y-161275000D01*
X130260000Y-120870000D02*
X131860000Y-122470000D01*
X118115000Y-131510000D02*
X117425000Y-132200000D01*
X129990000Y-114750000D02*
X131520000Y-114750000D01*
X117700000Y-107380000D02*
X121020000Y-107380000D01*
X135200000Y-122470000D02*
X135350000Y-122620000D01*
X125950000Y-150562500D02*
X125250000Y-151262500D01*
X120720000Y-142720000D02*
X115270000Y-142720000D01*
X129090000Y-154650000D02*
X130070000Y-155630000D01*
X123875000Y-146175000D02*
X125950000Y-146175000D01*
X127337500Y-154650000D02*
X129090000Y-154650000D01*
D21*
%TO.N,/RP2040uC/RUN*%
X133746471Y-125535000D02*
X144605000Y-125535000D01*
X132151471Y-123940000D02*
X133746471Y-125535000D01*
X129010000Y-123940000D02*
X132151471Y-123940000D01*
D23*
%TO.N,VCC*%
X125050000Y-157910000D02*
X123410000Y-157910000D01*
X125500000Y-156660000D02*
X125500000Y-157460000D01*
X123400000Y-157920000D02*
X122610000Y-157130000D01*
X123410000Y-157910000D02*
X123400000Y-157920000D01*
X128390000Y-155650000D02*
X126510000Y-155650000D01*
X126510000Y-155650000D02*
X125500000Y-156660000D01*
X125500000Y-157460000D02*
X125050000Y-157910000D01*
X122610000Y-157130000D02*
X122610000Y-155890000D01*
D21*
%TO.N,Net-(U1-V_{CP})*%
X124500000Y-156030000D02*
X123550000Y-155080000D01*
X124500000Y-156680000D02*
X124500000Y-156030000D01*
X123550000Y-155080000D02*
X122200000Y-155080000D01*
%TO.N,+1V1*%
X125170000Y-117290000D02*
X125170000Y-116535000D01*
D20*
%TO.N,Net-(U2-VDD3V)*%
X122537500Y-135225000D02*
X121405000Y-135225000D01*
X121405000Y-135225000D02*
X120760000Y-134580000D01*
D22*
%TO.N,+3.3V*%
X130280000Y-117430000D02*
X129990000Y-117140000D01*
X126876911Y-117213089D02*
X126876911Y-116298089D01*
X129990000Y-117140000D02*
X129990000Y-116300000D01*
D20*
X120935000Y-135875000D02*
X120900000Y-135840000D01*
X122537500Y-135875000D02*
X120935000Y-135875000D01*
D22*
X126900000Y-116275000D02*
X129965000Y-116275000D01*
D21*
%TO.N,/RP2040uC/SWDIO*%
X146600000Y-126720000D02*
X147830000Y-125490000D01*
X147830000Y-125490000D02*
X152400000Y-125490000D01*
X130780000Y-128420000D02*
X132480000Y-126720000D01*
X129920000Y-128420000D02*
X130780000Y-128420000D01*
X132480000Y-126720000D02*
X146600000Y-126720000D01*
X152400000Y-125490000D02*
X153690000Y-126780000D01*
%TO.N,/RP2040uC/RX0_SCL0_SPIS0_GP1*%
X120790000Y-120510000D02*
X120220000Y-119940000D01*
X114840000Y-119940000D02*
X114280000Y-120500000D01*
X120220000Y-119940000D02*
X114840000Y-119940000D01*
%TO.N,/RP2040uC/TX1_SDA0_SPIO0_GP4*%
X124476461Y-121235504D02*
X124351381Y-121235504D01*
X124351381Y-121235504D02*
X122824385Y-122762500D01*
X121550000Y-122620000D02*
X121550000Y-122400000D01*
X121550000Y-122400000D02*
X120673294Y-121523294D01*
X120673294Y-121523294D02*
X118118345Y-121523294D01*
X121692500Y-122762500D02*
X121550000Y-122620000D01*
X122824385Y-122762500D02*
X121692500Y-122762500D01*
%TO.N,/RP2040uC/RX1_SCL0_SPIS0_GP5*%
X120620000Y-140640000D02*
X116130000Y-140640000D01*
X120690000Y-140570000D02*
X120620000Y-140640000D01*
X116130000Y-140640000D02*
X114640000Y-139150000D01*
%TO.N,/AS5048AEncoder/MOSI*%
X125690000Y-137170000D02*
X126985000Y-135875000D01*
X126750000Y-144570000D02*
X123930000Y-144570000D01*
X126985000Y-135875000D02*
X128262500Y-135875000D01*
X125690000Y-137810000D02*
X125690000Y-137170000D01*
X119170000Y-138900000D02*
X124480000Y-138900000D01*
X124530245Y-138950245D02*
X124480000Y-138900000D01*
X124480000Y-138900000D02*
X124600000Y-138900000D01*
X123930000Y-144570000D02*
X123920000Y-144580000D01*
X124530245Y-139610000D02*
X124530245Y-138950245D01*
X124600000Y-138900000D02*
X125690000Y-137810000D01*
X118720000Y-139350000D02*
X119170000Y-138900000D01*
%TO.N,/AS5048AEncoder/CLK*%
X127125000Y-134575000D02*
X128262500Y-134575000D01*
X125600000Y-136100000D02*
X127125000Y-134575000D01*
%TO.N,/RP2040uC/SCL1_SPII1_GP11*%
X126361471Y-140320000D02*
X131400000Y-140320000D01*
X121600000Y-140340000D02*
X121950000Y-140690000D01*
X121950000Y-140690000D02*
X125991471Y-140690000D01*
X125991471Y-140690000D02*
X126361471Y-140320000D01*
%TO.N,/AS5048AEncoder/MISO*%
X128262500Y-135225000D02*
X129195000Y-135225000D01*
X129195000Y-135225000D02*
X130140000Y-136170000D01*
D20*
%TO.N,/AS5048AEncoder/~{CS}*%
X129810000Y-134905000D02*
X129830000Y-134925000D01*
X128262500Y-133925000D02*
X129605000Y-133925000D01*
X129810000Y-134130000D02*
X129810000Y-134905000D01*
X129605000Y-133925000D02*
X129810000Y-134130000D01*
%TO.N,/AS5048AEncoder/PWM*%
X122485000Y-133925000D02*
X121160000Y-132600000D01*
D21*
%TO.N,/RP2040uC/SCL1_SPII0_GP3*%
X123870000Y-140090000D02*
X123190000Y-139410000D01*
X123190000Y-139410000D02*
X120390000Y-139410000D01*
X120390000Y-139410000D02*
X119760000Y-140040000D01*
%TO.N,/RP2040uC/RX0_SCL0_SPIS1_GP13*%
X121900000Y-148430000D02*
X121900000Y-148448529D01*
X121408529Y-148940000D02*
X117610000Y-148940000D01*
X122190000Y-148140000D02*
X121900000Y-148430000D01*
X123100000Y-148140000D02*
X122190000Y-148140000D01*
X121900000Y-148448529D02*
X121408529Y-148940000D01*
%TO.N,/RP2040uC/SCL1_SPII1_GP15*%
X125630000Y-139720000D02*
X132250000Y-139720000D01*
X132250000Y-139720000D02*
X132370000Y-139840000D01*
X125260000Y-140090000D02*
X125630000Y-139720000D01*
%TO.N,/RP2040uC/GPIO2*%
X137630000Y-119780000D02*
X137750000Y-119660000D01*
X127760000Y-119350000D02*
X128190000Y-119780000D01*
X128190000Y-119780000D02*
X137630000Y-119780000D01*
%TO.N,/RP2040uC/QSPI_SS*%
X121765000Y-116975000D02*
X123070000Y-118280000D01*
X119535000Y-116975000D02*
X121765000Y-116975000D01*
X118820000Y-117690000D02*
X119535000Y-116975000D01*
X113640000Y-117690000D02*
X118820000Y-117690000D01*
%TO.N,/RP2040uC/~{USB_BOOT}*%
X131000000Y-129800000D02*
X132800000Y-128000000D01*
X140351471Y-128000000D02*
X142161471Y-129810000D01*
X132800000Y-128000000D02*
X140351471Y-128000000D01*
X121840000Y-130610000D02*
X122650000Y-129800000D01*
X122650000Y-129800000D02*
X131000000Y-129800000D01*
X142161471Y-129810000D02*
X142370000Y-129810000D01*
%TO.N,/RP2040uC/QSPI_SCLK*%
X112878529Y-119750000D02*
X111190000Y-119750000D01*
X125900000Y-119500000D02*
X125370000Y-118970000D01*
X113888529Y-118740000D02*
X112878529Y-119750000D01*
X123484214Y-119280000D02*
X122630000Y-119280000D01*
X125370000Y-118970000D02*
X123794215Y-118970000D01*
X122090000Y-118740000D02*
X113888529Y-118740000D01*
X122630000Y-119280000D02*
X122090000Y-118740000D01*
X123794215Y-118970000D02*
X123484214Y-119280000D01*
%TO.N,/RP2040uC/QSPI_SD2*%
X122670000Y-120460000D02*
X121750000Y-119540000D01*
X112809900Y-120950000D02*
X111860000Y-120950000D01*
X121750000Y-119540000D02*
X114219900Y-119540000D01*
X114219900Y-119540000D02*
X112809900Y-120950000D01*
X124280000Y-120460000D02*
X122670000Y-120460000D01*
%TO.N,/RP2040uC/QSPI_SD0*%
X122554314Y-119770000D02*
X121924314Y-119140000D01*
X121924314Y-119140000D02*
X114054215Y-119140000D01*
X112844215Y-120350000D02*
X110550000Y-120350000D01*
X110550000Y-120350000D02*
X109950000Y-119750000D01*
X124780000Y-119770000D02*
X122554314Y-119770000D01*
X114054215Y-119140000D02*
X112844215Y-120350000D01*
%TO.N,/RP2040uC/QSPI_SD1*%
X121965000Y-116575000D02*
X122860000Y-117470000D01*
X118884314Y-117060000D02*
X119369315Y-116575000D01*
X119369315Y-116575000D02*
X121965000Y-116575000D01*
X122860000Y-117470000D02*
X123250000Y-117470000D01*
X112390000Y-118090000D02*
X113420000Y-117060000D01*
X113420000Y-117060000D02*
X118884314Y-117060000D01*
%TO.N,/RP2040uC/QSPI_SD3*%
X122821471Y-118880000D02*
X122241471Y-118300000D01*
X123318529Y-118880000D02*
X122821471Y-118880000D01*
X123670000Y-118528529D02*
X123318529Y-118880000D01*
X126800000Y-119500000D02*
X125828529Y-118528529D01*
X125828529Y-118528529D02*
X123670000Y-118528529D01*
X122241471Y-118300000D02*
X113480000Y-118300000D01*
X113480000Y-118300000D02*
X112640000Y-119140000D01*
%TO.N,/RP2040uC/ADC0_GP26*%
X137370000Y-120380000D02*
X137660000Y-120670000D01*
X132760000Y-120380000D02*
X137370000Y-120380000D01*
%TO.N,/AccessoryConnections/LIMITL*%
X132030000Y-124840000D02*
X133325000Y-126135000D01*
X133325000Y-126135000D02*
X145755000Y-126135000D01*
X145755000Y-126135000D02*
X146290000Y-125600000D01*
%TO.N,/RP2040uC/GPIO25*%
X136430000Y-120890000D02*
X136910000Y-121370000D01*
X132710000Y-121360000D02*
X133180000Y-120890000D01*
X133180000Y-120890000D02*
X136430000Y-120890000D01*
%TD*%
%TA.AperFunction,Conductor*%
%TO.N,GND*%
G36*
X124853831Y-136438153D02*
G01*
X124890728Y-136475809D01*
X124921637Y-136525000D01*
X124970184Y-136602262D01*
X125097738Y-136729816D01*
X125108873Y-136736813D01*
X125155163Y-136789145D01*
X125165813Y-136858199D01*
X125150289Y-136903805D01*
X125130423Y-136938213D01*
X125115419Y-136994211D01*
X125089499Y-137090943D01*
X125089499Y-137090945D01*
X125089499Y-137259046D01*
X125089500Y-137259059D01*
X125089500Y-137509902D01*
X125069815Y-137576941D01*
X125053181Y-137597583D01*
X124387584Y-138263181D01*
X124326261Y-138296666D01*
X124299903Y-138299500D01*
X123855433Y-138299500D01*
X123788394Y-138279815D01*
X123742639Y-138227011D01*
X123732695Y-138157853D01*
X123740872Y-138128048D01*
X123751246Y-138103002D01*
X123760044Y-138081762D01*
X123775500Y-137964361D01*
X123775499Y-137685640D01*
X123760044Y-137568238D01*
X123760042Y-137568234D01*
X123751435Y-137547455D01*
X123743965Y-137477986D01*
X123751435Y-137452545D01*
X123752292Y-137450476D01*
X123760044Y-137431762D01*
X123775500Y-137314361D01*
X123775499Y-137035640D01*
X123775498Y-137035636D01*
X123770266Y-136995889D01*
X123760044Y-136918238D01*
X123760042Y-136918234D01*
X123751435Y-136897455D01*
X123743965Y-136827986D01*
X123751435Y-136802545D01*
X123752277Y-136800512D01*
X123760044Y-136781762D01*
X123775500Y-136664361D01*
X123775499Y-136545069D01*
X123795183Y-136478031D01*
X123847987Y-136432276D01*
X123917145Y-136422332D01*
X123965472Y-136440077D01*
X123990475Y-136455788D01*
X124160745Y-136515368D01*
X124160750Y-136515369D01*
X124339996Y-136535565D01*
X124340000Y-136535565D01*
X124340004Y-136535565D01*
X124519249Y-136515369D01*
X124519252Y-136515368D01*
X124519255Y-136515368D01*
X124689522Y-136455789D01*
X124719761Y-136436788D01*
X124786996Y-136417787D01*
X124853831Y-136438153D01*
G37*
%TD.AperFunction*%
%TA.AperFunction,Conductor*%
G36*
X127932519Y-117045185D02*
G01*
X127978274Y-117097989D01*
X127988700Y-117163383D01*
X127974435Y-117289995D01*
X127974435Y-117290003D01*
X127994630Y-117469249D01*
X127994631Y-117469254D01*
X128054211Y-117639523D01*
X128128702Y-117758074D01*
X128150184Y-117792262D01*
X128277738Y-117919816D01*
X128308075Y-117938878D01*
X128422375Y-118010698D01*
X128430478Y-118015789D01*
X128556297Y-118059815D01*
X128600745Y-118075368D01*
X128600750Y-118075369D01*
X128779996Y-118095565D01*
X128780000Y-118095565D01*
X128780004Y-118095565D01*
X128959249Y-118075369D01*
X128959252Y-118075368D01*
X128959255Y-118075368D01*
X129129522Y-118015789D01*
X129282262Y-117919816D01*
X129393462Y-117808615D01*
X129454781Y-117775133D01*
X129524473Y-117780117D01*
X129580407Y-117821988D01*
X129586133Y-117830325D01*
X129650184Y-117932262D01*
X129777738Y-118059816D01*
X129930478Y-118155789D01*
X129962186Y-118166884D01*
X130100745Y-118215368D01*
X130100750Y-118215369D01*
X130279996Y-118235565D01*
X130280000Y-118235565D01*
X130280004Y-118235565D01*
X130459249Y-118215369D01*
X130459252Y-118215368D01*
X130459255Y-118215368D01*
X130629522Y-118155789D01*
X130782262Y-118059816D01*
X130802879Y-118039198D01*
X130864198Y-118005715D01*
X130933889Y-118010698D01*
X130989824Y-118052569D01*
X131014242Y-118118033D01*
X130999391Y-118186306D01*
X130995552Y-118192853D01*
X130934211Y-118290476D01*
X130874631Y-118460745D01*
X130874630Y-118460750D01*
X130854435Y-118639996D01*
X130854435Y-118640003D01*
X130874630Y-118819249D01*
X130874631Y-118819254D01*
X130934211Y-118989523D01*
X130934218Y-118989534D01*
X130934221Y-118989545D01*
X130937231Y-118995795D01*
X130936135Y-118996322D01*
X130953213Y-119056772D01*
X130932842Y-119123606D01*
X130879572Y-119168817D01*
X130829220Y-119179500D01*
X128636414Y-119179500D01*
X128569375Y-119159815D01*
X128523620Y-119107011D01*
X128519372Y-119096454D01*
X128496183Y-119030184D01*
X128485789Y-119000478D01*
X128389816Y-118847738D01*
X128262262Y-118720184D01*
X128253423Y-118714630D01*
X128109523Y-118624211D01*
X127939254Y-118564631D01*
X127939249Y-118564630D01*
X127760004Y-118544435D01*
X127759996Y-118544435D01*
X127580750Y-118564630D01*
X127580745Y-118564631D01*
X127410476Y-118624211D01*
X127257734Y-118720186D01*
X127257731Y-118720188D01*
X127244752Y-118733167D01*
X127183427Y-118766649D01*
X127116122Y-118762523D01*
X126979249Y-118714630D01*
X126892330Y-118704837D01*
X126827916Y-118677770D01*
X126818533Y-118669298D01*
X126316119Y-118166884D01*
X126316117Y-118166881D01*
X126197246Y-118048010D01*
X126197241Y-118048006D01*
X126095904Y-117989500D01*
X126095903Y-117989499D01*
X126060319Y-117968954D01*
X126060316Y-117968953D01*
X126060314Y-117968952D01*
X125907586Y-117928028D01*
X125904619Y-117927233D01*
X125844959Y-117890867D01*
X125814431Y-117828020D01*
X125822726Y-117758644D01*
X125831721Y-117741485D01*
X125865832Y-117687199D01*
X125895789Y-117639522D01*
X125919953Y-117570462D01*
X125960674Y-117513687D01*
X126025626Y-117487939D01*
X126094188Y-117501394D01*
X126144592Y-117549781D01*
X126148713Y-117557610D01*
X126151121Y-117562610D01*
X126180430Y-117609254D01*
X126247095Y-117715351D01*
X126374649Y-117842905D01*
X126421159Y-117872129D01*
X126516859Y-117932262D01*
X126527389Y-117938878D01*
X126672056Y-117989499D01*
X126697656Y-117998457D01*
X126697661Y-117998458D01*
X126876907Y-118018654D01*
X126876911Y-118018654D01*
X126876915Y-118018654D01*
X127056160Y-117998458D01*
X127056163Y-117998457D01*
X127056166Y-117998457D01*
X127226433Y-117938878D01*
X127379173Y-117842905D01*
X127506727Y-117715351D01*
X127602700Y-117562611D01*
X127662279Y-117392344D01*
X127672162Y-117304630D01*
X127682476Y-117213092D01*
X127682476Y-117213085D01*
X127676876Y-117163383D01*
X127688931Y-117094561D01*
X127736280Y-117043182D01*
X127800096Y-117025500D01*
X127865480Y-117025500D01*
X127932519Y-117045185D01*
G37*
%TD.AperFunction*%
%TA.AperFunction,Conductor*%
G36*
X124167161Y-117046083D02*
G01*
X124190558Y-117059581D01*
X124190809Y-117059176D01*
X124196954Y-117062966D01*
X124196956Y-117062968D01*
X124310544Y-117133030D01*
X124357266Y-117184976D01*
X124368665Y-117252449D01*
X124364435Y-117289995D01*
X124364435Y-117290003D01*
X124384630Y-117469249D01*
X124384631Y-117469254D01*
X124433618Y-117609249D01*
X124444211Y-117639522D01*
X124474168Y-117687199D01*
X124506125Y-117738057D01*
X124525125Y-117805293D01*
X124504758Y-117872129D01*
X124451490Y-117917343D01*
X124401131Y-117928029D01*
X124112583Y-117928029D01*
X124045544Y-117908344D01*
X123999789Y-117855540D01*
X123989845Y-117786382D01*
X123995541Y-117763074D01*
X124015664Y-117705565D01*
X124035368Y-117649255D01*
X124039876Y-117609249D01*
X124055565Y-117470003D01*
X124055565Y-117469996D01*
X124035369Y-117290750D01*
X124035368Y-117290745D01*
X124004424Y-117202312D01*
X124000863Y-117132533D01*
X124035592Y-117071905D01*
X124097585Y-117039678D01*
X124167161Y-117046083D01*
G37*
%TD.AperFunction*%
%TA.AperFunction,Conductor*%
G36*
X141083363Y-104995185D02*
G01*
X141104005Y-105011819D01*
X156263181Y-120170995D01*
X156296666Y-120232318D01*
X156299500Y-120258676D01*
X156299500Y-151491324D01*
X156279815Y-151558363D01*
X156263181Y-151579005D01*
X141104005Y-166738181D01*
X141042682Y-166771666D01*
X141016324Y-166774500D01*
X109783676Y-166774500D01*
X109716637Y-166754815D01*
X109695995Y-166738181D01*
X107455684Y-164497870D01*
X115979500Y-164497870D01*
X115979501Y-164497876D01*
X115985908Y-164557483D01*
X116036202Y-164692328D01*
X116036206Y-164692335D01*
X116122452Y-164807544D01*
X116122455Y-164807547D01*
X116237664Y-164893793D01*
X116237671Y-164893797D01*
X116372517Y-164944091D01*
X116372516Y-164944091D01*
X116379444Y-164944835D01*
X116432127Y-164950500D01*
X118227872Y-164950499D01*
X118287483Y-164944091D01*
X118422331Y-164893796D01*
X118537546Y-164807546D01*
X118623796Y-164692331D01*
X118672810Y-164560916D01*
X118714681Y-164504984D01*
X118780145Y-164480566D01*
X118848418Y-164495417D01*
X118876673Y-164516569D01*
X118998599Y-164638495D01*
X119095384Y-164706265D01*
X119192165Y-164774032D01*
X119192167Y-164774033D01*
X119192170Y-164774035D01*
X119406337Y-164873903D01*
X119634592Y-164935063D01*
X119811034Y-164950500D01*
X119869999Y-164955659D01*
X119870000Y-164955659D01*
X119870001Y-164955659D01*
X119928966Y-164950500D01*
X120105408Y-164935063D01*
X120333663Y-164873903D01*
X120547830Y-164774035D01*
X120741401Y-164638495D01*
X120908495Y-164471401D01*
X121038425Y-164285842D01*
X121093002Y-164242217D01*
X121162500Y-164235023D01*
X121224855Y-164266546D01*
X121241575Y-164285842D01*
X121371500Y-164471395D01*
X121371505Y-164471401D01*
X121538599Y-164638495D01*
X121635384Y-164706265D01*
X121732165Y-164774032D01*
X121732167Y-164774033D01*
X121732170Y-164774035D01*
X121946337Y-164873903D01*
X122174592Y-164935063D01*
X122351034Y-164950500D01*
X122409999Y-164955659D01*
X122410000Y-164955659D01*
X122410001Y-164955659D01*
X122468966Y-164950500D01*
X122645408Y-164935063D01*
X122873663Y-164873903D01*
X123087830Y-164774035D01*
X123281401Y-164638495D01*
X123448495Y-164471401D01*
X123578425Y-164285842D01*
X123633002Y-164242217D01*
X123702500Y-164235023D01*
X123764855Y-164266546D01*
X123781575Y-164285842D01*
X123911500Y-164471395D01*
X123911505Y-164471401D01*
X124078599Y-164638495D01*
X124175384Y-164706265D01*
X124272165Y-164774032D01*
X124272167Y-164774033D01*
X124272170Y-164774035D01*
X124486337Y-164873903D01*
X124714592Y-164935063D01*
X124891034Y-164950500D01*
X124949999Y-164955659D01*
X124950000Y-164955659D01*
X124950001Y-164955659D01*
X125008966Y-164950500D01*
X125185408Y-164935063D01*
X125413663Y-164873903D01*
X125627830Y-164774035D01*
X125821401Y-164638495D01*
X125988495Y-164471401D01*
X126124035Y-164277830D01*
X126223903Y-164063663D01*
X126285063Y-163835408D01*
X126305659Y-163600000D01*
X126288161Y-163400000D01*
X133009341Y-163400000D01*
X133029936Y-163635403D01*
X133029938Y-163635413D01*
X133091094Y-163863655D01*
X133091096Y-163863659D01*
X133091097Y-163863663D01*
X133184355Y-164063655D01*
X133190965Y-164077830D01*
X133190967Y-164077834D01*
X133299281Y-164232521D01*
X133326505Y-164271401D01*
X133493599Y-164438495D01*
X133578404Y-164497876D01*
X133687165Y-164574032D01*
X133687167Y-164574033D01*
X133687170Y-164574035D01*
X133901337Y-164673903D01*
X134129592Y-164735063D01*
X134317918Y-164751539D01*
X134364999Y-164755659D01*
X134365000Y-164755659D01*
X134365001Y-164755659D01*
X134404234Y-164752226D01*
X134600408Y-164735063D01*
X134828663Y-164673903D01*
X135042830Y-164574035D01*
X135236401Y-164438495D01*
X135403495Y-164271401D01*
X135539035Y-164077830D01*
X135638903Y-163863663D01*
X135700063Y-163635408D01*
X135720659Y-163400000D01*
X135717561Y-163364596D01*
X135700063Y-163164596D01*
X135700063Y-163164592D01*
X135638903Y-162936337D01*
X135539035Y-162722171D01*
X135531865Y-162711930D01*
X135403494Y-162528597D01*
X135236402Y-162361506D01*
X135236395Y-162361501D01*
X135042834Y-162225967D01*
X135042830Y-162225965D01*
X135042828Y-162225964D01*
X134828663Y-162126097D01*
X134828659Y-162126096D01*
X134828655Y-162126094D01*
X134600413Y-162064938D01*
X134600403Y-162064936D01*
X134365001Y-162044341D01*
X134364999Y-162044341D01*
X134129596Y-162064936D01*
X134129586Y-162064938D01*
X133901344Y-162126094D01*
X133901335Y-162126098D01*
X133687171Y-162225964D01*
X133687169Y-162225965D01*
X133493597Y-162361505D01*
X133326505Y-162528597D01*
X133190965Y-162722169D01*
X133190964Y-162722171D01*
X133091098Y-162936335D01*
X133091094Y-162936344D01*
X133029938Y-163164586D01*
X133029936Y-163164596D01*
X133009341Y-163399999D01*
X133009341Y-163400000D01*
X126288161Y-163400000D01*
X126285063Y-163364592D01*
X126223903Y-163136337D01*
X126124035Y-162922171D01*
X126118425Y-162914158D01*
X125988494Y-162728597D01*
X125821402Y-162561506D01*
X125821395Y-162561501D01*
X125627834Y-162425967D01*
X125627830Y-162425965D01*
X125627828Y-162425964D01*
X125413663Y-162326097D01*
X125413659Y-162326096D01*
X125413655Y-162326094D01*
X125185413Y-162264938D01*
X125185403Y-162264936D01*
X124950001Y-162244341D01*
X124949999Y-162244341D01*
X124714596Y-162264936D01*
X124714586Y-162264938D01*
X124486344Y-162326094D01*
X124486335Y-162326098D01*
X124272171Y-162425964D01*
X124272169Y-162425965D01*
X124078597Y-162561505D01*
X123911505Y-162728597D01*
X123781575Y-162914158D01*
X123726998Y-162957783D01*
X123657500Y-162964977D01*
X123595145Y-162933454D01*
X123578425Y-162914158D01*
X123448494Y-162728597D01*
X123281402Y-162561506D01*
X123281395Y-162561501D01*
X123087834Y-162425967D01*
X123087830Y-162425965D01*
X123087828Y-162425964D01*
X122873663Y-162326097D01*
X122873659Y-162326096D01*
X122873655Y-162326094D01*
X122645413Y-162264938D01*
X122645403Y-162264936D01*
X122410001Y-162244341D01*
X122409999Y-162244341D01*
X122174596Y-162264936D01*
X122174586Y-162264938D01*
X121946344Y-162326094D01*
X121946335Y-162326098D01*
X121732171Y-162425964D01*
X121732169Y-162425965D01*
X121538597Y-162561505D01*
X121371505Y-162728597D01*
X121241575Y-162914158D01*
X121186998Y-162957783D01*
X121117500Y-162964977D01*
X121055145Y-162933454D01*
X121038425Y-162914158D01*
X120908494Y-162728597D01*
X120741402Y-162561506D01*
X120741395Y-162561501D01*
X120547834Y-162425967D01*
X120547830Y-162425965D01*
X120547828Y-162425964D01*
X120333663Y-162326097D01*
X120333659Y-162326096D01*
X120333655Y-162326094D01*
X120105413Y-162264938D01*
X120105403Y-162264936D01*
X119870001Y-162244341D01*
X119869999Y-162244341D01*
X119634596Y-162264936D01*
X119634586Y-162264938D01*
X119406344Y-162326094D01*
X119406335Y-162326098D01*
X119192171Y-162425964D01*
X119192169Y-162425965D01*
X118998600Y-162561503D01*
X118876673Y-162683430D01*
X118815350Y-162716914D01*
X118745658Y-162711930D01*
X118689725Y-162670058D01*
X118672810Y-162639081D01*
X118623797Y-162507671D01*
X118623793Y-162507664D01*
X118537547Y-162392455D01*
X118537544Y-162392452D01*
X118422335Y-162306206D01*
X118422328Y-162306202D01*
X118287482Y-162255908D01*
X118287483Y-162255908D01*
X118227883Y-162249501D01*
X118227881Y-162249500D01*
X118227873Y-162249500D01*
X118227864Y-162249500D01*
X116432129Y-162249500D01*
X116432123Y-162249501D01*
X116372516Y-162255908D01*
X116237671Y-162306202D01*
X116237664Y-162306206D01*
X116122455Y-162392452D01*
X116122452Y-162392455D01*
X116036206Y-162507664D01*
X116036202Y-162507671D01*
X115985908Y-162642517D01*
X115979501Y-162702116D01*
X115979500Y-162702135D01*
X115979500Y-164497870D01*
X107455684Y-164497870D01*
X98037817Y-155080003D01*
X121394435Y-155080003D01*
X121414630Y-155259249D01*
X121414631Y-155259254D01*
X121474211Y-155429523D01*
X121570184Y-155582262D01*
X121675861Y-155687939D01*
X121709346Y-155749262D01*
X121709757Y-155795212D01*
X121710097Y-155795246D01*
X121709786Y-155798399D01*
X121709799Y-155799804D01*
X121709500Y-155801307D01*
X121709500Y-157218696D01*
X121744103Y-157392658D01*
X121744105Y-157392666D01*
X121770252Y-157455790D01*
X121811984Y-157556542D01*
X121811985Y-157556544D01*
X121871063Y-157644960D01*
X121910537Y-157704038D01*
X121910540Y-157704041D01*
X122696195Y-158489694D01*
X122696216Y-158489717D01*
X122825958Y-158619459D01*
X122825961Y-158619461D01*
X122825964Y-158619464D01*
X122924511Y-158685309D01*
X122924512Y-158685311D01*
X122944063Y-158698374D01*
X122973454Y-158718013D01*
X123097162Y-158769255D01*
X123137334Y-158785895D01*
X123311303Y-158820499D01*
X123311307Y-158820500D01*
X123311308Y-158820500D01*
X123488693Y-158820500D01*
X123488693Y-158820499D01*
X123526986Y-158812882D01*
X123551177Y-158810500D01*
X125138693Y-158810500D01*
X125138694Y-158810499D01*
X125312666Y-158775895D01*
X125394606Y-158741953D01*
X125476547Y-158708013D01*
X125476549Y-158708011D01*
X125476552Y-158708010D01*
X125564955Y-158648939D01*
X125564955Y-158648938D01*
X125564959Y-158648936D01*
X125624036Y-158609464D01*
X125643497Y-158590003D01*
X135994435Y-158590003D01*
X136014630Y-158769249D01*
X136014631Y-158769254D01*
X136074211Y-158939523D01*
X136170184Y-159092262D01*
X136297738Y-159219816D01*
X136450478Y-159315789D01*
X136620745Y-159375368D01*
X136620750Y-159375369D01*
X136799996Y-159395565D01*
X136800000Y-159395565D01*
X136800004Y-159395565D01*
X136979249Y-159375369D01*
X136979252Y-159375368D01*
X136979255Y-159375368D01*
X137149522Y-159315789D01*
X137302262Y-159219816D01*
X137429816Y-159092262D01*
X137525789Y-158939522D01*
X137585368Y-158769255D01*
X137588444Y-158741953D01*
X137605565Y-158590003D01*
X137605565Y-158589996D01*
X137585369Y-158410750D01*
X137585368Y-158410745D01*
X137525788Y-158240476D01*
X137429815Y-158087737D01*
X137302262Y-157960184D01*
X137149523Y-157864211D01*
X136979254Y-157804631D01*
X136979249Y-157804630D01*
X136800004Y-157784435D01*
X136799996Y-157784435D01*
X136620750Y-157804630D01*
X136620745Y-157804631D01*
X136450476Y-157864211D01*
X136297737Y-157960184D01*
X136170184Y-158087737D01*
X136074211Y-158240476D01*
X136014631Y-158410745D01*
X136014630Y-158410750D01*
X135994435Y-158589996D01*
X135994435Y-158590003D01*
X125643497Y-158590003D01*
X126199464Y-158034036D01*
X126248810Y-157960184D01*
X126298013Y-157886547D01*
X126340309Y-157784435D01*
X126365895Y-157722666D01*
X126400500Y-157548692D01*
X126400500Y-157371308D01*
X126400500Y-157084361D01*
X126420185Y-157017322D01*
X126436819Y-156996680D01*
X126703496Y-156730003D01*
X132104435Y-156730003D01*
X132124630Y-156909249D01*
X132124631Y-156909254D01*
X132184211Y-157079523D01*
X132271657Y-157218692D01*
X132280184Y-157232262D01*
X132407738Y-157359816D01*
X132560478Y-157455789D01*
X132730745Y-157515368D01*
X132730750Y-157515369D01*
X132909996Y-157535565D01*
X132910000Y-157535565D01*
X132910004Y-157535565D01*
X133089249Y-157515369D01*
X133089252Y-157515368D01*
X133089255Y-157515368D01*
X133259522Y-157455789D01*
X133412262Y-157359816D01*
X133539816Y-157232262D01*
X133635789Y-157079522D01*
X133695368Y-156909255D01*
X133715565Y-156730000D01*
X133709931Y-156680000D01*
X133695369Y-156550750D01*
X133695368Y-156550745D01*
X133677872Y-156500745D01*
X133635789Y-156380478D01*
X133539816Y-156227738D01*
X133412262Y-156100184D01*
X133374633Y-156076540D01*
X133259523Y-156004211D01*
X133089254Y-155944631D01*
X133089249Y-155944630D01*
X132910004Y-155924435D01*
X132909996Y-155924435D01*
X132730750Y-155944630D01*
X132730745Y-155944631D01*
X132560476Y-156004211D01*
X132407737Y-156100184D01*
X132280184Y-156227737D01*
X132184211Y-156380476D01*
X132124631Y-156550745D01*
X132124630Y-156550750D01*
X132104435Y-156729996D01*
X132104435Y-156730003D01*
X126703496Y-156730003D01*
X126846680Y-156586819D01*
X126908003Y-156553334D01*
X126934361Y-156550500D01*
X128478693Y-156550500D01*
X128478694Y-156550499D01*
X128536682Y-156538964D01*
X128652658Y-156515896D01*
X128652661Y-156515894D01*
X128652666Y-156515894D01*
X128816547Y-156448013D01*
X128964035Y-156349464D01*
X129089464Y-156224035D01*
X129188013Y-156076547D01*
X129255894Y-155912666D01*
X129260456Y-155889735D01*
X129290499Y-155738695D01*
X129290500Y-155738693D01*
X129290500Y-155561306D01*
X129290499Y-155561304D01*
X129255896Y-155387341D01*
X129255893Y-155387332D01*
X129188016Y-155223459D01*
X129188009Y-155223446D01*
X129089464Y-155075965D01*
X129089461Y-155075961D01*
X128964038Y-154950538D01*
X128964034Y-154950535D01*
X128816553Y-154851990D01*
X128816540Y-154851983D01*
X128652667Y-154784106D01*
X128652658Y-154784103D01*
X128478694Y-154749500D01*
X128478691Y-154749500D01*
X126598692Y-154749500D01*
X126421309Y-154749500D01*
X126421304Y-154749500D01*
X126247339Y-154784103D01*
X126247323Y-154784108D01*
X126131453Y-154832102D01*
X126131454Y-154832103D01*
X126083453Y-154851986D01*
X126069294Y-154861448D01*
X126064529Y-154864632D01*
X125935965Y-154950535D01*
X125935961Y-154950538D01*
X125184352Y-155702146D01*
X125123029Y-155735631D01*
X125053337Y-155730647D01*
X124997404Y-155688775D01*
X124989290Y-155676475D01*
X124980520Y-155661284D01*
X124868716Y-155549480D01*
X124868715Y-155549479D01*
X124864385Y-155545149D01*
X124864374Y-155545139D01*
X124037590Y-154718355D01*
X124037588Y-154718352D01*
X123918717Y-154599481D01*
X123918709Y-154599475D01*
X123816936Y-154540717D01*
X123816934Y-154540716D01*
X123781790Y-154520425D01*
X123781789Y-154520424D01*
X123769263Y-154517067D01*
X123629057Y-154479499D01*
X123470943Y-154479499D01*
X123463347Y-154479499D01*
X123463331Y-154479500D01*
X122782412Y-154479500D01*
X122715373Y-154459815D01*
X122705097Y-154452445D01*
X122702263Y-154450185D01*
X122702262Y-154450184D01*
X122645496Y-154414515D01*
X122549523Y-154354211D01*
X122379254Y-154294631D01*
X122379249Y-154294630D01*
X122200004Y-154274435D01*
X122199996Y-154274435D01*
X122020750Y-154294630D01*
X122020745Y-154294631D01*
X121850476Y-154354211D01*
X121697737Y-154450184D01*
X121570184Y-154577737D01*
X121474211Y-154730476D01*
X121414631Y-154900745D01*
X121414630Y-154900750D01*
X121394435Y-155079996D01*
X121394435Y-155080003D01*
X98037817Y-155080003D01*
X96447817Y-153490003D01*
X127904435Y-153490003D01*
X127924630Y-153669249D01*
X127924631Y-153669254D01*
X127984211Y-153839523D01*
X128080184Y-153992262D01*
X128207738Y-154119816D01*
X128360478Y-154215789D01*
X128503367Y-154265788D01*
X128530745Y-154275368D01*
X128530750Y-154275369D01*
X128709996Y-154295565D01*
X128710000Y-154295565D01*
X128710004Y-154295565D01*
X128889249Y-154275369D01*
X128889252Y-154275368D01*
X128889255Y-154275368D01*
X129059522Y-154215789D01*
X129212262Y-154119816D01*
X129339816Y-153992262D01*
X129435789Y-153839522D01*
X129495368Y-153669255D01*
X129509931Y-153540003D01*
X131434435Y-153540003D01*
X131454630Y-153719249D01*
X131454631Y-153719254D01*
X131514211Y-153889523D01*
X131578767Y-153992262D01*
X131610184Y-154042262D01*
X131737738Y-154169816D01*
X131890478Y-154265789D01*
X131972901Y-154294630D01*
X132060745Y-154325368D01*
X132060750Y-154325369D01*
X132239996Y-154345565D01*
X132240000Y-154345565D01*
X132240004Y-154345565D01*
X132419249Y-154325369D01*
X132419252Y-154325368D01*
X132419255Y-154325368D01*
X132589522Y-154265789D01*
X132742262Y-154169816D01*
X132869816Y-154042262D01*
X132965789Y-153889522D01*
X133025368Y-153719255D01*
X133031002Y-153669254D01*
X133045565Y-153540003D01*
X133045565Y-153539996D01*
X133025369Y-153360750D01*
X133025368Y-153360745D01*
X132999164Y-153285858D01*
X132965789Y-153190478D01*
X132943992Y-153155789D01*
X132869815Y-153037737D01*
X132742262Y-152910184D01*
X132589523Y-152814211D01*
X132419254Y-152754631D01*
X132419249Y-152754630D01*
X132240004Y-152734435D01*
X132239996Y-152734435D01*
X132060750Y-152754630D01*
X132060745Y-152754631D01*
X131890476Y-152814211D01*
X131737737Y-152910184D01*
X131610184Y-153037737D01*
X131514211Y-153190476D01*
X131454631Y-153360745D01*
X131454630Y-153360750D01*
X131434435Y-153539996D01*
X131434435Y-153540003D01*
X129509931Y-153540003D01*
X129515565Y-153490003D01*
X129515565Y-153489997D01*
X129501002Y-153360750D01*
X129500318Y-153354679D01*
X129512372Y-153285858D01*
X129559721Y-153234478D01*
X129609655Y-153217576D01*
X129629255Y-153215368D01*
X129629259Y-153215366D01*
X129629262Y-153215366D01*
X129695840Y-153192068D01*
X129799522Y-153155789D01*
X129858112Y-153118973D01*
X129925348Y-153099973D01*
X129990055Y-153118972D01*
X130080478Y-153175789D01*
X130199896Y-153217575D01*
X130250745Y-153235368D01*
X130250750Y-153235369D01*
X130429996Y-153255565D01*
X130430000Y-153255565D01*
X130430004Y-153255565D01*
X130609249Y-153235369D01*
X130609252Y-153235368D01*
X130609255Y-153235368D01*
X130779522Y-153175789D01*
X130932262Y-153079816D01*
X131059816Y-152952262D01*
X131155789Y-152799522D01*
X131215368Y-152629255D01*
X131215369Y-152629249D01*
X131235565Y-152450003D01*
X131235565Y-152449996D01*
X131215369Y-152270750D01*
X131215368Y-152270745D01*
X131208370Y-152250745D01*
X131155789Y-152100478D01*
X131059816Y-151947738D01*
X130932262Y-151820184D01*
X130843852Y-151764632D01*
X130779523Y-151724211D01*
X130609254Y-151664631D01*
X130609249Y-151664630D01*
X130430004Y-151644435D01*
X130429996Y-151644435D01*
X130250750Y-151664630D01*
X130250737Y-151664633D01*
X130080481Y-151724209D01*
X130080472Y-151724213D01*
X130021885Y-151761026D01*
X129954649Y-151780026D01*
X129889942Y-151761025D01*
X129799526Y-151704212D01*
X129629254Y-151644631D01*
X129629249Y-151644630D01*
X129450004Y-151624435D01*
X129449996Y-151624435D01*
X129270750Y-151644630D01*
X129270745Y-151644631D01*
X129100476Y-151704211D01*
X128947737Y-151800184D01*
X128820184Y-151927737D01*
X128724211Y-152080476D01*
X128664631Y-152250745D01*
X128664630Y-152250750D01*
X128644435Y-152429996D01*
X128644435Y-152430003D01*
X128659681Y-152565319D01*
X128647626Y-152634141D01*
X128600277Y-152685520D01*
X128550349Y-152702422D01*
X128530749Y-152704630D01*
X128360478Y-152764210D01*
X128207737Y-152860184D01*
X128080184Y-152987737D01*
X127984211Y-153140476D01*
X127924631Y-153310745D01*
X127924630Y-153310750D01*
X127904435Y-153489996D01*
X127904435Y-153490003D01*
X96447817Y-153490003D01*
X95507817Y-152550003D01*
X120304435Y-152550003D01*
X120324630Y-152729249D01*
X120324631Y-152729254D01*
X120384211Y-152899523D01*
X120439640Y-152987737D01*
X120480184Y-153052262D01*
X120607738Y-153179816D01*
X120760478Y-153275789D01*
X120789254Y-153285858D01*
X120930745Y-153335368D01*
X120930750Y-153335369D01*
X121109996Y-153355565D01*
X121110000Y-153355565D01*
X121110004Y-153355565D01*
X121289249Y-153335369D01*
X121289252Y-153335368D01*
X121289255Y-153335368D01*
X121459522Y-153275789D01*
X121612262Y-153179816D01*
X121739816Y-153052262D01*
X121835789Y-152899522D01*
X121895368Y-152729255D01*
X121895369Y-152729249D01*
X121915565Y-152550003D01*
X121915565Y-152549996D01*
X121895369Y-152370750D01*
X121895368Y-152370745D01*
X121835788Y-152200476D01*
X121772955Y-152100478D01*
X121739816Y-152047738D01*
X121612262Y-151920184D01*
X121459523Y-151824211D01*
X121289254Y-151764631D01*
X121289249Y-151764630D01*
X121110004Y-151744435D01*
X121109996Y-151744435D01*
X120930750Y-151764630D01*
X120930745Y-151764631D01*
X120760476Y-151824211D01*
X120607737Y-151920184D01*
X120480184Y-152047737D01*
X120384211Y-152200476D01*
X120324631Y-152370745D01*
X120324630Y-152370750D01*
X120304435Y-152549996D01*
X120304435Y-152550003D01*
X95507817Y-152550003D01*
X94536819Y-151579005D01*
X94503334Y-151517682D01*
X94500500Y-151491324D01*
X94500500Y-148940003D01*
X116804435Y-148940003D01*
X116824630Y-149119249D01*
X116824631Y-149119254D01*
X116884211Y-149289523D01*
X116968842Y-149424211D01*
X116980184Y-149442262D01*
X117107738Y-149569816D01*
X117164987Y-149605788D01*
X117259809Y-149665369D01*
X117260478Y-149665789D01*
X117404267Y-149716103D01*
X117430745Y-149725368D01*
X117430750Y-149725369D01*
X117609996Y-149745565D01*
X117610000Y-149745565D01*
X117610004Y-149745565D01*
X117789249Y-149725369D01*
X117789252Y-149725368D01*
X117789255Y-149725368D01*
X117959522Y-149665789D01*
X118112262Y-149569816D01*
X118112267Y-149569810D01*
X118115097Y-149567555D01*
X118117275Y-149566665D01*
X118118158Y-149566111D01*
X118118255Y-149566265D01*
X118179783Y-149541145D01*
X118192412Y-149540500D01*
X121321860Y-149540500D01*
X121321876Y-149540501D01*
X121329472Y-149540501D01*
X121487583Y-149540501D01*
X121487586Y-149540501D01*
X121640314Y-149499577D01*
X121692784Y-149469283D01*
X121777245Y-149420520D01*
X121777247Y-149420517D01*
X121778019Y-149420072D01*
X121845920Y-149403599D01*
X121911946Y-149426452D01*
X121927700Y-149439778D01*
X121997738Y-149509816D01*
X122150478Y-149605789D01*
X122295470Y-149656524D01*
X122320745Y-149665368D01*
X122320750Y-149665369D01*
X122499996Y-149685565D01*
X122500000Y-149685565D01*
X122500004Y-149685565D01*
X122679249Y-149665369D01*
X122679252Y-149665368D01*
X122679255Y-149665368D01*
X122849522Y-149605789D01*
X122894242Y-149577688D01*
X122961475Y-149558689D01*
X123026183Y-149577689D01*
X123068256Y-149604125D01*
X123150475Y-149655788D01*
X123320745Y-149715368D01*
X123320750Y-149715369D01*
X123499996Y-149735565D01*
X123500000Y-149735565D01*
X123500004Y-149735565D01*
X123679249Y-149715369D01*
X123679252Y-149715368D01*
X123679255Y-149715368D01*
X123849522Y-149655789D01*
X124002262Y-149559816D01*
X124129816Y-149432262D01*
X124225789Y-149279522D01*
X124285368Y-149109255D01*
X124286390Y-149100184D01*
X124305482Y-148930738D01*
X126185170Y-148930738D01*
X126205365Y-149109984D01*
X126205366Y-149109989D01*
X126264946Y-149280258D01*
X126317962Y-149364632D01*
X126360919Y-149432997D01*
X126488473Y-149560551D01*
X126578815Y-149617317D01*
X126640041Y-149655788D01*
X126641213Y-149656524D01*
X126809382Y-149715369D01*
X126811480Y-149716103D01*
X126811485Y-149716104D01*
X126890866Y-149725047D01*
X126990735Y-149736300D01*
X127010112Y-149734116D01*
X127078931Y-149746169D01*
X127130312Y-149793516D01*
X127147217Y-149843452D01*
X127154630Y-149909250D01*
X127154631Y-149909254D01*
X127214211Y-150079523D01*
X127258495Y-150150000D01*
X127310184Y-150232262D01*
X127437738Y-150359816D01*
X127590478Y-150455789D01*
X127715460Y-150499522D01*
X127760745Y-150515368D01*
X127760750Y-150515369D01*
X127939996Y-150535565D01*
X127940000Y-150535565D01*
X127940004Y-150535565D01*
X128119249Y-150515369D01*
X128119252Y-150515368D01*
X128119255Y-150515368D01*
X128289522Y-150455789D01*
X128442262Y-150359816D01*
X128569816Y-150232262D01*
X128621503Y-150150003D01*
X130494435Y-150150003D01*
X130514630Y-150329249D01*
X130514631Y-150329254D01*
X130574211Y-150499523D01*
X130584168Y-150515369D01*
X130670184Y-150652262D01*
X130797738Y-150779816D01*
X130950478Y-150875789D01*
X131120745Y-150935368D01*
X131120750Y-150935369D01*
X131299996Y-150955565D01*
X131300000Y-150955565D01*
X131300004Y-150955565D01*
X131479249Y-150935369D01*
X131479252Y-150935368D01*
X131479255Y-150935368D01*
X131649522Y-150875789D01*
X131802262Y-150779816D01*
X131929816Y-150652262D01*
X132025789Y-150499522D01*
X132085368Y-150329255D01*
X132085369Y-150329249D01*
X132105565Y-150150003D01*
X132105565Y-150149996D01*
X132085369Y-149970750D01*
X132085368Y-149970745D01*
X132025788Y-149800476D01*
X131941158Y-149665789D01*
X131929816Y-149647738D01*
X131802262Y-149520184D01*
X131649523Y-149424211D01*
X131479254Y-149364631D01*
X131479249Y-149364630D01*
X131300004Y-149344435D01*
X131299996Y-149344435D01*
X131120750Y-149364630D01*
X131120745Y-149364631D01*
X130950476Y-149424211D01*
X130797737Y-149520184D01*
X130670184Y-149647737D01*
X130574211Y-149800476D01*
X130514631Y-149970745D01*
X130514630Y-149970750D01*
X130494435Y-150149996D01*
X130494435Y-150150003D01*
X128621503Y-150150003D01*
X128665789Y-150079522D01*
X128725368Y-149909255D01*
X128737624Y-149800478D01*
X128745565Y-149730003D01*
X128745565Y-149729996D01*
X128725369Y-149550750D01*
X128725368Y-149550745D01*
X128711046Y-149509815D01*
X128665789Y-149380478D01*
X128569816Y-149227738D01*
X128442262Y-149100184D01*
X128289523Y-149004211D01*
X128119254Y-148944631D01*
X128119249Y-148944630D01*
X127940004Y-148924435D01*
X127939996Y-148924435D01*
X127920620Y-148926618D01*
X127851798Y-148914563D01*
X127800419Y-148867214D01*
X127783517Y-148817280D01*
X127776104Y-148751485D01*
X127776103Y-148751480D01*
X127716523Y-148581211D01*
X127677317Y-148518815D01*
X127620551Y-148428473D01*
X127492997Y-148300919D01*
X127384668Y-148232851D01*
X127348306Y-148210003D01*
X131994435Y-148210003D01*
X132014630Y-148389249D01*
X132014631Y-148389254D01*
X132074211Y-148559523D01*
X132170184Y-148712262D01*
X132297738Y-148839816D01*
X132341342Y-148867214D01*
X132442434Y-148930735D01*
X132450478Y-148935789D01*
X132620745Y-148995368D01*
X132620750Y-148995369D01*
X132799996Y-149015565D01*
X132800000Y-149015565D01*
X132800004Y-149015565D01*
X132979249Y-148995369D01*
X132979252Y-148995368D01*
X132979255Y-148995368D01*
X133149522Y-148935789D01*
X133302262Y-148839816D01*
X133429816Y-148712262D01*
X133525789Y-148559522D01*
X133585368Y-148389255D01*
X133590974Y-148339500D01*
X133605565Y-148210003D01*
X133605565Y-148209996D01*
X133585369Y-148030750D01*
X133585368Y-148030745D01*
X133579808Y-148014855D01*
X133525789Y-147860478D01*
X133519504Y-147850476D01*
X133429815Y-147707737D01*
X133302262Y-147580184D01*
X133149523Y-147484211D01*
X132979254Y-147424631D01*
X132979249Y-147424630D01*
X132800004Y-147404435D01*
X132799996Y-147404435D01*
X132620750Y-147424630D01*
X132620745Y-147424631D01*
X132450476Y-147484211D01*
X132297737Y-147580184D01*
X132170184Y-147707737D01*
X132074211Y-147860476D01*
X132014631Y-148030745D01*
X132014630Y-148030750D01*
X131994435Y-148209996D01*
X131994435Y-148210003D01*
X127348306Y-148210003D01*
X127340258Y-148204946D01*
X127169989Y-148145366D01*
X127169984Y-148145365D01*
X126990739Y-148125170D01*
X126990731Y-148125170D01*
X126811485Y-148145365D01*
X126811480Y-148145366D01*
X126641211Y-148204946D01*
X126488472Y-148300919D01*
X126360919Y-148428472D01*
X126264946Y-148581211D01*
X126205366Y-148751480D01*
X126205365Y-148751485D01*
X126185170Y-148930731D01*
X126185170Y-148930738D01*
X124305482Y-148930738D01*
X124305565Y-148930003D01*
X124305565Y-148929996D01*
X124285369Y-148750750D01*
X124285368Y-148750745D01*
X124225788Y-148580476D01*
X124136099Y-148437738D01*
X124129816Y-148427738D01*
X124002262Y-148300184D01*
X124002261Y-148300183D01*
X123961075Y-148274304D01*
X123914784Y-148221969D01*
X123903827Y-148155425D01*
X123905565Y-148140001D01*
X123905565Y-148139997D01*
X123899219Y-148083677D01*
X123911273Y-148014855D01*
X123958622Y-147963476D01*
X124008561Y-147946572D01*
X124019255Y-147945368D01*
X124189522Y-147885789D01*
X124342262Y-147789816D01*
X124469816Y-147662262D01*
X124565789Y-147509522D01*
X124625368Y-147339255D01*
X124639219Y-147216322D01*
X124645565Y-147160003D01*
X124645565Y-147159996D01*
X124625369Y-146980750D01*
X124625368Y-146980745D01*
X124565789Y-146810478D01*
X124469816Y-146657738D01*
X124342262Y-146530184D01*
X124268226Y-146483664D01*
X124189523Y-146434211D01*
X124019254Y-146374631D01*
X124019249Y-146374630D01*
X123840004Y-146354435D01*
X123839996Y-146354435D01*
X123660750Y-146374630D01*
X123660745Y-146374631D01*
X123490476Y-146434211D01*
X123337737Y-146530184D01*
X123210184Y-146657737D01*
X123114211Y-146810476D01*
X123054631Y-146980745D01*
X123054630Y-146980750D01*
X123034435Y-147159996D01*
X123034435Y-147160004D01*
X123040780Y-147216322D01*
X123028725Y-147285144D01*
X122981376Y-147336523D01*
X122931449Y-147353425D01*
X122920749Y-147354631D01*
X122920746Y-147354631D01*
X122920745Y-147354632D01*
X122872129Y-147371643D01*
X122750478Y-147414210D01*
X122597736Y-147510185D01*
X122594903Y-147512445D01*
X122592724Y-147513334D01*
X122591842Y-147513889D01*
X122591744Y-147513734D01*
X122530217Y-147538855D01*
X122517588Y-147539500D01*
X122276669Y-147539500D01*
X122276653Y-147539499D01*
X122269057Y-147539499D01*
X122110943Y-147539499D01*
X121996427Y-147570184D01*
X121958214Y-147580423D01*
X121948239Y-147586183D01*
X121880339Y-147602657D01*
X121814312Y-147579806D01*
X121807851Y-147574341D01*
X121807705Y-147574525D01*
X121802262Y-147570184D01*
X121649523Y-147474211D01*
X121479254Y-147414631D01*
X121479249Y-147414630D01*
X121300004Y-147394435D01*
X121299996Y-147394435D01*
X121120750Y-147414630D01*
X121120745Y-147414631D01*
X120950476Y-147474211D01*
X120797737Y-147570184D01*
X120670184Y-147697737D01*
X120574211Y-147850476D01*
X120514631Y-148020745D01*
X120514630Y-148020750D01*
X120494435Y-148199996D01*
X120494435Y-148199998D01*
X120494617Y-148201613D01*
X120494435Y-148202652D01*
X120494435Y-148206964D01*
X120493680Y-148206964D01*
X120482564Y-148270435D01*
X120435216Y-148321816D01*
X120371397Y-148339500D01*
X118192412Y-148339500D01*
X118125373Y-148319815D01*
X118115097Y-148312445D01*
X118112263Y-148310185D01*
X118112262Y-148310184D01*
X118049002Y-148270435D01*
X117959523Y-148214211D01*
X117789254Y-148154631D01*
X117789249Y-148154630D01*
X117610004Y-148134435D01*
X117609996Y-148134435D01*
X117430750Y-148154630D01*
X117430745Y-148154631D01*
X117260476Y-148214211D01*
X117107737Y-148310184D01*
X116980184Y-148437737D01*
X116884211Y-148590476D01*
X116824631Y-148760745D01*
X116824630Y-148760750D01*
X116804435Y-148939996D01*
X116804435Y-148940003D01*
X94500500Y-148940003D01*
X94500500Y-146020000D01*
X95844341Y-146020000D01*
X95864936Y-146255403D01*
X95864938Y-146255413D01*
X95926094Y-146483655D01*
X95926096Y-146483659D01*
X95926097Y-146483663D01*
X96007269Y-146657737D01*
X96025965Y-146697830D01*
X96025967Y-146697834D01*
X96104842Y-146810478D01*
X96161505Y-146891401D01*
X96328599Y-147058495D01*
X96425384Y-147126265D01*
X96522165Y-147194032D01*
X96522167Y-147194033D01*
X96522170Y-147194035D01*
X96736337Y-147293903D01*
X96964592Y-147355063D01*
X97152918Y-147371539D01*
X97199999Y-147375659D01*
X97200000Y-147375659D01*
X97200001Y-147375659D01*
X97239234Y-147372226D01*
X97435408Y-147355063D01*
X97663663Y-147293903D01*
X97877830Y-147194035D01*
X98071401Y-147058495D01*
X98238495Y-146891401D01*
X98374035Y-146697830D01*
X98473903Y-146483663D01*
X98535063Y-146255408D01*
X98555659Y-146020000D01*
X98535063Y-145784592D01*
X98473903Y-145556337D01*
X98374035Y-145342171D01*
X98348561Y-145305789D01*
X98238494Y-145148597D01*
X98071402Y-144981506D01*
X98071396Y-144981501D01*
X97885842Y-144851575D01*
X97842217Y-144796998D01*
X97835023Y-144727500D01*
X97866546Y-144665145D01*
X97885842Y-144648425D01*
X97951769Y-144602262D01*
X98071401Y-144518495D01*
X98238495Y-144351401D01*
X98374035Y-144157830D01*
X98396337Y-144110003D01*
X103624435Y-144110003D01*
X103644630Y-144289249D01*
X103644631Y-144289254D01*
X103704211Y-144459523D01*
X103767347Y-144560003D01*
X103800184Y-144612262D01*
X103927738Y-144739816D01*
X103958675Y-144759255D01*
X104078991Y-144834855D01*
X104080478Y-144835789D01*
X104250745Y-144895368D01*
X104250750Y-144895369D01*
X104429996Y-144915565D01*
X104430000Y-144915565D01*
X104430004Y-144915565D01*
X104609249Y-144895369D01*
X104609252Y-144895368D01*
X104609255Y-144895368D01*
X104779522Y-144835789D01*
X104932262Y-144739816D01*
X105059816Y-144612262D01*
X105155789Y-144459522D01*
X105211607Y-144300003D01*
X119554435Y-144300003D01*
X119574630Y-144479249D01*
X119574631Y-144479254D01*
X119634211Y-144649523D01*
X119703157Y-144759249D01*
X119730184Y-144802262D01*
X119857738Y-144929816D01*
X120010478Y-145025789D01*
X120114712Y-145062262D01*
X120180745Y-145085368D01*
X120180750Y-145085369D01*
X120359996Y-145105565D01*
X120360000Y-145105565D01*
X120360004Y-145105565D01*
X120539249Y-145085369D01*
X120539252Y-145085368D01*
X120539255Y-145085368D01*
X120709522Y-145025789D01*
X120862262Y-144929816D01*
X120989816Y-144802262D01*
X121085789Y-144649522D01*
X121110115Y-144580003D01*
X123114435Y-144580003D01*
X123134630Y-144759249D01*
X123134631Y-144759254D01*
X123194211Y-144929523D01*
X123277617Y-145062262D01*
X123290184Y-145082262D01*
X123417738Y-145209816D01*
X123427903Y-145216203D01*
X123554561Y-145295788D01*
X123570478Y-145305789D01*
X123740745Y-145365368D01*
X123740750Y-145365369D01*
X123919996Y-145385565D01*
X123920000Y-145385565D01*
X123920003Y-145385565D01*
X124069311Y-145368742D01*
X124138133Y-145380796D01*
X124189513Y-145428145D01*
X124200237Y-145451008D01*
X124224210Y-145519521D01*
X124247342Y-145556335D01*
X124320184Y-145672262D01*
X124447738Y-145799816D01*
X124600478Y-145895789D01*
X124770745Y-145955368D01*
X124770750Y-145955369D01*
X124949996Y-145975565D01*
X124950000Y-145975565D01*
X124950004Y-145975565D01*
X125129249Y-145955369D01*
X125129252Y-145955368D01*
X125129255Y-145955368D01*
X125299522Y-145895789D01*
X125452262Y-145799816D01*
X125579816Y-145672262D01*
X125675789Y-145519522D01*
X125735368Y-145349255D01*
X125736167Y-145342171D01*
X125743102Y-145280617D01*
X125770168Y-145216203D01*
X125827763Y-145176648D01*
X125866322Y-145170500D01*
X126167588Y-145170500D01*
X126234627Y-145190185D01*
X126244903Y-145197555D01*
X126247736Y-145199814D01*
X126247738Y-145199816D01*
X126361270Y-145271152D01*
X126384561Y-145285788D01*
X126400478Y-145295789D01*
X126553258Y-145349249D01*
X126570745Y-145355368D01*
X126570750Y-145355369D01*
X126749996Y-145375565D01*
X126750000Y-145375565D01*
X126750004Y-145375565D01*
X126929249Y-145355369D01*
X126929252Y-145355368D01*
X126929255Y-145355368D01*
X127099522Y-145295789D01*
X127115439Y-145285788D01*
X127126438Y-145278876D01*
X127241987Y-145206272D01*
X127309221Y-145187272D01*
X127373928Y-145206272D01*
X127389733Y-145216203D01*
X127500475Y-145285788D01*
X127670745Y-145345368D01*
X127670750Y-145345369D01*
X127849996Y-145365565D01*
X127850000Y-145365565D01*
X127850004Y-145365565D01*
X128029249Y-145345369D01*
X128029252Y-145345368D01*
X128029255Y-145345368D01*
X128199522Y-145285789D01*
X128352262Y-145189816D01*
X128479816Y-145062262D01*
X128575789Y-144909522D01*
X128607113Y-144820003D01*
X131434435Y-144820003D01*
X131454630Y-144999249D01*
X131454631Y-144999254D01*
X131514211Y-145169523D01*
X131584017Y-145280617D01*
X131610184Y-145322262D01*
X131737738Y-145449816D01*
X131890478Y-145545789D01*
X132060745Y-145605368D01*
X132060750Y-145605369D01*
X132239996Y-145625565D01*
X132240000Y-145625565D01*
X132240004Y-145625565D01*
X132419249Y-145605369D01*
X132419252Y-145605368D01*
X132419255Y-145605368D01*
X132589522Y-145545789D01*
X132742262Y-145449816D01*
X132869816Y-145322262D01*
X132965789Y-145169522D01*
X133025368Y-144999255D01*
X133027368Y-144981505D01*
X133045565Y-144820003D01*
X133045565Y-144819996D01*
X133025369Y-144640750D01*
X133025368Y-144640745D01*
X132965788Y-144470476D01*
X132909406Y-144380745D01*
X132869816Y-144317738D01*
X132742262Y-144190184D01*
X132598741Y-144100003D01*
X146994435Y-144100003D01*
X147014630Y-144279249D01*
X147014631Y-144279254D01*
X147074211Y-144449523D01*
X147143626Y-144559996D01*
X147170184Y-144602262D01*
X147297738Y-144729816D01*
X147344590Y-144759255D01*
X147441269Y-144820003D01*
X147450478Y-144825789D01*
X147620745Y-144885368D01*
X147620750Y-144885369D01*
X147799996Y-144905565D01*
X147800000Y-144905565D01*
X147800004Y-144905565D01*
X147979249Y-144885369D01*
X147979252Y-144885368D01*
X147979255Y-144885368D01*
X148149522Y-144825789D01*
X148302262Y-144729816D01*
X148429816Y-144602262D01*
X148525789Y-144449522D01*
X148585368Y-144279255D01*
X148590864Y-144230476D01*
X148605565Y-144100003D01*
X148605565Y-144099996D01*
X148585369Y-143920750D01*
X148585368Y-143920745D01*
X148558588Y-143844212D01*
X148525789Y-143750478D01*
X148429816Y-143597738D01*
X148302262Y-143470184D01*
X148149523Y-143374211D01*
X147979254Y-143314631D01*
X147979249Y-143314630D01*
X147800004Y-143294435D01*
X147799996Y-143294435D01*
X147620750Y-143314630D01*
X147620745Y-143314631D01*
X147450476Y-143374211D01*
X147297737Y-143470184D01*
X147170184Y-143597737D01*
X147074211Y-143750476D01*
X147014631Y-143920745D01*
X147014630Y-143920750D01*
X146994435Y-144099996D01*
X146994435Y-144100003D01*
X132598741Y-144100003D01*
X132589523Y-144094211D01*
X132419254Y-144034631D01*
X132419249Y-144034630D01*
X132240004Y-144014435D01*
X132239996Y-144014435D01*
X132060750Y-144034630D01*
X132060745Y-144034631D01*
X131890476Y-144094211D01*
X131737737Y-144190184D01*
X131610184Y-144317737D01*
X131514211Y-144470476D01*
X131454631Y-144640745D01*
X131454630Y-144640750D01*
X131434435Y-144819996D01*
X131434435Y-144820003D01*
X128607113Y-144820003D01*
X128635368Y-144739255D01*
X128636432Y-144729815D01*
X128655565Y-144560003D01*
X128655565Y-144559996D01*
X128635369Y-144380750D01*
X128635368Y-144380745D01*
X128613321Y-144317738D01*
X128575789Y-144210478D01*
X128563037Y-144190184D01*
X128506368Y-144099996D01*
X128479816Y-144057738D01*
X128352262Y-143930184D01*
X128337240Y-143920745D01*
X128199523Y-143834211D01*
X128029254Y-143774631D01*
X128029249Y-143774630D01*
X127850004Y-143754435D01*
X127849996Y-143754435D01*
X127670750Y-143774630D01*
X127670745Y-143774631D01*
X127500476Y-143834211D01*
X127358014Y-143923727D01*
X127290777Y-143942727D01*
X127226070Y-143923726D01*
X127099526Y-143844212D01*
X126929254Y-143784631D01*
X126929249Y-143784630D01*
X126750004Y-143764435D01*
X126749996Y-143764435D01*
X126570750Y-143784630D01*
X126570745Y-143784631D01*
X126400476Y-143844211D01*
X126247736Y-143940185D01*
X126244903Y-143942445D01*
X126242724Y-143943334D01*
X126241842Y-143943889D01*
X126241744Y-143943734D01*
X126180217Y-143968855D01*
X126167588Y-143969500D01*
X124488727Y-143969500D01*
X124422755Y-143950494D01*
X124412243Y-143943889D01*
X124375410Y-143920745D01*
X124269523Y-143854211D01*
X124099254Y-143794631D01*
X124099249Y-143794630D01*
X123920004Y-143774435D01*
X123919996Y-143774435D01*
X123740750Y-143794630D01*
X123740745Y-143794631D01*
X123570476Y-143854211D01*
X123417737Y-143950184D01*
X123290184Y-144077737D01*
X123194211Y-144230476D01*
X123134631Y-144400745D01*
X123134630Y-144400750D01*
X123114435Y-144579996D01*
X123114435Y-144580003D01*
X121110115Y-144580003D01*
X121145368Y-144479255D01*
X121146357Y-144470476D01*
X121165565Y-144300003D01*
X121165565Y-144299996D01*
X121145369Y-144120750D01*
X121145368Y-144120745D01*
X121123321Y-144057738D01*
X121085789Y-143950478D01*
X121085604Y-143950184D01*
X121025300Y-143854211D01*
X120989816Y-143797738D01*
X120862262Y-143670184D01*
X120709523Y-143574211D01*
X120539254Y-143514631D01*
X120539249Y-143514630D01*
X120360004Y-143494435D01*
X120359996Y-143494435D01*
X120180750Y-143514630D01*
X120180745Y-143514631D01*
X120010476Y-143574211D01*
X119857737Y-143670184D01*
X119730184Y-143797737D01*
X119634211Y-143950476D01*
X119574631Y-144120745D01*
X119574630Y-144120750D01*
X119554435Y-144299996D01*
X119554435Y-144300003D01*
X105211607Y-144300003D01*
X105215368Y-144289255D01*
X105216495Y-144279254D01*
X105235565Y-144110003D01*
X105235565Y-144109996D01*
X105215369Y-143930750D01*
X105215368Y-143930745D01*
X105211869Y-143920745D01*
X105155789Y-143760478D01*
X105149504Y-143750476D01*
X105059815Y-143607737D01*
X104932262Y-143480184D01*
X104779523Y-143384211D01*
X104609254Y-143324631D01*
X104609249Y-143324630D01*
X104430004Y-143304435D01*
X104429996Y-143304435D01*
X104250750Y-143324630D01*
X104250745Y-143324631D01*
X104080476Y-143384211D01*
X103927737Y-143480184D01*
X103800184Y-143607737D01*
X103704211Y-143760476D01*
X103644631Y-143930745D01*
X103644630Y-143930750D01*
X103624435Y-144109996D01*
X103624435Y-144110003D01*
X98396337Y-144110003D01*
X98473903Y-143943663D01*
X98535063Y-143715408D01*
X98555659Y-143480000D01*
X98535063Y-143244592D01*
X98473903Y-143016337D01*
X98374035Y-142802171D01*
X98258966Y-142637834D01*
X98238494Y-142608597D01*
X98071402Y-142441506D01*
X98071396Y-142441501D01*
X97885842Y-142311575D01*
X97842217Y-142256998D01*
X97835023Y-142187500D01*
X97866546Y-142125145D01*
X97885842Y-142108425D01*
X98004178Y-142025565D01*
X98071401Y-141978495D01*
X98238495Y-141811401D01*
X98374035Y-141617830D01*
X98473903Y-141403663D01*
X98535063Y-141175408D01*
X98555659Y-140940000D01*
X98535063Y-140704592D01*
X98473903Y-140476337D01*
X98374035Y-140262171D01*
X98258966Y-140097834D01*
X98238494Y-140068597D01*
X98071402Y-139901506D01*
X98071395Y-139901501D01*
X98045908Y-139883655D01*
X98032521Y-139874281D01*
X97877834Y-139765967D01*
X97877830Y-139765965D01*
X97826999Y-139742262D01*
X97663663Y-139666097D01*
X97663659Y-139666096D01*
X97663655Y-139666094D01*
X97435413Y-139604938D01*
X97435403Y-139604936D01*
X97200001Y-139584341D01*
X97199999Y-139584341D01*
X96964596Y-139604936D01*
X96964586Y-139604938D01*
X96736344Y-139666094D01*
X96736335Y-139666098D01*
X96522171Y-139765964D01*
X96522169Y-139765965D01*
X96328597Y-139901505D01*
X96161505Y-140068597D01*
X96025965Y-140262169D01*
X96025964Y-140262171D01*
X95926098Y-140476335D01*
X95926094Y-140476344D01*
X95864938Y-140704586D01*
X95864936Y-140704596D01*
X95844341Y-140939999D01*
X95844341Y-140940000D01*
X95864936Y-141175403D01*
X95864938Y-141175413D01*
X95926094Y-141403655D01*
X95926096Y-141403659D01*
X95926097Y-141403663D01*
X95933493Y-141419523D01*
X96025965Y-141617830D01*
X96025967Y-141617834D01*
X96161501Y-141811395D01*
X96161506Y-141811402D01*
X96328597Y-141978493D01*
X96328603Y-141978498D01*
X96514158Y-142108425D01*
X96557783Y-142163002D01*
X96564977Y-142232500D01*
X96533454Y-142294855D01*
X96514158Y-142311575D01*
X96328597Y-142441505D01*
X96161505Y-142608597D01*
X96025965Y-142802169D01*
X96025964Y-142802171D01*
X95926098Y-143016335D01*
X95926094Y-143016344D01*
X95864938Y-143244586D01*
X95864936Y-143244596D01*
X95844341Y-143479999D01*
X95844341Y-143480000D01*
X95864936Y-143715403D01*
X95864938Y-143715413D01*
X95926094Y-143943655D01*
X95926096Y-143943659D01*
X95926097Y-143943663D01*
X96003663Y-144110003D01*
X96025965Y-144157830D01*
X96025967Y-144157834D01*
X96161501Y-144351395D01*
X96161506Y-144351402D01*
X96328597Y-144518493D01*
X96328603Y-144518498D01*
X96514158Y-144648425D01*
X96557783Y-144703002D01*
X96564977Y-144772500D01*
X96533454Y-144834855D01*
X96514158Y-144851575D01*
X96328597Y-144981505D01*
X96161505Y-145148597D01*
X96025965Y-145342169D01*
X96025964Y-145342171D01*
X95926098Y-145556335D01*
X95926094Y-145556344D01*
X95864938Y-145784586D01*
X95864936Y-145784596D01*
X95844341Y-146019999D01*
X95844341Y-146020000D01*
X94500500Y-146020000D01*
X94500500Y-138550003D01*
X101184435Y-138550003D01*
X101204630Y-138729249D01*
X101204631Y-138729254D01*
X101264211Y-138899523D01*
X101360184Y-139052262D01*
X101487738Y-139179816D01*
X101640478Y-139275789D01*
X101793258Y-139329249D01*
X101810745Y-139335368D01*
X101810750Y-139335369D01*
X101989996Y-139355565D01*
X101990000Y-139355565D01*
X101990004Y-139355565D01*
X102169249Y-139335369D01*
X102169252Y-139335368D01*
X102169255Y-139335368D01*
X102339522Y-139275789D01*
X102492262Y-139179816D01*
X102522075Y-139150003D01*
X113834435Y-139150003D01*
X113854630Y-139329249D01*
X113854631Y-139329254D01*
X113914211Y-139499523D01*
X113967506Y-139584341D01*
X114010184Y-139652262D01*
X114137738Y-139779816D01*
X114290478Y-139875789D01*
X114460745Y-139935368D01*
X114547669Y-139945161D01*
X114612080Y-139972226D01*
X114621465Y-139980700D01*
X115645139Y-141004374D01*
X115645149Y-141004385D01*
X115649479Y-141008715D01*
X115649480Y-141008716D01*
X115761284Y-141120520D01*
X115786642Y-141135160D01*
X115804664Y-141145565D01*
X115804663Y-141145565D01*
X115804666Y-141145566D01*
X115898209Y-141199574D01*
X115898210Y-141199574D01*
X115898215Y-141199577D01*
X116050942Y-141240500D01*
X116050943Y-141240500D01*
X120216762Y-141240500D01*
X120282733Y-141259505D01*
X120340478Y-141295789D01*
X120510745Y-141355368D01*
X120510750Y-141355369D01*
X120689996Y-141375565D01*
X120690000Y-141375565D01*
X120690004Y-141375565D01*
X120869249Y-141355369D01*
X120869252Y-141355368D01*
X120869255Y-141355368D01*
X121039522Y-141295789D01*
X121192262Y-141199816D01*
X121251545Y-141140532D01*
X121312865Y-141107049D01*
X121380177Y-141111172D01*
X121420745Y-141125368D01*
X121507668Y-141135161D01*
X121572079Y-141162226D01*
X121581152Y-141170419D01*
X121581281Y-141170517D01*
X121581284Y-141170520D01*
X121581287Y-141170521D01*
X121581290Y-141170524D01*
X121717658Y-141249255D01*
X121718216Y-141249577D01*
X121870943Y-141290501D01*
X121870945Y-141290501D01*
X122036654Y-141290501D01*
X122036670Y-141290500D01*
X125601081Y-141290500D01*
X125668120Y-141310185D01*
X125713875Y-141362989D01*
X125718123Y-141373545D01*
X125734211Y-141419523D01*
X125828462Y-141569522D01*
X125830184Y-141572262D01*
X125957738Y-141699816D01*
X126110478Y-141795789D01*
X126264878Y-141849816D01*
X126280745Y-141855368D01*
X126280750Y-141855369D01*
X126459996Y-141875565D01*
X126460000Y-141875565D01*
X126460004Y-141875565D01*
X126639249Y-141855369D01*
X126639252Y-141855368D01*
X126639255Y-141855368D01*
X126809522Y-141795789D01*
X126962262Y-141699816D01*
X127089816Y-141572262D01*
X127185789Y-141419522D01*
X127245368Y-141249255D01*
X127245369Y-141249249D01*
X127265565Y-141070003D01*
X127265565Y-141070001D01*
X127264256Y-141058386D01*
X127276309Y-140989564D01*
X127323657Y-140938184D01*
X127387476Y-140920500D01*
X127589424Y-140920500D01*
X127656463Y-140940185D01*
X127702218Y-140992989D01*
X127712644Y-141058383D01*
X127694435Y-141219996D01*
X127694435Y-141220003D01*
X127714630Y-141399249D01*
X127714631Y-141399254D01*
X127774211Y-141569523D01*
X127804565Y-141617830D01*
X127870184Y-141722262D01*
X127997738Y-141849816D01*
X128150478Y-141945789D01*
X128243955Y-141978498D01*
X128320745Y-142005368D01*
X128320750Y-142005369D01*
X128499996Y-142025565D01*
X128500000Y-142025565D01*
X128500004Y-142025565D01*
X128679249Y-142005369D01*
X128679252Y-142005368D01*
X128679255Y-142005368D01*
X128808909Y-141960000D01*
X151644341Y-141960000D01*
X151664936Y-142195403D01*
X151664938Y-142195413D01*
X151726094Y-142423655D01*
X151726096Y-142423659D01*
X151726097Y-142423663D01*
X151812333Y-142608597D01*
X151825965Y-142637830D01*
X151825967Y-142637834D01*
X151934281Y-142792521D01*
X151961505Y-142831401D01*
X152128599Y-142998495D01*
X152225384Y-143066265D01*
X152322165Y-143134032D01*
X152322167Y-143134033D01*
X152322170Y-143134035D01*
X152536337Y-143233903D01*
X152764592Y-143295063D01*
X152952918Y-143311539D01*
X152999999Y-143315659D01*
X153000000Y-143315659D01*
X153000001Y-143315659D01*
X153039234Y-143312226D01*
X153235408Y-143295063D01*
X153463663Y-143233903D01*
X153677830Y-143134035D01*
X153871401Y-142998495D01*
X154038495Y-142831401D01*
X154174035Y-142637830D01*
X154273903Y-142423663D01*
X154335063Y-142195408D01*
X154355659Y-141960000D01*
X154335063Y-141724592D01*
X154273903Y-141496337D01*
X154174035Y-141282171D01*
X154150987Y-141249254D01*
X154038494Y-141088597D01*
X153871402Y-140921506D01*
X153871396Y-140921501D01*
X153685842Y-140791575D01*
X153642217Y-140736998D01*
X153635023Y-140667500D01*
X153666546Y-140605145D01*
X153685842Y-140588425D01*
X153718171Y-140565788D01*
X153871401Y-140458495D01*
X154038495Y-140291401D01*
X154174035Y-140097830D01*
X154273903Y-139883663D01*
X154335063Y-139655408D01*
X154355659Y-139420000D01*
X154335063Y-139184592D01*
X154273903Y-138956337D01*
X154174035Y-138742171D01*
X154170931Y-138737737D01*
X154038494Y-138548597D01*
X153871402Y-138381506D01*
X153871396Y-138381501D01*
X153685842Y-138251575D01*
X153642217Y-138196998D01*
X153635023Y-138127500D01*
X153666546Y-138065145D01*
X153685842Y-138048425D01*
X153708026Y-138032891D01*
X153871401Y-137918495D01*
X154038495Y-137751401D01*
X154174035Y-137557830D01*
X154273903Y-137343663D01*
X154335063Y-137115408D01*
X154355659Y-136880000D01*
X154353846Y-136859283D01*
X154348772Y-136801284D01*
X154335063Y-136644592D01*
X154273903Y-136416337D01*
X154174035Y-136202171D01*
X154165179Y-136189522D01*
X154038494Y-136008597D01*
X153871402Y-135841506D01*
X153871396Y-135841501D01*
X153685842Y-135711575D01*
X153642217Y-135656998D01*
X153635023Y-135587500D01*
X153666546Y-135525145D01*
X153685842Y-135508425D01*
X153713228Y-135489249D01*
X153871401Y-135378495D01*
X154038495Y-135211401D01*
X154174035Y-135017830D01*
X154273903Y-134803663D01*
X154335063Y-134575408D01*
X154355659Y-134340000D01*
X154335063Y-134104592D01*
X154273903Y-133876337D01*
X154174035Y-133662171D01*
X154152130Y-133630886D01*
X154038494Y-133468597D01*
X153871402Y-133301506D01*
X153871396Y-133301501D01*
X153685842Y-133171575D01*
X153642217Y-133116998D01*
X153635023Y-133047500D01*
X153666546Y-132985145D01*
X153685842Y-132968425D01*
X153855651Y-132849523D01*
X153871401Y-132838495D01*
X154038495Y-132671401D01*
X154174035Y-132477830D01*
X154273903Y-132263663D01*
X154335063Y-132035408D01*
X154355659Y-131800000D01*
X154335063Y-131564592D01*
X154273903Y-131336337D01*
X154174035Y-131122171D01*
X154106125Y-131025184D01*
X154038494Y-130928597D01*
X153871402Y-130761506D01*
X153871395Y-130761501D01*
X153677834Y-130625967D01*
X153677830Y-130625965D01*
X153621751Y-130599815D01*
X153463663Y-130526097D01*
X153463659Y-130526096D01*
X153463655Y-130526094D01*
X153235413Y-130464938D01*
X153235403Y-130464936D01*
X153000001Y-130444341D01*
X152999999Y-130444341D01*
X152764596Y-130464936D01*
X152764586Y-130464938D01*
X152536344Y-130526094D01*
X152536335Y-130526098D01*
X152322171Y-130625964D01*
X152322169Y-130625965D01*
X152128597Y-130761505D01*
X151961505Y-130928597D01*
X151825965Y-131122169D01*
X151825964Y-131122171D01*
X151726098Y-131336335D01*
X151726094Y-131336344D01*
X151664938Y-131564586D01*
X151664936Y-131564596D01*
X151644341Y-131799999D01*
X151644341Y-131800000D01*
X151664936Y-132035403D01*
X151664938Y-132035413D01*
X151726094Y-132263655D01*
X151726096Y-132263659D01*
X151726097Y-132263663D01*
X151780714Y-132380789D01*
X151825965Y-132477830D01*
X151825967Y-132477834D01*
X151961501Y-132671395D01*
X151961506Y-132671402D01*
X152128597Y-132838493D01*
X152128603Y-132838498D01*
X152314158Y-132968425D01*
X152357783Y-133023002D01*
X152364977Y-133092500D01*
X152333454Y-133154855D01*
X152314158Y-133171575D01*
X152128597Y-133301505D01*
X151961505Y-133468597D01*
X151825965Y-133662169D01*
X151825964Y-133662171D01*
X151726098Y-133876335D01*
X151726094Y-133876344D01*
X151664938Y-134104586D01*
X151664936Y-134104596D01*
X151644341Y-134339999D01*
X151644341Y-134340000D01*
X151664936Y-134575403D01*
X151664938Y-134575413D01*
X151726094Y-134803655D01*
X151726096Y-134803659D01*
X151726097Y-134803663D01*
X151782414Y-134924435D01*
X151825965Y-135017830D01*
X151825967Y-135017834D01*
X151934281Y-135172521D01*
X151943276Y-135185368D01*
X151961501Y-135211395D01*
X151961506Y-135211402D01*
X152128597Y-135378493D01*
X152128603Y-135378498D01*
X152314158Y-135508425D01*
X152357783Y-135563002D01*
X152364977Y-135632500D01*
X152333454Y-135694855D01*
X152314158Y-135711575D01*
X152128597Y-135841505D01*
X151961505Y-136008597D01*
X151825965Y-136202169D01*
X151825964Y-136202171D01*
X151726098Y-136416335D01*
X151726094Y-136416344D01*
X151664938Y-136644586D01*
X151664936Y-136644596D01*
X151644341Y-136879999D01*
X151644341Y-136880000D01*
X151664936Y-137115403D01*
X151664938Y-137115413D01*
X151726094Y-137343655D01*
X151726096Y-137343659D01*
X151726097Y-137343663D01*
X151788733Y-137477986D01*
X151825965Y-137557830D01*
X151825967Y-137557834D01*
X151918382Y-137689815D01*
X151956627Y-137744435D01*
X151961501Y-137751395D01*
X151961506Y-137751402D01*
X152128597Y-137918493D01*
X152128603Y-137918498D01*
X152314158Y-138048425D01*
X152357783Y-138103002D01*
X152364977Y-138172500D01*
X152333454Y-138234855D01*
X152314158Y-138251575D01*
X152128597Y-138381505D01*
X151961505Y-138548597D01*
X151825965Y-138742169D01*
X151825964Y-138742171D01*
X151726098Y-138956335D01*
X151726094Y-138956344D01*
X151664938Y-139184586D01*
X151664936Y-139184596D01*
X151644341Y-139419999D01*
X151644341Y-139420000D01*
X151664936Y-139655403D01*
X151664938Y-139655413D01*
X151726094Y-139883655D01*
X151726096Y-139883659D01*
X151726097Y-139883663D01*
X151785242Y-140010500D01*
X151825965Y-140097830D01*
X151825967Y-140097834D01*
X151961501Y-140291395D01*
X151961506Y-140291402D01*
X152128597Y-140458493D01*
X152128603Y-140458498D01*
X152314158Y-140588425D01*
X152357783Y-140643002D01*
X152364977Y-140712500D01*
X152333454Y-140774855D01*
X152314158Y-140791575D01*
X152128597Y-140921505D01*
X151961505Y-141088597D01*
X151825965Y-141282169D01*
X151825964Y-141282171D01*
X151726098Y-141496335D01*
X151726094Y-141496344D01*
X151664938Y-141724586D01*
X151664936Y-141724596D01*
X151644341Y-141959999D01*
X151644341Y-141960000D01*
X128808909Y-141960000D01*
X128849522Y-141945789D01*
X129002262Y-141849816D01*
X129129816Y-141722262D01*
X129225789Y-141569522D01*
X129285368Y-141399255D01*
X129285369Y-141399249D01*
X129305565Y-141220003D01*
X129305565Y-141219996D01*
X129287356Y-141058383D01*
X129299411Y-140989561D01*
X129346760Y-140938182D01*
X129410576Y-140920500D01*
X130817588Y-140920500D01*
X130884627Y-140940185D01*
X130894903Y-140947555D01*
X130897736Y-140949814D01*
X130897738Y-140949816D01*
X130984584Y-141004385D01*
X131042450Y-141040745D01*
X131050478Y-141045789D01*
X131119672Y-141070001D01*
X131220745Y-141105368D01*
X131220750Y-141105369D01*
X131399996Y-141125565D01*
X131400000Y-141125565D01*
X131400004Y-141125565D01*
X131579249Y-141105369D01*
X131579252Y-141105368D01*
X131579255Y-141105368D01*
X131749522Y-141045789D01*
X131902262Y-140949816D01*
X132029816Y-140822262D01*
X132114540Y-140687423D01*
X132166873Y-140641133D01*
X132233417Y-140630176D01*
X132369997Y-140645565D01*
X132370000Y-140645565D01*
X132370004Y-140645565D01*
X132549249Y-140625369D01*
X132549252Y-140625368D01*
X132549255Y-140625368D01*
X132719522Y-140565789D01*
X132872262Y-140469816D01*
X132999816Y-140342262D01*
X133095789Y-140189522D01*
X133155368Y-140019255D01*
X133155369Y-140019249D01*
X133175565Y-139840003D01*
X133175565Y-139839996D01*
X133155369Y-139660750D01*
X133155367Y-139660742D01*
X133109554Y-139529816D01*
X133095789Y-139490478D01*
X132999816Y-139337738D01*
X132902081Y-139240003D01*
X136684435Y-139240003D01*
X136704630Y-139419249D01*
X136704631Y-139419254D01*
X136764211Y-139589523D01*
X136833329Y-139699523D01*
X136860184Y-139742262D01*
X136987738Y-139869816D01*
X137140478Y-139965789D01*
X137310745Y-140025368D01*
X137310750Y-140025369D01*
X137489996Y-140045565D01*
X137490000Y-140045565D01*
X137490004Y-140045565D01*
X137669249Y-140025369D01*
X137669252Y-140025368D01*
X137669255Y-140025368D01*
X137839522Y-139965789D01*
X137992262Y-139869816D01*
X138119816Y-139742262D01*
X138215789Y-139589522D01*
X138275368Y-139419255D01*
X138284820Y-139335368D01*
X138295565Y-139240003D01*
X138295565Y-139239996D01*
X138275369Y-139060750D01*
X138275368Y-139060745D01*
X138243877Y-138970750D01*
X138219122Y-138900003D01*
X147754435Y-138900003D01*
X147774630Y-139079249D01*
X147774631Y-139079254D01*
X147834211Y-139249523D01*
X147897347Y-139350003D01*
X147930184Y-139402262D01*
X148057738Y-139529816D01*
X148144514Y-139584341D01*
X148177290Y-139604936D01*
X148210478Y-139625789D01*
X148295139Y-139655413D01*
X148380745Y-139685368D01*
X148380750Y-139685369D01*
X148559996Y-139705565D01*
X148560000Y-139705565D01*
X148560004Y-139705565D01*
X148739249Y-139685369D01*
X148739252Y-139685368D01*
X148739255Y-139685368D01*
X148909522Y-139625789D01*
X149062262Y-139529816D01*
X149189816Y-139402262D01*
X149285789Y-139249522D01*
X149345368Y-139079255D01*
X149346395Y-139070142D01*
X149365565Y-138900003D01*
X149365565Y-138899996D01*
X149345369Y-138720750D01*
X149345368Y-138720745D01*
X149297998Y-138585369D01*
X149285789Y-138550478D01*
X149284608Y-138548599D01*
X149203477Y-138419480D01*
X149189816Y-138397738D01*
X149062262Y-138270184D01*
X149023718Y-138245965D01*
X148909523Y-138174211D01*
X148739254Y-138114631D01*
X148739249Y-138114630D01*
X148560004Y-138094435D01*
X148559996Y-138094435D01*
X148380750Y-138114630D01*
X148380745Y-138114631D01*
X148210476Y-138174211D01*
X148057737Y-138270184D01*
X147930184Y-138397737D01*
X147834211Y-138550476D01*
X147774631Y-138720745D01*
X147774630Y-138720750D01*
X147754435Y-138899996D01*
X147754435Y-138900003D01*
X138219122Y-138900003D01*
X138215789Y-138890478D01*
X138194095Y-138855953D01*
X138149868Y-138785565D01*
X138119816Y-138737738D01*
X137992262Y-138610184D01*
X137952768Y-138585368D01*
X137839523Y-138514211D01*
X137669254Y-138454631D01*
X137669249Y-138454630D01*
X137490004Y-138434435D01*
X137489996Y-138434435D01*
X137310750Y-138454630D01*
X137310745Y-138454631D01*
X137140476Y-138514211D01*
X136987737Y-138610184D01*
X136860184Y-138737737D01*
X136764211Y-138890476D01*
X136704631Y-139060745D01*
X136704630Y-139060750D01*
X136684435Y-139239996D01*
X136684435Y-139240003D01*
X132902081Y-139240003D01*
X132872262Y-139210184D01*
X132821384Y-139178215D01*
X132719523Y-139114211D01*
X132549254Y-139054631D01*
X132549249Y-139054630D01*
X132370004Y-139034435D01*
X132369996Y-139034435D01*
X132190750Y-139054630D01*
X132190737Y-139054633D01*
X132025250Y-139112541D01*
X131984295Y-139119500D01*
X125716669Y-139119500D01*
X125716653Y-139119499D01*
X125709057Y-139119499D01*
X125550943Y-139119499D01*
X125543203Y-139120518D01*
X125474168Y-139109753D01*
X125421912Y-139063373D01*
X125403026Y-138996105D01*
X125423506Y-138929304D01*
X125439333Y-138909900D01*
X126170520Y-138178716D01*
X126249577Y-138041784D01*
X126290501Y-137889057D01*
X126290501Y-137730942D01*
X126290501Y-137723347D01*
X126290500Y-137723329D01*
X126290500Y-137470097D01*
X126310185Y-137403058D01*
X126326819Y-137382416D01*
X126759848Y-136949387D01*
X126819402Y-136889833D01*
X126880724Y-136856349D01*
X126950416Y-136861333D01*
X127006349Y-136903205D01*
X127030766Y-136968669D01*
X127030021Y-136993700D01*
X127024500Y-137035637D01*
X127024500Y-137314363D01*
X127039953Y-137431753D01*
X127039957Y-137431765D01*
X127048566Y-137452550D01*
X127056033Y-137522019D01*
X127048566Y-137547450D01*
X127039957Y-137568234D01*
X127039955Y-137568239D01*
X127024500Y-137685638D01*
X127024500Y-137964363D01*
X127039953Y-138081753D01*
X127039956Y-138081762D01*
X127072055Y-138159257D01*
X127100464Y-138227841D01*
X127196718Y-138353282D01*
X127322159Y-138449536D01*
X127468238Y-138510044D01*
X127585639Y-138525500D01*
X128939360Y-138525499D01*
X128939363Y-138525499D01*
X129056753Y-138510046D01*
X129056757Y-138510044D01*
X129056762Y-138510044D01*
X129202841Y-138449536D01*
X129328282Y-138353282D01*
X129424536Y-138227841D01*
X129485044Y-138081762D01*
X129500500Y-137964361D01*
X129500499Y-137800003D01*
X146194435Y-137800003D01*
X146214630Y-137979249D01*
X146214631Y-137979254D01*
X146274211Y-138149523D01*
X146323421Y-138227839D01*
X146370184Y-138302262D01*
X146497738Y-138429816D01*
X146581205Y-138482262D01*
X146650121Y-138525565D01*
X146650478Y-138525789D01*
X146761479Y-138564630D01*
X146820745Y-138585368D01*
X146820750Y-138585369D01*
X146999996Y-138605565D01*
X147000000Y-138605565D01*
X147000004Y-138605565D01*
X147179249Y-138585369D01*
X147179252Y-138585368D01*
X147179255Y-138585368D01*
X147349522Y-138525789D01*
X147502262Y-138429816D01*
X147629816Y-138302262D01*
X147725789Y-138149522D01*
X147785368Y-137979255D01*
X147787046Y-137964361D01*
X147805565Y-137800003D01*
X147805565Y-137799996D01*
X147785369Y-137620750D01*
X147785368Y-137620745D01*
X147759721Y-137547450D01*
X147725789Y-137450478D01*
X147629816Y-137297738D01*
X147502262Y-137170184D01*
X147433185Y-137126780D01*
X147349523Y-137074211D01*
X147179254Y-137014631D01*
X147179249Y-137014630D01*
X147000004Y-136994435D01*
X146999996Y-136994435D01*
X146820750Y-137014630D01*
X146820745Y-137014631D01*
X146650476Y-137074211D01*
X146497737Y-137170184D01*
X146370184Y-137297737D01*
X146274211Y-137450476D01*
X146214631Y-137620745D01*
X146214630Y-137620750D01*
X146194435Y-137799996D01*
X146194435Y-137800003D01*
X129500499Y-137800003D01*
X129500499Y-137685640D01*
X129485044Y-137568238D01*
X129485042Y-137568234D01*
X129476435Y-137547455D01*
X129468965Y-137477986D01*
X129476435Y-137452545D01*
X129477292Y-137450476D01*
X129485044Y-137431762D01*
X129500500Y-137314361D01*
X129500499Y-137035640D01*
X129500499Y-137035637D01*
X129500499Y-137035636D01*
X129488706Y-136946050D01*
X129499472Y-136877015D01*
X129545853Y-136824760D01*
X129613122Y-136805876D01*
X129677617Y-136824873D01*
X129705483Y-136842383D01*
X129790475Y-136895788D01*
X129960745Y-136955368D01*
X129960750Y-136955369D01*
X130139996Y-136975565D01*
X130140000Y-136975565D01*
X130140004Y-136975565D01*
X130319249Y-136955369D01*
X130319252Y-136955368D01*
X130319255Y-136955368D01*
X130489522Y-136895789D01*
X130642262Y-136799816D01*
X130769816Y-136672262D01*
X130865789Y-136519522D01*
X130925368Y-136349255D01*
X130928664Y-136320003D01*
X130945565Y-136170003D01*
X130945565Y-136169996D01*
X130925369Y-135990750D01*
X130925368Y-135990745D01*
X130873147Y-135841506D01*
X130865789Y-135820478D01*
X130864067Y-135817738D01*
X130821204Y-135749522D01*
X130769816Y-135667738D01*
X130642262Y-135540184D01*
X130642260Y-135540182D01*
X130565582Y-135492002D01*
X130519292Y-135439668D01*
X130513176Y-135400003D01*
X139194435Y-135400003D01*
X139214630Y-135579249D01*
X139214631Y-135579254D01*
X139274211Y-135749523D01*
X139331062Y-135840000D01*
X139370184Y-135902262D01*
X139497738Y-136029816D01*
X139507244Y-136035789D01*
X139634206Y-136115565D01*
X139650478Y-136125789D01*
X139820745Y-136185368D01*
X139820750Y-136185369D01*
X139999996Y-136205565D01*
X140000000Y-136205565D01*
X140000004Y-136205565D01*
X140179249Y-136185369D01*
X140179252Y-136185368D01*
X140179255Y-136185368D01*
X140349522Y-136125789D01*
X140502262Y-136029816D01*
X140629816Y-135902262D01*
X140725789Y-135749522D01*
X140785368Y-135579255D01*
X140785369Y-135579249D01*
X140805565Y-135400003D01*
X143994435Y-135400003D01*
X144014630Y-135579249D01*
X144014631Y-135579254D01*
X144074211Y-135749523D01*
X144131062Y-135840000D01*
X144170184Y-135902262D01*
X144297738Y-136029816D01*
X144307244Y-136035789D01*
X144434206Y-136115565D01*
X144450478Y-136125789D01*
X144620745Y-136185368D01*
X144620750Y-136185369D01*
X144799996Y-136205565D01*
X144800000Y-136205565D01*
X144800004Y-136205565D01*
X144979249Y-136185369D01*
X144979252Y-136185368D01*
X144979255Y-136185368D01*
X145149522Y-136125789D01*
X145302262Y-136029816D01*
X145429816Y-135902262D01*
X145525789Y-135749522D01*
X145585368Y-135579255D01*
X145585369Y-135579249D01*
X145605565Y-135400003D01*
X145605565Y-135399996D01*
X145585369Y-135220750D01*
X145585368Y-135220745D01*
X145553877Y-135130750D01*
X145525789Y-135050478D01*
X145505277Y-135017834D01*
X145453269Y-134935063D01*
X145429816Y-134897738D01*
X145302262Y-134770184D01*
X145185342Y-134696718D01*
X145149523Y-134674211D01*
X144979254Y-134614631D01*
X144979249Y-134614630D01*
X144800004Y-134594435D01*
X144799996Y-134594435D01*
X144620750Y-134614630D01*
X144620745Y-134614631D01*
X144450476Y-134674211D01*
X144297737Y-134770184D01*
X144170184Y-134897737D01*
X144074211Y-135050476D01*
X144014631Y-135220745D01*
X144014630Y-135220750D01*
X143994435Y-135399996D01*
X143994435Y-135400003D01*
X140805565Y-135400003D01*
X140805565Y-135399996D01*
X140785369Y-135220750D01*
X140785368Y-135220745D01*
X140753877Y-135130750D01*
X140725789Y-135050478D01*
X140705277Y-135017834D01*
X140653269Y-134935063D01*
X140629816Y-134897738D01*
X140502262Y-134770184D01*
X140385342Y-134696718D01*
X140349523Y-134674211D01*
X140179254Y-134614631D01*
X140179249Y-134614630D01*
X140000004Y-134594435D01*
X139999996Y-134594435D01*
X139820750Y-134614630D01*
X139820745Y-134614631D01*
X139650476Y-134674211D01*
X139497737Y-134770184D01*
X139370184Y-134897737D01*
X139274211Y-135050476D01*
X139214631Y-135220745D01*
X139214630Y-135220750D01*
X139194435Y-135399996D01*
X139194435Y-135400003D01*
X130513176Y-135400003D01*
X130508644Y-135370614D01*
X130526562Y-135321036D01*
X130555788Y-135274524D01*
X130557538Y-135269523D01*
X130615368Y-135104255D01*
X130615827Y-135100184D01*
X130635565Y-134925003D01*
X130635565Y-134924996D01*
X130615369Y-134745750D01*
X130615366Y-134745737D01*
X130557110Y-134579254D01*
X130555789Y-134575478D01*
X130499744Y-134486282D01*
X130479506Y-134454073D01*
X130460500Y-134388101D01*
X130460500Y-134065928D01*
X130435502Y-133940261D01*
X130435501Y-133940260D01*
X130435501Y-133940256D01*
X130402259Y-133860003D01*
X130884435Y-133860003D01*
X130904630Y-134039249D01*
X130904631Y-134039254D01*
X130964211Y-134209523D01*
X131038556Y-134327841D01*
X131060184Y-134362262D01*
X131187738Y-134489816D01*
X131278080Y-134546582D01*
X131337966Y-134584211D01*
X131340478Y-134585789D01*
X131491097Y-134638493D01*
X131510745Y-134645368D01*
X131510750Y-134645369D01*
X131689996Y-134665565D01*
X131690000Y-134665565D01*
X131690004Y-134665565D01*
X131869249Y-134645369D01*
X131869252Y-134645368D01*
X131869255Y-134645368D01*
X132039522Y-134585789D01*
X132192262Y-134489816D01*
X132282075Y-134400003D01*
X147744435Y-134400003D01*
X147764630Y-134579249D01*
X147764631Y-134579254D01*
X147824211Y-134749523D01*
X147902365Y-134873903D01*
X147920184Y-134902262D01*
X148047738Y-135029816D01*
X148200478Y-135125789D01*
X148305169Y-135162422D01*
X148370745Y-135185368D01*
X148370750Y-135185369D01*
X148549996Y-135205565D01*
X148550000Y-135205565D01*
X148550004Y-135205565D01*
X148729249Y-135185369D01*
X148729252Y-135185368D01*
X148729255Y-135185368D01*
X148899522Y-135125789D01*
X149052262Y-135029816D01*
X149179816Y-134902262D01*
X149275789Y-134749522D01*
X149335368Y-134579255D01*
X149335369Y-134579249D01*
X149355565Y-134400003D01*
X149355565Y-134399996D01*
X149335369Y-134220750D01*
X149335368Y-134220745D01*
X149321727Y-134181762D01*
X149275789Y-134050478D01*
X149268736Y-134039254D01*
X149179815Y-133897737D01*
X149052262Y-133770184D01*
X148899523Y-133674211D01*
X148729254Y-133614631D01*
X148729249Y-133614630D01*
X148550004Y-133594435D01*
X148549996Y-133594435D01*
X148370750Y-133614630D01*
X148370745Y-133614631D01*
X148200476Y-133674211D01*
X148047737Y-133770184D01*
X147920184Y-133897737D01*
X147824211Y-134050476D01*
X147764631Y-134220745D01*
X147764630Y-134220750D01*
X147744435Y-134399996D01*
X147744435Y-134400003D01*
X132282075Y-134400003D01*
X132319816Y-134362262D01*
X132415789Y-134209522D01*
X132475368Y-134039255D01*
X132478053Y-134015426D01*
X132495565Y-133860003D01*
X132495565Y-133859996D01*
X132475369Y-133680750D01*
X132475368Y-133680745D01*
X132468868Y-133662169D01*
X132415789Y-133510478D01*
X132409207Y-133500003D01*
X145994435Y-133500003D01*
X146014630Y-133679249D01*
X146014631Y-133679254D01*
X146074211Y-133849523D01*
X146104507Y-133897738D01*
X146170184Y-134002262D01*
X146297738Y-134129816D01*
X146305403Y-134134632D01*
X146442450Y-134220745D01*
X146450478Y-134225789D01*
X146599203Y-134277830D01*
X146620745Y-134285368D01*
X146620750Y-134285369D01*
X146799996Y-134305565D01*
X146800000Y-134305565D01*
X146800004Y-134305565D01*
X146979249Y-134285369D01*
X146979252Y-134285368D01*
X146979255Y-134285368D01*
X147149522Y-134225789D01*
X147302262Y-134129816D01*
X147429816Y-134002262D01*
X147525789Y-133849522D01*
X147585368Y-133679255D01*
X147585369Y-133679249D01*
X147605565Y-133500003D01*
X147605565Y-133499996D01*
X147585369Y-133320750D01*
X147585368Y-133320745D01*
X147553679Y-133230184D01*
X147525789Y-133150478D01*
X147516902Y-133136335D01*
X147465441Y-133054435D01*
X147429816Y-132997738D01*
X147302262Y-132870184D01*
X147251834Y-132838498D01*
X147149523Y-132774211D01*
X146979254Y-132714631D01*
X146979249Y-132714630D01*
X146800004Y-132694435D01*
X146799996Y-132694435D01*
X146620750Y-132714630D01*
X146620745Y-132714631D01*
X146450476Y-132774211D01*
X146297737Y-132870184D01*
X146170184Y-132997737D01*
X146074211Y-133150476D01*
X146014631Y-133320745D01*
X146014630Y-133320750D01*
X145994435Y-133499996D01*
X145994435Y-133500003D01*
X132409207Y-133500003D01*
X132319816Y-133357738D01*
X132192262Y-133230184D01*
X132125415Y-133188181D01*
X132039523Y-133134211D01*
X131869254Y-133074631D01*
X131869249Y-133074630D01*
X131690004Y-133054435D01*
X131689996Y-133054435D01*
X131510750Y-133074630D01*
X131510745Y-133074631D01*
X131340476Y-133134211D01*
X131187737Y-133230184D01*
X131060184Y-133357737D01*
X130964211Y-133510476D01*
X130904631Y-133680745D01*
X130904630Y-133680750D01*
X130884435Y-133859996D01*
X130884435Y-133860003D01*
X130402259Y-133860003D01*
X130386465Y-133821873D01*
X130362255Y-133785640D01*
X130354768Y-133774435D01*
X130315278Y-133715332D01*
X130315272Y-133715325D01*
X130019673Y-133419726D01*
X129985239Y-133396718D01*
X129913127Y-133348535D01*
X129858213Y-133325789D01*
X129794744Y-133299499D01*
X129794738Y-133299497D01*
X129669071Y-133274500D01*
X129669069Y-133274500D01*
X129164823Y-133274500D01*
X129117370Y-133265061D01*
X129056762Y-133239956D01*
X129056760Y-133239955D01*
X128939370Y-133224501D01*
X128939367Y-133224500D01*
X128939361Y-133224500D01*
X128939354Y-133224500D01*
X127585636Y-133224500D01*
X127468246Y-133239953D01*
X127468237Y-133239956D01*
X127322160Y-133300463D01*
X127196718Y-133396718D01*
X127100463Y-133522160D01*
X127039956Y-133668237D01*
X127039955Y-133668239D01*
X127024501Y-133785629D01*
X127024500Y-133785640D01*
X127024500Y-133885096D01*
X127004815Y-133952135D01*
X126952011Y-133997890D01*
X126932596Y-134004870D01*
X126893220Y-134015421D01*
X126893209Y-134015426D01*
X126756290Y-134094475D01*
X126756282Y-134094481D01*
X125581465Y-135269298D01*
X125520142Y-135302783D01*
X125507668Y-135304837D01*
X125420750Y-135314630D01*
X125250475Y-135374211D01*
X125220236Y-135393212D01*
X125152999Y-135412212D01*
X125086164Y-135391844D01*
X125049271Y-135354190D01*
X124969816Y-135227738D01*
X124842262Y-135100184D01*
X124840774Y-135099249D01*
X124689523Y-135004211D01*
X124519254Y-134944631D01*
X124519249Y-134944630D01*
X124340004Y-134924435D01*
X124339996Y-134924435D01*
X124160750Y-134944630D01*
X124160745Y-134944631D01*
X123990476Y-135004211D01*
X123943761Y-135033565D01*
X123876524Y-135052565D01*
X123809689Y-135032197D01*
X123764475Y-134978929D01*
X123763325Y-134975675D01*
X123763154Y-134975747D01*
X123760044Y-134968238D01*
X123699536Y-134822159D01*
X123603282Y-134696718D01*
X123572860Y-134673374D01*
X123531658Y-134616949D01*
X123527503Y-134547203D01*
X123561714Y-134486282D01*
X123572851Y-134476631D01*
X123603282Y-134453282D01*
X123699536Y-134327841D01*
X123760044Y-134181762D01*
X123775500Y-134064361D01*
X123775499Y-133785640D01*
X123775499Y-133785639D01*
X123775499Y-133785636D01*
X123760046Y-133668246D01*
X123760044Y-133668239D01*
X123760044Y-133668238D01*
X123699536Y-133522159D01*
X123603282Y-133396718D01*
X123477841Y-133300464D01*
X123475511Y-133299499D01*
X123331762Y-133239956D01*
X123331760Y-133239955D01*
X123214370Y-133224501D01*
X123214367Y-133224500D01*
X123214361Y-133224500D01*
X123214354Y-133224500D01*
X122755808Y-133224500D01*
X122688769Y-133204815D01*
X122668127Y-133188181D01*
X121981722Y-132501776D01*
X121948237Y-132440453D01*
X121946182Y-132427973D01*
X121945956Y-132425965D01*
X121945368Y-132420745D01*
X121885789Y-132250478D01*
X121789816Y-132097738D01*
X121662262Y-131970184D01*
X121600541Y-131931402D01*
X121509523Y-131874211D01*
X121339254Y-131814631D01*
X121339249Y-131814630D01*
X121160004Y-131794435D01*
X121159996Y-131794435D01*
X120980750Y-131814630D01*
X120980745Y-131814631D01*
X120810476Y-131874211D01*
X120657737Y-131970184D01*
X120530184Y-132097737D01*
X120434211Y-132250476D01*
X120374631Y-132420745D01*
X120374630Y-132420750D01*
X120354435Y-132599996D01*
X120354435Y-132600003D01*
X120374630Y-132779249D01*
X120374631Y-132779254D01*
X120434211Y-132949523D01*
X120500132Y-133054435D01*
X120530184Y-133102262D01*
X120657738Y-133229816D01*
X120673876Y-133239956D01*
X120802450Y-133320745D01*
X120810478Y-133325789D01*
X120980745Y-133385368D01*
X120987974Y-133386182D01*
X121052388Y-133413246D01*
X121061776Y-133421722D01*
X121270940Y-133630886D01*
X121304425Y-133692209D01*
X121306198Y-133734752D01*
X121301878Y-133767566D01*
X121273612Y-133831463D01*
X121215287Y-133869934D01*
X121145423Y-133870765D01*
X121112970Y-133856377D01*
X121109523Y-133854211D01*
X120939254Y-133794631D01*
X120939249Y-133794630D01*
X120760004Y-133774435D01*
X120759996Y-133774435D01*
X120580750Y-133794630D01*
X120580745Y-133794631D01*
X120410476Y-133854211D01*
X120257737Y-133950184D01*
X120130184Y-134077737D01*
X120034211Y-134230476D01*
X119974631Y-134400745D01*
X119974630Y-134400750D01*
X119954435Y-134579996D01*
X119954435Y-134580003D01*
X119974630Y-134759249D01*
X119974631Y-134759254D01*
X120034211Y-134929523D01*
X120130184Y-135082262D01*
X120244820Y-135196898D01*
X120278305Y-135258221D01*
X120273321Y-135327913D01*
X120262133Y-135350551D01*
X120174211Y-135490476D01*
X120114631Y-135660745D01*
X120114630Y-135660750D01*
X120094435Y-135839996D01*
X120094435Y-135840003D01*
X120114630Y-136019249D01*
X120114631Y-136019254D01*
X120174211Y-136189523D01*
X120256193Y-136319996D01*
X120270184Y-136342262D01*
X120397738Y-136469816D01*
X120444590Y-136499255D01*
X120517505Y-136545071D01*
X120550478Y-136565789D01*
X120648908Y-136600231D01*
X120720745Y-136625368D01*
X120720750Y-136625369D01*
X120899996Y-136645565D01*
X120900000Y-136645565D01*
X120900004Y-136645565D01*
X121079249Y-136625369D01*
X121079252Y-136625368D01*
X121079255Y-136625368D01*
X121079256Y-136625367D01*
X121079259Y-136625367D01*
X121112917Y-136613589D01*
X121140910Y-136603793D01*
X121210688Y-136600231D01*
X121271315Y-136634959D01*
X121303543Y-136696952D01*
X121304804Y-136704651D01*
X121314954Y-136781753D01*
X121314957Y-136781765D01*
X121323566Y-136802550D01*
X121331033Y-136872019D01*
X121323566Y-136897450D01*
X121314957Y-136918234D01*
X121314955Y-136918239D01*
X121299500Y-137035638D01*
X121299500Y-137314363D01*
X121314953Y-137431753D01*
X121314957Y-137431765D01*
X121323566Y-137452550D01*
X121331033Y-137522019D01*
X121323566Y-137547450D01*
X121314957Y-137568234D01*
X121314955Y-137568239D01*
X121299500Y-137685638D01*
X121299500Y-137964363D01*
X121314953Y-138081753D01*
X121314957Y-138081765D01*
X121334128Y-138128048D01*
X121341597Y-138197517D01*
X121310322Y-138259996D01*
X121250233Y-138295648D01*
X121219567Y-138299500D01*
X119090943Y-138299500D01*
X118938213Y-138340423D01*
X118915943Y-138353282D01*
X118915942Y-138353282D01*
X118801287Y-138419477D01*
X118701465Y-138519299D01*
X118640142Y-138552783D01*
X118627668Y-138554837D01*
X118540750Y-138564630D01*
X118370478Y-138624210D01*
X118217737Y-138720184D01*
X118090184Y-138847737D01*
X117994211Y-139000476D01*
X117934631Y-139170745D01*
X117934630Y-139170750D01*
X117914435Y-139349996D01*
X117914435Y-139350003D01*
X117934630Y-139529249D01*
X117934631Y-139529254D01*
X117994211Y-139699523D01*
X118088466Y-139849528D01*
X118107466Y-139916765D01*
X118087098Y-139983600D01*
X118033830Y-140028814D01*
X117983472Y-140039500D01*
X116430097Y-140039500D01*
X116363058Y-140019815D01*
X116342416Y-140003181D01*
X115470700Y-139131465D01*
X115437215Y-139070142D01*
X115435163Y-139057686D01*
X115425368Y-138970745D01*
X115409617Y-138925731D01*
X115406056Y-138855953D01*
X115440785Y-138795325D01*
X115502778Y-138763098D01*
X115554254Y-138763886D01*
X115560738Y-138765365D01*
X115560745Y-138765368D01*
X115560752Y-138765368D01*
X115560753Y-138765369D01*
X115739996Y-138785565D01*
X115740000Y-138785565D01*
X115740004Y-138785565D01*
X115919249Y-138765369D01*
X115919252Y-138765368D01*
X115919255Y-138765368D01*
X116089522Y-138705789D01*
X116242262Y-138609816D01*
X116369816Y-138482262D01*
X116465789Y-138329522D01*
X116525368Y-138159255D01*
X116532672Y-138094435D01*
X116546345Y-137973080D01*
X116547630Y-137973224D01*
X116565250Y-137913219D01*
X116618054Y-137867464D01*
X116655682Y-137857038D01*
X116759249Y-137845369D01*
X116759252Y-137845368D01*
X116759255Y-137845368D01*
X116929522Y-137785789D01*
X117082262Y-137689816D01*
X117209816Y-137562262D01*
X117305789Y-137409522D01*
X117365368Y-137239255D01*
X117367010Y-137224684D01*
X117385565Y-137060003D01*
X117385565Y-137059996D01*
X117365369Y-136880750D01*
X117365368Y-136880745D01*
X117338006Y-136802550D01*
X117305789Y-136710478D01*
X117209816Y-136557738D01*
X117082262Y-136430184D01*
X117060225Y-136416337D01*
X116929523Y-136334211D01*
X116759254Y-136274631D01*
X116759249Y-136274630D01*
X116580004Y-136254435D01*
X116579996Y-136254435D01*
X116400750Y-136274630D01*
X116400745Y-136274631D01*
X116230476Y-136334211D01*
X116077737Y-136430184D01*
X115950184Y-136557737D01*
X115854211Y-136710476D01*
X115794631Y-136880745D01*
X115794630Y-136880750D01*
X115773655Y-137066919D01*
X115772369Y-137066774D01*
X115754750Y-137126780D01*
X115701946Y-137172535D01*
X115664319Y-137182961D01*
X115560749Y-137194630D01*
X115560745Y-137194631D01*
X115390476Y-137254211D01*
X115237737Y-137350184D01*
X115110184Y-137477737D01*
X115014211Y-137630476D01*
X114954631Y-137800745D01*
X114954630Y-137800750D01*
X114934435Y-137979996D01*
X114934435Y-137980003D01*
X114954630Y-138159249D01*
X114954632Y-138159257D01*
X114970382Y-138204268D01*
X114973943Y-138274047D01*
X114939214Y-138334674D01*
X114877220Y-138366901D01*
X114825752Y-138366114D01*
X114819254Y-138364631D01*
X114640004Y-138344435D01*
X114639996Y-138344435D01*
X114460750Y-138364630D01*
X114460745Y-138364631D01*
X114290476Y-138424211D01*
X114137737Y-138520184D01*
X114010184Y-138647737D01*
X113914211Y-138800476D01*
X113854631Y-138970745D01*
X113854630Y-138970750D01*
X113834435Y-139149996D01*
X113834435Y-139150003D01*
X102522075Y-139150003D01*
X102619816Y-139052262D01*
X102715789Y-138899522D01*
X102775368Y-138729255D01*
X102775369Y-138729249D01*
X102795565Y-138550003D01*
X102795565Y-138549996D01*
X102775369Y-138370750D01*
X102775368Y-138370745D01*
X102736615Y-138259996D01*
X102715789Y-138200478D01*
X102713928Y-138197517D01*
X102649158Y-138094435D01*
X102619816Y-138047738D01*
X102492262Y-137920184D01*
X102408359Y-137867464D01*
X102339523Y-137824211D01*
X102169254Y-137764631D01*
X102169249Y-137764630D01*
X101990004Y-137744435D01*
X101989996Y-137744435D01*
X101810750Y-137764630D01*
X101810745Y-137764631D01*
X101640476Y-137824211D01*
X101487737Y-137920184D01*
X101360184Y-138047737D01*
X101264211Y-138200476D01*
X101204631Y-138370745D01*
X101204630Y-138370750D01*
X101184435Y-138549996D01*
X101184435Y-138550003D01*
X94500500Y-138550003D01*
X94500500Y-137720003D01*
X104314435Y-137720003D01*
X104334630Y-137899249D01*
X104334631Y-137899254D01*
X104394211Y-138069523D01*
X104474636Y-138197517D01*
X104490184Y-138222262D01*
X104617738Y-138349816D01*
X104694004Y-138397737D01*
X104745055Y-138429815D01*
X104770478Y-138445789D01*
X104874712Y-138482262D01*
X104940745Y-138505368D01*
X104940750Y-138505369D01*
X105119996Y-138525565D01*
X105120000Y-138525565D01*
X105120004Y-138525565D01*
X105299249Y-138505369D01*
X105299252Y-138505368D01*
X105299255Y-138505368D01*
X105469522Y-138445789D01*
X105622262Y-138349816D01*
X105749816Y-138222262D01*
X105845789Y-138069522D01*
X105905368Y-137899255D01*
X105906517Y-137889057D01*
X105925565Y-137720003D01*
X105925565Y-137719996D01*
X105905369Y-137540750D01*
X105905368Y-137540745D01*
X105898815Y-137522019D01*
X105845789Y-137370478D01*
X105754179Y-137224682D01*
X105735180Y-137157448D01*
X105755548Y-137090612D01*
X105808815Y-137045398D01*
X105878072Y-137036160D01*
X105903687Y-137044111D01*
X105903905Y-137043489D01*
X106080745Y-137105368D01*
X106080750Y-137105369D01*
X106259996Y-137125565D01*
X106260000Y-137125565D01*
X106260004Y-137125565D01*
X106439249Y-137105369D01*
X106439252Y-137105368D01*
X106439255Y-137105368D01*
X106609522Y-137045789D01*
X106762262Y-136949816D01*
X106889816Y-136822262D01*
X106985789Y-136669522D01*
X107045368Y-136499255D01*
X107045369Y-136499249D01*
X107065565Y-136320003D01*
X107065565Y-136319996D01*
X107045369Y-136140750D01*
X107045368Y-136140745D01*
X107002856Y-136019254D01*
X106985789Y-135970478D01*
X106889816Y-135817738D01*
X106889815Y-135817737D01*
X106885475Y-135812295D01*
X106887768Y-135810465D01*
X106860568Y-135760652D01*
X106865552Y-135690960D01*
X106907424Y-135635027D01*
X106915751Y-135629307D01*
X107042262Y-135549816D01*
X107169816Y-135422262D01*
X107240353Y-135310003D01*
X113544435Y-135310003D01*
X113564630Y-135489249D01*
X113564631Y-135489254D01*
X113624211Y-135659523D01*
X113646412Y-135694855D01*
X113720184Y-135812262D01*
X113847738Y-135939816D01*
X113928791Y-135990745D01*
X113974162Y-136019254D01*
X114000478Y-136035789D01*
X114170745Y-136095368D01*
X114170750Y-136095369D01*
X114349996Y-136115565D01*
X114350000Y-136115565D01*
X114350004Y-136115565D01*
X114529249Y-136095369D01*
X114529252Y-136095368D01*
X114529255Y-136095368D01*
X114699522Y-136035789D01*
X114852262Y-135939816D01*
X114979816Y-135812262D01*
X115075789Y-135659522D01*
X115135368Y-135489255D01*
X115135369Y-135489249D01*
X115155565Y-135310003D01*
X115155565Y-135309996D01*
X115135369Y-135130750D01*
X115135368Y-135130745D01*
X115118403Y-135082262D01*
X115075789Y-134960478D01*
X115059818Y-134935061D01*
X115036366Y-134897737D01*
X114979816Y-134807738D01*
X114852262Y-134680184D01*
X114828996Y-134665565D01*
X114699523Y-134584211D01*
X114529254Y-134524631D01*
X114529249Y-134524630D01*
X114350004Y-134504435D01*
X114349996Y-134504435D01*
X114170750Y-134524630D01*
X114170745Y-134524631D01*
X114000476Y-134584211D01*
X113847737Y-134680184D01*
X113720184Y-134807737D01*
X113624211Y-134960476D01*
X113564631Y-135130745D01*
X113564630Y-135130750D01*
X113544435Y-135309996D01*
X113544435Y-135310003D01*
X107240353Y-135310003D01*
X107265789Y-135269522D01*
X107325368Y-135099255D01*
X107330864Y-135050476D01*
X107345565Y-134920003D01*
X107345565Y-134919996D01*
X107325369Y-134740750D01*
X107325368Y-134740745D01*
X107281238Y-134614630D01*
X107265789Y-134570478D01*
X107169816Y-134417738D01*
X107042262Y-134290184D01*
X106947241Y-134230478D01*
X106889523Y-134194211D01*
X106719254Y-134134631D01*
X106719249Y-134134630D01*
X106540004Y-134114435D01*
X106539996Y-134114435D01*
X106360750Y-134134630D01*
X106360745Y-134134631D01*
X106190476Y-134194211D01*
X106037737Y-134290184D01*
X105910184Y-134417737D01*
X105814211Y-134570476D01*
X105754631Y-134740745D01*
X105754630Y-134740750D01*
X105734435Y-134919996D01*
X105734435Y-134920003D01*
X105754630Y-135099249D01*
X105754631Y-135099254D01*
X105814211Y-135269523D01*
X105910184Y-135422262D01*
X105914525Y-135427705D01*
X105912231Y-135429534D01*
X105939431Y-135479347D01*
X105934447Y-135549039D01*
X105892575Y-135604972D01*
X105884237Y-135610699D01*
X105757737Y-135690184D01*
X105630184Y-135817737D01*
X105534211Y-135970476D01*
X105474631Y-136140745D01*
X105474630Y-136140750D01*
X105454435Y-136319996D01*
X105454435Y-136320003D01*
X105474630Y-136499249D01*
X105474631Y-136499254D01*
X105534211Y-136669523D01*
X105625819Y-136815315D01*
X105644819Y-136882551D01*
X105624451Y-136949387D01*
X105571184Y-136994601D01*
X105501927Y-137003839D01*
X105476312Y-136995889D01*
X105476095Y-136996511D01*
X105299254Y-136934631D01*
X105299249Y-136934630D01*
X105120004Y-136914435D01*
X105119996Y-136914435D01*
X104940750Y-136934630D01*
X104940745Y-136934631D01*
X104770476Y-136994211D01*
X104617737Y-137090184D01*
X104490184Y-137217737D01*
X104394211Y-137370476D01*
X104334631Y-137540745D01*
X104334630Y-137540750D01*
X104314435Y-137719996D01*
X104314435Y-137720003D01*
X94500500Y-137720003D01*
X94500500Y-133600000D01*
X95844341Y-133600000D01*
X95864936Y-133835403D01*
X95864938Y-133835413D01*
X95926094Y-134063655D01*
X95926096Y-134063659D01*
X95926097Y-134063663D01*
X96003884Y-134230478D01*
X96025965Y-134277830D01*
X96025967Y-134277834D01*
X96123929Y-134417737D01*
X96161505Y-134471401D01*
X96328599Y-134638495D01*
X96367259Y-134665565D01*
X96522165Y-134774032D01*
X96522167Y-134774033D01*
X96522170Y-134774035D01*
X96736337Y-134873903D01*
X96964592Y-134935063D01*
X97152918Y-134951539D01*
X97199999Y-134955659D01*
X97200000Y-134955659D01*
X97200001Y-134955659D01*
X97239234Y-134952226D01*
X97435408Y-134935063D01*
X97663663Y-134873903D01*
X97877830Y-134774035D01*
X98071401Y-134638495D01*
X98238495Y-134471401D01*
X98374035Y-134277830D01*
X98473903Y-134063663D01*
X98535063Y-133835408D01*
X98555659Y-133600000D01*
X98535063Y-133364592D01*
X98477692Y-133150478D01*
X98473905Y-133136344D01*
X98473904Y-133136343D01*
X98473903Y-133136337D01*
X98374035Y-132922171D01*
X98337634Y-132870184D01*
X98238494Y-132728597D01*
X98071402Y-132561506D01*
X98071396Y-132561501D01*
X97885842Y-132431575D01*
X97842217Y-132376998D01*
X97835023Y-132307500D01*
X97866546Y-132245145D01*
X97885842Y-132228425D01*
X97987473Y-132157262D01*
X98071401Y-132098495D01*
X98238495Y-131931401D01*
X98374035Y-131737830D01*
X98473903Y-131523663D01*
X98535063Y-131295408D01*
X98555659Y-131060000D01*
X98535063Y-130824592D01*
X98473903Y-130596337D01*
X98374035Y-130382171D01*
X98358214Y-130359575D01*
X98238494Y-130188597D01*
X98149899Y-130100003D01*
X101274435Y-130100003D01*
X101294630Y-130279249D01*
X101294631Y-130279254D01*
X101354211Y-130449523D01*
X101442776Y-130590472D01*
X101450184Y-130602262D01*
X101577738Y-130729816D01*
X101650547Y-130775565D01*
X101722450Y-130820745D01*
X101730478Y-130825789D01*
X101855771Y-130869631D01*
X101900745Y-130885368D01*
X101900750Y-130885369D01*
X102079996Y-130905565D01*
X102080000Y-130905565D01*
X102080004Y-130905565D01*
X102259249Y-130885369D01*
X102259252Y-130885368D01*
X102259255Y-130885368D01*
X102429522Y-130825789D01*
X102582262Y-130729816D01*
X102709816Y-130602262D01*
X102805789Y-130449522D01*
X102865368Y-130279255D01*
X102865369Y-130279249D01*
X102885565Y-130100003D01*
X102885565Y-130099996D01*
X102865369Y-129920750D01*
X102865368Y-129920745D01*
X102840875Y-129850747D01*
X102805789Y-129750478D01*
X102770323Y-129694035D01*
X102764300Y-129684448D01*
X102709816Y-129597738D01*
X102622081Y-129510003D01*
X115534435Y-129510003D01*
X115554630Y-129689249D01*
X115554631Y-129689254D01*
X115614211Y-129859523D01*
X115652680Y-129920745D01*
X115710184Y-130012262D01*
X115837738Y-130139816D01*
X115915376Y-130188599D01*
X115956803Y-130214630D01*
X115990478Y-130235789D01*
X116100282Y-130274211D01*
X116160745Y-130295368D01*
X116160750Y-130295369D01*
X116339996Y-130315565D01*
X116340000Y-130315565D01*
X116340004Y-130315565D01*
X116519249Y-130295369D01*
X116519252Y-130295368D01*
X116519255Y-130295368D01*
X116689522Y-130235789D01*
X116842262Y-130139816D01*
X116969816Y-130012262D01*
X117065789Y-129859522D01*
X117125368Y-129689255D01*
X117125910Y-129684448D01*
X117145565Y-129510003D01*
X117145565Y-129509996D01*
X117125369Y-129330750D01*
X117125368Y-129330745D01*
X117119729Y-129314630D01*
X117065789Y-129160478D01*
X117027790Y-129100003D01*
X118274435Y-129100003D01*
X118294630Y-129279249D01*
X118294631Y-129279254D01*
X118354211Y-129449523D01*
X118422682Y-129558493D01*
X118450184Y-129602262D01*
X118577738Y-129729816D01*
X118656488Y-129779298D01*
X118728636Y-129824632D01*
X118730478Y-129825789D01*
X118900745Y-129885368D01*
X118900750Y-129885369D01*
X119079996Y-129905565D01*
X119080000Y-129905565D01*
X119080004Y-129905565D01*
X119259249Y-129885369D01*
X119259252Y-129885368D01*
X119259255Y-129885368D01*
X119429522Y-129825789D01*
X119582262Y-129729816D01*
X119709816Y-129602262D01*
X119805789Y-129449522D01*
X119865368Y-129279255D01*
X119865369Y-129279249D01*
X119885565Y-129100003D01*
X119885565Y-129099996D01*
X119865369Y-128920750D01*
X119865368Y-128920745D01*
X119842492Y-128855369D01*
X119805789Y-128750478D01*
X119792621Y-128729522D01*
X119742955Y-128650478D01*
X119709816Y-128597738D01*
X119582262Y-128470184D01*
X119571330Y-128463315D01*
X119429523Y-128374211D01*
X119259254Y-128314631D01*
X119259249Y-128314630D01*
X119080004Y-128294435D01*
X119079996Y-128294435D01*
X118900750Y-128314630D01*
X118900745Y-128314631D01*
X118730476Y-128374211D01*
X118577737Y-128470184D01*
X118450184Y-128597737D01*
X118354211Y-128750476D01*
X118294631Y-128920745D01*
X118294630Y-128920750D01*
X118274435Y-129099996D01*
X118274435Y-129100003D01*
X117027790Y-129100003D01*
X116969816Y-129007738D01*
X116842262Y-128880184D01*
X116802768Y-128855368D01*
X116689523Y-128784211D01*
X116519254Y-128724631D01*
X116519249Y-128724630D01*
X116340004Y-128704435D01*
X116339996Y-128704435D01*
X116160750Y-128724630D01*
X116160745Y-128724631D01*
X115990476Y-128784211D01*
X115837737Y-128880184D01*
X115710184Y-129007737D01*
X115614211Y-129160476D01*
X115554631Y-129330745D01*
X115554630Y-129330750D01*
X115534435Y-129509996D01*
X115534435Y-129510003D01*
X102622081Y-129510003D01*
X102582262Y-129470184D01*
X102548952Y-129449254D01*
X102429523Y-129374211D01*
X102259254Y-129314631D01*
X102259249Y-129314630D01*
X102080004Y-129294435D01*
X102079996Y-129294435D01*
X101900750Y-129314630D01*
X101900745Y-129314631D01*
X101730476Y-129374211D01*
X101577737Y-129470184D01*
X101450184Y-129597737D01*
X101354211Y-129750476D01*
X101294631Y-129920745D01*
X101294630Y-129920750D01*
X101274435Y-130099996D01*
X101274435Y-130100003D01*
X98149899Y-130100003D01*
X98071402Y-130021506D01*
X98071396Y-130021501D01*
X97885842Y-129891575D01*
X97842217Y-129836998D01*
X97835023Y-129767500D01*
X97866546Y-129705145D01*
X97885842Y-129688425D01*
X97969544Y-129629816D01*
X98071401Y-129558495D01*
X98238495Y-129391401D01*
X98374035Y-129197830D01*
X98473903Y-128983663D01*
X98535063Y-128755408D01*
X98555659Y-128520000D01*
X98554442Y-128506095D01*
X98550700Y-128463315D01*
X98535063Y-128284592D01*
X98477565Y-128070003D01*
X109104435Y-128070003D01*
X109124630Y-128249249D01*
X109124631Y-128249254D01*
X109184211Y-128419523D01*
X109272011Y-128559255D01*
X109280184Y-128572262D01*
X109407738Y-128699816D01*
X109455015Y-128729522D01*
X109542051Y-128784211D01*
X109560478Y-128795789D01*
X109730745Y-128855368D01*
X109730750Y-128855369D01*
X109909996Y-128875565D01*
X109910000Y-128875565D01*
X109910004Y-128875565D01*
X110089249Y-128855369D01*
X110089252Y-128855368D01*
X110089255Y-128855368D01*
X110259522Y-128795789D01*
X110412262Y-128699816D01*
X110539816Y-128572262D01*
X110635789Y-128419522D01*
X110635999Y-128418919D01*
X110636242Y-128418581D01*
X110638810Y-128413249D01*
X110639743Y-128413698D01*
X110676715Y-128362142D01*
X110741665Y-128336388D01*
X110810228Y-128349838D01*
X110819013Y-128354869D01*
X110820476Y-128355788D01*
X110820478Y-128355789D01*
X110953290Y-128402262D01*
X110990745Y-128415368D01*
X110990750Y-128415369D01*
X111169996Y-128435565D01*
X111170000Y-128435565D01*
X111170004Y-128435565D01*
X111349249Y-128415369D01*
X111349252Y-128415368D01*
X111349255Y-128415368D01*
X111519522Y-128355789D01*
X111632825Y-128284596D01*
X111644997Y-128276948D01*
X111712234Y-128257948D01*
X111779069Y-128278316D01*
X111815963Y-128315970D01*
X111870184Y-128402262D01*
X111997738Y-128529816D01*
X112088080Y-128586582D01*
X112147479Y-128623905D01*
X112150478Y-128625789D01*
X112319868Y-128685061D01*
X112320745Y-128685368D01*
X112320750Y-128685369D01*
X112499996Y-128705565D01*
X112500000Y-128705565D01*
X112500004Y-128705565D01*
X112679249Y-128685369D01*
X112679252Y-128685368D01*
X112679255Y-128685368D01*
X112849522Y-128625789D01*
X113002262Y-128529816D01*
X113129816Y-128402262D01*
X113225789Y-128249522D01*
X113285368Y-128079255D01*
X113286357Y-128070478D01*
X113305565Y-127900003D01*
X113305565Y-127899996D01*
X113285369Y-127720750D01*
X113285368Y-127720745D01*
X113252141Y-127625788D01*
X113225789Y-127550478D01*
X113129816Y-127397738D01*
X113002262Y-127270184D01*
X112974997Y-127253052D01*
X112849523Y-127174211D01*
X112679254Y-127114631D01*
X112679249Y-127114630D01*
X112500004Y-127094435D01*
X112499996Y-127094435D01*
X112320750Y-127114630D01*
X112320745Y-127114631D01*
X112150476Y-127174211D01*
X112025003Y-127253052D01*
X111957766Y-127272052D01*
X111890931Y-127251684D01*
X111854037Y-127214030D01*
X111835757Y-127184938D01*
X111799816Y-127127738D01*
X111672262Y-127000184D01*
X111519523Y-126904211D01*
X111349254Y-126844631D01*
X111349249Y-126844630D01*
X111170004Y-126824435D01*
X111169996Y-126824435D01*
X110990750Y-126844630D01*
X110990745Y-126844631D01*
X110820476Y-126904211D01*
X110667737Y-127000184D01*
X110540184Y-127127737D01*
X110444212Y-127280475D01*
X110444208Y-127280483D01*
X110443992Y-127281102D01*
X110443744Y-127281446D01*
X110441193Y-127286746D01*
X110440263Y-127286298D01*
X110403264Y-127337874D01*
X110338309Y-127363614D01*
X110269749Y-127350151D01*
X110260980Y-127345127D01*
X110259521Y-127344210D01*
X110259518Y-127344209D01*
X110089262Y-127284633D01*
X110089249Y-127284630D01*
X109910004Y-127264435D01*
X109909996Y-127264435D01*
X109730750Y-127284630D01*
X109730745Y-127284631D01*
X109560476Y-127344211D01*
X109407737Y-127440184D01*
X109280184Y-127567737D01*
X109184211Y-127720476D01*
X109124631Y-127890745D01*
X109124630Y-127890750D01*
X109104435Y-128069996D01*
X109104435Y-128070003D01*
X98477565Y-128070003D01*
X98473903Y-128056337D01*
X98374035Y-127842171D01*
X98354075Y-127813664D01*
X98238494Y-127648597D01*
X98071402Y-127481506D01*
X98071395Y-127481501D01*
X97877834Y-127345967D01*
X97877830Y-127345965D01*
X97860479Y-127337874D01*
X97663663Y-127246097D01*
X97663659Y-127246096D01*
X97663655Y-127246094D01*
X97435413Y-127184938D01*
X97435403Y-127184936D01*
X97200001Y-127164341D01*
X97199999Y-127164341D01*
X96964596Y-127184936D01*
X96964586Y-127184938D01*
X96736344Y-127246094D01*
X96736335Y-127246098D01*
X96522171Y-127345964D01*
X96522169Y-127345965D01*
X96328597Y-127481505D01*
X96161505Y-127648597D01*
X96025965Y-127842169D01*
X96025964Y-127842171D01*
X95926098Y-128056335D01*
X95926094Y-128056344D01*
X95864938Y-128284586D01*
X95864936Y-128284596D01*
X95844341Y-128519999D01*
X95844341Y-128520000D01*
X95864936Y-128755403D01*
X95864938Y-128755413D01*
X95926094Y-128983655D01*
X95926096Y-128983659D01*
X95926097Y-128983663D01*
X96019810Y-129184630D01*
X96025965Y-129197830D01*
X96025967Y-129197834D01*
X96102923Y-129307737D01*
X96149468Y-129374211D01*
X96161501Y-129391395D01*
X96161506Y-129391402D01*
X96328597Y-129558493D01*
X96328603Y-129558498D01*
X96514158Y-129688425D01*
X96557783Y-129743002D01*
X96564977Y-129812500D01*
X96533454Y-129874855D01*
X96514158Y-129891575D01*
X96328597Y-130021505D01*
X96161505Y-130188597D01*
X96025965Y-130382169D01*
X96025964Y-130382171D01*
X95926098Y-130596335D01*
X95926094Y-130596344D01*
X95864938Y-130824586D01*
X95864936Y-130824596D01*
X95844341Y-131059999D01*
X95844341Y-131060000D01*
X95864936Y-131295403D01*
X95864938Y-131295413D01*
X95926094Y-131523655D01*
X95926096Y-131523659D01*
X95926097Y-131523663D01*
X96012901Y-131709815D01*
X96025965Y-131737830D01*
X96025967Y-131737834D01*
X96161501Y-131931395D01*
X96161506Y-131931402D01*
X96328597Y-132098493D01*
X96328603Y-132098498D01*
X96514158Y-132228425D01*
X96557783Y-132283002D01*
X96564977Y-132352500D01*
X96533454Y-132414855D01*
X96514158Y-132431575D01*
X96328597Y-132561505D01*
X96161505Y-132728597D01*
X96025965Y-132922169D01*
X96025964Y-132922171D01*
X95926098Y-133136335D01*
X95926094Y-133136344D01*
X95864938Y-133364586D01*
X95864936Y-133364596D01*
X95844341Y-133599999D01*
X95844341Y-133600000D01*
X94500500Y-133600000D01*
X94500500Y-122860003D01*
X114714435Y-122860003D01*
X114734630Y-123039249D01*
X114734631Y-123039254D01*
X114794211Y-123209523D01*
X114880310Y-123346548D01*
X114890184Y-123362262D01*
X115017738Y-123489816D01*
X115170478Y-123585789D01*
X115317537Y-123637247D01*
X115340745Y-123645368D01*
X115340750Y-123645369D01*
X115519996Y-123665565D01*
X115520000Y-123665565D01*
X115520004Y-123665565D01*
X115699249Y-123645369D01*
X115699252Y-123645368D01*
X115699255Y-123645368D01*
X115869522Y-123585789D01*
X116022262Y-123489816D01*
X116149816Y-123362262D01*
X116245789Y-123209522D01*
X116305368Y-123039255D01*
X116305369Y-123039249D01*
X116325565Y-122860003D01*
X116325565Y-122859996D01*
X116305369Y-122680750D01*
X116305368Y-122680745D01*
X116245788Y-122510476D01*
X116205008Y-122445576D01*
X116149816Y-122357738D01*
X116022262Y-122230184D01*
X115992377Y-122211406D01*
X115869523Y-122134211D01*
X115699254Y-122074631D01*
X115699249Y-122074630D01*
X115520004Y-122054435D01*
X115519996Y-122054435D01*
X115340750Y-122074630D01*
X115340745Y-122074631D01*
X115170476Y-122134211D01*
X115017737Y-122230184D01*
X114890184Y-122357737D01*
X114794211Y-122510476D01*
X114734631Y-122680745D01*
X114734630Y-122680750D01*
X114714435Y-122859996D01*
X114714435Y-122860003D01*
X94500500Y-122860003D01*
X94500500Y-120258676D01*
X94520185Y-120191637D01*
X94536819Y-120170995D01*
X94957811Y-119750003D01*
X109144435Y-119750003D01*
X109164630Y-119929249D01*
X109164631Y-119929254D01*
X109224211Y-120099523D01*
X109289927Y-120204108D01*
X109320184Y-120252262D01*
X109447738Y-120379816D01*
X109600478Y-120475789D01*
X109770745Y-120535368D01*
X109857669Y-120545161D01*
X109922080Y-120572226D01*
X109931465Y-120580700D01*
X110065139Y-120714374D01*
X110065149Y-120714385D01*
X110069479Y-120718715D01*
X110069480Y-120718716D01*
X110181284Y-120830520D01*
X110264763Y-120878716D01*
X110318215Y-120909577D01*
X110470943Y-120950500D01*
X110629057Y-120950500D01*
X110943678Y-120950500D01*
X111010717Y-120970185D01*
X111056472Y-121022989D01*
X111066898Y-121060617D01*
X111074630Y-121129249D01*
X111074631Y-121129254D01*
X111074632Y-121129255D01*
X111082538Y-121151849D01*
X111134210Y-121299521D01*
X111206619Y-121414759D01*
X111230184Y-121452262D01*
X111357738Y-121579816D01*
X111366030Y-121585026D01*
X111477820Y-121655269D01*
X111510478Y-121675789D01*
X111619776Y-121714034D01*
X111680745Y-121735368D01*
X111680750Y-121735369D01*
X111859996Y-121755565D01*
X111860000Y-121755565D01*
X111860004Y-121755565D01*
X112039249Y-121735369D01*
X112039252Y-121735368D01*
X112039255Y-121735368D01*
X112209522Y-121675789D01*
X112362262Y-121579816D01*
X112362267Y-121579810D01*
X112365097Y-121577555D01*
X112367275Y-121576665D01*
X112368158Y-121576111D01*
X112368255Y-121576265D01*
X112429783Y-121551145D01*
X112442412Y-121550500D01*
X112723231Y-121550500D01*
X112723247Y-121550501D01*
X112730843Y-121550501D01*
X112888954Y-121550501D01*
X112888957Y-121550501D01*
X113041685Y-121509577D01*
X113100595Y-121475565D01*
X113178616Y-121430520D01*
X113290420Y-121318716D01*
X113290420Y-121318714D01*
X113300624Y-121308511D01*
X113300628Y-121308506D01*
X113540847Y-121068287D01*
X113602170Y-121034802D01*
X113671862Y-121039786D01*
X113716209Y-121068287D01*
X113777738Y-121129816D01*
X113847690Y-121173770D01*
X113917817Y-121217834D01*
X113930478Y-121225789D01*
X114044546Y-121265703D01*
X114100745Y-121285368D01*
X114100750Y-121285369D01*
X114279996Y-121305565D01*
X114280000Y-121305565D01*
X114280004Y-121305565D01*
X114459249Y-121285369D01*
X114459252Y-121285368D01*
X114459255Y-121285368D01*
X114629522Y-121225789D01*
X114782262Y-121129816D01*
X114909816Y-121002262D01*
X115005789Y-120849522D01*
X115065368Y-120679255D01*
X115065368Y-120679254D01*
X115065369Y-120679252D01*
X115068595Y-120650618D01*
X115095661Y-120586204D01*
X115153255Y-120546648D01*
X115191815Y-120540500D01*
X117773488Y-120540500D01*
X117840527Y-120560185D01*
X117886282Y-120612989D01*
X117896226Y-120682147D01*
X117867201Y-120745703D01*
X117814442Y-120781542D01*
X117768823Y-120797504D01*
X117616082Y-120893478D01*
X117488529Y-121021031D01*
X117392556Y-121173770D01*
X117332976Y-121344039D01*
X117332975Y-121344044D01*
X117312780Y-121523290D01*
X117312780Y-121523297D01*
X117332975Y-121702543D01*
X117332976Y-121702548D01*
X117392556Y-121872817D01*
X117488529Y-122025556D01*
X117492870Y-122030999D01*
X117491872Y-122031794D01*
X117521874Y-122086739D01*
X117523928Y-122126980D01*
X117504435Y-122299995D01*
X117504435Y-122300003D01*
X117524630Y-122479249D01*
X117524631Y-122479254D01*
X117584211Y-122649523D01*
X117618838Y-122704631D01*
X117680184Y-122802262D01*
X117807738Y-122929816D01*
X117859360Y-122962252D01*
X117912650Y-122995737D01*
X117960478Y-123025789D01*
X118130745Y-123085368D01*
X118130750Y-123085369D01*
X118309996Y-123105565D01*
X118310000Y-123105565D01*
X118310004Y-123105565D01*
X118489249Y-123085369D01*
X118489252Y-123085368D01*
X118489255Y-123085368D01*
X118659522Y-123025789D01*
X118812262Y-122929816D01*
X118939816Y-122802262D01*
X119035789Y-122649522D01*
X119095368Y-122479255D01*
X119099163Y-122445576D01*
X119115565Y-122300003D01*
X119115565Y-122299999D01*
X119111247Y-122261679D01*
X119123301Y-122192857D01*
X119170650Y-122141477D01*
X119234467Y-122123794D01*
X120164766Y-122123794D01*
X120231805Y-122143479D01*
X120277560Y-122196283D01*
X120287504Y-122265441D01*
X120258479Y-122328997D01*
X120252447Y-122335475D01*
X120170184Y-122417737D01*
X120074211Y-122570476D01*
X120014631Y-122740745D01*
X120014630Y-122740750D01*
X119994435Y-122919996D01*
X119994435Y-122920003D01*
X120014630Y-123099249D01*
X120014631Y-123099254D01*
X120074211Y-123269523D01*
X120168878Y-123420184D01*
X120170184Y-123422262D01*
X120297738Y-123549816D01*
X120304728Y-123554208D01*
X120449809Y-123645369D01*
X120450478Y-123645789D01*
X120548019Y-123679920D01*
X120620745Y-123705368D01*
X120620750Y-123705369D01*
X120799996Y-123725565D01*
X120800000Y-123725565D01*
X120800004Y-123725565D01*
X120979249Y-123705369D01*
X120979252Y-123705368D01*
X120979255Y-123705368D01*
X121149522Y-123645789D01*
X121150191Y-123645369D01*
X121185819Y-123622982D01*
X121265033Y-123573208D01*
X121332268Y-123554208D01*
X121399103Y-123574575D01*
X121444317Y-123627843D01*
X121448045Y-123637247D01*
X121474209Y-123712019D01*
X121497932Y-123749774D01*
X121516932Y-123817010D01*
X121506018Y-123863734D01*
X121506510Y-123863906D01*
X121504911Y-123868474D01*
X121504663Y-123869538D01*
X121504210Y-123870478D01*
X121444633Y-124040737D01*
X121444630Y-124040750D01*
X121424435Y-124219996D01*
X121424435Y-124220003D01*
X121444630Y-124399249D01*
X121444632Y-124399257D01*
X121473193Y-124480879D01*
X121476754Y-124550657D01*
X121461145Y-124587804D01*
X121412513Y-124665201D01*
X121412509Y-124665210D01*
X121352933Y-124835466D01*
X121352930Y-124835479D01*
X121332735Y-125014725D01*
X121332735Y-125014732D01*
X121352930Y-125193978D01*
X121352933Y-125193991D01*
X121412509Y-125364248D01*
X121423049Y-125381023D01*
X121442048Y-125448260D01*
X121435096Y-125487947D01*
X121374632Y-125660742D01*
X121374630Y-125660750D01*
X121354435Y-125839996D01*
X121354435Y-125840003D01*
X121374630Y-126019249D01*
X121374632Y-126019257D01*
X121396172Y-126080815D01*
X121399733Y-126150594D01*
X121365004Y-126211221D01*
X121303010Y-126243448D01*
X121233435Y-126237042D01*
X121213158Y-126226763D01*
X121129523Y-126174211D01*
X120959254Y-126114631D01*
X120959249Y-126114630D01*
X120780004Y-126094435D01*
X120779996Y-126094435D01*
X120600750Y-126114630D01*
X120600745Y-126114631D01*
X120430476Y-126174211D01*
X120277737Y-126270184D01*
X120150184Y-126397737D01*
X120054211Y-126550476D01*
X119994631Y-126720745D01*
X119994630Y-126720750D01*
X119974435Y-126899996D01*
X119974435Y-126900003D01*
X119994630Y-127079249D01*
X119994631Y-127079254D01*
X120054211Y-127249523D01*
X120117440Y-127350151D01*
X120150184Y-127402262D01*
X120277738Y-127529816D01*
X120430478Y-127625789D01*
X120600745Y-127685368D01*
X120600750Y-127685369D01*
X120779996Y-127705565D01*
X120780000Y-127705565D01*
X120780004Y-127705565D01*
X120959249Y-127685369D01*
X120959252Y-127685368D01*
X120959255Y-127685368D01*
X121129522Y-127625789D01*
X121282262Y-127529816D01*
X121409816Y-127402262D01*
X121505789Y-127249522D01*
X121565368Y-127079255D01*
X121566769Y-127066825D01*
X121585565Y-126900003D01*
X121585565Y-126899996D01*
X121565369Y-126720750D01*
X121565366Y-126720737D01*
X121543828Y-126659185D01*
X121540266Y-126589406D01*
X121574994Y-126528779D01*
X121636988Y-126496551D01*
X121706563Y-126502956D01*
X121726842Y-126513237D01*
X121810475Y-126565788D01*
X121980745Y-126625368D01*
X121980750Y-126625369D01*
X122159996Y-126645565D01*
X122160000Y-126645565D01*
X122160004Y-126645565D01*
X122339249Y-126625369D01*
X122339252Y-126625368D01*
X122339255Y-126625368D01*
X122509522Y-126565789D01*
X122557328Y-126535749D01*
X122624564Y-126516748D01*
X122691400Y-126537114D01*
X122710983Y-126553061D01*
X122787738Y-126629816D01*
X122843666Y-126664958D01*
X122932450Y-126720745D01*
X122940478Y-126725789D01*
X122994014Y-126744522D01*
X123110745Y-126785368D01*
X123110750Y-126785369D01*
X123289996Y-126805565D01*
X123290000Y-126805565D01*
X123290004Y-126805565D01*
X123469249Y-126785369D01*
X123469252Y-126785368D01*
X123469255Y-126785368D01*
X123639522Y-126725789D01*
X123792262Y-126629816D01*
X123919816Y-126502262D01*
X124015789Y-126349522D01*
X124075368Y-126179255D01*
X124077736Y-126158236D01*
X124104800Y-126093824D01*
X124115333Y-126086589D01*
X124289647Y-126086589D01*
X124292137Y-126088083D01*
X124323096Y-126150719D01*
X124324176Y-126158234D01*
X124344875Y-126341946D01*
X124344876Y-126341950D01*
X124404456Y-126512219D01*
X124496802Y-126659185D01*
X124500429Y-126664958D01*
X124627983Y-126792512D01*
X124648757Y-126805565D01*
X124777315Y-126886344D01*
X124780723Y-126888485D01*
X124950990Y-126948064D01*
X124950995Y-126948065D01*
X125130241Y-126968261D01*
X125130245Y-126968261D01*
X125130249Y-126968261D01*
X125309494Y-126948065D01*
X125309497Y-126948064D01*
X125309500Y-126948064D01*
X125479767Y-126888485D01*
X125632507Y-126792512D01*
X125760061Y-126664958D01*
X125856034Y-126512218D01*
X125915613Y-126341951D01*
X125915614Y-126341945D01*
X125935810Y-126162699D01*
X125935810Y-126162692D01*
X125915614Y-125983446D01*
X125915613Y-125983441D01*
X125905698Y-125955105D01*
X125856034Y-125813174D01*
X125760061Y-125660434D01*
X125632507Y-125532880D01*
X125576579Y-125497738D01*
X125479768Y-125436907D01*
X125309499Y-125377327D01*
X125309494Y-125377326D01*
X125130249Y-125357131D01*
X125130241Y-125357131D01*
X124950995Y-125377326D01*
X124950990Y-125377327D01*
X124780721Y-125436907D01*
X124627982Y-125532880D01*
X124500429Y-125660433D01*
X124404456Y-125813172D01*
X124344876Y-125983441D01*
X124344875Y-125983445D01*
X124342508Y-126004461D01*
X124315441Y-126068875D01*
X124289647Y-126086589D01*
X124115333Y-126086589D01*
X124130596Y-126076105D01*
X124128103Y-126074609D01*
X124097147Y-126011971D01*
X124096068Y-126004460D01*
X124075369Y-125820750D01*
X124075368Y-125820745D01*
X124019383Y-125660750D01*
X124015789Y-125650478D01*
X123990122Y-125609630D01*
X123919815Y-125497737D01*
X123792262Y-125370184D01*
X123639523Y-125274211D01*
X123469254Y-125214631D01*
X123469249Y-125214630D01*
X123290004Y-125194435D01*
X123289996Y-125194435D01*
X123110750Y-125214630D01*
X123110743Y-125214632D01*
X123099835Y-125218449D01*
X123030056Y-125222009D01*
X122969429Y-125187278D01*
X122937204Y-125125284D01*
X122935663Y-125087522D01*
X122943865Y-125014731D01*
X122943865Y-125014725D01*
X122923669Y-124835477D01*
X122923667Y-124835470D01*
X122902783Y-124775788D01*
X122895105Y-124753849D01*
X122891544Y-124684071D01*
X122907154Y-124646922D01*
X122955789Y-124569522D01*
X122994065Y-124460136D01*
X123015366Y-124399262D01*
X123015369Y-124399249D01*
X123035565Y-124220003D01*
X123035565Y-124219996D01*
X123015369Y-124040750D01*
X123015368Y-124040745D01*
X122955788Y-123870475D01*
X122932068Y-123832726D01*
X122913067Y-123765489D01*
X122923982Y-123718767D01*
X122923489Y-123718595D01*
X122925095Y-123714003D01*
X122925342Y-123712949D01*
X122925783Y-123712031D01*
X122925789Y-123712022D01*
X122981011Y-123554208D01*
X122985366Y-123541762D01*
X122985369Y-123541749D01*
X122999907Y-123412719D01*
X123026973Y-123348305D01*
X123061124Y-123319217D01*
X123106284Y-123293142D01*
X123106289Y-123293139D01*
X123114697Y-123288285D01*
X123193101Y-123243020D01*
X123304905Y-123131216D01*
X123304905Y-123131214D01*
X123315113Y-123121007D01*
X123315115Y-123121004D01*
X123440383Y-122995735D01*
X123501704Y-122962252D01*
X123571396Y-122967236D01*
X123627329Y-123009108D01*
X123651282Y-123069532D01*
X123654631Y-123099251D01*
X123654631Y-123099254D01*
X123714211Y-123269522D01*
X123761534Y-123344836D01*
X123780534Y-123412072D01*
X123773582Y-123451761D01*
X123744205Y-123535717D01*
X123744205Y-123535718D01*
X123724009Y-123714968D01*
X123724009Y-123714975D01*
X123744204Y-123894221D01*
X123744205Y-123894226D01*
X123803785Y-124064495D01*
X123849807Y-124137738D01*
X123899758Y-124217234D01*
X124027312Y-124344788D01*
X124113986Y-124399249D01*
X124180052Y-124440761D01*
X124350319Y-124500340D01*
X124352245Y-124500557D01*
X124353407Y-124501045D01*
X124357108Y-124501890D01*
X124356960Y-124502537D01*
X124416661Y-124527618D01*
X124443365Y-124557806D01*
X124499361Y-124646922D01*
X124534957Y-124703573D01*
X124662511Y-124831127D01*
X124701404Y-124855565D01*
X124795699Y-124914815D01*
X124815251Y-124927100D01*
X124938378Y-124970184D01*
X124985518Y-124986679D01*
X124985523Y-124986680D01*
X125164769Y-125006876D01*
X125164773Y-125006876D01*
X125164777Y-125006876D01*
X125344022Y-124986680D01*
X125344025Y-124986679D01*
X125344028Y-124986679D01*
X125514295Y-124927100D01*
X125667035Y-124831127D01*
X125794589Y-124703573D01*
X125841867Y-124628329D01*
X125894201Y-124582038D01*
X125963255Y-124571389D01*
X126027103Y-124599764D01*
X126034542Y-124606620D01*
X126107738Y-124679816D01*
X126145547Y-124703573D01*
X126242164Y-124764282D01*
X126260478Y-124775789D01*
X126355993Y-124809211D01*
X126430745Y-124835368D01*
X126430750Y-124835369D01*
X126609996Y-124855565D01*
X126610000Y-124855565D01*
X126610004Y-124855565D01*
X126789249Y-124835369D01*
X126789251Y-124835368D01*
X126789255Y-124835368D01*
X126789258Y-124835366D01*
X126789262Y-124835366D01*
X126936600Y-124783810D01*
X127006379Y-124780248D01*
X127043527Y-124795857D01*
X127059902Y-124806146D01*
X127059904Y-124806147D01*
X127156659Y-124840003D01*
X127230171Y-124865726D01*
X127230176Y-124865727D01*
X127409422Y-124885923D01*
X127409426Y-124885923D01*
X127409430Y-124885923D01*
X127588675Y-124865727D01*
X127588678Y-124865726D01*
X127588681Y-124865726D01*
X127758948Y-124806147D01*
X127806399Y-124776330D01*
X127873635Y-124757329D01*
X127913328Y-124764282D01*
X128030737Y-124805366D01*
X128030743Y-124805367D01*
X128030745Y-124805368D01*
X128030746Y-124805368D01*
X128030750Y-124805369D01*
X128209996Y-124825565D01*
X128210000Y-124825565D01*
X128210004Y-124825565D01*
X128389249Y-124805369D01*
X128389252Y-124805368D01*
X128389255Y-124805368D01*
X128559522Y-124745789D01*
X128626849Y-124703483D01*
X128694083Y-124684484D01*
X128733772Y-124691435D01*
X128830745Y-124725368D01*
X128830751Y-124725368D01*
X128830753Y-124725369D01*
X129009996Y-124745565D01*
X129010000Y-124745565D01*
X129010004Y-124745565D01*
X129189249Y-124725369D01*
X129189252Y-124725368D01*
X129189255Y-124725368D01*
X129359522Y-124665789D01*
X129512262Y-124569816D01*
X129512267Y-124569810D01*
X129515097Y-124567555D01*
X129517275Y-124566665D01*
X129518158Y-124566111D01*
X129518255Y-124566265D01*
X129579783Y-124541145D01*
X129592412Y-124540500D01*
X131119424Y-124540500D01*
X131186463Y-124560185D01*
X131232218Y-124612989D01*
X131242644Y-124678383D01*
X131224435Y-124839996D01*
X131224435Y-124840003D01*
X131244630Y-125019249D01*
X131244631Y-125019254D01*
X131304211Y-125189523D01*
X131400184Y-125342262D01*
X131527738Y-125469816D01*
X131680478Y-125565789D01*
X131850745Y-125625368D01*
X131937669Y-125635161D01*
X132002080Y-125662226D01*
X132011465Y-125670700D01*
X132295869Y-125955105D01*
X132329354Y-126016428D01*
X132324370Y-126086120D01*
X132282498Y-126142053D01*
X132255639Y-126157348D01*
X132248215Y-126160422D01*
X132204781Y-126185500D01*
X132204780Y-126185500D01*
X132111287Y-126239477D01*
X132111282Y-126239481D01*
X130577130Y-127773634D01*
X130515807Y-127807119D01*
X130446115Y-127802135D01*
X130423477Y-127790947D01*
X130269523Y-127694211D01*
X130099254Y-127634631D01*
X130099249Y-127634630D01*
X129920004Y-127614435D01*
X129919996Y-127614435D01*
X129740750Y-127634630D01*
X129740745Y-127634631D01*
X129570476Y-127694211D01*
X129417737Y-127790184D01*
X129290184Y-127917737D01*
X129210102Y-128045187D01*
X129157767Y-128091478D01*
X129118991Y-128102435D01*
X129010750Y-128114630D01*
X128840478Y-128174210D01*
X128687737Y-128270184D01*
X128560184Y-128397737D01*
X128464211Y-128550476D01*
X128404631Y-128720745D01*
X128404630Y-128720750D01*
X128384435Y-128899996D01*
X128384435Y-128900003D01*
X128402644Y-129061617D01*
X128390589Y-129130439D01*
X128343240Y-129181818D01*
X128279424Y-129199500D01*
X124966210Y-129199500D01*
X124899171Y-129179815D01*
X124853416Y-129127011D01*
X124842990Y-129061617D01*
X124855565Y-128950006D01*
X124855565Y-128949999D01*
X124835369Y-128770753D01*
X124835368Y-128770748D01*
X124773489Y-128593908D01*
X124775635Y-128593156D01*
X124766037Y-128534857D01*
X124774391Y-128506410D01*
X124773489Y-128506095D01*
X124835366Y-128329262D01*
X124835369Y-128329249D01*
X124855565Y-128150003D01*
X124855565Y-128149996D01*
X124835369Y-127970750D01*
X124835368Y-127970745D01*
X124810612Y-127899996D01*
X124775789Y-127800478D01*
X124736235Y-127737529D01*
X126846910Y-127737529D01*
X126867105Y-127916775D01*
X126867106Y-127916780D01*
X126926686Y-128087049D01*
X126998130Y-128200750D01*
X127022659Y-128239788D01*
X127150213Y-128367342D01*
X127231759Y-128418581D01*
X127269563Y-128442335D01*
X127302953Y-128463315D01*
X127427349Y-128506843D01*
X127473220Y-128522894D01*
X127473225Y-128522895D01*
X127652471Y-128543091D01*
X127652475Y-128543091D01*
X127652479Y-128543091D01*
X127831724Y-128522895D01*
X127831727Y-128522894D01*
X127831730Y-128522894D01*
X128001997Y-128463315D01*
X128154737Y-128367342D01*
X128282291Y-128239788D01*
X128378264Y-128087048D01*
X128437843Y-127916781D01*
X128437844Y-127916775D01*
X128458040Y-127737529D01*
X128458040Y-127737522D01*
X128437844Y-127558276D01*
X128437843Y-127558271D01*
X128410980Y-127481501D01*
X128378264Y-127388004D01*
X128363578Y-127364632D01*
X128283172Y-127236666D01*
X128264172Y-127169429D01*
X128284540Y-127102594D01*
X128322194Y-127065700D01*
X128387262Y-127024816D01*
X128514816Y-126897262D01*
X128610789Y-126744522D01*
X128670368Y-126574255D01*
X128673047Y-126550478D01*
X128690565Y-126395003D01*
X128690565Y-126394996D01*
X128670369Y-126215750D01*
X128670368Y-126215745D01*
X128627706Y-126093824D01*
X128610789Y-126045478D01*
X128591599Y-126014938D01*
X128514815Y-125892737D01*
X128387262Y-125765184D01*
X128234523Y-125669211D01*
X128064254Y-125609631D01*
X128064249Y-125609630D01*
X127885004Y-125589435D01*
X127884996Y-125589435D01*
X127705750Y-125609630D01*
X127705745Y-125609631D01*
X127535476Y-125669211D01*
X127382737Y-125765184D01*
X127255184Y-125892737D01*
X127159211Y-126045476D01*
X127099631Y-126215745D01*
X127099630Y-126215750D01*
X127079435Y-126394996D01*
X127079435Y-126395003D01*
X127099630Y-126574249D01*
X127099631Y-126574254D01*
X127150888Y-126720737D01*
X127159211Y-126744522D01*
X127254303Y-126895860D01*
X127273303Y-126963095D01*
X127252936Y-127029931D01*
X127215281Y-127066825D01*
X127150212Y-127107710D01*
X127022659Y-127235263D01*
X126926686Y-127388002D01*
X126867106Y-127558271D01*
X126867105Y-127558276D01*
X126846910Y-127737522D01*
X126846910Y-127737529D01*
X124736235Y-127737529D01*
X124679816Y-127647738D01*
X124552262Y-127520184D01*
X124399523Y-127424211D01*
X124229254Y-127364631D01*
X124229249Y-127364630D01*
X124050004Y-127344435D01*
X124049996Y-127344435D01*
X123870750Y-127364630D01*
X123870745Y-127364631D01*
X123700476Y-127424211D01*
X123547737Y-127520184D01*
X123420184Y-127647737D01*
X123324211Y-127800476D01*
X123264631Y-127970745D01*
X123264630Y-127970750D01*
X123244435Y-128149996D01*
X123244435Y-128150003D01*
X123264630Y-128329249D01*
X123264633Y-128329262D01*
X123326510Y-128506094D01*
X123324366Y-128506843D01*
X123333960Y-128565161D01*
X123325612Y-128593595D01*
X123326510Y-128593909D01*
X123264633Y-128770740D01*
X123264630Y-128770753D01*
X123244435Y-128949999D01*
X123244435Y-128950006D01*
X123257010Y-129061617D01*
X123244955Y-129130439D01*
X123197606Y-129181818D01*
X123133790Y-129199500D01*
X122736669Y-129199500D01*
X122736653Y-129199499D01*
X122729057Y-129199499D01*
X122570943Y-129199499D01*
X122418215Y-129240423D01*
X122418214Y-129240423D01*
X122369212Y-129268715D01*
X122369211Y-129268715D01*
X122281290Y-129319475D01*
X122281282Y-129319481D01*
X122169478Y-129431286D01*
X121821465Y-129779298D01*
X121760142Y-129812783D01*
X121747668Y-129814837D01*
X121660748Y-129824630D01*
X121596287Y-129847186D01*
X121526508Y-129850747D01*
X121465881Y-129816017D01*
X121433655Y-129754023D01*
X121440061Y-129684448D01*
X121478025Y-129633194D01*
X121482252Y-129629821D01*
X121482262Y-129629816D01*
X121609816Y-129502262D01*
X121705789Y-129349522D01*
X121765368Y-129179255D01*
X121767484Y-129160476D01*
X121785565Y-129000003D01*
X121785565Y-128999996D01*
X121765369Y-128820750D01*
X121765368Y-128820745D01*
X121763408Y-128815144D01*
X121705789Y-128650478D01*
X121701590Y-128643796D01*
X121648466Y-128559249D01*
X121609816Y-128497738D01*
X121482262Y-128370184D01*
X121459351Y-128355788D01*
X121329523Y-128274211D01*
X121159254Y-128214631D01*
X121159249Y-128214630D01*
X120980004Y-128194435D01*
X120979996Y-128194435D01*
X120800750Y-128214630D01*
X120800745Y-128214631D01*
X120630476Y-128274211D01*
X120477737Y-128370184D01*
X120350184Y-128497737D01*
X120254211Y-128650476D01*
X120194631Y-128820745D01*
X120194630Y-128820750D01*
X120174435Y-128999996D01*
X120174435Y-129000003D01*
X120194630Y-129179249D01*
X120194631Y-129179254D01*
X120254211Y-129349523D01*
X120316875Y-129449251D01*
X120350184Y-129502262D01*
X120477738Y-129629816D01*
X120630478Y-129725789D01*
X120749681Y-129767500D01*
X120800745Y-129785368D01*
X120800750Y-129785369D01*
X120979996Y-129805565D01*
X120980000Y-129805565D01*
X120980004Y-129805565D01*
X121159249Y-129785369D01*
X121159251Y-129785368D01*
X121159255Y-129785368D01*
X121159258Y-129785366D01*
X121159262Y-129785366D01*
X121223709Y-129762815D01*
X121293487Y-129759252D01*
X121354115Y-129793981D01*
X121386342Y-129855974D01*
X121379938Y-129925550D01*
X121341983Y-129976798D01*
X121337739Y-129980182D01*
X121210184Y-130107737D01*
X121114211Y-130260476D01*
X121054631Y-130430745D01*
X121054630Y-130430750D01*
X121034435Y-130609996D01*
X121034435Y-130610003D01*
X121054630Y-130789249D01*
X121054631Y-130789254D01*
X121114211Y-130959523D01*
X121189910Y-131079996D01*
X121210184Y-131112262D01*
X121337738Y-131239816D01*
X121490478Y-131335789D01*
X121529725Y-131349522D01*
X121660745Y-131395368D01*
X121660750Y-131395369D01*
X121839996Y-131415565D01*
X121840000Y-131415565D01*
X121840004Y-131415565D01*
X122019249Y-131395369D01*
X122019252Y-131395368D01*
X122019255Y-131395368D01*
X122189522Y-131335789D01*
X122342262Y-131239816D01*
X122469816Y-131112262D01*
X122565789Y-130959522D01*
X122625368Y-130789255D01*
X122635161Y-130702329D01*
X122662226Y-130637918D01*
X122670680Y-130628553D01*
X122862417Y-130436816D01*
X122923740Y-130403334D01*
X122950097Y-130400500D01*
X128207189Y-130400500D01*
X128274228Y-130420185D01*
X128319983Y-130472989D01*
X128329927Y-130542147D01*
X128312183Y-130590470D01*
X128299911Y-130610003D01*
X128224211Y-130730477D01*
X128164631Y-130900745D01*
X128164630Y-130900750D01*
X128144435Y-131079996D01*
X128144435Y-131080003D01*
X128164630Y-131259249D01*
X128164631Y-131259254D01*
X128224211Y-131429523D01*
X128283359Y-131523655D01*
X128320184Y-131582262D01*
X128447738Y-131709816D01*
X128600478Y-131805789D01*
X128770745Y-131865368D01*
X128770750Y-131865369D01*
X128949996Y-131885565D01*
X128950000Y-131885565D01*
X128950004Y-131885565D01*
X129129249Y-131865369D01*
X129129252Y-131865368D01*
X129129255Y-131865368D01*
X129299522Y-131805789D01*
X129452262Y-131709816D01*
X129579816Y-131582262D01*
X129675789Y-131429522D01*
X129735368Y-131259255D01*
X129735369Y-131259249D01*
X129755565Y-131080003D01*
X129755565Y-131079996D01*
X129746552Y-131000003D01*
X136111102Y-131000003D01*
X136131297Y-131179249D01*
X136131298Y-131179254D01*
X136190878Y-131349523D01*
X136241145Y-131429522D01*
X136286851Y-131502262D01*
X136414405Y-131629816D01*
X136518387Y-131695152D01*
X136564677Y-131747486D01*
X136575326Y-131816539D01*
X136546950Y-131880387D01*
X136540096Y-131887826D01*
X136430183Y-131997739D01*
X136334211Y-132150476D01*
X136274631Y-132320745D01*
X136274630Y-132320750D01*
X136254435Y-132499996D01*
X136254435Y-132500003D01*
X136274630Y-132679249D01*
X136274631Y-132679254D01*
X136334211Y-132849523D01*
X136379858Y-132922169D01*
X136430184Y-133002262D01*
X136557738Y-133129816D01*
X136615269Y-133165965D01*
X136708426Y-133224500D01*
X136710478Y-133225789D01*
X136822711Y-133265061D01*
X136880745Y-133285368D01*
X136880750Y-133285369D01*
X137059996Y-133305565D01*
X137060000Y-133305565D01*
X137060004Y-133305565D01*
X137239249Y-133285369D01*
X137239252Y-133285368D01*
X137239255Y-133285368D01*
X137409522Y-133225789D01*
X137562262Y-133129816D01*
X137689816Y-133002262D01*
X137785789Y-132849522D01*
X137845368Y-132679255D01*
X137846254Y-132671395D01*
X137865565Y-132500003D01*
X137865565Y-132499996D01*
X137845369Y-132320750D01*
X137845368Y-132320745D01*
X137832796Y-132284816D01*
X137785789Y-132150478D01*
X137689816Y-131997738D01*
X137562262Y-131870184D01*
X137458279Y-131804847D01*
X137411989Y-131752513D01*
X137401341Y-131683460D01*
X137413988Y-131655003D01*
X147439435Y-131655003D01*
X147459630Y-131834249D01*
X147459631Y-131834254D01*
X147519211Y-132004523D01*
X147578257Y-132098493D01*
X147615184Y-132157262D01*
X147742738Y-132284816D01*
X147799919Y-132320745D01*
X147889444Y-132376998D01*
X147895478Y-132380789D01*
X147992833Y-132414855D01*
X148065745Y-132440368D01*
X148065750Y-132440369D01*
X148244996Y-132460565D01*
X148245000Y-132460565D01*
X148245004Y-132460565D01*
X148424249Y-132440369D01*
X148424252Y-132440368D01*
X148424255Y-132440368D01*
X148594522Y-132380789D01*
X148747262Y-132284816D01*
X148874816Y-132157262D01*
X148970789Y-132004522D01*
X149030368Y-131834255D01*
X149032579Y-131814631D01*
X149050565Y-131655003D01*
X149050565Y-131654996D01*
X149030369Y-131475750D01*
X149030368Y-131475745D01*
X148986201Y-131349523D01*
X148970789Y-131305478D01*
X148964458Y-131295403D01*
X148929530Y-131239815D01*
X148874816Y-131152738D01*
X148747262Y-131025184D01*
X148707176Y-130999996D01*
X148594523Y-130929211D01*
X148424254Y-130869631D01*
X148424249Y-130869630D01*
X148245004Y-130849435D01*
X148244996Y-130849435D01*
X148065750Y-130869630D01*
X148065745Y-130869631D01*
X147895476Y-130929211D01*
X147742737Y-131025184D01*
X147615184Y-131152737D01*
X147519211Y-131305476D01*
X147459631Y-131475745D01*
X147459630Y-131475750D01*
X147439435Y-131654996D01*
X147439435Y-131655003D01*
X137413988Y-131655003D01*
X137429716Y-131619611D01*
X137436547Y-131612197D01*
X137546483Y-131502262D01*
X137642456Y-131349522D01*
X137702035Y-131179255D01*
X137708467Y-131122169D01*
X137722232Y-131000003D01*
X137722232Y-130999996D01*
X137702036Y-130820750D01*
X137702035Y-130820745D01*
X137679159Y-130755369D01*
X137642456Y-130650478D01*
X137628666Y-130628532D01*
X137546482Y-130497737D01*
X137418929Y-130370184D01*
X137266190Y-130274211D01*
X137095921Y-130214631D01*
X137095916Y-130214630D01*
X136916671Y-130194435D01*
X136916663Y-130194435D01*
X136737417Y-130214630D01*
X136737412Y-130214631D01*
X136567143Y-130274211D01*
X136414404Y-130370184D01*
X136286851Y-130497737D01*
X136190878Y-130650476D01*
X136131298Y-130820745D01*
X136131297Y-130820750D01*
X136111102Y-130999996D01*
X136111102Y-131000003D01*
X129746552Y-131000003D01*
X129735369Y-130900750D01*
X129735368Y-130900745D01*
X129717414Y-130849435D01*
X129675789Y-130730478D01*
X129587816Y-130590471D01*
X129568817Y-130523236D01*
X129589185Y-130456400D01*
X129642452Y-130411186D01*
X129692811Y-130400500D01*
X130913331Y-130400500D01*
X130913347Y-130400501D01*
X130920943Y-130400501D01*
X131079054Y-130400501D01*
X131079057Y-130400501D01*
X131231785Y-130359577D01*
X131301162Y-130319522D01*
X131368716Y-130280520D01*
X131480520Y-130168716D01*
X131480520Y-130168714D01*
X131490724Y-130158511D01*
X131490728Y-130158506D01*
X132282724Y-129366509D01*
X132344045Y-129333026D01*
X132413737Y-129338010D01*
X132469670Y-129379882D01*
X132493623Y-129440306D01*
X132494631Y-129449251D01*
X132494631Y-129449254D01*
X132554211Y-129619523D01*
X132620982Y-129725788D01*
X132650184Y-129772262D01*
X132777738Y-129899816D01*
X132868080Y-129956582D01*
X132920077Y-129989254D01*
X132930478Y-129995789D01*
X133003973Y-130021506D01*
X133100745Y-130055368D01*
X133100750Y-130055369D01*
X133279996Y-130075565D01*
X133280000Y-130075565D01*
X133280004Y-130075565D01*
X133459249Y-130055369D01*
X133459252Y-130055368D01*
X133459255Y-130055368D01*
X133629522Y-129995789D01*
X133782262Y-129899816D01*
X133909816Y-129772262D01*
X134005789Y-129619522D01*
X134065368Y-129449255D01*
X134065368Y-129449252D01*
X134065369Y-129449249D01*
X134085565Y-129270003D01*
X134085565Y-129269996D01*
X134065369Y-129090750D01*
X134065368Y-129090745D01*
X134041008Y-129021128D01*
X134005789Y-128920478D01*
X133992922Y-128900000D01*
X133924101Y-128790472D01*
X133905101Y-128723235D01*
X133925469Y-128656400D01*
X133978737Y-128611186D01*
X134029095Y-128600500D01*
X140051374Y-128600500D01*
X140118413Y-128620185D01*
X140139054Y-128636818D01*
X140882117Y-129379882D01*
X141614753Y-130112518D01*
X141640540Y-130153555D01*
X141641188Y-130153244D01*
X141643955Y-130158989D01*
X141644111Y-130159238D01*
X141644211Y-130159522D01*
X141740184Y-130312262D01*
X141867738Y-130439816D01*
X141958080Y-130496582D01*
X142005048Y-130526094D01*
X142020478Y-130535789D01*
X142176753Y-130590472D01*
X142190745Y-130595368D01*
X142190750Y-130595369D01*
X142369996Y-130615565D01*
X142370000Y-130615565D01*
X142370004Y-130615565D01*
X142549249Y-130595369D01*
X142549252Y-130595368D01*
X142549255Y-130595368D01*
X142719522Y-130535789D01*
X142872262Y-130439816D01*
X142999816Y-130312262D01*
X143095789Y-130159522D01*
X143155368Y-129989255D01*
X143156390Y-129980184D01*
X143157537Y-129970003D01*
X144274435Y-129970003D01*
X144294630Y-130149249D01*
X144294631Y-130149254D01*
X144345759Y-130295368D01*
X144354211Y-130319522D01*
X144450184Y-130472262D01*
X144577738Y-130599816D01*
X144730478Y-130695789D01*
X144900745Y-130755368D01*
X144900750Y-130755369D01*
X145079996Y-130775565D01*
X145080000Y-130775565D01*
X145080004Y-130775565D01*
X145259249Y-130755369D01*
X145259252Y-130755368D01*
X145259255Y-130755368D01*
X145429522Y-130695789D01*
X145582262Y-130599816D01*
X145709816Y-130472262D01*
X145805789Y-130319522D01*
X145865368Y-130149255D01*
X145866432Y-130139815D01*
X145885565Y-129970003D01*
X145885565Y-129969996D01*
X145865369Y-129790750D01*
X145865368Y-129790745D01*
X145863487Y-129785369D01*
X145805789Y-129620478D01*
X145805188Y-129619522D01*
X145709815Y-129467737D01*
X145582262Y-129340184D01*
X145429523Y-129244211D01*
X145259254Y-129184631D01*
X145259249Y-129184630D01*
X145080004Y-129164435D01*
X145079996Y-129164435D01*
X144900750Y-129184630D01*
X144900745Y-129184631D01*
X144730476Y-129244211D01*
X144577737Y-129340184D01*
X144450184Y-129467737D01*
X144354211Y-129620476D01*
X144294631Y-129790745D01*
X144294630Y-129790750D01*
X144274435Y-129969996D01*
X144274435Y-129970003D01*
X143157537Y-129970003D01*
X143175565Y-129810003D01*
X143175565Y-129809996D01*
X143155369Y-129630750D01*
X143155368Y-129630745D01*
X143130086Y-129558493D01*
X143095789Y-129460478D01*
X143088736Y-129449254D01*
X143041584Y-129374211D01*
X142999816Y-129307738D01*
X142872262Y-129180184D01*
X142840897Y-129160476D01*
X142719523Y-129084211D01*
X142549254Y-129024631D01*
X142549249Y-129024630D01*
X142370004Y-129004435D01*
X142363037Y-129004435D01*
X142363037Y-129002967D01*
X142302039Y-128992280D01*
X142250662Y-128944929D01*
X142233040Y-128877318D01*
X142251989Y-128815144D01*
X142305788Y-128729524D01*
X142307500Y-128724631D01*
X142365368Y-128559255D01*
X142365369Y-128559249D01*
X142385565Y-128380003D01*
X142385565Y-128379996D01*
X142365369Y-128200750D01*
X142365367Y-128200742D01*
X142335524Y-128115454D01*
X142331963Y-128045675D01*
X142366692Y-127985048D01*
X142428685Y-127952821D01*
X142452566Y-127950500D01*
X147135501Y-127950500D01*
X147202540Y-127970185D01*
X147248295Y-128022989D01*
X147259501Y-128074500D01*
X147259501Y-128247876D01*
X147265908Y-128307483D01*
X147316202Y-128442328D01*
X147316206Y-128442335D01*
X147402452Y-128557544D01*
X147402455Y-128557547D01*
X147517664Y-128643793D01*
X147517671Y-128643797D01*
X147652517Y-128694091D01*
X147652516Y-128694091D01*
X147659444Y-128694835D01*
X147712127Y-128700500D01*
X149507872Y-128700499D01*
X149567483Y-128694091D01*
X149702331Y-128643796D01*
X149817546Y-128557546D01*
X149903796Y-128442331D01*
X149954091Y-128307483D01*
X149960500Y-128247873D01*
X149960499Y-126452128D01*
X149954358Y-126395000D01*
X149954091Y-126392516D01*
X149903858Y-126257833D01*
X149898874Y-126188141D01*
X149932359Y-126126818D01*
X149993683Y-126093334D01*
X150020040Y-126090500D01*
X152099903Y-126090500D01*
X152166942Y-126110185D01*
X152187584Y-126126819D01*
X152531748Y-126470983D01*
X152565233Y-126532306D01*
X152560249Y-126601998D01*
X152545643Y-126629786D01*
X152515964Y-126672172D01*
X152416097Y-126886335D01*
X152416094Y-126886344D01*
X152354938Y-127114586D01*
X152354936Y-127114596D01*
X152334341Y-127349999D01*
X152334341Y-127350000D01*
X152354936Y-127585403D01*
X152354938Y-127585413D01*
X152416094Y-127813655D01*
X152416096Y-127813659D01*
X152416097Y-127813663D01*
X152480988Y-127952821D01*
X152515965Y-128027830D01*
X152515967Y-128027834D01*
X152618461Y-128174210D01*
X152651505Y-128221401D01*
X152818599Y-128388495D01*
X152915384Y-128456265D01*
X153012165Y-128524032D01*
X153012167Y-128524033D01*
X153012170Y-128524035D01*
X153226337Y-128623903D01*
X153226343Y-128623904D01*
X153226344Y-128623905D01*
X153274541Y-128636819D01*
X153454592Y-128685063D01*
X153631034Y-128700500D01*
X153689999Y-128705659D01*
X153690000Y-128705659D01*
X153690001Y-128705659D01*
X153748966Y-128700500D01*
X153925408Y-128685063D01*
X154153663Y-128623903D01*
X154367830Y-128524035D01*
X154561401Y-128388495D01*
X154728495Y-128221401D01*
X154864035Y-128027830D01*
X154963903Y-127813663D01*
X155025063Y-127585408D01*
X155045659Y-127350000D01*
X155045152Y-127344210D01*
X155036868Y-127249522D01*
X155025063Y-127114592D01*
X154963903Y-126886337D01*
X154864035Y-126672171D01*
X154858985Y-126664958D01*
X154728494Y-126478597D01*
X154561402Y-126311506D01*
X154561395Y-126311501D01*
X154367834Y-126175967D01*
X154367830Y-126175965D01*
X154339381Y-126162699D01*
X154153663Y-126076097D01*
X154153659Y-126076096D01*
X154153655Y-126076094D01*
X153925413Y-126014938D01*
X153925403Y-126014936D01*
X153804629Y-126004369D01*
X153739561Y-125978916D01*
X153727757Y-125968522D01*
X152887590Y-125128355D01*
X152887588Y-125128352D01*
X152768717Y-125009481D01*
X152768716Y-125009480D01*
X152658400Y-124945789D01*
X152658398Y-124945788D01*
X152631785Y-124930423D01*
X152631784Y-124930422D01*
X152631783Y-124930422D01*
X152551420Y-124908889D01*
X152479057Y-124889499D01*
X152320943Y-124889499D01*
X152313347Y-124889499D01*
X152313331Y-124889500D01*
X147916670Y-124889500D01*
X147916654Y-124889499D01*
X147909058Y-124889499D01*
X147750943Y-124889499D01*
X147679159Y-124908734D01*
X147598214Y-124930423D01*
X147598209Y-124930426D01*
X147461290Y-125009475D01*
X147461286Y-125009478D01*
X147204648Y-125266115D01*
X147143325Y-125299599D01*
X147073633Y-125294615D01*
X147017700Y-125252743D01*
X147011973Y-125244405D01*
X146980291Y-125193984D01*
X146919816Y-125097738D01*
X146792262Y-124970184D01*
X146753436Y-124945788D01*
X146639523Y-124874211D01*
X146469254Y-124814631D01*
X146469249Y-124814630D01*
X146290004Y-124794435D01*
X146289996Y-124794435D01*
X146110750Y-124814630D01*
X146110745Y-124814631D01*
X145940476Y-124874211D01*
X145787737Y-124970184D01*
X145660182Y-125097739D01*
X145565882Y-125247816D01*
X145513547Y-125294106D01*
X145444494Y-125304754D01*
X145380646Y-125276379D01*
X145343847Y-125222796D01*
X145330789Y-125185479D01*
X145330789Y-125185478D01*
X145234816Y-125032738D01*
X145107262Y-124905184D01*
X145082301Y-124889500D01*
X144954523Y-124809211D01*
X144784254Y-124749631D01*
X144784249Y-124749630D01*
X144605004Y-124729435D01*
X144604996Y-124729435D01*
X144425750Y-124749630D01*
X144425745Y-124749631D01*
X144255476Y-124809211D01*
X144102736Y-124905185D01*
X144099903Y-124907445D01*
X144097724Y-124908334D01*
X144096842Y-124908889D01*
X144096744Y-124908734D01*
X144035217Y-124933855D01*
X144022588Y-124934500D01*
X143731139Y-124934500D01*
X143664100Y-124914815D01*
X143618345Y-124862011D01*
X143607919Y-124796616D01*
X143625565Y-124640002D01*
X143625565Y-124639996D01*
X143605369Y-124460750D01*
X143605368Y-124460745D01*
X143564793Y-124344788D01*
X143545789Y-124290478D01*
X143535037Y-124273367D01*
X143496506Y-124212044D01*
X143449816Y-124137738D01*
X143322262Y-124010184D01*
X143169523Y-123914211D01*
X142999254Y-123854631D01*
X142999249Y-123854630D01*
X142820004Y-123834435D01*
X142819996Y-123834435D01*
X142640750Y-123854630D01*
X142640745Y-123854631D01*
X142470476Y-123914211D01*
X142317737Y-124010184D01*
X142190184Y-124137737D01*
X142094211Y-124290476D01*
X142034631Y-124460745D01*
X142034630Y-124460750D01*
X142014435Y-124639996D01*
X142014435Y-124640002D01*
X142032081Y-124796616D01*
X142020027Y-124865438D01*
X141972677Y-124916818D01*
X141908861Y-124934500D01*
X134046569Y-124934500D01*
X133979530Y-124914815D01*
X133958888Y-124898181D01*
X133648511Y-124587804D01*
X133334072Y-124273366D01*
X133300588Y-124212044D01*
X133305572Y-124142353D01*
X133334073Y-124098005D01*
X133367584Y-124064494D01*
X133439816Y-123992262D01*
X133535789Y-123839522D01*
X133595368Y-123669255D01*
X133595784Y-123665565D01*
X133615565Y-123490003D01*
X133615565Y-123489996D01*
X133595369Y-123310750D01*
X133595368Y-123310745D01*
X133589854Y-123294988D01*
X133535789Y-123140478D01*
X133529969Y-123131216D01*
X133472186Y-123039254D01*
X133439816Y-122987738D01*
X133312262Y-122860184D01*
X133220080Y-122802262D01*
X133159523Y-122764211D01*
X132989254Y-122704631D01*
X132989249Y-122704630D01*
X132810004Y-122684435D01*
X132809996Y-122684435D01*
X132630750Y-122704630D01*
X132630745Y-122704631D01*
X132460476Y-122764211D01*
X132307737Y-122860184D01*
X132180184Y-122987737D01*
X132084210Y-123140478D01*
X132069260Y-123183205D01*
X132043628Y-123256456D01*
X132002909Y-123313230D01*
X131937956Y-123338978D01*
X131926588Y-123339500D01*
X129592412Y-123339500D01*
X129525373Y-123319815D01*
X129515097Y-123312445D01*
X129512263Y-123310185D01*
X129512262Y-123310184D01*
X129455496Y-123274515D01*
X129359523Y-123214211D01*
X129189254Y-123154631D01*
X129189249Y-123154630D01*
X129010004Y-123134435D01*
X129009996Y-123134435D01*
X128830750Y-123154630D01*
X128830737Y-123154633D01*
X128660479Y-123214209D01*
X128593150Y-123256515D01*
X128525913Y-123275515D01*
X128486225Y-123268563D01*
X128451793Y-123256515D01*
X128389255Y-123234632D01*
X128389254Y-123234631D01*
X128389252Y-123234631D01*
X128210004Y-123214435D01*
X128209996Y-123214435D01*
X128030750Y-123234630D01*
X128030737Y-123234633D01*
X127860479Y-123294209D01*
X127813023Y-123324028D01*
X127745786Y-123343028D01*
X127706097Y-123336075D01*
X127588688Y-123294991D01*
X127588675Y-123294988D01*
X127409430Y-123274793D01*
X127409422Y-123274793D01*
X127230176Y-123294988D01*
X127230168Y-123294990D01*
X127082824Y-123346548D01*
X127013045Y-123350109D01*
X126975899Y-123334501D01*
X126959522Y-123324211D01*
X126789254Y-123264631D01*
X126789249Y-123264630D01*
X126610004Y-123244435D01*
X126609996Y-123244435D01*
X126430750Y-123264630D01*
X126430745Y-123264631D01*
X126260476Y-123324211D01*
X126107737Y-123420184D01*
X125980184Y-123547737D01*
X125980182Y-123547740D01*
X125932904Y-123622982D01*
X125880569Y-123669273D01*
X125811516Y-123679920D01*
X125747668Y-123651545D01*
X125740230Y-123644690D01*
X125667035Y-123571495D01*
X125514294Y-123475521D01*
X125344022Y-123415941D01*
X125342091Y-123415724D01*
X125340925Y-123415234D01*
X125337232Y-123414391D01*
X125337379Y-123413744D01*
X125277677Y-123388657D01*
X125250981Y-123358476D01*
X125208038Y-123290133D01*
X125189038Y-123222897D01*
X125195989Y-123183211D01*
X125225368Y-123099255D01*
X125228717Y-123069532D01*
X125245565Y-122920003D01*
X125245565Y-122919996D01*
X125225369Y-122740750D01*
X125225368Y-122740745D01*
X125165789Y-122570478D01*
X125129556Y-122512813D01*
X125110556Y-122445576D01*
X125127303Y-122388550D01*
X125126034Y-122387939D01*
X125129051Y-122381674D01*
X125129052Y-122381673D01*
X125188631Y-122211406D01*
X125190335Y-122196283D01*
X125208828Y-122032154D01*
X125208828Y-122032147D01*
X125188632Y-121852904D01*
X125188631Y-121852902D01*
X125188631Y-121852896D01*
X125153019Y-121751126D01*
X125149458Y-121681348D01*
X125165068Y-121644199D01*
X125168313Y-121639035D01*
X125202250Y-121585026D01*
X125261829Y-121414759D01*
X125261830Y-121414753D01*
X125282026Y-121235507D01*
X125282026Y-121235500D01*
X125261830Y-121056254D01*
X125261829Y-121056249D01*
X125243428Y-121003663D01*
X125202250Y-120885982D01*
X125197684Y-120878716D01*
X125146656Y-120797505D01*
X125106277Y-120733242D01*
X125102218Y-120729183D01*
X125068733Y-120667860D01*
X125066679Y-120627619D01*
X125071190Y-120587580D01*
X125098256Y-120523166D01*
X125128438Y-120496469D01*
X125129517Y-120495790D01*
X125129522Y-120495789D01*
X125282262Y-120399816D01*
X125409816Y-120272262D01*
X125409818Y-120272258D01*
X125414155Y-120266821D01*
X125416533Y-120268717D01*
X125458625Y-120231351D01*
X125527659Y-120220577D01*
X125552443Y-120226477D01*
X125720737Y-120285366D01*
X125720743Y-120285367D01*
X125720745Y-120285368D01*
X125720746Y-120285368D01*
X125720750Y-120285369D01*
X125899996Y-120305565D01*
X125900000Y-120305565D01*
X125900004Y-120305565D01*
X126079249Y-120285369D01*
X126079252Y-120285368D01*
X126079255Y-120285368D01*
X126249522Y-120225789D01*
X126259299Y-120219646D01*
X126284027Y-120204108D01*
X126351263Y-120185107D01*
X126415973Y-120204108D01*
X126450475Y-120225788D01*
X126620745Y-120285368D01*
X126620750Y-120285369D01*
X126799996Y-120305565D01*
X126800000Y-120305565D01*
X126800004Y-120305565D01*
X126979249Y-120285369D01*
X126979252Y-120285368D01*
X126979255Y-120285368D01*
X127149522Y-120225789D01*
X127302262Y-120129816D01*
X127315240Y-120116837D01*
X127376562Y-120083352D01*
X127443878Y-120087476D01*
X127580737Y-120135366D01*
X127580741Y-120135367D01*
X127580742Y-120135367D01*
X127580745Y-120135368D01*
X127667668Y-120145161D01*
X127732079Y-120172226D01*
X127741464Y-120180700D01*
X127821284Y-120260520D01*
X127897620Y-120304592D01*
X127958215Y-120339577D01*
X128110943Y-120380501D01*
X128110946Y-120380501D01*
X128276653Y-120380501D01*
X128276669Y-120380500D01*
X131843678Y-120380500D01*
X131910717Y-120400185D01*
X131956472Y-120452989D01*
X131966898Y-120490617D01*
X131974630Y-120559249D01*
X131974631Y-120559254D01*
X131974632Y-120559255D01*
X131979171Y-120572226D01*
X132030428Y-120718713D01*
X132034211Y-120729522D01*
X132052004Y-120757840D01*
X132056026Y-120764240D01*
X132075026Y-120831477D01*
X132056026Y-120896184D01*
X131984211Y-121010476D01*
X131924631Y-121180745D01*
X131924630Y-121180750D01*
X131904435Y-121359996D01*
X131904435Y-121360003D01*
X131924630Y-121539249D01*
X131924631Y-121539254D01*
X131984211Y-121709523D01*
X132049217Y-121812978D01*
X132080184Y-121862262D01*
X132207738Y-121989816D01*
X132298080Y-122046582D01*
X132342721Y-122074632D01*
X132360478Y-122085789D01*
X132460377Y-122120745D01*
X132530745Y-122145368D01*
X132530750Y-122145369D01*
X132709996Y-122165565D01*
X132710000Y-122165565D01*
X132710004Y-122165565D01*
X132889249Y-122145369D01*
X132889252Y-122145368D01*
X132889255Y-122145368D01*
X133059522Y-122085789D01*
X133212262Y-121989816D01*
X133339816Y-121862262D01*
X133435789Y-121709522D01*
X133483369Y-121573545D01*
X133524091Y-121516770D01*
X133589043Y-121491022D01*
X133600411Y-121490500D01*
X136016089Y-121490500D01*
X136083128Y-121510185D01*
X136128883Y-121562989D01*
X136133130Y-121573545D01*
X136184209Y-121719519D01*
X136184211Y-121719522D01*
X136280184Y-121872262D01*
X136407738Y-121999816D01*
X136459199Y-122032151D01*
X136544561Y-122085788D01*
X136560478Y-122095789D01*
X136730745Y-122155368D01*
X136730750Y-122155369D01*
X136909996Y-122175565D01*
X136910000Y-122175565D01*
X136910004Y-122175565D01*
X137089249Y-122155369D01*
X137089252Y-122155368D01*
X137089255Y-122155368D01*
X137259522Y-122095789D01*
X137412262Y-121999816D01*
X137539816Y-121872262D01*
X137635789Y-121719522D01*
X137695368Y-121549255D01*
X137695368Y-121549254D01*
X137697668Y-121542682D01*
X137700506Y-121543675D01*
X137728045Y-121494378D01*
X137789688Y-121461485D01*
X137800996Y-121459679D01*
X137839249Y-121455369D01*
X137839252Y-121455368D01*
X137839255Y-121455368D01*
X138009522Y-121395789D01*
X138162262Y-121299816D01*
X138289816Y-121172262D01*
X138385789Y-121019522D01*
X138445368Y-120849255D01*
X138451199Y-120797504D01*
X138465565Y-120670003D01*
X138465565Y-120669996D01*
X138450918Y-120540000D01*
X139044341Y-120540000D01*
X139064936Y-120775403D01*
X139064938Y-120775413D01*
X139126094Y-121003655D01*
X139126096Y-121003659D01*
X139126097Y-121003663D01*
X139205420Y-121173772D01*
X139225965Y-121217830D01*
X139225967Y-121217834D01*
X139314341Y-121344044D01*
X139361505Y-121411401D01*
X139528599Y-121578495D01*
X139615055Y-121639032D01*
X139722165Y-121714032D01*
X139722167Y-121714033D01*
X139722170Y-121714035D01*
X139936337Y-121813903D01*
X140164592Y-121875063D01*
X140352918Y-121891539D01*
X140399999Y-121895659D01*
X140400000Y-121895659D01*
X140400001Y-121895659D01*
X140439234Y-121892226D01*
X140635408Y-121875063D01*
X140863663Y-121813903D01*
X141077830Y-121714035D01*
X141271401Y-121578495D01*
X141438495Y-121411401D01*
X141574035Y-121217830D01*
X141673903Y-121003663D01*
X141735063Y-120775408D01*
X141755659Y-120540000D01*
X141749097Y-120465000D01*
X143344341Y-120465000D01*
X143364936Y-120700403D01*
X143364938Y-120700413D01*
X143426094Y-120928655D01*
X143426096Y-120928659D01*
X143426097Y-120928663D01*
X143491205Y-121068287D01*
X143525965Y-121142830D01*
X143525967Y-121142834D01*
X143624546Y-121283618D01*
X143661505Y-121336401D01*
X143828599Y-121503495D01*
X143896650Y-121551145D01*
X144022165Y-121639032D01*
X144022167Y-121639033D01*
X144022170Y-121639035D01*
X144236337Y-121738903D01*
X144464592Y-121800063D01*
X144652918Y-121816539D01*
X144699999Y-121820659D01*
X144700000Y-121820659D01*
X144700001Y-121820659D01*
X144739234Y-121817226D01*
X144935408Y-121800063D01*
X145163663Y-121738903D01*
X145377830Y-121639035D01*
X145571401Y-121503495D01*
X145738495Y-121336401D01*
X145874035Y-121142830D01*
X145973903Y-120928663D01*
X146035063Y-120700408D01*
X146055659Y-120465000D01*
X146035063Y-120229592D01*
X145988249Y-120054878D01*
X145973905Y-120001344D01*
X145973904Y-120001343D01*
X145973903Y-120001337D01*
X145874035Y-119787171D01*
X145807877Y-119692686D01*
X145738494Y-119593597D01*
X145571402Y-119426506D01*
X145571395Y-119426501D01*
X145377834Y-119290967D01*
X145377830Y-119290965D01*
X145377828Y-119290964D01*
X145163663Y-119191097D01*
X145163659Y-119191096D01*
X145163655Y-119191094D01*
X144935413Y-119129938D01*
X144935403Y-119129936D01*
X144700001Y-119109341D01*
X144699999Y-119109341D01*
X144464596Y-119129936D01*
X144464586Y-119129938D01*
X144236344Y-119191094D01*
X144236335Y-119191098D01*
X144022171Y-119290964D01*
X144022169Y-119290965D01*
X143828597Y-119426505D01*
X143661505Y-119593597D01*
X143525965Y-119787169D01*
X143525964Y-119787171D01*
X143426098Y-120001335D01*
X143426094Y-120001344D01*
X143364938Y-120229586D01*
X143364936Y-120229596D01*
X143344341Y-120464999D01*
X143344341Y-120465000D01*
X141749097Y-120465000D01*
X141735063Y-120304592D01*
X141673903Y-120076337D01*
X141574035Y-119862171D01*
X141557990Y-119839255D01*
X141438494Y-119668597D01*
X141271402Y-119501506D01*
X141271395Y-119501501D01*
X141077834Y-119365967D01*
X141077830Y-119365965D01*
X141077828Y-119365964D01*
X140863663Y-119266097D01*
X140863659Y-119266096D01*
X140863655Y-119266094D01*
X140635413Y-119204938D01*
X140635403Y-119204936D01*
X140400001Y-119184341D01*
X140399999Y-119184341D01*
X140164596Y-119204936D01*
X140164586Y-119204938D01*
X139936344Y-119266094D01*
X139936335Y-119266098D01*
X139722171Y-119365964D01*
X139722169Y-119365965D01*
X139528597Y-119501505D01*
X139361505Y-119668597D01*
X139225965Y-119862169D01*
X139225964Y-119862171D01*
X139126098Y-120076335D01*
X139126094Y-120076344D01*
X139064938Y-120304586D01*
X139064936Y-120304596D01*
X139044341Y-120539999D01*
X139044341Y-120540000D01*
X138450918Y-120540000D01*
X138445369Y-120490750D01*
X138445366Y-120490737D01*
X138392472Y-120339577D01*
X138385789Y-120320478D01*
X138374361Y-120302292D01*
X138355362Y-120235059D01*
X138375729Y-120168224D01*
X138378282Y-120164702D01*
X138379813Y-120162264D01*
X138379816Y-120162262D01*
X138475789Y-120009522D01*
X138535368Y-119839255D01*
X138535369Y-119839249D01*
X138555565Y-119660003D01*
X138555565Y-119659996D01*
X138535369Y-119480750D01*
X138535368Y-119480745D01*
X138475788Y-119310476D01*
X138393490Y-119179500D01*
X138379816Y-119157738D01*
X138252262Y-119030184D01*
X138218257Y-119008817D01*
X138099523Y-118934211D01*
X137929254Y-118874631D01*
X137929249Y-118874630D01*
X137750004Y-118854435D01*
X137749996Y-118854435D01*
X137570750Y-118874630D01*
X137570745Y-118874631D01*
X137400476Y-118934211D01*
X137247737Y-119030184D01*
X137134741Y-119143181D01*
X137073418Y-119176666D01*
X137047060Y-119179500D01*
X132490780Y-119179500D01*
X132423741Y-119159815D01*
X132377986Y-119107011D01*
X132368042Y-119037853D01*
X132383375Y-118996087D01*
X132382769Y-118995795D01*
X132385774Y-118989553D01*
X132385782Y-118989534D01*
X132385788Y-118989523D01*
X132385789Y-118989522D01*
X132445368Y-118819255D01*
X132445369Y-118819249D01*
X132465565Y-118640003D01*
X132465565Y-118639996D01*
X132445369Y-118460750D01*
X132445368Y-118460745D01*
X132385788Y-118290476D01*
X132320333Y-118186306D01*
X132289816Y-118137738D01*
X132162262Y-118010184D01*
X132096642Y-117968952D01*
X132009523Y-117914211D01*
X131839254Y-117854631D01*
X131839249Y-117854630D01*
X131660004Y-117834435D01*
X131659996Y-117834435D01*
X131480750Y-117854630D01*
X131480745Y-117854631D01*
X131310476Y-117914211D01*
X131157739Y-118010183D01*
X131137121Y-118030801D01*
X131075797Y-118064285D01*
X131006105Y-118059299D01*
X130950172Y-118017426D01*
X130925757Y-117951962D01*
X130940610Y-117883689D01*
X130944448Y-117877145D01*
X130958024Y-117855540D01*
X131005789Y-117779522D01*
X131065368Y-117609255D01*
X131065369Y-117609249D01*
X131085565Y-117430003D01*
X131085565Y-117429996D01*
X131065369Y-117250750D01*
X131065368Y-117250745D01*
X131005788Y-117080475D01*
X130915396Y-116936619D01*
X130905048Y-116900003D01*
X134794435Y-116900003D01*
X134814630Y-117079249D01*
X134814631Y-117079254D01*
X134874211Y-117249523D01*
X134908839Y-117304632D01*
X134970184Y-117402262D01*
X135097738Y-117529816D01*
X135162429Y-117570464D01*
X135224162Y-117609254D01*
X135250478Y-117625789D01*
X135317540Y-117649255D01*
X135420745Y-117685368D01*
X135420750Y-117685369D01*
X135599996Y-117705565D01*
X135600000Y-117705565D01*
X135600004Y-117705565D01*
X135779249Y-117685369D01*
X135779252Y-117685368D01*
X135779255Y-117685368D01*
X135949522Y-117625789D01*
X136102262Y-117529816D01*
X136229816Y-117402262D01*
X136325789Y-117249522D01*
X136385368Y-117079255D01*
X136387585Y-117059581D01*
X136405565Y-116900003D01*
X136405565Y-116899996D01*
X136385369Y-116720750D01*
X136385368Y-116720745D01*
X136375059Y-116691284D01*
X136325789Y-116550478D01*
X136318165Y-116538345D01*
X136229815Y-116397737D01*
X136102262Y-116270184D01*
X135949523Y-116174211D01*
X135779254Y-116114631D01*
X135779249Y-116114630D01*
X135600004Y-116094435D01*
X135599996Y-116094435D01*
X135420750Y-116114630D01*
X135420745Y-116114631D01*
X135250476Y-116174211D01*
X135097737Y-116270184D01*
X134970184Y-116397737D01*
X134874211Y-116550476D01*
X134814631Y-116720745D01*
X134814630Y-116720750D01*
X134794435Y-116899996D01*
X134794435Y-116900003D01*
X130905048Y-116900003D01*
X130896395Y-116869382D01*
X130902682Y-116831647D01*
X130955349Y-116672708D01*
X130965500Y-116573345D01*
X130965499Y-116026656D01*
X130955349Y-115927292D01*
X130902003Y-115766303D01*
X130901999Y-115766297D01*
X130901998Y-115766294D01*
X130812970Y-115621959D01*
X130812967Y-115621955D01*
X130693044Y-115502032D01*
X130693040Y-115502029D01*
X130548705Y-115413001D01*
X130548699Y-115412998D01*
X130548697Y-115412997D01*
X130548694Y-115412996D01*
X130387709Y-115359651D01*
X130288346Y-115349500D01*
X129691662Y-115349500D01*
X129691644Y-115349501D01*
X129592292Y-115359650D01*
X129592289Y-115359651D01*
X129431305Y-115412996D01*
X129431294Y-115413001D01*
X129280809Y-115505823D01*
X129279131Y-115503103D01*
X129227534Y-115523909D01*
X129215440Y-115524500D01*
X127701874Y-115524500D01*
X127634835Y-115504815D01*
X127614193Y-115488181D01*
X127603044Y-115477032D01*
X127603040Y-115477029D01*
X127458705Y-115388001D01*
X127458699Y-115387998D01*
X127458697Y-115387997D01*
X127342520Y-115349500D01*
X127297709Y-115334651D01*
X127198346Y-115324500D01*
X126601662Y-115324500D01*
X126601644Y-115324501D01*
X126502292Y-115334650D01*
X126502289Y-115334651D01*
X126341305Y-115387996D01*
X126341294Y-115388001D01*
X126196959Y-115477029D01*
X126196955Y-115477032D01*
X126077032Y-115596955D01*
X126077029Y-115596959D01*
X126008622Y-115707864D01*
X125956674Y-115754589D01*
X125887712Y-115765810D01*
X125823630Y-115737967D01*
X125797546Y-115707864D01*
X125722970Y-115586959D01*
X125722967Y-115586955D01*
X125603044Y-115467032D01*
X125603040Y-115467029D01*
X125458705Y-115378001D01*
X125458699Y-115377998D01*
X125458697Y-115377997D01*
X125403329Y-115359650D01*
X125297709Y-115324651D01*
X125198346Y-115314500D01*
X124601662Y-115314500D01*
X124601644Y-115314501D01*
X124502292Y-115324650D01*
X124502289Y-115324651D01*
X124341305Y-115377996D01*
X124341294Y-115378001D01*
X124196959Y-115467029D01*
X124196955Y-115467032D01*
X124077032Y-115586955D01*
X124077029Y-115586959D01*
X123988001Y-115731294D01*
X123987996Y-115731305D01*
X123934651Y-115892290D01*
X123924500Y-115991647D01*
X123924500Y-116538337D01*
X123924501Y-116538355D01*
X123934650Y-116637707D01*
X123934651Y-116637710D01*
X123960814Y-116716664D01*
X123963216Y-116786493D01*
X123927484Y-116846534D01*
X123864963Y-116877727D01*
X123795504Y-116870166D01*
X123755427Y-116843349D01*
X123752262Y-116840184D01*
X123599523Y-116744211D01*
X123429254Y-116684631D01*
X123429249Y-116684630D01*
X123250004Y-116664435D01*
X123249996Y-116664435D01*
X123070746Y-116684631D01*
X123070745Y-116684631D01*
X123035479Y-116696971D01*
X122965700Y-116700532D01*
X122906845Y-116667610D01*
X122452590Y-116213355D01*
X122452588Y-116213352D01*
X122333717Y-116094481D01*
X122333716Y-116094480D01*
X122246904Y-116044360D01*
X122246904Y-116044359D01*
X122246900Y-116044358D01*
X122196785Y-116015423D01*
X122044057Y-115974499D01*
X121885943Y-115974499D01*
X121878347Y-115974499D01*
X121878331Y-115974500D01*
X119290258Y-115974500D01*
X119137531Y-116015423D01*
X119137524Y-116015426D01*
X119000605Y-116094475D01*
X119000597Y-116094481D01*
X118671898Y-116423181D01*
X118610575Y-116456666D01*
X118584217Y-116459500D01*
X113506669Y-116459500D01*
X113506653Y-116459499D01*
X113499057Y-116459499D01*
X113340943Y-116459499D01*
X113233587Y-116488265D01*
X113188210Y-116500424D01*
X113188209Y-116500425D01*
X113138096Y-116529359D01*
X113138095Y-116529360D01*
X113105214Y-116548344D01*
X113051285Y-116579479D01*
X113051282Y-116579481D01*
X112939478Y-116691286D01*
X112371465Y-117259298D01*
X112310142Y-117292783D01*
X112297668Y-117294837D01*
X112210750Y-117304630D01*
X112040478Y-117364210D01*
X111887737Y-117460184D01*
X111760184Y-117587737D01*
X111664211Y-117740476D01*
X111604631Y-117910745D01*
X111604630Y-117910750D01*
X111584435Y-118089996D01*
X111584435Y-118090003D01*
X111604630Y-118269249D01*
X111604631Y-118269254D01*
X111664211Y-118439523D01*
X111760184Y-118592262D01*
X111870571Y-118702649D01*
X111904056Y-118763972D01*
X111899932Y-118831285D01*
X111854631Y-118960745D01*
X111854630Y-118960749D01*
X111849215Y-119008817D01*
X111822148Y-119073231D01*
X111764554Y-119112786D01*
X111694717Y-119114923D01*
X111660023Y-119099927D01*
X111539523Y-119024211D01*
X111369254Y-118964631D01*
X111369249Y-118964630D01*
X111190004Y-118944435D01*
X111189996Y-118944435D01*
X111010750Y-118964630D01*
X111010745Y-118964631D01*
X110840476Y-119024211D01*
X110687737Y-119120184D01*
X110657681Y-119150241D01*
X110596358Y-119183726D01*
X110526666Y-119178742D01*
X110482319Y-119150241D01*
X110452262Y-119120184D01*
X110299523Y-119024211D01*
X110129254Y-118964631D01*
X110129249Y-118964630D01*
X109950004Y-118944435D01*
X109949996Y-118944435D01*
X109770750Y-118964630D01*
X109770745Y-118964631D01*
X109600476Y-119024211D01*
X109447737Y-119120184D01*
X109320184Y-119247737D01*
X109224211Y-119400476D01*
X109164631Y-119570745D01*
X109164630Y-119570750D01*
X109144435Y-119749996D01*
X109144435Y-119750003D01*
X94957811Y-119750003D01*
X100457811Y-114250003D01*
X114494435Y-114250003D01*
X114514630Y-114429249D01*
X114514631Y-114429254D01*
X114574211Y-114599523D01*
X114670184Y-114752262D01*
X114797738Y-114879816D01*
X114950478Y-114975789D01*
X115120745Y-115035368D01*
X115120750Y-115035369D01*
X115299996Y-115055565D01*
X115300000Y-115055565D01*
X115300004Y-115055565D01*
X115479249Y-115035369D01*
X115479252Y-115035368D01*
X115479255Y-115035368D01*
X115649522Y-114975789D01*
X115802262Y-114879816D01*
X115929816Y-114752262D01*
X116025789Y-114599522D01*
X116085368Y-114429255D01*
X116085369Y-114429249D01*
X116105565Y-114250003D01*
X116105565Y-114249996D01*
X116085369Y-114070750D01*
X116085368Y-114070745D01*
X116025788Y-113900476D01*
X115929815Y-113747737D01*
X115851346Y-113669268D01*
X123363700Y-113669268D01*
X123383895Y-113848514D01*
X123383896Y-113848519D01*
X123443476Y-114018788D01*
X123539449Y-114171527D01*
X123667003Y-114299081D01*
X123819743Y-114395054D01*
X123917467Y-114429249D01*
X123990010Y-114454633D01*
X123990015Y-114454634D01*
X124169261Y-114474830D01*
X124169265Y-114474830D01*
X124169269Y-114474830D01*
X124348514Y-114454634D01*
X124348517Y-114454633D01*
X124348520Y-114454633D01*
X124518787Y-114395054D01*
X124671527Y-114299081D01*
X124799081Y-114171527D01*
X124895054Y-114018787D01*
X124954633Y-113848520D01*
X124954634Y-113848514D01*
X124974830Y-113669268D01*
X124974830Y-113669261D01*
X124954634Y-113490015D01*
X124954633Y-113490010D01*
X124945753Y-113464632D01*
X124895054Y-113319743D01*
X124799081Y-113167003D01*
X124671527Y-113039449D01*
X124623899Y-113009522D01*
X124518788Y-112943476D01*
X124348519Y-112883896D01*
X124348514Y-112883895D01*
X124169269Y-112863700D01*
X124169261Y-112863700D01*
X123990015Y-112883895D01*
X123990010Y-112883896D01*
X123819741Y-112943476D01*
X123667002Y-113039449D01*
X123539449Y-113167002D01*
X123443476Y-113319741D01*
X123383896Y-113490010D01*
X123383895Y-113490015D01*
X123363700Y-113669261D01*
X123363700Y-113669268D01*
X115851346Y-113669268D01*
X115802262Y-113620184D01*
X115649523Y-113524211D01*
X115479254Y-113464631D01*
X115479249Y-113464630D01*
X115300004Y-113444435D01*
X115299996Y-113444435D01*
X115120750Y-113464630D01*
X115120745Y-113464631D01*
X114950476Y-113524211D01*
X114797737Y-113620184D01*
X114670184Y-113747737D01*
X114574211Y-113900476D01*
X114514631Y-114070745D01*
X114514630Y-114070750D01*
X114494435Y-114249996D01*
X114494435Y-114250003D01*
X100457811Y-114250003D01*
X102047811Y-112660003D01*
X116464435Y-112660003D01*
X116484630Y-112839249D01*
X116484631Y-112839254D01*
X116544211Y-113009523D01*
X116563015Y-113039449D01*
X116640184Y-113162262D01*
X116767738Y-113289816D01*
X116920478Y-113385789D01*
X117088079Y-113444435D01*
X117090745Y-113445368D01*
X117090750Y-113445369D01*
X117269996Y-113465565D01*
X117270000Y-113465565D01*
X117270004Y-113465565D01*
X117449249Y-113445369D01*
X117449252Y-113445368D01*
X117449255Y-113445368D01*
X117619522Y-113385789D01*
X117772262Y-113289816D01*
X117899816Y-113162262D01*
X117995789Y-113009522D01*
X118055368Y-112839255D01*
X118075565Y-112660000D01*
X118055368Y-112480745D01*
X117995789Y-112310478D01*
X117899816Y-112157738D01*
X117772262Y-112030184D01*
X117619523Y-111934211D01*
X117449254Y-111874631D01*
X117449249Y-111874630D01*
X117270004Y-111854435D01*
X117269996Y-111854435D01*
X117090750Y-111874630D01*
X117090745Y-111874631D01*
X116920476Y-111934211D01*
X116767737Y-112030184D01*
X116640184Y-112157737D01*
X116544211Y-112310476D01*
X116484631Y-112480745D01*
X116484630Y-112480750D01*
X116464435Y-112659996D01*
X116464435Y-112660003D01*
X102047811Y-112660003D01*
X103782049Y-110925765D01*
X122054500Y-110925765D01*
X122093719Y-111072136D01*
X122131602Y-111137750D01*
X122169485Y-111203365D01*
X122276635Y-111310515D01*
X122407865Y-111386281D01*
X122554234Y-111425500D01*
X122554236Y-111425500D01*
X122705764Y-111425500D01*
X122705766Y-111425500D01*
X122852135Y-111386281D01*
X122983365Y-111310515D01*
X123090515Y-111203365D01*
X123166281Y-111072135D01*
X123205500Y-110925766D01*
X123205500Y-110774234D01*
X123180251Y-110680003D01*
X125894435Y-110680003D01*
X125914630Y-110859249D01*
X125914631Y-110859254D01*
X125974211Y-111029523D01*
X126000987Y-111072136D01*
X126070184Y-111182262D01*
X126197738Y-111309816D01*
X126288080Y-111366582D01*
X126319429Y-111386280D01*
X126350478Y-111405789D01*
X126406809Y-111425500D01*
X126520745Y-111465368D01*
X126520750Y-111465369D01*
X126699996Y-111485565D01*
X126700000Y-111485565D01*
X126700004Y-111485565D01*
X126879249Y-111465369D01*
X126879252Y-111465368D01*
X126879255Y-111465368D01*
X127049522Y-111405789D01*
X127202262Y-111309816D01*
X127329816Y-111182262D01*
X127425789Y-111029522D01*
X127462095Y-110925765D01*
X127834500Y-110925765D01*
X127873719Y-111072136D01*
X127911602Y-111137750D01*
X127949485Y-111203365D01*
X128056635Y-111310515D01*
X128187865Y-111386281D01*
X128334234Y-111425500D01*
X128334236Y-111425500D01*
X128485764Y-111425500D01*
X128485766Y-111425500D01*
X128632135Y-111386281D01*
X128763365Y-111310515D01*
X128870515Y-111203365D01*
X128946281Y-111072135D01*
X128985500Y-110925766D01*
X128985500Y-110774234D01*
X128946281Y-110627865D01*
X128870515Y-110496635D01*
X128763365Y-110389485D01*
X128697750Y-110351602D01*
X128632136Y-110313719D01*
X128558950Y-110294109D01*
X128485766Y-110274500D01*
X128334234Y-110274500D01*
X128187863Y-110313719D01*
X128056635Y-110389485D01*
X128056632Y-110389487D01*
X127949487Y-110496632D01*
X127949485Y-110496635D01*
X127873719Y-110627863D01*
X127834500Y-110774234D01*
X127834500Y-110925765D01*
X127462095Y-110925765D01*
X127485368Y-110859255D01*
X127485369Y-110859249D01*
X127505565Y-110680003D01*
X127505565Y-110679996D01*
X127485369Y-110500750D01*
X127485368Y-110500745D01*
X127425788Y-110330476D01*
X127329815Y-110177737D01*
X127299324Y-110147246D01*
X127265839Y-110085923D01*
X127270823Y-110016231D01*
X127312695Y-109960298D01*
X127378159Y-109935881D01*
X127387005Y-109935565D01*
X127390004Y-109935565D01*
X127569249Y-109915369D01*
X127569252Y-109915368D01*
X127569255Y-109915368D01*
X127739522Y-109855789D01*
X127892262Y-109759816D01*
X128019816Y-109632262D01*
X128115789Y-109479522D01*
X128175368Y-109309255D01*
X128176495Y-109299254D01*
X128195565Y-109130003D01*
X128195565Y-109129996D01*
X128175369Y-108950750D01*
X128175368Y-108950745D01*
X128115788Y-108780476D01*
X128019815Y-108627737D01*
X127892262Y-108500184D01*
X127739523Y-108404211D01*
X127569254Y-108344631D01*
X127569249Y-108344630D01*
X127390004Y-108324435D01*
X127389996Y-108324435D01*
X127210750Y-108344630D01*
X127210745Y-108344631D01*
X127040476Y-108404211D01*
X126887737Y-108500184D01*
X126760184Y-108627737D01*
X126664211Y-108780476D01*
X126604631Y-108950745D01*
X126604630Y-108950750D01*
X126584435Y-109129996D01*
X126584435Y-109130003D01*
X126604630Y-109309249D01*
X126604631Y-109309254D01*
X126664211Y-109479523D01*
X126760184Y-109632262D01*
X126790676Y-109662754D01*
X126824161Y-109724077D01*
X126819177Y-109793769D01*
X126777305Y-109849702D01*
X126711841Y-109874119D01*
X126702995Y-109874435D01*
X126699996Y-109874435D01*
X126520750Y-109894630D01*
X126520745Y-109894631D01*
X126350476Y-109954211D01*
X126197737Y-110050184D01*
X126070184Y-110177737D01*
X125974211Y-110330476D01*
X125914631Y-110500745D01*
X125914630Y-110500750D01*
X125894435Y-110679996D01*
X125894435Y-110680003D01*
X123180251Y-110680003D01*
X123166281Y-110627865D01*
X123090515Y-110496635D01*
X122983365Y-110389485D01*
X122917750Y-110351602D01*
X122852136Y-110313719D01*
X122778950Y-110294109D01*
X122705766Y-110274500D01*
X122554234Y-110274500D01*
X122407863Y-110313719D01*
X122276635Y-110389485D01*
X122276632Y-110389487D01*
X122169487Y-110496632D01*
X122169485Y-110496635D01*
X122093719Y-110627863D01*
X122054500Y-110774234D01*
X122054500Y-110925765D01*
X103782049Y-110925765D01*
X106167811Y-108540003D01*
X119134435Y-108540003D01*
X119154630Y-108719249D01*
X119154631Y-108719254D01*
X119214211Y-108889523D01*
X119252680Y-108950745D01*
X119310184Y-109042262D01*
X119437738Y-109169816D01*
X119590478Y-109265789D01*
X119714680Y-109309249D01*
X119760745Y-109325368D01*
X119760750Y-109325369D01*
X119939996Y-109345565D01*
X119940000Y-109345565D01*
X119940004Y-109345565D01*
X120119249Y-109325369D01*
X120119252Y-109325368D01*
X120119255Y-109325368D01*
X120289522Y-109265789D01*
X120442262Y-109169816D01*
X120492075Y-109120003D01*
X123004435Y-109120003D01*
X123024630Y-109299249D01*
X123024631Y-109299254D01*
X123084211Y-109469523D01*
X123180184Y-109622262D01*
X123307738Y-109749816D01*
X123460478Y-109845789D01*
X123600063Y-109894632D01*
X123630745Y-109905368D01*
X123630750Y-109905369D01*
X123809996Y-109925565D01*
X123810000Y-109925565D01*
X123810004Y-109925565D01*
X123989249Y-109905369D01*
X123989252Y-109905368D01*
X123989255Y-109905368D01*
X124159522Y-109845789D01*
X124312262Y-109749816D01*
X124439816Y-109622262D01*
X124535789Y-109469522D01*
X124595368Y-109299255D01*
X124609952Y-109169816D01*
X124615565Y-109120003D01*
X124615565Y-109119996D01*
X124595369Y-108940750D01*
X124595368Y-108940745D01*
X124535788Y-108770476D01*
X124446099Y-108627738D01*
X124439816Y-108617738D01*
X124312262Y-108490184D01*
X124159523Y-108394211D01*
X123989254Y-108334631D01*
X123989249Y-108334630D01*
X123810004Y-108314435D01*
X123809996Y-108314435D01*
X123630750Y-108334630D01*
X123630745Y-108334631D01*
X123460476Y-108394211D01*
X123307737Y-108490184D01*
X123180184Y-108617737D01*
X123084211Y-108770476D01*
X123024631Y-108940745D01*
X123024630Y-108940750D01*
X123004435Y-109119996D01*
X123004435Y-109120003D01*
X120492075Y-109120003D01*
X120569816Y-109042262D01*
X120665789Y-108889522D01*
X120725368Y-108719255D01*
X120725369Y-108719249D01*
X120745565Y-108540003D01*
X120745565Y-108539996D01*
X120725369Y-108360750D01*
X120725368Y-108360745D01*
X120665788Y-108190476D01*
X120569815Y-108037737D01*
X120442262Y-107910184D01*
X120289523Y-107814211D01*
X120119254Y-107754631D01*
X120119249Y-107754630D01*
X119940004Y-107734435D01*
X119939996Y-107734435D01*
X119760750Y-107754630D01*
X119760745Y-107754631D01*
X119590476Y-107814211D01*
X119437737Y-107910184D01*
X119310184Y-108037737D01*
X119214211Y-108190476D01*
X119154631Y-108360745D01*
X119154630Y-108360750D01*
X119134435Y-108539996D01*
X119134435Y-108540003D01*
X106167811Y-108540003D01*
X107687811Y-107020003D01*
X114584435Y-107020003D01*
X114604630Y-107199249D01*
X114604631Y-107199254D01*
X114664211Y-107369523D01*
X114760184Y-107522262D01*
X114887738Y-107649816D01*
X115040478Y-107745789D01*
X115210745Y-107805368D01*
X115210750Y-107805369D01*
X115389996Y-107825565D01*
X115390000Y-107825565D01*
X115390004Y-107825565D01*
X115569249Y-107805369D01*
X115569252Y-107805368D01*
X115569255Y-107805368D01*
X115739522Y-107745789D01*
X115892262Y-107649816D01*
X116019816Y-107522262D01*
X116115789Y-107369522D01*
X116175368Y-107199255D01*
X116195565Y-107020000D01*
X116175368Y-106840745D01*
X116115789Y-106670478D01*
X116019816Y-106517738D01*
X115892262Y-106390184D01*
X115739523Y-106294211D01*
X115569254Y-106234631D01*
X115569249Y-106234630D01*
X115390004Y-106214435D01*
X115389996Y-106214435D01*
X115210750Y-106234630D01*
X115210745Y-106234631D01*
X115040476Y-106294211D01*
X114887737Y-106390184D01*
X114760184Y-106517737D01*
X114664211Y-106670476D01*
X114604631Y-106840745D01*
X114604630Y-106840750D01*
X114584435Y-107019996D01*
X114584435Y-107020003D01*
X107687811Y-107020003D01*
X109695995Y-105011819D01*
X109757318Y-104978334D01*
X109783676Y-104975500D01*
X141016324Y-104975500D01*
X141083363Y-104995185D01*
G37*
%TD.AperFunction*%
%TD*%
M02*
