%TF.GenerationSoftware,KiCad,Pcbnew,8.0.1*%
%TF.CreationDate,2024-04-11T10:52:21-07:00*%
%TF.ProjectId,TMC2240_RP2040,544d4332-3234-4305-9f52-50323034302e,rev?*%
%TF.SameCoordinates,Original*%
%TF.FileFunction,Soldermask,Top*%
%TF.FilePolarity,Negative*%
%FSLAX46Y46*%
G04 Gerber Fmt 4.6, Leading zero omitted, Abs format (unit mm)*
G04 Created by KiCad (PCBNEW 8.0.1) date 2024-04-11 10:52:21*
%MOMM*%
%LPD*%
G01*
G04 APERTURE LIST*
G04 Aperture macros list*
%AMRoundRect*
0 Rectangle with rounded corners*
0 $1 Rounding radius*
0 $2 $3 $4 $5 $6 $7 $8 $9 X,Y pos of 4 corners*
0 Add a 4 corners polygon primitive as box body*
4,1,4,$2,$3,$4,$5,$6,$7,$8,$9,$2,$3,0*
0 Add four circle primitives for the rounded corners*
1,1,$1+$1,$2,$3*
1,1,$1+$1,$4,$5*
1,1,$1+$1,$6,$7*
1,1,$1+$1,$8,$9*
0 Add four rect primitives between the rounded corners*
20,1,$1+$1,$2,$3,$4,$5,0*
20,1,$1+$1,$4,$5,$6,$7,0*
20,1,$1+$1,$6,$7,$8,$9,0*
20,1,$1+$1,$8,$9,$2,$3,0*%
%AMFreePoly0*
4,1,19,0.550000,-0.750000,0.000000,-0.750000,0.000000,-0.744911,-0.071157,-0.744911,-0.207708,-0.704816,-0.327430,-0.627875,-0.420627,-0.520320,-0.479746,-0.390866,-0.500000,-0.250000,-0.500000,0.250000,-0.479746,0.390866,-0.420627,0.520320,-0.327430,0.627875,-0.207708,0.704816,-0.071157,0.744911,0.000000,0.744911,0.000000,0.750000,0.550000,0.750000,0.550000,-0.750000,0.550000,-0.750000,
$1*%
%AMFreePoly1*
4,1,19,0.000000,0.744911,0.071157,0.744911,0.207708,0.704816,0.327430,0.627875,0.420627,0.520320,0.479746,0.390866,0.500000,0.250000,0.500000,-0.250000,0.479746,-0.390866,0.420627,-0.520320,0.327430,-0.627875,0.207708,-0.704816,0.071157,-0.744911,0.000000,-0.744911,0.000000,-0.750000,-0.550000,-0.750000,-0.550000,0.750000,0.000000,0.750000,0.000000,0.744911,0.000000,0.744911,
$1*%
%AMFreePoly2*
4,1,14,0.340806,0.106694,0.394194,0.053306,0.412500,0.009112,0.412500,-0.062500,0.394194,-0.106694,0.350000,-0.125000,-0.350000,-0.125000,-0.394194,-0.106694,-0.412500,-0.062500,-0.412500,0.062500,-0.394194,0.106694,-0.350000,0.125000,0.296612,0.125000,0.340806,0.106694,0.340806,0.106694,$1*%
%AMFreePoly3*
4,1,14,0.394194,0.106694,0.412500,0.062500,0.412500,-0.009112,0.394194,-0.053306,0.340806,-0.106694,0.296612,-0.125000,-0.350000,-0.125000,-0.394194,-0.106694,-0.412500,-0.062500,-0.412500,0.062500,-0.394194,0.106694,-0.350000,0.125000,0.350000,0.125000,0.394194,0.106694,0.394194,0.106694,$1*%
%AMFreePoly4*
4,1,14,0.106694,0.394194,0.125000,0.350000,0.125000,-0.350000,0.106694,-0.394194,0.062500,-0.412500,-0.062500,-0.412500,-0.106694,-0.394194,-0.125000,-0.350000,-0.125000,0.296612,-0.106694,0.340806,-0.053306,0.394194,-0.009112,0.412500,0.062500,0.412500,0.106694,0.394194,0.106694,0.394194,$1*%
%AMFreePoly5*
4,1,14,0.053306,0.394194,0.106694,0.340806,0.125000,0.296612,0.125000,-0.350000,0.106694,-0.394194,0.062500,-0.412500,-0.062500,-0.412500,-0.106694,-0.394194,-0.125000,-0.350000,-0.125000,0.350000,-0.106694,0.394194,-0.062500,0.412500,0.009112,0.412500,0.053306,0.394194,0.053306,0.394194,$1*%
%AMFreePoly6*
4,1,14,0.394194,0.106694,0.412500,0.062500,0.412500,-0.062500,0.394194,-0.106694,0.350000,-0.125000,-0.296612,-0.125000,-0.340806,-0.106694,-0.394194,-0.053306,-0.412500,-0.009112,-0.412500,0.062500,-0.394194,0.106694,-0.350000,0.125000,0.350000,0.125000,0.394194,0.106694,0.394194,0.106694,$1*%
%AMFreePoly7*
4,1,14,0.394194,0.106694,0.412500,0.062500,0.412500,-0.062500,0.394194,-0.106694,0.350000,-0.125000,-0.350000,-0.125000,-0.394194,-0.106694,-0.412500,-0.062500,-0.412500,0.009112,-0.394194,0.053306,-0.340806,0.106694,-0.296612,0.125000,0.350000,0.125000,0.394194,0.106694,0.394194,0.106694,$1*%
%AMFreePoly8*
4,1,14,0.106694,0.394194,0.125000,0.350000,0.125000,-0.296612,0.106694,-0.340806,0.053306,-0.394194,0.009112,-0.412500,-0.062500,-0.412500,-0.106694,-0.394194,-0.125000,-0.350000,-0.125000,0.350000,-0.106694,0.394194,-0.062500,0.412500,0.062500,0.412500,0.106694,0.394194,0.106694,0.394194,$1*%
%AMFreePoly9*
4,1,14,0.106694,0.394194,0.125000,0.350000,0.125000,-0.350000,0.106694,-0.394194,0.062500,-0.412500,-0.009112,-0.412500,-0.053306,-0.394194,-0.106694,-0.340806,-0.125000,-0.296612,-0.125000,0.350000,-0.106694,0.394194,-0.062500,0.412500,0.062500,0.412500,0.106694,0.394194,0.106694,0.394194,$1*%
G04 Aperture macros list end*
%ADD10RoundRect,0.250000X0.262500X0.450000X-0.262500X0.450000X-0.262500X-0.450000X0.262500X-0.450000X0*%
%ADD11RoundRect,0.200000X0.200000X0.275000X-0.200000X0.275000X-0.200000X-0.275000X0.200000X-0.275000X0*%
%ADD12RoundRect,0.200000X-0.200000X-0.275000X0.200000X-0.275000X0.200000X0.275000X-0.200000X0.275000X0*%
%ADD13RoundRect,0.150000X-0.512500X-0.150000X0.512500X-0.150000X0.512500X0.150000X-0.512500X0.150000X0*%
%ADD14R,1.700000X1.700000*%
%ADD15O,1.700000X1.700000*%
%ADD16RoundRect,0.225000X0.250000X-0.225000X0.250000X0.225000X-0.250000X0.225000X-0.250000X-0.225000X0*%
%ADD17RoundRect,0.200000X-0.275000X0.200000X-0.275000X-0.200000X0.275000X-0.200000X0.275000X0.200000X0*%
%ADD18RoundRect,0.225000X-0.225000X-0.250000X0.225000X-0.250000X0.225000X0.250000X-0.225000X0.250000X0*%
%ADD19RoundRect,0.200000X0.275000X-0.200000X0.275000X0.200000X-0.275000X0.200000X-0.275000X-0.200000X0*%
%ADD20RoundRect,0.225000X-0.250000X0.225000X-0.250000X-0.225000X0.250000X-0.225000X0.250000X0.225000X0*%
%ADD21RoundRect,0.225000X0.225000X0.250000X-0.225000X0.250000X-0.225000X-0.250000X0.225000X-0.250000X0*%
%ADD22C,5.600000*%
%ADD23C,0.650000*%
%ADD24R,0.600000X1.450000*%
%ADD25R,0.300000X1.450000*%
%ADD26O,1.000000X2.100000*%
%ADD27O,1.000000X1.600000*%
%ADD28RoundRect,0.050000X-0.387500X-0.050000X0.387500X-0.050000X0.387500X0.050000X-0.387500X0.050000X0*%
%ADD29RoundRect,0.050000X-0.050000X-0.387500X0.050000X-0.387500X0.050000X0.387500X-0.050000X0.387500X0*%
%ADD30R,3.200000X3.200000*%
%ADD31RoundRect,0.150000X-0.150000X0.512500X-0.150000X-0.512500X0.150000X-0.512500X0.150000X0.512500X0*%
%ADD32RoundRect,0.243750X0.456250X-0.243750X0.456250X0.243750X-0.456250X0.243750X-0.456250X-0.243750X0*%
%ADD33R,1.400000X1.200000*%
%ADD34RoundRect,0.150000X0.512500X0.150000X-0.512500X0.150000X-0.512500X-0.150000X0.512500X-0.150000X0*%
%ADD35RoundRect,0.250001X-2.049999X-0.799999X2.049999X-0.799999X2.049999X0.799999X-2.049999X0.799999X0*%
%ADD36RoundRect,0.150000X-0.587500X-0.150000X0.587500X-0.150000X0.587500X0.150000X-0.587500X0.150000X0*%
%ADD37RoundRect,0.250001X2.049999X0.799999X-2.049999X0.799999X-2.049999X-0.799999X2.049999X-0.799999X0*%
%ADD38RoundRect,0.243750X-0.456250X0.243750X-0.456250X-0.243750X0.456250X-0.243750X0.456250X0.243750X0*%
%ADD39RoundRect,0.100000X-0.637500X-0.100000X0.637500X-0.100000X0.637500X0.100000X-0.637500X0.100000X0*%
%ADD40RoundRect,0.150000X0.150000X-0.512500X0.150000X0.512500X-0.150000X0.512500X-0.150000X-0.512500X0*%
%ADD41FreePoly0,180.000000*%
%ADD42R,1.000000X1.500000*%
%ADD43FreePoly1,180.000000*%
%ADD44FreePoly2,270.000000*%
%ADD45RoundRect,0.062500X-0.062500X0.350000X-0.062500X-0.350000X0.062500X-0.350000X0.062500X0.350000X0*%
%ADD46FreePoly3,270.000000*%
%ADD47FreePoly4,270.000000*%
%ADD48RoundRect,0.062500X-0.350000X0.062500X-0.350000X-0.062500X0.350000X-0.062500X0.350000X0.062500X0*%
%ADD49FreePoly5,270.000000*%
%ADD50FreePoly6,270.000000*%
%ADD51FreePoly7,270.000000*%
%ADD52FreePoly8,270.000000*%
%ADD53FreePoly9,270.000000*%
%ADD54R,3.100000X3.100000*%
%ADD55RoundRect,0.150000X-0.150000X0.650000X-0.150000X-0.650000X0.150000X-0.650000X0.150000X0.650000X0*%
G04 APERTURE END LIST*
D10*
%TO.C,R27*%
X111712500Y-142650000D03*
X109887500Y-142650000D03*
%TD*%
D11*
%TO.C,R40*%
X142225000Y-131300000D03*
X140575000Y-131300000D03*
%TD*%
D12*
%TO.C,R39*%
X145550000Y-131300000D03*
X143900000Y-131300000D03*
%TD*%
D13*
%TO.C,D5*%
X138925000Y-137250000D03*
X138925000Y-139150000D03*
X141200000Y-138200000D03*
%TD*%
%TO.C,D4*%
X143525000Y-137450000D03*
X143525000Y-139350000D03*
X145800000Y-138400000D03*
%TD*%
%TO.C,D3*%
X143625000Y-133450000D03*
X143625000Y-135350000D03*
X145900000Y-134400000D03*
%TD*%
%TO.C,D2*%
X138825000Y-133150000D03*
X138825000Y-135050000D03*
X141100000Y-134100000D03*
%TD*%
D14*
%TO.C,J2*%
X153000000Y-144500000D03*
D15*
X153000000Y-141960000D03*
X153000000Y-139420000D03*
X153000000Y-136880000D03*
X153000000Y-134340000D03*
X153000000Y-131800000D03*
%TD*%
D16*
%TO.C,C45*%
X100750000Y-142175000D03*
X100750000Y-140625000D03*
%TD*%
D12*
%TO.C,R36*%
X143425000Y-126950000D03*
X145075000Y-126950000D03*
%TD*%
D17*
%TO.C,R41*%
X132650000Y-106700000D03*
X132650000Y-108350000D03*
%TD*%
D16*
%TO.C,C12*%
X124950000Y-147725000D03*
X124950000Y-146175000D03*
%TD*%
D17*
%TO.C,R14*%
X121500000Y-145500000D03*
X121500000Y-147150000D03*
%TD*%
D18*
%TO.C,C29*%
X132825000Y-118850000D03*
X134375000Y-118850000D03*
%TD*%
D19*
%TO.C,R26*%
X117300000Y-128550000D03*
X117300000Y-126900000D03*
%TD*%
D17*
%TO.C,R43*%
X124100000Y-114625000D03*
X124100000Y-116275000D03*
%TD*%
D11*
%TO.C,R29*%
X149700000Y-135500000D03*
X148050000Y-135500000D03*
%TD*%
%TO.C,R30*%
X149600000Y-140000000D03*
X147950000Y-140000000D03*
%TD*%
D17*
%TO.C,R47*%
X126100000Y-114675000D03*
X126100000Y-116325000D03*
%TD*%
D12*
%TO.C,R8*%
X119400000Y-127875000D03*
X121050000Y-127875000D03*
%TD*%
D20*
%TO.C,C6*%
X119600000Y-153250000D03*
X119600000Y-154800000D03*
%TD*%
D21*
%TO.C,C43*%
X105275000Y-140050000D03*
X103725000Y-140050000D03*
%TD*%
D14*
%TO.C,J14*%
X97200000Y-125980000D03*
D15*
X97200000Y-128520000D03*
X97200000Y-131060000D03*
X97200000Y-133600000D03*
%TD*%
D19*
%TO.C,R10*%
X123060000Y-128895000D03*
X123060000Y-127245000D03*
%TD*%
D21*
%TO.C,C44*%
X104875000Y-131400000D03*
X103325000Y-131400000D03*
%TD*%
D12*
%TO.C,R35*%
X135425000Y-143250000D03*
X137075000Y-143250000D03*
%TD*%
D22*
%TO.C,J10*%
X141275000Y-161275000D03*
%TD*%
D12*
%TO.C,R16*%
X130800000Y-137150000D03*
X132450000Y-137150000D03*
%TD*%
D17*
%TO.C,R13*%
X119600000Y-145525000D03*
X119600000Y-147175000D03*
%TD*%
D23*
%TO.C,J19*%
X128410000Y-110850000D03*
X122630000Y-110850000D03*
D24*
X128770000Y-112295000D03*
X127970000Y-112295000D03*
D25*
X126770000Y-112295000D03*
X125770000Y-112295000D03*
X125270000Y-112295000D03*
X124270000Y-112295000D03*
D24*
X123070000Y-112295000D03*
X122270000Y-112295000D03*
X122270000Y-112295000D03*
X123070000Y-112295000D03*
D25*
X123770000Y-112295000D03*
X124770000Y-112295000D03*
X126270000Y-112295000D03*
X127270000Y-112295000D03*
D24*
X127970000Y-112295000D03*
X128770000Y-112295000D03*
D26*
X129840000Y-111380000D03*
D27*
X129840000Y-107200000D03*
D26*
X121200000Y-111380000D03*
D27*
X121200000Y-107200000D03*
%TD*%
D18*
%TO.C,C17*%
X144275000Y-124200000D03*
X145825000Y-124200000D03*
%TD*%
D12*
%TO.C,R4*%
X119515000Y-124490000D03*
X121165000Y-124490000D03*
%TD*%
D21*
%TO.C,C11*%
X116775000Y-160450000D03*
X115225000Y-160450000D03*
%TD*%
D18*
%TO.C,C34*%
X115875000Y-130650000D03*
X117425000Y-130650000D03*
%TD*%
D22*
%TO.C,J5*%
X100000000Y-120000000D03*
%TD*%
D16*
%TO.C,C19*%
X123200000Y-132650000D03*
X123200000Y-131100000D03*
%TD*%
D12*
%TO.C,R5*%
X112350000Y-136500000D03*
X114000000Y-136500000D03*
%TD*%
D19*
%TO.C,R2*%
X122500000Y-143325000D03*
X122500000Y-141675000D03*
%TD*%
D28*
%TO.C,U5*%
X123312500Y-119162500D03*
X123312500Y-119562500D03*
X123312500Y-119962500D03*
X123312500Y-120362500D03*
X123312500Y-120762500D03*
X123312500Y-121162500D03*
X123312500Y-121562500D03*
X123312500Y-121962500D03*
X123312500Y-122362500D03*
X123312500Y-122762500D03*
X123312500Y-123162500D03*
X123312500Y-123562500D03*
X123312500Y-123962500D03*
X123312500Y-124362500D03*
D29*
X124150000Y-125200000D03*
X124550000Y-125200000D03*
X124950000Y-125200000D03*
X125350000Y-125200000D03*
X125750000Y-125200000D03*
X126150000Y-125200000D03*
X126550000Y-125200000D03*
X126950000Y-125200000D03*
X127350000Y-125200000D03*
X127750000Y-125200000D03*
X128150000Y-125200000D03*
X128550000Y-125200000D03*
X128950000Y-125200000D03*
X129350000Y-125200000D03*
D28*
X130187500Y-124362500D03*
X130187500Y-123962500D03*
X130187500Y-123562500D03*
X130187500Y-123162500D03*
X130187500Y-122762500D03*
X130187500Y-122362500D03*
X130187500Y-121962500D03*
X130187500Y-121562500D03*
X130187500Y-121162500D03*
X130187500Y-120762500D03*
X130187500Y-120362500D03*
X130187500Y-119962500D03*
X130187500Y-119562500D03*
X130187500Y-119162500D03*
D29*
X129350000Y-118325000D03*
X128950000Y-118325000D03*
X128550000Y-118325000D03*
X128150000Y-118325000D03*
X127750000Y-118325000D03*
X127350000Y-118325000D03*
X126950000Y-118325000D03*
X126550000Y-118325000D03*
X126150000Y-118325000D03*
X125750000Y-118325000D03*
X125350000Y-118325000D03*
X124950000Y-118325000D03*
X124550000Y-118325000D03*
X124150000Y-118325000D03*
D30*
X126750000Y-121762500D03*
%TD*%
D21*
%TO.C,C13*%
X118515000Y-156670000D03*
X116965000Y-156670000D03*
%TD*%
%TO.C,C14*%
X123950000Y-160350000D03*
X122400000Y-160350000D03*
%TD*%
D22*
%TO.C,J12*%
X141275000Y-110475000D03*
%TD*%
D31*
%TO.C,U7*%
X118650000Y-106275000D03*
X117700000Y-106275000D03*
X116750000Y-106275000D03*
X116750000Y-108550000D03*
X118650000Y-108550000D03*
%TD*%
D32*
%TO.C,D16*%
X134550000Y-132837500D03*
X134550000Y-130962500D03*
%TD*%
D33*
%TO.C,Y1*%
X127700000Y-131000000D03*
X125500000Y-131000000D03*
X125500000Y-132700000D03*
X127700000Y-132700000D03*
%TD*%
D11*
%TO.C,R23*%
X120650000Y-151200000D03*
X119000000Y-151200000D03*
%TD*%
D20*
%TO.C,C40*%
X111650000Y-133150000D03*
X111650000Y-134700000D03*
%TD*%
D22*
%TO.C,J6*%
X100000000Y-151750000D03*
%TD*%
D34*
%TO.C,D1*%
X141775000Y-143250000D03*
X141775000Y-141350000D03*
X139500000Y-142300000D03*
%TD*%
D20*
%TO.C,C2*%
X150000000Y-144525000D03*
X150000000Y-146075000D03*
%TD*%
D19*
%TO.C,R24*%
X130030000Y-143490000D03*
X130030000Y-141840000D03*
%TD*%
D17*
%TO.C,R3*%
X120350000Y-141675000D03*
X120350000Y-143325000D03*
%TD*%
D11*
%TO.C,R11*%
X131300000Y-153550000D03*
X129650000Y-153550000D03*
%TD*%
D35*
%TO.C,C7*%
X135400000Y-150850000D03*
X144200000Y-150850000D03*
%TD*%
D14*
%TO.C,J1*%
X131825000Y-163400000D03*
D15*
X134365000Y-163400000D03*
%TD*%
D19*
%TO.C,R25*%
X132380000Y-143610000D03*
X132380000Y-141960000D03*
%TD*%
D36*
%TO.C,Q1*%
X115975000Y-141700000D03*
X115975000Y-143600000D03*
X117850000Y-142650000D03*
%TD*%
D19*
%TO.C,R21*%
X125140000Y-143310000D03*
X125140000Y-141660000D03*
%TD*%
D11*
%TO.C,R38*%
X127925000Y-129000000D03*
X126275000Y-129000000D03*
%TD*%
D19*
%TO.C,R20*%
X133740000Y-128245000D03*
X133740000Y-126595000D03*
%TD*%
D21*
%TO.C,C37*%
X119775000Y-133550000D03*
X118225000Y-133550000D03*
%TD*%
D18*
%TO.C,C10*%
X129675000Y-155650000D03*
X131225000Y-155650000D03*
%TD*%
D22*
%TO.C,J8*%
X150800000Y-151750000D03*
%TD*%
D37*
%TO.C,C4*%
X115150000Y-151250000D03*
X106350000Y-151250000D03*
%TD*%
D13*
%TO.C,U8*%
X100725000Y-144150000D03*
X100725000Y-145100000D03*
X100725000Y-146050000D03*
X103000000Y-146050000D03*
X103000000Y-144150000D03*
%TD*%
D22*
%TO.C,J9*%
X109525000Y-161275000D03*
%TD*%
D18*
%TO.C,C5*%
X124250000Y-157750000D03*
X125800000Y-157750000D03*
%TD*%
%TO.C,C15*%
X126150000Y-160350000D03*
X127700000Y-160350000D03*
%TD*%
D11*
%TO.C,R18*%
X132350000Y-134925000D03*
X130700000Y-134925000D03*
%TD*%
D14*
%TO.C,J16*%
X148610000Y-127350000D03*
D15*
X151150000Y-127350000D03*
X153690000Y-127350000D03*
%TD*%
D11*
%TO.C,R31*%
X149700000Y-133000000D03*
X148050000Y-133000000D03*
%TD*%
%TO.C,R28*%
X149700000Y-130700000D03*
X148050000Y-130700000D03*
%TD*%
%TO.C,R32*%
X148050000Y-137800000D03*
X149700000Y-137800000D03*
%TD*%
D38*
%TO.C,D15*%
X132600000Y-110750000D03*
X132600000Y-112625000D03*
%TD*%
D22*
%TO.C,J7*%
X150800000Y-120000000D03*
%TD*%
D17*
%TO.C,R42*%
X132200000Y-130975000D03*
X132200000Y-132625000D03*
%TD*%
D14*
%TO.C,J4*%
X117330000Y-163600000D03*
D15*
X119870000Y-163600000D03*
X122410000Y-163600000D03*
X124950000Y-163600000D03*
%TD*%
D11*
%TO.C,R33*%
X149600000Y-142200000D03*
X147950000Y-142200000D03*
%TD*%
D39*
%TO.C,U6*%
X103400000Y-133400000D03*
X103400000Y-134050000D03*
X103400000Y-134700000D03*
X103400000Y-135350000D03*
X103400000Y-136000000D03*
X103400000Y-136650000D03*
X103400000Y-137300000D03*
X103400000Y-137950000D03*
X109125000Y-137950000D03*
X109125000Y-137300000D03*
X109125000Y-136650000D03*
X109125000Y-136000000D03*
X109125000Y-135350000D03*
X109125000Y-134700000D03*
X109125000Y-134050000D03*
X109125000Y-133400000D03*
%TD*%
D21*
%TO.C,C36*%
X119750000Y-137950000D03*
X118200000Y-137950000D03*
%TD*%
D16*
%TO.C,C9*%
X126950000Y-147725000D03*
X126950000Y-146175000D03*
%TD*%
D11*
%TO.C,R17*%
X128525000Y-135500000D03*
X126875000Y-135500000D03*
%TD*%
D12*
%TO.C,R7*%
X111805000Y-139190000D03*
X113455000Y-139190000D03*
%TD*%
D20*
%TO.C,C39*%
X100850000Y-132200000D03*
X100850000Y-133750000D03*
%TD*%
D12*
%TO.C,R12*%
X129700000Y-151300000D03*
X131350000Y-151300000D03*
%TD*%
D14*
%TO.C,J15*%
X97200000Y-138400000D03*
D15*
X97200000Y-140940000D03*
X97200000Y-143480000D03*
X97200000Y-146020000D03*
%TD*%
D21*
%TO.C,C28*%
X121075000Y-121700000D03*
X119525000Y-121700000D03*
%TD*%
D19*
%TO.C,R19*%
X121000000Y-131425000D03*
X121000000Y-129775000D03*
%TD*%
D21*
%TO.C,C16*%
X119775000Y-135650000D03*
X118225000Y-135650000D03*
%TD*%
D16*
%TO.C,C31*%
X114300000Y-113250000D03*
X114300000Y-111700000D03*
%TD*%
D20*
%TO.C,C42*%
X100850000Y-135950000D03*
X100850000Y-137500000D03*
%TD*%
%TO.C,C18*%
X130000000Y-131025000D03*
X130000000Y-132575000D03*
%TD*%
D18*
%TO.C,C20*%
X128670000Y-127180000D03*
X130220000Y-127180000D03*
%TD*%
D21*
%TO.C,C1*%
X132800000Y-159800000D03*
X131250000Y-159800000D03*
%TD*%
D17*
%TO.C,R48*%
X128050000Y-114700000D03*
X128050000Y-116350000D03*
%TD*%
D12*
%TO.C,R37*%
X139625000Y-126950000D03*
X141275000Y-126950000D03*
%TD*%
D14*
%TO.C,SW2*%
X140400000Y-118000000D03*
D15*
X140400000Y-120540000D03*
%TD*%
D11*
%TO.C,R1*%
X136625000Y-159800000D03*
X134975000Y-159800000D03*
%TD*%
%TO.C,R44*%
X122100000Y-114800000D03*
X120450000Y-114800000D03*
%TD*%
D18*
%TO.C,C25*%
X132825000Y-122650000D03*
X134375000Y-122650000D03*
%TD*%
D11*
%TO.C,R22*%
X120600000Y-149100000D03*
X118950000Y-149100000D03*
%TD*%
D21*
%TO.C,C32*%
X118450000Y-110600000D03*
X116900000Y-110600000D03*
%TD*%
D19*
%TO.C,R45*%
X117250000Y-125200000D03*
X117250000Y-123550000D03*
%TD*%
D40*
%TO.C,U3*%
X116350000Y-115050000D03*
X117300000Y-115050000D03*
X118250000Y-115050000D03*
X118250000Y-112775000D03*
X116350000Y-112775000D03*
%TD*%
D11*
%TO.C,R15*%
X131525000Y-148050000D03*
X129875000Y-148050000D03*
%TD*%
D21*
%TO.C,C33*%
X119525000Y-117250000D03*
X117975000Y-117250000D03*
%TD*%
%TO.C,C24*%
X126715000Y-127180000D03*
X125165000Y-127180000D03*
%TD*%
D14*
%TO.C,SW1*%
X144700000Y-117925000D03*
D15*
X144700000Y-120465000D03*
%TD*%
D19*
%TO.C,R9*%
X127290000Y-143335000D03*
X127290000Y-141685000D03*
%TD*%
D22*
%TO.C,J11*%
X109525000Y-110475000D03*
%TD*%
D41*
%TO.C,JP1*%
X141700000Y-124250000D03*
D42*
X140400000Y-124250000D03*
D43*
X139100000Y-124250000D03*
%TD*%
D16*
%TO.C,C22*%
X129990000Y-116275000D03*
X129990000Y-114725000D03*
%TD*%
D12*
%TO.C,R34*%
X135425000Y-140850000D03*
X137075000Y-140850000D03*
%TD*%
D16*
%TO.C,C23*%
X121400000Y-118325000D03*
X121400000Y-116775000D03*
%TD*%
%TO.C,C41*%
X100850000Y-129950000D03*
X100850000Y-128400000D03*
%TD*%
D21*
%TO.C,C35*%
X119490000Y-119370000D03*
X117940000Y-119370000D03*
%TD*%
D44*
%TO.C,U1*%
X127000000Y-150125000D03*
D45*
X126500000Y-150125000D03*
X126000000Y-150125000D03*
X125500000Y-150125000D03*
X125000000Y-150125000D03*
X124500000Y-150125000D03*
X124000000Y-150125000D03*
D46*
X123500000Y-150125000D03*
D47*
X122812500Y-150812500D03*
D48*
X122812500Y-151312500D03*
X122812500Y-151812500D03*
X122812500Y-152312500D03*
X122812500Y-152812500D03*
X122812500Y-153312500D03*
X122812500Y-153812500D03*
D49*
X122812500Y-154312500D03*
D50*
X123500000Y-155000000D03*
D45*
X124000000Y-155000000D03*
X124500000Y-155000000D03*
X125000000Y-155000000D03*
X125500000Y-155000000D03*
X126000000Y-155000000D03*
X126500000Y-155000000D03*
D51*
X127000000Y-155000000D03*
D52*
X127687500Y-154312500D03*
D48*
X127687500Y-153812500D03*
X127687500Y-153312500D03*
X127687500Y-152812500D03*
X127687500Y-152312500D03*
X127687500Y-151812500D03*
X127687500Y-151312500D03*
D53*
X127687500Y-150812500D03*
D54*
X125250000Y-152562500D03*
%TD*%
D12*
%TO.C,R6*%
X115550000Y-121690000D03*
X117200000Y-121690000D03*
%TD*%
D18*
%TO.C,C8*%
X118950000Y-160350000D03*
X120500000Y-160350000D03*
%TD*%
D16*
%TO.C,C30*%
X131960000Y-116265000D03*
X131960000Y-114715000D03*
%TD*%
D55*
%TO.C,U4*%
X113770000Y-122450000D03*
X112500000Y-122450000D03*
X111230000Y-122450000D03*
X109960000Y-122450000D03*
X109960000Y-129650000D03*
X111230000Y-129650000D03*
X112500000Y-129650000D03*
X113770000Y-129650000D03*
%TD*%
M02*
